%TF.GenerationSoftware,KiCad,Pcbnew,9.0.9-9.0.9~ubuntu24.04.1*%
%TF.CreationDate,2026-06-15T22:19:06+02:00*%
%TF.ProjectId,MicroPicoDrive,4d696372-6f50-4696-936f-44726976652e,1.4.g*%
%TF.SameCoordinates,Original*%
%TF.FileFunction,Copper,L1,Top*%
%TF.FilePolarity,Positive*%
%FSLAX46Y46*%
G04 Gerber Fmt 4.6, Leading zero omitted, Abs format (unit mm)*
G04 Created by KiCad (PCBNEW 9.0.9-9.0.9~ubuntu24.04.1) date 2026-06-15 22:19:06*
%MOMM*%
%LPD*%
G01*
G04 APERTURE LIST*
G04 Aperture macros list*
%AMRoundRect*
0 Rectangle with rounded corners*
0 $1 Rounding radius*
0 $2 $3 $4 $5 $6 $7 $8 $9 X,Y pos of 4 corners*
0 Add a 4 corners polygon primitive as box body*
4,1,4,$2,$3,$4,$5,$6,$7,$8,$9,$2,$3,0*
0 Add four circle primitives for the rounded corners*
1,1,$1+$1,$2,$3*
1,1,$1+$1,$4,$5*
1,1,$1+$1,$6,$7*
1,1,$1+$1,$8,$9*
0 Add four rect primitives between the rounded corners*
20,1,$1+$1,$2,$3,$4,$5,0*
20,1,$1+$1,$4,$5,$6,$7,0*
20,1,$1+$1,$6,$7,$8,$9,0*
20,1,$1+$1,$8,$9,$2,$3,0*%
G04 Aperture macros list end*
%TA.AperFunction,SMDPad,CuDef*%
%ADD10RoundRect,0.225000X-0.250000X0.225000X-0.250000X-0.225000X0.250000X-0.225000X0.250000X0.225000X0*%
%TD*%
%TA.AperFunction,SMDPad,CuDef*%
%ADD11RoundRect,0.225000X0.250000X-0.225000X0.250000X0.225000X-0.250000X0.225000X-0.250000X-0.225000X0*%
%TD*%
%TA.AperFunction,SMDPad,CuDef*%
%ADD12R,1.200000X0.600000*%
%TD*%
%TA.AperFunction,ComponentPad*%
%ADD13C,1.600000*%
%TD*%
%TA.AperFunction,ComponentPad*%
%ADD14R,1.700000X1.700000*%
%TD*%
%TA.AperFunction,ComponentPad*%
%ADD15O,1.700000X1.700000*%
%TD*%
%TA.AperFunction,SMDPad,CuDef*%
%ADD16RoundRect,0.225000X-0.225000X-0.250000X0.225000X-0.250000X0.225000X0.250000X-0.225000X0.250000X0*%
%TD*%
%TA.AperFunction,SMDPad,CuDef*%
%ADD17RoundRect,0.250000X-1.000000X-0.900000X1.000000X-0.900000X1.000000X0.900000X-1.000000X0.900000X0*%
%TD*%
%TA.AperFunction,ComponentPad*%
%ADD18R,1.905000X2.000000*%
%TD*%
%TA.AperFunction,ComponentPad*%
%ADD19O,1.905000X2.000000*%
%TD*%
%TA.AperFunction,SMDPad,CuDef*%
%ADD20RoundRect,0.225000X0.225000X0.250000X-0.225000X0.250000X-0.225000X-0.250000X0.225000X-0.250000X0*%
%TD*%
%TA.AperFunction,ComponentPad*%
%ADD21C,1.440000*%
%TD*%
%TA.AperFunction,SMDPad,CuDef*%
%ADD22RoundRect,0.200000X0.275000X-0.200000X0.275000X0.200000X-0.275000X0.200000X-0.275000X-0.200000X0*%
%TD*%
%TA.AperFunction,SMDPad,CuDef*%
%ADD23R,1.475000X0.450000*%
%TD*%
%TA.AperFunction,ComponentPad*%
%ADD24C,1.700000*%
%TD*%
%TA.AperFunction,ComponentPad*%
%ADD25RoundRect,0.250000X-0.350000X-0.350000X0.350000X-0.350000X0.350000X0.350000X-0.350000X0.350000X0*%
%TD*%
%TA.AperFunction,ComponentPad*%
%ADD26C,1.200000*%
%TD*%
%TA.AperFunction,ViaPad*%
%ADD27C,0.600000*%
%TD*%
%TA.AperFunction,ViaPad*%
%ADD28C,0.800000*%
%TD*%
%TA.AperFunction,Conductor*%
%ADD29C,0.500000*%
%TD*%
%TA.AperFunction,Conductor*%
%ADD30C,0.400000*%
%TD*%
%TA.AperFunction,Conductor*%
%ADD31C,0.300000*%
%TD*%
%TA.AperFunction,Conductor*%
%ADD32C,0.250000*%
%TD*%
G04 APERTURE END LIST*
D10*
%TO.P,C2,1*%
%TO.N,+5V*%
X149470000Y-95245000D03*
%TO.P,C2,2*%
%TO.N,GND*%
X149470000Y-96795000D03*
%TD*%
D11*
%TO.P,C4,1*%
%TO.N,+3V3*%
X140300000Y-100805000D03*
%TO.P,C4,2*%
%TO.N,GND*%
X140300000Y-99255000D03*
%TD*%
D12*
%TO.P,IC2,1,VCCA*%
%TO.N,+5V*%
X146020000Y-100820000D03*
%TO.P,IC2,2,GND*%
%TO.N,GND*%
X146020000Y-99870000D03*
%TO.P,IC2,3,A*%
%TO.N,/QL_HEAD2*%
X146020000Y-98920000D03*
%TO.P,IC2,4,B*%
%TO.N,/PICO_HEAD2*%
X143520000Y-98920000D03*
%TO.P,IC2,5,DIR*%
%TO.N,/HEAD_DIR*%
X143520000Y-99870000D03*
%TO.P,IC2,6,VCCB*%
%TO.N,+3V3*%
X143520000Y-100820000D03*
%TD*%
D10*
%TO.P,C1,2*%
%TO.N,GND*%
X149420000Y-102415000D03*
%TO.P,C1,1*%
%TO.N,+5V*%
X149420000Y-100865000D03*
%TD*%
%TO.P,C5,1*%
%TO.N,+3V3*%
X140300000Y-95235000D03*
%TO.P,C5,2*%
%TO.N,GND*%
X140300000Y-96785000D03*
%TD*%
D12*
%TO.P,IC1,1,VCCA*%
%TO.N,+5V*%
X146020000Y-95250000D03*
%TO.P,IC1,2,GND*%
%TO.N,GND*%
X146020000Y-94300000D03*
%TO.P,IC1,3,A*%
%TO.N,/QL_HEAD1*%
X146020000Y-93350000D03*
%TO.P,IC1,4,B*%
%TO.N,/PICO_HEAD1*%
X143520000Y-93350000D03*
%TO.P,IC1,5,DIR*%
%TO.N,/HEAD_DIR*%
X143520000Y-94300000D03*
%TO.P,IC1,6,VCCB*%
%TO.N,+3V3*%
X143520000Y-95250000D03*
%TD*%
D13*
%TO.P,R3,1*%
%TO.N,Net-(R3-Pad1)*%
X135790000Y-123080000D03*
%TO.P,R3,2*%
%TO.N,Net-(C7-Pad1)*%
X135790000Y-112920000D03*
%TD*%
D14*
%TO.P,J2,1,Pin_1*%
%TO.N,unconnected-(J2-Pin_1-Pad1)*%
X156420000Y-81590000D03*
D15*
%TO.P,J2,2,Pin_2*%
%TO.N,/QL_CS_IN*%
X156420000Y-79050000D03*
%TO.P,J2,3,Pin_3*%
%TO.N,/QL_R{slash}~{W}*%
X158960000Y-81590000D03*
%TO.P,J2,4,Pin_4*%
%TO.N,/QL_CS_OUT*%
X158960000Y-79050000D03*
%TO.P,J2,5,Pin_5*%
%TO.N,unconnected-(J2-Pin_5-Pad5)*%
X161500000Y-81590000D03*
%TO.P,J2,6,Pin_6*%
%TO.N,/QL_CS_CK*%
X161500000Y-79050000D03*
%TO.P,J2,7,Pin_7*%
%TO.N,/QL2PICO_ERASE*%
X164040000Y-81590000D03*
%TO.P,J2,8,Pin_8*%
%TO.N,/QL_HEAD1*%
X164040000Y-79050000D03*
%TO.P,J2,9,Pin_9*%
%TO.N,unconnected-(J2-Pin_9-Pad9)*%
X166580000Y-81590000D03*
%TO.P,J2,10,Pin_10*%
%TO.N,/QL_HEAD2*%
X166580000Y-79050000D03*
%TO.P,J2,11,Pin_11*%
%TO.N,unconnected-(J2-Pin_11-Pad11)*%
X169120000Y-81590000D03*
%TO.P,J2,12,Pin_12*%
%TO.N,+9V*%
X169120000Y-79050000D03*
%TO.P,J2,13,Pin_13*%
%TO.N,unconnected-(J2-Pin_13-Pad13)*%
X171660000Y-81590000D03*
%TO.P,J2,14,Pin_14*%
%TO.N,GND*%
X171660000Y-79050000D03*
%TD*%
D16*
%TO.P,C3,1*%
%TO.N,+5V*%
X146925000Y-83690000D03*
%TO.P,C3,2*%
%TO.N,GND*%
X148475000Y-83690000D03*
%TD*%
D17*
%TO.P,D1,1,K*%
%TO.N,Net-(D1-K)*%
X126962500Y-101180000D03*
%TO.P,D1,2,A*%
%TO.N,+5V*%
X131262500Y-101180000D03*
%TD*%
D18*
%TO.P,U1,1,VI*%
%TO.N,+9V*%
X177080000Y-100885000D03*
D19*
%TO.P,U1,2,GND*%
%TO.N,GND*%
X174540000Y-100885000D03*
%TO.P,U1,3,VO*%
%TO.N,+5V*%
X172000000Y-100885000D03*
%TD*%
D20*
%TO.P,C6,1*%
%TO.N,+3V3*%
X136360000Y-83170000D03*
%TO.P,C6,2*%
%TO.N,GND*%
X134810000Y-83170000D03*
%TD*%
D21*
%TO.P,RV1,1,1*%
%TO.N,GND*%
X137290000Y-127360000D03*
%TO.P,RV1,2,2*%
%TO.N,Net-(R3-Pad1)*%
X134750000Y-127360000D03*
%TO.P,RV1,3,3*%
%TO.N,Net-(Q1-E)*%
X132210000Y-127360000D03*
%TD*%
D14*
%TO.P,J1,1,Pin_1*%
%TO.N,+3V3*%
X146875000Y-110375000D03*
D15*
%TO.P,J1,2,Pin_2*%
%TO.N,/UI_LD_READ*%
X146875000Y-115455000D03*
%TO.P,J1,3,Pin_3*%
%TO.N,GND*%
X149415000Y-110375000D03*
%TO.P,J1,4,Pin_4*%
%TO.N,/UI_LD_WRITE*%
X149415000Y-115455000D03*
%TO.P,J1,5,Pin_5*%
%TO.N,/UI_SCR_SDA*%
X151955000Y-110375000D03*
%TO.P,J1,6,Pin_6*%
%TO.N,/UI_SD_CS*%
X151955000Y-115455000D03*
%TO.P,J1,7,Pin_7*%
%TO.N,/UI_SCR_SCL*%
X154495000Y-110375000D03*
%TO.P,J1,8,Pin_8*%
%TO.N,/UI_SD_SCK*%
X154495000Y-115455000D03*
%TO.P,J1,9,Pin_9*%
%TO.N,/UI_BTN_BACK*%
X157035000Y-110375000D03*
%TO.P,J1,10,Pin_10*%
%TO.N,/UI_SD_MISO*%
X157035000Y-115455000D03*
%TO.P,J1,11,Pin_11*%
%TO.N,/UI_BTN_NEXT*%
X159575000Y-110375000D03*
%TO.P,J1,12,Pin_12*%
%TO.N,/UI_SD_MOSI*%
X159575000Y-115455000D03*
%TO.P,J1,13,Pin_13*%
%TO.N,/UI_BTN_SELECT*%
X162115000Y-110375000D03*
%TO.P,J1,14,Pin_14*%
%TO.N,/UI_DETECT*%
X162115000Y-115455000D03*
%TO.P,J1,15,Pin_15*%
%TO.N,/UI_LD_SELECT*%
X164655000Y-110375000D03*
%TO.P,J1,16,Pin_16*%
%TO.N,GND*%
X164655000Y-115455000D03*
%TD*%
D22*
%TO.P,R4,1*%
%TO.N,/UI_DETECT*%
X167200000Y-91025000D03*
%TO.P,R4,2*%
%TO.N,Net-(U2-GPIO15)*%
X167200000Y-89375000D03*
%TD*%
D23*
%TO.P,IC3,1,VCCA*%
%TO.N,+5V*%
X144638000Y-82289579D03*
%TO.P,IC3,2,A1*%
%TO.N,/QL_CS_IN*%
X144638000Y-81639579D03*
%TO.P,IC3,3,A2*%
%TO.N,/QL_CS_CK*%
X144638000Y-80989579D03*
%TO.P,IC3,4,A3*%
%TO.N,/QL_R{slash}~{W}*%
X144638000Y-80339579D03*
%TO.P,IC3,5,A4Y*%
%TO.N,/QL_CS_OUT*%
X144638000Y-79689579D03*
%TO.P,IC3,6,NC_1*%
%TO.N,unconnected-(IC3-NC_1-Pad6)*%
X144638000Y-79039579D03*
%TO.P,IC3,7,GND*%
%TO.N,GND*%
X144638000Y-78389579D03*
%TO.P,IC3,8,OE*%
%TO.N,Net-(IC3-OE)*%
X138762000Y-78389579D03*
%TO.P,IC3,9,NC_2*%
%TO.N,unconnected-(IC3-NC_2-Pad9)*%
X138762000Y-79039579D03*
%TO.P,IC3,10,B4*%
%TO.N,/PICO_CS_OUT*%
X138762000Y-79689579D03*
%TO.P,IC3,11,B3Y*%
%TO.N,/PICO_R{slash}~{W}*%
X138762000Y-80339579D03*
%TO.P,IC3,12,B2Y*%
%TO.N,/PICO_CS_CK*%
X138762000Y-80989579D03*
%TO.P,IC3,13,B1Y*%
%TO.N,/PICO_CS_IN*%
X138762000Y-81639579D03*
%TO.P,IC3,14,VCCB*%
%TO.N,+3V3*%
X138762000Y-82289579D03*
%TD*%
D15*
%TO.P,U2,1,GPIO0*%
%TO.N,/PICO_CS_IN*%
X118970000Y-87580000D03*
%TO.P,U2,2,GPIO1*%
%TO.N,/PICO_CS_CK*%
X121510000Y-87580000D03*
D14*
%TO.P,U2,3,GND*%
%TO.N,GND*%
X124050000Y-87580000D03*
D15*
%TO.P,U2,4,GPIO2*%
%TO.N,/PICO_CS_OUT*%
X126590000Y-87580000D03*
%TO.P,U2,5,GPIO3*%
%TO.N,/PICO_HEAD1*%
X129130000Y-87580000D03*
%TO.P,U2,6,GPIO4*%
X131670000Y-87580000D03*
%TO.P,U2,7,GPIO5*%
%TO.N,/PICO_HEAD2*%
X134210000Y-87580000D03*
D14*
%TO.P,U2,8,GND*%
%TO.N,GND*%
X136750000Y-87580000D03*
D15*
%TO.P,U2,9,GPIO6*%
%TO.N,/PICO_HEAD2*%
X139290000Y-87580000D03*
%TO.P,U2,10,GPIO7*%
%TO.N,/PICO_R{slash}~{W}*%
X141830000Y-87580000D03*
%TO.P,U2,11,GPIO8*%
%TO.N,/QL2PICO_ERASE*%
X144370000Y-87580000D03*
%TO.P,U2,12,GPIO9*%
%TO.N,/UI_LD_SELECT*%
X146910000Y-87580000D03*
D14*
%TO.P,U2,13,GND*%
%TO.N,GND*%
X149450000Y-87580000D03*
D15*
%TO.P,U2,14,GPIO10*%
%TO.N,/UI_LD_READ*%
X151990000Y-87580000D03*
%TO.P,U2,15,GPIO11*%
%TO.N,/UI_LD_WRITE*%
X154530000Y-87580000D03*
%TO.P,U2,16,GPIO12*%
%TO.N,/UI_BTN_BACK*%
X157070000Y-87580000D03*
%TO.P,U2,17,GPIO13*%
%TO.N,/UI_BTN_NEXT*%
X159610000Y-87580000D03*
D14*
%TO.P,U2,18,GND*%
%TO.N,GND*%
X162150000Y-87580000D03*
D15*
%TO.P,U2,19,GPIO14*%
%TO.N,/UI_BTN_SELECT*%
X164690000Y-87580000D03*
%TO.P,U2,20,GPIO15*%
%TO.N,Net-(U2-GPIO15)*%
X167230000Y-87580000D03*
%TO.P,U2,21,GPIO16*%
%TO.N,/UI_SD_MISO*%
X167230000Y-105360000D03*
%TO.P,U2,22,GPIO17*%
%TO.N,/UI_SD_CS*%
X164690000Y-105360000D03*
D14*
%TO.P,U2,23,GND*%
%TO.N,GND*%
X162150000Y-105360000D03*
D15*
%TO.P,U2,24,GPIO18*%
%TO.N,/UI_SD_SCK*%
X159610000Y-105360000D03*
%TO.P,U2,25,GPIO19*%
%TO.N,/UI_SD_MOSI*%
X157070000Y-105360000D03*
%TO.P,U2,26,GPIO20*%
%TO.N,/UI_SCR_SDA*%
X154530000Y-105360000D03*
%TO.P,U2,27,GPIO21*%
%TO.N,/UI_SCR_SCL*%
X151990000Y-105360000D03*
D14*
%TO.P,U2,28,GND*%
%TO.N,GND*%
X149450000Y-105360000D03*
D15*
%TO.P,U2,29,GPIO22*%
%TO.N,/HEAD_DIR*%
X146910000Y-105360000D03*
%TO.P,U2,30,RUN*%
%TO.N,unconnected-(U2-RUN-Pad30)*%
X144370000Y-105360000D03*
%TO.P,U2,31,GPIO26_ADC0*%
%TO.N,unconnected-(U2-GPIO26_ADC0-Pad31)_1*%
X141830000Y-105360000D03*
%TO.P,U2,32,GPIO27_ADC1*%
%TO.N,unconnected-(U2-GPIO27_ADC1-Pad32)*%
X139290000Y-105360000D03*
D14*
%TO.P,U2,33,AGND*%
%TO.N,unconnected-(U2-AGND-Pad33)_1*%
X136750000Y-105360000D03*
D15*
%TO.P,U2,34,GPIO28_ADC2*%
%TO.N,/Speaker*%
X134210000Y-105360000D03*
%TO.P,U2,35,ADC_VREF*%
%TO.N,unconnected-(U2-ADC_VREF-Pad35)_1*%
X131670000Y-105360000D03*
%TO.P,U2,36,3V3*%
%TO.N,+3V3*%
X129130000Y-105360000D03*
%TO.P,U2,37,3V3_EN*%
%TO.N,unconnected-(U2-3V3_EN-Pad37)*%
X126590000Y-105360000D03*
D14*
%TO.P,U2,38,GND*%
%TO.N,GND*%
X124050000Y-105360000D03*
D15*
%TO.P,U2,39,VSYS*%
%TO.N,Net-(D1-K)*%
X121510000Y-105360000D03*
%TO.P,U2,40,VBUS*%
%TO.N,unconnected-(U2-VBUS-Pad40)*%
X118970000Y-105360000D03*
%TO.P,U2,41*%
%TO.N,N/C*%
X167000000Y-93930000D03*
D14*
%TO.P,U2,42*%
X167000000Y-96470000D03*
D15*
%TO.P,U2,43*%
X167000000Y-99010000D03*
%TD*%
D14*
%TO.P,LS1,1,1*%
%TO.N,Net-(C7-Pad1)*%
X140085000Y-122625000D03*
D24*
%TO.P,LS1,2,2*%
%TO.N,GND*%
X140085000Y-120085000D03*
%TD*%
D25*
%TO.P,C7,1*%
%TO.N,Net-(C7-Pad1)*%
X139630000Y-114700000D03*
D26*
%TO.P,C7,2*%
%TO.N,GND*%
X141130000Y-114700000D03*
%TD*%
D27*
%TO.N,GND*%
X148350000Y-99850000D03*
X153900000Y-102300000D03*
%TO.N,+5V*%
X142750000Y-81700000D03*
X147375000Y-100865000D03*
X147350000Y-95250000D03*
X145640000Y-90490000D03*
%TO.N,GND*%
X164180000Y-102220000D03*
X148700000Y-78920000D03*
X124930000Y-109840000D03*
X135580000Y-77550000D03*
X154040000Y-90300000D03*
X146550000Y-77700000D03*
X162200000Y-108540000D03*
X165080000Y-90950000D03*
X157100000Y-90340000D03*
X125600000Y-89870000D03*
X136070000Y-100810000D03*
X143090000Y-101970000D03*
X141800000Y-111460000D03*
X170300000Y-112900000D03*
X120320000Y-102220000D03*
X165270000Y-112810000D03*
X149760000Y-81830000D03*
X151890000Y-112830000D03*
X153740000Y-108990000D03*
X123780000Y-103350000D03*
X120320000Y-89900000D03*
X167770000Y-103280000D03*
X125630000Y-97460000D03*
X160841681Y-99191187D03*
X131860000Y-110640000D03*
X149380000Y-112860000D03*
X157060000Y-113740000D03*
X136760000Y-89370000D03*
X159060000Y-92440000D03*
X153940000Y-96330000D03*
X132420000Y-83090000D03*
X133700000Y-103000000D03*
X130700000Y-89900000D03*
X142775000Y-83700000D03*
X135120000Y-94380000D03*
X140730000Y-83590000D03*
D28*
%TO.N,+3V3*%
X139200000Y-95240000D03*
X139190000Y-91450000D03*
D27*
X129360000Y-98090000D03*
%TO.N,/QL2PICO_ERASE*%
X151030000Y-83350000D03*
%TO.N,/QL_HEAD1*%
X159305000Y-93345000D03*
%TO.N,/HEAD_DIR*%
X141790000Y-99900000D03*
X141780000Y-94300000D03*
%TO.N,/PICO_HEAD2*%
X143520000Y-98000000D03*
%TO.N,/QL_CS_CK*%
X143020000Y-79800000D03*
%TO.N,/QL_R{slash}~{W}*%
X146370000Y-80393079D03*
%TO.N,Net-(IC3-OE)*%
X140200000Y-78450000D03*
%TO.N,/PICO_CS_OUT*%
X136500000Y-79700000D03*
%TO.N,/PICO_CS_CK*%
X125674421Y-80935579D03*
%TO.N,/UI_SD_SCK*%
X155740000Y-109560000D03*
%TO.N,/UI_DETECT*%
X168250000Y-91300000D03*
%TO.N,/UI_LD_SELECT*%
X161590000Y-97370000D03*
X161115000Y-92845000D03*
X164490000Y-99020000D03*
%TD*%
D29*
%TO.N,+5V*%
X147375000Y-100865000D02*
X171870000Y-100865000D01*
X171870000Y-100865000D02*
X171925000Y-100810000D01*
X147375000Y-100865000D02*
X147295000Y-100865000D01*
X147295000Y-100865000D02*
X147250000Y-100820000D01*
X147250000Y-100820000D02*
X146020000Y-100820000D01*
D30*
%TO.N,/PICO_HEAD2*%
X143520000Y-98000000D02*
X143520000Y-98920000D01*
D31*
%TO.N,/PICO_CS_IN*%
X138762000Y-81639579D02*
X121960421Y-81639579D01*
X121960421Y-81639579D02*
X118970000Y-84630000D01*
X118970000Y-84630000D02*
X118970000Y-87580000D01*
D30*
%TO.N,/PICO_CS_CK*%
X125674421Y-80935579D02*
X125674421Y-80940000D01*
X125674421Y-80940000D02*
X125704421Y-80970000D01*
X125704421Y-80970000D02*
X138742421Y-80970000D01*
X138742421Y-80970000D02*
X138762000Y-80989579D01*
%TO.N,+5V*%
X144638000Y-82289579D02*
X145539579Y-82289579D01*
X145539579Y-82289579D02*
X146925000Y-83675000D01*
X146925000Y-83675000D02*
X146925000Y-83690000D01*
D31*
%TO.N,/UI_SD_CS*%
X163401000Y-111319000D02*
X163401000Y-106649000D01*
D29*
%TO.N,+5V*%
X149475000Y-95260000D02*
X149465000Y-95250000D01*
X135750000Y-102930000D02*
X143910000Y-102930000D01*
D31*
X145640000Y-84975000D02*
X146925000Y-83690000D01*
X145640000Y-90490000D02*
X145640000Y-84975000D01*
D30*
X143339579Y-82289579D02*
X144638000Y-82289579D01*
D29*
X134000000Y-101180000D02*
X135750000Y-102930000D01*
X149465000Y-95250000D02*
X146020000Y-95250000D01*
X143910000Y-102930000D02*
X146020000Y-100820000D01*
X131262500Y-101180000D02*
X134000000Y-101180000D01*
D30*
X142750000Y-81700000D02*
X143339579Y-82289579D01*
D31*
%TO.N,+3V3*%
X139190000Y-91450000D02*
X139190000Y-89400000D01*
D29*
X134315000Y-110375000D02*
X129300000Y-105360000D01*
X146875000Y-110375000D02*
X134315000Y-110375000D01*
X136765000Y-97625000D02*
X136765000Y-98535000D01*
X129380000Y-98070000D02*
X136390000Y-98070000D01*
X136318598Y-98071402D02*
X136318598Y-98088598D01*
X129360000Y-98090000D02*
X129340000Y-98110000D01*
X143490000Y-95220000D02*
X143520000Y-95250000D01*
D30*
X137240421Y-82289579D02*
X138762000Y-82289579D01*
D29*
X136390000Y-98070000D02*
X136410000Y-98090000D01*
D31*
X138036000Y-84846000D02*
X136360000Y-83170000D01*
X139190000Y-89400000D02*
X138036000Y-88246000D01*
D29*
X129300000Y-105360000D02*
X129130000Y-105360000D01*
D31*
X138036000Y-88246000D02*
X138036000Y-84846000D01*
D29*
X139200000Y-95240000D02*
X139220000Y-95220000D01*
X136765000Y-98535000D02*
X139050000Y-100820000D01*
X129360000Y-98090000D02*
X129380000Y-98070000D01*
X136318598Y-98088598D02*
X136765000Y-98535000D01*
X139220000Y-95220000D02*
X143490000Y-95220000D01*
X136800000Y-97590000D02*
X136318598Y-98071402D01*
X136800000Y-97590000D02*
X136765000Y-97625000D01*
D30*
X136360000Y-83170000D02*
X137240421Y-82289579D01*
D29*
X139150000Y-95240000D02*
X136800000Y-97590000D01*
X139050000Y-100820000D02*
X143520000Y-100820000D01*
X139200000Y-95240000D02*
X139150000Y-95240000D01*
D31*
%TO.N,/QL2PICO_ERASE*%
X151030000Y-83350000D02*
X162280000Y-83350000D01*
X162280000Y-83350000D02*
X164040000Y-81590000D01*
%TO.N,/QL_HEAD1*%
X159300000Y-93350000D02*
X146020000Y-93350000D01*
X159305000Y-93345000D02*
X159300000Y-93350000D01*
%TO.N,/PICO_HEAD1*%
X131670000Y-87580000D02*
X137380000Y-93290000D01*
X143460000Y-93290000D02*
X143520000Y-93350000D01*
X137380000Y-93290000D02*
X143460000Y-93290000D01*
D30*
X129300000Y-87580000D02*
X131670000Y-87580000D01*
D31*
%TO.N,/HEAD_DIR*%
X141800000Y-99890000D02*
X143500000Y-99890000D01*
X143500000Y-99890000D02*
X143520000Y-99870000D01*
X141790000Y-99900000D02*
X141800000Y-99890000D01*
X141780000Y-94300000D02*
X143520000Y-94300000D01*
%TO.N,/QL_HEAD2*%
X165310000Y-80320000D02*
X166580000Y-79050000D01*
X146090000Y-98910000D02*
X157610000Y-98910000D01*
X165310000Y-82780000D02*
X165310000Y-80320000D01*
X163420000Y-93100000D02*
X163420000Y-84670000D01*
X157610000Y-98910000D02*
X163420000Y-93100000D01*
X163420000Y-84670000D02*
X165310000Y-82780000D01*
%TO.N,/QL_CS_IN*%
X147960421Y-81639579D02*
X144638000Y-81639579D01*
X151400000Y-78200000D02*
X147960421Y-81639579D01*
X156420000Y-79050000D02*
X155570000Y-78200000D01*
X155570000Y-78200000D02*
X151400000Y-78200000D01*
%TO.N,/QL_CS_CK*%
X143020000Y-79800000D02*
X143020000Y-80384079D01*
X143625500Y-80989579D02*
X144638000Y-80989579D01*
X143020000Y-80384079D02*
X143625500Y-80989579D01*
D32*
%TO.N,/QL_R{slash}~{W}*%
X146370000Y-80393079D02*
X146316500Y-80339579D01*
X146316500Y-80339579D02*
X144638000Y-80339579D01*
D31*
%TO.N,/QL_CS_OUT*%
X148420000Y-77360000D02*
X157270000Y-77360000D01*
X146090421Y-79689579D02*
X148420000Y-77360000D01*
X144638000Y-79689579D02*
X146090421Y-79689579D01*
X157270000Y-77360000D02*
X158960000Y-79050000D01*
%TO.N,Net-(IC3-OE)*%
X138822421Y-78450000D02*
X138762000Y-78389579D01*
X140200000Y-78450000D02*
X138822421Y-78450000D01*
%TO.N,/PICO_CS_OUT*%
X138751579Y-79700000D02*
X138762000Y-79689579D01*
X136500000Y-79700000D02*
X138751579Y-79700000D01*
%TO.N,/PICO_R{slash}~{W}*%
X139599579Y-80339579D02*
X141606000Y-82346000D01*
X138762000Y-80339579D02*
X139599579Y-80339579D01*
X141606000Y-82346000D02*
X141606000Y-87186000D01*
X141606000Y-87186000D02*
X142000000Y-87580000D01*
X138762000Y-80339579D02*
X138752421Y-80330000D01*
%TO.N,/UI_SD_CS*%
X151955000Y-114635000D02*
X153790000Y-112800000D01*
X163401000Y-106649000D02*
X164690000Y-105360000D01*
X151955000Y-115455000D02*
X151955000Y-114635000D01*
X161920000Y-112800000D02*
X163401000Y-111319000D01*
X153790000Y-112800000D02*
X161920000Y-112800000D01*
D30*
%TO.N,/UI_SCR_SCL*%
X154495000Y-110375000D02*
X154495000Y-107915000D01*
X154495000Y-107915000D02*
X151990000Y-105410000D01*
X151990000Y-105410000D02*
X151990000Y-105360000D01*
D31*
%TO.N,/UI_SD_SCK*%
X155740000Y-108510000D02*
X157180000Y-107070000D01*
X157180000Y-107070000D02*
X158580000Y-107070000D01*
X155740000Y-109560000D02*
X155740000Y-108510000D01*
X158580000Y-107070000D02*
X159610000Y-106040000D01*
X159610000Y-106040000D02*
X159610000Y-105360000D01*
D30*
%TO.N,/UI_SD_MISO*%
X157035000Y-116935000D02*
X157900000Y-117800000D01*
X166250000Y-117800000D02*
X167230000Y-116820000D01*
X157035000Y-115455000D02*
X157035000Y-116935000D01*
X157900000Y-117800000D02*
X166250000Y-117800000D01*
X167230000Y-116820000D02*
X167230000Y-105360000D01*
D31*
%TO.N,/UI_DETECT*%
X167950000Y-91050000D02*
X167225000Y-91050000D01*
X168250000Y-91300000D02*
X168200000Y-91300000D01*
X167225000Y-91050000D02*
X167200000Y-91025000D01*
X168200000Y-91300000D02*
X167950000Y-91050000D01*
%TO.N,/UI_LD_SELECT*%
X159930000Y-91660000D02*
X149060000Y-91660000D01*
X161590000Y-97380000D02*
X162180000Y-97970000D01*
X162180000Y-97970000D02*
X163440000Y-97970000D01*
X149060000Y-91660000D02*
X146910000Y-89510000D01*
X163440000Y-97970000D02*
X164490000Y-99020000D01*
X161590000Y-97370000D02*
X161590000Y-97380000D01*
X146910000Y-89510000D02*
X146910000Y-87580000D01*
X161115000Y-92845000D02*
X159930000Y-91660000D01*
D30*
%TO.N,Net-(C7-Pad1)*%
X139630000Y-114700000D02*
X139630000Y-114665000D01*
X139630000Y-114665000D02*
X137885000Y-112920000D01*
X137885000Y-112920000D02*
X135790000Y-112920000D01*
D29*
%TO.N,Net-(D1-K)*%
X124070000Y-101180000D02*
X121510000Y-103740000D01*
X121510000Y-103740000D02*
X121510000Y-105360000D01*
X126962500Y-101180000D02*
X124070000Y-101180000D01*
D31*
%TO.N,Net-(U2-GPIO15)*%
X167600000Y-87950000D02*
X167230000Y-87580000D01*
X167200000Y-89375000D02*
X167200000Y-87610000D01*
X167200000Y-87610000D02*
X167230000Y-87580000D01*
%TD*%
%TA.AperFunction,Conductor*%
%TO.N,GND*%
G36*
X166039173Y-106037483D02*
G01*
X166065730Y-106068132D01*
X166068103Y-106072005D01*
X166068106Y-106072009D01*
X166193794Y-106245004D01*
X166344996Y-106396206D01*
X166427579Y-106456206D01*
X166470386Y-106487307D01*
X166513051Y-106542637D01*
X166521500Y-106587625D01*
X166521500Y-116475167D01*
X166501815Y-116542206D01*
X166485181Y-116562848D01*
X165992848Y-117055181D01*
X165931525Y-117088666D01*
X165905167Y-117091500D01*
X158244832Y-117091500D01*
X158177793Y-117071815D01*
X158157151Y-117055181D01*
X157833369Y-116731398D01*
X157799884Y-116670075D01*
X157804868Y-116600383D01*
X157846740Y-116544450D01*
X157848052Y-116543481D01*
X157920004Y-116491206D01*
X158071206Y-116340004D01*
X158196894Y-116167009D01*
X158196896Y-116167004D01*
X158199270Y-116163132D01*
X158251080Y-116116254D01*
X158320009Y-116104829D01*
X158384173Y-116132483D01*
X158410730Y-116163132D01*
X158413103Y-116167005D01*
X158413106Y-116167009D01*
X158538794Y-116340004D01*
X158689996Y-116491206D01*
X158862991Y-116616894D01*
X158911340Y-116641529D01*
X159053516Y-116713972D01*
X159053519Y-116713973D01*
X159107149Y-116731398D01*
X159256884Y-116780049D01*
X159468084Y-116813500D01*
X159468085Y-116813500D01*
X159681915Y-116813500D01*
X159681916Y-116813500D01*
X159893116Y-116780049D01*
X160096483Y-116713972D01*
X160287009Y-116616894D01*
X160460004Y-116491206D01*
X160611206Y-116340004D01*
X160736894Y-116167009D01*
X160736896Y-116167004D01*
X160739270Y-116163132D01*
X160791080Y-116116254D01*
X160860009Y-116104829D01*
X160924173Y-116132483D01*
X160950730Y-116163132D01*
X160953103Y-116167005D01*
X160953106Y-116167009D01*
X161078794Y-116340004D01*
X161229996Y-116491206D01*
X161402991Y-116616894D01*
X161451340Y-116641529D01*
X161593516Y-116713972D01*
X161593519Y-116713973D01*
X161647149Y-116731398D01*
X161796884Y-116780049D01*
X162008084Y-116813500D01*
X162008085Y-116813500D01*
X162221915Y-116813500D01*
X162221916Y-116813500D01*
X162433116Y-116780049D01*
X162636483Y-116713972D01*
X162827009Y-116616894D01*
X163000004Y-116491206D01*
X163151206Y-116340004D01*
X163276894Y-116167009D01*
X163279283Y-116162319D01*
X163327254Y-116111522D01*
X163395074Y-116094724D01*
X163461210Y-116117258D01*
X163497201Y-116158788D01*
X163497832Y-116158402D01*
X163500164Y-116162207D01*
X163500251Y-116162308D01*
X163500376Y-116162554D01*
X163625272Y-116334459D01*
X163625276Y-116334464D01*
X163775535Y-116484723D01*
X163775540Y-116484727D01*
X163947442Y-116609620D01*
X164136782Y-116706095D01*
X164338871Y-116771757D01*
X164405000Y-116782231D01*
X164405000Y-115888012D01*
X164462007Y-115920925D01*
X164589174Y-115955000D01*
X164720826Y-115955000D01*
X164847993Y-115920925D01*
X164905000Y-115888012D01*
X164905000Y-116782230D01*
X164971126Y-116771757D01*
X164971129Y-116771757D01*
X165173217Y-116706095D01*
X165362557Y-116609620D01*
X165534459Y-116484727D01*
X165534464Y-116484723D01*
X165684723Y-116334464D01*
X165684727Y-116334459D01*
X165809620Y-116162557D01*
X165906095Y-115973217D01*
X165971757Y-115771129D01*
X165971757Y-115771126D01*
X165982231Y-115705000D01*
X165088012Y-115705000D01*
X165120925Y-115647993D01*
X165155000Y-115520826D01*
X165155000Y-115389174D01*
X165120925Y-115262007D01*
X165088012Y-115205000D01*
X165982231Y-115205000D01*
X165971757Y-115138873D01*
X165971757Y-115138870D01*
X165906095Y-114936782D01*
X165809620Y-114747442D01*
X165684727Y-114575540D01*
X165684723Y-114575535D01*
X165534464Y-114425276D01*
X165534459Y-114425272D01*
X165362557Y-114300379D01*
X165173215Y-114203903D01*
X164971124Y-114138241D01*
X164905000Y-114127768D01*
X164905000Y-115021988D01*
X164847993Y-114989075D01*
X164720826Y-114955000D01*
X164589174Y-114955000D01*
X164462007Y-114989075D01*
X164405000Y-115021988D01*
X164405000Y-114127768D01*
X164404999Y-114127768D01*
X164338875Y-114138241D01*
X164136784Y-114203903D01*
X163947442Y-114300379D01*
X163775540Y-114425272D01*
X163775535Y-114425276D01*
X163625276Y-114575535D01*
X163625272Y-114575540D01*
X163500376Y-114747446D01*
X163500374Y-114747448D01*
X163500246Y-114747701D01*
X163500172Y-114747779D01*
X163497832Y-114751598D01*
X163497029Y-114751106D01*
X163452264Y-114798489D01*
X163384441Y-114815274D01*
X163318309Y-114792727D01*
X163279285Y-114747683D01*
X163276895Y-114742992D01*
X163180148Y-114609832D01*
X163151206Y-114569996D01*
X163000004Y-114418794D01*
X162827009Y-114293106D01*
X162796856Y-114277742D01*
X162636483Y-114196027D01*
X162636480Y-114196026D01*
X162433117Y-114129951D01*
X162327516Y-114113225D01*
X162221916Y-114096500D01*
X162008084Y-114096500D01*
X161937684Y-114107650D01*
X161796882Y-114129951D01*
X161593519Y-114196026D01*
X161593516Y-114196027D01*
X161402990Y-114293106D01*
X161229993Y-114418796D01*
X161078796Y-114569993D01*
X160953105Y-114742991D01*
X160950727Y-114746873D01*
X160898914Y-114793748D01*
X160829984Y-114805169D01*
X160765822Y-114777512D01*
X160739273Y-114746873D01*
X160736894Y-114742991D01*
X160705659Y-114700000D01*
X160611206Y-114569996D01*
X160460004Y-114418794D01*
X160287009Y-114293106D01*
X160256856Y-114277742D01*
X160096483Y-114196027D01*
X160096480Y-114196026D01*
X159893117Y-114129951D01*
X159787516Y-114113225D01*
X159681916Y-114096500D01*
X159468084Y-114096500D01*
X159397684Y-114107650D01*
X159256882Y-114129951D01*
X159053519Y-114196026D01*
X159053516Y-114196027D01*
X158862990Y-114293106D01*
X158689993Y-114418796D01*
X158538796Y-114569993D01*
X158413105Y-114742991D01*
X158410727Y-114746873D01*
X158358914Y-114793748D01*
X158289984Y-114805169D01*
X158225822Y-114777512D01*
X158199273Y-114746873D01*
X158196894Y-114742991D01*
X158165659Y-114700000D01*
X158071206Y-114569996D01*
X157920004Y-114418794D01*
X157747009Y-114293106D01*
X157716856Y-114277742D01*
X157556483Y-114196027D01*
X157556480Y-114196026D01*
X157353117Y-114129951D01*
X157247516Y-114113225D01*
X157141916Y-114096500D01*
X156928084Y-114096500D01*
X156857684Y-114107650D01*
X156716882Y-114129951D01*
X156513519Y-114196026D01*
X156513516Y-114196027D01*
X156322990Y-114293106D01*
X156149993Y-114418796D01*
X155998796Y-114569993D01*
X155873105Y-114742991D01*
X155870727Y-114746873D01*
X155818914Y-114793748D01*
X155749984Y-114805169D01*
X155685822Y-114777512D01*
X155659273Y-114746873D01*
X155656894Y-114742991D01*
X155625659Y-114700000D01*
X155531206Y-114569996D01*
X155380004Y-114418794D01*
X155207009Y-114293106D01*
X155176856Y-114277742D01*
X155016483Y-114196027D01*
X155016480Y-114196026D01*
X154813117Y-114129951D01*
X154707516Y-114113225D01*
X154601916Y-114096500D01*
X154388084Y-114096500D01*
X154317684Y-114107650D01*
X154176882Y-114129951D01*
X153973519Y-114196026D01*
X153973516Y-114196027D01*
X153782990Y-114293106D01*
X153609993Y-114418796D01*
X153458796Y-114569993D01*
X153333105Y-114742991D01*
X153330727Y-114746873D01*
X153278914Y-114793748D01*
X153209984Y-114805169D01*
X153145822Y-114777512D01*
X153119273Y-114746873D01*
X153116894Y-114742991D01*
X153085659Y-114700000D01*
X153036645Y-114632538D01*
X153013167Y-114566736D01*
X153028992Y-114498682D01*
X153049280Y-114471979D01*
X154026441Y-113494819D01*
X154087764Y-113461334D01*
X154114122Y-113458500D01*
X161984859Y-113458500D01*
X162070444Y-113441475D01*
X162112077Y-113433194D01*
X162231917Y-113383555D01*
X162339769Y-113311491D01*
X163912490Y-111738769D01*
X163943903Y-111691757D01*
X163959648Y-111668193D01*
X164013260Y-111623387D01*
X164082585Y-111614680D01*
X164119046Y-111626599D01*
X164133512Y-111633970D01*
X164133519Y-111633973D01*
X164235200Y-111667010D01*
X164336884Y-111700049D01*
X164548084Y-111733500D01*
X164548085Y-111733500D01*
X164761915Y-111733500D01*
X164761916Y-111733500D01*
X164973116Y-111700049D01*
X165176483Y-111633972D01*
X165367009Y-111536894D01*
X165540004Y-111411206D01*
X165691206Y-111260004D01*
X165816894Y-111087009D01*
X165913972Y-110896483D01*
X165980049Y-110693116D01*
X166013500Y-110481916D01*
X166013500Y-110268084D01*
X165980049Y-110056884D01*
X165913972Y-109853517D01*
X165913972Y-109853516D01*
X165864507Y-109756438D01*
X165816894Y-109662991D01*
X165691206Y-109489996D01*
X165540004Y-109338794D01*
X165367009Y-109213106D01*
X165363500Y-109211318D01*
X165176483Y-109116027D01*
X165176480Y-109116026D01*
X164973117Y-109049951D01*
X164867516Y-109033225D01*
X164761916Y-109016500D01*
X164548084Y-109016500D01*
X164506975Y-109023011D01*
X164336880Y-109049951D01*
X164221817Y-109087337D01*
X164151976Y-109089332D01*
X164092144Y-109053251D01*
X164061316Y-108990550D01*
X164059500Y-108969406D01*
X164059500Y-106973121D01*
X164068144Y-106943680D01*
X164074668Y-106913694D01*
X164078422Y-106908678D01*
X164079185Y-106906082D01*
X164095813Y-106885445D01*
X164261883Y-106719375D01*
X164323203Y-106685893D01*
X164368959Y-106684586D01*
X164473162Y-106701090D01*
X164583084Y-106718500D01*
X164583085Y-106718500D01*
X164796915Y-106718500D01*
X164796916Y-106718500D01*
X165008116Y-106685049D01*
X165211483Y-106618972D01*
X165402009Y-106521894D01*
X165575004Y-106396206D01*
X165726206Y-106245004D01*
X165851894Y-106072009D01*
X165851896Y-106072004D01*
X165854270Y-106068132D01*
X165906080Y-106021254D01*
X165975009Y-106009829D01*
X166039173Y-106037483D01*
G37*
%TD.AperFunction*%
%TA.AperFunction,Conductor*%
G36*
X149700000Y-106710000D02*
G01*
X150347828Y-106710000D01*
X150347844Y-106709999D01*
X150407372Y-106703598D01*
X150407379Y-106703596D01*
X150542086Y-106653354D01*
X150542093Y-106653350D01*
X150657187Y-106567190D01*
X150657190Y-106567187D01*
X150743350Y-106452093D01*
X150743355Y-106452084D01*
X150789348Y-106328770D01*
X150831219Y-106272836D01*
X150896683Y-106248418D01*
X150964956Y-106263269D01*
X150993211Y-106284421D01*
X151104996Y-106396206D01*
X151277991Y-106521894D01*
X151366883Y-106567187D01*
X151468516Y-106618972D01*
X151468519Y-106618973D01*
X151534820Y-106640515D01*
X151671884Y-106685049D01*
X151883084Y-106718500D01*
X151883085Y-106718500D01*
X152096914Y-106718500D01*
X152096916Y-106718500D01*
X152206834Y-106701090D01*
X152276125Y-106710044D01*
X152313911Y-106735882D01*
X153750181Y-108172152D01*
X153783666Y-108233475D01*
X153786500Y-108259833D01*
X153786500Y-109147375D01*
X153766815Y-109214414D01*
X153735386Y-109247692D01*
X153609996Y-109338794D01*
X153609994Y-109338796D01*
X153609993Y-109338796D01*
X153458796Y-109489993D01*
X153333105Y-109662991D01*
X153330727Y-109666873D01*
X153278914Y-109713748D01*
X153209984Y-109725169D01*
X153145822Y-109697512D01*
X153119273Y-109666873D01*
X153116894Y-109662991D01*
X153083116Y-109616500D01*
X152991206Y-109489996D01*
X152840004Y-109338794D01*
X152667009Y-109213106D01*
X152663500Y-109211318D01*
X152476483Y-109116027D01*
X152476480Y-109116026D01*
X152273117Y-109049951D01*
X152167516Y-109033225D01*
X152061916Y-109016500D01*
X151848084Y-109016500D01*
X151777684Y-109027650D01*
X151636882Y-109049951D01*
X151433519Y-109116026D01*
X151433516Y-109116027D01*
X151242990Y-109213106D01*
X151069993Y-109338796D01*
X150918796Y-109489993D01*
X150793103Y-109662994D01*
X150790709Y-109667693D01*
X150742731Y-109718485D01*
X150674908Y-109735275D01*
X150608775Y-109712732D01*
X150572800Y-109671210D01*
X150572168Y-109671598D01*
X150569829Y-109667781D01*
X150569743Y-109667682D01*
X150569620Y-109667441D01*
X150444727Y-109495540D01*
X150444723Y-109495535D01*
X150294464Y-109345276D01*
X150294459Y-109345272D01*
X150122557Y-109220379D01*
X149933215Y-109123903D01*
X149731124Y-109058241D01*
X149665000Y-109047768D01*
X149665000Y-109941988D01*
X149607993Y-109909075D01*
X149480826Y-109875000D01*
X149349174Y-109875000D01*
X149222007Y-109909075D01*
X149165000Y-109941988D01*
X149165000Y-109047768D01*
X149164999Y-109047768D01*
X149098875Y-109058241D01*
X148896784Y-109123903D01*
X148707442Y-109220379D01*
X148535541Y-109345271D01*
X148428084Y-109452728D01*
X148366761Y-109486212D01*
X148297069Y-109481228D01*
X148241136Y-109439356D01*
X148224223Y-109408384D01*
X148175889Y-109278796D01*
X148088261Y-109161739D01*
X147971204Y-109074111D01*
X147834203Y-109023011D01*
X147773654Y-109016500D01*
X147773638Y-109016500D01*
X145976362Y-109016500D01*
X145976345Y-109016500D01*
X145915797Y-109023011D01*
X145915795Y-109023011D01*
X145778795Y-109074111D01*
X145661739Y-109161739D01*
X145574111Y-109278795D01*
X145523011Y-109415795D01*
X145523011Y-109415797D01*
X145516500Y-109476345D01*
X145516500Y-109492500D01*
X145496815Y-109559539D01*
X145444011Y-109605294D01*
X145392500Y-109616500D01*
X134680543Y-109616500D01*
X134613504Y-109596815D01*
X134592862Y-109580181D01*
X131909517Y-106896836D01*
X131876032Y-106835513D01*
X131881016Y-106765821D01*
X131922888Y-106709888D01*
X131977801Y-106686682D01*
X131988116Y-106685049D01*
X132191483Y-106618972D01*
X132382009Y-106521894D01*
X132555004Y-106396206D01*
X132706206Y-106245004D01*
X132831894Y-106072009D01*
X132831896Y-106072004D01*
X132834270Y-106068132D01*
X132886080Y-106021254D01*
X132955009Y-106009829D01*
X133019173Y-106037483D01*
X133045730Y-106068132D01*
X133048103Y-106072005D01*
X133048106Y-106072009D01*
X133173794Y-106245004D01*
X133324996Y-106396206D01*
X133497991Y-106521894D01*
X133586883Y-106567187D01*
X133688516Y-106618972D01*
X133688519Y-106618973D01*
X133754820Y-106640515D01*
X133891884Y-106685049D01*
X134103084Y-106718500D01*
X134103085Y-106718500D01*
X134316915Y-106718500D01*
X134316916Y-106718500D01*
X134528116Y-106685049D01*
X134731483Y-106618972D01*
X134922009Y-106521894D01*
X135095004Y-106396206D01*
X135200184Y-106291025D01*
X135261503Y-106257543D01*
X135331195Y-106262527D01*
X135387129Y-106304398D01*
X135404043Y-106335375D01*
X135449110Y-106456203D01*
X135449111Y-106456204D01*
X135536739Y-106573261D01*
X135653796Y-106660889D01*
X135722944Y-106686680D01*
X135785463Y-106709999D01*
X135790799Y-106711989D01*
X135818050Y-106714918D01*
X135851345Y-106718499D01*
X135851362Y-106718500D01*
X137648638Y-106718500D01*
X137648654Y-106718499D01*
X137675692Y-106715591D01*
X137709201Y-106711989D01*
X137714537Y-106709999D01*
X137753610Y-106695425D01*
X137846204Y-106660889D01*
X137963261Y-106573261D01*
X138050889Y-106456204D01*
X138095957Y-106335371D01*
X138137827Y-106279442D01*
X138203291Y-106255025D01*
X138271564Y-106269877D01*
X138299818Y-106291028D01*
X138404996Y-106396206D01*
X138577991Y-106521894D01*
X138666883Y-106567187D01*
X138768516Y-106618972D01*
X138768519Y-106618973D01*
X138834820Y-106640515D01*
X138971884Y-106685049D01*
X139183084Y-106718500D01*
X139183085Y-106718500D01*
X139396915Y-106718500D01*
X139396916Y-106718500D01*
X139608116Y-106685049D01*
X139811483Y-106618972D01*
X140002009Y-106521894D01*
X140175004Y-106396206D01*
X140326206Y-106245004D01*
X140451894Y-106072009D01*
X140451896Y-106072004D01*
X140454270Y-106068132D01*
X140506080Y-106021254D01*
X140575009Y-106009829D01*
X140639173Y-106037483D01*
X140665730Y-106068132D01*
X140668103Y-106072005D01*
X140668106Y-106072009D01*
X140793794Y-106245004D01*
X140944996Y-106396206D01*
X141117991Y-106521894D01*
X141206883Y-106567187D01*
X141308516Y-106618972D01*
X141308519Y-106618973D01*
X141374820Y-106640515D01*
X141511884Y-106685049D01*
X141723084Y-106718500D01*
X141723085Y-106718500D01*
X141936915Y-106718500D01*
X141936916Y-106718500D01*
X142148116Y-106685049D01*
X142351483Y-106618972D01*
X142542009Y-106521894D01*
X142715004Y-106396206D01*
X142866206Y-106245004D01*
X142991894Y-106072009D01*
X142991896Y-106072004D01*
X142994270Y-106068132D01*
X143046080Y-106021254D01*
X143115009Y-106009829D01*
X143179173Y-106037483D01*
X143205730Y-106068132D01*
X143208103Y-106072005D01*
X143208106Y-106072009D01*
X143333794Y-106245004D01*
X143484996Y-106396206D01*
X143657991Y-106521894D01*
X143746883Y-106567187D01*
X143848516Y-106618972D01*
X143848519Y-106618973D01*
X143914820Y-106640515D01*
X144051884Y-106685049D01*
X144263084Y-106718500D01*
X144263085Y-106718500D01*
X144476915Y-106718500D01*
X144476916Y-106718500D01*
X144688116Y-106685049D01*
X144891483Y-106618972D01*
X145082009Y-106521894D01*
X145255004Y-106396206D01*
X145406206Y-106245004D01*
X145531894Y-106072009D01*
X145531896Y-106072004D01*
X145534270Y-106068132D01*
X145586080Y-106021254D01*
X145655009Y-106009829D01*
X145719173Y-106037483D01*
X145745730Y-106068132D01*
X145748103Y-106072005D01*
X145748106Y-106072009D01*
X145873794Y-106245004D01*
X146024996Y-106396206D01*
X146197991Y-106521894D01*
X146286883Y-106567187D01*
X146388516Y-106618972D01*
X146388519Y-106618973D01*
X146454820Y-106640515D01*
X146591884Y-106685049D01*
X146803084Y-106718500D01*
X146803085Y-106718500D01*
X147016915Y-106718500D01*
X147016916Y-106718500D01*
X147228116Y-106685049D01*
X147431483Y-106618972D01*
X147622009Y-106521894D01*
X147795004Y-106396206D01*
X147906791Y-106284418D01*
X147968110Y-106250936D01*
X148037802Y-106255920D01*
X148093736Y-106297791D01*
X148110651Y-106328769D01*
X148156645Y-106452086D01*
X148156649Y-106452093D01*
X148242809Y-106567187D01*
X148242812Y-106567190D01*
X148357906Y-106653350D01*
X148357913Y-106653354D01*
X148492620Y-106703596D01*
X148492627Y-106703598D01*
X148552155Y-106709999D01*
X148552172Y-106710000D01*
X149200000Y-106710000D01*
X149200000Y-105804560D01*
X149253147Y-105835245D01*
X149382857Y-105870000D01*
X149517143Y-105870000D01*
X149646853Y-105835245D01*
X149700000Y-105804560D01*
X149700000Y-106710000D01*
G37*
%TD.AperFunction*%
%TA.AperFunction,Conductor*%
G36*
X162400000Y-106710000D02*
G01*
X162618500Y-106710000D01*
X162685539Y-106729685D01*
X162731294Y-106782489D01*
X162742500Y-106834000D01*
X162742500Y-108979803D01*
X162722815Y-109046842D01*
X162670011Y-109092597D01*
X162600853Y-109102541D01*
X162580183Y-109097734D01*
X162433118Y-109049951D01*
X162433119Y-109049951D01*
X162274716Y-109024862D01*
X162221916Y-109016500D01*
X162008084Y-109016500D01*
X161937684Y-109027650D01*
X161796882Y-109049951D01*
X161593519Y-109116026D01*
X161593516Y-109116027D01*
X161402990Y-109213106D01*
X161229993Y-109338796D01*
X161078796Y-109489993D01*
X160953105Y-109662991D01*
X160950727Y-109666873D01*
X160898914Y-109713748D01*
X160829984Y-109725169D01*
X160765822Y-109697512D01*
X160739273Y-109666873D01*
X160736894Y-109662991D01*
X160703116Y-109616500D01*
X160611206Y-109489996D01*
X160460004Y-109338794D01*
X160287009Y-109213106D01*
X160283500Y-109211318D01*
X160096483Y-109116027D01*
X160096480Y-109116026D01*
X159893117Y-109049951D01*
X159787516Y-109033225D01*
X159681916Y-109016500D01*
X159468084Y-109016500D01*
X159397684Y-109027650D01*
X159256882Y-109049951D01*
X159053519Y-109116026D01*
X159053516Y-109116027D01*
X158862990Y-109213106D01*
X158689993Y-109338796D01*
X158538796Y-109489993D01*
X158413105Y-109662991D01*
X158410727Y-109666873D01*
X158358914Y-109713748D01*
X158289984Y-109725169D01*
X158225822Y-109697512D01*
X158199273Y-109666873D01*
X158196894Y-109662991D01*
X158163116Y-109616500D01*
X158071206Y-109489996D01*
X157920004Y-109338794D01*
X157747009Y-109213106D01*
X157743500Y-109211318D01*
X157556483Y-109116027D01*
X157556480Y-109116026D01*
X157353117Y-109049951D01*
X157247516Y-109033225D01*
X157141916Y-109016500D01*
X156928084Y-109016500D01*
X156886975Y-109023011D01*
X156716880Y-109049951D01*
X156560817Y-109100658D01*
X156532698Y-109101461D01*
X156504853Y-109105465D01*
X156498241Y-109102445D01*
X156490976Y-109102653D01*
X156466886Y-109088126D01*
X156441297Y-109076440D01*
X156437367Y-109070325D01*
X156431143Y-109066572D01*
X156418730Y-109041325D01*
X156403523Y-109017662D01*
X156402046Y-109007389D01*
X156400316Y-109003871D01*
X156398500Y-108982727D01*
X156398500Y-108834122D01*
X156418185Y-108767083D01*
X156434819Y-108746441D01*
X157416441Y-107764819D01*
X157477764Y-107731334D01*
X157504122Y-107728500D01*
X158644859Y-107728500D01*
X158730444Y-107711475D01*
X158772077Y-107703194D01*
X158891917Y-107653555D01*
X158999769Y-107581491D01*
X159861718Y-106719540D01*
X159923039Y-106686057D01*
X159927061Y-106685302D01*
X159928112Y-106685049D01*
X159928116Y-106685049D01*
X160131483Y-106618972D01*
X160322009Y-106521894D01*
X160495004Y-106396206D01*
X160606791Y-106284418D01*
X160668110Y-106250936D01*
X160737802Y-106255920D01*
X160793736Y-106297791D01*
X160810651Y-106328769D01*
X160856645Y-106452086D01*
X160856649Y-106452093D01*
X160942809Y-106567187D01*
X160942812Y-106567190D01*
X161057906Y-106653350D01*
X161057913Y-106653354D01*
X161192620Y-106703596D01*
X161192627Y-106703598D01*
X161252155Y-106709999D01*
X161252172Y-106710000D01*
X161900000Y-106710000D01*
X161900000Y-105804560D01*
X161953147Y-105835245D01*
X162082857Y-105870000D01*
X162217143Y-105870000D01*
X162346853Y-105835245D01*
X162400000Y-105804560D01*
X162400000Y-106710000D01*
G37*
%TD.AperFunction*%
%TA.AperFunction,Conductor*%
G36*
X133961648Y-82317764D02*
G01*
X134007403Y-82370568D01*
X134017347Y-82439726D01*
X134000147Y-82487176D01*
X133923457Y-82611507D01*
X133923452Y-82611518D01*
X133870144Y-82772393D01*
X133860000Y-82871677D01*
X133860000Y-82920000D01*
X134686000Y-82920000D01*
X134753039Y-82939685D01*
X134798794Y-82992489D01*
X134810000Y-83044000D01*
X134810000Y-83170000D01*
X134936000Y-83170000D01*
X135003039Y-83189685D01*
X135048794Y-83242489D01*
X135060000Y-83294000D01*
X135060000Y-84144999D01*
X135083308Y-84144999D01*
X135083322Y-84144998D01*
X135182607Y-84134855D01*
X135343481Y-84081547D01*
X135343492Y-84081542D01*
X135487728Y-83992575D01*
X135487732Y-83992572D01*
X135491309Y-83988996D01*
X135552632Y-83955511D01*
X135622324Y-83960495D01*
X135666671Y-83988996D01*
X135676959Y-83999284D01*
X135676963Y-83999287D01*
X135822890Y-84089297D01*
X135822893Y-84089298D01*
X135822899Y-84089302D01*
X135985664Y-84143236D01*
X136086128Y-84153500D01*
X136360878Y-84153500D01*
X136427917Y-84173185D01*
X136448559Y-84189819D01*
X137341181Y-85082441D01*
X137374666Y-85143764D01*
X137377500Y-85170122D01*
X137377500Y-86106000D01*
X137357815Y-86173039D01*
X137305011Y-86218794D01*
X137253500Y-86230000D01*
X137000000Y-86230000D01*
X137000000Y-87135439D01*
X136946853Y-87104755D01*
X136817143Y-87070000D01*
X136682857Y-87070000D01*
X136553147Y-87104755D01*
X136500000Y-87135439D01*
X136500000Y-86230000D01*
X135852155Y-86230000D01*
X135792627Y-86236401D01*
X135792620Y-86236403D01*
X135657913Y-86286645D01*
X135657906Y-86286649D01*
X135542812Y-86372809D01*
X135542809Y-86372812D01*
X135456649Y-86487906D01*
X135456645Y-86487913D01*
X135410651Y-86611230D01*
X135368779Y-86667164D01*
X135303315Y-86691581D01*
X135235042Y-86676729D01*
X135206788Y-86655578D01*
X135095006Y-86543796D01*
X135095004Y-86543794D01*
X134922009Y-86418106D01*
X134868499Y-86390841D01*
X134731483Y-86321027D01*
X134731480Y-86321026D01*
X134528117Y-86254951D01*
X134410997Y-86236401D01*
X134316916Y-86221500D01*
X134103084Y-86221500D01*
X134032684Y-86232650D01*
X133891882Y-86254951D01*
X133688519Y-86321026D01*
X133688516Y-86321027D01*
X133497990Y-86418106D01*
X133324993Y-86543796D01*
X133173796Y-86694993D01*
X133048105Y-86867991D01*
X133045727Y-86871873D01*
X132993914Y-86918748D01*
X132924984Y-86930169D01*
X132860822Y-86902512D01*
X132834273Y-86871873D01*
X132831894Y-86867991D01*
X132830794Y-86866477D01*
X132706206Y-86694996D01*
X132555004Y-86543794D01*
X132382009Y-86418106D01*
X132328499Y-86390841D01*
X132191483Y-86321027D01*
X132191480Y-86321026D01*
X131988117Y-86254951D01*
X131870997Y-86236401D01*
X131776916Y-86221500D01*
X131563084Y-86221500D01*
X131492684Y-86232650D01*
X131351882Y-86254951D01*
X131148519Y-86321026D01*
X131148516Y-86321027D01*
X130957990Y-86418106D01*
X130784993Y-86543796D01*
X130633796Y-86694993D01*
X130633796Y-86694994D01*
X130633794Y-86694996D01*
X130542693Y-86820386D01*
X130538360Y-86823726D01*
X130536088Y-86828703D01*
X130510988Y-86844833D01*
X130487363Y-86863051D01*
X130480691Y-86864303D01*
X130477310Y-86866477D01*
X130442375Y-86871500D01*
X130357625Y-86871500D01*
X130290586Y-86851815D01*
X130257307Y-86820386D01*
X130166206Y-86694996D01*
X130015004Y-86543794D01*
X129842009Y-86418106D01*
X129788499Y-86390841D01*
X129651483Y-86321027D01*
X129651480Y-86321026D01*
X129448117Y-86254951D01*
X129330997Y-86236401D01*
X129236916Y-86221500D01*
X129023084Y-86221500D01*
X128952684Y-86232650D01*
X128811882Y-86254951D01*
X128608519Y-86321026D01*
X128608516Y-86321027D01*
X128417990Y-86418106D01*
X128244993Y-86543796D01*
X128093796Y-86694993D01*
X127968105Y-86867991D01*
X127965727Y-86871873D01*
X127913914Y-86918748D01*
X127844984Y-86930169D01*
X127780822Y-86902512D01*
X127754273Y-86871873D01*
X127751894Y-86867991D01*
X127750794Y-86866477D01*
X127626206Y-86694996D01*
X127475004Y-86543794D01*
X127302009Y-86418106D01*
X127248499Y-86390841D01*
X127111483Y-86321027D01*
X127111480Y-86321026D01*
X126908117Y-86254951D01*
X126790997Y-86236401D01*
X126696916Y-86221500D01*
X126483084Y-86221500D01*
X126412684Y-86232650D01*
X126271882Y-86254951D01*
X126068519Y-86321026D01*
X126068516Y-86321027D01*
X125877990Y-86418106D01*
X125704997Y-86543793D01*
X125593211Y-86655579D01*
X125531888Y-86689063D01*
X125462196Y-86684079D01*
X125406263Y-86642207D01*
X125389348Y-86611230D01*
X125343354Y-86487913D01*
X125343350Y-86487906D01*
X125257190Y-86372812D01*
X125257187Y-86372809D01*
X125142093Y-86286649D01*
X125142086Y-86286645D01*
X125007379Y-86236403D01*
X125007372Y-86236401D01*
X124947844Y-86230000D01*
X124300000Y-86230000D01*
X124300000Y-87135439D01*
X124246853Y-87104755D01*
X124117143Y-87070000D01*
X123982857Y-87070000D01*
X123853147Y-87104755D01*
X123800000Y-87135439D01*
X123800000Y-86230000D01*
X123152155Y-86230000D01*
X123092627Y-86236401D01*
X123092620Y-86236403D01*
X122957913Y-86286645D01*
X122957906Y-86286649D01*
X122842812Y-86372809D01*
X122842809Y-86372812D01*
X122756649Y-86487906D01*
X122756645Y-86487913D01*
X122710651Y-86611230D01*
X122668779Y-86667164D01*
X122603315Y-86691581D01*
X122535042Y-86676729D01*
X122506788Y-86655578D01*
X122395006Y-86543796D01*
X122395004Y-86543794D01*
X122222009Y-86418106D01*
X122168499Y-86390841D01*
X122031483Y-86321027D01*
X122031480Y-86321026D01*
X121828117Y-86254951D01*
X121710997Y-86236401D01*
X121616916Y-86221500D01*
X121403084Y-86221500D01*
X121332684Y-86232650D01*
X121191882Y-86254951D01*
X120988519Y-86321026D01*
X120988516Y-86321027D01*
X120797990Y-86418106D01*
X120624993Y-86543796D01*
X120473796Y-86694993D01*
X120348105Y-86867991D01*
X120345727Y-86871873D01*
X120293914Y-86918748D01*
X120224984Y-86930169D01*
X120160822Y-86902512D01*
X120134273Y-86871873D01*
X120131894Y-86867991D01*
X120130794Y-86866477D01*
X120006206Y-86694996D01*
X119855004Y-86543794D01*
X119778081Y-86487906D01*
X119679614Y-86416365D01*
X119636949Y-86361035D01*
X119628500Y-86316047D01*
X119628500Y-84954122D01*
X119648185Y-84887083D01*
X119664819Y-84866441D01*
X121062938Y-83468322D01*
X133860001Y-83468322D01*
X133870144Y-83567607D01*
X133923452Y-83728481D01*
X133923457Y-83728492D01*
X134012424Y-83872728D01*
X134012427Y-83872732D01*
X134132267Y-83992572D01*
X134132271Y-83992575D01*
X134276507Y-84081542D01*
X134276518Y-84081547D01*
X134437393Y-84134855D01*
X134536683Y-84144999D01*
X134560000Y-84144998D01*
X134560000Y-83420000D01*
X133860001Y-83420000D01*
X133860001Y-83468322D01*
X121062938Y-83468322D01*
X122196862Y-82334398D01*
X122258185Y-82300913D01*
X122284543Y-82298079D01*
X133894609Y-82298079D01*
X133961648Y-82317764D01*
G37*
%TD.AperFunction*%
%TA.AperFunction,Conductor*%
G36*
X155004539Y-78878185D02*
G01*
X155050294Y-78930989D01*
X155061500Y-78982500D01*
X155061500Y-79156916D01*
X155065887Y-79184612D01*
X155094951Y-79368117D01*
X155161026Y-79571480D01*
X155161027Y-79571483D01*
X155255659Y-79757207D01*
X155258106Y-79762009D01*
X155383794Y-79935004D01*
X155383796Y-79935006D01*
X155488971Y-80040181D01*
X155522456Y-80101504D01*
X155517472Y-80171196D01*
X155475600Y-80227129D01*
X155444625Y-80244043D01*
X155323795Y-80289111D01*
X155206739Y-80376739D01*
X155119111Y-80493795D01*
X155068011Y-80630795D01*
X155068011Y-80630797D01*
X155061500Y-80691345D01*
X155061500Y-82488654D01*
X155068553Y-82554244D01*
X155056148Y-82623004D01*
X155008538Y-82674141D01*
X154945264Y-82691500D01*
X151537362Y-82691500D01*
X151470323Y-82671815D01*
X151468472Y-82670603D01*
X151428304Y-82643764D01*
X151412968Y-82633517D01*
X151359858Y-82611518D01*
X151265831Y-82572570D01*
X151265823Y-82572568D01*
X151109634Y-82541500D01*
X151109630Y-82541500D01*
X150950370Y-82541500D01*
X150950365Y-82541500D01*
X150794176Y-82572568D01*
X150794168Y-82572570D01*
X150647030Y-82633517D01*
X150514612Y-82721995D01*
X150514605Y-82722001D01*
X150402001Y-82834605D01*
X150401995Y-82834612D01*
X150313517Y-82967030D01*
X150252570Y-83114168D01*
X150252568Y-83114176D01*
X150221500Y-83270365D01*
X150221500Y-83429634D01*
X150252568Y-83585823D01*
X150252570Y-83585831D01*
X150313517Y-83732969D01*
X150401995Y-83865387D01*
X150402001Y-83865394D01*
X150514605Y-83977998D01*
X150514612Y-83978004D01*
X150647030Y-84066482D01*
X150647031Y-84066482D01*
X150647032Y-84066483D01*
X150794169Y-84127430D01*
X150925228Y-84153499D01*
X150950365Y-84158499D01*
X150950369Y-84158500D01*
X150950370Y-84158500D01*
X151109631Y-84158500D01*
X151109632Y-84158499D01*
X151265831Y-84127430D01*
X151412968Y-84066483D01*
X151468472Y-84029397D01*
X151535150Y-84008520D01*
X151537362Y-84008500D01*
X162344859Y-84008500D01*
X162446297Y-83988322D01*
X162472077Y-83983194D01*
X162591917Y-83933555D01*
X162699769Y-83861491D01*
X163611881Y-82949377D01*
X163616681Y-82946756D01*
X163619705Y-82942196D01*
X163647022Y-82930188D01*
X163673204Y-82915893D01*
X163679989Y-82915699D01*
X163683669Y-82914082D01*
X163718960Y-82914586D01*
X163736980Y-82917440D01*
X163931979Y-82948325D01*
X163995111Y-82978253D01*
X164032043Y-83037564D01*
X164031045Y-83107427D01*
X164000260Y-83158478D01*
X162908511Y-84250227D01*
X162908507Y-84250232D01*
X162886823Y-84282686D01*
X162863172Y-84318083D01*
X162850141Y-84337586D01*
X162836445Y-84358083D01*
X162836443Y-84358086D01*
X162786806Y-84477922D01*
X162786804Y-84477928D01*
X162761500Y-84605140D01*
X162761500Y-86106000D01*
X162741815Y-86173039D01*
X162689011Y-86218794D01*
X162637500Y-86230000D01*
X162400000Y-86230000D01*
X162400000Y-87135439D01*
X162346853Y-87104755D01*
X162217143Y-87070000D01*
X162082857Y-87070000D01*
X161953147Y-87104755D01*
X161900000Y-87135439D01*
X161900000Y-86230000D01*
X161252155Y-86230000D01*
X161192627Y-86236401D01*
X161192620Y-86236403D01*
X161057913Y-86286645D01*
X161057906Y-86286649D01*
X160942812Y-86372809D01*
X160942809Y-86372812D01*
X160856649Y-86487906D01*
X160856645Y-86487913D01*
X160810651Y-86611230D01*
X160768779Y-86667164D01*
X160703315Y-86691581D01*
X160635042Y-86676729D01*
X160606788Y-86655578D01*
X160495006Y-86543796D01*
X160495004Y-86543794D01*
X160322009Y-86418106D01*
X160268499Y-86390841D01*
X160131483Y-86321027D01*
X160131480Y-86321026D01*
X159928117Y-86254951D01*
X159810997Y-86236401D01*
X159716916Y-86221500D01*
X159503084Y-86221500D01*
X159432684Y-86232650D01*
X159291882Y-86254951D01*
X159088519Y-86321026D01*
X159088516Y-86321027D01*
X158897990Y-86418106D01*
X158724993Y-86543796D01*
X158573796Y-86694993D01*
X158448105Y-86867991D01*
X158445727Y-86871873D01*
X158393914Y-86918748D01*
X158324984Y-86930169D01*
X158260822Y-86902512D01*
X158234273Y-86871873D01*
X158231894Y-86867991D01*
X158230794Y-86866477D01*
X158106206Y-86694996D01*
X157955004Y-86543794D01*
X157782009Y-86418106D01*
X157728499Y-86390841D01*
X157591483Y-86321027D01*
X157591480Y-86321026D01*
X157388117Y-86254951D01*
X157270997Y-86236401D01*
X157176916Y-86221500D01*
X156963084Y-86221500D01*
X156892684Y-86232650D01*
X156751882Y-86254951D01*
X156548519Y-86321026D01*
X156548516Y-86321027D01*
X156357990Y-86418106D01*
X156184993Y-86543796D01*
X156033796Y-86694993D01*
X155908105Y-86867991D01*
X155905727Y-86871873D01*
X155853914Y-86918748D01*
X155784984Y-86930169D01*
X155720822Y-86902512D01*
X155694273Y-86871873D01*
X155691894Y-86867991D01*
X155690794Y-86866477D01*
X155566206Y-86694996D01*
X155415004Y-86543794D01*
X155242009Y-86418106D01*
X155188499Y-86390841D01*
X155051483Y-86321027D01*
X155051480Y-86321026D01*
X154848117Y-86254951D01*
X154730997Y-86236401D01*
X154636916Y-86221500D01*
X154423084Y-86221500D01*
X154352684Y-86232650D01*
X154211882Y-86254951D01*
X154008519Y-86321026D01*
X154008516Y-86321027D01*
X153817990Y-86418106D01*
X153644993Y-86543796D01*
X153493796Y-86694993D01*
X153368105Y-86867991D01*
X153365727Y-86871873D01*
X153313914Y-86918748D01*
X153244984Y-86930169D01*
X153180822Y-86902512D01*
X153154273Y-86871873D01*
X153151894Y-86867991D01*
X153150794Y-86866477D01*
X153026206Y-86694996D01*
X152875004Y-86543794D01*
X152702009Y-86418106D01*
X152648499Y-86390841D01*
X152511483Y-86321027D01*
X152511480Y-86321026D01*
X152308117Y-86254951D01*
X152190997Y-86236401D01*
X152096916Y-86221500D01*
X151883084Y-86221500D01*
X151812684Y-86232650D01*
X151671882Y-86254951D01*
X151468519Y-86321026D01*
X151468516Y-86321027D01*
X151277990Y-86418106D01*
X151104997Y-86543793D01*
X150993211Y-86655579D01*
X150931888Y-86689063D01*
X150862196Y-86684079D01*
X150806263Y-86642207D01*
X150789348Y-86611230D01*
X150743354Y-86487913D01*
X150743350Y-86487906D01*
X150657190Y-86372812D01*
X150657187Y-86372809D01*
X150542093Y-86286649D01*
X150542086Y-86286645D01*
X150407379Y-86236403D01*
X150407372Y-86236401D01*
X150347844Y-86230000D01*
X149700000Y-86230000D01*
X149700000Y-87135439D01*
X149646853Y-87104755D01*
X149517143Y-87070000D01*
X149382857Y-87070000D01*
X149253147Y-87104755D01*
X149200000Y-87135439D01*
X149200000Y-86230000D01*
X148552155Y-86230000D01*
X148492627Y-86236401D01*
X148492620Y-86236403D01*
X148357913Y-86286645D01*
X148357906Y-86286649D01*
X148242812Y-86372809D01*
X148242809Y-86372812D01*
X148156649Y-86487906D01*
X148156645Y-86487913D01*
X148110651Y-86611230D01*
X148068779Y-86667164D01*
X148003315Y-86691581D01*
X147935042Y-86676729D01*
X147906788Y-86655578D01*
X147795006Y-86543796D01*
X147795004Y-86543794D01*
X147622009Y-86418106D01*
X147568499Y-86390841D01*
X147431483Y-86321027D01*
X147431480Y-86321026D01*
X147228117Y-86254951D01*
X147110997Y-86236401D01*
X147016916Y-86221500D01*
X146803084Y-86221500D01*
X146760844Y-86228190D01*
X146591880Y-86254951D01*
X146460817Y-86297535D01*
X146390976Y-86299530D01*
X146331143Y-86263449D01*
X146300316Y-86200747D01*
X146298500Y-86179604D01*
X146298500Y-85299121D01*
X146318185Y-85232082D01*
X146334819Y-85211440D01*
X146836440Y-84709819D01*
X146897763Y-84676334D01*
X146924121Y-84673500D01*
X147198867Y-84673500D01*
X147198872Y-84673500D01*
X147299336Y-84663236D01*
X147462101Y-84609302D01*
X147608040Y-84519285D01*
X147618329Y-84508996D01*
X147679652Y-84475511D01*
X147749344Y-84480495D01*
X147793691Y-84508996D01*
X147797267Y-84512572D01*
X147797271Y-84512575D01*
X147941507Y-84601542D01*
X147941518Y-84601547D01*
X148102393Y-84654855D01*
X148201683Y-84664999D01*
X148725000Y-84664999D01*
X148748308Y-84664999D01*
X148748322Y-84664998D01*
X148847607Y-84654855D01*
X149008481Y-84601547D01*
X149008492Y-84601542D01*
X149152728Y-84512575D01*
X149152732Y-84512572D01*
X149272572Y-84392732D01*
X149272575Y-84392728D01*
X149361542Y-84248492D01*
X149361547Y-84248481D01*
X149414855Y-84087606D01*
X149424999Y-83988322D01*
X149425000Y-83988309D01*
X149425000Y-83940000D01*
X148725000Y-83940000D01*
X148725000Y-84664999D01*
X148201683Y-84664999D01*
X148225000Y-84664998D01*
X148225000Y-83440000D01*
X148725000Y-83440000D01*
X149424999Y-83440000D01*
X149424999Y-83391692D01*
X149424998Y-83391677D01*
X149414855Y-83292392D01*
X149361547Y-83131518D01*
X149361542Y-83131507D01*
X149272575Y-82987271D01*
X149272572Y-82987267D01*
X149152732Y-82867427D01*
X149152728Y-82867424D01*
X149008492Y-82778457D01*
X149008481Y-82778452D01*
X148847606Y-82725144D01*
X148748322Y-82715000D01*
X148725000Y-82715000D01*
X148725000Y-83440000D01*
X148225000Y-83440000D01*
X148225000Y-82714999D01*
X148201693Y-82715000D01*
X148201674Y-82715001D01*
X148102392Y-82725144D01*
X147941518Y-82778452D01*
X147941507Y-82778457D01*
X147797271Y-82867424D01*
X147797267Y-82867427D01*
X147793691Y-82871004D01*
X147732368Y-82904489D01*
X147662676Y-82899505D01*
X147618329Y-82871004D01*
X147608040Y-82860715D01*
X147608036Y-82860712D01*
X147462109Y-82770702D01*
X147462103Y-82770699D01*
X147462101Y-82770698D01*
X147299336Y-82716764D01*
X147198879Y-82706500D01*
X147198872Y-82706500D01*
X147009833Y-82706500D01*
X146980392Y-82697855D01*
X146950406Y-82691332D01*
X146945390Y-82687577D01*
X146942794Y-82686815D01*
X146922152Y-82670181D01*
X146761731Y-82509760D01*
X146728246Y-82448437D01*
X146733230Y-82378745D01*
X146775102Y-82322812D01*
X146840566Y-82298395D01*
X146849412Y-82298079D01*
X148025280Y-82298079D01*
X148110865Y-82281054D01*
X148152498Y-82272773D01*
X148272338Y-82223134D01*
X148380190Y-82151070D01*
X151477819Y-79053439D01*
X151539142Y-79019955D01*
X151608834Y-79024939D01*
X151664767Y-79066811D01*
X151689184Y-79132275D01*
X151689500Y-79141121D01*
X151689500Y-81608392D01*
X151706174Y-81670622D01*
X151723608Y-81735687D01*
X151756554Y-81792750D01*
X151789500Y-81849814D01*
X151882686Y-81943000D01*
X151996814Y-82008892D01*
X152124108Y-82043000D01*
X152124110Y-82043000D01*
X154125890Y-82043000D01*
X154125892Y-82043000D01*
X154253186Y-82008892D01*
X154367314Y-81943000D01*
X154460500Y-81849814D01*
X154526392Y-81735686D01*
X154560500Y-81608392D01*
X154560500Y-79066608D01*
X154546562Y-79014590D01*
X154548225Y-78944744D01*
X154587387Y-78886881D01*
X154651615Y-78859377D01*
X154666337Y-78858500D01*
X154937500Y-78858500D01*
X155004539Y-78878185D01*
G37*
%TD.AperFunction*%
%TA.AperFunction,Conductor*%
G36*
X139905203Y-81576909D02*
G01*
X139911681Y-81582941D01*
X140911181Y-82582441D01*
X140944666Y-82643764D01*
X140947500Y-82670122D01*
X140947500Y-86489928D01*
X140927815Y-86556967D01*
X140911181Y-86577609D01*
X140793796Y-86694993D01*
X140668105Y-86867991D01*
X140665727Y-86871873D01*
X140613914Y-86918748D01*
X140544984Y-86930169D01*
X140480822Y-86902512D01*
X140454273Y-86871873D01*
X140451894Y-86867991D01*
X140450794Y-86866477D01*
X140326206Y-86694996D01*
X140175004Y-86543794D01*
X140002009Y-86418106D01*
X139948499Y-86390841D01*
X139811483Y-86321027D01*
X139811480Y-86321026D01*
X139608117Y-86254951D01*
X139490997Y-86236401D01*
X139396916Y-86221500D01*
X139183084Y-86221500D01*
X139140844Y-86228190D01*
X138971880Y-86254951D01*
X138856817Y-86292337D01*
X138786976Y-86294332D01*
X138727144Y-86258251D01*
X138696316Y-86195550D01*
X138694500Y-86174406D01*
X138694500Y-84781140D01*
X138669195Y-84653928D01*
X138669194Y-84653927D01*
X138669194Y-84653923D01*
X138650712Y-84609302D01*
X138619558Y-84534089D01*
X138619554Y-84534082D01*
X138582030Y-84477923D01*
X138547491Y-84426231D01*
X138547489Y-84426228D01*
X138547486Y-84426225D01*
X137414296Y-83293036D01*
X137409958Y-83285091D01*
X137402709Y-83279665D01*
X137393473Y-83254902D01*
X137380811Y-83231713D01*
X137381456Y-83222682D01*
X137378293Y-83214200D01*
X137383909Y-83188379D01*
X137385795Y-83162021D01*
X137391613Y-83152967D01*
X137393145Y-83145927D01*
X137414291Y-83117678D01*
X137497574Y-83034396D01*
X137558897Y-83000913D01*
X137585254Y-82998079D01*
X138831782Y-82998079D01*
X138831783Y-82998078D01*
X138968662Y-82970852D01*
X139097601Y-82917443D01*
X139213642Y-82839907D01*
X139302152Y-82751396D01*
X139363473Y-82717913D01*
X139389832Y-82715079D01*
X139519250Y-82715079D01*
X139519251Y-82715078D01*
X139534068Y-82712131D01*
X139577729Y-82703447D01*
X139577729Y-82703446D01*
X139577731Y-82703446D01*
X139644052Y-82659131D01*
X139688367Y-82592810D01*
X139688367Y-82592808D01*
X139688368Y-82592808D01*
X139699999Y-82534331D01*
X139700000Y-82534329D01*
X139700000Y-82044828D01*
X139688849Y-81988771D01*
X139688849Y-81940387D01*
X139700000Y-81884329D01*
X139700000Y-81670622D01*
X139719685Y-81603583D01*
X139772489Y-81557828D01*
X139841647Y-81547884D01*
X139905203Y-81576909D01*
G37*
%TD.AperFunction*%
%TA.AperFunction,Conductor*%
G36*
X142404719Y-82437059D02*
G01*
X142406147Y-82436854D01*
X142435950Y-82445030D01*
X142510656Y-82475975D01*
X142550883Y-82502854D01*
X142887933Y-82839904D01*
X142887937Y-82839907D01*
X143003972Y-82917440D01*
X143003985Y-82917447D01*
X143063235Y-82941989D01*
X143063236Y-82941989D01*
X143132917Y-82970852D01*
X143241695Y-82992489D01*
X143269793Y-82998078D01*
X143269797Y-82998079D01*
X143269798Y-82998079D01*
X143409361Y-82998079D01*
X144568219Y-82998079D01*
X145194746Y-82998079D01*
X145261785Y-83017764D01*
X145282427Y-83034398D01*
X145878203Y-83630174D01*
X145911688Y-83691497D01*
X145906704Y-83761189D01*
X145878203Y-83805536D01*
X145128513Y-84555225D01*
X145128510Y-84555228D01*
X145061275Y-84655854D01*
X145061274Y-84655856D01*
X145056446Y-84663080D01*
X145006806Y-84782922D01*
X145006804Y-84782928D01*
X144981500Y-84910140D01*
X144981500Y-86179604D01*
X144961815Y-86246643D01*
X144909011Y-86292398D01*
X144839853Y-86302342D01*
X144819183Y-86297535D01*
X144688119Y-86254951D01*
X144529716Y-86229862D01*
X144476916Y-86221500D01*
X144263084Y-86221500D01*
X144192684Y-86232650D01*
X144051882Y-86254951D01*
X143848519Y-86321026D01*
X143848516Y-86321027D01*
X143657990Y-86418106D01*
X143484993Y-86543796D01*
X143333796Y-86694993D01*
X143208105Y-86867991D01*
X143205727Y-86871873D01*
X143153914Y-86918748D01*
X143084984Y-86930169D01*
X143020822Y-86902512D01*
X142994273Y-86871873D01*
X142991894Y-86867991D01*
X142990794Y-86866477D01*
X142866206Y-86694996D01*
X142715004Y-86543794D01*
X142542009Y-86418106D01*
X142488499Y-86390841D01*
X142351480Y-86321026D01*
X142350171Y-86320601D01*
X142349738Y-86320305D01*
X142346990Y-86319167D01*
X142347229Y-86318589D01*
X142292499Y-86281159D01*
X142265307Y-86216798D01*
X142264500Y-86202674D01*
X142264500Y-82559592D01*
X142273743Y-82528111D01*
X142281859Y-82496318D01*
X142283538Y-82494754D01*
X142284185Y-82492553D01*
X142308973Y-82471073D01*
X142332996Y-82448708D01*
X142335255Y-82448300D01*
X142336989Y-82446798D01*
X142369471Y-82442127D01*
X142401756Y-82436303D01*
X142404719Y-82437059D01*
G37*
%TD.AperFunction*%
%TA.AperFunction,Conductor*%
G36*
X150417918Y-78038185D02*
G01*
X150463673Y-78090989D01*
X150473617Y-78160147D01*
X150444592Y-78223703D01*
X150438560Y-78230179D01*
X149074580Y-79594160D01*
X147723980Y-80944760D01*
X147662657Y-80978245D01*
X147636299Y-80981079D01*
X147181473Y-80981079D01*
X147114434Y-80961394D01*
X147068679Y-80908590D01*
X147058735Y-80839432D01*
X147078370Y-80788190D01*
X147081450Y-80783578D01*
X147086483Y-80776047D01*
X147147430Y-80628910D01*
X147178500Y-80472709D01*
X147178500Y-80313449D01*
X147147430Y-80157248D01*
X147086483Y-80010111D01*
X147036851Y-79935831D01*
X146998004Y-79877691D01*
X146995177Y-79874246D01*
X146967867Y-79809934D01*
X146979662Y-79741067D01*
X147003350Y-79707908D01*
X148656440Y-78054819D01*
X148717763Y-78021334D01*
X148744121Y-78018500D01*
X150350879Y-78018500D01*
X150417918Y-78038185D01*
G37*
%TD.AperFunction*%
%TA.AperFunction,Conductor*%
G36*
X177025712Y-75654047D02*
G01*
X177038257Y-75652970D01*
X177058601Y-75663704D01*
X177080670Y-75670185D01*
X177088914Y-75679699D01*
X177100051Y-75685576D01*
X177111362Y-75705606D01*
X177126425Y-75722989D01*
X177128216Y-75735450D01*
X177134409Y-75746415D01*
X177133095Y-75769381D01*
X177136369Y-75792147D01*
X177131043Y-75805268D01*
X177130420Y-75816170D01*
X177113949Y-75847386D01*
X177053634Y-75930401D01*
X176963703Y-76106898D01*
X176902487Y-76295299D01*
X176871500Y-76490948D01*
X176871500Y-76689051D01*
X176902487Y-76884700D01*
X176963703Y-77073101D01*
X177032052Y-77207242D01*
X177053634Y-77249598D01*
X177170070Y-77409858D01*
X177310142Y-77549930D01*
X177470402Y-77666366D01*
X177548904Y-77706365D01*
X177646898Y-77756296D01*
X177646900Y-77756296D01*
X177646903Y-77756298D01*
X177726193Y-77782061D01*
X177835299Y-77817512D01*
X178030949Y-77848500D01*
X178030954Y-77848500D01*
X178229051Y-77848500D01*
X178424700Y-77817512D01*
X178460056Y-77806024D01*
X178613097Y-77756298D01*
X178789598Y-77666366D01*
X178949858Y-77549930D01*
X179089930Y-77409858D01*
X179201798Y-77255885D01*
X179257127Y-77213221D01*
X179326740Y-77207242D01*
X179388535Y-77239848D01*
X179422893Y-77300687D01*
X179426115Y-77328680D01*
X179463831Y-128169027D01*
X179463831Y-128169028D01*
X179463834Y-128173634D01*
X179463836Y-128175183D01*
X179463835Y-128175188D01*
X179463854Y-128200629D01*
X179463864Y-128213775D01*
X179463881Y-128237020D01*
X179463621Y-128245137D01*
X179451706Y-128428875D01*
X179449597Y-128444974D01*
X179419107Y-128598709D01*
X179386757Y-128660638D01*
X179326060Y-128695246D01*
X179256289Y-128691546D01*
X179199594Y-128650711D01*
X179186991Y-128630881D01*
X179186325Y-128629573D01*
X179166366Y-128590402D01*
X179049930Y-128430142D01*
X178909858Y-128290070D01*
X178749598Y-128173634D01*
X178723452Y-128160312D01*
X178573101Y-128083703D01*
X178384700Y-128022487D01*
X178189051Y-127991500D01*
X178189046Y-127991500D01*
X177990954Y-127991500D01*
X177990949Y-127991500D01*
X177795299Y-128022487D01*
X177606898Y-128083703D01*
X177430401Y-128173634D01*
X177343159Y-128237020D01*
X177270142Y-128290070D01*
X177270140Y-128290072D01*
X177270139Y-128290072D01*
X177130072Y-128430139D01*
X177130072Y-128430140D01*
X177130070Y-128430142D01*
X177080408Y-128498496D01*
X177013634Y-128590401D01*
X176923703Y-128766898D01*
X176862487Y-128955299D01*
X176831500Y-129150948D01*
X176831500Y-129349051D01*
X176862487Y-129544700D01*
X176923703Y-129733101D01*
X177013634Y-129909598D01*
X177130070Y-130069858D01*
X177270142Y-130209930D01*
X177415449Y-130315502D01*
X177428551Y-130325021D01*
X177440635Y-130340692D01*
X177456260Y-130352836D01*
X177461532Y-130367793D01*
X177471216Y-130380351D01*
X177472909Y-130400065D01*
X177479489Y-130418731D01*
X177475838Y-130434165D01*
X177477195Y-130449965D01*
X177467960Y-130467465D01*
X177463405Y-130486725D01*
X177451989Y-130497734D01*
X177444589Y-130511760D01*
X177427357Y-130521491D01*
X177413114Y-130535228D01*
X177386284Y-130544685D01*
X177383750Y-130546117D01*
X177379827Y-130546962D01*
X177340117Y-130554851D01*
X177324030Y-130556965D01*
X177140369Y-130568951D01*
X177132272Y-130569214D01*
X177126679Y-130569213D01*
X177126672Y-130569211D01*
X177126659Y-130569213D01*
X121099040Y-130549987D01*
X121032008Y-130530279D01*
X120986271Y-130477460D01*
X120976351Y-130408298D01*
X121005398Y-130344752D01*
X121042789Y-130315502D01*
X121119596Y-130276367D01*
X121119595Y-130276367D01*
X121119598Y-130276366D01*
X121279858Y-130159930D01*
X121419930Y-130019858D01*
X121536366Y-129859598D01*
X121626298Y-129683097D01*
X121687512Y-129494700D01*
X121694108Y-129453055D01*
X121718500Y-129299051D01*
X121718500Y-129100948D01*
X121687512Y-128905299D01*
X121626296Y-128716898D01*
X121545460Y-128558250D01*
X121536366Y-128540402D01*
X121419930Y-128380142D01*
X121279858Y-128240070D01*
X121119598Y-128123634D01*
X121095511Y-128111361D01*
X120943101Y-128033703D01*
X120754700Y-127972487D01*
X120559051Y-127941500D01*
X120559046Y-127941500D01*
X120360954Y-127941500D01*
X120360949Y-127941500D01*
X120165299Y-127972487D01*
X119976898Y-128033703D01*
X119800401Y-128123634D01*
X119731583Y-128173634D01*
X119640142Y-128240070D01*
X119640140Y-128240072D01*
X119640139Y-128240072D01*
X119500072Y-128380139D01*
X119500072Y-128380140D01*
X119500070Y-128380142D01*
X119464663Y-128428875D01*
X119383634Y-128540401D01*
X119293703Y-128716898D01*
X119244686Y-128867757D01*
X119205248Y-128925432D01*
X119140889Y-128952630D01*
X119072043Y-128940715D01*
X119020567Y-128893471D01*
X119019059Y-128890901D01*
X118948292Y-128766903D01*
X117580011Y-126369384D01*
X117580011Y-126369383D01*
X117549336Y-126315635D01*
X117545590Y-126308547D01*
X117465796Y-126144969D01*
X117459709Y-126130123D01*
X117402993Y-125961438D01*
X117398873Y-125945929D01*
X117381853Y-125859687D01*
X117364410Y-125771304D01*
X117362332Y-125755408D01*
X117350447Y-125573785D01*
X117350183Y-125565800D01*
X117350168Y-125540316D01*
X122394500Y-125540316D01*
X122394500Y-125859683D01*
X122425803Y-126177522D01*
X122488109Y-126490754D01*
X122580820Y-126796382D01*
X122703040Y-127091446D01*
X122703042Y-127091451D01*
X122853584Y-127373094D01*
X122853601Y-127373122D01*
X123031012Y-127638638D01*
X123031029Y-127638661D01*
X123233638Y-127885540D01*
X123459459Y-128111361D01*
X123459464Y-128111365D01*
X123459465Y-128111366D01*
X123706344Y-128313975D01*
X123706351Y-128313980D01*
X123706361Y-128313987D01*
X123971877Y-128491398D01*
X123971882Y-128491401D01*
X123971894Y-128491409D01*
X123971903Y-128491413D01*
X123971905Y-128491415D01*
X124253548Y-128641957D01*
X124253550Y-128641957D01*
X124253556Y-128641961D01*
X124548619Y-128764180D01*
X124854240Y-128856889D01*
X125167477Y-128919196D01*
X125485313Y-128950500D01*
X125485316Y-128950500D01*
X125804684Y-128950500D01*
X125804687Y-128950500D01*
X126122523Y-128919196D01*
X126435760Y-128856889D01*
X126741381Y-128764180D01*
X127036444Y-128641961D01*
X127318106Y-128491409D01*
X127583656Y-128313975D01*
X127830535Y-128111366D01*
X128056366Y-127885535D01*
X128258975Y-127638656D01*
X128436409Y-127373106D01*
X128495094Y-127263315D01*
X130981500Y-127263315D01*
X130981500Y-127456684D01*
X131011750Y-127647675D01*
X131071502Y-127831577D01*
X131071503Y-127831580D01*
X131127511Y-127941500D01*
X131157022Y-127999419D01*
X131159294Y-128003877D01*
X131272946Y-128160307D01*
X131272950Y-128160312D01*
X131409687Y-128297049D01*
X131409692Y-128297053D01*
X131524055Y-128380142D01*
X131566126Y-128410708D01*
X131678756Y-128468095D01*
X131738419Y-128498496D01*
X131738422Y-128498497D01*
X131830373Y-128528373D01*
X131922326Y-128558250D01*
X132113315Y-128588500D01*
X132113316Y-128588500D01*
X132306684Y-128588500D01*
X132306685Y-128588500D01*
X132497674Y-128558250D01*
X132681580Y-128498496D01*
X132853874Y-128410708D01*
X133010314Y-128297048D01*
X133147048Y-128160314D01*
X133260708Y-128003874D01*
X133348496Y-127831580D01*
X133362069Y-127789807D01*
X133401506Y-127732132D01*
X133465865Y-127704933D01*
X133534711Y-127716847D01*
X133586187Y-127764091D01*
X133597931Y-127789807D01*
X133611502Y-127831577D01*
X133611503Y-127831580D01*
X133667511Y-127941500D01*
X133697022Y-127999419D01*
X133699294Y-128003877D01*
X133812946Y-128160307D01*
X133812950Y-128160312D01*
X133949687Y-128297049D01*
X133949692Y-128297053D01*
X134064055Y-128380142D01*
X134106126Y-128410708D01*
X134218756Y-128468095D01*
X134278419Y-128498496D01*
X134278422Y-128498497D01*
X134370373Y-128528373D01*
X134462326Y-128558250D01*
X134653315Y-128588500D01*
X134653316Y-128588500D01*
X134846684Y-128588500D01*
X134846685Y-128588500D01*
X135037674Y-128558250D01*
X135221580Y-128498496D01*
X135393874Y-128410708D01*
X135550314Y-128297048D01*
X135687048Y-128160314D01*
X135800708Y-128003874D01*
X135888496Y-127831580D01*
X135906538Y-127776053D01*
X135945975Y-127718377D01*
X136010333Y-127691178D01*
X136079180Y-127703092D01*
X136130656Y-127750336D01*
X136142400Y-127776051D01*
X136159383Y-127828321D01*
X136246561Y-127999415D01*
X136267798Y-128028646D01*
X136890000Y-127406445D01*
X136890000Y-127412661D01*
X136917259Y-127514394D01*
X136969920Y-127605606D01*
X137044394Y-127680080D01*
X137135606Y-127732741D01*
X137237339Y-127760000D01*
X137243554Y-127760000D01*
X136621351Y-128382200D01*
X136621352Y-128382201D01*
X136650577Y-128403434D01*
X136821678Y-128490616D01*
X137004315Y-128549959D01*
X137193985Y-128580000D01*
X137386015Y-128580000D01*
X137575684Y-128549959D01*
X137758321Y-128490616D01*
X137929419Y-128403436D01*
X137958646Y-128382201D01*
X137958646Y-128382200D01*
X137336447Y-127760000D01*
X137342661Y-127760000D01*
X137444394Y-127732741D01*
X137535606Y-127680080D01*
X137610080Y-127605606D01*
X137662741Y-127514394D01*
X137690000Y-127412661D01*
X137690000Y-127406446D01*
X138312200Y-128028646D01*
X138312201Y-128028646D01*
X138333436Y-127999419D01*
X138420616Y-127828321D01*
X138479959Y-127645684D01*
X138510000Y-127456015D01*
X138510000Y-127263984D01*
X138479959Y-127074315D01*
X138420616Y-126891678D01*
X138333434Y-126720577D01*
X138312201Y-126691352D01*
X138312200Y-126691351D01*
X137690000Y-127313552D01*
X137690000Y-127307339D01*
X137662741Y-127205606D01*
X137610080Y-127114394D01*
X137535606Y-127039920D01*
X137444394Y-126987259D01*
X137342661Y-126960000D01*
X137336447Y-126960000D01*
X137958646Y-126337798D01*
X137929415Y-126316561D01*
X137758321Y-126229383D01*
X137575684Y-126170040D01*
X137386015Y-126140000D01*
X137193985Y-126140000D01*
X137004315Y-126170040D01*
X136821678Y-126229383D01*
X136650578Y-126316564D01*
X136621352Y-126337798D01*
X136621351Y-126337798D01*
X137243554Y-126960000D01*
X137237339Y-126960000D01*
X137135606Y-126987259D01*
X137044394Y-127039920D01*
X136969920Y-127114394D01*
X136917259Y-127205606D01*
X136890000Y-127307339D01*
X136890000Y-127313553D01*
X136267798Y-126691351D01*
X136267798Y-126691352D01*
X136246564Y-126720578D01*
X136159383Y-126891679D01*
X136142400Y-126943948D01*
X136102961Y-127001623D01*
X136038603Y-127028821D01*
X135969756Y-127016906D01*
X135918281Y-126969661D01*
X135906538Y-126943947D01*
X135888497Y-126888422D01*
X135888496Y-126888419D01*
X135841600Y-126796381D01*
X135800708Y-126716126D01*
X135782708Y-126691351D01*
X135687053Y-126559692D01*
X135687049Y-126559687D01*
X135550312Y-126422950D01*
X135550307Y-126422946D01*
X135393877Y-126309294D01*
X135393876Y-126309293D01*
X135393874Y-126309292D01*
X135338675Y-126281166D01*
X135221580Y-126221503D01*
X135221577Y-126221502D01*
X135037675Y-126161750D01*
X134886120Y-126137746D01*
X134846685Y-126131500D01*
X134653315Y-126131500D01*
X134613880Y-126137746D01*
X134462324Y-126161750D01*
X134278422Y-126221502D01*
X134278419Y-126221503D01*
X134106122Y-126309294D01*
X133949692Y-126422946D01*
X133949687Y-126422950D01*
X133812950Y-126559687D01*
X133812946Y-126559692D01*
X133699294Y-126716122D01*
X133611503Y-126888419D01*
X133611502Y-126888422D01*
X133597931Y-126930192D01*
X133558493Y-126987868D01*
X133494135Y-127015066D01*
X133425288Y-127003151D01*
X133373813Y-126955907D01*
X133362069Y-126930192D01*
X133348497Y-126888422D01*
X133348496Y-126888419D01*
X133301600Y-126796381D01*
X133260708Y-126716126D01*
X133242708Y-126691351D01*
X133147053Y-126559692D01*
X133147049Y-126559687D01*
X133010312Y-126422950D01*
X133010307Y-126422946D01*
X132853877Y-126309294D01*
X132853876Y-126309293D01*
X132853874Y-126309292D01*
X132798675Y-126281166D01*
X132681580Y-126221503D01*
X132681577Y-126221502D01*
X132497675Y-126161750D01*
X132346120Y-126137746D01*
X132306685Y-126131500D01*
X132113315Y-126131500D01*
X132073880Y-126137746D01*
X131922324Y-126161750D01*
X131738422Y-126221502D01*
X131738419Y-126221503D01*
X131566122Y-126309294D01*
X131409692Y-126422946D01*
X131409687Y-126422950D01*
X131272950Y-126559687D01*
X131272946Y-126559692D01*
X131159294Y-126716122D01*
X131071503Y-126888419D01*
X131071502Y-126888422D01*
X131011750Y-127072324D01*
X130981500Y-127263315D01*
X128495094Y-127263315D01*
X128586961Y-127091444D01*
X128709180Y-126796381D01*
X128801889Y-126490760D01*
X128864196Y-126177523D01*
X128895500Y-125859687D01*
X128895500Y-125540313D01*
X128864196Y-125222477D01*
X128801889Y-124909240D01*
X128709180Y-124603619D01*
X128586961Y-124308556D01*
X128578450Y-124292634D01*
X128436415Y-124026905D01*
X128436413Y-124026903D01*
X128436409Y-124026894D01*
X128436398Y-124026877D01*
X128258987Y-123761361D01*
X128258980Y-123761351D01*
X128258975Y-123761344D01*
X128056366Y-123514465D01*
X128056365Y-123514464D01*
X128056361Y-123514459D01*
X127830540Y-123288638D01*
X127583661Y-123086029D01*
X127583647Y-123086018D01*
X127567529Y-123075249D01*
X127567527Y-123075247D01*
X127420517Y-122977019D01*
X134481500Y-122977019D01*
X134481500Y-123182980D01*
X134513719Y-123386408D01*
X134577367Y-123582294D01*
X134670873Y-123765806D01*
X134791926Y-123932423D01*
X134791930Y-123932428D01*
X134937571Y-124078069D01*
X134937576Y-124078073D01*
X135082908Y-124183661D01*
X135104197Y-124199129D01*
X135221128Y-124258709D01*
X135287705Y-124292632D01*
X135287707Y-124292632D01*
X135287710Y-124292634D01*
X135336704Y-124308553D01*
X135483591Y-124356280D01*
X135585305Y-124372390D01*
X135687019Y-124388500D01*
X135687020Y-124388500D01*
X135892980Y-124388500D01*
X135892981Y-124388500D01*
X136096408Y-124356280D01*
X136292290Y-124292634D01*
X136475803Y-124199129D01*
X136642430Y-124078068D01*
X136788068Y-123932430D01*
X136909129Y-123765803D01*
X137002634Y-123582290D01*
X137066280Y-123386408D01*
X137098500Y-123182981D01*
X137098500Y-122977019D01*
X137066280Y-122773592D01*
X137061227Y-122758042D01*
X137002632Y-122577705D01*
X136968709Y-122511128D01*
X136909129Y-122394197D01*
X136893661Y-122372908D01*
X136788073Y-122227576D01*
X136788069Y-122227571D01*
X136642428Y-122081930D01*
X136642423Y-122081926D01*
X136475806Y-121960873D01*
X136475805Y-121960872D01*
X136475803Y-121960871D01*
X136418496Y-121931671D01*
X136292294Y-121867367D01*
X136246752Y-121852569D01*
X136189249Y-121833886D01*
X136096408Y-121803719D01*
X135920794Y-121775905D01*
X135892981Y-121771500D01*
X135687019Y-121771500D01*
X135662550Y-121775375D01*
X135483591Y-121803719D01*
X135287705Y-121867367D01*
X135104193Y-121960873D01*
X134937576Y-122081926D01*
X134937571Y-122081930D01*
X134791930Y-122227571D01*
X134791926Y-122227576D01*
X134670873Y-122394193D01*
X134577367Y-122577705D01*
X134513719Y-122773591D01*
X134481500Y-122977019D01*
X127420517Y-122977019D01*
X127318122Y-122908601D01*
X127318094Y-122908584D01*
X127036451Y-122758042D01*
X127036446Y-122758040D01*
X126741382Y-122635820D01*
X126435754Y-122543109D01*
X126122521Y-122480803D01*
X126122522Y-122480803D01*
X125883141Y-122457227D01*
X125804687Y-122449500D01*
X125485313Y-122449500D01*
X125412822Y-122456639D01*
X125167477Y-122480803D01*
X124854245Y-122543109D01*
X124548617Y-122635820D01*
X124253553Y-122758040D01*
X124253548Y-122758042D01*
X123971905Y-122908584D01*
X123971877Y-122908601D01*
X123706361Y-123086012D01*
X123706338Y-123086029D01*
X123459459Y-123288638D01*
X123233638Y-123514459D01*
X123031029Y-123761338D01*
X123031012Y-123761361D01*
X122853601Y-124026877D01*
X122853584Y-124026905D01*
X122703042Y-124308548D01*
X122703040Y-124308553D01*
X122580820Y-124603617D01*
X122488109Y-124909245D01*
X122425803Y-125222477D01*
X122401639Y-125467822D01*
X122398087Y-125503899D01*
X122394500Y-125540316D01*
X117350168Y-125540316D01*
X117350147Y-125503899D01*
X117350146Y-125503898D01*
X117350132Y-125479256D01*
X117350131Y-125479252D01*
X117349427Y-124292634D01*
X117347905Y-121726345D01*
X138726500Y-121726345D01*
X138726500Y-123523654D01*
X138733011Y-123584202D01*
X138733011Y-123584204D01*
X138784111Y-123721204D01*
X138871739Y-123838261D01*
X138988796Y-123925889D01*
X139125799Y-123976989D01*
X139153050Y-123979918D01*
X139186345Y-123983499D01*
X139186362Y-123983500D01*
X140983638Y-123983500D01*
X140983654Y-123983499D01*
X141010692Y-123980591D01*
X141044201Y-123976989D01*
X141181204Y-123925889D01*
X141298261Y-123838261D01*
X141385889Y-123721204D01*
X141436989Y-123584201D01*
X141440591Y-123550692D01*
X141443499Y-123523654D01*
X141443500Y-123523637D01*
X141443500Y-121726362D01*
X141443499Y-121726345D01*
X141440157Y-121695270D01*
X141436989Y-121665799D01*
X141385889Y-121528796D01*
X141298261Y-121411739D01*
X141181204Y-121324111D01*
X141044203Y-121273011D01*
X140983654Y-121266500D01*
X140983638Y-121266500D01*
X140964309Y-121266500D01*
X140897270Y-121246815D01*
X140876628Y-121230181D01*
X140214408Y-120567962D01*
X140277993Y-120550925D01*
X140392007Y-120485099D01*
X140485099Y-120392007D01*
X140550925Y-120277993D01*
X140567962Y-120214409D01*
X141200270Y-120846717D01*
X141200270Y-120846716D01*
X141239622Y-120792554D01*
X141336095Y-120603217D01*
X141401757Y-120401130D01*
X141401757Y-120401127D01*
X141435000Y-120191246D01*
X141435000Y-119978753D01*
X141401757Y-119768872D01*
X141401757Y-119768869D01*
X141336095Y-119566782D01*
X141239624Y-119377449D01*
X141200270Y-119323282D01*
X141200269Y-119323282D01*
X140567962Y-119955590D01*
X140550925Y-119892007D01*
X140485099Y-119777993D01*
X140392007Y-119684901D01*
X140277993Y-119619075D01*
X140214409Y-119602037D01*
X140846716Y-118969728D01*
X140792550Y-118930375D01*
X140603217Y-118833904D01*
X140401129Y-118768242D01*
X140191246Y-118735000D01*
X139978754Y-118735000D01*
X139768872Y-118768242D01*
X139768869Y-118768242D01*
X139566782Y-118833904D01*
X139377439Y-118930380D01*
X139323282Y-118969727D01*
X139323282Y-118969728D01*
X139955591Y-119602037D01*
X139892007Y-119619075D01*
X139777993Y-119684901D01*
X139684901Y-119777993D01*
X139619075Y-119892007D01*
X139602037Y-119955591D01*
X138969728Y-119323282D01*
X138969727Y-119323282D01*
X138930380Y-119377439D01*
X138833904Y-119566782D01*
X138768242Y-119768869D01*
X138768242Y-119768872D01*
X138735000Y-119978753D01*
X138735000Y-120191246D01*
X138768242Y-120401127D01*
X138768242Y-120401130D01*
X138833904Y-120603217D01*
X138930375Y-120792550D01*
X138969728Y-120846716D01*
X139602037Y-120214408D01*
X139619075Y-120277993D01*
X139684901Y-120392007D01*
X139777993Y-120485099D01*
X139892007Y-120550925D01*
X139955591Y-120567962D01*
X139293371Y-121230181D01*
X139232048Y-121263666D01*
X139205690Y-121266500D01*
X139186345Y-121266500D01*
X139125797Y-121273011D01*
X139125795Y-121273011D01*
X138988795Y-121324111D01*
X138871739Y-121411739D01*
X138784111Y-121528795D01*
X138733011Y-121665795D01*
X138733011Y-121665797D01*
X138726500Y-121726345D01*
X117347905Y-121726345D01*
X117342620Y-112817019D01*
X134481500Y-112817019D01*
X134481500Y-113022980D01*
X134513719Y-113226408D01*
X134577367Y-113422294D01*
X134641671Y-113548496D01*
X134667914Y-113600000D01*
X134670873Y-113605806D01*
X134791926Y-113772423D01*
X134791930Y-113772428D01*
X134937571Y-113918069D01*
X134937576Y-113918073D01*
X135082908Y-114023661D01*
X135104197Y-114039129D01*
X135216793Y-114096500D01*
X135287705Y-114132632D01*
X135287707Y-114132632D01*
X135287710Y-114132634D01*
X135374781Y-114160925D01*
X135483591Y-114196280D01*
X135531721Y-114203903D01*
X135687019Y-114228500D01*
X135687020Y-114228500D01*
X135892980Y-114228500D01*
X135892981Y-114228500D01*
X136096408Y-114196280D01*
X136292290Y-114132634D01*
X136475803Y-114039129D01*
X136642430Y-113918068D01*
X136788068Y-113772430D01*
X136855502Y-113679613D01*
X136910831Y-113636949D01*
X136955820Y-113628500D01*
X137540167Y-113628500D01*
X137607206Y-113648185D01*
X137627848Y-113664819D01*
X138485181Y-114522151D01*
X138518666Y-114583474D01*
X138521500Y-114609832D01*
X138521500Y-115100537D01*
X138521501Y-115100553D01*
X138525213Y-115136884D01*
X138532113Y-115204426D01*
X138587885Y-115372738D01*
X138680970Y-115523652D01*
X138806348Y-115649030D01*
X138957262Y-115742115D01*
X139125574Y-115797887D01*
X139229455Y-115808500D01*
X140030544Y-115808499D01*
X140134426Y-115797887D01*
X140302738Y-115742115D01*
X140446808Y-115653250D01*
X140514198Y-115634811D01*
X140568199Y-115648306D01*
X140707740Y-115719407D01*
X140872415Y-115772914D01*
X141043429Y-115800000D01*
X141216571Y-115800000D01*
X141387584Y-115772914D01*
X141552257Y-115719408D01*
X141706525Y-115640803D01*
X141712736Y-115636289D01*
X141071301Y-114994854D01*
X141090504Y-115000000D01*
X141169496Y-115000000D01*
X141245796Y-114979556D01*
X141314205Y-114940060D01*
X141370060Y-114884205D01*
X141409556Y-114815796D01*
X141430000Y-114739496D01*
X141430000Y-114699999D01*
X141483553Y-114699999D01*
X141483553Y-114700000D01*
X142066289Y-115282736D01*
X142070803Y-115276525D01*
X142149408Y-115122257D01*
X142202914Y-114957584D01*
X142230000Y-114786571D01*
X142230000Y-114613428D01*
X142202914Y-114442415D01*
X142149408Y-114277742D01*
X142070801Y-114123471D01*
X142066290Y-114117262D01*
X142066289Y-114117261D01*
X141483553Y-114699999D01*
X141430000Y-114699999D01*
X141430000Y-114660504D01*
X141409556Y-114584204D01*
X141370060Y-114515795D01*
X141314205Y-114459940D01*
X141245796Y-114420444D01*
X141169496Y-114400000D01*
X141090504Y-114400000D01*
X141071300Y-114405145D01*
X141712737Y-113763709D01*
X141706525Y-113759196D01*
X141552259Y-113680592D01*
X141387584Y-113627085D01*
X141216571Y-113600000D01*
X141043429Y-113600000D01*
X140872415Y-113627085D01*
X140707742Y-113680591D01*
X140568198Y-113751694D01*
X140499529Y-113764590D01*
X140446806Y-113746747D01*
X140302746Y-113657889D01*
X140302740Y-113657886D01*
X140302738Y-113657885D01*
X140273465Y-113648185D01*
X140134427Y-113602113D01*
X140030552Y-113591500D01*
X140030545Y-113591500D01*
X139609832Y-113591500D01*
X139542793Y-113571815D01*
X139522151Y-113555181D01*
X138336646Y-112369674D01*
X138336638Y-112369668D01*
X138220603Y-112292136D01*
X138220599Y-112292134D01*
X138193896Y-112281073D01*
X138129427Y-112254369D01*
X138129426Y-112254368D01*
X138091664Y-112238727D01*
X138091658Y-112238725D01*
X138023221Y-112225113D01*
X137954785Y-112211500D01*
X137954782Y-112211500D01*
X137954781Y-112211500D01*
X136955820Y-112211500D01*
X136888781Y-112191815D01*
X136855503Y-112160387D01*
X136788068Y-112067570D01*
X136642430Y-111921932D01*
X136642428Y-111921930D01*
X136642423Y-111921926D01*
X136475806Y-111800873D01*
X136475805Y-111800872D01*
X136475803Y-111800871D01*
X136418496Y-111771671D01*
X136292294Y-111707367D01*
X136096408Y-111643719D01*
X135920794Y-111615905D01*
X135892981Y-111611500D01*
X135687019Y-111611500D01*
X135662550Y-111615375D01*
X135483591Y-111643719D01*
X135287705Y-111707367D01*
X135104193Y-111800873D01*
X134937576Y-111921926D01*
X134937571Y-111921930D01*
X134791930Y-112067571D01*
X134791926Y-112067576D01*
X134670873Y-112234193D01*
X134577367Y-112417705D01*
X134513719Y-112613591D01*
X134481500Y-112817019D01*
X117342620Y-112817019D01*
X117338134Y-105253084D01*
X117611500Y-105253084D01*
X117611500Y-105466915D01*
X117644951Y-105678117D01*
X117711026Y-105881480D01*
X117711027Y-105881483D01*
X117782245Y-106021254D01*
X117808106Y-106072009D01*
X117933794Y-106245004D01*
X118084996Y-106396206D01*
X118257991Y-106521894D01*
X118346883Y-106567187D01*
X118448516Y-106618972D01*
X118448519Y-106618973D01*
X118514820Y-106640515D01*
X118651884Y-106685049D01*
X118863084Y-106718500D01*
X118863085Y-106718500D01*
X119076915Y-106718500D01*
X119076916Y-106718500D01*
X119288116Y-106685049D01*
X119491483Y-106618972D01*
X119682009Y-106521894D01*
X119855004Y-106396206D01*
X120006206Y-106245004D01*
X120131894Y-106072009D01*
X120131896Y-106072004D01*
X120134270Y-106068132D01*
X120186080Y-106021254D01*
X120255009Y-106009829D01*
X120319173Y-106037483D01*
X120345730Y-106068132D01*
X120348103Y-106072005D01*
X120348106Y-106072009D01*
X120473794Y-106245004D01*
X120624996Y-106396206D01*
X120797991Y-106521894D01*
X120886883Y-106567187D01*
X120988516Y-106618972D01*
X120988519Y-106618973D01*
X121054820Y-106640515D01*
X121191884Y-106685049D01*
X121403084Y-106718500D01*
X121403085Y-106718500D01*
X121616915Y-106718500D01*
X121616916Y-106718500D01*
X121828116Y-106685049D01*
X122031483Y-106618972D01*
X122222009Y-106521894D01*
X122395004Y-106396206D01*
X122506791Y-106284418D01*
X122568110Y-106250936D01*
X122637802Y-106255920D01*
X122693736Y-106297791D01*
X122710651Y-106328769D01*
X122756645Y-106452086D01*
X122756649Y-106452093D01*
X122842809Y-106567187D01*
X122842812Y-106567190D01*
X122957906Y-106653350D01*
X122957913Y-106653354D01*
X123092620Y-106703596D01*
X123092627Y-106703598D01*
X123152155Y-106709999D01*
X123152172Y-106710000D01*
X123800000Y-106710000D01*
X123800000Y-105804560D01*
X123853147Y-105835245D01*
X123982857Y-105870000D01*
X124117143Y-105870000D01*
X124246853Y-105835245D01*
X124300000Y-105804560D01*
X124300000Y-106710000D01*
X124947828Y-106710000D01*
X124947844Y-106709999D01*
X125007372Y-106703598D01*
X125007379Y-106703596D01*
X125142086Y-106653354D01*
X125142093Y-106653350D01*
X125257187Y-106567190D01*
X125257190Y-106567187D01*
X125343350Y-106452093D01*
X125343355Y-106452084D01*
X125389348Y-106328770D01*
X125431219Y-106272836D01*
X125496683Y-106248418D01*
X125564956Y-106263269D01*
X125593211Y-106284421D01*
X125704996Y-106396206D01*
X125877991Y-106521894D01*
X125966883Y-106567187D01*
X126068516Y-106618972D01*
X126068519Y-106618973D01*
X126134820Y-106640515D01*
X126271884Y-106685049D01*
X126483084Y-106718500D01*
X126483085Y-106718500D01*
X126696915Y-106718500D01*
X126696916Y-106718500D01*
X126908116Y-106685049D01*
X127111483Y-106618972D01*
X127302009Y-106521894D01*
X127475004Y-106396206D01*
X127626206Y-106245004D01*
X127751894Y-106072009D01*
X127751896Y-106072004D01*
X127754270Y-106068132D01*
X127806080Y-106021254D01*
X127875009Y-106009829D01*
X127939173Y-106037483D01*
X127965730Y-106068132D01*
X127968103Y-106072005D01*
X127968106Y-106072009D01*
X128093794Y-106245004D01*
X128244996Y-106396206D01*
X128417991Y-106521894D01*
X128506883Y-106567187D01*
X128608516Y-106618972D01*
X128608519Y-106618973D01*
X128674820Y-106640515D01*
X128811884Y-106685049D01*
X129023084Y-106718500D01*
X129023085Y-106718500D01*
X129236915Y-106718500D01*
X129236916Y-106718500D01*
X129448116Y-106685049D01*
X129454529Y-106682964D01*
X129524368Y-106680966D01*
X129580532Y-106713213D01*
X133831481Y-110964163D01*
X133831485Y-110964166D01*
X133955708Y-111047170D01*
X133955721Y-111047177D01*
X134031106Y-111078402D01*
X134093753Y-111104351D01*
X134126253Y-111110815D01*
X134166970Y-111118915D01*
X134166997Y-111118919D01*
X134167024Y-111118925D01*
X134240294Y-111133500D01*
X134240295Y-111133500D01*
X134389705Y-111133500D01*
X145392500Y-111133500D01*
X145459539Y-111153185D01*
X145505294Y-111205989D01*
X145516500Y-111257500D01*
X145516500Y-111273654D01*
X145523011Y-111334202D01*
X145523011Y-111334204D01*
X145574111Y-111471204D01*
X145661739Y-111588261D01*
X145778796Y-111675889D01*
X145915799Y-111726989D01*
X145943050Y-111729918D01*
X145976345Y-111733499D01*
X145976362Y-111733500D01*
X147773638Y-111733500D01*
X147773654Y-111733499D01*
X147800692Y-111730591D01*
X147834201Y-111726989D01*
X147971204Y-111675889D01*
X148088261Y-111588261D01*
X148175889Y-111471204D01*
X148224223Y-111341615D01*
X148266093Y-111285686D01*
X148331557Y-111261269D01*
X148399830Y-111276121D01*
X148428084Y-111297272D01*
X148535535Y-111404723D01*
X148535540Y-111404727D01*
X148707442Y-111529620D01*
X148896782Y-111626095D01*
X149098871Y-111691757D01*
X149165000Y-111702231D01*
X149165000Y-110808012D01*
X149222007Y-110840925D01*
X149349174Y-110875000D01*
X149480826Y-110875000D01*
X149607993Y-110840925D01*
X149665000Y-110808012D01*
X149665000Y-111702230D01*
X149731126Y-111691757D01*
X149731129Y-111691757D01*
X149933217Y-111626095D01*
X150122557Y-111529620D01*
X150294459Y-111404727D01*
X150294464Y-111404723D01*
X150444723Y-111254464D01*
X150444727Y-111254459D01*
X150569619Y-111082560D01*
X150569738Y-111082327D01*
X150569808Y-111082252D01*
X150572168Y-111078402D01*
X150572976Y-111078897D01*
X150617707Y-111031526D01*
X150685526Y-111014723D01*
X150751663Y-111037254D01*
X150790712Y-111082311D01*
X150793105Y-111087008D01*
X150805706Y-111104352D01*
X150918794Y-111260004D01*
X151069996Y-111411206D01*
X151242991Y-111536894D01*
X151336438Y-111584507D01*
X151433516Y-111633972D01*
X151433519Y-111633973D01*
X151535200Y-111667010D01*
X151636884Y-111700049D01*
X151848084Y-111733500D01*
X151848085Y-111733500D01*
X152061915Y-111733500D01*
X152061916Y-111733500D01*
X152273116Y-111700049D01*
X152476483Y-111633972D01*
X152667009Y-111536894D01*
X152840004Y-111411206D01*
X152991206Y-111260004D01*
X153116894Y-111087009D01*
X153116896Y-111087004D01*
X153119270Y-111083132D01*
X153171080Y-111036254D01*
X153240009Y-111024829D01*
X153304173Y-111052483D01*
X153330730Y-111083132D01*
X153333103Y-111087005D01*
X153333105Y-111087008D01*
X153333106Y-111087009D01*
X153458794Y-111260004D01*
X153609996Y-111411206D01*
X153782991Y-111536894D01*
X153876438Y-111584507D01*
X153973516Y-111633972D01*
X153973519Y-111633973D01*
X154075200Y-111667010D01*
X154176884Y-111700049D01*
X154388084Y-111733500D01*
X154388085Y-111733500D01*
X154601915Y-111733500D01*
X154601916Y-111733500D01*
X154813116Y-111700049D01*
X155016483Y-111633972D01*
X155207009Y-111536894D01*
X155380004Y-111411206D01*
X155531206Y-111260004D01*
X155656894Y-111087009D01*
X155656896Y-111087004D01*
X155659270Y-111083132D01*
X155711080Y-111036254D01*
X155780009Y-111024829D01*
X155844173Y-111052483D01*
X155870730Y-111083132D01*
X155873103Y-111087005D01*
X155873105Y-111087008D01*
X155873106Y-111087009D01*
X155998794Y-111260004D01*
X156149996Y-111411206D01*
X156322991Y-111536894D01*
X156416438Y-111584507D01*
X156513516Y-111633972D01*
X156513519Y-111633973D01*
X156615200Y-111667010D01*
X156716884Y-111700049D01*
X156928084Y-111733500D01*
X156928085Y-111733500D01*
X157141915Y-111733500D01*
X157141916Y-111733500D01*
X157353116Y-111700049D01*
X157556483Y-111633972D01*
X157747009Y-111536894D01*
X157920004Y-111411206D01*
X158071206Y-111260004D01*
X158196894Y-111087009D01*
X158196896Y-111087004D01*
X158199270Y-111083132D01*
X158251080Y-111036254D01*
X158320009Y-111024829D01*
X158384173Y-111052483D01*
X158410730Y-111083132D01*
X158413103Y-111087005D01*
X158413105Y-111087008D01*
X158413106Y-111087009D01*
X158538794Y-111260004D01*
X158689996Y-111411206D01*
X158862991Y-111536894D01*
X158956438Y-111584507D01*
X159053516Y-111633972D01*
X159053519Y-111633973D01*
X159155200Y-111667010D01*
X159256884Y-111700049D01*
X159468084Y-111733500D01*
X159468085Y-111733500D01*
X159681915Y-111733500D01*
X159681916Y-111733500D01*
X159893116Y-111700049D01*
X160096483Y-111633972D01*
X160287009Y-111536894D01*
X160460004Y-111411206D01*
X160611206Y-111260004D01*
X160736894Y-111087009D01*
X160736896Y-111087004D01*
X160739270Y-111083132D01*
X160791080Y-111036254D01*
X160860009Y-111024829D01*
X160924173Y-111052483D01*
X160950730Y-111083132D01*
X160953103Y-111087005D01*
X160953105Y-111087008D01*
X160953106Y-111087009D01*
X161078794Y-111260004D01*
X161229996Y-111411206D01*
X161402991Y-111536894D01*
X161496438Y-111584507D01*
X161593516Y-111633972D01*
X161593519Y-111633973D01*
X161796883Y-111700049D01*
X161808424Y-111701877D01*
X161871559Y-111731806D01*
X161908491Y-111791117D01*
X161907493Y-111860980D01*
X161876708Y-111912031D01*
X161683559Y-112105181D01*
X161622236Y-112138666D01*
X161595878Y-112141500D01*
X153725141Y-112141500D01*
X153597928Y-112166804D01*
X153597922Y-112166806D01*
X153478086Y-112216443D01*
X153478079Y-112216447D01*
X153370228Y-112288510D01*
X151497813Y-114160925D01*
X151448455Y-114191173D01*
X151433525Y-114196024D01*
X151433523Y-114196025D01*
X151433517Y-114196027D01*
X151433517Y-114196028D01*
X151418061Y-114203903D01*
X151242990Y-114293106D01*
X151069993Y-114418796D01*
X150918796Y-114569993D01*
X150793105Y-114742991D01*
X150790727Y-114746873D01*
X150738914Y-114793748D01*
X150669984Y-114805169D01*
X150605822Y-114777512D01*
X150579273Y-114746873D01*
X150576894Y-114742991D01*
X150545659Y-114700000D01*
X150451206Y-114569996D01*
X150300004Y-114418794D01*
X150127009Y-114293106D01*
X150096856Y-114277742D01*
X149936483Y-114196027D01*
X149936480Y-114196026D01*
X149733117Y-114129951D01*
X149627516Y-114113225D01*
X149521916Y-114096500D01*
X149308084Y-114096500D01*
X149237684Y-114107650D01*
X149096882Y-114129951D01*
X148893519Y-114196026D01*
X148893516Y-114196027D01*
X148702990Y-114293106D01*
X148529993Y-114418796D01*
X148378796Y-114569993D01*
X148253105Y-114742991D01*
X148250727Y-114746873D01*
X148198914Y-114793748D01*
X148129984Y-114805169D01*
X148065822Y-114777512D01*
X148039273Y-114746873D01*
X148036894Y-114742991D01*
X148005659Y-114700000D01*
X147911206Y-114569996D01*
X147760004Y-114418794D01*
X147587009Y-114293106D01*
X147556856Y-114277742D01*
X147396483Y-114196027D01*
X147396480Y-114196026D01*
X147193117Y-114129951D01*
X147087516Y-114113225D01*
X146981916Y-114096500D01*
X146768084Y-114096500D01*
X146697684Y-114107650D01*
X146556882Y-114129951D01*
X146353519Y-114196026D01*
X146353516Y-114196027D01*
X146162990Y-114293106D01*
X145989993Y-114418796D01*
X145838796Y-114569993D01*
X145713106Y-114742990D01*
X145616027Y-114933516D01*
X145616026Y-114933519D01*
X145549951Y-115136882D01*
X145516500Y-115348084D01*
X145516500Y-115561915D01*
X145549951Y-115773117D01*
X145616026Y-115976480D01*
X145616027Y-115976483D01*
X145708917Y-116158788D01*
X145713106Y-116167009D01*
X145838794Y-116340004D01*
X145989996Y-116491206D01*
X146162991Y-116616894D01*
X146211340Y-116641529D01*
X146353516Y-116713972D01*
X146353519Y-116713973D01*
X146407149Y-116731398D01*
X146556884Y-116780049D01*
X146768084Y-116813500D01*
X146768085Y-116813500D01*
X146981915Y-116813500D01*
X146981916Y-116813500D01*
X147193116Y-116780049D01*
X147396483Y-116713972D01*
X147587009Y-116616894D01*
X147760004Y-116491206D01*
X147911206Y-116340004D01*
X148036894Y-116167009D01*
X148036896Y-116167004D01*
X148039270Y-116163132D01*
X148091080Y-116116254D01*
X148160009Y-116104829D01*
X148224173Y-116132483D01*
X148250730Y-116163132D01*
X148253103Y-116167005D01*
X148253106Y-116167009D01*
X148378794Y-116340004D01*
X148529996Y-116491206D01*
X148702991Y-116616894D01*
X148751340Y-116641529D01*
X148893516Y-116713972D01*
X148893519Y-116713973D01*
X148947149Y-116731398D01*
X149096884Y-116780049D01*
X149308084Y-116813500D01*
X149308085Y-116813500D01*
X149521915Y-116813500D01*
X149521916Y-116813500D01*
X149733116Y-116780049D01*
X149936483Y-116713972D01*
X150127009Y-116616894D01*
X150300004Y-116491206D01*
X150451206Y-116340004D01*
X150576894Y-116167009D01*
X150576896Y-116167004D01*
X150579270Y-116163132D01*
X150631080Y-116116254D01*
X150700009Y-116104829D01*
X150764173Y-116132483D01*
X150790730Y-116163132D01*
X150793103Y-116167005D01*
X150793106Y-116167009D01*
X150918794Y-116340004D01*
X151069996Y-116491206D01*
X151242991Y-116616894D01*
X151291340Y-116641529D01*
X151433516Y-116713972D01*
X151433519Y-116713973D01*
X151487149Y-116731398D01*
X151636884Y-116780049D01*
X151848084Y-116813500D01*
X151848085Y-116813500D01*
X152061915Y-116813500D01*
X152061916Y-116813500D01*
X152273116Y-116780049D01*
X152476483Y-116713972D01*
X152667009Y-116616894D01*
X152840004Y-116491206D01*
X152991206Y-116340004D01*
X153116894Y-116167009D01*
X153116896Y-116167004D01*
X153119270Y-116163132D01*
X153171080Y-116116254D01*
X153240009Y-116104829D01*
X153304173Y-116132483D01*
X153330730Y-116163132D01*
X153333103Y-116167005D01*
X153333106Y-116167009D01*
X153458794Y-116340004D01*
X153609996Y-116491206D01*
X153782991Y-116616894D01*
X153831340Y-116641529D01*
X153973516Y-116713972D01*
X153973519Y-116713973D01*
X154027149Y-116731398D01*
X154176884Y-116780049D01*
X154388084Y-116813500D01*
X154388085Y-116813500D01*
X154601915Y-116813500D01*
X154601916Y-116813500D01*
X154813116Y-116780049D01*
X155016483Y-116713972D01*
X155207009Y-116616894D01*
X155380004Y-116491206D01*
X155531206Y-116340004D01*
X155656894Y-116167009D01*
X155656896Y-116167004D01*
X155659270Y-116163132D01*
X155711080Y-116116254D01*
X155780009Y-116104829D01*
X155844173Y-116132483D01*
X155870730Y-116163132D01*
X155873103Y-116167005D01*
X155873106Y-116167009D01*
X155998794Y-116340004D01*
X156149996Y-116491206D01*
X156248603Y-116562848D01*
X156275386Y-116582307D01*
X156318051Y-116637637D01*
X156326500Y-116682625D01*
X156326500Y-117004786D01*
X156353724Y-117141653D01*
X156353727Y-117141662D01*
X156407135Y-117270601D01*
X156407136Y-117270604D01*
X156484671Y-117386642D01*
X156484674Y-117386646D01*
X157448354Y-118350325D01*
X157448358Y-118350328D01*
X157564400Y-118427865D01*
X157639930Y-118459150D01*
X157693338Y-118481273D01*
X157761776Y-118494886D01*
X157830214Y-118508499D01*
X157830218Y-118508500D01*
X157830219Y-118508500D01*
X166319782Y-118508500D01*
X166388221Y-118494886D01*
X166456662Y-118481273D01*
X166494427Y-118465630D01*
X166585601Y-118427865D01*
X166701643Y-118350328D01*
X167780328Y-117271643D01*
X167857865Y-117155601D01*
X167884416Y-117091500D01*
X167911273Y-117026662D01*
X167938500Y-116889781D01*
X167938500Y-106587625D01*
X167958185Y-106520586D01*
X167989614Y-106487307D01*
X168115004Y-106396206D01*
X168266206Y-106245004D01*
X168391894Y-106072009D01*
X168488972Y-105881483D01*
X168555049Y-105678116D01*
X168588500Y-105466916D01*
X168588500Y-105253084D01*
X168555049Y-105041884D01*
X168522010Y-104940200D01*
X168488973Y-104838519D01*
X168488972Y-104838516D01*
X168417756Y-104698748D01*
X168391894Y-104647991D01*
X168266206Y-104474996D01*
X168115004Y-104323794D01*
X167942009Y-104198106D01*
X167884299Y-104168701D01*
X167751483Y-104101027D01*
X167751480Y-104101026D01*
X167548117Y-104034951D01*
X167430997Y-104016401D01*
X167336916Y-104001500D01*
X167123084Y-104001500D01*
X167052684Y-104012650D01*
X166911882Y-104034951D01*
X166708519Y-104101026D01*
X166708516Y-104101027D01*
X166517990Y-104198106D01*
X166344993Y-104323796D01*
X166193796Y-104474993D01*
X166068105Y-104647991D01*
X166065727Y-104651873D01*
X166013914Y-104698748D01*
X165944984Y-104710169D01*
X165880822Y-104682512D01*
X165854273Y-104651873D01*
X165851894Y-104647991D01*
X165851893Y-104647990D01*
X165726206Y-104474996D01*
X165575004Y-104323794D01*
X165402009Y-104198106D01*
X165344299Y-104168701D01*
X165211483Y-104101027D01*
X165211480Y-104101026D01*
X165008117Y-104034951D01*
X164890997Y-104016401D01*
X164796916Y-104001500D01*
X164583084Y-104001500D01*
X164512684Y-104012650D01*
X164371882Y-104034951D01*
X164168519Y-104101026D01*
X164168516Y-104101027D01*
X163977990Y-104198106D01*
X163804997Y-104323793D01*
X163693211Y-104435579D01*
X163631888Y-104469063D01*
X163562196Y-104464079D01*
X163506263Y-104422207D01*
X163489348Y-104391230D01*
X163443354Y-104267913D01*
X163443350Y-104267906D01*
X163357190Y-104152812D01*
X163357187Y-104152809D01*
X163242093Y-104066649D01*
X163242086Y-104066645D01*
X163107379Y-104016403D01*
X163107372Y-104016401D01*
X163047844Y-104010000D01*
X162400000Y-104010000D01*
X162400000Y-104915439D01*
X162346853Y-104884755D01*
X162217143Y-104850000D01*
X162082857Y-104850000D01*
X161953147Y-104884755D01*
X161900000Y-104915439D01*
X161900000Y-104010000D01*
X161252155Y-104010000D01*
X161192627Y-104016401D01*
X161192620Y-104016403D01*
X161057913Y-104066645D01*
X161057906Y-104066649D01*
X160942812Y-104152809D01*
X160942809Y-104152812D01*
X160856649Y-104267906D01*
X160856645Y-104267913D01*
X160810651Y-104391230D01*
X160768779Y-104447164D01*
X160703315Y-104471581D01*
X160635042Y-104456729D01*
X160606788Y-104435578D01*
X160495006Y-104323796D01*
X160495004Y-104323794D01*
X160322009Y-104198106D01*
X160264299Y-104168701D01*
X160131483Y-104101027D01*
X160131480Y-104101026D01*
X159928117Y-104034951D01*
X159810997Y-104016401D01*
X159716916Y-104001500D01*
X159503084Y-104001500D01*
X159432684Y-104012650D01*
X159291882Y-104034951D01*
X159088519Y-104101026D01*
X159088516Y-104101027D01*
X158897990Y-104198106D01*
X158724993Y-104323796D01*
X158573796Y-104474993D01*
X158448105Y-104647991D01*
X158445727Y-104651873D01*
X158393914Y-104698748D01*
X158324984Y-104710169D01*
X158260822Y-104682512D01*
X158234273Y-104651873D01*
X158231894Y-104647991D01*
X158231893Y-104647990D01*
X158106206Y-104474996D01*
X157955004Y-104323794D01*
X157782009Y-104198106D01*
X157724299Y-104168701D01*
X157591483Y-104101027D01*
X157591480Y-104101026D01*
X157388117Y-104034951D01*
X157270997Y-104016401D01*
X157176916Y-104001500D01*
X156963084Y-104001500D01*
X156892684Y-104012650D01*
X156751882Y-104034951D01*
X156548519Y-104101026D01*
X156548516Y-104101027D01*
X156357990Y-104198106D01*
X156184993Y-104323796D01*
X156033796Y-104474993D01*
X155908105Y-104647991D01*
X155905727Y-104651873D01*
X155853914Y-104698748D01*
X155784984Y-104710169D01*
X155720822Y-104682512D01*
X155694273Y-104651873D01*
X155691894Y-104647991D01*
X155691893Y-104647990D01*
X155566206Y-104474996D01*
X155415004Y-104323794D01*
X155242009Y-104198106D01*
X155184299Y-104168701D01*
X155051483Y-104101027D01*
X155051480Y-104101026D01*
X154848117Y-104034951D01*
X154730997Y-104016401D01*
X154636916Y-104001500D01*
X154423084Y-104001500D01*
X154352684Y-104012650D01*
X154211882Y-104034951D01*
X154008519Y-104101026D01*
X154008516Y-104101027D01*
X153817990Y-104198106D01*
X153644993Y-104323796D01*
X153493796Y-104474993D01*
X153368105Y-104647991D01*
X153365727Y-104651873D01*
X153313914Y-104698748D01*
X153244984Y-104710169D01*
X153180822Y-104682512D01*
X153154273Y-104651873D01*
X153151894Y-104647991D01*
X153151893Y-104647990D01*
X153026206Y-104474996D01*
X152875004Y-104323794D01*
X152702009Y-104198106D01*
X152644299Y-104168701D01*
X152511483Y-104101027D01*
X152511480Y-104101026D01*
X152308117Y-104034951D01*
X152190997Y-104016401D01*
X152096916Y-104001500D01*
X151883084Y-104001500D01*
X151812684Y-104012650D01*
X151671882Y-104034951D01*
X151468519Y-104101026D01*
X151468516Y-104101027D01*
X151277990Y-104198106D01*
X151104997Y-104323793D01*
X150993211Y-104435579D01*
X150931888Y-104469063D01*
X150862196Y-104464079D01*
X150806263Y-104422207D01*
X150789348Y-104391230D01*
X150743354Y-104267913D01*
X150743350Y-104267906D01*
X150657190Y-104152812D01*
X150657187Y-104152809D01*
X150542093Y-104066649D01*
X150542086Y-104066645D01*
X150407379Y-104016403D01*
X150407372Y-104016401D01*
X150347844Y-104010000D01*
X149700000Y-104010000D01*
X149700000Y-104915439D01*
X149646853Y-104884755D01*
X149517143Y-104850000D01*
X149382857Y-104850000D01*
X149253147Y-104884755D01*
X149200000Y-104915439D01*
X149200000Y-104010000D01*
X148552155Y-104010000D01*
X148492627Y-104016401D01*
X148492620Y-104016403D01*
X148357913Y-104066645D01*
X148357906Y-104066649D01*
X148242812Y-104152809D01*
X148242809Y-104152812D01*
X148156649Y-104267906D01*
X148156645Y-104267913D01*
X148110651Y-104391230D01*
X148068779Y-104447164D01*
X148003315Y-104471581D01*
X147935042Y-104456729D01*
X147906788Y-104435578D01*
X147795006Y-104323796D01*
X147795004Y-104323794D01*
X147622009Y-104198106D01*
X147564299Y-104168701D01*
X147431483Y-104101027D01*
X147431480Y-104101026D01*
X147228117Y-104034951D01*
X147110997Y-104016401D01*
X147016916Y-104001500D01*
X146803084Y-104001500D01*
X146732684Y-104012650D01*
X146591882Y-104034951D01*
X146388519Y-104101026D01*
X146388516Y-104101027D01*
X146197990Y-104198106D01*
X146024993Y-104323796D01*
X145873796Y-104474993D01*
X145748105Y-104647991D01*
X145745727Y-104651873D01*
X145693914Y-104698748D01*
X145624984Y-104710169D01*
X145560822Y-104682512D01*
X145534273Y-104651873D01*
X145531894Y-104647991D01*
X145531893Y-104647990D01*
X145406206Y-104474996D01*
X145255004Y-104323794D01*
X145082009Y-104198106D01*
X145024299Y-104168701D01*
X144891483Y-104101027D01*
X144891480Y-104101026D01*
X144688117Y-104034951D01*
X144570997Y-104016401D01*
X144476916Y-104001500D01*
X144263084Y-104001500D01*
X144192684Y-104012650D01*
X144051882Y-104034951D01*
X143848519Y-104101026D01*
X143848516Y-104101027D01*
X143657990Y-104198106D01*
X143484993Y-104323796D01*
X143333796Y-104474993D01*
X143208105Y-104647991D01*
X143205727Y-104651873D01*
X143153914Y-104698748D01*
X143084984Y-104710169D01*
X143020822Y-104682512D01*
X142994273Y-104651873D01*
X142991894Y-104647991D01*
X142991893Y-104647990D01*
X142866206Y-104474996D01*
X142715004Y-104323794D01*
X142542009Y-104198106D01*
X142484299Y-104168701D01*
X142351483Y-104101027D01*
X142351480Y-104101026D01*
X142148117Y-104034951D01*
X142030997Y-104016401D01*
X141936916Y-104001500D01*
X141723084Y-104001500D01*
X141652684Y-104012650D01*
X141511882Y-104034951D01*
X141308519Y-104101026D01*
X141308516Y-104101027D01*
X141117990Y-104198106D01*
X140944993Y-104323796D01*
X140793796Y-104474993D01*
X140668105Y-104647991D01*
X140665727Y-104651873D01*
X140613914Y-104698748D01*
X140544984Y-104710169D01*
X140480822Y-104682512D01*
X140454273Y-104651873D01*
X140451894Y-104647991D01*
X140451893Y-104647990D01*
X140326206Y-104474996D01*
X140175004Y-104323794D01*
X140002009Y-104198106D01*
X139944299Y-104168701D01*
X139811483Y-104101027D01*
X139811480Y-104101026D01*
X139608117Y-104034951D01*
X139490997Y-104016401D01*
X139396916Y-104001500D01*
X139183084Y-104001500D01*
X139112684Y-104012650D01*
X138971882Y-104034951D01*
X138768519Y-104101026D01*
X138768516Y-104101027D01*
X138577990Y-104198106D01*
X138404997Y-104323793D01*
X138299818Y-104428972D01*
X138238495Y-104462456D01*
X138168803Y-104457472D01*
X138112870Y-104415600D01*
X138095956Y-104384625D01*
X138050889Y-104263796D01*
X138049854Y-104262414D01*
X138026999Y-104231883D01*
X137963261Y-104146739D01*
X137846204Y-104059111D01*
X137832986Y-104054181D01*
X137709203Y-104008011D01*
X137648654Y-104001500D01*
X137648638Y-104001500D01*
X135851362Y-104001500D01*
X135851345Y-104001500D01*
X135790797Y-104008011D01*
X135790795Y-104008011D01*
X135653795Y-104059111D01*
X135536739Y-104146739D01*
X135449111Y-104263795D01*
X135404043Y-104384625D01*
X135362171Y-104440558D01*
X135296707Y-104464974D01*
X135228434Y-104450122D01*
X135200181Y-104428971D01*
X135095006Y-104323796D01*
X135095004Y-104323794D01*
X134922009Y-104198106D01*
X134864299Y-104168701D01*
X134731483Y-104101027D01*
X134731480Y-104101026D01*
X134528117Y-104034951D01*
X134410997Y-104016401D01*
X134316916Y-104001500D01*
X134103084Y-104001500D01*
X134032684Y-104012650D01*
X133891882Y-104034951D01*
X133688519Y-104101026D01*
X133688516Y-104101027D01*
X133497990Y-104198106D01*
X133324993Y-104323796D01*
X133173796Y-104474993D01*
X133048105Y-104647991D01*
X133045727Y-104651873D01*
X132993914Y-104698748D01*
X132924984Y-104710169D01*
X132860822Y-104682512D01*
X132834273Y-104651873D01*
X132831894Y-104647991D01*
X132831893Y-104647990D01*
X132706206Y-104474996D01*
X132555004Y-104323794D01*
X132382009Y-104198106D01*
X132324299Y-104168701D01*
X132191483Y-104101027D01*
X132191480Y-104101026D01*
X131988117Y-104034951D01*
X131870997Y-104016401D01*
X131776916Y-104001500D01*
X131563084Y-104001500D01*
X131492684Y-104012650D01*
X131351882Y-104034951D01*
X131148519Y-104101026D01*
X131148516Y-104101027D01*
X130957990Y-104198106D01*
X130784993Y-104323796D01*
X130633796Y-104474993D01*
X130508105Y-104647991D01*
X130505727Y-104651873D01*
X130453914Y-104698748D01*
X130384984Y-104710169D01*
X130320822Y-104682512D01*
X130294273Y-104651873D01*
X130291894Y-104647991D01*
X130291893Y-104647990D01*
X130166206Y-104474996D01*
X130015004Y-104323794D01*
X129842009Y-104198106D01*
X129784299Y-104168701D01*
X129651483Y-104101027D01*
X129651480Y-104101026D01*
X129448117Y-104034951D01*
X129330997Y-104016401D01*
X129236916Y-104001500D01*
X129023084Y-104001500D01*
X128952684Y-104012650D01*
X128811882Y-104034951D01*
X128608519Y-104101026D01*
X128608516Y-104101027D01*
X128417990Y-104198106D01*
X128244993Y-104323796D01*
X128093796Y-104474993D01*
X127968105Y-104647991D01*
X127965727Y-104651873D01*
X127913914Y-104698748D01*
X127844984Y-104710169D01*
X127780822Y-104682512D01*
X127754273Y-104651873D01*
X127751894Y-104647991D01*
X127751893Y-104647990D01*
X127626206Y-104474996D01*
X127475004Y-104323794D01*
X127302009Y-104198106D01*
X127244299Y-104168701D01*
X127111483Y-104101027D01*
X127111480Y-104101026D01*
X126908117Y-104034951D01*
X126790997Y-104016401D01*
X126696916Y-104001500D01*
X126483084Y-104001500D01*
X126412684Y-104012650D01*
X126271882Y-104034951D01*
X126068519Y-104101026D01*
X126068516Y-104101027D01*
X125877990Y-104198106D01*
X125704997Y-104323793D01*
X125593211Y-104435579D01*
X125531888Y-104469063D01*
X125462196Y-104464079D01*
X125406263Y-104422207D01*
X125389348Y-104391230D01*
X125343354Y-104267913D01*
X125343350Y-104267906D01*
X125257190Y-104152812D01*
X125257187Y-104152809D01*
X125142093Y-104066649D01*
X125142086Y-104066645D01*
X125007379Y-104016403D01*
X125007372Y-104016401D01*
X124947844Y-104010000D01*
X124300000Y-104010000D01*
X124300000Y-104915439D01*
X124246853Y-104884755D01*
X124117143Y-104850000D01*
X123982857Y-104850000D01*
X123853147Y-104884755D01*
X123800000Y-104915439D01*
X123800000Y-104010000D01*
X123152155Y-104010000D01*
X123092627Y-104016401D01*
X123092620Y-104016403D01*
X122957913Y-104066645D01*
X122957906Y-104066649D01*
X122842812Y-104152809D01*
X122842809Y-104152812D01*
X122756649Y-104267906D01*
X122756645Y-104267913D01*
X122710651Y-104391230D01*
X122668779Y-104447164D01*
X122603315Y-104471581D01*
X122535042Y-104456729D01*
X122506788Y-104435578D01*
X122395003Y-104323793D01*
X122319613Y-104269018D01*
X122316272Y-104264686D01*
X122311297Y-104262414D01*
X122295167Y-104237316D01*
X122276948Y-104213688D01*
X122275695Y-104207015D01*
X122273523Y-104203636D01*
X122268500Y-104168701D01*
X122268500Y-104105543D01*
X122288185Y-104038504D01*
X122304819Y-104017862D01*
X124347862Y-101974819D01*
X124409185Y-101941334D01*
X124435543Y-101938500D01*
X125080001Y-101938500D01*
X125147040Y-101958185D01*
X125192795Y-102010989D01*
X125204001Y-102062500D01*
X125204001Y-102130553D01*
X125214613Y-102234427D01*
X125257386Y-102363508D01*
X125270385Y-102402738D01*
X125363470Y-102553652D01*
X125488848Y-102679030D01*
X125639762Y-102772115D01*
X125808074Y-102827887D01*
X125911955Y-102838500D01*
X128013044Y-102838499D01*
X128116926Y-102827887D01*
X128285238Y-102772115D01*
X128436152Y-102679030D01*
X128561530Y-102553652D01*
X128654615Y-102402738D01*
X128710387Y-102234426D01*
X128721000Y-102130545D01*
X128720999Y-100229456D01*
X128710387Y-100125574D01*
X128654615Y-99957262D01*
X128561530Y-99806348D01*
X128436152Y-99680970D01*
X128297119Y-99595213D01*
X128285240Y-99587886D01*
X128285235Y-99587884D01*
X128116927Y-99532113D01*
X128013045Y-99521500D01*
X125911962Y-99521500D01*
X125911946Y-99521501D01*
X125808072Y-99532113D01*
X125639764Y-99587884D01*
X125639759Y-99587886D01*
X125488846Y-99680971D01*
X125363471Y-99806346D01*
X125270386Y-99957259D01*
X125270384Y-99957264D01*
X125214613Y-100125572D01*
X125204000Y-100229447D01*
X125204000Y-100297500D01*
X125184315Y-100364539D01*
X125131511Y-100410294D01*
X125080000Y-100421500D01*
X123995292Y-100421500D01*
X123877706Y-100444890D01*
X123875992Y-100445231D01*
X123855516Y-100449303D01*
X123848753Y-100450649D01*
X123848749Y-100450650D01*
X123710719Y-100507823D01*
X123586482Y-100590835D01*
X123586481Y-100590836D01*
X121623667Y-102553652D01*
X121026484Y-103150835D01*
X120973658Y-103203660D01*
X120920833Y-103256485D01*
X120837829Y-103380709D01*
X120837822Y-103380722D01*
X120780650Y-103518749D01*
X120780647Y-103518759D01*
X120751500Y-103665291D01*
X120751500Y-104168701D01*
X120731815Y-104235740D01*
X120700387Y-104269018D01*
X120624996Y-104323793D01*
X120473796Y-104474993D01*
X120348105Y-104647991D01*
X120345727Y-104651873D01*
X120293914Y-104698748D01*
X120224984Y-104710169D01*
X120160822Y-104682512D01*
X120134273Y-104651873D01*
X120131894Y-104647991D01*
X120131893Y-104647990D01*
X120006206Y-104474996D01*
X119855004Y-104323794D01*
X119682009Y-104198106D01*
X119624299Y-104168701D01*
X119491483Y-104101027D01*
X119491480Y-104101026D01*
X119288117Y-104034951D01*
X119170997Y-104016401D01*
X119076916Y-104001500D01*
X118863084Y-104001500D01*
X118792684Y-104012650D01*
X118651882Y-104034951D01*
X118448519Y-104101026D01*
X118448516Y-104101027D01*
X118257990Y-104198106D01*
X118084993Y-104323796D01*
X117933796Y-104474993D01*
X117808106Y-104647990D01*
X117711027Y-104838516D01*
X117711026Y-104838519D01*
X117644951Y-105041882D01*
X117611500Y-105253084D01*
X117338134Y-105253084D01*
X117334475Y-99084149D01*
X117691500Y-99084149D01*
X117691500Y-99305851D01*
X117719643Y-99483538D01*
X117726182Y-99524824D01*
X117794693Y-99735680D01*
X117875960Y-99895174D01*
X117895343Y-99933215D01*
X118025657Y-100112576D01*
X118182424Y-100269343D01*
X118361785Y-100399657D01*
X118422640Y-100430664D01*
X118559319Y-100500306D01*
X118559321Y-100500306D01*
X118559324Y-100500308D01*
X118770176Y-100568818D01*
X118989149Y-100603500D01*
X118989150Y-100603500D01*
X119210850Y-100603500D01*
X119210851Y-100603500D01*
X119429824Y-100568818D01*
X119640676Y-100500308D01*
X119838215Y-100399657D01*
X120017576Y-100269343D01*
X120174343Y-100112576D01*
X120304657Y-99933215D01*
X120405308Y-99735676D01*
X120473818Y-99524824D01*
X120508500Y-99305851D01*
X120508500Y-99084149D01*
X120485728Y-98940370D01*
X120473818Y-98865175D01*
X120462194Y-98829401D01*
X120451325Y-98795948D01*
X120871500Y-98795948D01*
X120871500Y-98994051D01*
X120902487Y-99189700D01*
X120963703Y-99378101D01*
X121036770Y-99521501D01*
X121053634Y-99554598D01*
X121170070Y-99714858D01*
X121310142Y-99854930D01*
X121470402Y-99971366D01*
X121549169Y-100011500D01*
X121646898Y-100061296D01*
X121646900Y-100061296D01*
X121646903Y-100061298D01*
X121709900Y-100081767D01*
X121835299Y-100122512D01*
X122030949Y-100153500D01*
X122030954Y-100153500D01*
X122229051Y-100153500D01*
X122424700Y-100122512D01*
X122433404Y-100119684D01*
X122613097Y-100061298D01*
X122789598Y-99971366D01*
X122949858Y-99854930D01*
X123089930Y-99714858D01*
X123206366Y-99554598D01*
X123296298Y-99378097D01*
X123357512Y-99189700D01*
X123358492Y-99183515D01*
X123388500Y-98994051D01*
X123388500Y-98795948D01*
X123357512Y-98600299D01*
X123321191Y-98488516D01*
X123296298Y-98411903D01*
X123296296Y-98411900D01*
X123296296Y-98411898D01*
X123246997Y-98315144D01*
X123206366Y-98235402D01*
X123089930Y-98075142D01*
X122949858Y-97935070D01*
X122789598Y-97818634D01*
X122726532Y-97786500D01*
X122613101Y-97728703D01*
X122424700Y-97667487D01*
X122229051Y-97636500D01*
X122229046Y-97636500D01*
X122030954Y-97636500D01*
X122030949Y-97636500D01*
X121835299Y-97667487D01*
X121646898Y-97728703D01*
X121470401Y-97818634D01*
X121378967Y-97885065D01*
X121310142Y-97935070D01*
X121310140Y-97935072D01*
X121310139Y-97935072D01*
X121170072Y-98075139D01*
X121170072Y-98075140D01*
X121170070Y-98075142D01*
X121137000Y-98120659D01*
X121053634Y-98235401D01*
X120963703Y-98411898D01*
X120902487Y-98600299D01*
X120871500Y-98795948D01*
X120451325Y-98795948D01*
X120447497Y-98784168D01*
X120405308Y-98654324D01*
X120405306Y-98654321D01*
X120405306Y-98654319D01*
X120329026Y-98504612D01*
X120304657Y-98456785D01*
X120174343Y-98277424D01*
X120017576Y-98120657D01*
X119838215Y-97990343D01*
X119775710Y-97958495D01*
X119640680Y-97889693D01*
X119429824Y-97821182D01*
X119396822Y-97815955D01*
X119210851Y-97786500D01*
X118989149Y-97786500D01*
X118879662Y-97803841D01*
X118770175Y-97821182D01*
X118559319Y-97889693D01*
X118361784Y-97990343D01*
X118334220Y-98010370D01*
X118182424Y-98120657D01*
X118182422Y-98120659D01*
X118182421Y-98120659D01*
X118025659Y-98277421D01*
X118025659Y-98277422D01*
X118025657Y-98277424D01*
X118005622Y-98305000D01*
X117895343Y-98456784D01*
X117794693Y-98654319D01*
X117726182Y-98865175D01*
X117714272Y-98940370D01*
X117691500Y-99084149D01*
X117334475Y-99084149D01*
X117331243Y-93634149D01*
X117691500Y-93634149D01*
X117691500Y-93855851D01*
X117706753Y-93952155D01*
X117726182Y-94074824D01*
X117794693Y-94285680D01*
X117873688Y-94440715D01*
X117895343Y-94483215D01*
X118025657Y-94662576D01*
X118182424Y-94819343D01*
X118361785Y-94949657D01*
X118450491Y-94994855D01*
X118559319Y-95050306D01*
X118559321Y-95050306D01*
X118559324Y-95050308D01*
X118770176Y-95118818D01*
X118989149Y-95153500D01*
X118989150Y-95153500D01*
X119210850Y-95153500D01*
X119210851Y-95153500D01*
X119429824Y-95118818D01*
X119640676Y-95050308D01*
X119838215Y-94949657D01*
X120017576Y-94819343D01*
X120174343Y-94662576D01*
X120304657Y-94483215D01*
X120405308Y-94285676D01*
X120473818Y-94074824D01*
X120494230Y-93945948D01*
X120871500Y-93945948D01*
X120871500Y-94144051D01*
X120902487Y-94339700D01*
X120963703Y-94528101D01*
X121053225Y-94703796D01*
X121053634Y-94704598D01*
X121170070Y-94864858D01*
X121310142Y-95004930D01*
X121470402Y-95121366D01*
X121553790Y-95163854D01*
X121646898Y-95211296D01*
X121646900Y-95211296D01*
X121646903Y-95211298D01*
X121747888Y-95244110D01*
X121835299Y-95272512D01*
X122030949Y-95303500D01*
X122030954Y-95303500D01*
X122229051Y-95303500D01*
X122424700Y-95272512D01*
X122473244Y-95256739D01*
X122613097Y-95211298D01*
X122789598Y-95121366D01*
X122949858Y-95004930D01*
X123089930Y-94864858D01*
X123206366Y-94704598D01*
X123296298Y-94528097D01*
X123357512Y-94339700D01*
X123360184Y-94322827D01*
X123388500Y-94144051D01*
X123388500Y-93945948D01*
X123357512Y-93750299D01*
X123296296Y-93561898D01*
X123248854Y-93468790D01*
X123206366Y-93385402D01*
X123089930Y-93225142D01*
X122949858Y-93085070D01*
X122789598Y-92968634D01*
X122756699Y-92951871D01*
X122613101Y-92878703D01*
X122424700Y-92817487D01*
X122229051Y-92786500D01*
X122229046Y-92786500D01*
X122030954Y-92786500D01*
X122030949Y-92786500D01*
X121835299Y-92817487D01*
X121646898Y-92878703D01*
X121470401Y-92968634D01*
X121406088Y-93015361D01*
X121310142Y-93085070D01*
X121310140Y-93085072D01*
X121310139Y-93085072D01*
X121170072Y-93225139D01*
X121170072Y-93225140D01*
X121170070Y-93225142D01*
X121140843Y-93265370D01*
X121053634Y-93385401D01*
X120963703Y-93561898D01*
X120902487Y-93750299D01*
X120871500Y-93945948D01*
X120494230Y-93945948D01*
X120508500Y-93855851D01*
X120508500Y-93634149D01*
X120473818Y-93415176D01*
X120405308Y-93204324D01*
X120405306Y-93204321D01*
X120405306Y-93204319D01*
X120324125Y-93044993D01*
X120304657Y-93006785D01*
X120174343Y-92827424D01*
X120017576Y-92670657D01*
X119838215Y-92540343D01*
X119805557Y-92523703D01*
X119640680Y-92439693D01*
X119429824Y-92371182D01*
X119349747Y-92358499D01*
X119210851Y-92336500D01*
X118989149Y-92336500D01*
X118879662Y-92353841D01*
X118770175Y-92371182D01*
X118559319Y-92439693D01*
X118361784Y-92540343D01*
X118280898Y-92599111D01*
X118182424Y-92670657D01*
X118182422Y-92670659D01*
X118182421Y-92670659D01*
X118025659Y-92827421D01*
X118025659Y-92827422D01*
X118025657Y-92827424D01*
X117977583Y-92893592D01*
X117895343Y-93006784D01*
X117794693Y-93204319D01*
X117726182Y-93415175D01*
X117703009Y-93561482D01*
X117691500Y-93634149D01*
X117331243Y-93634149D01*
X117327589Y-87473084D01*
X117611500Y-87473084D01*
X117611500Y-87686915D01*
X117644951Y-87898117D01*
X117711026Y-88101480D01*
X117711027Y-88101483D01*
X117782245Y-88241254D01*
X117808106Y-88292009D01*
X117933794Y-88465004D01*
X118084996Y-88616206D01*
X118257991Y-88741894D01*
X118311500Y-88769158D01*
X118448516Y-88838972D01*
X118448519Y-88838973D01*
X118479340Y-88848987D01*
X118651884Y-88905049D01*
X118863084Y-88938500D01*
X118863085Y-88938500D01*
X119076915Y-88938500D01*
X119076916Y-88938500D01*
X119288116Y-88905049D01*
X119491483Y-88838972D01*
X119682009Y-88741894D01*
X119855004Y-88616206D01*
X120006206Y-88465004D01*
X120131894Y-88292009D01*
X120131896Y-88292004D01*
X120134270Y-88288132D01*
X120186080Y-88241254D01*
X120255009Y-88229829D01*
X120319173Y-88257483D01*
X120345730Y-88288132D01*
X120348103Y-88292005D01*
X120361800Y-88310857D01*
X120473794Y-88465004D01*
X120624996Y-88616206D01*
X120797991Y-88741894D01*
X120851500Y-88769158D01*
X120988516Y-88838972D01*
X120988519Y-88838973D01*
X121019340Y-88848987D01*
X121191884Y-88905049D01*
X121403084Y-88938500D01*
X121403085Y-88938500D01*
X121616915Y-88938500D01*
X121616916Y-88938500D01*
X121828116Y-88905049D01*
X122031483Y-88838972D01*
X122222009Y-88741894D01*
X122395004Y-88616206D01*
X122506791Y-88504418D01*
X122568110Y-88470936D01*
X122637802Y-88475920D01*
X122693736Y-88517791D01*
X122710651Y-88548769D01*
X122756645Y-88672086D01*
X122756649Y-88672093D01*
X122842809Y-88787187D01*
X122842812Y-88787190D01*
X122957906Y-88873350D01*
X122957913Y-88873354D01*
X123092620Y-88923596D01*
X123092627Y-88923598D01*
X123152155Y-88929999D01*
X123152172Y-88930000D01*
X123800000Y-88930000D01*
X123800000Y-88024560D01*
X123853147Y-88055245D01*
X123982857Y-88090000D01*
X124117143Y-88090000D01*
X124246853Y-88055245D01*
X124300000Y-88024560D01*
X124300000Y-88930000D01*
X124947828Y-88930000D01*
X124947844Y-88929999D01*
X125007372Y-88923598D01*
X125007379Y-88923596D01*
X125142086Y-88873354D01*
X125142093Y-88873350D01*
X125257187Y-88787190D01*
X125257190Y-88787187D01*
X125343350Y-88672093D01*
X125343355Y-88672084D01*
X125389348Y-88548770D01*
X125431219Y-88492836D01*
X125496683Y-88468418D01*
X125564956Y-88483269D01*
X125593211Y-88504421D01*
X125704996Y-88616206D01*
X125877991Y-88741894D01*
X125931500Y-88769158D01*
X126068516Y-88838972D01*
X126068519Y-88838973D01*
X126099340Y-88848987D01*
X126271884Y-88905049D01*
X126483084Y-88938500D01*
X126483085Y-88938500D01*
X126696915Y-88938500D01*
X126696916Y-88938500D01*
X126908116Y-88905049D01*
X127111483Y-88838972D01*
X127302009Y-88741894D01*
X127475004Y-88616206D01*
X127626206Y-88465004D01*
X127751894Y-88292009D01*
X127751896Y-88292004D01*
X127754270Y-88288132D01*
X127806080Y-88241254D01*
X127875009Y-88229829D01*
X127939173Y-88257483D01*
X127965730Y-88288132D01*
X127968103Y-88292005D01*
X127981800Y-88310857D01*
X128093794Y-88465004D01*
X128244996Y-88616206D01*
X128417991Y-88741894D01*
X128471500Y-88769158D01*
X128608516Y-88838972D01*
X128608519Y-88838973D01*
X128639340Y-88848987D01*
X128811884Y-88905049D01*
X129023084Y-88938500D01*
X129023085Y-88938500D01*
X129236915Y-88938500D01*
X129236916Y-88938500D01*
X129448116Y-88905049D01*
X129651483Y-88838972D01*
X129842009Y-88741894D01*
X130015004Y-88616206D01*
X130166206Y-88465004D01*
X130257307Y-88339613D01*
X130261639Y-88336273D01*
X130263912Y-88331297D01*
X130289011Y-88315166D01*
X130312637Y-88296949D01*
X130319308Y-88295696D01*
X130322690Y-88293523D01*
X130357625Y-88288500D01*
X130442375Y-88288500D01*
X130509414Y-88308185D01*
X130542692Y-88339613D01*
X130633794Y-88465004D01*
X130784996Y-88616206D01*
X130957991Y-88741894D01*
X131011500Y-88769158D01*
X131148516Y-88838972D01*
X131148519Y-88838973D01*
X131179340Y-88848987D01*
X131351884Y-88905049D01*
X131563084Y-88938500D01*
X131563085Y-88938500D01*
X131776915Y-88938500D01*
X131776916Y-88938500D01*
X131988116Y-88905049D01*
X131988116Y-88905048D01*
X131991039Y-88904586D01*
X132060333Y-88913541D01*
X132098118Y-88939378D01*
X134492981Y-91334240D01*
X136868510Y-93709769D01*
X136960231Y-93801490D01*
X137068083Y-93873555D01*
X137068084Y-93873555D01*
X137068085Y-93873556D01*
X137068087Y-93873557D01*
X137187918Y-93923192D01*
X137187923Y-93923194D01*
X137187927Y-93923194D01*
X137187928Y-93923195D01*
X137315140Y-93948500D01*
X137315143Y-93948500D01*
X140874484Y-93948500D01*
X140941523Y-93968185D01*
X140987278Y-94020989D01*
X140997222Y-94090147D01*
X140996101Y-94096691D01*
X140970311Y-94226345D01*
X140968420Y-94225969D01*
X140945582Y-94282484D01*
X140888536Y-94322827D01*
X140818735Y-94325924D01*
X140809358Y-94323221D01*
X140699337Y-94286764D01*
X140598879Y-94276500D01*
X140598872Y-94276500D01*
X140001128Y-94276500D01*
X140001120Y-94276500D01*
X139900661Y-94286764D01*
X139900660Y-94286764D01*
X139737902Y-94340696D01*
X139737900Y-94340697D01*
X139657286Y-94390419D01*
X139589893Y-94408859D01*
X139544738Y-94399441D01*
X139465004Y-94366414D01*
X139464992Y-94366411D01*
X139289483Y-94331500D01*
X139289479Y-94331500D01*
X139110521Y-94331500D01*
X139110516Y-94331500D01*
X138935007Y-94366411D01*
X138934999Y-94366413D01*
X138769667Y-94434896D01*
X138769657Y-94434901D01*
X138620865Y-94534321D01*
X138620861Y-94534324D01*
X138494324Y-94660861D01*
X138494321Y-94660865D01*
X138394901Y-94809657D01*
X138394896Y-94809667D01*
X138324604Y-94979365D01*
X138297724Y-95019593D01*
X136316484Y-97000835D01*
X136042138Y-97275181D01*
X135980815Y-97308666D01*
X135954457Y-97311500D01*
X129602663Y-97311500D01*
X129578472Y-97309117D01*
X129439633Y-97281500D01*
X129439630Y-97281500D01*
X129280370Y-97281500D01*
X129280365Y-97281500D01*
X129124176Y-97312568D01*
X129124168Y-97312570D01*
X128977030Y-97373517D01*
X128844612Y-97461995D01*
X128844605Y-97462001D01*
X128732001Y-97574605D01*
X128731995Y-97574612D01*
X128643517Y-97707030D01*
X128582570Y-97854168D01*
X128582568Y-97854176D01*
X128551500Y-98010365D01*
X128551500Y-98169634D01*
X128582568Y-98325823D01*
X128582570Y-98325831D01*
X128643517Y-98472969D01*
X128731995Y-98605387D01*
X128732001Y-98605394D01*
X128844605Y-98717998D01*
X128844612Y-98718004D01*
X128977030Y-98806482D01*
X128977031Y-98806482D01*
X128977032Y-98806483D01*
X129124169Y-98867430D01*
X129280365Y-98898499D01*
X129280369Y-98898500D01*
X129280370Y-98898500D01*
X129439631Y-98898500D01*
X129439632Y-98898499D01*
X129595831Y-98867430D01*
X129667028Y-98837938D01*
X129714480Y-98828500D01*
X135934457Y-98828500D01*
X135963897Y-98837144D01*
X135993884Y-98843668D01*
X135998899Y-98847422D01*
X136001496Y-98848185D01*
X136022138Y-98864819D01*
X136175834Y-99018515D01*
X138566481Y-101409163D01*
X138566482Y-101409164D01*
X138566485Y-101409166D01*
X138690716Y-101492174D01*
X138828753Y-101549351D01*
X138854106Y-101554393D01*
X138901970Y-101563915D01*
X138901997Y-101563919D01*
X138902024Y-101563925D01*
X138975294Y-101578500D01*
X138975295Y-101578500D01*
X139124705Y-101578500D01*
X139509926Y-101578500D01*
X139576965Y-101598185D01*
X139586837Y-101605234D01*
X139591963Y-101609287D01*
X139737890Y-101699297D01*
X139737893Y-101699298D01*
X139737899Y-101699302D01*
X139900664Y-101753236D01*
X140001128Y-101763500D01*
X140001133Y-101763500D01*
X140598867Y-101763500D01*
X140598872Y-101763500D01*
X140699336Y-101753236D01*
X140862101Y-101699302D01*
X141008040Y-101609285D01*
X141008045Y-101609279D01*
X141013163Y-101605234D01*
X141077958Y-101579093D01*
X141090074Y-101578500D01*
X142671829Y-101578500D01*
X142715162Y-101586318D01*
X142737110Y-101594504D01*
X142810799Y-101621989D01*
X142817760Y-101622737D01*
X142871345Y-101628499D01*
X142871362Y-101628500D01*
X143839457Y-101628500D01*
X143906496Y-101648185D01*
X143952251Y-101700989D01*
X143962195Y-101770147D01*
X143933170Y-101833703D01*
X143927138Y-101840181D01*
X143632138Y-102135181D01*
X143570815Y-102168666D01*
X143544457Y-102171500D01*
X136115543Y-102171500D01*
X136048504Y-102151815D01*
X136027862Y-102135181D01*
X134483518Y-100590836D01*
X134483517Y-100590835D01*
X134418349Y-100547292D01*
X134359284Y-100507826D01*
X134341129Y-100500306D01*
X134221247Y-100450649D01*
X134221239Y-100450647D01*
X134120776Y-100430664D01*
X134090062Y-100424554D01*
X134074707Y-100421500D01*
X134074706Y-100421500D01*
X133144999Y-100421500D01*
X133077960Y-100401815D01*
X133032205Y-100349011D01*
X133020999Y-100297500D01*
X133020999Y-100229462D01*
X133020998Y-100229446D01*
X133020718Y-100226707D01*
X133010387Y-100125574D01*
X132954615Y-99957262D01*
X132861530Y-99806348D01*
X132736152Y-99680970D01*
X132597119Y-99595213D01*
X132585240Y-99587886D01*
X132585235Y-99587884D01*
X132416927Y-99532113D01*
X132313045Y-99521500D01*
X130211962Y-99521500D01*
X130211946Y-99521501D01*
X130108072Y-99532113D01*
X129939764Y-99587884D01*
X129939759Y-99587886D01*
X129788846Y-99680971D01*
X129663471Y-99806346D01*
X129570386Y-99957259D01*
X129570384Y-99957264D01*
X129514613Y-100125572D01*
X129504000Y-100229447D01*
X129504000Y-102130537D01*
X129504001Y-102130553D01*
X129514613Y-102234427D01*
X129557386Y-102363508D01*
X129570385Y-102402738D01*
X129663470Y-102553652D01*
X129788848Y-102679030D01*
X129939762Y-102772115D01*
X130108074Y-102827887D01*
X130211955Y-102838500D01*
X132313044Y-102838499D01*
X132416926Y-102827887D01*
X132585238Y-102772115D01*
X132736152Y-102679030D01*
X132861530Y-102553652D01*
X132954615Y-102402738D01*
X133010387Y-102234426D01*
X133021000Y-102130545D01*
X133021000Y-102062500D01*
X133040685Y-101995461D01*
X133093489Y-101949706D01*
X133145000Y-101938500D01*
X133634457Y-101938500D01*
X133701496Y-101958185D01*
X133722138Y-101974819D01*
X135160834Y-103413515D01*
X135160835Y-103413516D01*
X135266068Y-103518749D01*
X135266485Y-103519166D01*
X135390709Y-103602170D01*
X135390722Y-103602177D01*
X135528749Y-103659349D01*
X135528754Y-103659351D01*
X135528758Y-103659351D01*
X135528759Y-103659352D01*
X135675291Y-103688500D01*
X135675294Y-103688500D01*
X143984708Y-103688500D01*
X144062478Y-103673030D01*
X144101364Y-103665295D01*
X144131247Y-103659351D01*
X144269284Y-103602174D01*
X144393515Y-103519166D01*
X145224359Y-102688322D01*
X148445001Y-102688322D01*
X148455144Y-102787607D01*
X148508452Y-102948481D01*
X148508457Y-102948492D01*
X148597424Y-103092728D01*
X148597427Y-103092732D01*
X148717267Y-103212572D01*
X148717271Y-103212575D01*
X148861507Y-103301542D01*
X148861518Y-103301547D01*
X149022393Y-103354855D01*
X149121683Y-103364999D01*
X149670000Y-103364999D01*
X149718308Y-103364999D01*
X149718322Y-103364998D01*
X149817607Y-103354855D01*
X149978481Y-103301547D01*
X149978492Y-103301542D01*
X150122728Y-103212575D01*
X150122732Y-103212572D01*
X150242572Y-103092732D01*
X150242575Y-103092728D01*
X150331542Y-102948492D01*
X150331547Y-102948481D01*
X150384855Y-102787606D01*
X150394999Y-102688322D01*
X150395000Y-102688309D01*
X150395000Y-102665000D01*
X149670000Y-102665000D01*
X149670000Y-103364999D01*
X149121683Y-103364999D01*
X149169999Y-103364998D01*
X149170000Y-103364998D01*
X149170000Y-102665000D01*
X148445001Y-102665000D01*
X148445001Y-102688322D01*
X145224359Y-102688322D01*
X146247862Y-101664819D01*
X146309185Y-101631334D01*
X146335543Y-101628500D01*
X146668638Y-101628500D01*
X146668654Y-101628499D01*
X146715277Y-101623485D01*
X146729201Y-101621989D01*
X146802889Y-101594504D01*
X146824838Y-101586318D01*
X146830467Y-101585302D01*
X146833236Y-101583523D01*
X146868171Y-101578500D01*
X146960166Y-101578500D01*
X147007616Y-101587938D01*
X147139169Y-101642430D01*
X147274180Y-101669285D01*
X147295365Y-101673499D01*
X147295369Y-101673500D01*
X147295370Y-101673500D01*
X147454631Y-101673500D01*
X147454632Y-101673499D01*
X147610831Y-101642430D01*
X147633744Y-101632939D01*
X147681197Y-101623500D01*
X148445425Y-101623500D01*
X148512464Y-101643185D01*
X148558219Y-101695989D01*
X148568163Y-101765147D01*
X148550963Y-101812598D01*
X148508455Y-101881511D01*
X148508452Y-101881518D01*
X148455144Y-102042393D01*
X148445000Y-102141677D01*
X148445000Y-102165000D01*
X150394999Y-102165000D01*
X150394999Y-102141692D01*
X150394998Y-102141677D01*
X150384855Y-102042392D01*
X150331547Y-101881518D01*
X150331544Y-101881511D01*
X150289037Y-101812598D01*
X150270596Y-101745205D01*
X150291518Y-101678542D01*
X150345160Y-101633772D01*
X150394575Y-101623500D01*
X170636376Y-101623500D01*
X170703415Y-101643185D01*
X170746859Y-101691204D01*
X170750440Y-101698231D01*
X170885611Y-101884278D01*
X171048222Y-102046889D01*
X171234269Y-102182060D01*
X171331078Y-102231386D01*
X171439166Y-102286460D01*
X171439168Y-102286460D01*
X171439171Y-102286462D01*
X171556404Y-102324553D01*
X171657881Y-102357526D01*
X171885012Y-102393500D01*
X171885017Y-102393500D01*
X172114988Y-102393500D01*
X172342118Y-102357526D01*
X172408712Y-102335888D01*
X172560829Y-102286462D01*
X172765731Y-102182060D01*
X172951778Y-102046889D01*
X173114389Y-101884278D01*
X173174937Y-101800940D01*
X173230264Y-101758276D01*
X173299877Y-101752297D01*
X173361672Y-101784902D01*
X173375571Y-101800941D01*
X173432097Y-101878741D01*
X173432097Y-101878742D01*
X173593757Y-102040402D01*
X173778723Y-102174788D01*
X173982429Y-102278582D01*
X174199871Y-102349234D01*
X174290000Y-102363509D01*
X174290000Y-101375747D01*
X174327708Y-101397518D01*
X174467591Y-101435000D01*
X174612409Y-101435000D01*
X174752292Y-101397518D01*
X174790000Y-101375747D01*
X174790000Y-102363508D01*
X174880128Y-102349234D01*
X175097570Y-102278582D01*
X175301276Y-102174788D01*
X175477342Y-102046869D01*
X175543149Y-102023389D01*
X175611203Y-102039214D01*
X175659898Y-102089320D01*
X175666409Y-102103852D01*
X175676611Y-102131204D01*
X175764239Y-102248261D01*
X175881296Y-102335889D01*
X176018299Y-102386989D01*
X176045550Y-102389918D01*
X176078845Y-102393499D01*
X176078862Y-102393500D01*
X178081138Y-102393500D01*
X178081154Y-102393499D01*
X178108192Y-102390591D01*
X178141701Y-102386989D01*
X178278704Y-102335889D01*
X178395761Y-102248261D01*
X178483389Y-102131204D01*
X178534489Y-101994201D01*
X178540173Y-101941334D01*
X178540999Y-101933654D01*
X178541000Y-101933637D01*
X178541000Y-99836362D01*
X178540999Y-99836345D01*
X178537657Y-99805270D01*
X178534489Y-99775799D01*
X178523559Y-99746496D01*
X178511759Y-99714858D01*
X178483389Y-99638796D01*
X178395761Y-99521739D01*
X178278704Y-99434111D01*
X178244869Y-99421491D01*
X178141703Y-99383011D01*
X178081154Y-99376500D01*
X178081138Y-99376500D01*
X176078862Y-99376500D01*
X176078845Y-99376500D01*
X176018297Y-99383011D01*
X176018295Y-99383011D01*
X175881295Y-99434111D01*
X175764239Y-99521739D01*
X175676611Y-99638794D01*
X175666409Y-99666148D01*
X175624536Y-99722081D01*
X175559071Y-99746496D01*
X175490799Y-99731643D01*
X175477343Y-99723130D01*
X175301279Y-99595213D01*
X175097568Y-99491417D01*
X174880124Y-99420765D01*
X174790000Y-99406490D01*
X174790000Y-100394252D01*
X174752292Y-100372482D01*
X174612409Y-100335000D01*
X174467591Y-100335000D01*
X174327708Y-100372482D01*
X174290000Y-100394252D01*
X174290000Y-99406490D01*
X174289999Y-99406490D01*
X174199875Y-99420765D01*
X173982431Y-99491417D01*
X173778723Y-99595211D01*
X173593757Y-99729597D01*
X173432097Y-99891257D01*
X173432090Y-99891266D01*
X173375570Y-99969058D01*
X173320240Y-100011724D01*
X173250627Y-100017702D01*
X173188832Y-99985096D01*
X173174935Y-99969057D01*
X173166365Y-99957262D01*
X173114389Y-99885722D01*
X172951778Y-99723111D01*
X172765731Y-99587940D01*
X172727578Y-99568500D01*
X172560833Y-99483539D01*
X172342118Y-99412473D01*
X172114988Y-99376500D01*
X172114983Y-99376500D01*
X171885017Y-99376500D01*
X171885012Y-99376500D01*
X171657881Y-99412473D01*
X171439166Y-99483539D01*
X171234268Y-99587940D01*
X171048219Y-99723113D01*
X170885613Y-99885719D01*
X170762343Y-100055386D01*
X170707013Y-100098051D01*
X170662025Y-100106500D01*
X168124072Y-100106500D01*
X168057033Y-100086815D01*
X168011278Y-100034011D01*
X168001334Y-99964853D01*
X168030359Y-99901297D01*
X168036059Y-99895174D01*
X168036197Y-99895013D01*
X168036206Y-99895004D01*
X168161894Y-99722009D01*
X168258972Y-99531483D01*
X168325049Y-99328116D01*
X168358500Y-99116916D01*
X168358500Y-98903084D01*
X168325049Y-98691884D01*
X168266211Y-98510797D01*
X168258973Y-98488519D01*
X168258972Y-98488516D01*
X168170634Y-98315144D01*
X168161894Y-98297991D01*
X168036206Y-98124996D01*
X167931028Y-98019818D01*
X167897543Y-97958495D01*
X167902527Y-97888803D01*
X167944399Y-97832870D01*
X167975367Y-97815959D01*
X168096204Y-97770889D01*
X168213261Y-97683261D01*
X168300889Y-97566204D01*
X168351989Y-97429201D01*
X168355591Y-97395692D01*
X168358499Y-97368654D01*
X168358500Y-97368637D01*
X168358500Y-95571362D01*
X168358499Y-95571345D01*
X168355157Y-95540270D01*
X168351989Y-95510799D01*
X168300889Y-95373796D01*
X168213261Y-95256739D01*
X168096204Y-95169111D01*
X168096202Y-95169110D01*
X168096204Y-95169110D01*
X167975375Y-95124043D01*
X167919441Y-95082172D01*
X167895025Y-95016707D01*
X167909877Y-94948434D01*
X167931022Y-94920187D01*
X168036206Y-94815004D01*
X168161894Y-94642009D01*
X168258972Y-94451483D01*
X168325049Y-94248116D01*
X168358500Y-94036916D01*
X168358500Y-93823084D01*
X168325049Y-93611884D01*
X168279925Y-93473004D01*
X168258973Y-93408519D01*
X168258972Y-93408516D01*
X168166978Y-93227969D01*
X168161894Y-93217991D01*
X168036206Y-93044996D01*
X167885004Y-92893794D01*
X167712009Y-92768106D01*
X167706637Y-92765369D01*
X167521483Y-92671027D01*
X167521480Y-92671026D01*
X167318117Y-92604951D01*
X167212516Y-92588225D01*
X167106916Y-92571500D01*
X166893084Y-92571500D01*
X166822684Y-92582650D01*
X166681882Y-92604951D01*
X166478519Y-92671026D01*
X166478516Y-92671027D01*
X166287990Y-92768106D01*
X166114993Y-92893796D01*
X165963796Y-93044993D01*
X165838106Y-93217990D01*
X165741027Y-93408516D01*
X165741026Y-93408519D01*
X165674951Y-93611882D01*
X165661210Y-93698638D01*
X165641500Y-93823084D01*
X165641500Y-94036916D01*
X165651632Y-94100888D01*
X165674951Y-94248117D01*
X165741026Y-94451480D01*
X165741027Y-94451483D01*
X165784278Y-94536366D01*
X165838106Y-94642009D01*
X165963794Y-94815004D01*
X165963796Y-94815006D01*
X166068971Y-94920181D01*
X166102456Y-94981504D01*
X166097472Y-95051196D01*
X166055600Y-95107129D01*
X166024625Y-95124043D01*
X165903795Y-95169111D01*
X165786739Y-95256739D01*
X165699111Y-95373795D01*
X165648011Y-95510795D01*
X165648011Y-95510797D01*
X165641500Y-95571345D01*
X165641500Y-97368654D01*
X165648011Y-97429202D01*
X165648011Y-97429204D01*
X165668678Y-97484612D01*
X165699111Y-97566204D01*
X165786739Y-97683261D01*
X165855853Y-97734999D01*
X165894828Y-97764176D01*
X165903796Y-97770889D01*
X166024626Y-97815956D01*
X166080557Y-97857827D01*
X166104974Y-97923291D01*
X166090122Y-97991564D01*
X166068972Y-98019818D01*
X165963793Y-98124997D01*
X165838106Y-98297990D01*
X165741027Y-98488516D01*
X165741026Y-98488519D01*
X165674951Y-98691882D01*
X165660334Y-98784169D01*
X165641500Y-98903084D01*
X165641500Y-99116916D01*
X165656531Y-99211815D01*
X165674951Y-99328117D01*
X165741026Y-99531480D01*
X165741027Y-99531483D01*
X165817196Y-99680971D01*
X165838106Y-99722009D01*
X165963794Y-99895004D01*
X165963796Y-99895006D01*
X165966958Y-99898708D01*
X165966122Y-99899421D01*
X165997094Y-99956142D01*
X165992110Y-100025834D01*
X165950238Y-100081767D01*
X165884774Y-100106184D01*
X165875928Y-100106500D01*
X150225187Y-100106500D01*
X150158148Y-100086815D01*
X150137506Y-100070181D01*
X150128040Y-100060715D01*
X150128036Y-100060712D01*
X149982109Y-99970702D01*
X149982103Y-99970699D01*
X149982101Y-99970698D01*
X149819336Y-99916764D01*
X149718879Y-99906500D01*
X149718872Y-99906500D01*
X149121128Y-99906500D01*
X149121120Y-99906500D01*
X149020663Y-99916764D01*
X148857901Y-99970697D01*
X148857890Y-99970702D01*
X148711963Y-100060712D01*
X148711959Y-100060715D01*
X148702494Y-100070181D01*
X148641171Y-100103666D01*
X148614813Y-100106500D01*
X147681197Y-100106500D01*
X147633744Y-100097061D01*
X147610831Y-100087570D01*
X147610823Y-100087568D01*
X147454634Y-100056500D01*
X147454630Y-100056500D01*
X147295370Y-100056500D01*
X147295369Y-100056500D01*
X147282213Y-100059117D01*
X147269895Y-100058014D01*
X147258021Y-100061500D01*
X146868171Y-100061500D01*
X146824838Y-100053682D01*
X146729198Y-100018010D01*
X146729199Y-100018010D01*
X146668654Y-100011500D01*
X146668638Y-100011500D01*
X145371362Y-100011500D01*
X145371345Y-100011500D01*
X145310797Y-100018011D01*
X145310795Y-100018011D01*
X145173795Y-100069111D01*
X145138856Y-100095267D01*
X145073392Y-100119684D01*
X145064545Y-100120000D01*
X144920000Y-100120000D01*
X144920000Y-100217844D01*
X144926401Y-100277372D01*
X144926403Y-100277382D01*
X144930926Y-100289508D01*
X144932507Y-100311628D01*
X144938743Y-100332913D01*
X144935365Y-100351604D01*
X144935908Y-100359200D01*
X144933044Y-100364442D01*
X144930926Y-100376168D01*
X144918012Y-100410792D01*
X144918010Y-100410802D01*
X144911500Y-100471345D01*
X144911500Y-100804457D01*
X144902855Y-100833897D01*
X144896332Y-100863884D01*
X144892577Y-100868899D01*
X144891815Y-100871496D01*
X144875181Y-100892138D01*
X144840181Y-100927138D01*
X144778858Y-100960623D01*
X144709166Y-100955639D01*
X144653233Y-100913767D01*
X144628816Y-100848303D01*
X144628500Y-100839457D01*
X144628500Y-100471362D01*
X144628499Y-100471345D01*
X144621989Y-100410802D01*
X144621989Y-100410799D01*
X144613609Y-100388334D01*
X144612026Y-100366212D01*
X144605790Y-100344925D01*
X144609581Y-100332041D01*
X144608623Y-100318647D01*
X144613604Y-100301678D01*
X144621989Y-100279201D01*
X144624423Y-100256560D01*
X144628499Y-100218654D01*
X144628500Y-100218637D01*
X144628500Y-99521362D01*
X144628499Y-99521341D01*
X144621989Y-99460802D01*
X144621989Y-99460799D01*
X144613609Y-99438334D01*
X144613286Y-99433819D01*
X144610834Y-99430008D01*
X144610815Y-99399280D01*
X144608623Y-99368647D01*
X144610793Y-99364671D01*
X144610791Y-99360139D01*
X144613598Y-99351696D01*
X144621989Y-99329201D01*
X144624499Y-99305850D01*
X144628499Y-99268654D01*
X144628500Y-99268637D01*
X144628500Y-98571362D01*
X144628499Y-98571345D01*
X144625157Y-98540270D01*
X144621989Y-98510799D01*
X144619681Y-98504612D01*
X144577679Y-98392001D01*
X144570889Y-98373796D01*
X144483261Y-98256739D01*
X144483259Y-98256737D01*
X144483258Y-98256736D01*
X144378189Y-98178081D01*
X144336318Y-98122147D01*
X144328500Y-98078815D01*
X144328500Y-97920369D01*
X144328499Y-97920365D01*
X144321542Y-97885389D01*
X144297430Y-97764169D01*
X144236483Y-97617032D01*
X144228993Y-97605823D01*
X144148004Y-97484612D01*
X144147998Y-97484605D01*
X144035394Y-97372001D01*
X144035387Y-97371995D01*
X143902969Y-97283517D01*
X143755831Y-97222570D01*
X143755823Y-97222568D01*
X143599634Y-97191500D01*
X143599630Y-97191500D01*
X143440370Y-97191500D01*
X143440365Y-97191500D01*
X143284176Y-97222568D01*
X143284168Y-97222570D01*
X143137030Y-97283517D01*
X143004612Y-97371995D01*
X143004605Y-97372001D01*
X142892001Y-97484605D01*
X142891995Y-97484612D01*
X142803517Y-97617030D01*
X142742570Y-97764168D01*
X142742568Y-97764176D01*
X142711500Y-97920365D01*
X142711500Y-98078815D01*
X142691815Y-98145854D01*
X142661811Y-98178081D01*
X142556741Y-98256736D01*
X142469111Y-98373795D01*
X142418011Y-98510795D01*
X142418011Y-98510797D01*
X142411500Y-98571345D01*
X142411500Y-99107500D01*
X142408949Y-99116185D01*
X142410238Y-99125147D01*
X142399259Y-99149187D01*
X142391815Y-99174539D01*
X142384974Y-99180466D01*
X142381213Y-99188703D01*
X142358978Y-99202992D01*
X142339011Y-99220294D01*
X142328496Y-99222581D01*
X142322435Y-99226477D01*
X142287500Y-99231500D01*
X142282395Y-99231500D01*
X142215356Y-99211815D01*
X142213504Y-99210602D01*
X142172973Y-99183520D01*
X142172964Y-99183515D01*
X142025831Y-99122570D01*
X142025823Y-99122568D01*
X141869634Y-99091500D01*
X141869630Y-99091500D01*
X141710370Y-99091500D01*
X141710365Y-99091500D01*
X141554176Y-99122568D01*
X141554168Y-99122570D01*
X141446452Y-99167188D01*
X141376982Y-99174657D01*
X141314503Y-99143382D01*
X141278851Y-99083293D01*
X141274999Y-99052627D01*
X141274999Y-98981692D01*
X141274998Y-98981677D01*
X141264855Y-98882392D01*
X141211547Y-98721518D01*
X141211542Y-98721507D01*
X141122575Y-98577271D01*
X141122572Y-98577267D01*
X141002732Y-98457427D01*
X141002728Y-98457424D01*
X140858492Y-98368457D01*
X140858481Y-98368452D01*
X140697606Y-98315144D01*
X140598322Y-98305000D01*
X140550000Y-98305000D01*
X140550000Y-99131000D01*
X140530315Y-99198039D01*
X140477511Y-99243794D01*
X140426000Y-99255000D01*
X140300000Y-99255000D01*
X140300000Y-99381000D01*
X140280315Y-99448039D01*
X140227511Y-99493794D01*
X140176000Y-99505000D01*
X139325001Y-99505000D01*
X139325001Y-99528322D01*
X139335144Y-99627607D01*
X139371215Y-99736462D01*
X139373617Y-99806290D01*
X139337885Y-99866332D01*
X139275365Y-99897525D01*
X139205905Y-99889964D01*
X139165828Y-99863147D01*
X138284358Y-98981677D01*
X139325000Y-98981677D01*
X139325000Y-99005000D01*
X140050000Y-99005000D01*
X140050000Y-98305000D01*
X140049999Y-98304999D01*
X140001693Y-98305000D01*
X140001675Y-98305001D01*
X139902392Y-98315144D01*
X139741518Y-98368452D01*
X139741507Y-98368457D01*
X139597271Y-98457424D01*
X139597267Y-98457427D01*
X139477427Y-98577267D01*
X139477424Y-98577271D01*
X139388457Y-98721507D01*
X139388452Y-98721518D01*
X139335144Y-98882393D01*
X139325000Y-98981677D01*
X138284358Y-98981677D01*
X137559819Y-98257138D01*
X137545115Y-98230210D01*
X137528523Y-98204392D01*
X137527631Y-98198191D01*
X137526334Y-98195815D01*
X137523500Y-98169457D01*
X137523500Y-97990542D01*
X137543185Y-97923503D01*
X137559814Y-97902866D01*
X138404357Y-97058322D01*
X139325001Y-97058322D01*
X139335144Y-97157607D01*
X139388452Y-97318481D01*
X139388457Y-97318492D01*
X139477424Y-97462728D01*
X139477427Y-97462732D01*
X139597267Y-97582572D01*
X139597271Y-97582575D01*
X139741507Y-97671542D01*
X139741518Y-97671547D01*
X139902393Y-97724855D01*
X140001683Y-97734999D01*
X140550000Y-97734999D01*
X140598308Y-97734999D01*
X140598322Y-97734998D01*
X140697607Y-97724855D01*
X140858481Y-97671547D01*
X140858492Y-97671542D01*
X141002728Y-97582575D01*
X141002732Y-97582572D01*
X141122572Y-97462732D01*
X141122575Y-97462728D01*
X141211542Y-97318492D01*
X141211547Y-97318481D01*
X141264855Y-97157606D01*
X141273977Y-97068322D01*
X148495001Y-97068322D01*
X148505144Y-97167607D01*
X148558452Y-97328481D01*
X148558457Y-97328492D01*
X148647424Y-97472728D01*
X148647427Y-97472732D01*
X148767267Y-97592572D01*
X148767271Y-97592575D01*
X148911507Y-97681542D01*
X148911518Y-97681547D01*
X149072393Y-97734855D01*
X149171683Y-97744999D01*
X149720000Y-97744999D01*
X149768308Y-97744999D01*
X149768322Y-97744998D01*
X149867607Y-97734855D01*
X150028481Y-97681547D01*
X150028492Y-97681542D01*
X150172728Y-97592575D01*
X150172732Y-97592572D01*
X150292572Y-97472732D01*
X150292575Y-97472728D01*
X150381542Y-97328492D01*
X150381547Y-97328481D01*
X150434855Y-97167606D01*
X150444999Y-97068322D01*
X150445000Y-97068309D01*
X150445000Y-97045000D01*
X149720000Y-97045000D01*
X149720000Y-97744999D01*
X149171683Y-97744999D01*
X149219999Y-97744998D01*
X149220000Y-97744998D01*
X149220000Y-97045000D01*
X148495001Y-97045000D01*
X148495001Y-97068322D01*
X141273977Y-97068322D01*
X141274999Y-97058322D01*
X141275000Y-97058309D01*
X141275000Y-97035000D01*
X140550000Y-97035000D01*
X140550000Y-97734999D01*
X140001683Y-97734999D01*
X140049999Y-97734998D01*
X140050000Y-97734998D01*
X140050000Y-97035000D01*
X139325001Y-97035000D01*
X139325001Y-97058322D01*
X138404357Y-97058322D01*
X139121095Y-96341584D01*
X139182416Y-96308101D01*
X139252108Y-96313085D01*
X139308041Y-96354957D01*
X139332458Y-96420421D01*
X139332132Y-96441869D01*
X139325000Y-96511675D01*
X139325000Y-96535000D01*
X141274999Y-96535000D01*
X141274999Y-96511692D01*
X141274998Y-96511677D01*
X141264855Y-96412392D01*
X141211547Y-96251518D01*
X141211542Y-96251507D01*
X141159785Y-96167597D01*
X141141344Y-96100205D01*
X141162266Y-96033542D01*
X141215908Y-95988772D01*
X141265323Y-95978500D01*
X142602616Y-95978500D01*
X142665783Y-95997048D01*
X142666008Y-95996637D01*
X142667898Y-95997669D01*
X142669655Y-95998185D01*
X142672645Y-96000261D01*
X142673793Y-96000888D01*
X142776739Y-96039285D01*
X142810799Y-96051989D01*
X142838050Y-96054918D01*
X142871345Y-96058499D01*
X142871362Y-96058500D01*
X144168638Y-96058500D01*
X144168654Y-96058499D01*
X144195692Y-96055591D01*
X144229201Y-96051989D01*
X144366204Y-96000889D01*
X144483261Y-95913261D01*
X144570889Y-95796204D01*
X144621989Y-95659201D01*
X144626275Y-95619336D01*
X144628499Y-95598654D01*
X144628500Y-95598637D01*
X144628500Y-94901362D01*
X144628499Y-94901345D01*
X144911500Y-94901345D01*
X144911500Y-95598654D01*
X144918011Y-95659202D01*
X144918011Y-95659204D01*
X144963850Y-95782098D01*
X144969111Y-95796204D01*
X145056739Y-95913261D01*
X145173796Y-96000889D01*
X145310799Y-96051989D01*
X145338050Y-96054918D01*
X145371345Y-96058499D01*
X145371362Y-96058500D01*
X146668638Y-96058500D01*
X146668654Y-96058499D01*
X146715277Y-96053485D01*
X146729201Y-96051989D01*
X146802889Y-96024504D01*
X146824838Y-96016318D01*
X146830467Y-96015302D01*
X146833236Y-96013523D01*
X146868171Y-96008500D01*
X147043803Y-96008500D01*
X147091256Y-96017939D01*
X147114169Y-96027430D01*
X147239542Y-96052368D01*
X147270365Y-96058499D01*
X147270369Y-96058500D01*
X147270370Y-96058500D01*
X147429631Y-96058500D01*
X147429632Y-96058499D01*
X147585831Y-96027430D01*
X147608744Y-96017939D01*
X147656197Y-96008500D01*
X148492341Y-96008500D01*
X148559380Y-96028185D01*
X148605135Y-96080989D01*
X148615079Y-96150147D01*
X148597879Y-96197598D01*
X148558455Y-96261511D01*
X148558452Y-96261518D01*
X148505144Y-96422393D01*
X148495000Y-96521677D01*
X148495000Y-96545000D01*
X150444999Y-96545000D01*
X150444999Y-96521692D01*
X150444998Y-96521677D01*
X150434855Y-96422392D01*
X150381547Y-96261518D01*
X150381542Y-96261507D01*
X150292575Y-96117271D01*
X150292572Y-96117267D01*
X150288996Y-96113691D01*
X150255511Y-96052368D01*
X150260495Y-95982676D01*
X150288996Y-95938329D01*
X150299285Y-95928040D01*
X150389302Y-95782101D01*
X150443236Y-95619336D01*
X150453500Y-95518872D01*
X150453500Y-94971128D01*
X150443236Y-94870664D01*
X150389302Y-94707899D01*
X150389299Y-94707894D01*
X150389297Y-94707890D01*
X150299287Y-94561963D01*
X150299284Y-94561959D01*
X150178040Y-94440715D01*
X150178036Y-94440712D01*
X150032109Y-94350702D01*
X150032103Y-94350699D01*
X150032101Y-94350698D01*
X149869336Y-94296764D01*
X149768879Y-94286500D01*
X149768872Y-94286500D01*
X149171128Y-94286500D01*
X149171120Y-94286500D01*
X149070663Y-94296764D01*
X148907901Y-94350697D01*
X148907890Y-94350702D01*
X148761963Y-94440712D01*
X148761959Y-94440715D01*
X148747494Y-94455181D01*
X148686171Y-94488666D01*
X148659813Y-94491500D01*
X147656197Y-94491500D01*
X147608744Y-94482061D01*
X147585831Y-94472570D01*
X147585823Y-94472568D01*
X147429634Y-94441500D01*
X147429630Y-94441500D01*
X147270370Y-94441500D01*
X147270365Y-94441500D01*
X147114176Y-94472568D01*
X147114168Y-94472570D01*
X147091256Y-94482061D01*
X147083078Y-94483687D01*
X147078738Y-94486477D01*
X147043803Y-94491500D01*
X146868171Y-94491500D01*
X146824838Y-94483682D01*
X146748424Y-94455181D01*
X146729201Y-94448011D01*
X146729200Y-94448010D01*
X146729199Y-94448010D01*
X146668654Y-94441500D01*
X146668638Y-94441500D01*
X145371362Y-94441500D01*
X145371345Y-94441500D01*
X145310797Y-94448011D01*
X145310795Y-94448011D01*
X145173795Y-94499111D01*
X145138856Y-94525267D01*
X145073392Y-94549684D01*
X145064545Y-94550000D01*
X144920000Y-94550000D01*
X144920000Y-94647844D01*
X144926401Y-94707372D01*
X144926403Y-94707382D01*
X144930926Y-94719508D01*
X144932507Y-94741628D01*
X144938743Y-94762913D01*
X144935365Y-94781604D01*
X144935908Y-94789200D01*
X144933044Y-94794442D01*
X144930926Y-94806168D01*
X144918012Y-94840792D01*
X144918010Y-94840802D01*
X144911500Y-94901345D01*
X144628499Y-94901345D01*
X144621989Y-94840802D01*
X144621989Y-94840799D01*
X144613609Y-94818334D01*
X144612026Y-94796212D01*
X144605790Y-94774925D01*
X144609581Y-94762041D01*
X144608623Y-94748647D01*
X144613604Y-94731678D01*
X144621989Y-94709201D01*
X144624423Y-94686560D01*
X144628499Y-94648654D01*
X144628500Y-94648637D01*
X144628500Y-93951362D01*
X144628499Y-93951345D01*
X144621989Y-93890802D01*
X144621989Y-93890799D01*
X144613609Y-93868334D01*
X144613286Y-93863819D01*
X144610834Y-93860008D01*
X144610815Y-93829280D01*
X144608623Y-93798647D01*
X144610793Y-93794671D01*
X144610791Y-93790139D01*
X144613598Y-93781696D01*
X144621989Y-93759201D01*
X144625347Y-93727968D01*
X144628499Y-93698654D01*
X144628500Y-93698637D01*
X144628500Y-93001362D01*
X144628499Y-93001345D01*
X144624981Y-92968634D01*
X144621989Y-92940799D01*
X144616491Y-92926059D01*
X144593180Y-92863559D01*
X144570889Y-92803796D01*
X144483261Y-92686739D01*
X144366204Y-92599111D01*
X144366201Y-92599110D01*
X144229203Y-92548011D01*
X144168654Y-92541500D01*
X144168638Y-92541500D01*
X142871362Y-92541500D01*
X142871345Y-92541500D01*
X142810797Y-92548011D01*
X142810795Y-92548011D01*
X142684333Y-92595181D01*
X142673796Y-92599111D01*
X142663567Y-92606767D01*
X142598106Y-92631184D01*
X142589259Y-92631500D01*
X137704121Y-92631500D01*
X137637082Y-92611815D01*
X137616440Y-92595181D01*
X134171441Y-89150181D01*
X134137956Y-89088858D01*
X134142940Y-89019166D01*
X134184812Y-88963233D01*
X134250276Y-88938816D01*
X134259122Y-88938500D01*
X134316915Y-88938500D01*
X134316916Y-88938500D01*
X134528116Y-88905049D01*
X134731483Y-88838972D01*
X134922009Y-88741894D01*
X135095004Y-88616206D01*
X135206791Y-88504418D01*
X135268110Y-88470936D01*
X135337802Y-88475920D01*
X135393736Y-88517791D01*
X135410651Y-88548769D01*
X135456645Y-88672086D01*
X135456649Y-88672093D01*
X135542809Y-88787187D01*
X135542812Y-88787190D01*
X135657906Y-88873350D01*
X135657913Y-88873354D01*
X135792620Y-88923596D01*
X135792627Y-88923598D01*
X135852155Y-88929999D01*
X135852172Y-88930000D01*
X136500000Y-88930000D01*
X136500000Y-88024560D01*
X136553147Y-88055245D01*
X136682857Y-88090000D01*
X136817143Y-88090000D01*
X136946853Y-88055245D01*
X137000000Y-88024560D01*
X137000000Y-88930000D01*
X137647828Y-88930000D01*
X137647844Y-88929999D01*
X137715087Y-88922769D01*
X137715430Y-88925964D01*
X137770467Y-88928908D01*
X137816908Y-88958168D01*
X138495181Y-89636440D01*
X138528666Y-89697763D01*
X138531500Y-89724121D01*
X138531500Y-90772324D01*
X138511815Y-90839363D01*
X138495181Y-90860005D01*
X138484324Y-90870861D01*
X138484321Y-90870865D01*
X138384901Y-91019657D01*
X138384896Y-91019667D01*
X138316413Y-91184999D01*
X138316411Y-91185007D01*
X138281500Y-91360516D01*
X138281500Y-91539483D01*
X138316411Y-91714992D01*
X138316413Y-91715000D01*
X138384896Y-91880332D01*
X138384901Y-91880342D01*
X138484321Y-92029134D01*
X138484324Y-92029138D01*
X138610861Y-92155675D01*
X138610865Y-92155678D01*
X138759657Y-92255098D01*
X138759661Y-92255100D01*
X138759664Y-92255102D01*
X138925000Y-92323587D01*
X139100516Y-92358499D01*
X139100520Y-92358500D01*
X139100521Y-92358500D01*
X139279480Y-92358500D01*
X139279481Y-92358499D01*
X139455000Y-92323587D01*
X139620336Y-92255102D01*
X139769135Y-92155678D01*
X139895678Y-92029135D01*
X139995102Y-91880336D01*
X140063587Y-91715000D01*
X140098500Y-91539479D01*
X140098500Y-91360521D01*
X140063587Y-91185000D01*
X139995102Y-91019664D01*
X139995100Y-91019661D01*
X139995098Y-91019657D01*
X139895678Y-90870865D01*
X139895675Y-90870861D01*
X139884819Y-90860005D01*
X139851334Y-90798682D01*
X139848500Y-90772324D01*
X139848500Y-89335140D01*
X139823195Y-89207928D01*
X139823194Y-89207927D01*
X139823194Y-89207923D01*
X139773555Y-89088083D01*
X139773553Y-89088080D01*
X139734568Y-89029734D01*
X139713690Y-88963057D01*
X139732175Y-88895677D01*
X139784154Y-88848987D01*
X139799350Y-88842913D01*
X139811483Y-88838972D01*
X140002009Y-88741894D01*
X140175004Y-88616206D01*
X140326206Y-88465004D01*
X140451894Y-88292009D01*
X140451896Y-88292004D01*
X140454270Y-88288132D01*
X140506080Y-88241254D01*
X140575009Y-88229829D01*
X140639173Y-88257483D01*
X140665730Y-88288132D01*
X140668103Y-88292005D01*
X140681800Y-88310857D01*
X140793794Y-88465004D01*
X140944996Y-88616206D01*
X141117991Y-88741894D01*
X141171500Y-88769158D01*
X141308516Y-88838972D01*
X141308519Y-88838973D01*
X141339340Y-88848987D01*
X141511884Y-88905049D01*
X141723084Y-88938500D01*
X141723085Y-88938500D01*
X141936915Y-88938500D01*
X141936916Y-88938500D01*
X142148116Y-88905049D01*
X142351483Y-88838972D01*
X142542009Y-88741894D01*
X142715004Y-88616206D01*
X142866206Y-88465004D01*
X142991894Y-88292009D01*
X142991896Y-88292004D01*
X142994270Y-88288132D01*
X143046080Y-88241254D01*
X143115009Y-88229829D01*
X143179173Y-88257483D01*
X143205730Y-88288132D01*
X143208103Y-88292005D01*
X143221800Y-88310857D01*
X143333794Y-88465004D01*
X143484996Y-88616206D01*
X143657991Y-88741894D01*
X143711500Y-88769158D01*
X143848516Y-88838972D01*
X143848519Y-88838973D01*
X143879340Y-88848987D01*
X144051884Y-88905049D01*
X144263084Y-88938500D01*
X144263085Y-88938500D01*
X144476915Y-88938500D01*
X144476916Y-88938500D01*
X144688116Y-88905049D01*
X144777338Y-88876059D01*
X144819182Y-88862464D01*
X144889024Y-88860469D01*
X144948856Y-88896550D01*
X144979684Y-88959251D01*
X144981500Y-88980395D01*
X144981500Y-89982638D01*
X144961815Y-90049677D01*
X144960603Y-90051528D01*
X144923516Y-90107033D01*
X144862570Y-90254168D01*
X144862568Y-90254176D01*
X144831500Y-90410365D01*
X144831500Y-90569634D01*
X144862568Y-90725823D01*
X144862570Y-90725831D01*
X144923517Y-90872969D01*
X145011995Y-91005387D01*
X145012001Y-91005394D01*
X145124605Y-91117998D01*
X145124612Y-91118004D01*
X145257030Y-91206482D01*
X145257031Y-91206482D01*
X145257032Y-91206483D01*
X145404169Y-91267430D01*
X145560365Y-91298499D01*
X145560369Y-91298500D01*
X145560370Y-91298500D01*
X145719631Y-91298500D01*
X145719632Y-91298499D01*
X145875831Y-91267430D01*
X146022968Y-91206483D01*
X146155389Y-91118003D01*
X146268003Y-91005389D01*
X146356483Y-90872968D01*
X146417430Y-90725831D01*
X146448500Y-90569630D01*
X146448500Y-90410370D01*
X146421326Y-90273756D01*
X146427553Y-90204166D01*
X146470416Y-90148989D01*
X146536306Y-90125744D01*
X146604303Y-90141812D01*
X146630624Y-90161885D01*
X148640227Y-92171488D01*
X148640231Y-92171491D01*
X148708336Y-92216997D01*
X148748083Y-92243555D01*
X148748084Y-92243555D01*
X148748085Y-92243556D01*
X148847375Y-92284683D01*
X148867923Y-92293194D01*
X148867927Y-92293194D01*
X148867928Y-92293195D01*
X148995140Y-92318500D01*
X148995143Y-92318500D01*
X159062335Y-92318500D01*
X159129374Y-92338185D01*
X159175129Y-92390989D01*
X159185073Y-92460147D01*
X159156048Y-92523703D01*
X159097270Y-92561477D01*
X159086526Y-92564117D01*
X159069176Y-92567568D01*
X159069168Y-92567570D01*
X158922033Y-92628516D01*
X158859045Y-92670603D01*
X158792367Y-92691480D01*
X158790155Y-92691500D01*
X147030892Y-92691500D01*
X146963853Y-92671815D01*
X146956589Y-92666772D01*
X146866204Y-92599111D01*
X146866201Y-92599110D01*
X146729203Y-92548011D01*
X146668654Y-92541500D01*
X146668638Y-92541500D01*
X145371362Y-92541500D01*
X145371345Y-92541500D01*
X145310797Y-92548011D01*
X145310795Y-92548011D01*
X145173795Y-92599111D01*
X145056739Y-92686739D01*
X144969111Y-92803795D01*
X144918011Y-92940795D01*
X144918011Y-92940797D01*
X144911500Y-93001345D01*
X144911500Y-93698654D01*
X144918010Y-93759197D01*
X144918012Y-93759204D01*
X144930926Y-93793828D01*
X144931248Y-93798344D01*
X144933700Y-93802153D01*
X144933718Y-93832881D01*
X144935910Y-93863519D01*
X144933742Y-93870902D01*
X144933743Y-93872022D01*
X144933135Y-93872967D01*
X144930927Y-93880492D01*
X144926401Y-93892625D01*
X144920000Y-93952155D01*
X144920000Y-94050000D01*
X145064545Y-94050000D01*
X145131584Y-94069685D01*
X145138852Y-94074730D01*
X145173796Y-94100889D01*
X145310799Y-94151989D01*
X145338050Y-94154918D01*
X145371345Y-94158499D01*
X145371362Y-94158500D01*
X146668638Y-94158500D01*
X146668654Y-94158499D01*
X146695692Y-94155591D01*
X146729201Y-94151989D01*
X146866204Y-94100889D01*
X146901144Y-94074732D01*
X146966608Y-94050316D01*
X146975455Y-94050000D01*
X147120000Y-94050000D01*
X147125181Y-94044819D01*
X147186504Y-94011334D01*
X147212862Y-94008500D01*
X158805122Y-94008500D01*
X158872161Y-94028185D01*
X158874013Y-94029398D01*
X158922032Y-94061483D01*
X159069169Y-94122430D01*
X159217769Y-94151988D01*
X159225365Y-94153499D01*
X159225369Y-94153500D01*
X159225370Y-94153500D01*
X159384631Y-94153500D01*
X159384632Y-94153499D01*
X159540831Y-94122430D01*
X159687968Y-94061483D01*
X159820389Y-93973003D01*
X159933003Y-93860389D01*
X160021483Y-93727968D01*
X160082430Y-93580831D01*
X160113500Y-93424630D01*
X160113500Y-93265370D01*
X160082430Y-93109169D01*
X160062556Y-93061191D01*
X160055088Y-92991724D01*
X160086362Y-92929245D01*
X160146451Y-92893592D01*
X160216276Y-92896085D01*
X160264799Y-92926059D01*
X160290611Y-92951871D01*
X160324096Y-93013194D01*
X160324547Y-93015361D01*
X160337568Y-93080823D01*
X160337570Y-93080831D01*
X160398517Y-93227969D01*
X160486995Y-93360387D01*
X160487001Y-93360394D01*
X160599605Y-93472998D01*
X160599612Y-93473004D01*
X160732030Y-93561482D01*
X160732031Y-93561482D01*
X160732032Y-93561483D01*
X160879169Y-93622430D01*
X161035365Y-93653499D01*
X161035369Y-93653500D01*
X161035370Y-93653500D01*
X161194631Y-93653500D01*
X161194632Y-93653499D01*
X161350831Y-93622430D01*
X161497968Y-93561483D01*
X161630389Y-93473003D01*
X161743003Y-93360389D01*
X161831483Y-93227968D01*
X161892430Y-93080831D01*
X161923500Y-92924630D01*
X161923500Y-92765370D01*
X161892430Y-92609169D01*
X161831483Y-92462032D01*
X161830223Y-92460147D01*
X161743004Y-92329612D01*
X161742998Y-92329605D01*
X161630394Y-92217001D01*
X161630387Y-92216995D01*
X161497969Y-92128517D01*
X161350831Y-92067570D01*
X161350823Y-92067568D01*
X161285361Y-92054547D01*
X161223450Y-92022163D01*
X161221871Y-92020611D01*
X160349772Y-91148511D01*
X160349771Y-91148510D01*
X160241920Y-91076447D01*
X160241919Y-91076446D01*
X160241917Y-91076445D01*
X160241915Y-91076444D01*
X160241913Y-91076443D01*
X160122077Y-91026806D01*
X160122071Y-91026804D01*
X159994859Y-91001500D01*
X159994857Y-91001500D01*
X149384122Y-91001500D01*
X149317083Y-90981815D01*
X149296441Y-90965181D01*
X147604819Y-89273559D01*
X147571334Y-89212236D01*
X147568500Y-89185878D01*
X147568500Y-88843952D01*
X147588185Y-88776913D01*
X147619614Y-88743634D01*
X147632103Y-88734560D01*
X147795004Y-88616206D01*
X147906791Y-88504418D01*
X147968110Y-88470936D01*
X148037802Y-88475920D01*
X148093736Y-88517791D01*
X148110651Y-88548769D01*
X148156645Y-88672086D01*
X148156649Y-88672093D01*
X148242809Y-88787187D01*
X148242812Y-88787190D01*
X148357906Y-88873350D01*
X148357913Y-88873354D01*
X148492620Y-88923596D01*
X148492627Y-88923598D01*
X148552155Y-88929999D01*
X148552172Y-88930000D01*
X149200000Y-88930000D01*
X149200000Y-88024560D01*
X149253147Y-88055245D01*
X149382857Y-88090000D01*
X149517143Y-88090000D01*
X149646853Y-88055245D01*
X149700000Y-88024560D01*
X149700000Y-88930000D01*
X150347828Y-88930000D01*
X150347844Y-88929999D01*
X150407372Y-88923598D01*
X150407379Y-88923596D01*
X150542086Y-88873354D01*
X150542093Y-88873350D01*
X150657187Y-88787190D01*
X150657190Y-88787187D01*
X150743350Y-88672093D01*
X150743355Y-88672084D01*
X150789348Y-88548770D01*
X150831219Y-88492836D01*
X150896683Y-88468418D01*
X150964956Y-88483269D01*
X150993211Y-88504421D01*
X151104996Y-88616206D01*
X151277991Y-88741894D01*
X151331500Y-88769158D01*
X151468516Y-88838972D01*
X151468519Y-88838973D01*
X151499340Y-88848987D01*
X151671884Y-88905049D01*
X151883084Y-88938500D01*
X151883085Y-88938500D01*
X152096915Y-88938500D01*
X152096916Y-88938500D01*
X152308116Y-88905049D01*
X152511483Y-88838972D01*
X152702009Y-88741894D01*
X152875004Y-88616206D01*
X153026206Y-88465004D01*
X153151894Y-88292009D01*
X153151896Y-88292004D01*
X153154270Y-88288132D01*
X153206080Y-88241254D01*
X153275009Y-88229829D01*
X153339173Y-88257483D01*
X153365730Y-88288132D01*
X153368103Y-88292005D01*
X153381800Y-88310857D01*
X153493794Y-88465004D01*
X153644996Y-88616206D01*
X153817991Y-88741894D01*
X153871500Y-88769158D01*
X154008516Y-88838972D01*
X154008519Y-88838973D01*
X154039340Y-88848987D01*
X154211884Y-88905049D01*
X154423084Y-88938500D01*
X154423085Y-88938500D01*
X154636915Y-88938500D01*
X154636916Y-88938500D01*
X154848116Y-88905049D01*
X155051483Y-88838972D01*
X155242009Y-88741894D01*
X155415004Y-88616206D01*
X155566206Y-88465004D01*
X155691894Y-88292009D01*
X155691896Y-88292004D01*
X155694270Y-88288132D01*
X155746080Y-88241254D01*
X155815009Y-88229829D01*
X155879173Y-88257483D01*
X155905730Y-88288132D01*
X155908103Y-88292005D01*
X155921800Y-88310857D01*
X156033794Y-88465004D01*
X156184996Y-88616206D01*
X156357991Y-88741894D01*
X156411500Y-88769158D01*
X156548516Y-88838972D01*
X156548519Y-88838973D01*
X156579340Y-88848987D01*
X156751884Y-88905049D01*
X156963084Y-88938500D01*
X156963085Y-88938500D01*
X157176915Y-88938500D01*
X157176916Y-88938500D01*
X157388116Y-88905049D01*
X157591483Y-88838972D01*
X157782009Y-88741894D01*
X157955004Y-88616206D01*
X158106206Y-88465004D01*
X158231894Y-88292009D01*
X158231896Y-88292004D01*
X158234270Y-88288132D01*
X158286080Y-88241254D01*
X158355009Y-88229829D01*
X158419173Y-88257483D01*
X158445730Y-88288132D01*
X158448103Y-88292005D01*
X158461800Y-88310857D01*
X158573794Y-88465004D01*
X158724996Y-88616206D01*
X158897991Y-88741894D01*
X158951500Y-88769158D01*
X159088516Y-88838972D01*
X159088519Y-88838973D01*
X159119340Y-88848987D01*
X159291884Y-88905049D01*
X159503084Y-88938500D01*
X159503085Y-88938500D01*
X159716915Y-88938500D01*
X159716916Y-88938500D01*
X159928116Y-88905049D01*
X160131483Y-88838972D01*
X160322009Y-88741894D01*
X160495004Y-88616206D01*
X160606791Y-88504418D01*
X160668110Y-88470936D01*
X160737802Y-88475920D01*
X160793736Y-88517791D01*
X160810651Y-88548769D01*
X160856645Y-88672086D01*
X160856649Y-88672093D01*
X160942809Y-88787187D01*
X160942812Y-88787190D01*
X161057906Y-88873350D01*
X161057913Y-88873354D01*
X161192620Y-88923596D01*
X161192627Y-88923598D01*
X161252155Y-88929999D01*
X161252172Y-88930000D01*
X161900000Y-88930000D01*
X161900000Y-88024560D01*
X161953147Y-88055245D01*
X162082857Y-88090000D01*
X162217143Y-88090000D01*
X162346853Y-88055245D01*
X162400000Y-88024560D01*
X162400000Y-88930000D01*
X162637500Y-88930000D01*
X162704539Y-88949685D01*
X162750294Y-89002489D01*
X162761500Y-89054000D01*
X162761500Y-92775878D01*
X162741815Y-92842917D01*
X162725181Y-92863559D01*
X157373559Y-98215181D01*
X157312236Y-98248666D01*
X157285878Y-98251500D01*
X147017534Y-98251500D01*
X146950495Y-98231815D01*
X146943230Y-98226772D01*
X146866204Y-98169111D01*
X146836329Y-98157968D01*
X146729203Y-98118011D01*
X146668654Y-98111500D01*
X146668638Y-98111500D01*
X145371362Y-98111500D01*
X145371345Y-98111500D01*
X145310797Y-98118011D01*
X145310795Y-98118011D01*
X145173795Y-98169111D01*
X145056739Y-98256739D01*
X144969111Y-98373795D01*
X144918011Y-98510795D01*
X144918011Y-98510797D01*
X144911500Y-98571345D01*
X144911500Y-99268654D01*
X144918010Y-99329197D01*
X144918012Y-99329204D01*
X144930926Y-99363828D01*
X144931248Y-99368344D01*
X144933700Y-99372153D01*
X144933718Y-99402881D01*
X144935910Y-99433519D01*
X144933742Y-99440902D01*
X144933743Y-99442022D01*
X144933135Y-99442967D01*
X144930927Y-99450492D01*
X144926401Y-99462625D01*
X144920000Y-99522155D01*
X144920000Y-99620000D01*
X145064545Y-99620000D01*
X145131584Y-99639685D01*
X145138852Y-99644730D01*
X145173796Y-99670889D01*
X145310799Y-99721989D01*
X145338050Y-99724918D01*
X145371345Y-99728499D01*
X145371362Y-99728500D01*
X146668638Y-99728500D01*
X146668654Y-99728499D01*
X146695692Y-99725591D01*
X146729201Y-99721989D01*
X146866204Y-99670889D01*
X146901144Y-99644732D01*
X146966608Y-99620316D01*
X146975455Y-99620000D01*
X147120000Y-99620000D01*
X147135181Y-99604819D01*
X147147015Y-99598356D01*
X147155850Y-99588167D01*
X147177083Y-99581938D01*
X147196504Y-99571334D01*
X147222862Y-99568500D01*
X157674859Y-99568500D01*
X157760444Y-99551475D01*
X157802077Y-99543194D01*
X157921917Y-99493555D01*
X158029769Y-99421491D01*
X159136116Y-98315144D01*
X160160896Y-97290365D01*
X160781500Y-97290365D01*
X160781500Y-97449634D01*
X160812568Y-97605823D01*
X160812570Y-97605831D01*
X160873517Y-97752969D01*
X160961995Y-97885387D01*
X160962001Y-97885394D01*
X161074605Y-97997998D01*
X161074612Y-97998004D01*
X161207030Y-98086482D01*
X161207031Y-98086482D01*
X161207032Y-98086483D01*
X161354169Y-98147430D01*
X161407155Y-98157969D01*
X161469065Y-98190352D01*
X161470645Y-98191905D01*
X161760227Y-98481488D01*
X161760228Y-98481489D01*
X161760231Y-98481491D01*
X161868023Y-98553515D01*
X161868083Y-98553555D01*
X161987923Y-98603194D01*
X161987927Y-98603194D01*
X161987928Y-98603195D01*
X162115140Y-98628500D01*
X162115143Y-98628500D01*
X163115878Y-98628500D01*
X163182917Y-98648185D01*
X163203559Y-98664819D01*
X163665611Y-99126870D01*
X163699096Y-99188193D01*
X163699534Y-99190296D01*
X163710176Y-99243794D01*
X163712570Y-99255831D01*
X163773517Y-99402969D01*
X163861995Y-99535387D01*
X163862001Y-99535394D01*
X163974605Y-99647998D01*
X163974612Y-99648004D01*
X164107030Y-99736482D01*
X164107031Y-99736482D01*
X164107032Y-99736483D01*
X164254169Y-99797430D01*
X164410365Y-99828499D01*
X164410369Y-99828500D01*
X164410370Y-99828500D01*
X164569631Y-99828500D01*
X164569632Y-99828499D01*
X164725831Y-99797430D01*
X164872968Y-99736483D01*
X165005389Y-99648003D01*
X165118003Y-99535389D01*
X165206483Y-99402968D01*
X165267430Y-99255831D01*
X165298500Y-99099630D01*
X165298500Y-98940370D01*
X165267430Y-98784169D01*
X165206483Y-98637032D01*
X165185343Y-98605394D01*
X165118004Y-98504612D01*
X165117998Y-98504605D01*
X165005394Y-98392001D01*
X165005387Y-98391995D01*
X164872969Y-98303517D01*
X164725831Y-98242570D01*
X164660359Y-98229546D01*
X164598449Y-98197163D01*
X164596870Y-98195611D01*
X163859772Y-97458511D01*
X163859771Y-97458510D01*
X163751920Y-97386447D01*
X163751919Y-97386446D01*
X163751917Y-97386445D01*
X163751915Y-97386444D01*
X163751913Y-97386443D01*
X163632077Y-97336806D01*
X163632071Y-97336804D01*
X163504859Y-97311500D01*
X163504857Y-97311500D01*
X162504467Y-97311500D01*
X162437428Y-97291815D01*
X162391673Y-97239011D01*
X162382850Y-97211691D01*
X162367431Y-97134176D01*
X162367430Y-97134169D01*
X162306483Y-96987032D01*
X162245629Y-96895957D01*
X162218004Y-96854612D01*
X162217998Y-96854605D01*
X162105394Y-96742001D01*
X162105387Y-96741995D01*
X161972969Y-96653517D01*
X161825831Y-96592570D01*
X161825823Y-96592568D01*
X161669634Y-96561500D01*
X161669630Y-96561500D01*
X161510370Y-96561500D01*
X161510365Y-96561500D01*
X161354176Y-96592568D01*
X161354168Y-96592570D01*
X161207030Y-96653517D01*
X161074612Y-96741995D01*
X161074605Y-96742001D01*
X160962001Y-96854605D01*
X160961995Y-96854612D01*
X160873517Y-96987030D01*
X160812570Y-97134168D01*
X160812568Y-97134176D01*
X160781500Y-97290365D01*
X160160896Y-97290365D01*
X160254664Y-97196597D01*
X163931488Y-93519772D01*
X163931489Y-93519771D01*
X163931491Y-93519769D01*
X164003555Y-93411917D01*
X164053194Y-93292077D01*
X164066508Y-93225142D01*
X164078500Y-93164857D01*
X164078500Y-88980395D01*
X164098185Y-88913356D01*
X164150989Y-88867601D01*
X164220147Y-88857657D01*
X164240818Y-88862464D01*
X164301213Y-88882087D01*
X164371884Y-88905049D01*
X164583084Y-88938500D01*
X164583085Y-88938500D01*
X164796915Y-88938500D01*
X164796916Y-88938500D01*
X165008116Y-88905049D01*
X165211483Y-88838972D01*
X165402009Y-88741894D01*
X165575004Y-88616206D01*
X165726206Y-88465004D01*
X165851894Y-88292009D01*
X165851896Y-88292004D01*
X165854270Y-88288132D01*
X165906080Y-88241254D01*
X165975009Y-88229829D01*
X166039173Y-88257483D01*
X166065730Y-88288132D01*
X166068103Y-88292005D01*
X166081800Y-88310857D01*
X166193794Y-88465004D01*
X166193795Y-88465005D01*
X166193796Y-88465006D01*
X166332335Y-88603545D01*
X166365820Y-88664868D01*
X166360836Y-88734560D01*
X166350772Y-88755375D01*
X166274173Y-88882087D01*
X166222986Y-89046354D01*
X166216500Y-89117737D01*
X166216500Y-89632272D01*
X166222985Y-89703645D01*
X166222988Y-89703655D01*
X166274171Y-89867909D01*
X166274172Y-89867911D01*
X166274173Y-89867913D01*
X166317424Y-89939459D01*
X166363186Y-90015158D01*
X166460347Y-90112319D01*
X166493832Y-90173642D01*
X166488848Y-90243334D01*
X166460347Y-90287681D01*
X166363187Y-90384840D01*
X166363186Y-90384841D01*
X166274173Y-90532086D01*
X166222986Y-90696354D01*
X166216500Y-90767737D01*
X166216500Y-91282272D01*
X166222985Y-91353645D01*
X166222988Y-91353655D01*
X166274171Y-91517909D01*
X166274172Y-91517911D01*
X166274173Y-91517913D01*
X166287211Y-91539480D01*
X166363186Y-91665158D01*
X166484841Y-91786813D01*
X166484843Y-91786814D01*
X166484845Y-91786816D01*
X166632087Y-91875827D01*
X166796351Y-91927013D01*
X166867735Y-91933500D01*
X167532264Y-91933499D01*
X167532272Y-91933499D01*
X167603642Y-91927014D01*
X167603643Y-91927013D01*
X167603649Y-91927013D01*
X167635409Y-91917115D01*
X167705265Y-91915962D01*
X167741185Y-91932396D01*
X167867032Y-92016483D01*
X168014169Y-92077430D01*
X168146681Y-92103788D01*
X168170365Y-92108499D01*
X168170369Y-92108500D01*
X168170370Y-92108500D01*
X168329631Y-92108500D01*
X168329632Y-92108499D01*
X168485831Y-92077430D01*
X168632968Y-92016483D01*
X168656609Y-92000686D01*
X168723285Y-91979808D01*
X168790665Y-91998292D01*
X168837356Y-92050270D01*
X168849500Y-92103788D01*
X168849500Y-92284687D01*
X168853924Y-92329605D01*
X168880803Y-92602522D01*
X168943109Y-92915754D01*
X169035820Y-93221382D01*
X169158040Y-93516446D01*
X169158042Y-93516451D01*
X169308584Y-93798094D01*
X169308601Y-93798122D01*
X169486012Y-94063638D01*
X169486029Y-94063661D01*
X169688638Y-94310540D01*
X169914459Y-94536361D01*
X169914464Y-94536365D01*
X169914465Y-94536366D01*
X170161344Y-94738975D01*
X170161351Y-94738980D01*
X170161361Y-94738987D01*
X170426877Y-94916398D01*
X170426882Y-94916401D01*
X170426894Y-94916409D01*
X170426903Y-94916413D01*
X170426905Y-94916415D01*
X170708548Y-95066957D01*
X170708550Y-95066957D01*
X170708556Y-95066961D01*
X171003619Y-95189180D01*
X171309240Y-95281889D01*
X171622477Y-95344196D01*
X171940313Y-95375500D01*
X171940316Y-95375500D01*
X172259684Y-95375500D01*
X172259687Y-95375500D01*
X172577523Y-95344196D01*
X172890760Y-95281889D01*
X173196381Y-95189180D01*
X173491444Y-95066961D01*
X173773106Y-94916409D01*
X174038656Y-94738975D01*
X174285535Y-94536366D01*
X174511366Y-94310535D01*
X174713975Y-94063656D01*
X174891409Y-93798106D01*
X175041961Y-93516444D01*
X175164180Y-93221381D01*
X175256889Y-92915760D01*
X175319196Y-92602523D01*
X175350500Y-92284687D01*
X175350500Y-91965313D01*
X175319196Y-91647477D01*
X175256889Y-91334240D01*
X175164180Y-91028619D01*
X175041961Y-90733556D01*
X175022074Y-90696351D01*
X174891415Y-90451905D01*
X174891413Y-90451903D01*
X174891409Y-90451894D01*
X174863663Y-90410369D01*
X174713987Y-90186361D01*
X174713980Y-90186351D01*
X174713975Y-90186344D01*
X174511366Y-89939465D01*
X174511365Y-89939464D01*
X174511361Y-89939459D01*
X174285540Y-89713638D01*
X174038661Y-89511029D01*
X174038638Y-89511012D01*
X173773122Y-89333601D01*
X173773094Y-89333584D01*
X173491451Y-89183042D01*
X173491446Y-89183040D01*
X173196382Y-89060820D01*
X172890754Y-88968109D01*
X172577521Y-88905803D01*
X172577522Y-88905803D01*
X172336719Y-88882087D01*
X172259687Y-88874500D01*
X171940313Y-88874500D01*
X171867822Y-88881639D01*
X171622477Y-88905803D01*
X171309245Y-88968109D01*
X171003617Y-89060820D01*
X170708553Y-89183040D01*
X170708548Y-89183042D01*
X170426905Y-89333584D01*
X170426877Y-89333601D01*
X170161361Y-89511012D01*
X170161338Y-89511029D01*
X169914459Y-89713638D01*
X169688638Y-89939459D01*
X169486029Y-90186338D01*
X169486012Y-90186361D01*
X169308601Y-90451877D01*
X169308584Y-90451905D01*
X169158042Y-90733548D01*
X169158035Y-90733564D01*
X169126595Y-90809465D01*
X169082754Y-90863868D01*
X169016459Y-90885932D01*
X168948760Y-90868652D01*
X168908933Y-90830902D01*
X168878003Y-90784611D01*
X168878001Y-90784609D01*
X168877999Y-90784606D01*
X168765394Y-90672001D01*
X168765387Y-90671995D01*
X168632969Y-90583517D01*
X168485831Y-90522570D01*
X168485823Y-90522568D01*
X168329634Y-90491500D01*
X168325102Y-90491054D01*
X168294292Y-90483970D01*
X168280547Y-90478893D01*
X168261917Y-90466445D01*
X168142077Y-90416806D01*
X168077875Y-90404035D01*
X168068695Y-90400644D01*
X168048193Y-90385398D01*
X168025555Y-90373556D01*
X168023977Y-90372006D01*
X167939652Y-90287681D01*
X167906167Y-90226358D01*
X167911151Y-90156666D01*
X167939650Y-90112320D01*
X168036816Y-90015155D01*
X168125827Y-89867913D01*
X168177013Y-89703649D01*
X168183500Y-89632265D01*
X168183499Y-89117736D01*
X168183499Y-89117735D01*
X168183499Y-89117727D01*
X168177014Y-89046354D01*
X168177011Y-89046344D01*
X168125828Y-88882089D01*
X168121240Y-88874500D01*
X168069784Y-88789381D01*
X168051949Y-88721828D01*
X168073467Y-88655355D01*
X168103021Y-88624912D01*
X168115000Y-88616209D01*
X168115000Y-88616208D01*
X168115004Y-88616206D01*
X168266206Y-88465004D01*
X168391894Y-88292009D01*
X168488972Y-88101483D01*
X168555049Y-87898116D01*
X168588500Y-87686916D01*
X168588500Y-87473084D01*
X168555049Y-87261884D01*
X168522010Y-87160200D01*
X168488973Y-87058519D01*
X168488972Y-87058516D01*
X168393872Y-86871873D01*
X168391894Y-86867991D01*
X168266206Y-86694996D01*
X168115004Y-86543794D01*
X167942009Y-86418106D01*
X167888499Y-86390841D01*
X167751483Y-86321027D01*
X167751480Y-86321026D01*
X167548117Y-86254951D01*
X167430997Y-86236401D01*
X167336916Y-86221500D01*
X167123084Y-86221500D01*
X167052684Y-86232650D01*
X166911882Y-86254951D01*
X166708519Y-86321026D01*
X166708516Y-86321027D01*
X166517990Y-86418106D01*
X166344993Y-86543796D01*
X166193796Y-86694993D01*
X166068105Y-86867991D01*
X166065727Y-86871873D01*
X166013914Y-86918748D01*
X165944984Y-86930169D01*
X165880822Y-86902512D01*
X165854273Y-86871873D01*
X165851894Y-86867991D01*
X165850794Y-86866477D01*
X165726206Y-86694996D01*
X165575004Y-86543794D01*
X165402009Y-86418106D01*
X165348499Y-86390841D01*
X165211483Y-86321027D01*
X165211480Y-86321026D01*
X165008117Y-86254951D01*
X164890997Y-86236401D01*
X164796916Y-86221500D01*
X164583084Y-86221500D01*
X164540844Y-86228190D01*
X164371880Y-86254951D01*
X164240817Y-86297535D01*
X164170976Y-86299530D01*
X164111143Y-86263449D01*
X164080316Y-86200747D01*
X164078500Y-86179604D01*
X164078500Y-84994122D01*
X164098185Y-84927083D01*
X164114819Y-84906441D01*
X165821488Y-83199772D01*
X165821491Y-83199769D01*
X165893555Y-83091917D01*
X165943195Y-82972077D01*
X165945972Y-82958111D01*
X165978356Y-82896201D01*
X166039070Y-82861625D01*
X166105907Y-82864369D01*
X166261884Y-82915049D01*
X166473084Y-82948500D01*
X166473085Y-82948500D01*
X166686915Y-82948500D01*
X166686916Y-82948500D01*
X166898116Y-82915049D01*
X167101483Y-82848972D01*
X167292009Y-82751894D01*
X167465004Y-82626206D01*
X167616206Y-82475004D01*
X167741894Y-82302009D01*
X167741896Y-82302004D01*
X167744270Y-82298132D01*
X167796080Y-82251254D01*
X167865009Y-82239829D01*
X167929173Y-82267483D01*
X167955730Y-82298132D01*
X167958103Y-82302005D01*
X167958106Y-82302009D01*
X168083794Y-82475004D01*
X168234996Y-82626206D01*
X168407991Y-82751894D01*
X168460114Y-82778452D01*
X168598516Y-82848972D01*
X168598519Y-82848973D01*
X168700200Y-82882010D01*
X168801884Y-82915049D01*
X169013084Y-82948500D01*
X169013085Y-82948500D01*
X169226915Y-82948500D01*
X169226916Y-82948500D01*
X169438116Y-82915049D01*
X169641483Y-82848972D01*
X169832009Y-82751894D01*
X170005004Y-82626206D01*
X170156206Y-82475004D01*
X170281894Y-82302009D01*
X170281896Y-82302004D01*
X170284270Y-82298132D01*
X170336080Y-82251254D01*
X170405009Y-82239829D01*
X170469173Y-82267483D01*
X170495730Y-82298132D01*
X170498103Y-82302005D01*
X170498106Y-82302009D01*
X170623794Y-82475004D01*
X170774996Y-82626206D01*
X170947991Y-82751894D01*
X171000114Y-82778452D01*
X171138516Y-82848972D01*
X171138519Y-82848973D01*
X171240200Y-82882010D01*
X171341884Y-82915049D01*
X171553084Y-82948500D01*
X171553085Y-82948500D01*
X171766915Y-82948500D01*
X171766916Y-82948500D01*
X171978116Y-82915049D01*
X172181483Y-82848972D01*
X172372009Y-82751894D01*
X172545004Y-82626206D01*
X172696206Y-82475004D01*
X172821894Y-82302009D01*
X172918972Y-82111483D01*
X172985049Y-81908116D01*
X173018500Y-81696916D01*
X173018500Y-81483084D01*
X172985049Y-81271884D01*
X172918972Y-81068517D01*
X172918972Y-81068516D01*
X172861892Y-80956492D01*
X172821894Y-80877991D01*
X172696206Y-80704996D01*
X172545004Y-80553794D01*
X172372009Y-80428106D01*
X172372010Y-80428106D01*
X172372008Y-80428105D01*
X172367311Y-80425712D01*
X172316517Y-80377735D01*
X172299724Y-80309914D01*
X172322264Y-80243780D01*
X172363790Y-80207801D01*
X172363402Y-80207168D01*
X172367229Y-80204822D01*
X172367327Y-80204738D01*
X172367560Y-80204619D01*
X172539459Y-80079727D01*
X172539464Y-80079723D01*
X172689723Y-79929464D01*
X172689727Y-79929459D01*
X172814620Y-79757557D01*
X172911095Y-79568217D01*
X172976757Y-79366129D01*
X172976757Y-79366126D01*
X172987231Y-79300000D01*
X172093012Y-79300000D01*
X172125925Y-79242993D01*
X172160000Y-79115826D01*
X172160000Y-79099108D01*
X173449500Y-79099108D01*
X173449500Y-81565892D01*
X173460888Y-81608392D01*
X173483608Y-81693187D01*
X173508145Y-81735686D01*
X173549500Y-81807314D01*
X173642686Y-81900500D01*
X173756814Y-81966392D01*
X173884108Y-82000500D01*
X173884110Y-82000500D01*
X175935890Y-82000500D01*
X175935892Y-82000500D01*
X176063186Y-81966392D01*
X176177314Y-81900500D01*
X176270500Y-81807314D01*
X176336392Y-81693186D01*
X176370500Y-81565892D01*
X176370500Y-79099108D01*
X176336392Y-78971814D01*
X176270500Y-78857686D01*
X176177314Y-78764500D01*
X176105140Y-78722830D01*
X176063187Y-78698608D01*
X175956519Y-78670027D01*
X175935892Y-78664500D01*
X174015892Y-78664500D01*
X173884108Y-78664500D01*
X173756812Y-78698608D01*
X173642686Y-78764500D01*
X173642683Y-78764502D01*
X173549502Y-78857683D01*
X173549500Y-78857686D01*
X173483608Y-78971812D01*
X173449500Y-79099108D01*
X172160000Y-79099108D01*
X172160000Y-78984174D01*
X172125925Y-78857007D01*
X172093012Y-78800000D01*
X172987231Y-78800000D01*
X172976757Y-78733873D01*
X172976757Y-78733870D01*
X172911095Y-78531782D01*
X172814620Y-78342442D01*
X172689727Y-78170540D01*
X172689723Y-78170535D01*
X172539464Y-78020276D01*
X172539459Y-78020272D01*
X172367557Y-77895379D01*
X172178215Y-77798903D01*
X171976124Y-77733241D01*
X171910000Y-77722768D01*
X171910000Y-78616988D01*
X171852993Y-78584075D01*
X171725826Y-78550000D01*
X171594174Y-78550000D01*
X171467007Y-78584075D01*
X171410000Y-78616988D01*
X171410000Y-77722768D01*
X171409999Y-77722768D01*
X171343875Y-77733241D01*
X171141784Y-77798903D01*
X170952442Y-77895379D01*
X170780540Y-78020272D01*
X170780535Y-78020276D01*
X170630276Y-78170535D01*
X170630272Y-78170540D01*
X170505376Y-78342446D01*
X170505374Y-78342448D01*
X170505246Y-78342701D01*
X170505172Y-78342779D01*
X170502832Y-78346598D01*
X170502029Y-78346106D01*
X170457264Y-78393489D01*
X170389441Y-78410274D01*
X170323309Y-78387727D01*
X170284285Y-78342683D01*
X170281895Y-78337992D01*
X170250472Y-78294742D01*
X170156206Y-78164996D01*
X170005004Y-78013794D01*
X169832009Y-77888106D01*
X169812348Y-77878088D01*
X169641483Y-77791027D01*
X169641480Y-77791026D01*
X169438117Y-77724951D01*
X169320769Y-77706365D01*
X169226916Y-77691500D01*
X169013084Y-77691500D01*
X168942684Y-77702650D01*
X168801882Y-77724951D01*
X168598519Y-77791026D01*
X168598516Y-77791027D01*
X168407990Y-77888106D01*
X168234993Y-78013796D01*
X168083796Y-78164993D01*
X167958105Y-78337991D01*
X167955727Y-78341873D01*
X167903914Y-78388748D01*
X167834984Y-78400169D01*
X167770822Y-78372512D01*
X167744273Y-78341873D01*
X167741894Y-78337991D01*
X167616206Y-78164996D01*
X167465004Y-78013794D01*
X167292009Y-77888106D01*
X167272348Y-77878088D01*
X167101483Y-77791027D01*
X167101480Y-77791026D01*
X166898117Y-77724951D01*
X166780769Y-77706365D01*
X166686916Y-77691500D01*
X166473084Y-77691500D01*
X166402684Y-77702650D01*
X166261882Y-77724951D01*
X166058519Y-77791026D01*
X166058516Y-77791027D01*
X165867990Y-77888106D01*
X165694993Y-78013796D01*
X165543796Y-78164993D01*
X165418105Y-78337991D01*
X165415727Y-78341873D01*
X165363914Y-78388748D01*
X165294984Y-78400169D01*
X165230822Y-78372512D01*
X165204273Y-78341873D01*
X165201894Y-78337991D01*
X165076206Y-78164996D01*
X164925004Y-78013794D01*
X164752009Y-77888106D01*
X164732348Y-77878088D01*
X164561483Y-77791027D01*
X164561480Y-77791026D01*
X164358117Y-77724951D01*
X164240769Y-77706365D01*
X164146916Y-77691500D01*
X163933084Y-77691500D01*
X163862684Y-77702650D01*
X163721882Y-77724951D01*
X163518519Y-77791026D01*
X163518516Y-77791027D01*
X163327990Y-77888106D01*
X163154993Y-78013796D01*
X163003796Y-78164993D01*
X162878105Y-78337991D01*
X162875727Y-78341873D01*
X162823914Y-78388748D01*
X162754984Y-78400169D01*
X162690822Y-78372512D01*
X162664273Y-78341873D01*
X162661894Y-78337991D01*
X162536206Y-78164996D01*
X162385004Y-78013794D01*
X162212009Y-77888106D01*
X162192348Y-77878088D01*
X162021483Y-77791027D01*
X162021480Y-77791026D01*
X161818117Y-77724951D01*
X161700769Y-77706365D01*
X161606916Y-77691500D01*
X161393084Y-77691500D01*
X161322684Y-77702650D01*
X161181882Y-77724951D01*
X160978519Y-77791026D01*
X160978516Y-77791027D01*
X160787990Y-77888106D01*
X160614993Y-78013796D01*
X160463796Y-78164993D01*
X160338105Y-78337991D01*
X160335727Y-78341873D01*
X160283914Y-78388748D01*
X160214984Y-78400169D01*
X160150822Y-78372512D01*
X160124273Y-78341873D01*
X160121894Y-78337991D01*
X159996206Y-78164996D01*
X159845004Y-78013794D01*
X159672009Y-77888106D01*
X159652348Y-77878088D01*
X159481483Y-77791027D01*
X159481480Y-77791026D01*
X159278117Y-77724951D01*
X159160769Y-77706365D01*
X159066916Y-77691500D01*
X158853084Y-77691500D01*
X158638960Y-77725413D01*
X158569667Y-77716458D01*
X158531882Y-77690621D01*
X157689771Y-76848510D01*
X157581920Y-76776447D01*
X157581919Y-76776446D01*
X157581917Y-76776445D01*
X157581915Y-76776444D01*
X157581913Y-76776443D01*
X157462077Y-76726806D01*
X157462071Y-76726804D01*
X157334859Y-76701500D01*
X157334857Y-76701500D01*
X148355143Y-76701500D01*
X148355141Y-76701500D01*
X148228621Y-76726667D01*
X148228607Y-76726670D01*
X148227923Y-76726805D01*
X148108087Y-76776442D01*
X148108085Y-76776443D01*
X148000231Y-76848509D01*
X148000227Y-76848512D01*
X146086600Y-78762139D01*
X146025277Y-78795624D01*
X145955585Y-78790640D01*
X145899652Y-78748768D01*
X145875235Y-78683304D01*
X145875550Y-78665744D01*
X145875322Y-78665732D01*
X145875500Y-78662406D01*
X145875500Y-78614579D01*
X145406416Y-78614579D01*
X145396238Y-78614079D01*
X145395248Y-78614079D01*
X143880752Y-78614079D01*
X143879762Y-78614079D01*
X143869584Y-78614579D01*
X143400500Y-78614579D01*
X143400500Y-78662423D01*
X143406901Y-78721951D01*
X143406903Y-78721958D01*
X143457145Y-78856665D01*
X143461397Y-78864451D01*
X143460117Y-78865149D01*
X143481178Y-78921624D01*
X143466323Y-78989896D01*
X143416916Y-79039299D01*
X143348642Y-79054148D01*
X143310041Y-79045025D01*
X143255831Y-79022570D01*
X143255823Y-79022568D01*
X143099634Y-78991500D01*
X143099630Y-78991500D01*
X142940370Y-78991500D01*
X142940365Y-78991500D01*
X142784176Y-79022568D01*
X142784168Y-79022570D01*
X142637030Y-79083517D01*
X142504612Y-79171995D01*
X142504605Y-79172001D01*
X142392001Y-79284605D01*
X142391995Y-79284612D01*
X142303517Y-79417030D01*
X142242570Y-79564168D01*
X142242568Y-79564176D01*
X142211500Y-79720365D01*
X142211500Y-79879634D01*
X142242568Y-80035823D01*
X142242570Y-80035831D01*
X142303515Y-80182964D01*
X142303520Y-80182974D01*
X142340602Y-80238470D01*
X142361480Y-80305147D01*
X142361500Y-80307361D01*
X142361500Y-80319222D01*
X142361500Y-80448936D01*
X142361500Y-80448938D01*
X142361499Y-80448938D01*
X142386804Y-80576150D01*
X142386806Y-80576156D01*
X142436443Y-80695992D01*
X142436447Y-80695999D01*
X142487924Y-80773041D01*
X142508801Y-80839719D01*
X142490316Y-80907099D01*
X142438336Y-80953788D01*
X142432275Y-80956492D01*
X142367028Y-80983518D01*
X142234612Y-81071995D01*
X142234605Y-81072001D01*
X142122001Y-81184605D01*
X142121995Y-81184612D01*
X142033517Y-81317030D01*
X141972570Y-81464168D01*
X141972568Y-81464174D01*
X141965211Y-81501163D01*
X141932826Y-81563074D01*
X141872110Y-81597648D01*
X141802341Y-81593908D01*
X141755913Y-81564652D01*
X140019350Y-79828089D01*
X139911499Y-79756026D01*
X139911498Y-79756025D01*
X139911496Y-79756024D01*
X139911494Y-79756023D01*
X139911492Y-79756022D01*
X139791647Y-79706381D01*
X139787994Y-79705273D01*
X139786316Y-79704173D01*
X139786028Y-79704054D01*
X139786050Y-79703999D01*
X139769401Y-79693085D01*
X139748649Y-79685096D01*
X139740744Y-79674301D01*
X139729559Y-79666970D01*
X139720506Y-79646664D01*
X139707369Y-79628725D01*
X139704048Y-79609750D01*
X139701108Y-79603155D01*
X139700230Y-79594160D01*
X139700000Y-79590386D01*
X139700000Y-79444831D01*
X139688367Y-79386348D01*
X139687482Y-79385024D01*
X139686696Y-79372123D01*
X139688849Y-79362703D01*
X139688849Y-79340388D01*
X139701088Y-79278859D01*
X139733473Y-79216948D01*
X139794189Y-79182374D01*
X139863958Y-79186113D01*
X139870158Y-79188489D01*
X139964169Y-79227430D01*
X140120365Y-79258499D01*
X140120369Y-79258500D01*
X140120370Y-79258500D01*
X140279631Y-79258500D01*
X140279632Y-79258499D01*
X140435831Y-79227430D01*
X140582968Y-79166483D01*
X140715389Y-79078003D01*
X140828003Y-78965389D01*
X140916483Y-78832968D01*
X140977430Y-78685831D01*
X141008500Y-78529630D01*
X141008500Y-78370370D01*
X140977430Y-78214169D01*
X140937071Y-78116734D01*
X143400500Y-78116734D01*
X143400500Y-78164579D01*
X144413000Y-78164579D01*
X144863000Y-78164579D01*
X145875500Y-78164579D01*
X145875500Y-78116751D01*
X145875499Y-78116734D01*
X145869098Y-78057206D01*
X145869096Y-78057199D01*
X145818854Y-77922492D01*
X145818850Y-77922485D01*
X145732690Y-77807391D01*
X145732687Y-77807388D01*
X145617593Y-77721228D01*
X145617586Y-77721224D01*
X145482879Y-77670982D01*
X145482872Y-77670980D01*
X145423344Y-77664579D01*
X144863000Y-77664579D01*
X144863000Y-78164579D01*
X144413000Y-78164579D01*
X144413000Y-77664579D01*
X143852655Y-77664579D01*
X143793127Y-77670980D01*
X143793120Y-77670982D01*
X143658413Y-77721224D01*
X143658406Y-77721228D01*
X143543312Y-77807388D01*
X143543309Y-77807391D01*
X143457149Y-77922485D01*
X143457145Y-77922492D01*
X143406903Y-78057199D01*
X143406901Y-78057206D01*
X143400500Y-78116734D01*
X140937071Y-78116734D01*
X140916483Y-78067032D01*
X140897208Y-78038185D01*
X140828004Y-77934612D01*
X140827998Y-77934605D01*
X140715394Y-77822001D01*
X140715387Y-77821995D01*
X140582969Y-77733517D01*
X140435831Y-77672570D01*
X140435823Y-77672568D01*
X140279634Y-77641500D01*
X140279630Y-77641500D01*
X140120370Y-77641500D01*
X140120365Y-77641500D01*
X139964176Y-77672568D01*
X139964168Y-77672570D01*
X139817033Y-77733516D01*
X139761528Y-77770603D01*
X139694850Y-77791480D01*
X139692638Y-77791500D01*
X139063517Y-77791500D01*
X139016065Y-77782061D01*
X138954078Y-77756385D01*
X138954070Y-77756383D01*
X138826859Y-77731079D01*
X138826857Y-77731079D01*
X138697143Y-77731079D01*
X138697141Y-77731079D01*
X138569928Y-77756383D01*
X138569922Y-77756385D01*
X138450086Y-77806022D01*
X138450079Y-77806026D01*
X138342228Y-77878089D01*
X138342227Y-77878090D01*
X138292560Y-77927759D01*
X138231237Y-77961245D01*
X138204878Y-77964079D01*
X138004747Y-77964079D01*
X137946270Y-77975710D01*
X137946269Y-77975711D01*
X137879947Y-78020026D01*
X137835632Y-78086348D01*
X137835631Y-78086349D01*
X137824000Y-78144826D01*
X137824000Y-78634326D01*
X137835151Y-78690389D01*
X137837258Y-78722830D01*
X137836436Y-78735145D01*
X137835633Y-78736348D01*
X137824000Y-78794831D01*
X137824000Y-78921624D01*
X137823725Y-78925751D01*
X137813040Y-78954822D01*
X137804315Y-78984539D01*
X137801093Y-78987330D01*
X137799623Y-78991332D01*
X137774912Y-79010016D01*
X137751511Y-79030294D01*
X137746715Y-79031337D01*
X137743892Y-79033472D01*
X137733122Y-79034294D01*
X137700000Y-79041500D01*
X137007362Y-79041500D01*
X136940323Y-79021815D01*
X136938472Y-79020603D01*
X136922627Y-79010016D01*
X136882968Y-78983517D01*
X136868468Y-78977511D01*
X136735831Y-78922570D01*
X136735823Y-78922568D01*
X136579634Y-78891500D01*
X136579630Y-78891500D01*
X136420370Y-78891500D01*
X136420365Y-78891500D01*
X136264176Y-78922568D01*
X136264168Y-78922570D01*
X136117030Y-78983517D01*
X135984612Y-79071995D01*
X135984605Y-79072001D01*
X135872001Y-79184605D01*
X135871995Y-79184612D01*
X135783517Y-79317030D01*
X135722570Y-79464168D01*
X135722568Y-79464176D01*
X135691500Y-79620365D01*
X135691500Y-79779634D01*
X135722568Y-79935823D01*
X135722570Y-79935831D01*
X135785848Y-80088596D01*
X135783597Y-80089528D01*
X135795665Y-80147421D01*
X135770680Y-80212671D01*
X135714384Y-80254054D01*
X135672063Y-80261500D01*
X126158467Y-80261500D01*
X126091428Y-80241815D01*
X126089578Y-80240603D01*
X126057389Y-80219096D01*
X125910252Y-80158149D01*
X125910244Y-80158147D01*
X125754055Y-80127079D01*
X125754051Y-80127079D01*
X125594791Y-80127079D01*
X125594786Y-80127079D01*
X125438597Y-80158147D01*
X125438589Y-80158149D01*
X125291451Y-80219096D01*
X125159033Y-80307574D01*
X125159026Y-80307580D01*
X125046422Y-80420184D01*
X125046416Y-80420191D01*
X124957938Y-80552609D01*
X124896991Y-80699747D01*
X124896989Y-80699755D01*
X124865921Y-80855944D01*
X124865921Y-80857079D01*
X124865753Y-80857649D01*
X124865324Y-80862010D01*
X124864497Y-80861928D01*
X124846236Y-80924118D01*
X124793432Y-80969873D01*
X124741921Y-80981079D01*
X121895562Y-80981079D01*
X121802957Y-80999500D01*
X121776937Y-81004675D01*
X121768343Y-81006385D01*
X121648507Y-81056022D01*
X121648500Y-81056026D01*
X121540649Y-81128089D01*
X118458511Y-84210227D01*
X118458508Y-84210231D01*
X118396612Y-84302866D01*
X118386445Y-84318082D01*
X118336806Y-84437922D01*
X118336804Y-84437928D01*
X118311500Y-84565140D01*
X118311500Y-86316047D01*
X118291815Y-86383086D01*
X118260386Y-86416365D01*
X118161919Y-86487906D01*
X118084996Y-86543794D01*
X118084994Y-86543796D01*
X118084993Y-86543796D01*
X117933796Y-86694993D01*
X117808106Y-86867990D01*
X117711027Y-87058516D01*
X117711026Y-87058519D01*
X117644951Y-87261882D01*
X117611500Y-87473084D01*
X117327589Y-87473084D01*
X117325806Y-84466526D01*
X117326046Y-84458758D01*
X117328071Y-84426228D01*
X117337008Y-84282677D01*
X117338943Y-84267260D01*
X117371142Y-84097737D01*
X117374991Y-84082697D01*
X117428161Y-83918543D01*
X117433866Y-83904092D01*
X117508827Y-83744353D01*
X117512326Y-83737467D01*
X117542152Y-83683071D01*
X117542151Y-83683071D01*
X117576125Y-83621109D01*
X117576128Y-83621102D01*
X121487799Y-76486862D01*
X121487801Y-76486861D01*
X121488776Y-76485081D01*
X121513634Y-76460313D01*
X121538259Y-76435773D01*
X121538266Y-76435771D01*
X121538270Y-76435768D01*
X121566165Y-76429752D01*
X121606557Y-76421038D01*
X121606563Y-76421040D01*
X121606570Y-76421039D01*
X121642141Y-76434379D01*
X121671980Y-76445567D01*
X121671983Y-76445571D01*
X121671990Y-76445574D01*
X121692504Y-76473081D01*
X121713756Y-76501572D01*
X121713757Y-76501580D01*
X121713760Y-76501584D01*
X121713761Y-76501600D01*
X121721500Y-76544707D01*
X121721500Y-76729051D01*
X121752487Y-76924700D01*
X121813703Y-77113101D01*
X121878285Y-77239848D01*
X121903634Y-77289598D01*
X122020070Y-77449858D01*
X122160142Y-77589930D01*
X122320402Y-77706366D01*
X122357784Y-77725413D01*
X122496898Y-77796296D01*
X122496900Y-77796296D01*
X122496903Y-77796298D01*
X122576009Y-77822001D01*
X122685299Y-77857512D01*
X122880949Y-77888500D01*
X122880954Y-77888500D01*
X123079051Y-77888500D01*
X123274700Y-77857512D01*
X123302436Y-77848500D01*
X123463097Y-77796298D01*
X123639598Y-77706366D01*
X123799858Y-77589930D01*
X123939930Y-77449858D01*
X124056366Y-77289598D01*
X124146298Y-77113097D01*
X124207512Y-76924700D01*
X124219579Y-76848510D01*
X124238500Y-76729051D01*
X124238500Y-76530948D01*
X124207512Y-76335299D01*
X124146296Y-76146898D01*
X124056365Y-75970401D01*
X123966989Y-75847386D01*
X123943509Y-75781579D01*
X123959334Y-75713525D01*
X124009440Y-75664830D01*
X124067307Y-75650500D01*
X177013631Y-75650500D01*
X177025712Y-75654047D01*
G37*
%TD.AperFunction*%
%TD*%
M02*
