%TF.GenerationSoftware,KiCad,Pcbnew,9.0.9-9.0.9~ubuntu24.04.1*%
%TF.CreationDate,2026-06-15T22:19:06+02:00*%
%TF.ProjectId,MicroPicoDrive,4d696372-6f50-4696-936f-44726976652e,1.4.g*%
%TF.SameCoordinates,Original*%
%TF.FileFunction,Soldermask,Top*%
%TF.FilePolarity,Negative*%
%FSLAX46Y46*%
G04 Gerber Fmt 4.6, Leading zero omitted, Abs format (unit mm)*
G04 Created by KiCad (PCBNEW 9.0.9-9.0.9~ubuntu24.04.1) date 2026-06-15 22:19:06*
%MOMM*%
%LPD*%
G01*
G04 APERTURE LIST*
G04 Aperture macros list*
%AMRoundRect*
0 Rectangle with rounded corners*
0 $1 Rounding radius*
0 $2 $3 $4 $5 $6 $7 $8 $9 X,Y pos of 4 corners*
0 Add a 4 corners polygon primitive as box body*
4,1,4,$2,$3,$4,$5,$6,$7,$8,$9,$2,$3,0*
0 Add four circle primitives for the rounded corners*
1,1,$1+$1,$2,$3*
1,1,$1+$1,$4,$5*
1,1,$1+$1,$6,$7*
1,1,$1+$1,$8,$9*
0 Add four rect primitives between the rounded corners*
20,1,$1+$1,$2,$3,$4,$5,0*
20,1,$1+$1,$4,$5,$6,$7,0*
20,1,$1+$1,$6,$7,$8,$9,0*
20,1,$1+$1,$8,$9,$2,$3,0*%
G04 Aperture macros list end*
%ADD10RoundRect,0.225000X-0.250000X0.225000X-0.250000X-0.225000X0.250000X-0.225000X0.250000X0.225000X0*%
%ADD11C,3.500000*%
%ADD12RoundRect,0.225000X0.250000X-0.225000X0.250000X0.225000X-0.250000X0.225000X-0.250000X-0.225000X0*%
%ADD13R,1.200000X0.600000*%
%ADD14O,1.500000X1.500000*%
%ADD15C,1.600000*%
%ADD16R,1.700000X1.700000*%
%ADD17O,1.700000X1.700000*%
%ADD18RoundRect,0.225000X-0.225000X-0.250000X0.225000X-0.250000X0.225000X0.250000X-0.225000X0.250000X0*%
%ADD19RoundRect,0.250000X-1.000000X-0.900000X1.000000X-0.900000X1.000000X0.900000X-1.000000X0.900000X0*%
%ADD20R,1.905000X2.000000*%
%ADD21O,1.905000X2.000000*%
%ADD22RoundRect,0.225000X0.225000X0.250000X-0.225000X0.250000X-0.225000X-0.250000X0.225000X-0.250000X0*%
%ADD23C,1.440000*%
%ADD24RoundRect,0.200000X0.275000X-0.200000X0.275000X0.200000X-0.275000X0.200000X-0.275000X-0.200000X0*%
%ADD25R,1.475000X0.450000*%
%ADD26O,1.800000X1.800000*%
%ADD27C,1.700000*%
%ADD28RoundRect,0.250000X-0.350000X-0.350000X0.350000X-0.350000X0.350000X0.350000X-0.350000X0.350000X0*%
%ADD29C,1.200000*%
G04 APERTURE END LIST*
D10*
%TO.C,C2*%
X149470000Y-95245000D03*
X149470000Y-96795000D03*
%TD*%
D11*
%TO.C,MH2*%
X125645000Y-125700000D03*
%TD*%
D12*
%TO.C,C4*%
X140300000Y-100805000D03*
X140300000Y-99255000D03*
%TD*%
D13*
%TO.C,IC2*%
X146020000Y-100820000D03*
X146020000Y-99870000D03*
X146020000Y-98920000D03*
X143520000Y-98920000D03*
X143520000Y-99870000D03*
X143520000Y-100820000D03*
%TD*%
D14*
%TO.C,MH_S3*%
X122980000Y-76630000D03*
%TD*%
D10*
%TO.C,C1*%
X149420000Y-102415000D03*
X149420000Y-100865000D03*
%TD*%
D14*
%TO.C,MH_S2*%
X178130000Y-76590000D03*
%TD*%
D10*
%TO.C,C5*%
X140300000Y-95235000D03*
X140300000Y-96785000D03*
%TD*%
D13*
%TO.C,IC1*%
X146020000Y-95250000D03*
X146020000Y-94300000D03*
X146020000Y-93350000D03*
X143520000Y-93350000D03*
X143520000Y-94300000D03*
X143520000Y-95250000D03*
%TD*%
D15*
%TO.C,R3*%
X135790000Y-123080000D03*
X135790000Y-112920000D03*
%TD*%
D16*
%TO.C,J2*%
X156420000Y-81590000D03*
D17*
X156420000Y-79050000D03*
X158960000Y-81590000D03*
X158960000Y-79050000D03*
X161500000Y-81590000D03*
X161500000Y-79050000D03*
X164040000Y-81590000D03*
X164040000Y-79050000D03*
X166580000Y-81590000D03*
X166580000Y-79050000D03*
X169120000Y-81590000D03*
X169120000Y-79050000D03*
X171660000Y-81590000D03*
X171660000Y-79050000D03*
%TD*%
D18*
%TO.C,C3*%
X146925000Y-83690000D03*
X148475000Y-83690000D03*
%TD*%
D19*
%TO.C,D1*%
X126962500Y-101180000D03*
X131262500Y-101180000D03*
%TD*%
D20*
%TO.C,U1*%
X177080000Y-100885000D03*
D21*
X174540000Y-100885000D03*
X172000000Y-100885000D03*
%TD*%
D22*
%TO.C,C6*%
X136360000Y-83170000D03*
X134810000Y-83170000D03*
%TD*%
D23*
%TO.C,RV1*%
X137290000Y-127360000D03*
X134750000Y-127360000D03*
X132210000Y-127360000D03*
%TD*%
D14*
%TO.C,MH_S1*%
X178090000Y-129250000D03*
%TD*%
%TO.C,MH_S4*%
X120460000Y-129200000D03*
%TD*%
D16*
%TO.C,J1*%
X146875000Y-110375000D03*
D17*
X146875000Y-115455000D03*
X149415000Y-110375000D03*
X149415000Y-115455000D03*
X151955000Y-110375000D03*
X151955000Y-115455000D03*
X154495000Y-110375000D03*
X154495000Y-115455000D03*
X157035000Y-110375000D03*
X157035000Y-115455000D03*
X159575000Y-110375000D03*
X159575000Y-115455000D03*
X162115000Y-110375000D03*
X162115000Y-115455000D03*
X164655000Y-110375000D03*
X164655000Y-115455000D03*
%TD*%
D24*
%TO.C,R4*%
X167200000Y-91025000D03*
X167200000Y-89375000D03*
%TD*%
D25*
%TO.C,IC3*%
X144638000Y-82289579D03*
X144638000Y-81639579D03*
X144638000Y-80989579D03*
X144638000Y-80339579D03*
X144638000Y-79689579D03*
X144638000Y-79039579D03*
X144638000Y-78389579D03*
X138762000Y-78389579D03*
X138762000Y-79039579D03*
X138762000Y-79689579D03*
X138762000Y-80339579D03*
X138762000Y-80989579D03*
X138762000Y-81639579D03*
X138762000Y-82289579D03*
%TD*%
D11*
%TO.C,MH1*%
X172100000Y-92125000D03*
%TD*%
D26*
%TO.C,U2*%
X119100000Y-93745000D03*
D14*
X122130000Y-94045000D03*
X122130000Y-98895000D03*
D26*
X119100000Y-99195000D03*
D17*
X118970000Y-87580000D03*
X121510000Y-87580000D03*
D16*
X124050000Y-87580000D03*
D17*
X126590000Y-87580000D03*
X129130000Y-87580000D03*
X131670000Y-87580000D03*
X134210000Y-87580000D03*
D16*
X136750000Y-87580000D03*
D17*
X139290000Y-87580000D03*
X141830000Y-87580000D03*
X144370000Y-87580000D03*
X146910000Y-87580000D03*
D16*
X149450000Y-87580000D03*
D17*
X151990000Y-87580000D03*
X154530000Y-87580000D03*
X157070000Y-87580000D03*
X159610000Y-87580000D03*
D16*
X162150000Y-87580000D03*
D17*
X164690000Y-87580000D03*
X167230000Y-87580000D03*
X167230000Y-105360000D03*
X164690000Y-105360000D03*
D16*
X162150000Y-105360000D03*
D17*
X159610000Y-105360000D03*
X157070000Y-105360000D03*
X154530000Y-105360000D03*
X151990000Y-105360000D03*
D16*
X149450000Y-105360000D03*
D17*
X146910000Y-105360000D03*
X144370000Y-105360000D03*
X141830000Y-105360000D03*
X139290000Y-105360000D03*
D16*
X136750000Y-105360000D03*
D17*
X134210000Y-105360000D03*
X131670000Y-105360000D03*
X129130000Y-105360000D03*
X126590000Y-105360000D03*
D16*
X124050000Y-105360000D03*
D17*
X121510000Y-105360000D03*
X118970000Y-105360000D03*
X167000000Y-93930000D03*
D16*
X167000000Y-96470000D03*
D17*
X167000000Y-99010000D03*
%TD*%
D16*
%TO.C,LS1*%
X140085000Y-122625000D03*
D27*
X140085000Y-120085000D03*
%TD*%
D28*
%TO.C,C7*%
X139630000Y-114700000D03*
D29*
X141130000Y-114700000D03*
%TD*%
M02*
