M48
; DRILL file {KiCad 9.0.9-9.0.9~ubuntu24.04.1} date 2026-06-15T22:19:13+0200
; FORMAT={-:-/ absolute / metric / decimal}
; #@! TF.CreationDate,2026-06-15T22:19:13+02:00
; #@! TF.GenerationSoftware,Kicad,Pcbnew,9.0.9-9.0.9~ubuntu24.04.1
; #@! TF.FileFunction,Plated,1,2,PTH
FMAT,2
METRIC
; #@! TA.AperFunction,Plated,PTH,ViaDrill
T1C0.300
; #@! TA.AperFunction,Plated,PTH,ViaDrill
T2C0.400
; #@! TA.AperFunction,Plated,PTH,ComponentDrill
T3C0.600
; #@! TA.AperFunction,Plated,PTH,ComponentDrill
T4C0.800
; #@! TA.AperFunction,Plated,PTH,ComponentDrill
T5C1.000
; #@! TA.AperFunction,Plated,PTH,ComponentDrill
T6C1.020
; #@! TA.AperFunction,Plated,PTH,ComponentDrill
T7C1.100
%
G90
G05
T1
X120.32Y-89.9
X120.32Y-102.22
X123.78Y-103.35
X124.93Y-109.84
X125.6Y-89.87
X125.63Y-97.46
X125.674Y-80.936
X129.36Y-98.09
X130.7Y-89.9
X131.86Y-110.64
X132.42Y-83.09
X133.7Y-103.0
X135.12Y-94.38
X135.58Y-77.55
X136.07Y-100.81
X136.5Y-79.7
X136.76Y-89.37
X140.2Y-78.45
X140.73Y-83.59
X141.78Y-94.3
X141.79Y-99.9
X141.8Y-111.46
X142.75Y-81.7
X142.775Y-83.7
X143.02Y-79.8
X143.09Y-101.97
X143.52Y-98.0
X145.64Y-90.49
X146.37Y-80.393
X146.55Y-77.7
X147.35Y-95.25
X147.375Y-100.865
X148.35Y-99.85
X148.7Y-78.92
X149.38Y-112.86
X149.76Y-81.83
X151.03Y-83.35
X151.89Y-112.83
X153.74Y-108.99
X153.9Y-102.3
X153.94Y-96.33
X154.04Y-90.3
X155.74Y-109.56
X157.06Y-113.74
X157.1Y-90.34
X159.06Y-92.44
X159.305Y-93.345
X160.842Y-99.191
X161.115Y-92.845
X161.59Y-97.37
X162.2Y-108.54
X164.18Y-102.22
X164.49Y-99.02
X165.08Y-90.95
X165.27Y-112.81
X167.77Y-103.28
X168.25Y-91.3
X170.3Y-112.9
T2
X139.19Y-91.45
X139.2Y-95.24
T3
X139.63Y-114.7
X141.13Y-114.7
T4
X132.21Y-127.36
X134.75Y-127.36
X135.79Y-112.92
X135.79Y-123.08
X137.29Y-127.36
T5
X140.085Y-120.085
X140.085Y-122.625
X146.875Y-110.375
X146.875Y-115.455
X149.415Y-110.375
X149.415Y-115.455
X151.955Y-110.375
X151.955Y-115.455
X154.495Y-110.375
X154.495Y-115.455
X156.42Y-79.05
X156.42Y-81.59
X157.035Y-110.375
X157.035Y-115.455
X158.96Y-79.05
X158.96Y-81.59
X159.575Y-110.375
X159.575Y-115.455
X161.5Y-79.05
X161.5Y-81.59
X162.115Y-110.375
X162.115Y-115.455
X164.04Y-79.05
X164.04Y-81.59
X164.655Y-110.375
X164.655Y-115.455
X166.58Y-79.05
X166.58Y-81.59
X169.12Y-79.05
X169.12Y-81.59
X171.66Y-79.05
X171.66Y-81.59
T6
X118.97Y-87.58
X118.97Y-105.36
X121.51Y-87.58
X121.51Y-105.36
X124.05Y-87.58
X124.05Y-105.36
X126.59Y-87.58
X126.59Y-105.36
X129.13Y-87.58
X129.13Y-105.36
X131.67Y-87.58
X131.67Y-105.36
X134.21Y-87.58
X134.21Y-105.36
X136.75Y-87.58
X136.75Y-105.36
X139.29Y-87.58
X139.29Y-105.36
X141.83Y-87.58
X141.83Y-105.36
X144.37Y-87.58
X144.37Y-105.36
X146.91Y-87.58
X146.91Y-105.36
X149.45Y-87.58
X149.45Y-105.36
X151.99Y-87.58
X151.99Y-105.36
X154.53Y-87.58
X154.53Y-105.36
X157.07Y-87.58
X157.07Y-105.36
X159.61Y-87.58
X159.61Y-105.36
X162.15Y-87.58
X162.15Y-105.36
X164.69Y-87.58
X164.69Y-105.36
X167.0Y-93.93
X167.0Y-96.47
X167.0Y-99.01
X167.23Y-87.58
X167.23Y-105.36
T7
X172.0Y-100.885
X174.54Y-100.885
X177.08Y-100.885
M30
