%TF.GenerationSoftware,KiCad,Pcbnew,9.0.9-9.0.9~ubuntu24.04.1*%
%TF.CreationDate,2026-06-15T22:19:06+02:00*%
%TF.ProjectId,MicroPicoDrive,4d696372-6f50-4696-936f-44726976652e,1.4.g*%
%TF.SameCoordinates,Original*%
%TF.FileFunction,Legend,Top*%
%TF.FilePolarity,Positive*%
%FSLAX46Y46*%
G04 Gerber Fmt 4.6, Leading zero omitted, Abs format (unit mm)*
G04 Created by KiCad (PCBNEW 9.0.9-9.0.9~ubuntu24.04.1) date 2026-06-15 22:19:06*
%MOMM*%
%LPD*%
G01*
G04 APERTURE LIST*
G04 Aperture macros list*
%AMRoundRect*
0 Rectangle with rounded corners*
0 $1 Rounding radius*
0 $2 $3 $4 $5 $6 $7 $8 $9 X,Y pos of 4 corners*
0 Add a 4 corners polygon primitive as box body*
4,1,4,$2,$3,$4,$5,$6,$7,$8,$9,$2,$3,0*
0 Add four circle primitives for the rounded corners*
1,1,$1+$1,$2,$3*
1,1,$1+$1,$4,$5*
1,1,$1+$1,$6,$7*
1,1,$1+$1,$8,$9*
0 Add four rect primitives between the rounded corners*
20,1,$1+$1,$2,$3,$4,$5,0*
20,1,$1+$1,$4,$5,$6,$7,0*
20,1,$1+$1,$6,$7,$8,$9,0*
20,1,$1+$1,$8,$9,$2,$3,0*%
G04 Aperture macros list end*
%ADD10C,0.150000*%
%ADD11C,0.100000*%
%ADD12C,0.300000*%
%ADD13C,0.254000*%
%ADD14C,0.120000*%
%ADD15C,0.200000*%
%ADD16C,0.010000*%
%ADD17C,0.400000*%
%ADD18RoundRect,0.225000X-0.250000X0.225000X-0.250000X-0.225000X0.250000X-0.225000X0.250000X0.225000X0*%
%ADD19C,3.500000*%
%ADD20RoundRect,0.225000X0.250000X-0.225000X0.250000X0.225000X-0.250000X0.225000X-0.250000X-0.225000X0*%
%ADD21R,1.200000X0.600000*%
%ADD22O,1.500000X1.500000*%
%ADD23C,1.600000*%
%ADD24R,1.700000X1.700000*%
%ADD25O,1.700000X1.700000*%
%ADD26RoundRect,0.225000X-0.225000X-0.250000X0.225000X-0.250000X0.225000X0.250000X-0.225000X0.250000X0*%
%ADD27RoundRect,0.250000X-1.000000X-0.900000X1.000000X-0.900000X1.000000X0.900000X-1.000000X0.900000X0*%
%ADD28R,1.905000X2.000000*%
%ADD29O,1.905000X2.000000*%
%ADD30RoundRect,0.225000X0.225000X0.250000X-0.225000X0.250000X-0.225000X-0.250000X0.225000X-0.250000X0*%
%ADD31C,1.440000*%
%ADD32RoundRect,0.200000X0.275000X-0.200000X0.275000X0.200000X-0.275000X0.200000X-0.275000X-0.200000X0*%
%ADD33R,1.475000X0.450000*%
%ADD34O,1.800000X1.800000*%
%ADD35C,1.700000*%
%ADD36RoundRect,0.250000X-0.350000X-0.350000X0.350000X-0.350000X0.350000X0.350000X-0.350000X0.350000X0*%
%ADD37C,1.200000*%
G04 APERTURE END LIST*
D10*
X117990000Y-113710000D02*
X133150000Y-113710000D01*
D11*
X158170000Y-80320000D02*
X172570000Y-80325000D01*
D10*
X169430000Y-97400000D02*
X169430000Y-99300000D01*
X169430000Y-97400000D02*
X179600000Y-97400000D01*
X169430000Y-99300000D02*
X179600000Y-99300000D01*
X173000000Y-97400000D02*
X173000000Y-99300000D01*
X176600000Y-97400000D02*
X176600000Y-99300000D01*
X179600000Y-97400000D02*
X179600000Y-99300000D01*
X169639160Y-102969819D02*
X169955826Y-103969819D01*
X169955826Y-103969819D02*
X170272493Y-102969819D01*
X170724874Y-103969819D02*
X170634398Y-103922200D01*
X170634398Y-103922200D02*
X170589160Y-103874580D01*
X170589160Y-103874580D02*
X170543922Y-103779342D01*
X170543922Y-103779342D02*
X170543922Y-103493628D01*
X170543922Y-103493628D02*
X170589160Y-103398390D01*
X170589160Y-103398390D02*
X170634398Y-103350771D01*
X170634398Y-103350771D02*
X170724874Y-103303152D01*
X170724874Y-103303152D02*
X170860589Y-103303152D01*
X170860589Y-103303152D02*
X170951065Y-103350771D01*
X170951065Y-103350771D02*
X170996303Y-103398390D01*
X170996303Y-103398390D02*
X171041541Y-103493628D01*
X171041541Y-103493628D02*
X171041541Y-103779342D01*
X171041541Y-103779342D02*
X170996303Y-103874580D01*
X170996303Y-103874580D02*
X170951065Y-103922200D01*
X170951065Y-103922200D02*
X170860589Y-103969819D01*
X170860589Y-103969819D02*
X170724874Y-103969819D01*
X171855827Y-103303152D02*
X171855827Y-103969819D01*
X171448684Y-103303152D02*
X171448684Y-103826961D01*
X171448684Y-103826961D02*
X171493922Y-103922200D01*
X171493922Y-103922200D02*
X171584398Y-103969819D01*
X171584398Y-103969819D02*
X171720113Y-103969819D01*
X171720113Y-103969819D02*
X171810589Y-103922200D01*
X171810589Y-103922200D02*
X171855827Y-103874580D01*
X172172494Y-103303152D02*
X172534398Y-103303152D01*
X172308208Y-102969819D02*
X172308208Y-103826961D01*
X172308208Y-103826961D02*
X172353446Y-103922200D01*
X172353446Y-103922200D02*
X172443922Y-103969819D01*
X172443922Y-103969819D02*
X172534398Y-103969819D01*
X169769160Y-97929819D02*
X170085826Y-98929819D01*
X170085826Y-98929819D02*
X170402493Y-97929819D01*
X170854874Y-98929819D02*
X170764398Y-98882200D01*
X170764398Y-98882200D02*
X170719160Y-98834580D01*
X170719160Y-98834580D02*
X170673922Y-98739342D01*
X170673922Y-98739342D02*
X170673922Y-98453628D01*
X170673922Y-98453628D02*
X170719160Y-98358390D01*
X170719160Y-98358390D02*
X170764398Y-98310771D01*
X170764398Y-98310771D02*
X170854874Y-98263152D01*
X170854874Y-98263152D02*
X170990589Y-98263152D01*
X170990589Y-98263152D02*
X171081065Y-98310771D01*
X171081065Y-98310771D02*
X171126303Y-98358390D01*
X171126303Y-98358390D02*
X171171541Y-98453628D01*
X171171541Y-98453628D02*
X171171541Y-98739342D01*
X171171541Y-98739342D02*
X171126303Y-98834580D01*
X171126303Y-98834580D02*
X171081065Y-98882200D01*
X171081065Y-98882200D02*
X170990589Y-98929819D01*
X170990589Y-98929819D02*
X170854874Y-98929819D01*
X171985827Y-98263152D02*
X171985827Y-98929819D01*
X171578684Y-98263152D02*
X171578684Y-98786961D01*
X171578684Y-98786961D02*
X171623922Y-98882200D01*
X171623922Y-98882200D02*
X171714398Y-98929819D01*
X171714398Y-98929819D02*
X171850113Y-98929819D01*
X171850113Y-98929819D02*
X171940589Y-98882200D01*
X171940589Y-98882200D02*
X171985827Y-98834580D01*
X172302494Y-98263152D02*
X172664398Y-98263152D01*
X172438208Y-97929819D02*
X172438208Y-98786961D01*
X172438208Y-98786961D02*
X172483446Y-98882200D01*
X172483446Y-98882200D02*
X172573922Y-98929819D01*
X172573922Y-98929819D02*
X172664398Y-98929819D01*
X142919636Y-82079819D02*
X142919636Y-82317914D01*
X142681541Y-82222676D02*
X142919636Y-82317914D01*
X142919636Y-82317914D02*
X143157731Y-82222676D01*
X142776779Y-82508390D02*
X142919636Y-82317914D01*
X142919636Y-82317914D02*
X143062493Y-82508390D01*
X167876779Y-76118866D02*
X168638684Y-76118866D01*
X168257731Y-76499819D02*
X168257731Y-75737914D01*
X169162493Y-76499819D02*
X169352969Y-76499819D01*
X169352969Y-76499819D02*
X169448207Y-76452200D01*
X169448207Y-76452200D02*
X169495826Y-76404580D01*
X169495826Y-76404580D02*
X169591064Y-76261723D01*
X169591064Y-76261723D02*
X169638683Y-76071247D01*
X169638683Y-76071247D02*
X169638683Y-75690295D01*
X169638683Y-75690295D02*
X169591064Y-75595057D01*
X169591064Y-75595057D02*
X169543445Y-75547438D01*
X169543445Y-75547438D02*
X169448207Y-75499819D01*
X169448207Y-75499819D02*
X169257731Y-75499819D01*
X169257731Y-75499819D02*
X169162493Y-75547438D01*
X169162493Y-75547438D02*
X169114874Y-75595057D01*
X169114874Y-75595057D02*
X169067255Y-75690295D01*
X169067255Y-75690295D02*
X169067255Y-75928390D01*
X169067255Y-75928390D02*
X169114874Y-76023628D01*
X169114874Y-76023628D02*
X169162493Y-76071247D01*
X169162493Y-76071247D02*
X169257731Y-76118866D01*
X169257731Y-76118866D02*
X169448207Y-76118866D01*
X169448207Y-76118866D02*
X169543445Y-76071247D01*
X169543445Y-76071247D02*
X169591064Y-76023628D01*
X169591064Y-76023628D02*
X169638683Y-75928390D01*
X169972017Y-75833152D02*
X170210112Y-76499819D01*
X170210112Y-76499819D02*
X170448207Y-75833152D01*
X172030588Y-75617438D02*
X171935350Y-75569819D01*
X171935350Y-75569819D02*
X171792493Y-75569819D01*
X171792493Y-75569819D02*
X171649636Y-75617438D01*
X171649636Y-75617438D02*
X171554398Y-75712676D01*
X171554398Y-75712676D02*
X171506779Y-75807914D01*
X171506779Y-75807914D02*
X171459160Y-75998390D01*
X171459160Y-75998390D02*
X171459160Y-76141247D01*
X171459160Y-76141247D02*
X171506779Y-76331723D01*
X171506779Y-76331723D02*
X171554398Y-76426961D01*
X171554398Y-76426961D02*
X171649636Y-76522200D01*
X171649636Y-76522200D02*
X171792493Y-76569819D01*
X171792493Y-76569819D02*
X171887731Y-76569819D01*
X171887731Y-76569819D02*
X172030588Y-76522200D01*
X172030588Y-76522200D02*
X172078207Y-76474580D01*
X172078207Y-76474580D02*
X172078207Y-76141247D01*
X172078207Y-76141247D02*
X171887731Y-76141247D01*
X172506779Y-76569819D02*
X172506779Y-75569819D01*
X172506779Y-75569819D02*
X173078207Y-76569819D01*
X173078207Y-76569819D02*
X173078207Y-75569819D01*
X173554398Y-76569819D02*
X173554398Y-75569819D01*
X173554398Y-75569819D02*
X173792493Y-75569819D01*
X173792493Y-75569819D02*
X173935350Y-75617438D01*
X173935350Y-75617438D02*
X174030588Y-75712676D01*
X174030588Y-75712676D02*
X174078207Y-75807914D01*
X174078207Y-75807914D02*
X174125826Y-75998390D01*
X174125826Y-75998390D02*
X174125826Y-76141247D01*
X174125826Y-76141247D02*
X174078207Y-76331723D01*
X174078207Y-76331723D02*
X174030588Y-76426961D01*
X174030588Y-76426961D02*
X173935350Y-76522200D01*
X173935350Y-76522200D02*
X173792493Y-76569819D01*
X173792493Y-76569819D02*
X173554398Y-76569819D01*
X173930588Y-103007438D02*
X173835350Y-102959819D01*
X173835350Y-102959819D02*
X173692493Y-102959819D01*
X173692493Y-102959819D02*
X173549636Y-103007438D01*
X173549636Y-103007438D02*
X173454398Y-103102676D01*
X173454398Y-103102676D02*
X173406779Y-103197914D01*
X173406779Y-103197914D02*
X173359160Y-103388390D01*
X173359160Y-103388390D02*
X173359160Y-103531247D01*
X173359160Y-103531247D02*
X173406779Y-103721723D01*
X173406779Y-103721723D02*
X173454398Y-103816961D01*
X173454398Y-103816961D02*
X173549636Y-103912200D01*
X173549636Y-103912200D02*
X173692493Y-103959819D01*
X173692493Y-103959819D02*
X173787731Y-103959819D01*
X173787731Y-103959819D02*
X173930588Y-103912200D01*
X173930588Y-103912200D02*
X173978207Y-103864580D01*
X173978207Y-103864580D02*
X173978207Y-103531247D01*
X173978207Y-103531247D02*
X173787731Y-103531247D01*
X174406779Y-103959819D02*
X174406779Y-102959819D01*
X174406779Y-102959819D02*
X174978207Y-103959819D01*
X174978207Y-103959819D02*
X174978207Y-102959819D01*
X175454398Y-103959819D02*
X175454398Y-102959819D01*
X175454398Y-102959819D02*
X175692493Y-102959819D01*
X175692493Y-102959819D02*
X175835350Y-103007438D01*
X175835350Y-103007438D02*
X175930588Y-103102676D01*
X175930588Y-103102676D02*
X175978207Y-103197914D01*
X175978207Y-103197914D02*
X176025826Y-103388390D01*
X176025826Y-103388390D02*
X176025826Y-103531247D01*
X176025826Y-103531247D02*
X175978207Y-103721723D01*
X175978207Y-103721723D02*
X175930588Y-103816961D01*
X175930588Y-103816961D02*
X175835350Y-103912200D01*
X175835350Y-103912200D02*
X175692493Y-103959819D01*
X175692493Y-103959819D02*
X175454398Y-103959819D01*
X174060588Y-97967438D02*
X173965350Y-97919819D01*
X173965350Y-97919819D02*
X173822493Y-97919819D01*
X173822493Y-97919819D02*
X173679636Y-97967438D01*
X173679636Y-97967438D02*
X173584398Y-98062676D01*
X173584398Y-98062676D02*
X173536779Y-98157914D01*
X173536779Y-98157914D02*
X173489160Y-98348390D01*
X173489160Y-98348390D02*
X173489160Y-98491247D01*
X173489160Y-98491247D02*
X173536779Y-98681723D01*
X173536779Y-98681723D02*
X173584398Y-98776961D01*
X173584398Y-98776961D02*
X173679636Y-98872200D01*
X173679636Y-98872200D02*
X173822493Y-98919819D01*
X173822493Y-98919819D02*
X173917731Y-98919819D01*
X173917731Y-98919819D02*
X174060588Y-98872200D01*
X174060588Y-98872200D02*
X174108207Y-98824580D01*
X174108207Y-98824580D02*
X174108207Y-98491247D01*
X174108207Y-98491247D02*
X173917731Y-98491247D01*
X174536779Y-98919819D02*
X174536779Y-97919819D01*
X174536779Y-97919819D02*
X175108207Y-98919819D01*
X175108207Y-98919819D02*
X175108207Y-97919819D01*
X175584398Y-98919819D02*
X175584398Y-97919819D01*
X175584398Y-97919819D02*
X175822493Y-97919819D01*
X175822493Y-97919819D02*
X175965350Y-97967438D01*
X175965350Y-97967438D02*
X176060588Y-98062676D01*
X176060588Y-98062676D02*
X176108207Y-98157914D01*
X176108207Y-98157914D02*
X176155826Y-98348390D01*
X176155826Y-98348390D02*
X176155826Y-98491247D01*
X176155826Y-98491247D02*
X176108207Y-98681723D01*
X176108207Y-98681723D02*
X176060588Y-98776961D01*
X176060588Y-98776961D02*
X175965350Y-98872200D01*
X175965350Y-98872200D02*
X175822493Y-98919819D01*
X175822493Y-98919819D02*
X175584398Y-98919819D01*
X177063922Y-102909819D02*
X177397255Y-103909819D01*
X177397255Y-103909819D02*
X177730588Y-102909819D01*
X178063922Y-103909819D02*
X178063922Y-103243152D01*
X178063922Y-102909819D02*
X178016303Y-102957438D01*
X178016303Y-102957438D02*
X178063922Y-103005057D01*
X178063922Y-103005057D02*
X178111541Y-102957438D01*
X178111541Y-102957438D02*
X178063922Y-102909819D01*
X178063922Y-102909819D02*
X178063922Y-103005057D01*
X178540112Y-103243152D02*
X178540112Y-103909819D01*
X178540112Y-103338390D02*
X178587731Y-103290771D01*
X178587731Y-103290771D02*
X178682969Y-103243152D01*
X178682969Y-103243152D02*
X178825826Y-103243152D01*
X178825826Y-103243152D02*
X178921064Y-103290771D01*
X178921064Y-103290771D02*
X178968683Y-103386009D01*
X178968683Y-103386009D02*
X178968683Y-103909819D01*
X177193922Y-97869819D02*
X177527255Y-98869819D01*
X177527255Y-98869819D02*
X177860588Y-97869819D01*
X178193922Y-98869819D02*
X178193922Y-98203152D01*
X178193922Y-97869819D02*
X178146303Y-97917438D01*
X178146303Y-97917438D02*
X178193922Y-97965057D01*
X178193922Y-97965057D02*
X178241541Y-97917438D01*
X178241541Y-97917438D02*
X178193922Y-97869819D01*
X178193922Y-97869819D02*
X178193922Y-97965057D01*
X178670112Y-98203152D02*
X178670112Y-98869819D01*
X178670112Y-98298390D02*
X178717731Y-98250771D01*
X178717731Y-98250771D02*
X178812969Y-98203152D01*
X178812969Y-98203152D02*
X178955826Y-98203152D01*
X178955826Y-98203152D02*
X179051064Y-98250771D01*
X179051064Y-98250771D02*
X179098683Y-98346009D01*
X179098683Y-98346009D02*
X179098683Y-98869819D01*
X118324285Y-117804819D02*
X118324285Y-116804819D01*
X118324285Y-116804819D02*
X118657618Y-117519104D01*
X118657618Y-117519104D02*
X118990951Y-116804819D01*
X118990951Y-116804819D02*
X118990951Y-117804819D01*
X119609999Y-117804819D02*
X119514761Y-117757200D01*
X119514761Y-117757200D02*
X119467142Y-117709580D01*
X119467142Y-117709580D02*
X119419523Y-117614342D01*
X119419523Y-117614342D02*
X119419523Y-117328628D01*
X119419523Y-117328628D02*
X119467142Y-117233390D01*
X119467142Y-117233390D02*
X119514761Y-117185771D01*
X119514761Y-117185771D02*
X119609999Y-117138152D01*
X119609999Y-117138152D02*
X119752856Y-117138152D01*
X119752856Y-117138152D02*
X119848094Y-117185771D01*
X119848094Y-117185771D02*
X119895713Y-117233390D01*
X119895713Y-117233390D02*
X119943332Y-117328628D01*
X119943332Y-117328628D02*
X119943332Y-117614342D01*
X119943332Y-117614342D02*
X119895713Y-117709580D01*
X119895713Y-117709580D02*
X119848094Y-117757200D01*
X119848094Y-117757200D02*
X119752856Y-117804819D01*
X119752856Y-117804819D02*
X119609999Y-117804819D01*
X120800475Y-117804819D02*
X120800475Y-116804819D01*
X120800475Y-117757200D02*
X120705237Y-117804819D01*
X120705237Y-117804819D02*
X120514761Y-117804819D01*
X120514761Y-117804819D02*
X120419523Y-117757200D01*
X120419523Y-117757200D02*
X120371904Y-117709580D01*
X120371904Y-117709580D02*
X120324285Y-117614342D01*
X120324285Y-117614342D02*
X120324285Y-117328628D01*
X120324285Y-117328628D02*
X120371904Y-117233390D01*
X120371904Y-117233390D02*
X120419523Y-117185771D01*
X120419523Y-117185771D02*
X120514761Y-117138152D01*
X120514761Y-117138152D02*
X120705237Y-117138152D01*
X120705237Y-117138152D02*
X120800475Y-117185771D01*
X121276666Y-117804819D02*
X121276666Y-117138152D01*
X121276666Y-116804819D02*
X121229047Y-116852438D01*
X121229047Y-116852438D02*
X121276666Y-116900057D01*
X121276666Y-116900057D02*
X121324285Y-116852438D01*
X121324285Y-116852438D02*
X121276666Y-116804819D01*
X121276666Y-116804819D02*
X121276666Y-116900057D01*
X121609999Y-117138152D02*
X121990951Y-117138152D01*
X121752856Y-117804819D02*
X121752856Y-116947676D01*
X121752856Y-116947676D02*
X121800475Y-116852438D01*
X121800475Y-116852438D02*
X121895713Y-116804819D01*
X121895713Y-116804819D02*
X121990951Y-116804819D01*
X122324285Y-117804819D02*
X122324285Y-117138152D01*
X122324285Y-116804819D02*
X122276666Y-116852438D01*
X122276666Y-116852438D02*
X122324285Y-116900057D01*
X122324285Y-116900057D02*
X122371904Y-116852438D01*
X122371904Y-116852438D02*
X122324285Y-116804819D01*
X122324285Y-116804819D02*
X122324285Y-116900057D01*
X123181427Y-117757200D02*
X123086189Y-117804819D01*
X123086189Y-117804819D02*
X122895713Y-117804819D01*
X122895713Y-117804819D02*
X122800475Y-117757200D01*
X122800475Y-117757200D02*
X122752856Y-117661961D01*
X122752856Y-117661961D02*
X122752856Y-117281009D01*
X122752856Y-117281009D02*
X122800475Y-117185771D01*
X122800475Y-117185771D02*
X122895713Y-117138152D01*
X122895713Y-117138152D02*
X123086189Y-117138152D01*
X123086189Y-117138152D02*
X123181427Y-117185771D01*
X123181427Y-117185771D02*
X123229046Y-117281009D01*
X123229046Y-117281009D02*
X123229046Y-117376247D01*
X123229046Y-117376247D02*
X122752856Y-117471485D01*
X124086189Y-117804819D02*
X124086189Y-116804819D01*
X124086189Y-117757200D02*
X123990951Y-117804819D01*
X123990951Y-117804819D02*
X123800475Y-117804819D01*
X123800475Y-117804819D02*
X123705237Y-117757200D01*
X123705237Y-117757200D02*
X123657618Y-117709580D01*
X123657618Y-117709580D02*
X123609999Y-117614342D01*
X123609999Y-117614342D02*
X123609999Y-117328628D01*
X123609999Y-117328628D02*
X123657618Y-117233390D01*
X123657618Y-117233390D02*
X123705237Y-117185771D01*
X123705237Y-117185771D02*
X123800475Y-117138152D01*
X123800475Y-117138152D02*
X123990951Y-117138152D01*
X123990951Y-117138152D02*
X124086189Y-117185771D01*
X125657618Y-117281009D02*
X125800475Y-117328628D01*
X125800475Y-117328628D02*
X125848094Y-117376247D01*
X125848094Y-117376247D02*
X125895713Y-117471485D01*
X125895713Y-117471485D02*
X125895713Y-117614342D01*
X125895713Y-117614342D02*
X125848094Y-117709580D01*
X125848094Y-117709580D02*
X125800475Y-117757200D01*
X125800475Y-117757200D02*
X125705237Y-117804819D01*
X125705237Y-117804819D02*
X125324285Y-117804819D01*
X125324285Y-117804819D02*
X125324285Y-116804819D01*
X125324285Y-116804819D02*
X125657618Y-116804819D01*
X125657618Y-116804819D02*
X125752856Y-116852438D01*
X125752856Y-116852438D02*
X125800475Y-116900057D01*
X125800475Y-116900057D02*
X125848094Y-116995295D01*
X125848094Y-116995295D02*
X125848094Y-117090533D01*
X125848094Y-117090533D02*
X125800475Y-117185771D01*
X125800475Y-117185771D02*
X125752856Y-117233390D01*
X125752856Y-117233390D02*
X125657618Y-117281009D01*
X125657618Y-117281009D02*
X125324285Y-117281009D01*
X126229047Y-117138152D02*
X126467142Y-117804819D01*
X126705237Y-117138152D02*
X126467142Y-117804819D01*
X126467142Y-117804819D02*
X126371904Y-118042914D01*
X126371904Y-118042914D02*
X126324285Y-118090533D01*
X126324285Y-118090533D02*
X126229047Y-118138152D01*
X127848095Y-117804819D02*
X127848095Y-116804819D01*
X127848095Y-116804819D02*
X128229047Y-116804819D01*
X128229047Y-116804819D02*
X128324285Y-116852438D01*
X128324285Y-116852438D02*
X128371904Y-116900057D01*
X128371904Y-116900057D02*
X128419523Y-116995295D01*
X128419523Y-116995295D02*
X128419523Y-117138152D01*
X128419523Y-117138152D02*
X128371904Y-117233390D01*
X128371904Y-117233390D02*
X128324285Y-117281009D01*
X128324285Y-117281009D02*
X128229047Y-117328628D01*
X128229047Y-117328628D02*
X127848095Y-117328628D01*
X128990952Y-117804819D02*
X128895714Y-117757200D01*
X128895714Y-117757200D02*
X128848095Y-117709580D01*
X128848095Y-117709580D02*
X128800476Y-117614342D01*
X128800476Y-117614342D02*
X128800476Y-117328628D01*
X128800476Y-117328628D02*
X128848095Y-117233390D01*
X128848095Y-117233390D02*
X128895714Y-117185771D01*
X128895714Y-117185771D02*
X128990952Y-117138152D01*
X128990952Y-117138152D02*
X129133809Y-117138152D01*
X129133809Y-117138152D02*
X129229047Y-117185771D01*
X129229047Y-117185771D02*
X129276666Y-117233390D01*
X129276666Y-117233390D02*
X129324285Y-117328628D01*
X129324285Y-117328628D02*
X129324285Y-117614342D01*
X129324285Y-117614342D02*
X129276666Y-117709580D01*
X129276666Y-117709580D02*
X129229047Y-117757200D01*
X129229047Y-117757200D02*
X129133809Y-117804819D01*
X129133809Y-117804819D02*
X128990952Y-117804819D01*
X129752857Y-117138152D02*
X129752857Y-118138152D01*
X129752857Y-117185771D02*
X129848095Y-117138152D01*
X129848095Y-117138152D02*
X130038571Y-117138152D01*
X130038571Y-117138152D02*
X130133809Y-117185771D01*
X130133809Y-117185771D02*
X130181428Y-117233390D01*
X130181428Y-117233390D02*
X130229047Y-117328628D01*
X130229047Y-117328628D02*
X130229047Y-117614342D01*
X130229047Y-117614342D02*
X130181428Y-117709580D01*
X130181428Y-117709580D02*
X130133809Y-117757200D01*
X130133809Y-117757200D02*
X130038571Y-117804819D01*
X130038571Y-117804819D02*
X129848095Y-117804819D01*
X129848095Y-117804819D02*
X129752857Y-117757200D01*
X130800476Y-117804819D02*
X130705238Y-117757200D01*
X130705238Y-117757200D02*
X130657619Y-117709580D01*
X130657619Y-117709580D02*
X130610000Y-117614342D01*
X130610000Y-117614342D02*
X130610000Y-117328628D01*
X130610000Y-117328628D02*
X130657619Y-117233390D01*
X130657619Y-117233390D02*
X130705238Y-117185771D01*
X130705238Y-117185771D02*
X130800476Y-117138152D01*
X130800476Y-117138152D02*
X130943333Y-117138152D01*
X130943333Y-117138152D02*
X131038571Y-117185771D01*
X131038571Y-117185771D02*
X131086190Y-117233390D01*
X131086190Y-117233390D02*
X131133809Y-117328628D01*
X131133809Y-117328628D02*
X131133809Y-117614342D01*
X131133809Y-117614342D02*
X131086190Y-117709580D01*
X131086190Y-117709580D02*
X131038571Y-117757200D01*
X131038571Y-117757200D02*
X130943333Y-117804819D01*
X130943333Y-117804819D02*
X130800476Y-117804819D01*
X131562381Y-117138152D02*
X131562381Y-118138152D01*
X131562381Y-117185771D02*
X131657619Y-117138152D01*
X131657619Y-117138152D02*
X131848095Y-117138152D01*
X131848095Y-117138152D02*
X131943333Y-117185771D01*
X131943333Y-117185771D02*
X131990952Y-117233390D01*
X131990952Y-117233390D02*
X132038571Y-117328628D01*
X132038571Y-117328628D02*
X132038571Y-117614342D01*
X132038571Y-117614342D02*
X131990952Y-117709580D01*
X131990952Y-117709580D02*
X131943333Y-117757200D01*
X131943333Y-117757200D02*
X131848095Y-117804819D01*
X131848095Y-117804819D02*
X131657619Y-117804819D01*
X131657619Y-117804819D02*
X131562381Y-117757200D01*
X132610000Y-117804819D02*
X132514762Y-117757200D01*
X132514762Y-117757200D02*
X132467143Y-117709580D01*
X132467143Y-117709580D02*
X132419524Y-117614342D01*
X132419524Y-117614342D02*
X132419524Y-117328628D01*
X132419524Y-117328628D02*
X132467143Y-117233390D01*
X132467143Y-117233390D02*
X132514762Y-117185771D01*
X132514762Y-117185771D02*
X132610000Y-117138152D01*
X132610000Y-117138152D02*
X132752857Y-117138152D01*
X132752857Y-117138152D02*
X132848095Y-117185771D01*
X132848095Y-117185771D02*
X132895714Y-117233390D01*
X132895714Y-117233390D02*
X132943333Y-117328628D01*
X132943333Y-117328628D02*
X132943333Y-117614342D01*
X132943333Y-117614342D02*
X132895714Y-117709580D01*
X132895714Y-117709580D02*
X132848095Y-117757200D01*
X132848095Y-117757200D02*
X132752857Y-117804819D01*
X132752857Y-117804819D02*
X132610000Y-117804819D01*
X120043095Y-118905057D02*
X120090714Y-118857438D01*
X120090714Y-118857438D02*
X120185952Y-118809819D01*
X120185952Y-118809819D02*
X120424047Y-118809819D01*
X120424047Y-118809819D02*
X120519285Y-118857438D01*
X120519285Y-118857438D02*
X120566904Y-118905057D01*
X120566904Y-118905057D02*
X120614523Y-119000295D01*
X120614523Y-119000295D02*
X120614523Y-119095533D01*
X120614523Y-119095533D02*
X120566904Y-119238390D01*
X120566904Y-119238390D02*
X119995476Y-119809819D01*
X119995476Y-119809819D02*
X120614523Y-119809819D01*
X121233571Y-118809819D02*
X121328809Y-118809819D01*
X121328809Y-118809819D02*
X121424047Y-118857438D01*
X121424047Y-118857438D02*
X121471666Y-118905057D01*
X121471666Y-118905057D02*
X121519285Y-119000295D01*
X121519285Y-119000295D02*
X121566904Y-119190771D01*
X121566904Y-119190771D02*
X121566904Y-119428866D01*
X121566904Y-119428866D02*
X121519285Y-119619342D01*
X121519285Y-119619342D02*
X121471666Y-119714580D01*
X121471666Y-119714580D02*
X121424047Y-119762200D01*
X121424047Y-119762200D02*
X121328809Y-119809819D01*
X121328809Y-119809819D02*
X121233571Y-119809819D01*
X121233571Y-119809819D02*
X121138333Y-119762200D01*
X121138333Y-119762200D02*
X121090714Y-119714580D01*
X121090714Y-119714580D02*
X121043095Y-119619342D01*
X121043095Y-119619342D02*
X120995476Y-119428866D01*
X120995476Y-119428866D02*
X120995476Y-119190771D01*
X120995476Y-119190771D02*
X121043095Y-119000295D01*
X121043095Y-119000295D02*
X121090714Y-118905057D01*
X121090714Y-118905057D02*
X121138333Y-118857438D01*
X121138333Y-118857438D02*
X121233571Y-118809819D01*
X121947857Y-118905057D02*
X121995476Y-118857438D01*
X121995476Y-118857438D02*
X122090714Y-118809819D01*
X122090714Y-118809819D02*
X122328809Y-118809819D01*
X122328809Y-118809819D02*
X122424047Y-118857438D01*
X122424047Y-118857438D02*
X122471666Y-118905057D01*
X122471666Y-118905057D02*
X122519285Y-119000295D01*
X122519285Y-119000295D02*
X122519285Y-119095533D01*
X122519285Y-119095533D02*
X122471666Y-119238390D01*
X122471666Y-119238390D02*
X121900238Y-119809819D01*
X121900238Y-119809819D02*
X122519285Y-119809819D01*
X123376428Y-118809819D02*
X123185952Y-118809819D01*
X123185952Y-118809819D02*
X123090714Y-118857438D01*
X123090714Y-118857438D02*
X123043095Y-118905057D01*
X123043095Y-118905057D02*
X122947857Y-119047914D01*
X122947857Y-119047914D02*
X122900238Y-119238390D01*
X122900238Y-119238390D02*
X122900238Y-119619342D01*
X122900238Y-119619342D02*
X122947857Y-119714580D01*
X122947857Y-119714580D02*
X122995476Y-119762200D01*
X122995476Y-119762200D02*
X123090714Y-119809819D01*
X123090714Y-119809819D02*
X123281190Y-119809819D01*
X123281190Y-119809819D02*
X123376428Y-119762200D01*
X123376428Y-119762200D02*
X123424047Y-119714580D01*
X123424047Y-119714580D02*
X123471666Y-119619342D01*
X123471666Y-119619342D02*
X123471666Y-119381247D01*
X123471666Y-119381247D02*
X123424047Y-119286009D01*
X123424047Y-119286009D02*
X123376428Y-119238390D01*
X123376428Y-119238390D02*
X123281190Y-119190771D01*
X123281190Y-119190771D02*
X123090714Y-119190771D01*
X123090714Y-119190771D02*
X122995476Y-119238390D01*
X122995476Y-119238390D02*
X122947857Y-119286009D01*
X122947857Y-119286009D02*
X122900238Y-119381247D01*
X124519286Y-118809819D02*
X124852619Y-119809819D01*
X124852619Y-119809819D02*
X125185952Y-118809819D01*
X125900238Y-119762200D02*
X125805000Y-119809819D01*
X125805000Y-119809819D02*
X125614524Y-119809819D01*
X125614524Y-119809819D02*
X125519286Y-119762200D01*
X125519286Y-119762200D02*
X125471667Y-119666961D01*
X125471667Y-119666961D02*
X125471667Y-119286009D01*
X125471667Y-119286009D02*
X125519286Y-119190771D01*
X125519286Y-119190771D02*
X125614524Y-119143152D01*
X125614524Y-119143152D02*
X125805000Y-119143152D01*
X125805000Y-119143152D02*
X125900238Y-119190771D01*
X125900238Y-119190771D02*
X125947857Y-119286009D01*
X125947857Y-119286009D02*
X125947857Y-119381247D01*
X125947857Y-119381247D02*
X125471667Y-119476485D01*
X126376429Y-119809819D02*
X126376429Y-119143152D01*
X126376429Y-119333628D02*
X126424048Y-119238390D01*
X126424048Y-119238390D02*
X126471667Y-119190771D01*
X126471667Y-119190771D02*
X126566905Y-119143152D01*
X126566905Y-119143152D02*
X126662143Y-119143152D01*
X126995477Y-119714580D02*
X127043096Y-119762200D01*
X127043096Y-119762200D02*
X126995477Y-119809819D01*
X126995477Y-119809819D02*
X126947858Y-119762200D01*
X126947858Y-119762200D02*
X126995477Y-119714580D01*
X126995477Y-119714580D02*
X126995477Y-119809819D01*
X128757381Y-119809819D02*
X128185953Y-119809819D01*
X128471667Y-119809819D02*
X128471667Y-118809819D01*
X128471667Y-118809819D02*
X128376429Y-118952676D01*
X128376429Y-118952676D02*
X128281191Y-119047914D01*
X128281191Y-119047914D02*
X128185953Y-119095533D01*
X129185953Y-119714580D02*
X129233572Y-119762200D01*
X129233572Y-119762200D02*
X129185953Y-119809819D01*
X129185953Y-119809819D02*
X129138334Y-119762200D01*
X129138334Y-119762200D02*
X129185953Y-119714580D01*
X129185953Y-119714580D02*
X129185953Y-119809819D01*
X130090714Y-119143152D02*
X130090714Y-119809819D01*
X129852619Y-118762200D02*
X129614524Y-119476485D01*
X129614524Y-119476485D02*
X130233571Y-119476485D01*
X130614524Y-119714580D02*
X130662143Y-119762200D01*
X130662143Y-119762200D02*
X130614524Y-119809819D01*
X130614524Y-119809819D02*
X130566905Y-119762200D01*
X130566905Y-119762200D02*
X130614524Y-119714580D01*
X130614524Y-119714580D02*
X130614524Y-119809819D01*
X131519285Y-119143152D02*
X131519285Y-119952676D01*
X131519285Y-119952676D02*
X131471666Y-120047914D01*
X131471666Y-120047914D02*
X131424047Y-120095533D01*
X131424047Y-120095533D02*
X131328809Y-120143152D01*
X131328809Y-120143152D02*
X131185952Y-120143152D01*
X131185952Y-120143152D02*
X131090714Y-120095533D01*
X131519285Y-119762200D02*
X131424047Y-119809819D01*
X131424047Y-119809819D02*
X131233571Y-119809819D01*
X131233571Y-119809819D02*
X131138333Y-119762200D01*
X131138333Y-119762200D02*
X131090714Y-119714580D01*
X131090714Y-119714580D02*
X131043095Y-119619342D01*
X131043095Y-119619342D02*
X131043095Y-119333628D01*
X131043095Y-119333628D02*
X131090714Y-119238390D01*
X131090714Y-119238390D02*
X131138333Y-119190771D01*
X131138333Y-119190771D02*
X131233571Y-119143152D01*
X131233571Y-119143152D02*
X131424047Y-119143152D01*
X131424047Y-119143152D02*
X131519285Y-119190771D01*
X119752142Y-115336009D02*
X119894999Y-115383628D01*
X119894999Y-115383628D02*
X119942618Y-115431247D01*
X119942618Y-115431247D02*
X119990237Y-115526485D01*
X119990237Y-115526485D02*
X119990237Y-115669342D01*
X119990237Y-115669342D02*
X119942618Y-115764580D01*
X119942618Y-115764580D02*
X119894999Y-115812200D01*
X119894999Y-115812200D02*
X119799761Y-115859819D01*
X119799761Y-115859819D02*
X119418809Y-115859819D01*
X119418809Y-115859819D02*
X119418809Y-114859819D01*
X119418809Y-114859819D02*
X119752142Y-114859819D01*
X119752142Y-114859819D02*
X119847380Y-114907438D01*
X119847380Y-114907438D02*
X119894999Y-114955057D01*
X119894999Y-114955057D02*
X119942618Y-115050295D01*
X119942618Y-115050295D02*
X119942618Y-115145533D01*
X119942618Y-115145533D02*
X119894999Y-115240771D01*
X119894999Y-115240771D02*
X119847380Y-115288390D01*
X119847380Y-115288390D02*
X119752142Y-115336009D01*
X119752142Y-115336009D02*
X119418809Y-115336009D01*
X120323571Y-115193152D02*
X120561666Y-115859819D01*
X120799761Y-115193152D02*
X120561666Y-115859819D01*
X120561666Y-115859819D02*
X120466428Y-116097914D01*
X120466428Y-116097914D02*
X120418809Y-116145533D01*
X120418809Y-116145533D02*
X120323571Y-116193152D01*
X121942619Y-115336009D02*
X122275952Y-115336009D01*
X122418809Y-115859819D02*
X121942619Y-115859819D01*
X121942619Y-115859819D02*
X121942619Y-114859819D01*
X121942619Y-114859819D02*
X122418809Y-114859819D01*
X122990238Y-115859819D02*
X122895000Y-115812200D01*
X122895000Y-115812200D02*
X122847381Y-115716961D01*
X122847381Y-115716961D02*
X122847381Y-114859819D01*
X124133096Y-115859819D02*
X124133096Y-114859819D01*
X124133096Y-114859819D02*
X124371191Y-114859819D01*
X124371191Y-114859819D02*
X124514048Y-114907438D01*
X124514048Y-114907438D02*
X124609286Y-115002676D01*
X124609286Y-115002676D02*
X124656905Y-115097914D01*
X124656905Y-115097914D02*
X124704524Y-115288390D01*
X124704524Y-115288390D02*
X124704524Y-115431247D01*
X124704524Y-115431247D02*
X124656905Y-115621723D01*
X124656905Y-115621723D02*
X124609286Y-115716961D01*
X124609286Y-115716961D02*
X124514048Y-115812200D01*
X124514048Y-115812200D02*
X124371191Y-115859819D01*
X124371191Y-115859819D02*
X124133096Y-115859819D01*
X125133096Y-115859819D02*
X125133096Y-115193152D01*
X125133096Y-115383628D02*
X125180715Y-115288390D01*
X125180715Y-115288390D02*
X125228334Y-115240771D01*
X125228334Y-115240771D02*
X125323572Y-115193152D01*
X125323572Y-115193152D02*
X125418810Y-115193152D01*
X125752144Y-115764580D02*
X125799763Y-115812200D01*
X125799763Y-115812200D02*
X125752144Y-115859819D01*
X125752144Y-115859819D02*
X125704525Y-115812200D01*
X125704525Y-115812200D02*
X125752144Y-115764580D01*
X125752144Y-115764580D02*
X125752144Y-115859819D01*
X127514048Y-114907438D02*
X127418810Y-114859819D01*
X127418810Y-114859819D02*
X127275953Y-114859819D01*
X127275953Y-114859819D02*
X127133096Y-114907438D01*
X127133096Y-114907438D02*
X127037858Y-115002676D01*
X127037858Y-115002676D02*
X126990239Y-115097914D01*
X126990239Y-115097914D02*
X126942620Y-115288390D01*
X126942620Y-115288390D02*
X126942620Y-115431247D01*
X126942620Y-115431247D02*
X126990239Y-115621723D01*
X126990239Y-115621723D02*
X127037858Y-115716961D01*
X127037858Y-115716961D02*
X127133096Y-115812200D01*
X127133096Y-115812200D02*
X127275953Y-115859819D01*
X127275953Y-115859819D02*
X127371191Y-115859819D01*
X127371191Y-115859819D02*
X127514048Y-115812200D01*
X127514048Y-115812200D02*
X127561667Y-115764580D01*
X127561667Y-115764580D02*
X127561667Y-115431247D01*
X127561667Y-115431247D02*
X127371191Y-115431247D01*
X128418810Y-115193152D02*
X128418810Y-115859819D01*
X127990239Y-115193152D02*
X127990239Y-115716961D01*
X127990239Y-115716961D02*
X128037858Y-115812200D01*
X128037858Y-115812200D02*
X128133096Y-115859819D01*
X128133096Y-115859819D02*
X128275953Y-115859819D01*
X128275953Y-115859819D02*
X128371191Y-115812200D01*
X128371191Y-115812200D02*
X128418810Y-115764580D01*
X128847382Y-115812200D02*
X128942620Y-115859819D01*
X128942620Y-115859819D02*
X129133096Y-115859819D01*
X129133096Y-115859819D02*
X129228334Y-115812200D01*
X129228334Y-115812200D02*
X129275953Y-115716961D01*
X129275953Y-115716961D02*
X129275953Y-115669342D01*
X129275953Y-115669342D02*
X129228334Y-115574104D01*
X129228334Y-115574104D02*
X129133096Y-115526485D01*
X129133096Y-115526485D02*
X128990239Y-115526485D01*
X128990239Y-115526485D02*
X128895001Y-115478866D01*
X128895001Y-115478866D02*
X128847382Y-115383628D01*
X128847382Y-115383628D02*
X128847382Y-115336009D01*
X128847382Y-115336009D02*
X128895001Y-115240771D01*
X128895001Y-115240771D02*
X128990239Y-115193152D01*
X128990239Y-115193152D02*
X129133096Y-115193152D01*
X129133096Y-115193152D02*
X129228334Y-115240771D01*
X129704525Y-115859819D02*
X129704525Y-115193152D01*
X129704525Y-115288390D02*
X129752144Y-115240771D01*
X129752144Y-115240771D02*
X129847382Y-115193152D01*
X129847382Y-115193152D02*
X129990239Y-115193152D01*
X129990239Y-115193152D02*
X130085477Y-115240771D01*
X130085477Y-115240771D02*
X130133096Y-115336009D01*
X130133096Y-115336009D02*
X130133096Y-115859819D01*
X130133096Y-115336009D02*
X130180715Y-115240771D01*
X130180715Y-115240771D02*
X130275953Y-115193152D01*
X130275953Y-115193152D02*
X130418810Y-115193152D01*
X130418810Y-115193152D02*
X130514049Y-115240771D01*
X130514049Y-115240771D02*
X130561668Y-115336009D01*
X130561668Y-115336009D02*
X130561668Y-115859819D01*
X131466429Y-115859819D02*
X131466429Y-115336009D01*
X131466429Y-115336009D02*
X131418810Y-115240771D01*
X131418810Y-115240771D02*
X131323572Y-115193152D01*
X131323572Y-115193152D02*
X131133096Y-115193152D01*
X131133096Y-115193152D02*
X131037858Y-115240771D01*
X131466429Y-115812200D02*
X131371191Y-115859819D01*
X131371191Y-115859819D02*
X131133096Y-115859819D01*
X131133096Y-115859819D02*
X131037858Y-115812200D01*
X131037858Y-115812200D02*
X130990239Y-115716961D01*
X130990239Y-115716961D02*
X130990239Y-115621723D01*
X130990239Y-115621723D02*
X131037858Y-115526485D01*
X131037858Y-115526485D02*
X131133096Y-115478866D01*
X131133096Y-115478866D02*
X131371191Y-115478866D01*
X131371191Y-115478866D02*
X131466429Y-115431247D01*
X131942620Y-115193152D02*
X131942620Y-115859819D01*
X131942620Y-115288390D02*
X131990239Y-115240771D01*
X131990239Y-115240771D02*
X132085477Y-115193152D01*
X132085477Y-115193152D02*
X132228334Y-115193152D01*
X132228334Y-115193152D02*
X132323572Y-115240771D01*
X132323572Y-115240771D02*
X132371191Y-115336009D01*
X132371191Y-115336009D02*
X132371191Y-115859819D01*
X177844819Y-83913220D02*
X176844819Y-83913220D01*
X177321009Y-83913220D02*
X177321009Y-83341792D01*
X177844819Y-83341792D02*
X176844819Y-83341792D01*
X177321009Y-82532268D02*
X177368628Y-82389411D01*
X177368628Y-82389411D02*
X177416247Y-82341792D01*
X177416247Y-82341792D02*
X177511485Y-82294173D01*
X177511485Y-82294173D02*
X177654342Y-82294173D01*
X177654342Y-82294173D02*
X177749580Y-82341792D01*
X177749580Y-82341792D02*
X177797200Y-82389411D01*
X177797200Y-82389411D02*
X177844819Y-82484649D01*
X177844819Y-82484649D02*
X177844819Y-82865601D01*
X177844819Y-82865601D02*
X176844819Y-82865601D01*
X176844819Y-82865601D02*
X176844819Y-82532268D01*
X176844819Y-82532268D02*
X176892438Y-82437030D01*
X176892438Y-82437030D02*
X176940057Y-82389411D01*
X176940057Y-82389411D02*
X177035295Y-82341792D01*
X177035295Y-82341792D02*
X177130533Y-82341792D01*
X177130533Y-82341792D02*
X177225771Y-82389411D01*
X177225771Y-82389411D02*
X177273390Y-82437030D01*
X177273390Y-82437030D02*
X177321009Y-82532268D01*
X177321009Y-82532268D02*
X177321009Y-82865601D01*
X177749580Y-81294173D02*
X177797200Y-81341792D01*
X177797200Y-81341792D02*
X177844819Y-81484649D01*
X177844819Y-81484649D02*
X177844819Y-81579887D01*
X177844819Y-81579887D02*
X177797200Y-81722744D01*
X177797200Y-81722744D02*
X177701961Y-81817982D01*
X177701961Y-81817982D02*
X177606723Y-81865601D01*
X177606723Y-81865601D02*
X177416247Y-81913220D01*
X177416247Y-81913220D02*
X177273390Y-81913220D01*
X177273390Y-81913220D02*
X177082914Y-81865601D01*
X177082914Y-81865601D02*
X176987676Y-81817982D01*
X176987676Y-81817982D02*
X176892438Y-81722744D01*
X176892438Y-81722744D02*
X176844819Y-81579887D01*
X176844819Y-81579887D02*
X176844819Y-81484649D01*
X176844819Y-81484649D02*
X176892438Y-81341792D01*
X176892438Y-81341792D02*
X176940057Y-81294173D01*
X177178152Y-80865601D02*
X177844819Y-80865601D01*
X177273390Y-80865601D02*
X177225771Y-80817982D01*
X177225771Y-80817982D02*
X177178152Y-80722744D01*
X177178152Y-80722744D02*
X177178152Y-80579887D01*
X177178152Y-80579887D02*
X177225771Y-80484649D01*
X177225771Y-80484649D02*
X177321009Y-80437030D01*
X177321009Y-80437030D02*
X177844819Y-80437030D01*
D12*
X119136190Y-111366304D02*
X119136190Y-112699638D01*
X118279047Y-111366304D02*
X118279047Y-112413923D01*
X118279047Y-112413923D02*
X118374285Y-112604400D01*
X118374285Y-112604400D02*
X118564761Y-112699638D01*
X118564761Y-112699638D02*
X118850476Y-112699638D01*
X118850476Y-112699638D02*
X119040952Y-112604400D01*
X119040952Y-112604400D02*
X119136190Y-112509161D01*
X120088571Y-112699638D02*
X120088571Y-110699638D01*
X120088571Y-110699638D02*
X120850476Y-110699638D01*
X120850476Y-110699638D02*
X121040952Y-110794876D01*
X121040952Y-110794876D02*
X121136190Y-110890114D01*
X121136190Y-110890114D02*
X121231428Y-111080590D01*
X121231428Y-111080590D02*
X121231428Y-111366304D01*
X121231428Y-111366304D02*
X121136190Y-111556780D01*
X121136190Y-111556780D02*
X121040952Y-111652019D01*
X121040952Y-111652019D02*
X120850476Y-111747257D01*
X120850476Y-111747257D02*
X120088571Y-111747257D01*
X122088571Y-112699638D02*
X122088571Y-111366304D01*
X122088571Y-110699638D02*
X121993333Y-110794876D01*
X121993333Y-110794876D02*
X122088571Y-110890114D01*
X122088571Y-110890114D02*
X122183809Y-110794876D01*
X122183809Y-110794876D02*
X122088571Y-110699638D01*
X122088571Y-110699638D02*
X122088571Y-110890114D01*
X123898095Y-112604400D02*
X123707619Y-112699638D01*
X123707619Y-112699638D02*
X123326666Y-112699638D01*
X123326666Y-112699638D02*
X123136190Y-112604400D01*
X123136190Y-112604400D02*
X123040952Y-112509161D01*
X123040952Y-112509161D02*
X122945714Y-112318685D01*
X122945714Y-112318685D02*
X122945714Y-111747257D01*
X122945714Y-111747257D02*
X123040952Y-111556780D01*
X123040952Y-111556780D02*
X123136190Y-111461542D01*
X123136190Y-111461542D02*
X123326666Y-111366304D01*
X123326666Y-111366304D02*
X123707619Y-111366304D01*
X123707619Y-111366304D02*
X123898095Y-111461542D01*
X125040952Y-112699638D02*
X124850476Y-112604400D01*
X124850476Y-112604400D02*
X124755238Y-112509161D01*
X124755238Y-112509161D02*
X124660000Y-112318685D01*
X124660000Y-112318685D02*
X124660000Y-111747257D01*
X124660000Y-111747257D02*
X124755238Y-111556780D01*
X124755238Y-111556780D02*
X124850476Y-111461542D01*
X124850476Y-111461542D02*
X125040952Y-111366304D01*
X125040952Y-111366304D02*
X125326667Y-111366304D01*
X125326667Y-111366304D02*
X125517143Y-111461542D01*
X125517143Y-111461542D02*
X125612381Y-111556780D01*
X125612381Y-111556780D02*
X125707619Y-111747257D01*
X125707619Y-111747257D02*
X125707619Y-112318685D01*
X125707619Y-112318685D02*
X125612381Y-112509161D01*
X125612381Y-112509161D02*
X125517143Y-112604400D01*
X125517143Y-112604400D02*
X125326667Y-112699638D01*
X125326667Y-112699638D02*
X125040952Y-112699638D01*
X126564762Y-112699638D02*
X126564762Y-110699638D01*
X126564762Y-110699638D02*
X127040952Y-110699638D01*
X127040952Y-110699638D02*
X127326667Y-110794876D01*
X127326667Y-110794876D02*
X127517143Y-110985352D01*
X127517143Y-110985352D02*
X127612381Y-111175828D01*
X127612381Y-111175828D02*
X127707619Y-111556780D01*
X127707619Y-111556780D02*
X127707619Y-111842495D01*
X127707619Y-111842495D02*
X127612381Y-112223447D01*
X127612381Y-112223447D02*
X127517143Y-112413923D01*
X127517143Y-112413923D02*
X127326667Y-112604400D01*
X127326667Y-112604400D02*
X127040952Y-112699638D01*
X127040952Y-112699638D02*
X126564762Y-112699638D01*
X128564762Y-112699638D02*
X128564762Y-111366304D01*
X128564762Y-111747257D02*
X128660000Y-111556780D01*
X128660000Y-111556780D02*
X128755238Y-111461542D01*
X128755238Y-111461542D02*
X128945714Y-111366304D01*
X128945714Y-111366304D02*
X129136191Y-111366304D01*
X129802857Y-112699638D02*
X129802857Y-111366304D01*
X129802857Y-110699638D02*
X129707619Y-110794876D01*
X129707619Y-110794876D02*
X129802857Y-110890114D01*
X129802857Y-110890114D02*
X129898095Y-110794876D01*
X129898095Y-110794876D02*
X129802857Y-110699638D01*
X129802857Y-110699638D02*
X129802857Y-110890114D01*
X130564762Y-111366304D02*
X131040952Y-112699638D01*
X131040952Y-112699638D02*
X131517143Y-111366304D01*
X133040953Y-112604400D02*
X132850477Y-112699638D01*
X132850477Y-112699638D02*
X132469524Y-112699638D01*
X132469524Y-112699638D02*
X132279048Y-112604400D01*
X132279048Y-112604400D02*
X132183810Y-112413923D01*
X132183810Y-112413923D02*
X132183810Y-111652019D01*
X132183810Y-111652019D02*
X132279048Y-111461542D01*
X132279048Y-111461542D02*
X132469524Y-111366304D01*
X132469524Y-111366304D02*
X132850477Y-111366304D01*
X132850477Y-111366304D02*
X133040953Y-111461542D01*
X133040953Y-111461542D02*
X133136191Y-111652019D01*
X133136191Y-111652019D02*
X133136191Y-111842495D01*
X133136191Y-111842495D02*
X132183810Y-112032971D01*
D10*
X151183333Y-96359580D02*
X151135714Y-96407200D01*
X151135714Y-96407200D02*
X150992857Y-96454819D01*
X150992857Y-96454819D02*
X150897619Y-96454819D01*
X150897619Y-96454819D02*
X150754762Y-96407200D01*
X150754762Y-96407200D02*
X150659524Y-96311961D01*
X150659524Y-96311961D02*
X150611905Y-96216723D01*
X150611905Y-96216723D02*
X150564286Y-96026247D01*
X150564286Y-96026247D02*
X150564286Y-95883390D01*
X150564286Y-95883390D02*
X150611905Y-95692914D01*
X150611905Y-95692914D02*
X150659524Y-95597676D01*
X150659524Y-95597676D02*
X150754762Y-95502438D01*
X150754762Y-95502438D02*
X150897619Y-95454819D01*
X150897619Y-95454819D02*
X150992857Y-95454819D01*
X150992857Y-95454819D02*
X151135714Y-95502438D01*
X151135714Y-95502438D02*
X151183333Y-95550057D01*
X151564286Y-95550057D02*
X151611905Y-95502438D01*
X151611905Y-95502438D02*
X151707143Y-95454819D01*
X151707143Y-95454819D02*
X151945238Y-95454819D01*
X151945238Y-95454819D02*
X152040476Y-95502438D01*
X152040476Y-95502438D02*
X152088095Y-95550057D01*
X152088095Y-95550057D02*
X152135714Y-95645295D01*
X152135714Y-95645295D02*
X152135714Y-95740533D01*
X152135714Y-95740533D02*
X152088095Y-95883390D01*
X152088095Y-95883390D02*
X151516667Y-96454819D01*
X151516667Y-96454819D02*
X152135714Y-96454819D01*
X138383333Y-100259580D02*
X138335714Y-100307200D01*
X138335714Y-100307200D02*
X138192857Y-100354819D01*
X138192857Y-100354819D02*
X138097619Y-100354819D01*
X138097619Y-100354819D02*
X137954762Y-100307200D01*
X137954762Y-100307200D02*
X137859524Y-100211961D01*
X137859524Y-100211961D02*
X137811905Y-100116723D01*
X137811905Y-100116723D02*
X137764286Y-99926247D01*
X137764286Y-99926247D02*
X137764286Y-99783390D01*
X137764286Y-99783390D02*
X137811905Y-99592914D01*
X137811905Y-99592914D02*
X137859524Y-99497676D01*
X137859524Y-99497676D02*
X137954762Y-99402438D01*
X137954762Y-99402438D02*
X138097619Y-99354819D01*
X138097619Y-99354819D02*
X138192857Y-99354819D01*
X138192857Y-99354819D02*
X138335714Y-99402438D01*
X138335714Y-99402438D02*
X138383333Y-99450057D01*
X139240476Y-99688152D02*
X139240476Y-100354819D01*
X139002381Y-99307200D02*
X138764286Y-100021485D01*
X138764286Y-100021485D02*
X139383333Y-100021485D01*
D13*
X143640237Y-97939318D02*
X143640237Y-96669318D01*
X144970714Y-97818365D02*
X144910238Y-97878842D01*
X144910238Y-97878842D02*
X144728809Y-97939318D01*
X144728809Y-97939318D02*
X144607857Y-97939318D01*
X144607857Y-97939318D02*
X144426428Y-97878842D01*
X144426428Y-97878842D02*
X144305476Y-97757889D01*
X144305476Y-97757889D02*
X144244999Y-97636937D01*
X144244999Y-97636937D02*
X144184523Y-97395032D01*
X144184523Y-97395032D02*
X144184523Y-97213603D01*
X144184523Y-97213603D02*
X144244999Y-96971699D01*
X144244999Y-96971699D02*
X144305476Y-96850746D01*
X144305476Y-96850746D02*
X144426428Y-96729794D01*
X144426428Y-96729794D02*
X144607857Y-96669318D01*
X144607857Y-96669318D02*
X144728809Y-96669318D01*
X144728809Y-96669318D02*
X144910238Y-96729794D01*
X144910238Y-96729794D02*
X144970714Y-96790270D01*
X145454523Y-96790270D02*
X145514999Y-96729794D01*
X145514999Y-96729794D02*
X145635952Y-96669318D01*
X145635952Y-96669318D02*
X145938333Y-96669318D01*
X145938333Y-96669318D02*
X146059285Y-96729794D01*
X146059285Y-96729794D02*
X146119761Y-96790270D01*
X146119761Y-96790270D02*
X146180238Y-96911222D01*
X146180238Y-96911222D02*
X146180238Y-97032175D01*
X146180238Y-97032175D02*
X146119761Y-97213603D01*
X146119761Y-97213603D02*
X145394047Y-97939318D01*
X145394047Y-97939318D02*
X146180238Y-97939318D01*
D10*
X151233333Y-102059580D02*
X151185714Y-102107200D01*
X151185714Y-102107200D02*
X151042857Y-102154819D01*
X151042857Y-102154819D02*
X150947619Y-102154819D01*
X150947619Y-102154819D02*
X150804762Y-102107200D01*
X150804762Y-102107200D02*
X150709524Y-102011961D01*
X150709524Y-102011961D02*
X150661905Y-101916723D01*
X150661905Y-101916723D02*
X150614286Y-101726247D01*
X150614286Y-101726247D02*
X150614286Y-101583390D01*
X150614286Y-101583390D02*
X150661905Y-101392914D01*
X150661905Y-101392914D02*
X150709524Y-101297676D01*
X150709524Y-101297676D02*
X150804762Y-101202438D01*
X150804762Y-101202438D02*
X150947619Y-101154819D01*
X150947619Y-101154819D02*
X151042857Y-101154819D01*
X151042857Y-101154819D02*
X151185714Y-101202438D01*
X151185714Y-101202438D02*
X151233333Y-101250057D01*
X152185714Y-102154819D02*
X151614286Y-102154819D01*
X151900000Y-102154819D02*
X151900000Y-101154819D01*
X151900000Y-101154819D02*
X151804762Y-101297676D01*
X151804762Y-101297676D02*
X151709524Y-101392914D01*
X151709524Y-101392914D02*
X151614286Y-101440533D01*
X138233333Y-96609580D02*
X138185714Y-96657200D01*
X138185714Y-96657200D02*
X138042857Y-96704819D01*
X138042857Y-96704819D02*
X137947619Y-96704819D01*
X137947619Y-96704819D02*
X137804762Y-96657200D01*
X137804762Y-96657200D02*
X137709524Y-96561961D01*
X137709524Y-96561961D02*
X137661905Y-96466723D01*
X137661905Y-96466723D02*
X137614286Y-96276247D01*
X137614286Y-96276247D02*
X137614286Y-96133390D01*
X137614286Y-96133390D02*
X137661905Y-95942914D01*
X137661905Y-95942914D02*
X137709524Y-95847676D01*
X137709524Y-95847676D02*
X137804762Y-95752438D01*
X137804762Y-95752438D02*
X137947619Y-95704819D01*
X137947619Y-95704819D02*
X138042857Y-95704819D01*
X138042857Y-95704819D02*
X138185714Y-95752438D01*
X138185714Y-95752438D02*
X138233333Y-95800057D01*
X139138095Y-95704819D02*
X138661905Y-95704819D01*
X138661905Y-95704819D02*
X138614286Y-96181009D01*
X138614286Y-96181009D02*
X138661905Y-96133390D01*
X138661905Y-96133390D02*
X138757143Y-96085771D01*
X138757143Y-96085771D02*
X138995238Y-96085771D01*
X138995238Y-96085771D02*
X139090476Y-96133390D01*
X139090476Y-96133390D02*
X139138095Y-96181009D01*
X139138095Y-96181009D02*
X139185714Y-96276247D01*
X139185714Y-96276247D02*
X139185714Y-96514342D01*
X139185714Y-96514342D02*
X139138095Y-96609580D01*
X139138095Y-96609580D02*
X139090476Y-96657200D01*
X139090476Y-96657200D02*
X138995238Y-96704819D01*
X138995238Y-96704819D02*
X138757143Y-96704819D01*
X138757143Y-96704819D02*
X138661905Y-96657200D01*
X138661905Y-96657200D02*
X138614286Y-96609580D01*
D13*
X143760237Y-91854318D02*
X143760237Y-90584318D01*
X145090714Y-91733365D02*
X145030238Y-91793842D01*
X145030238Y-91793842D02*
X144848809Y-91854318D01*
X144848809Y-91854318D02*
X144727857Y-91854318D01*
X144727857Y-91854318D02*
X144546428Y-91793842D01*
X144546428Y-91793842D02*
X144425476Y-91672889D01*
X144425476Y-91672889D02*
X144364999Y-91551937D01*
X144364999Y-91551937D02*
X144304523Y-91310032D01*
X144304523Y-91310032D02*
X144304523Y-91128603D01*
X144304523Y-91128603D02*
X144364999Y-90886699D01*
X144364999Y-90886699D02*
X144425476Y-90765746D01*
X144425476Y-90765746D02*
X144546428Y-90644794D01*
X144546428Y-90644794D02*
X144727857Y-90584318D01*
X144727857Y-90584318D02*
X144848809Y-90584318D01*
X144848809Y-90584318D02*
X145030238Y-90644794D01*
X145030238Y-90644794D02*
X145090714Y-90705270D01*
X146300238Y-91854318D02*
X145574523Y-91854318D01*
X145937380Y-91854318D02*
X145937380Y-90584318D01*
X145937380Y-90584318D02*
X145816428Y-90765746D01*
X145816428Y-90765746D02*
X145695476Y-90886699D01*
X145695476Y-90886699D02*
X145574523Y-90947175D01*
D10*
X136324819Y-118026666D02*
X135848628Y-118359999D01*
X136324819Y-118598094D02*
X135324819Y-118598094D01*
X135324819Y-118598094D02*
X135324819Y-118217142D01*
X135324819Y-118217142D02*
X135372438Y-118121904D01*
X135372438Y-118121904D02*
X135420057Y-118074285D01*
X135420057Y-118074285D02*
X135515295Y-118026666D01*
X135515295Y-118026666D02*
X135658152Y-118026666D01*
X135658152Y-118026666D02*
X135753390Y-118074285D01*
X135753390Y-118074285D02*
X135801009Y-118121904D01*
X135801009Y-118121904D02*
X135848628Y-118217142D01*
X135848628Y-118217142D02*
X135848628Y-118598094D01*
X135324819Y-117693332D02*
X135324819Y-117074285D01*
X135324819Y-117074285D02*
X135705771Y-117407618D01*
X135705771Y-117407618D02*
X135705771Y-117264761D01*
X135705771Y-117264761D02*
X135753390Y-117169523D01*
X135753390Y-117169523D02*
X135801009Y-117121904D01*
X135801009Y-117121904D02*
X135896247Y-117074285D01*
X135896247Y-117074285D02*
X136134342Y-117074285D01*
X136134342Y-117074285D02*
X136229580Y-117121904D01*
X136229580Y-117121904D02*
X136277200Y-117169523D01*
X136277200Y-117169523D02*
X136324819Y-117264761D01*
X136324819Y-117264761D02*
X136324819Y-117550475D01*
X136324819Y-117550475D02*
X136277200Y-117645713D01*
X136277200Y-117645713D02*
X136229580Y-117693332D01*
X150514819Y-80683333D02*
X151229104Y-80683333D01*
X151229104Y-80683333D02*
X151371961Y-80730952D01*
X151371961Y-80730952D02*
X151467200Y-80826190D01*
X151467200Y-80826190D02*
X151514819Y-80969047D01*
X151514819Y-80969047D02*
X151514819Y-81064285D01*
X150610057Y-80254761D02*
X150562438Y-80207142D01*
X150562438Y-80207142D02*
X150514819Y-80111904D01*
X150514819Y-80111904D02*
X150514819Y-79873809D01*
X150514819Y-79873809D02*
X150562438Y-79778571D01*
X150562438Y-79778571D02*
X150610057Y-79730952D01*
X150610057Y-79730952D02*
X150705295Y-79683333D01*
X150705295Y-79683333D02*
X150800533Y-79683333D01*
X150800533Y-79683333D02*
X150943390Y-79730952D01*
X150943390Y-79730952D02*
X151514819Y-80302380D01*
X151514819Y-80302380D02*
X151514819Y-79683333D01*
X147493754Y-82374580D02*
X147446135Y-82422200D01*
X147446135Y-82422200D02*
X147303278Y-82469819D01*
X147303278Y-82469819D02*
X147208040Y-82469819D01*
X147208040Y-82469819D02*
X147065183Y-82422200D01*
X147065183Y-82422200D02*
X146969945Y-82326961D01*
X146969945Y-82326961D02*
X146922326Y-82231723D01*
X146922326Y-82231723D02*
X146874707Y-82041247D01*
X146874707Y-82041247D02*
X146874707Y-81898390D01*
X146874707Y-81898390D02*
X146922326Y-81707914D01*
X146922326Y-81707914D02*
X146969945Y-81612676D01*
X146969945Y-81612676D02*
X147065183Y-81517438D01*
X147065183Y-81517438D02*
X147208040Y-81469819D01*
X147208040Y-81469819D02*
X147303278Y-81469819D01*
X147303278Y-81469819D02*
X147446135Y-81517438D01*
X147446135Y-81517438D02*
X147493754Y-81565057D01*
X147827088Y-81469819D02*
X148446135Y-81469819D01*
X148446135Y-81469819D02*
X148112802Y-81850771D01*
X148112802Y-81850771D02*
X148255659Y-81850771D01*
X148255659Y-81850771D02*
X148350897Y-81898390D01*
X148350897Y-81898390D02*
X148398516Y-81946009D01*
X148398516Y-81946009D02*
X148446135Y-82041247D01*
X148446135Y-82041247D02*
X148446135Y-82279342D01*
X148446135Y-82279342D02*
X148398516Y-82374580D01*
X148398516Y-82374580D02*
X148350897Y-82422200D01*
X148350897Y-82422200D02*
X148255659Y-82469819D01*
X148255659Y-82469819D02*
X147969945Y-82469819D01*
X147969945Y-82469819D02*
X147874707Y-82422200D01*
X147874707Y-82422200D02*
X147827088Y-82374580D01*
X128374405Y-98634819D02*
X128374405Y-97634819D01*
X128374405Y-97634819D02*
X128612500Y-97634819D01*
X128612500Y-97634819D02*
X128755357Y-97682438D01*
X128755357Y-97682438D02*
X128850595Y-97777676D01*
X128850595Y-97777676D02*
X128898214Y-97872914D01*
X128898214Y-97872914D02*
X128945833Y-98063390D01*
X128945833Y-98063390D02*
X128945833Y-98206247D01*
X128945833Y-98206247D02*
X128898214Y-98396723D01*
X128898214Y-98396723D02*
X128850595Y-98491961D01*
X128850595Y-98491961D02*
X128755357Y-98587200D01*
X128755357Y-98587200D02*
X128612500Y-98634819D01*
X128612500Y-98634819D02*
X128374405Y-98634819D01*
X129898214Y-98634819D02*
X129326786Y-98634819D01*
X129612500Y-98634819D02*
X129612500Y-97634819D01*
X129612500Y-97634819D02*
X129517262Y-97777676D01*
X129517262Y-97777676D02*
X129422024Y-97872914D01*
X129422024Y-97872914D02*
X129326786Y-97920533D01*
X170253095Y-104664819D02*
X170253095Y-105474342D01*
X170253095Y-105474342D02*
X170300714Y-105569580D01*
X170300714Y-105569580D02*
X170348333Y-105617200D01*
X170348333Y-105617200D02*
X170443571Y-105664819D01*
X170443571Y-105664819D02*
X170634047Y-105664819D01*
X170634047Y-105664819D02*
X170729285Y-105617200D01*
X170729285Y-105617200D02*
X170776904Y-105569580D01*
X170776904Y-105569580D02*
X170824523Y-105474342D01*
X170824523Y-105474342D02*
X170824523Y-104664819D01*
X171824523Y-105664819D02*
X171253095Y-105664819D01*
X171538809Y-105664819D02*
X171538809Y-104664819D01*
X171538809Y-104664819D02*
X171443571Y-104807676D01*
X171443571Y-104807676D02*
X171348333Y-104902914D01*
X171348333Y-104902914D02*
X171253095Y-104950533D01*
X135507912Y-82154580D02*
X135460293Y-82202200D01*
X135460293Y-82202200D02*
X135317436Y-82249819D01*
X135317436Y-82249819D02*
X135222198Y-82249819D01*
X135222198Y-82249819D02*
X135079341Y-82202200D01*
X135079341Y-82202200D02*
X134984103Y-82106961D01*
X134984103Y-82106961D02*
X134936484Y-82011723D01*
X134936484Y-82011723D02*
X134888865Y-81821247D01*
X134888865Y-81821247D02*
X134888865Y-81678390D01*
X134888865Y-81678390D02*
X134936484Y-81487914D01*
X134936484Y-81487914D02*
X134984103Y-81392676D01*
X134984103Y-81392676D02*
X135079341Y-81297438D01*
X135079341Y-81297438D02*
X135222198Y-81249819D01*
X135222198Y-81249819D02*
X135317436Y-81249819D01*
X135317436Y-81249819D02*
X135460293Y-81297438D01*
X135460293Y-81297438D02*
X135507912Y-81345057D01*
X136365055Y-81249819D02*
X136174579Y-81249819D01*
X136174579Y-81249819D02*
X136079341Y-81297438D01*
X136079341Y-81297438D02*
X136031722Y-81345057D01*
X136031722Y-81345057D02*
X135936484Y-81487914D01*
X135936484Y-81487914D02*
X135888865Y-81678390D01*
X135888865Y-81678390D02*
X135888865Y-82059342D01*
X135888865Y-82059342D02*
X135936484Y-82154580D01*
X135936484Y-82154580D02*
X135984103Y-82202200D01*
X135984103Y-82202200D02*
X136079341Y-82249819D01*
X136079341Y-82249819D02*
X136269817Y-82249819D01*
X136269817Y-82249819D02*
X136365055Y-82202200D01*
X136365055Y-82202200D02*
X136412674Y-82154580D01*
X136412674Y-82154580D02*
X136460293Y-82059342D01*
X136460293Y-82059342D02*
X136460293Y-81821247D01*
X136460293Y-81821247D02*
X136412674Y-81726009D01*
X136412674Y-81726009D02*
X136365055Y-81678390D01*
X136365055Y-81678390D02*
X136269817Y-81630771D01*
X136269817Y-81630771D02*
X136079341Y-81630771D01*
X136079341Y-81630771D02*
X135984103Y-81678390D01*
X135984103Y-81678390D02*
X135936484Y-81726009D01*
X135936484Y-81726009D02*
X135888865Y-81821247D01*
X131304761Y-124279819D02*
X130971428Y-123803628D01*
X130733333Y-124279819D02*
X130733333Y-123279819D01*
X130733333Y-123279819D02*
X131114285Y-123279819D01*
X131114285Y-123279819D02*
X131209523Y-123327438D01*
X131209523Y-123327438D02*
X131257142Y-123375057D01*
X131257142Y-123375057D02*
X131304761Y-123470295D01*
X131304761Y-123470295D02*
X131304761Y-123613152D01*
X131304761Y-123613152D02*
X131257142Y-123708390D01*
X131257142Y-123708390D02*
X131209523Y-123756009D01*
X131209523Y-123756009D02*
X131114285Y-123803628D01*
X131114285Y-123803628D02*
X130733333Y-123803628D01*
X131590476Y-123279819D02*
X131923809Y-124279819D01*
X131923809Y-124279819D02*
X132257142Y-123279819D01*
X133114285Y-124279819D02*
X132542857Y-124279819D01*
X132828571Y-124279819D02*
X132828571Y-123279819D01*
X132828571Y-123279819D02*
X132733333Y-123422676D01*
X132733333Y-123422676D02*
X132638095Y-123517914D01*
X132638095Y-123517914D02*
X132542857Y-123565533D01*
X155681666Y-121379819D02*
X155681666Y-122094104D01*
X155681666Y-122094104D02*
X155634047Y-122236961D01*
X155634047Y-122236961D02*
X155538809Y-122332200D01*
X155538809Y-122332200D02*
X155395952Y-122379819D01*
X155395952Y-122379819D02*
X155300714Y-122379819D01*
X156681666Y-122379819D02*
X156110238Y-122379819D01*
X156395952Y-122379819D02*
X156395952Y-121379819D01*
X156395952Y-121379819D02*
X156300714Y-121522676D01*
X156300714Y-121522676D02*
X156205476Y-121617914D01*
X156205476Y-121617914D02*
X156110238Y-121665533D01*
X164983333Y-90554819D02*
X164650000Y-90078628D01*
X164411905Y-90554819D02*
X164411905Y-89554819D01*
X164411905Y-89554819D02*
X164792857Y-89554819D01*
X164792857Y-89554819D02*
X164888095Y-89602438D01*
X164888095Y-89602438D02*
X164935714Y-89650057D01*
X164935714Y-89650057D02*
X164983333Y-89745295D01*
X164983333Y-89745295D02*
X164983333Y-89888152D01*
X164983333Y-89888152D02*
X164935714Y-89983390D01*
X164935714Y-89983390D02*
X164888095Y-90031009D01*
X164888095Y-90031009D02*
X164792857Y-90078628D01*
X164792857Y-90078628D02*
X164411905Y-90078628D01*
X165840476Y-89888152D02*
X165840476Y-90554819D01*
X165602381Y-89507200D02*
X165364286Y-90221485D01*
X165364286Y-90221485D02*
X165983333Y-90221485D01*
D13*
X142300237Y-77364318D02*
X142300237Y-76094318D01*
X143630714Y-77243365D02*
X143570238Y-77303842D01*
X143570238Y-77303842D02*
X143388809Y-77364318D01*
X143388809Y-77364318D02*
X143267857Y-77364318D01*
X143267857Y-77364318D02*
X143086428Y-77303842D01*
X143086428Y-77303842D02*
X142965476Y-77182889D01*
X142965476Y-77182889D02*
X142904999Y-77061937D01*
X142904999Y-77061937D02*
X142844523Y-76820032D01*
X142844523Y-76820032D02*
X142844523Y-76638603D01*
X142844523Y-76638603D02*
X142904999Y-76396699D01*
X142904999Y-76396699D02*
X142965476Y-76275746D01*
X142965476Y-76275746D02*
X143086428Y-76154794D01*
X143086428Y-76154794D02*
X143267857Y-76094318D01*
X143267857Y-76094318D02*
X143388809Y-76094318D01*
X143388809Y-76094318D02*
X143570238Y-76154794D01*
X143570238Y-76154794D02*
X143630714Y-76215270D01*
X144054047Y-76094318D02*
X144840238Y-76094318D01*
X144840238Y-76094318D02*
X144416904Y-76578127D01*
X144416904Y-76578127D02*
X144598333Y-76578127D01*
X144598333Y-76578127D02*
X144719285Y-76638603D01*
X144719285Y-76638603D02*
X144779761Y-76699080D01*
X144779761Y-76699080D02*
X144840238Y-76820032D01*
X144840238Y-76820032D02*
X144840238Y-77122413D01*
X144840238Y-77122413D02*
X144779761Y-77243365D01*
X144779761Y-77243365D02*
X144719285Y-77303842D01*
X144719285Y-77303842D02*
X144598333Y-77364318D01*
X144598333Y-77364318D02*
X144235476Y-77364318D01*
X144235476Y-77364318D02*
X144114523Y-77303842D01*
X144114523Y-77303842D02*
X144054047Y-77243365D01*
D14*
%TO.C,C2*%
X148960000Y-95879420D02*
X148960000Y-96160580D01*
X149980000Y-95879420D02*
X149980000Y-96160580D01*
%TO.C,C4*%
X139790000Y-100170580D02*
X139790000Y-99889420D01*
X140810000Y-100170580D02*
X140810000Y-99889420D01*
D15*
%TO.C,IC2*%
X144470000Y-98420000D02*
X145070000Y-98420000D01*
X144470000Y-101320000D02*
X144470000Y-98420000D01*
X145070000Y-98420000D02*
X145070000Y-101320000D01*
X145070000Y-101320000D02*
X144470000Y-101320000D01*
X146620000Y-101470000D02*
X145420000Y-101470000D01*
D16*
%TO.C,Log_OpenHardware*%
X175353673Y-122479298D02*
X175437494Y-122923922D01*
X175746779Y-123051420D01*
X176056065Y-123178918D01*
X176427105Y-122926613D01*
X176531016Y-122856363D01*
X176624946Y-122793639D01*
X176704511Y-122741305D01*
X176765329Y-122702224D01*
X176803016Y-122679260D01*
X176813280Y-122674309D01*
X176831769Y-122687043D01*
X176871279Y-122722249D01*
X176927381Y-122775429D01*
X176995646Y-122842085D01*
X177071645Y-122917721D01*
X177150951Y-122997839D01*
X177229134Y-123077941D01*
X177301766Y-123153531D01*
X177364418Y-123220112D01*
X177412662Y-123273185D01*
X177442069Y-123308254D01*
X177449100Y-123319990D01*
X177438982Y-123341627D01*
X177410618Y-123389029D01*
X177366988Y-123457560D01*
X177311077Y-123542582D01*
X177245865Y-123639460D01*
X177208078Y-123694717D01*
X177139202Y-123795615D01*
X177077999Y-123886666D01*
X177027437Y-123963337D01*
X176990487Y-124021095D01*
X176970117Y-124055410D01*
X176967056Y-124062621D01*
X176973995Y-124083115D01*
X176992910Y-124130880D01*
X177020946Y-124199199D01*
X177055250Y-124281356D01*
X177092968Y-124370637D01*
X177131246Y-124460325D01*
X177167229Y-124543705D01*
X177198065Y-124614061D01*
X177220898Y-124664677D01*
X177232876Y-124688838D01*
X177233583Y-124689789D01*
X177252390Y-124694403D01*
X177302477Y-124704695D01*
X177378652Y-124719654D01*
X177475724Y-124738268D01*
X177588502Y-124759526D01*
X177654301Y-124771785D01*
X177774809Y-124794729D01*
X177883656Y-124816562D01*
X177975335Y-124836089D01*
X178044340Y-124852115D01*
X178085163Y-124863446D01*
X178093370Y-124867041D01*
X178101407Y-124891373D01*
X178107892Y-124946326D01*
X178112829Y-125025475D01*
X178116223Y-125122393D01*
X178118077Y-125230654D01*
X178118397Y-125343832D01*
X178117186Y-125455502D01*
X178114449Y-125559235D01*
X178110190Y-125648608D01*
X178104414Y-125717193D01*
X178097126Y-125758564D01*
X178092754Y-125767177D01*
X178066623Y-125777500D01*
X178011252Y-125792259D01*
X177933966Y-125809719D01*
X177842089Y-125828147D01*
X177810017Y-125834108D01*
X177655383Y-125862433D01*
X177533234Y-125885243D01*
X177439532Y-125903447D01*
X177370243Y-125917950D01*
X177321330Y-125929659D01*
X177288756Y-125939482D01*
X177268487Y-125948323D01*
X177256485Y-125957091D01*
X177254806Y-125958824D01*
X177238043Y-125986738D01*
X177212473Y-126041062D01*
X177180647Y-126115144D01*
X177145119Y-126202332D01*
X177108442Y-126295975D01*
X177073170Y-126389419D01*
X177041855Y-126476014D01*
X177017052Y-126549107D01*
X177001313Y-126602045D01*
X176997191Y-126628178D01*
X176997535Y-126629093D01*
X177011500Y-126650453D01*
X177043181Y-126697451D01*
X177089250Y-126765194D01*
X177146377Y-126848790D01*
X177211232Y-126943349D01*
X177229702Y-126970221D01*
X177295558Y-127067642D01*
X177353509Y-127156530D01*
X177400397Y-127231779D01*
X177433066Y-127288287D01*
X177448359Y-127320948D01*
X177449100Y-127324960D01*
X177436251Y-127346051D01*
X177400747Y-127387831D01*
X177347152Y-127445812D01*
X177280030Y-127515502D01*
X177203946Y-127592412D01*
X177123463Y-127672050D01*
X177043146Y-127749928D01*
X176967558Y-127821553D01*
X176901264Y-127882437D01*
X176848828Y-127928088D01*
X176814814Y-127954017D01*
X176805404Y-127958250D01*
X176783502Y-127948279D01*
X176738659Y-127921387D01*
X176678180Y-127882103D01*
X176631648Y-127850484D01*
X176547334Y-127792465D01*
X176447485Y-127724151D01*
X176347332Y-127655946D01*
X176293486Y-127619442D01*
X176111230Y-127496167D01*
X175958240Y-127578887D01*
X175888541Y-127615126D01*
X175829273Y-127643293D01*
X175789170Y-127659358D01*
X175778962Y-127661593D01*
X175766688Y-127645089D01*
X175742472Y-127598449D01*
X175708122Y-127525976D01*
X175665447Y-127431973D01*
X175616253Y-127320741D01*
X175562349Y-127196582D01*
X175505543Y-127063799D01*
X175447641Y-126926694D01*
X175390452Y-126789569D01*
X175335783Y-126656725D01*
X175285443Y-126532465D01*
X175241239Y-126421092D01*
X175204978Y-126326906D01*
X175178468Y-126254211D01*
X175163517Y-126207308D01*
X175161113Y-126191200D01*
X175180170Y-126170653D01*
X175221895Y-126137300D01*
X175277565Y-126098069D01*
X175282237Y-126094966D01*
X175426123Y-125979790D01*
X175542142Y-125845420D01*
X175629289Y-125696151D01*
X175686558Y-125536280D01*
X175712945Y-125370104D01*
X175707444Y-125201919D01*
X175669049Y-125036022D01*
X175596754Y-124876709D01*
X175575485Y-124841854D01*
X175464855Y-124701104D01*
X175334161Y-124588081D01*
X175187923Y-124503370D01*
X175030667Y-124447561D01*
X174866916Y-124421241D01*
X174701192Y-124424997D01*
X174538021Y-124459417D01*
X174381924Y-124525090D01*
X174237426Y-124622602D01*
X174192728Y-124662180D01*
X174078971Y-124786070D01*
X173996077Y-124916491D01*
X173939215Y-125062682D01*
X173907546Y-125207455D01*
X173899728Y-125370227D01*
X173925797Y-125533807D01*
X173983104Y-125692665D01*
X174069003Y-125841273D01*
X174180845Y-125974102D01*
X174315982Y-126085623D01*
X174333742Y-126097378D01*
X174390009Y-126135875D01*
X174432782Y-126169230D01*
X174453231Y-126190527D01*
X174453528Y-126191200D01*
X174449138Y-126214238D01*
X174431735Y-126266524D01*
X174403127Y-126343757D01*
X174365124Y-126441635D01*
X174319533Y-126555858D01*
X174268162Y-126682125D01*
X174212821Y-126816134D01*
X174155317Y-126953585D01*
X174097460Y-127090175D01*
X174041057Y-127221604D01*
X173987917Y-127343572D01*
X173939849Y-127451776D01*
X173898660Y-127541916D01*
X173866160Y-127609690D01*
X173844156Y-127650797D01*
X173835295Y-127661593D01*
X173808219Y-127653186D01*
X173757556Y-127630639D01*
X173692042Y-127597980D01*
X173656018Y-127578887D01*
X173503027Y-127496167D01*
X173320771Y-127619442D01*
X173227734Y-127682595D01*
X173125874Y-127752094D01*
X173030421Y-127817532D01*
X172982609Y-127850484D01*
X172915364Y-127895640D01*
X172858423Y-127931424D01*
X172819213Y-127953305D01*
X172806478Y-127957930D01*
X172787942Y-127945452D01*
X172746918Y-127910619D01*
X172687384Y-127857045D01*
X172613317Y-127788350D01*
X172528694Y-127708148D01*
X172475174Y-127656653D01*
X172381540Y-127564653D01*
X172300618Y-127482366D01*
X172235682Y-127413312D01*
X172190001Y-127361011D01*
X172166848Y-127328983D01*
X172164627Y-127322483D01*
X172174935Y-127297761D01*
X172203420Y-127247772D01*
X172246922Y-127177579D01*
X172302282Y-127092242D01*
X172366339Y-126996823D01*
X172384556Y-126970221D01*
X172450932Y-126873534D01*
X172510481Y-126786484D01*
X172559875Y-126713962D01*
X172595784Y-126660860D01*
X172614878Y-126632070D01*
X172616723Y-126629093D01*
X172613964Y-126606149D01*
X172599321Y-126555703D01*
X172575346Y-126484408D01*
X172544593Y-126398914D01*
X172509615Y-126305874D01*
X172472966Y-126211941D01*
X172437198Y-126123766D01*
X172404865Y-126048001D01*
X172378521Y-125991298D01*
X172360717Y-125960310D01*
X172359452Y-125958824D01*
X172348565Y-125949968D01*
X172330177Y-125941210D01*
X172300253Y-125931644D01*
X172254756Y-125920363D01*
X172189650Y-125906460D01*
X172100898Y-125889030D01*
X171984466Y-125867165D01*
X171836317Y-125839958D01*
X171804241Y-125834108D01*
X171709173Y-125815741D01*
X171626294Y-125797772D01*
X171562929Y-125781936D01*
X171526401Y-125769967D01*
X171521503Y-125767177D01*
X171513432Y-125742439D01*
X171506872Y-125687157D01*
X171501826Y-125607756D01*
X171498300Y-125510663D01*
X171496298Y-125402305D01*
X171495823Y-125289107D01*
X171496882Y-125177495D01*
X171499477Y-125073896D01*
X171503613Y-124984735D01*
X171509296Y-124916439D01*
X171516528Y-124875433D01*
X171520888Y-124867041D01*
X171545161Y-124858575D01*
X171600433Y-124844802D01*
X171681197Y-124826917D01*
X171781947Y-124806115D01*
X171897176Y-124783590D01*
X171959957Y-124771785D01*
X172079072Y-124749518D01*
X172185294Y-124729346D01*
X172273432Y-124712282D01*
X172338293Y-124699336D01*
X172374685Y-124691522D01*
X172380675Y-124689789D01*
X172390798Y-124670257D01*
X172412197Y-124623210D01*
X172442020Y-124555370D01*
X172477414Y-124473458D01*
X172515527Y-124384195D01*
X172553506Y-124294302D01*
X172588499Y-124210502D01*
X172617653Y-124139514D01*
X172638116Y-124088061D01*
X172647036Y-124062864D01*
X172647202Y-124061763D01*
X172637090Y-124041886D01*
X172608742Y-123996144D01*
X172565136Y-123929084D01*
X172509253Y-123845251D01*
X172444072Y-123749193D01*
X172406180Y-123694017D01*
X172337134Y-123592848D01*
X172275809Y-123500997D01*
X172225196Y-123423111D01*
X172188288Y-123363836D01*
X172168077Y-123327818D01*
X172165158Y-123319744D01*
X172177706Y-123300951D01*
X172212396Y-123260824D01*
X172264796Y-123203860D01*
X172330475Y-123134552D01*
X172405003Y-123057398D01*
X172483946Y-122976892D01*
X172562876Y-122897530D01*
X172637359Y-122823807D01*
X172702965Y-122760219D01*
X172755263Y-122711261D01*
X172789820Y-122681428D01*
X172801381Y-122674309D01*
X172820205Y-122684320D01*
X172865228Y-122712445D01*
X172932072Y-122755821D01*
X173016360Y-122811585D01*
X173113715Y-122876873D01*
X173187152Y-122926613D01*
X173558192Y-123178918D01*
X174176764Y-122923922D01*
X174260584Y-122479298D01*
X174344405Y-122034674D01*
X175269853Y-122034674D01*
X175353673Y-122479298D01*
G36*
X175353673Y-122479298D02*
G01*
X175437494Y-122923922D01*
X175746779Y-123051420D01*
X176056065Y-123178918D01*
X176427105Y-122926613D01*
X176531016Y-122856363D01*
X176624946Y-122793639D01*
X176704511Y-122741305D01*
X176765329Y-122702224D01*
X176803016Y-122679260D01*
X176813280Y-122674309D01*
X176831769Y-122687043D01*
X176871279Y-122722249D01*
X176927381Y-122775429D01*
X176995646Y-122842085D01*
X177071645Y-122917721D01*
X177150951Y-122997839D01*
X177229134Y-123077941D01*
X177301766Y-123153531D01*
X177364418Y-123220112D01*
X177412662Y-123273185D01*
X177442069Y-123308254D01*
X177449100Y-123319990D01*
X177438982Y-123341627D01*
X177410618Y-123389029D01*
X177366988Y-123457560D01*
X177311077Y-123542582D01*
X177245865Y-123639460D01*
X177208078Y-123694717D01*
X177139202Y-123795615D01*
X177077999Y-123886666D01*
X177027437Y-123963337D01*
X176990487Y-124021095D01*
X176970117Y-124055410D01*
X176967056Y-124062621D01*
X176973995Y-124083115D01*
X176992910Y-124130880D01*
X177020946Y-124199199D01*
X177055250Y-124281356D01*
X177092968Y-124370637D01*
X177131246Y-124460325D01*
X177167229Y-124543705D01*
X177198065Y-124614061D01*
X177220898Y-124664677D01*
X177232876Y-124688838D01*
X177233583Y-124689789D01*
X177252390Y-124694403D01*
X177302477Y-124704695D01*
X177378652Y-124719654D01*
X177475724Y-124738268D01*
X177588502Y-124759526D01*
X177654301Y-124771785D01*
X177774809Y-124794729D01*
X177883656Y-124816562D01*
X177975335Y-124836089D01*
X178044340Y-124852115D01*
X178085163Y-124863446D01*
X178093370Y-124867041D01*
X178101407Y-124891373D01*
X178107892Y-124946326D01*
X178112829Y-125025475D01*
X178116223Y-125122393D01*
X178118077Y-125230654D01*
X178118397Y-125343832D01*
X178117186Y-125455502D01*
X178114449Y-125559235D01*
X178110190Y-125648608D01*
X178104414Y-125717193D01*
X178097126Y-125758564D01*
X178092754Y-125767177D01*
X178066623Y-125777500D01*
X178011252Y-125792259D01*
X177933966Y-125809719D01*
X177842089Y-125828147D01*
X177810017Y-125834108D01*
X177655383Y-125862433D01*
X177533234Y-125885243D01*
X177439532Y-125903447D01*
X177370243Y-125917950D01*
X177321330Y-125929659D01*
X177288756Y-125939482D01*
X177268487Y-125948323D01*
X177256485Y-125957091D01*
X177254806Y-125958824D01*
X177238043Y-125986738D01*
X177212473Y-126041062D01*
X177180647Y-126115144D01*
X177145119Y-126202332D01*
X177108442Y-126295975D01*
X177073170Y-126389419D01*
X177041855Y-126476014D01*
X177017052Y-126549107D01*
X177001313Y-126602045D01*
X176997191Y-126628178D01*
X176997535Y-126629093D01*
X177011500Y-126650453D01*
X177043181Y-126697451D01*
X177089250Y-126765194D01*
X177146377Y-126848790D01*
X177211232Y-126943349D01*
X177229702Y-126970221D01*
X177295558Y-127067642D01*
X177353509Y-127156530D01*
X177400397Y-127231779D01*
X177433066Y-127288287D01*
X177448359Y-127320948D01*
X177449100Y-127324960D01*
X177436251Y-127346051D01*
X177400747Y-127387831D01*
X177347152Y-127445812D01*
X177280030Y-127515502D01*
X177203946Y-127592412D01*
X177123463Y-127672050D01*
X177043146Y-127749928D01*
X176967558Y-127821553D01*
X176901264Y-127882437D01*
X176848828Y-127928088D01*
X176814814Y-127954017D01*
X176805404Y-127958250D01*
X176783502Y-127948279D01*
X176738659Y-127921387D01*
X176678180Y-127882103D01*
X176631648Y-127850484D01*
X176547334Y-127792465D01*
X176447485Y-127724151D01*
X176347332Y-127655946D01*
X176293486Y-127619442D01*
X176111230Y-127496167D01*
X175958240Y-127578887D01*
X175888541Y-127615126D01*
X175829273Y-127643293D01*
X175789170Y-127659358D01*
X175778962Y-127661593D01*
X175766688Y-127645089D01*
X175742472Y-127598449D01*
X175708122Y-127525976D01*
X175665447Y-127431973D01*
X175616253Y-127320741D01*
X175562349Y-127196582D01*
X175505543Y-127063799D01*
X175447641Y-126926694D01*
X175390452Y-126789569D01*
X175335783Y-126656725D01*
X175285443Y-126532465D01*
X175241239Y-126421092D01*
X175204978Y-126326906D01*
X175178468Y-126254211D01*
X175163517Y-126207308D01*
X175161113Y-126191200D01*
X175180170Y-126170653D01*
X175221895Y-126137300D01*
X175277565Y-126098069D01*
X175282237Y-126094966D01*
X175426123Y-125979790D01*
X175542142Y-125845420D01*
X175629289Y-125696151D01*
X175686558Y-125536280D01*
X175712945Y-125370104D01*
X175707444Y-125201919D01*
X175669049Y-125036022D01*
X175596754Y-124876709D01*
X175575485Y-124841854D01*
X175464855Y-124701104D01*
X175334161Y-124588081D01*
X175187923Y-124503370D01*
X175030667Y-124447561D01*
X174866916Y-124421241D01*
X174701192Y-124424997D01*
X174538021Y-124459417D01*
X174381924Y-124525090D01*
X174237426Y-124622602D01*
X174192728Y-124662180D01*
X174078971Y-124786070D01*
X173996077Y-124916491D01*
X173939215Y-125062682D01*
X173907546Y-125207455D01*
X173899728Y-125370227D01*
X173925797Y-125533807D01*
X173983104Y-125692665D01*
X174069003Y-125841273D01*
X174180845Y-125974102D01*
X174315982Y-126085623D01*
X174333742Y-126097378D01*
X174390009Y-126135875D01*
X174432782Y-126169230D01*
X174453231Y-126190527D01*
X174453528Y-126191200D01*
X174449138Y-126214238D01*
X174431735Y-126266524D01*
X174403127Y-126343757D01*
X174365124Y-126441635D01*
X174319533Y-126555858D01*
X174268162Y-126682125D01*
X174212821Y-126816134D01*
X174155317Y-126953585D01*
X174097460Y-127090175D01*
X174041057Y-127221604D01*
X173987917Y-127343572D01*
X173939849Y-127451776D01*
X173898660Y-127541916D01*
X173866160Y-127609690D01*
X173844156Y-127650797D01*
X173835295Y-127661593D01*
X173808219Y-127653186D01*
X173757556Y-127630639D01*
X173692042Y-127597980D01*
X173656018Y-127578887D01*
X173503027Y-127496167D01*
X173320771Y-127619442D01*
X173227734Y-127682595D01*
X173125874Y-127752094D01*
X173030421Y-127817532D01*
X172982609Y-127850484D01*
X172915364Y-127895640D01*
X172858423Y-127931424D01*
X172819213Y-127953305D01*
X172806478Y-127957930D01*
X172787942Y-127945452D01*
X172746918Y-127910619D01*
X172687384Y-127857045D01*
X172613317Y-127788350D01*
X172528694Y-127708148D01*
X172475174Y-127656653D01*
X172381540Y-127564653D01*
X172300618Y-127482366D01*
X172235682Y-127413312D01*
X172190001Y-127361011D01*
X172166848Y-127328983D01*
X172164627Y-127322483D01*
X172174935Y-127297761D01*
X172203420Y-127247772D01*
X172246922Y-127177579D01*
X172302282Y-127092242D01*
X172366339Y-126996823D01*
X172384556Y-126970221D01*
X172450932Y-126873534D01*
X172510481Y-126786484D01*
X172559875Y-126713962D01*
X172595784Y-126660860D01*
X172614878Y-126632070D01*
X172616723Y-126629093D01*
X172613964Y-126606149D01*
X172599321Y-126555703D01*
X172575346Y-126484408D01*
X172544593Y-126398914D01*
X172509615Y-126305874D01*
X172472966Y-126211941D01*
X172437198Y-126123766D01*
X172404865Y-126048001D01*
X172378521Y-125991298D01*
X172360717Y-125960310D01*
X172359452Y-125958824D01*
X172348565Y-125949968D01*
X172330177Y-125941210D01*
X172300253Y-125931644D01*
X172254756Y-125920363D01*
X172189650Y-125906460D01*
X172100898Y-125889030D01*
X171984466Y-125867165D01*
X171836317Y-125839958D01*
X171804241Y-125834108D01*
X171709173Y-125815741D01*
X171626294Y-125797772D01*
X171562929Y-125781936D01*
X171526401Y-125769967D01*
X171521503Y-125767177D01*
X171513432Y-125742439D01*
X171506872Y-125687157D01*
X171501826Y-125607756D01*
X171498300Y-125510663D01*
X171496298Y-125402305D01*
X171495823Y-125289107D01*
X171496882Y-125177495D01*
X171499477Y-125073896D01*
X171503613Y-124984735D01*
X171509296Y-124916439D01*
X171516528Y-124875433D01*
X171520888Y-124867041D01*
X171545161Y-124858575D01*
X171600433Y-124844802D01*
X171681197Y-124826917D01*
X171781947Y-124806115D01*
X171897176Y-124783590D01*
X171959957Y-124771785D01*
X172079072Y-124749518D01*
X172185294Y-124729346D01*
X172273432Y-124712282D01*
X172338293Y-124699336D01*
X172374685Y-124691522D01*
X172380675Y-124689789D01*
X172390798Y-124670257D01*
X172412197Y-124623210D01*
X172442020Y-124555370D01*
X172477414Y-124473458D01*
X172515527Y-124384195D01*
X172553506Y-124294302D01*
X172588499Y-124210502D01*
X172617653Y-124139514D01*
X172638116Y-124088061D01*
X172647036Y-124062864D01*
X172647202Y-124061763D01*
X172637090Y-124041886D01*
X172608742Y-123996144D01*
X172565136Y-123929084D01*
X172509253Y-123845251D01*
X172444072Y-123749193D01*
X172406180Y-123694017D01*
X172337134Y-123592848D01*
X172275809Y-123500997D01*
X172225196Y-123423111D01*
X172188288Y-123363836D01*
X172168077Y-123327818D01*
X172165158Y-123319744D01*
X172177706Y-123300951D01*
X172212396Y-123260824D01*
X172264796Y-123203860D01*
X172330475Y-123134552D01*
X172405003Y-123057398D01*
X172483946Y-122976892D01*
X172562876Y-122897530D01*
X172637359Y-122823807D01*
X172702965Y-122760219D01*
X172755263Y-122711261D01*
X172789820Y-122681428D01*
X172801381Y-122674309D01*
X172820205Y-122684320D01*
X172865228Y-122712445D01*
X172932072Y-122755821D01*
X173016360Y-122811585D01*
X173113715Y-122876873D01*
X173187152Y-122926613D01*
X173558192Y-123178918D01*
X174176764Y-122923922D01*
X174260584Y-122479298D01*
X174344405Y-122034674D01*
X175269853Y-122034674D01*
X175353673Y-122479298D01*
G37*
D14*
%TO.C,C1*%
X149930000Y-101499420D02*
X149930000Y-101780580D01*
X148910000Y-101499420D02*
X148910000Y-101780580D01*
%TO.C,C5*%
X139790000Y-95869420D02*
X139790000Y-96150580D01*
X140810000Y-95869420D02*
X140810000Y-96150580D01*
D15*
%TO.C,IC1*%
X144470000Y-92850000D02*
X145070000Y-92850000D01*
X144470000Y-95750000D02*
X144470000Y-92850000D01*
X145070000Y-92850000D02*
X145070000Y-95750000D01*
X145070000Y-95750000D02*
X144470000Y-95750000D01*
X146620000Y-95900000D02*
X145420000Y-95900000D01*
D14*
%TO.C,R3*%
X135790000Y-113960000D02*
X135790000Y-114730000D01*
X135790000Y-122040000D02*
X135790000Y-121270000D01*
X134420000Y-121270000D02*
X137160000Y-121270000D01*
X137160000Y-114730000D01*
X134420000Y-114730000D01*
X134420000Y-121270000D01*
D11*
%TO.C,J2*%
X152460000Y-76850000D02*
X152460000Y-79075000D01*
X152460000Y-76850000D02*
X175760000Y-76850000D01*
X152460000Y-81725000D02*
X152460000Y-82700000D01*
X152460000Y-81725000D02*
X154285000Y-81725000D01*
X152460000Y-82700000D02*
X153510000Y-83750000D01*
X154285000Y-79075000D02*
X152460000Y-79075000D01*
X154285000Y-81725000D02*
X154285000Y-79075000D01*
X173835000Y-79075000D02*
X175760000Y-79075000D01*
X173835000Y-81625000D02*
X173835000Y-79075000D01*
X175760000Y-76850000D02*
X175760000Y-79075000D01*
X175760000Y-81625000D02*
X173835000Y-81625000D01*
X175760000Y-81625000D02*
X175760000Y-83750000D01*
X175760000Y-83750000D02*
X153510000Y-83750000D01*
D14*
%TO.C,C3*%
X147559420Y-83180000D02*
X147840580Y-83180000D01*
X147559420Y-84200000D02*
X147840580Y-84200000D01*
%TO.C,D1*%
X125452500Y-99030000D02*
X125452500Y-103330000D01*
X125452500Y-99030000D02*
X131262500Y-99030000D01*
X125452500Y-103330000D02*
X131262500Y-103330000D01*
%TO.C,U1*%
X169430000Y-99525000D02*
X179650000Y-99525000D01*
X169430000Y-104145000D02*
X169430000Y-99525000D01*
X172690000Y-104145000D02*
X172690000Y-102765000D01*
X176390000Y-104145000D02*
X176390000Y-102765000D01*
X179650000Y-99525000D02*
X179650000Y-104145000D01*
X179650000Y-102765000D02*
X169430000Y-102765000D01*
X179650000Y-104145000D02*
X169430000Y-104145000D01*
%TO.C,C6*%
X135725580Y-82660000D02*
X135444420Y-82660000D01*
X135725580Y-83680000D02*
X135444420Y-83680000D01*
%TO.C,RV1*%
X129875000Y-124840000D02*
X139625000Y-124840000D01*
X129875000Y-129890000D02*
X129875000Y-124840000D01*
X139625000Y-124840000D02*
X139625000Y-129890000D01*
X139625000Y-129890000D02*
X129875000Y-129890000D01*
%TO.C,J1*%
X142365000Y-121775000D02*
X145545000Y-121775000D01*
X142365000Y-130925000D02*
X142365000Y-121775000D01*
X142365000Y-130925000D02*
X169265000Y-130925000D01*
X145545000Y-109265000D02*
X146875000Y-109265000D01*
X145545000Y-110375000D02*
X145545000Y-109265000D01*
X145545000Y-115455000D02*
X145765000Y-115455000D01*
X145545000Y-121775000D02*
X145545000Y-115455000D01*
X165765000Y-115455000D02*
X165985000Y-115455000D01*
X165985000Y-121775000D02*
X165985000Y-115455000D01*
X165985000Y-121775000D02*
X169265000Y-121775000D01*
X169265000Y-130925000D02*
X169265000Y-121775000D01*
%TO.C,R4*%
X166677500Y-90437258D02*
X166677500Y-89962742D01*
X167722500Y-90437258D02*
X167722500Y-89962742D01*
D15*
%TO.C,IC3*%
X139850000Y-77839579D02*
X143550000Y-77839579D01*
X139850000Y-82839579D02*
X139850000Y-77839579D01*
X143550000Y-77839579D02*
X143550000Y-82839579D01*
X143550000Y-82839579D02*
X139850000Y-82839579D01*
D17*
X145375000Y-82864579D02*
X143900000Y-82864579D01*
%TD*%
%LPC*%
D18*
%TO.C,C2*%
X149470000Y-95245000D03*
X149470000Y-96795000D03*
%TD*%
D19*
%TO.C,MH2*%
X125645000Y-125700000D03*
%TD*%
D20*
%TO.C,C4*%
X140300000Y-100805000D03*
X140300000Y-99255000D03*
%TD*%
D21*
%TO.C,IC2*%
X146020000Y-100820000D03*
X146020000Y-99870000D03*
X146020000Y-98920000D03*
X143520000Y-98920000D03*
X143520000Y-99870000D03*
X143520000Y-100820000D03*
%TD*%
D22*
%TO.C,MH_S3*%
X122980000Y-76630000D03*
%TD*%
D18*
%TO.C,C1*%
X149420000Y-102415000D03*
X149420000Y-100865000D03*
%TD*%
D22*
%TO.C,MH_S2*%
X178130000Y-76590000D03*
%TD*%
D18*
%TO.C,C5*%
X140300000Y-95235000D03*
X140300000Y-96785000D03*
%TD*%
D21*
%TO.C,IC1*%
X146020000Y-95250000D03*
X146020000Y-94300000D03*
X146020000Y-93350000D03*
X143520000Y-93350000D03*
X143520000Y-94300000D03*
X143520000Y-95250000D03*
%TD*%
D23*
%TO.C,R3*%
X135790000Y-123080000D03*
X135790000Y-112920000D03*
%TD*%
D24*
%TO.C,J2*%
X156420000Y-81590000D03*
D25*
X156420000Y-79050000D03*
X158960000Y-81590000D03*
X158960000Y-79050000D03*
X161500000Y-81590000D03*
X161500000Y-79050000D03*
X164040000Y-81590000D03*
X164040000Y-79050000D03*
X166580000Y-81590000D03*
X166580000Y-79050000D03*
X169120000Y-81590000D03*
X169120000Y-79050000D03*
X171660000Y-81590000D03*
X171660000Y-79050000D03*
%TD*%
D26*
%TO.C,C3*%
X146925000Y-83690000D03*
X148475000Y-83690000D03*
%TD*%
D27*
%TO.C,D1*%
X126962500Y-101180000D03*
X131262500Y-101180000D03*
%TD*%
D28*
%TO.C,U1*%
X177080000Y-100885000D03*
D29*
X174540000Y-100885000D03*
X172000000Y-100885000D03*
%TD*%
D30*
%TO.C,C6*%
X136360000Y-83170000D03*
X134810000Y-83170000D03*
%TD*%
D31*
%TO.C,RV1*%
X137290000Y-127360000D03*
X134750000Y-127360000D03*
X132210000Y-127360000D03*
%TD*%
D22*
%TO.C,MH_S1*%
X178090000Y-129250000D03*
%TD*%
%TO.C,MH_S4*%
X120460000Y-129200000D03*
%TD*%
D24*
%TO.C,J1*%
X146875000Y-110375000D03*
D25*
X146875000Y-115455000D03*
X149415000Y-110375000D03*
X149415000Y-115455000D03*
X151955000Y-110375000D03*
X151955000Y-115455000D03*
X154495000Y-110375000D03*
X154495000Y-115455000D03*
X157035000Y-110375000D03*
X157035000Y-115455000D03*
X159575000Y-110375000D03*
X159575000Y-115455000D03*
X162115000Y-110375000D03*
X162115000Y-115455000D03*
X164655000Y-110375000D03*
X164655000Y-115455000D03*
%TD*%
D32*
%TO.C,R4*%
X167200000Y-91025000D03*
X167200000Y-89375000D03*
%TD*%
D33*
%TO.C,IC3*%
X144638000Y-82289579D03*
X144638000Y-81639579D03*
X144638000Y-80989579D03*
X144638000Y-80339579D03*
X144638000Y-79689579D03*
X144638000Y-79039579D03*
X144638000Y-78389579D03*
X138762000Y-78389579D03*
X138762000Y-79039579D03*
X138762000Y-79689579D03*
X138762000Y-80339579D03*
X138762000Y-80989579D03*
X138762000Y-81639579D03*
X138762000Y-82289579D03*
%TD*%
D19*
%TO.C,MH1*%
X172100000Y-92125000D03*
%TD*%
D34*
%TO.C,U2*%
X119100000Y-93745000D03*
D22*
X122130000Y-94045000D03*
X122130000Y-98895000D03*
D34*
X119100000Y-99195000D03*
D25*
X118970000Y-87580000D03*
X121510000Y-87580000D03*
D24*
X124050000Y-87580000D03*
D25*
X126590000Y-87580000D03*
X129130000Y-87580000D03*
X131670000Y-87580000D03*
X134210000Y-87580000D03*
D24*
X136750000Y-87580000D03*
D25*
X139290000Y-87580000D03*
X141830000Y-87580000D03*
X144370000Y-87580000D03*
X146910000Y-87580000D03*
D24*
X149450000Y-87580000D03*
D25*
X151990000Y-87580000D03*
X154530000Y-87580000D03*
X157070000Y-87580000D03*
X159610000Y-87580000D03*
D24*
X162150000Y-87580000D03*
D25*
X164690000Y-87580000D03*
X167230000Y-87580000D03*
X167230000Y-105360000D03*
X164690000Y-105360000D03*
D24*
X162150000Y-105360000D03*
D25*
X159610000Y-105360000D03*
X157070000Y-105360000D03*
X154530000Y-105360000D03*
X151990000Y-105360000D03*
D24*
X149450000Y-105360000D03*
D25*
X146910000Y-105360000D03*
X144370000Y-105360000D03*
X141830000Y-105360000D03*
X139290000Y-105360000D03*
D24*
X136750000Y-105360000D03*
D25*
X134210000Y-105360000D03*
X131670000Y-105360000D03*
X129130000Y-105360000D03*
X126590000Y-105360000D03*
D24*
X124050000Y-105360000D03*
D25*
X121510000Y-105360000D03*
X118970000Y-105360000D03*
X167000000Y-93930000D03*
D24*
X167000000Y-96470000D03*
D25*
X167000000Y-99010000D03*
%TD*%
D24*
%TO.C,LS1*%
X140085000Y-122625000D03*
D35*
X140085000Y-120085000D03*
%TD*%
D36*
%TO.C,C7*%
X139630000Y-114700000D03*
D37*
X141130000Y-114700000D03*
%TD*%
%LPD*%
M02*
