G04 #@! TF.GenerationSoftware,KiCad,Pcbnew,7.0.9-7.0.9~ubuntu22.04.1*
G04 #@! TF.CreationDate,2023-11-26T22:36:36+01:00*
G04 #@! TF.ProjectId,MicroPicoDrive,4d696372-6f50-4696-936f-44726976652e,1.4.1*
G04 #@! TF.SameCoordinates,Original*
G04 #@! TF.FileFunction,Soldermask,Bot*
G04 #@! TF.FilePolarity,Negative*
%FSLAX46Y46*%
G04 Gerber Fmt 4.6, Leading zero omitted, Abs format (unit mm)*
G04 Created by KiCad (PCBNEW 7.0.9-7.0.9~ubuntu22.04.1) date 2023-11-26 22:36:36*
%MOMM*%
%LPD*%
G01*
G04 APERTURE LIST*
%ADD10C,3.500000*%
%ADD11R,1.700000X1.700000*%
%ADD12O,1.700000X1.700000*%
%ADD13R,1.905000X2.000000*%
%ADD14O,1.905000X2.000000*%
%ADD15O,1.800000X1.800000*%
%ADD16O,1.500000X1.500000*%
%ADD17R,1.700000X3.500000*%
G04 APERTURE END LIST*
D10*
X125645000Y-125700000D03*
D11*
X156420000Y-81590000D03*
D12*
X156420000Y-79050000D03*
X158960000Y-81590000D03*
X158960000Y-79050000D03*
X161500000Y-81590000D03*
X161500000Y-79050000D03*
X164040000Y-81590000D03*
X164040000Y-79050000D03*
X166580000Y-81590000D03*
X166580000Y-79050000D03*
X169120000Y-81590000D03*
X169120000Y-79050000D03*
X171660000Y-81590000D03*
X171660000Y-79050000D03*
D13*
X177115000Y-98800000D03*
D14*
X174575000Y-98800000D03*
X172035000Y-98800000D03*
D11*
X146875000Y-110375000D03*
D12*
X146875000Y-115455000D03*
X149415000Y-110375000D03*
X149415000Y-115455000D03*
X151955000Y-110375000D03*
X151955000Y-115455000D03*
X154495000Y-110375000D03*
X154495000Y-115455000D03*
X157035000Y-110375000D03*
X157035000Y-115455000D03*
X159575000Y-110375000D03*
X159575000Y-115455000D03*
X162115000Y-110375000D03*
X162115000Y-115455000D03*
X164655000Y-110375000D03*
X164655000Y-115455000D03*
D10*
X172100000Y-92125000D03*
D15*
X117620000Y-93715000D03*
D16*
X120650000Y-94015000D03*
X120650000Y-98865000D03*
D15*
X117620000Y-99165000D03*
D12*
X117490000Y-87550000D03*
D17*
X117490000Y-86650000D03*
D12*
X120030000Y-87550000D03*
D17*
X120030000Y-86650000D03*
D11*
X122570000Y-87550000D03*
D17*
X122570000Y-86650000D03*
D12*
X125110000Y-87550000D03*
D17*
X125110000Y-86650000D03*
D12*
X127650000Y-87550000D03*
D17*
X127650000Y-86650000D03*
D12*
X130190000Y-87550000D03*
D17*
X130190000Y-86650000D03*
D12*
X132730000Y-87550000D03*
D17*
X132730000Y-86650000D03*
D11*
X135270000Y-87550000D03*
D17*
X135270000Y-86650000D03*
D12*
X137810000Y-87550000D03*
D17*
X137810000Y-86650000D03*
D12*
X140350000Y-87550000D03*
D17*
X140350000Y-86650000D03*
D12*
X142890000Y-87550000D03*
D17*
X142890000Y-86650000D03*
D12*
X145430000Y-87550000D03*
D17*
X145430000Y-86650000D03*
D11*
X147970000Y-87550000D03*
D17*
X147970000Y-86650000D03*
D12*
X150510000Y-87550000D03*
D17*
X150510000Y-86650000D03*
D12*
X153050000Y-87550000D03*
D17*
X153050000Y-86650000D03*
D12*
X155590000Y-87550000D03*
D17*
X155590000Y-86650000D03*
D12*
X158130000Y-87550000D03*
D17*
X158130000Y-86650000D03*
D11*
X160670000Y-87550000D03*
D17*
X160670000Y-86650000D03*
D12*
X163210000Y-87550000D03*
D17*
X163210000Y-86650000D03*
D12*
X165750000Y-87550000D03*
D17*
X165750000Y-86650000D03*
D12*
X165750000Y-105330000D03*
D17*
X165750000Y-106230000D03*
D12*
X163210000Y-105330000D03*
D17*
X163210000Y-106230000D03*
D11*
X160670000Y-105330000D03*
D17*
X160670000Y-106230000D03*
D12*
X158130000Y-105330000D03*
D17*
X158130000Y-106230000D03*
D12*
X155590000Y-105330000D03*
D17*
X155590000Y-106230000D03*
D12*
X153050000Y-105330000D03*
D17*
X153050000Y-106230000D03*
D12*
X150510000Y-105330000D03*
D17*
X150510000Y-106230000D03*
D11*
X147970000Y-105330000D03*
D17*
X147970000Y-106230000D03*
D12*
X145430000Y-105330000D03*
D17*
X145430000Y-106230000D03*
D12*
X142890000Y-105330000D03*
D17*
X142890000Y-106230000D03*
D12*
X140350000Y-105330000D03*
D17*
X140350000Y-106230000D03*
D12*
X137810000Y-105330000D03*
D17*
X137810000Y-106230000D03*
D11*
X135270000Y-105330000D03*
D17*
X135270000Y-106230000D03*
D12*
X132730000Y-105330000D03*
D17*
X132730000Y-106230000D03*
D12*
X130190000Y-105330000D03*
D17*
X130190000Y-106230000D03*
D12*
X127650000Y-105330000D03*
D17*
X127650000Y-106230000D03*
D12*
X125110000Y-105330000D03*
D17*
X125110000Y-106230000D03*
D11*
X122570000Y-105330000D03*
D17*
X122570000Y-106230000D03*
D12*
X120030000Y-105330000D03*
D17*
X120030000Y-106230000D03*
D12*
X117490000Y-105330000D03*
D17*
X117490000Y-106230000D03*
D12*
X165520000Y-93900000D03*
D11*
X165520000Y-96440000D03*
D12*
X165520000Y-98980000D03*
M02*
