M48
; DRILL file {KiCad 7.0.9-7.0.9~ubuntu22.04.1} date dom 26 nov 2023 22:36:39
; FORMAT={-:-/ absolute / metric / decimal}
; #@! TF.CreationDate,2023-11-26T22:36:39+01:00
; #@! TF.GenerationSoftware,Kicad,Pcbnew,7.0.9-7.0.9~ubuntu22.04.1
; #@! TF.FileFunction,Plated,1,2,PTH
FMAT,2
METRIC
; #@! TA.AperFunction,Plated,PTH,ViaDrill
T1C0.300
; #@! TA.AperFunction,Plated,PTH,ComponentDrill
T2C1.000
; #@! TA.AperFunction,Plated,PTH,ComponentDrill
T3C1.020
; #@! TA.AperFunction,Plated,PTH,ComponentDrill
T4C1.100
%
G90
G05
T1
X134.34Y-92.565
X135.89Y-95.99
X136.49Y-89.79
X136.75Y-82.85
X138.765Y-97.315
X140.49Y-96.44
X140.55Y-79.55
X140.79Y-98.14
X141.8Y-109.4
X142.04Y-98.09
X142.34Y-90.115
X142.95Y-83.55
X142.99Y-98.115
X143.05Y-80.75
X143.465Y-101.115
X147.5Y-81.6
X147.7Y-91.85
X147.815Y-101.015
X148.14Y-97.165
X148.24Y-95.04
X149.345Y-79.025
X150.465Y-91.865
X153.04Y-102.765
X153.195Y-80.34
X153.35Y-112.85
X154.55Y-83.35
X155.115Y-99.59
X155.415Y-90.915
X157.2Y-113.15
X157.29Y-98.14
X158.09Y-101.015
X158.15Y-108.8
X158.365Y-94.265
X160.8Y-109.05
X162.05Y-112.9
X162.95Y-94.3
X165.75Y-112.85
T2
X146.875Y-110.375
X146.875Y-115.455
X149.415Y-110.375
X149.415Y-115.455
X151.955Y-110.375
X151.955Y-115.455
X154.495Y-110.375
X154.495Y-115.455
X156.42Y-79.05
X156.42Y-81.59
X157.035Y-110.375
X157.035Y-115.455
X158.96Y-79.05
X158.96Y-81.59
X159.575Y-110.375
X159.575Y-115.455
X161.5Y-79.05
X161.5Y-81.59
X162.115Y-110.375
X162.115Y-115.455
X164.04Y-79.05
X164.04Y-81.59
X164.655Y-110.375
X164.655Y-115.455
X166.58Y-79.05
X166.58Y-81.59
X169.12Y-79.05
X169.12Y-81.59
X171.66Y-79.05
X171.66Y-81.59
T3
X117.49Y-87.55
X117.49Y-105.33
X120.03Y-87.55
X120.03Y-105.33
X122.57Y-87.55
X122.57Y-105.33
X125.11Y-87.55
X125.11Y-105.33
X127.65Y-87.55
X127.65Y-105.33
X130.19Y-87.55
X130.19Y-105.33
X132.73Y-87.55
X132.73Y-105.33
X135.27Y-87.55
X135.27Y-105.33
X137.81Y-87.55
X137.81Y-105.33
X140.35Y-87.55
X140.35Y-105.33
X142.89Y-87.55
X142.89Y-105.33
X145.43Y-87.55
X145.43Y-105.33
X147.97Y-87.55
X147.97Y-105.33
X150.51Y-87.55
X150.51Y-105.33
X153.05Y-87.55
X153.05Y-105.33
X155.59Y-87.55
X155.59Y-105.33
X158.13Y-87.55
X158.13Y-105.33
X160.67Y-87.55
X160.67Y-105.33
X163.21Y-87.55
X163.21Y-105.33
X165.52Y-93.9
X165.52Y-96.44
X165.52Y-98.98
X165.75Y-87.55
X165.75Y-105.33
T4
X172.035Y-98.8
X174.575Y-98.8
X177.115Y-98.8
T0
M30
