%TF.GenerationSoftware,KiCad,Pcbnew,9.0.9-9.0.9~ubuntu24.04.1*%
%TF.CreationDate,2026-07-09T23:06:26+02:00*%
%TF.ProjectId,MicroPicoDrive,4d696372-6f50-4696-936f-44726976652e,1.4.h*%
%TF.SameCoordinates,Original*%
%TF.FileFunction,Copper,L2,Bot*%
%TF.FilePolarity,Positive*%
%FSLAX46Y46*%
G04 Gerber Fmt 4.6, Leading zero omitted, Abs format (unit mm)*
G04 Created by KiCad (PCBNEW 9.0.9-9.0.9~ubuntu24.04.1) date 2026-07-09 23:06:26*
%MOMM*%
%LPD*%
G01*
G04 APERTURE LIST*
G04 Aperture macros list*
%AMRoundRect*
0 Rectangle with rounded corners*
0 $1 Rounding radius*
0 $2 $3 $4 $5 $6 $7 $8 $9 X,Y pos of 4 corners*
0 Add a 4 corners polygon primitive as box body*
4,1,4,$2,$3,$4,$5,$6,$7,$8,$9,$2,$3,0*
0 Add four circle primitives for the rounded corners*
1,1,$1+$1,$2,$3*
1,1,$1+$1,$4,$5*
1,1,$1+$1,$6,$7*
1,1,$1+$1,$8,$9*
0 Add four rect primitives between the rounded corners*
20,1,$1+$1,$2,$3,$4,$5,0*
20,1,$1+$1,$4,$5,$6,$7,0*
20,1,$1+$1,$6,$7,$8,$9,0*
20,1,$1+$1,$8,$9,$2,$3,0*%
G04 Aperture macros list end*
%TA.AperFunction,ComponentPad*%
%ADD10C,1.600000*%
%TD*%
%TA.AperFunction,ComponentPad*%
%ADD11R,1.700000X1.700000*%
%TD*%
%TA.AperFunction,ComponentPad*%
%ADD12O,1.700000X1.700000*%
%TD*%
%TA.AperFunction,ComponentPad*%
%ADD13R,1.905000X2.000000*%
%TD*%
%TA.AperFunction,ComponentPad*%
%ADD14O,1.905000X2.000000*%
%TD*%
%TA.AperFunction,ComponentPad*%
%ADD15C,1.440000*%
%TD*%
%TA.AperFunction,SMDPad,CuDef*%
%ADD16RoundRect,0.175000X0.175000X-0.325000X0.175000X0.325000X-0.175000X0.325000X-0.175000X-0.325000X0*%
%TD*%
%TA.AperFunction,SMDPad,CuDef*%
%ADD17R,1.700000X3.500000*%
%TD*%
%TA.AperFunction,ComponentPad*%
%ADD18C,1.700000*%
%TD*%
%TA.AperFunction,SMDPad,CuDef*%
%ADD19RoundRect,0.200000X0.275000X-0.200000X0.275000X0.200000X-0.275000X0.200000X-0.275000X-0.200000X0*%
%TD*%
%TA.AperFunction,ComponentPad*%
%ADD20RoundRect,0.250000X-0.350000X-0.350000X0.350000X-0.350000X0.350000X0.350000X-0.350000X0.350000X0*%
%TD*%
%TA.AperFunction,ComponentPad*%
%ADD21C,1.200000*%
%TD*%
%TA.AperFunction,SMDPad,CuDef*%
%ADD22RoundRect,0.200000X-0.275000X0.200000X-0.275000X-0.200000X0.275000X-0.200000X0.275000X0.200000X0*%
%TD*%
%TA.AperFunction,ViaPad*%
%ADD23C,0.600000*%
%TD*%
%TA.AperFunction,ViaPad*%
%ADD24C,0.800000*%
%TD*%
%TA.AperFunction,Conductor*%
%ADD25C,0.300000*%
%TD*%
%TA.AperFunction,Conductor*%
%ADD26C,0.500000*%
%TD*%
%TA.AperFunction,Conductor*%
%ADD27C,0.400000*%
%TD*%
G04 APERTURE END LIST*
D10*
%TO.P,R3,1*%
%TO.N,Net-(R3-Pad1)*%
X135790000Y-123080000D03*
%TO.P,R3,2*%
%TO.N,Net-(C7-Pad1)*%
X135790000Y-112920000D03*
%TD*%
D11*
%TO.P,J2,1,Pin_1*%
%TO.N,unconnected-(J2-Pin_1-Pad1)*%
X156420000Y-81590000D03*
D12*
%TO.P,J2,2,Pin_2*%
%TO.N,/QL_CS_IN*%
X156420000Y-79050000D03*
%TO.P,J2,3,Pin_3*%
%TO.N,/QL_R{slash}~{W}*%
X158960000Y-81590000D03*
%TO.P,J2,4,Pin_4*%
%TO.N,/QL_CS_OUT*%
X158960000Y-79050000D03*
%TO.P,J2,5,Pin_5*%
%TO.N,unconnected-(J2-Pin_5-Pad5)*%
X161500000Y-81590000D03*
%TO.P,J2,6,Pin_6*%
%TO.N,/QL_CS_CK*%
X161500000Y-79050000D03*
%TO.P,J2,7,Pin_7*%
%TO.N,/QL2PICO_ERASE*%
X164040000Y-81590000D03*
%TO.P,J2,8,Pin_8*%
%TO.N,/QL_HEAD1*%
X164040000Y-79050000D03*
%TO.P,J2,9,Pin_9*%
%TO.N,unconnected-(J2-Pin_9-Pad9)*%
X166580000Y-81590000D03*
%TO.P,J2,10,Pin_10*%
%TO.N,/QL_HEAD2*%
X166580000Y-79050000D03*
%TO.P,J2,11,Pin_11*%
%TO.N,unconnected-(J2-Pin_11-Pad11)*%
X169120000Y-81590000D03*
%TO.P,J2,12,Pin_12*%
%TO.N,+9V*%
X169120000Y-79050000D03*
%TO.P,J2,13,Pin_13*%
%TO.N,unconnected-(J2-Pin_13-Pad13)*%
X171660000Y-81590000D03*
%TO.P,J2,14,Pin_14*%
%TO.N,GND*%
X171660000Y-79050000D03*
%TD*%
D13*
%TO.P,U1,1,VI*%
%TO.N,+9V*%
X177080000Y-100885000D03*
D14*
%TO.P,U1,2,GND*%
%TO.N,GND*%
X174540000Y-100885000D03*
%TO.P,U1,3,VO*%
%TO.N,+5V*%
X172000000Y-100885000D03*
%TD*%
D15*
%TO.P,RV1,1,1*%
%TO.N,GND*%
X137290000Y-127360000D03*
%TO.P,RV1,2,2*%
%TO.N,Net-(R3-Pad1)*%
X134750000Y-127360000D03*
%TO.P,RV1,3,3*%
%TO.N,Net-(Q1-E)*%
X132210000Y-127360000D03*
%TD*%
D11*
%TO.P,J1,1,Pin_1*%
%TO.N,+3V3*%
X146875000Y-110375000D03*
D12*
%TO.P,J1,2,Pin_2*%
%TO.N,/UI_LD_READ*%
X146875000Y-115455000D03*
%TO.P,J1,3,Pin_3*%
%TO.N,GND*%
X149415000Y-110375000D03*
%TO.P,J1,4,Pin_4*%
%TO.N,/UI_LD_WRITE*%
X149415000Y-115455000D03*
%TO.P,J1,5,Pin_5*%
%TO.N,/UI_SCR_SDA*%
X151955000Y-110375000D03*
%TO.P,J1,6,Pin_6*%
%TO.N,/UI_SD_CS*%
X151955000Y-115455000D03*
%TO.P,J1,7,Pin_7*%
%TO.N,/UI_SCR_SCL*%
X154495000Y-110375000D03*
%TO.P,J1,8,Pin_8*%
%TO.N,/UI_SD_SCK*%
X154495000Y-115455000D03*
%TO.P,J1,9,Pin_9*%
%TO.N,/UI_BTN_BACK*%
X157035000Y-110375000D03*
%TO.P,J1,10,Pin_10*%
%TO.N,/UI_SD_MISO*%
X157035000Y-115455000D03*
%TO.P,J1,11,Pin_11*%
%TO.N,/UI_BTN_NEXT*%
X159575000Y-110375000D03*
%TO.P,J1,12,Pin_12*%
%TO.N,/UI_SD_MOSI*%
X159575000Y-115455000D03*
%TO.P,J1,13,Pin_13*%
%TO.N,/UI_BTN_SELECT*%
X162115000Y-110375000D03*
%TO.P,J1,14,Pin_14*%
%TO.N,/UI_DETECT*%
X162115000Y-115455000D03*
%TO.P,J1,15,Pin_15*%
%TO.N,/UI_LD_SELECT*%
X164655000Y-110375000D03*
%TO.P,J1,16,Pin_16*%
%TO.N,GND*%
X164655000Y-115455000D03*
%TD*%
D16*
%TO.P,Q1,1,B*%
%TO.N,Net-(Q1-B)*%
X130050000Y-115620000D03*
%TO.P,Q1,2,E*%
%TO.N,Net-(Q1-E)*%
X128150000Y-115620000D03*
%TO.P,Q1,3,C*%
%TO.N,+3V3*%
X129100000Y-113220000D03*
%TD*%
D12*
%TO.P,U2,1,GPIO0*%
%TO.N,/PICO_CS_IN*%
X118970000Y-87580000D03*
D17*
X118970000Y-86680000D03*
%TO.P,U2,2,GPIO1*%
%TO.N,/PICO_CS_CK*%
X121510000Y-86680000D03*
D11*
%TO.P,U2,3,GND*%
%TO.N,GND*%
X124050000Y-87580000D03*
D17*
X124050000Y-86680000D03*
%TO.P,U2,4,GPIO2*%
%TO.N,/PICO_CS_OUT*%
X126590000Y-86680000D03*
%TO.P,U2,5,GPIO3*%
%TO.N,/PICO_HEAD1*%
X129130000Y-86680000D03*
D12*
%TO.P,U2,6,GPIO4*%
X131670000Y-87580000D03*
D17*
X131670000Y-86680000D03*
%TO.P,U2,7,GPIO5*%
%TO.N,/PICO_HEAD2*%
X134210000Y-86680000D03*
D11*
%TO.P,U2,8,GND*%
%TO.N,GND*%
X136750000Y-87580000D03*
D17*
X136750000Y-86680000D03*
%TO.P,U2,9,GPIO6*%
%TO.N,/PICO_HEAD2*%
X139290000Y-86680000D03*
D12*
%TO.P,U2,10,GPIO7*%
%TO.N,/PICO_R{slash}~{W}*%
X141830000Y-87580000D03*
D17*
X141830000Y-86680000D03*
%TO.P,U2,11,GPIO8*%
%TO.N,/QL2PICO_ERASE*%
X144370000Y-86680000D03*
D12*
%TO.P,U2,12,GPIO9*%
%TO.N,/UI_LD_SELECT*%
X146910000Y-87580000D03*
D17*
X146910000Y-86680000D03*
D11*
%TO.P,U2,13,GND*%
%TO.N,GND*%
X149450000Y-87580000D03*
D17*
X149450000Y-86680000D03*
%TO.P,U2,14,GPIO10*%
%TO.N,/UI_LD_READ*%
X151990000Y-86680000D03*
%TO.P,U2,15,GPIO11*%
%TO.N,/UI_LD_WRITE*%
X154530000Y-86680000D03*
%TO.P,U2,16,GPIO12*%
%TO.N,/UI_BTN_BACK*%
X157070000Y-86680000D03*
%TO.P,U2,17,GPIO13*%
%TO.N,/UI_BTN_NEXT*%
X159610000Y-86680000D03*
D11*
%TO.P,U2,18,GND*%
%TO.N,GND*%
X162150000Y-87580000D03*
D17*
X162150000Y-86680000D03*
%TO.P,U2,19,GPIO14*%
%TO.N,/UI_BTN_SELECT*%
X164690000Y-86680000D03*
D12*
%TO.P,U2,20,GPIO15*%
%TO.N,Net-(U2-GPIO15)*%
X167230000Y-87580000D03*
D17*
X167230000Y-86680000D03*
D12*
%TO.P,U2,21,GPIO16*%
%TO.N,/UI_SD_MISO*%
X167230000Y-105360000D03*
D17*
X167230000Y-106260000D03*
D12*
%TO.P,U2,22,GPIO17*%
%TO.N,/UI_SD_CS*%
X164690000Y-105360000D03*
D17*
X164690000Y-106260000D03*
D11*
%TO.P,U2,23,GND*%
%TO.N,GND*%
X162150000Y-105360000D03*
D17*
X162150000Y-106260000D03*
D11*
X149450000Y-105360000D03*
D12*
%TO.P,U2,24,GPIO18*%
%TO.N,/UI_SD_SCK*%
X159610000Y-105360000D03*
D17*
X159610000Y-106260000D03*
%TO.P,U2,25,GPIO19*%
%TO.N,/UI_SD_MOSI*%
X157070000Y-106260000D03*
%TO.P,U2,26,GPIO20*%
%TO.N,/UI_SCR_SDA*%
X154530000Y-106260000D03*
D12*
%TO.P,U2,27,GPIO21*%
%TO.N,/UI_SCR_SCL*%
X151990000Y-105360000D03*
D17*
X151990000Y-106260000D03*
%TO.P,U2,28,GND*%
%TO.N,GND*%
X149450000Y-106260000D03*
%TO.P,U2,29,GPIO22*%
%TO.N,/HEAD_DIR*%
X146910000Y-106260000D03*
D12*
%TO.P,U2,30,RUN*%
%TO.N,unconnected-(U2-RUN-Pad30)*%
X144370000Y-105360000D03*
D17*
X144370000Y-106260000D03*
D12*
%TO.P,U2,31,GPIO26_ADC0*%
%TO.N,unconnected-(U2-GPIO26_ADC0-Pad31)_1*%
X141830000Y-105360000D03*
D17*
X141830000Y-106260000D03*
D12*
%TO.P,U2,32,GPIO27_ADC1*%
%TO.N,unconnected-(U2-GPIO27_ADC1-Pad32)*%
X139290000Y-105360000D03*
D17*
X139290000Y-106260000D03*
D11*
%TO.P,U2,33,AGND*%
%TO.N,unconnected-(U2-AGND-Pad33)_1*%
X136750000Y-105360000D03*
D17*
X136750000Y-106260000D03*
%TO.P,U2,34,GPIO28_ADC2*%
%TO.N,/Speaker*%
X134210000Y-106260000D03*
D12*
%TO.P,U2,35,ADC_VREF*%
%TO.N,unconnected-(U2-ADC_VREF-Pad35)_1*%
X131670000Y-105360000D03*
D17*
X131670000Y-106260000D03*
D12*
%TO.P,U2,36,3V3*%
%TO.N,+3V3*%
X129130000Y-105360000D03*
D17*
X129130000Y-106260000D03*
D12*
%TO.P,U2,37,3V3_EN*%
%TO.N,unconnected-(U2-3V3_EN-Pad37)*%
X126590000Y-105360000D03*
D17*
X126590000Y-106260000D03*
D11*
%TO.P,U2,38,GND*%
%TO.N,GND*%
X124050000Y-105360000D03*
D17*
X124050000Y-106260000D03*
D12*
%TO.P,U2,39,VSYS*%
%TO.N,Net-(D1-K)*%
X121510000Y-105360000D03*
D17*
X121510000Y-106260000D03*
D12*
%TO.P,U2,40,VBUS*%
%TO.N,unconnected-(U2-VBUS-Pad40)*%
X118970000Y-105360000D03*
D17*
X118970000Y-106260000D03*
%TD*%
D11*
%TO.P,LS1,1,1*%
%TO.N,Net-(C7-Pad1)*%
X140085000Y-122625000D03*
D18*
%TO.P,LS1,2,2*%
%TO.N,GND*%
X140085000Y-120085000D03*
%TD*%
D19*
%TO.P,R2,1*%
%TO.N,Net-(Q1-B)*%
X132930000Y-114585000D03*
%TO.P,R2,2*%
%TO.N,/Speaker*%
X132930000Y-112935000D03*
%TD*%
D20*
%TO.P,C7,1*%
%TO.N,Net-(C7-Pad1)*%
X139630000Y-114700000D03*
D21*
%TO.P,C7,2*%
%TO.N,GND*%
X141130000Y-114700000D03*
%TD*%
D22*
%TO.P,R1,1*%
%TO.N,Net-(IC3-OE)*%
X141000000Y-78375000D03*
%TO.P,R1,2*%
%TO.N,+5V*%
X141000000Y-80025000D03*
%TD*%
D23*
%TO.N,GND*%
X160840000Y-102180000D03*
X164570000Y-99530000D03*
X169180000Y-97820000D03*
X170390000Y-82830000D03*
X167820000Y-82830000D03*
X160240000Y-82810000D03*
X151100000Y-81170000D03*
%TO.N,/QL_R{slash}~{W}*%
X146186473Y-80386996D03*
%TO.N,GND*%
X165880000Y-97150000D03*
X163890000Y-94480000D03*
X146200000Y-129040000D03*
X151320000Y-128950000D03*
X161470000Y-130080000D03*
X168020000Y-129970000D03*
%TO.N,+5V*%
X142750000Y-81700000D03*
X147375000Y-100865000D03*
X147350000Y-95250000D03*
X145640000Y-90490000D03*
%TO.N,GND*%
X164600000Y-102220000D03*
X148700000Y-78920000D03*
X178680000Y-79370000D03*
X124930000Y-109840000D03*
X132000000Y-77700000D03*
X152800000Y-90200000D03*
X146550000Y-77700000D03*
X158790000Y-121430000D03*
X162200000Y-108540000D03*
X174420000Y-86760000D03*
X157200000Y-102200000D03*
X165890000Y-89310000D03*
X132300000Y-97480000D03*
X159200000Y-92200000D03*
X155800000Y-90200000D03*
X141450000Y-128020000D03*
X125600000Y-89870000D03*
X136200000Y-100400000D03*
X160270000Y-75970000D03*
X155400000Y-118200000D03*
X171700000Y-86810000D03*
X174460000Y-96230000D03*
X142430000Y-101870000D03*
X141800000Y-111460000D03*
X170300000Y-112900000D03*
X151550000Y-121500000D03*
X178570000Y-108030000D03*
X147000000Y-91000000D03*
X148000000Y-118200000D03*
X174850000Y-129140000D03*
X153900000Y-102300000D03*
X146900000Y-102610000D03*
X154320000Y-124830000D03*
X125570000Y-121230000D03*
X160000000Y-90200000D03*
X120320000Y-102220000D03*
X165530000Y-112130000D03*
X129190000Y-97460000D03*
X160600000Y-94200000D03*
X174900000Y-121180000D03*
X120400000Y-83200000D03*
X149830000Y-82870000D03*
X160830000Y-111690000D03*
X151890000Y-112830000D03*
X151600000Y-108800000D03*
X128240000Y-129910000D03*
X154849739Y-108783420D03*
X168600000Y-108800000D03*
X133600000Y-92450000D03*
X123780000Y-103350000D03*
X158760000Y-126470000D03*
X120320000Y-89900000D03*
X119920000Y-109840000D03*
X123850000Y-129870000D03*
X157000000Y-96400000D03*
X168510000Y-103710000D03*
X172760000Y-106890000D03*
X125630000Y-97460000D03*
X126230000Y-76590000D03*
X153240000Y-77520000D03*
X176660000Y-105260000D03*
X160860000Y-99490000D03*
X160830000Y-113890000D03*
X131860000Y-110640000D03*
X149380000Y-112860000D03*
X157060000Y-113740000D03*
X176080000Y-76020000D03*
X119979516Y-125623917D03*
X140600000Y-98400000D03*
X148600000Y-99800000D03*
X178770000Y-96260000D03*
X136800000Y-89800000D03*
X129390000Y-123080000D03*
X157000000Y-92440000D03*
X153940000Y-96400000D03*
X178730000Y-86830000D03*
X130000000Y-84000000D03*
X134440000Y-96240000D03*
X165430000Y-76110000D03*
X120990000Y-79270000D03*
X145800000Y-96400000D03*
X133700000Y-103000000D03*
X141000000Y-91000000D03*
X142100000Y-77100000D03*
X174797859Y-125010367D03*
X158200000Y-90200000D03*
X120040000Y-122480000D03*
X150800000Y-96400000D03*
X118140000Y-115830000D03*
X148901455Y-124657198D03*
X168600000Y-117400000D03*
X178710000Y-113110000D03*
X130700000Y-89900000D03*
X178740000Y-117780000D03*
X122370000Y-109860000D03*
X142990000Y-83680000D03*
X136200000Y-95000000D03*
X144160000Y-124660000D03*
X172380000Y-111630000D03*
X140400000Y-83590000D03*
D24*
%TO.N,+3V3*%
X139200000Y-95240000D03*
X139200000Y-91000000D03*
D23*
X139920000Y-99470000D03*
%TO.N,/QL2PICO_ERASE*%
X148600000Y-83350000D03*
%TO.N,/QL_HEAD1*%
X159305000Y-93345000D03*
%TO.N,/HEAD_DIR*%
X142590000Y-99880000D03*
X141780000Y-94300000D03*
%TO.N,/PICO_HEAD2*%
X143600000Y-97820000D03*
%TO.N,/QL_CS_CK*%
X143100000Y-80400000D03*
%TO.N,Net-(IC3-OE)*%
X139900000Y-78389579D03*
%TO.N,/PICO_CS_OUT*%
X136500000Y-79700000D03*
%TO.N,/PICO_CS_CK*%
X125674421Y-80935579D03*
%TO.N,/UI_SD_SCK*%
X155740000Y-109560000D03*
%TO.N,/UI_DETECT*%
X170400000Y-98000000D03*
%TO.N,/UI_LD_SELECT*%
X163190000Y-95980000D03*
X161400000Y-92600000D03*
X165944000Y-98744000D03*
%TD*%
D25*
%TO.N,/QL2PICO_ERASE*%
X148600000Y-83350000D02*
X145690000Y-83350000D01*
X145690000Y-83350000D02*
X144370000Y-84670000D01*
X144370000Y-84670000D02*
X144370000Y-87580000D01*
%TO.N,/QL_R{slash}~{W}*%
X146186473Y-80386996D02*
X146218961Y-80354508D01*
X157674000Y-82844000D02*
X157674000Y-82819000D01*
X157674000Y-82819000D02*
X157731000Y-82819000D01*
X146218961Y-80354508D02*
X148764508Y-80354508D01*
X157731000Y-82819000D02*
X158960000Y-81590000D01*
X148764508Y-80354508D02*
X151254000Y-82844000D01*
X151254000Y-82844000D02*
X157674000Y-82844000D01*
%TO.N,/UI_BTN_SELECT*%
X162115000Y-110375000D02*
X163404000Y-109086000D01*
X163404000Y-109086000D02*
X163404000Y-98286000D01*
X163404000Y-98286000D02*
X164920000Y-96770000D01*
X164920000Y-96770000D02*
X164920000Y-87810000D01*
X164920000Y-87810000D02*
X164690000Y-87580000D01*
%TO.N,/UI_LD_SELECT*%
X165944000Y-98744000D02*
X165944000Y-109086000D01*
X165944000Y-109086000D02*
X164655000Y-110375000D01*
X163190000Y-95980000D02*
X163180000Y-95980000D01*
X163180000Y-95980000D02*
X162800000Y-95600000D01*
X162800000Y-95600000D02*
X162800000Y-94000000D01*
X162800000Y-94000000D02*
X161400000Y-92600000D01*
D26*
%TO.N,+5V*%
X147375000Y-100865000D02*
X147375000Y-100745000D01*
X147350000Y-95250000D02*
X147350000Y-95150000D01*
D27*
X142700000Y-81700000D02*
X141025000Y-80025000D01*
D26*
X147375000Y-100745000D02*
X147350000Y-100720000D01*
X147350000Y-100720000D02*
X147350000Y-95250000D01*
D27*
X141025000Y-80025000D02*
X141000000Y-80025000D01*
X142750000Y-81700000D02*
X142700000Y-81700000D01*
X141000000Y-80025000D02*
X141000000Y-80225000D01*
D26*
X147350000Y-95150000D02*
X145640000Y-93440000D01*
X145640000Y-93440000D02*
X145640000Y-90490000D01*
%TO.N,+3V3*%
X139200000Y-95240000D02*
X139200000Y-97600000D01*
X139200000Y-98100000D02*
X138700000Y-98100000D01*
X139200000Y-98100000D02*
X139200000Y-98750000D01*
X129130000Y-102870000D02*
X129130000Y-105360000D01*
X129130000Y-113190000D02*
X129100000Y-113220000D01*
X139200000Y-91000000D02*
X139200000Y-95240000D01*
X129130000Y-105360000D02*
X129130000Y-113190000D01*
X138700000Y-98150000D02*
X138700000Y-98100000D01*
X139200000Y-97600000D02*
X139200000Y-98100000D01*
X139920000Y-99470000D02*
X139150000Y-98700000D01*
X139200000Y-97600000D02*
X138700000Y-98100000D01*
X139200000Y-98750000D02*
X139920000Y-99470000D01*
X139150000Y-98700000D02*
X139150000Y-98600000D01*
X139150000Y-98600000D02*
X138700000Y-98150000D01*
X138700000Y-98100000D02*
X133900000Y-98100000D01*
X133900000Y-98100000D02*
X129130000Y-102870000D01*
D25*
%TO.N,/QL_HEAD1*%
X160870000Y-84330000D02*
X162754000Y-82446000D01*
X160870000Y-91780000D02*
X160870000Y-84330000D01*
X159305000Y-93345000D02*
X160870000Y-91780000D01*
X162754000Y-82446000D02*
X162754000Y-80336000D01*
X162754000Y-80336000D02*
X164040000Y-79050000D01*
D26*
%TO.N,/PICO_HEAD1*%
X131670000Y-87580000D02*
X129130000Y-87580000D01*
D27*
%TO.N,/HEAD_DIR*%
X141780000Y-99150000D02*
X141780000Y-94300000D01*
X142590000Y-99930000D02*
X146910000Y-104250000D01*
X142510000Y-99880000D02*
X141780000Y-99150000D01*
X142590000Y-99880000D02*
X142590000Y-99930000D01*
X142590000Y-99880000D02*
X142510000Y-99880000D01*
X146910000Y-104250000D02*
X146910000Y-105360000D01*
%TO.N,/PICO_HEAD2*%
X143550000Y-97770000D02*
X143550000Y-91840000D01*
X139290000Y-84290000D02*
X139290000Y-87580000D01*
X134210000Y-84190000D02*
X135800000Y-82600000D01*
X137600000Y-82600000D02*
X139290000Y-84290000D01*
X134210000Y-87580000D02*
X134210000Y-84190000D01*
X143550000Y-91840000D02*
X139290000Y-87580000D01*
X135800000Y-82600000D02*
X137600000Y-82600000D01*
X143600000Y-97820000D02*
X143550000Y-97770000D01*
D25*
%TO.N,/QL_CS_CK*%
X159125000Y-76675000D02*
X161500000Y-79050000D01*
X143020000Y-77920000D02*
X144265000Y-76675000D01*
X143100000Y-80400000D02*
X143020000Y-80320000D01*
X143020000Y-80320000D02*
X143020000Y-77920000D01*
X144265000Y-76675000D02*
X159125000Y-76675000D01*
%TO.N,Net-(IC3-OE)*%
X141000000Y-78375000D02*
X141000000Y-78575000D01*
X139914579Y-78375000D02*
X141000000Y-78375000D01*
X139900000Y-78389579D02*
X139914579Y-78375000D01*
D27*
%TO.N,/PICO_CS_OUT*%
X126590000Y-82760000D02*
X126590000Y-87580000D01*
X129650000Y-79700000D02*
X126590000Y-82760000D01*
X136500000Y-79700000D02*
X129650000Y-79700000D01*
%TO.N,/PICO_CS_CK*%
X121510000Y-84290000D02*
X121510000Y-87580000D01*
X124864421Y-80935579D02*
X121510000Y-84290000D01*
X125674421Y-80935579D02*
X124864421Y-80935579D01*
D25*
%TO.N,/UI_LD_READ*%
X149800000Y-101000000D02*
X149800000Y-91400000D01*
X148164000Y-110897424D02*
X148161000Y-110894424D01*
X148164000Y-108411000D02*
X148164000Y-104109000D01*
X151990000Y-89210000D02*
X151990000Y-87580000D01*
X148161000Y-104106000D02*
X148161000Y-102639000D01*
X148161000Y-110894424D02*
X148161000Y-108414000D01*
X148161000Y-108414000D02*
X148164000Y-108411000D01*
X148164000Y-104109000D02*
X148161000Y-104106000D01*
X149800000Y-91400000D02*
X151990000Y-89210000D01*
X148164000Y-114166000D02*
X148164000Y-110897424D01*
X146875000Y-115455000D02*
X148164000Y-114166000D01*
X148161000Y-102639000D02*
X149800000Y-101000000D01*
%TO.N,/UI_LD_WRITE*%
X150704000Y-104106000D02*
X150701000Y-104103000D01*
X152040000Y-102170000D02*
X152040000Y-93560000D01*
X150701000Y-114169000D02*
X150701000Y-108414000D01*
X150701000Y-103509000D02*
X152040000Y-102170000D01*
X150701000Y-104103000D02*
X150701000Y-103509000D01*
X154530000Y-91070000D02*
X154530000Y-87580000D01*
X149415000Y-115455000D02*
X150701000Y-114169000D01*
X150704000Y-108414000D02*
X150704000Y-104106000D01*
X152040000Y-93560000D02*
X154530000Y-91070000D01*
X150701000Y-108414000D02*
X150704000Y-108414000D01*
D27*
%TO.N,/UI_SCR_SDA*%
X151955000Y-109845000D02*
X154530000Y-107270000D01*
X151955000Y-110375000D02*
X151955000Y-109845000D01*
X154530000Y-107270000D02*
X154530000Y-105360000D01*
X154530000Y-105360000D02*
X154530000Y-107800000D01*
D25*
%TO.N,/UI_SD_SCK*%
X155749000Y-109855576D02*
X155749000Y-113291000D01*
X155740000Y-109560000D02*
X155740000Y-109846576D01*
X155740000Y-109846576D02*
X155749000Y-109855576D01*
X155749000Y-113291000D02*
X154495000Y-114545000D01*
X154495000Y-114545000D02*
X154495000Y-115455000D01*
%TO.N,/UI_BTN_BACK*%
X157035000Y-110375000D02*
X157035000Y-109455000D01*
X157000000Y-90800000D02*
X157000000Y-87650000D01*
X157035000Y-109455000D02*
X155784000Y-108204000D01*
X157000000Y-87650000D02*
X157070000Y-87580000D01*
X155784000Y-92016000D02*
X157000000Y-90800000D01*
X155784000Y-108204000D02*
X155784000Y-92016000D01*
%TO.N,/UI_BTN_NEXT*%
X159200000Y-87990000D02*
X159610000Y-87580000D01*
X159200000Y-90800000D02*
X159200000Y-87990000D01*
X158356000Y-108226000D02*
X158356000Y-91644000D01*
X159575000Y-110375000D02*
X159575000Y-109445000D01*
X158356000Y-91644000D02*
X159200000Y-90800000D01*
X159575000Y-109445000D02*
X158356000Y-108226000D01*
%TO.N,/UI_SD_MOSI*%
X158321000Y-114201000D02*
X158321000Y-109496000D01*
X159575000Y-115455000D02*
X158321000Y-114201000D01*
X157070000Y-108245000D02*
X157070000Y-105360000D01*
X158321000Y-109496000D02*
X157070000Y-108245000D01*
%TO.N,/UI_DETECT*%
X169600000Y-98800000D02*
X169600000Y-110050000D01*
X162115000Y-114485000D02*
X162115000Y-115455000D01*
X169600000Y-110050000D02*
X166550000Y-113100000D01*
X166550000Y-113100000D02*
X163500000Y-113100000D01*
X163500000Y-113100000D02*
X162115000Y-114485000D01*
X170400000Y-98000000D02*
X169600000Y-98800000D01*
D27*
%TO.N,Net-(Q1-B)*%
X131895000Y-115620000D02*
X132930000Y-114585000D01*
X130050000Y-115620000D02*
X131895000Y-115620000D01*
%TO.N,Net-(Q1-E)*%
X132210000Y-127360000D02*
X132210000Y-122050000D01*
X128170000Y-115640000D02*
X128150000Y-115620000D01*
X128170000Y-118010000D02*
X128170000Y-115640000D01*
X132210000Y-122050000D02*
X128170000Y-118010000D01*
%TO.N,/Speaker*%
X132940000Y-111370000D02*
X132940000Y-112925000D01*
X134210000Y-110100000D02*
X132940000Y-111370000D01*
X132940000Y-112925000D02*
X132930000Y-112935000D01*
X134210000Y-105360000D02*
X134210000Y-110100000D01*
%TO.N,Net-(R3-Pad1)*%
X135790000Y-123140000D02*
X135780000Y-123140000D01*
X134750000Y-124170000D02*
X134750000Y-127360000D01*
X135780000Y-123140000D02*
X134750000Y-124170000D01*
%TO.N,Net-(C7-Pad1)*%
X140085000Y-122625000D02*
X138955000Y-122625000D01*
X135790000Y-119460000D02*
X135790000Y-112920000D01*
X138955000Y-122625000D02*
X135790000Y-119460000D01*
%TD*%
%TA.AperFunction,Conductor*%
%TO.N,GND*%
G36*
X156569817Y-111652264D02*
G01*
X156716884Y-111700049D01*
X156928084Y-111733500D01*
X156928085Y-111733500D01*
X157141915Y-111733500D01*
X157141916Y-111733500D01*
X157353116Y-111700049D01*
X157500182Y-111652264D01*
X157570023Y-111650270D01*
X157629856Y-111686350D01*
X157660684Y-111749051D01*
X157662500Y-111770196D01*
X157662500Y-114059803D01*
X157642815Y-114126842D01*
X157590011Y-114172597D01*
X157520853Y-114182541D01*
X157500183Y-114177734D01*
X157353118Y-114129951D01*
X157353119Y-114129951D01*
X157190172Y-114104143D01*
X157141916Y-114096500D01*
X156928084Y-114096500D01*
X156857684Y-114107650D01*
X156716882Y-114129951D01*
X156513519Y-114196026D01*
X156513516Y-114196027D01*
X156322990Y-114293106D01*
X156149993Y-114418796D01*
X155998796Y-114569993D01*
X155873105Y-114742991D01*
X155870727Y-114746873D01*
X155846239Y-114769026D01*
X155822490Y-114791950D01*
X155820453Y-114792355D01*
X155818914Y-114793748D01*
X155786352Y-114799143D01*
X155753964Y-114805590D01*
X155752031Y-114804829D01*
X155749984Y-114805169D01*
X155719666Y-114792100D01*
X155688943Y-114780017D01*
X155687252Y-114778128D01*
X155685822Y-114777512D01*
X155664432Y-114754622D01*
X155658942Y-114747011D01*
X155656894Y-114742991D01*
X155538700Y-114580311D01*
X155538525Y-114580068D01*
X155526977Y-114547349D01*
X155515295Y-114514607D01*
X155515345Y-114514390D01*
X155515272Y-114514182D01*
X155523232Y-114480476D01*
X155531121Y-114446553D01*
X155531298Y-114446318D01*
X155531331Y-114446183D01*
X155531597Y-114445925D01*
X155551408Y-114419851D01*
X156260491Y-113710769D01*
X156332555Y-113602917D01*
X156382194Y-113483077D01*
X156394285Y-113422294D01*
X156403365Y-113376645D01*
X156403365Y-113376641D01*
X156407500Y-113355856D01*
X156407500Y-111770196D01*
X156427185Y-111703157D01*
X156479989Y-111657402D01*
X156549147Y-111647458D01*
X156569817Y-111652264D01*
G37*
%TD.AperFunction*%
%TA.AperFunction,Conductor*%
G36*
X153304173Y-111052483D02*
G01*
X153330730Y-111083132D01*
X153333103Y-111087005D01*
X153333106Y-111087009D01*
X153458794Y-111260004D01*
X153609996Y-111411206D01*
X153782991Y-111536894D01*
X153867499Y-111579953D01*
X153973516Y-111633972D01*
X153973519Y-111633973D01*
X154037309Y-111654699D01*
X154176884Y-111700049D01*
X154388084Y-111733500D01*
X154388085Y-111733500D01*
X154601915Y-111733500D01*
X154601916Y-111733500D01*
X154813116Y-111700049D01*
X154928183Y-111662661D01*
X154998023Y-111660667D01*
X155057856Y-111696747D01*
X155088684Y-111759448D01*
X155090500Y-111780593D01*
X155090500Y-112966877D01*
X155070815Y-113033916D01*
X155054181Y-113054558D01*
X153983513Y-114125225D01*
X153983510Y-114125228D01*
X153936038Y-114196277D01*
X153935996Y-114196340D01*
X153934878Y-114198011D01*
X153888114Y-114239541D01*
X153782993Y-114293104D01*
X153609993Y-114418796D01*
X153458796Y-114569993D01*
X153333105Y-114742991D01*
X153330727Y-114746873D01*
X153278914Y-114793748D01*
X153209984Y-114805169D01*
X153145822Y-114777512D01*
X153119273Y-114746873D01*
X153116894Y-114742991D01*
X153085659Y-114700000D01*
X152991206Y-114569996D01*
X152840004Y-114418794D01*
X152667009Y-114293106D01*
X152636856Y-114277742D01*
X152476483Y-114196027D01*
X152476480Y-114196026D01*
X152273117Y-114129951D01*
X152167516Y-114113225D01*
X152061916Y-114096500D01*
X151848084Y-114096500D01*
X151805844Y-114103190D01*
X151636880Y-114129951D01*
X151521817Y-114167337D01*
X151451976Y-114169332D01*
X151392144Y-114133251D01*
X151361316Y-114070550D01*
X151359500Y-114049406D01*
X151359500Y-111780593D01*
X151379185Y-111713554D01*
X151431989Y-111667799D01*
X151501147Y-111657855D01*
X151521814Y-111662661D01*
X151636884Y-111700049D01*
X151848084Y-111733500D01*
X151848085Y-111733500D01*
X152061915Y-111733500D01*
X152061916Y-111733500D01*
X152273116Y-111700049D01*
X152476483Y-111633972D01*
X152667009Y-111536894D01*
X152840004Y-111411206D01*
X152991206Y-111260004D01*
X153116894Y-111087009D01*
X153116896Y-111087004D01*
X153119270Y-111083132D01*
X153171080Y-111036254D01*
X153240009Y-111024829D01*
X153304173Y-111052483D01*
G37*
%TD.AperFunction*%
%TA.AperFunction,Conductor*%
G36*
X149665000Y-111702230D02*
G01*
X149731125Y-111691758D01*
X149880181Y-111643326D01*
X149950022Y-111641331D01*
X150009855Y-111677411D01*
X150040684Y-111740111D01*
X150042500Y-111761257D01*
X150042500Y-113844877D01*
X150033855Y-113874317D01*
X150027332Y-113904304D01*
X150023577Y-113909319D01*
X150022815Y-113911916D01*
X150006181Y-113932559D01*
X149843117Y-114095622D01*
X149781794Y-114129106D01*
X149736039Y-114130413D01*
X149521916Y-114096500D01*
X149308084Y-114096500D01*
X149265844Y-114103190D01*
X149096880Y-114129951D01*
X148984817Y-114166362D01*
X148914976Y-114168357D01*
X148855143Y-114132276D01*
X148824316Y-114069575D01*
X148822500Y-114048431D01*
X148822500Y-111772630D01*
X148842185Y-111705591D01*
X148894989Y-111659836D01*
X148964147Y-111649892D01*
X148984818Y-111654699D01*
X149098872Y-111691757D01*
X149165000Y-111702231D01*
X149165000Y-110808012D01*
X149222007Y-110840925D01*
X149349174Y-110875000D01*
X149480826Y-110875000D01*
X149607993Y-110840925D01*
X149665000Y-110808012D01*
X149665000Y-111702230D01*
G37*
%TD.AperFunction*%
%TA.AperFunction,Conductor*%
G36*
X149700000Y-108510000D02*
G01*
X149918500Y-108510000D01*
X149985539Y-108529685D01*
X150031294Y-108582489D01*
X150042500Y-108634000D01*
X150042500Y-108988741D01*
X150022815Y-109055780D01*
X149970011Y-109101535D01*
X149900853Y-109111479D01*
X149880183Y-109106672D01*
X149731125Y-109058241D01*
X149665000Y-109047768D01*
X149665000Y-109941988D01*
X149607993Y-109909075D01*
X149480826Y-109875000D01*
X149349174Y-109875000D01*
X149222007Y-109909075D01*
X149165000Y-109941988D01*
X149165000Y-109047768D01*
X149164999Y-109047768D01*
X149098875Y-109058241D01*
X148981817Y-109096275D01*
X148911976Y-109098270D01*
X148852143Y-109062189D01*
X148821316Y-108999488D01*
X148819500Y-108978344D01*
X148819500Y-108634000D01*
X148839185Y-108566961D01*
X148891989Y-108521206D01*
X148943500Y-108510000D01*
X149200000Y-108510000D01*
X149200000Y-105804560D01*
X149253147Y-105835245D01*
X149382857Y-105870000D01*
X149517143Y-105870000D01*
X149646853Y-105835245D01*
X149700000Y-105804560D01*
X149700000Y-108510000D01*
G37*
%TD.AperFunction*%
%TA.AperFunction,Conductor*%
G36*
X162400000Y-108510000D02*
G01*
X162621500Y-108510000D01*
X162630185Y-108512550D01*
X162639147Y-108511262D01*
X162663187Y-108522240D01*
X162688539Y-108529685D01*
X162694466Y-108536525D01*
X162702703Y-108540287D01*
X162716992Y-108562521D01*
X162734294Y-108582489D01*
X162736581Y-108593003D01*
X162740477Y-108599065D01*
X162745500Y-108634000D01*
X162745500Y-108761877D01*
X162725815Y-108828916D01*
X162709181Y-108849559D01*
X162543117Y-109015622D01*
X162481794Y-109049106D01*
X162436039Y-109050413D01*
X162221916Y-109016500D01*
X162008084Y-109016500D01*
X161952959Y-109025231D01*
X161796882Y-109049951D01*
X161593519Y-109116026D01*
X161593516Y-109116027D01*
X161402990Y-109213106D01*
X161229993Y-109338796D01*
X161078796Y-109489993D01*
X160953105Y-109662991D01*
X160950727Y-109666873D01*
X160898914Y-109713748D01*
X160829984Y-109725169D01*
X160765822Y-109697512D01*
X160739273Y-109666873D01*
X160736894Y-109662991D01*
X160611206Y-109489996D01*
X160460004Y-109338794D01*
X160287009Y-109213106D01*
X160202147Y-109169866D01*
X160155341Y-109128273D01*
X160086491Y-109025232D01*
X160050000Y-108988741D01*
X159994769Y-108933510D01*
X159791440Y-108730181D01*
X159757955Y-108668858D01*
X159762939Y-108599166D01*
X159804811Y-108543233D01*
X159870275Y-108518816D01*
X159879121Y-108518500D01*
X160508638Y-108518500D01*
X160508654Y-108518499D01*
X160535692Y-108515591D01*
X160569201Y-108511989D01*
X160574537Y-108509999D01*
X160591703Y-108503596D01*
X160706204Y-108460889D01*
X160812782Y-108381105D01*
X160878244Y-108356689D01*
X160946517Y-108371540D01*
X160961402Y-108381106D01*
X161057911Y-108453353D01*
X161057913Y-108453354D01*
X161192620Y-108503596D01*
X161192627Y-108503598D01*
X161252155Y-108509999D01*
X161252172Y-108510000D01*
X161900000Y-108510000D01*
X161900000Y-105804560D01*
X161953147Y-105835245D01*
X162082857Y-105870000D01*
X162217143Y-105870000D01*
X162346853Y-105835245D01*
X162400000Y-105804560D01*
X162400000Y-108510000D01*
G37*
%TD.AperFunction*%
%TA.AperFunction,Conductor*%
G36*
X155136722Y-108518743D02*
G01*
X155137557Y-108518511D01*
X155170207Y-108528576D01*
X155202931Y-108538185D01*
X155203641Y-108538883D01*
X155204326Y-108539094D01*
X155230687Y-108562563D01*
X155235145Y-108567850D01*
X155272509Y-108623769D01*
X155334977Y-108686237D01*
X155338367Y-108690257D01*
X155350416Y-108717606D01*
X155364738Y-108743835D01*
X155364351Y-108749237D01*
X155366536Y-108754196D01*
X155361885Y-108783721D01*
X155359754Y-108813527D01*
X155356507Y-108817863D01*
X155355665Y-108823215D01*
X155331742Y-108850947D01*
X155317883Y-108869461D01*
X155314769Y-108870622D01*
X155312463Y-108873296D01*
X155224608Y-108931998D01*
X155111999Y-109044607D01*
X155111993Y-109044615D01*
X155107897Y-109050745D01*
X155054283Y-109095548D01*
X154984957Y-109104252D01*
X154966480Y-109099781D01*
X154813117Y-109049951D01*
X154657041Y-109025231D01*
X154601916Y-109016500D01*
X154388084Y-109016500D01*
X154346975Y-109023011D01*
X154176880Y-109049951D01*
X154038746Y-109094833D01*
X153968905Y-109096828D01*
X153909073Y-109060747D01*
X153878245Y-108998046D01*
X153886210Y-108928632D01*
X153912746Y-108889223D01*
X154247151Y-108554819D01*
X154308474Y-108521334D01*
X154334832Y-108518500D01*
X155135892Y-108518500D01*
X155136722Y-108518743D01*
G37*
%TD.AperFunction*%
%TA.AperFunction,Conductor*%
G36*
X152047206Y-108538185D02*
G01*
X152092961Y-108590989D01*
X152102905Y-108660147D01*
X152073880Y-108723703D01*
X152067848Y-108730181D01*
X151797493Y-109000535D01*
X151736170Y-109034020D01*
X151729211Y-109035327D01*
X151636880Y-109049951D01*
X151521817Y-109087337D01*
X151451976Y-109089332D01*
X151392144Y-109053251D01*
X151361316Y-108990550D01*
X151359500Y-108969406D01*
X151359500Y-108642500D01*
X151379185Y-108575461D01*
X151431989Y-108529706D01*
X151483500Y-108518500D01*
X151980167Y-108518500D01*
X152047206Y-108538185D01*
G37*
%TD.AperFunction*%
%TA.AperFunction,Conductor*%
G36*
X153276979Y-88787614D02*
G01*
X153303335Y-88789500D01*
X153315046Y-88795895D01*
X153319426Y-88796848D01*
X153334311Y-88806415D01*
X153433792Y-88880887D01*
X153433793Y-88880888D01*
X153570794Y-88931987D01*
X153570799Y-88931989D01*
X153598050Y-88934918D01*
X153631345Y-88938499D01*
X153631362Y-88938500D01*
X153747500Y-88938500D01*
X153814539Y-88958185D01*
X153860294Y-89010989D01*
X153871500Y-89062500D01*
X153871500Y-90745877D01*
X153851815Y-90812916D01*
X153835181Y-90833558D01*
X151528511Y-93140227D01*
X151528510Y-93140228D01*
X151456447Y-93248079D01*
X151456443Y-93248086D01*
X151406806Y-93367922D01*
X151406804Y-93367928D01*
X151381500Y-93495140D01*
X151381500Y-101845877D01*
X151361815Y-101912916D01*
X151345181Y-101933558D01*
X150189513Y-103089225D01*
X150189507Y-103089232D01*
X150148577Y-103150490D01*
X150148576Y-103150492D01*
X150117449Y-103197074D01*
X150117441Y-103197089D01*
X150067807Y-103316918D01*
X150067804Y-103316928D01*
X150042500Y-103444140D01*
X150042500Y-103886000D01*
X150022815Y-103953039D01*
X149970011Y-103998794D01*
X149918500Y-104010000D01*
X149700000Y-104010000D01*
X149700000Y-104915439D01*
X149646853Y-104884755D01*
X149517143Y-104850000D01*
X149382857Y-104850000D01*
X149253147Y-104884755D01*
X149200000Y-104915439D01*
X149200000Y-104010000D01*
X148943500Y-104010000D01*
X148876461Y-103990315D01*
X148830706Y-103937511D01*
X148819500Y-103886000D01*
X148819500Y-102963122D01*
X148839185Y-102896083D01*
X148855819Y-102875441D01*
X150311489Y-101419771D01*
X150311491Y-101419769D01*
X150383555Y-101311917D01*
X150433194Y-101192077D01*
X150458500Y-101064857D01*
X150458500Y-100935143D01*
X150458500Y-91724122D01*
X150478185Y-91657083D01*
X150494819Y-91636441D01*
X152501488Y-89629772D01*
X152501491Y-89629769D01*
X152573555Y-89521917D01*
X152623195Y-89402077D01*
X152648500Y-89274856D01*
X152648500Y-89145143D01*
X152648500Y-89062500D01*
X152668185Y-88995461D01*
X152720989Y-88949706D01*
X152772500Y-88938500D01*
X152888638Y-88938500D01*
X152888654Y-88938499D01*
X152915692Y-88935591D01*
X152949201Y-88931989D01*
X152949207Y-88931987D01*
X153019405Y-88905804D01*
X153086204Y-88880889D01*
X153086204Y-88880888D01*
X153086206Y-88880888D01*
X153086207Y-88880887D01*
X153185689Y-88806415D01*
X153210448Y-88797179D01*
X153233643Y-88784515D01*
X153242671Y-88785160D01*
X153251153Y-88781997D01*
X153276979Y-88787614D01*
G37*
%TD.AperFunction*%
%TA.AperFunction,Conductor*%
G36*
X162400000Y-88930000D02*
G01*
X163047828Y-88930000D01*
X163047844Y-88929999D01*
X163107372Y-88923598D01*
X163107379Y-88923596D01*
X163242086Y-88873354D01*
X163242089Y-88873352D01*
X163338596Y-88801107D01*
X163404060Y-88776689D01*
X163472334Y-88791540D01*
X163487216Y-88801104D01*
X163593796Y-88880889D01*
X163699637Y-88920366D01*
X163730793Y-88931987D01*
X163730799Y-88931989D01*
X163758050Y-88934918D01*
X163791345Y-88938499D01*
X163791362Y-88938500D01*
X164137500Y-88938500D01*
X164204539Y-88958185D01*
X164250294Y-89010989D01*
X164261500Y-89062500D01*
X164261500Y-96445877D01*
X164241815Y-96512916D01*
X164225181Y-96533558D01*
X162892511Y-97866227D01*
X162892510Y-97866228D01*
X162870192Y-97899631D01*
X162842216Y-97941500D01*
X162827801Y-97963073D01*
X162820448Y-97974078D01*
X162820443Y-97974086D01*
X162770806Y-98093922D01*
X162770804Y-98093928D01*
X162745500Y-98221140D01*
X162745500Y-103886000D01*
X162725815Y-103953039D01*
X162673011Y-103998794D01*
X162621500Y-104010000D01*
X162400000Y-104010000D01*
X162400000Y-104915439D01*
X162346853Y-104884755D01*
X162217143Y-104850000D01*
X162082857Y-104850000D01*
X161953147Y-104884755D01*
X161900000Y-104915439D01*
X161900000Y-104010000D01*
X161252155Y-104010000D01*
X161192627Y-104016401D01*
X161192620Y-104016403D01*
X161057913Y-104066645D01*
X161057910Y-104066647D01*
X160961402Y-104138893D01*
X160895937Y-104163310D01*
X160827664Y-104148458D01*
X160812780Y-104138893D01*
X160706204Y-104059111D01*
X160569203Y-104008011D01*
X160508654Y-104001500D01*
X160508638Y-104001500D01*
X159138500Y-104001500D01*
X159071461Y-103981815D01*
X159025706Y-103929011D01*
X159014500Y-103877500D01*
X159014500Y-94262649D01*
X159034185Y-94195610D01*
X159086989Y-94149855D01*
X159156147Y-94139911D01*
X159162660Y-94141026D01*
X159225370Y-94153500D01*
X159384631Y-94153500D01*
X159384632Y-94153499D01*
X159540831Y-94122430D01*
X159687968Y-94061483D01*
X159820389Y-93973003D01*
X159933003Y-93860389D01*
X160021483Y-93727968D01*
X160082430Y-93580831D01*
X160095452Y-93515357D01*
X160127835Y-93453450D01*
X160129332Y-93451925D01*
X160542541Y-93038716D01*
X160603862Y-93005233D01*
X160673554Y-93010217D01*
X160729487Y-93052089D01*
X160733322Y-93057508D01*
X160771998Y-93115391D01*
X160884605Y-93227998D01*
X160884612Y-93228004D01*
X161017030Y-93316482D01*
X161017031Y-93316482D01*
X161017032Y-93316483D01*
X161164169Y-93377430D01*
X161229639Y-93390452D01*
X161291548Y-93422836D01*
X161293128Y-93424388D01*
X162105181Y-94236441D01*
X162138666Y-94297764D01*
X162141500Y-94324122D01*
X162141500Y-95535143D01*
X162141500Y-95664857D01*
X162141500Y-95664859D01*
X162141499Y-95664859D01*
X162166804Y-95792071D01*
X162166806Y-95792077D01*
X162211661Y-95900369D01*
X162216445Y-95911917D01*
X162288509Y-96019769D01*
X162368095Y-96099355D01*
X162401579Y-96160676D01*
X162402030Y-96162844D01*
X162412568Y-96215823D01*
X162412570Y-96215831D01*
X162473517Y-96362969D01*
X162561995Y-96495387D01*
X162562001Y-96495394D01*
X162674605Y-96607998D01*
X162674612Y-96608004D01*
X162807030Y-96696482D01*
X162807031Y-96696482D01*
X162807032Y-96696483D01*
X162954169Y-96757430D01*
X163110365Y-96788499D01*
X163110369Y-96788500D01*
X163110370Y-96788500D01*
X163269631Y-96788500D01*
X163269632Y-96788499D01*
X163425831Y-96757430D01*
X163572968Y-96696483D01*
X163705389Y-96608003D01*
X163818003Y-96495389D01*
X163906483Y-96362968D01*
X163967430Y-96215831D01*
X163998500Y-96059630D01*
X163998500Y-95900370D01*
X163967430Y-95744169D01*
X163906483Y-95597032D01*
X163879198Y-95556197D01*
X163818004Y-95464612D01*
X163817998Y-95464605D01*
X163705394Y-95352001D01*
X163705387Y-95351995D01*
X163572971Y-95263518D01*
X163535046Y-95247809D01*
X163480643Y-95203967D01*
X163458579Y-95137673D01*
X163458500Y-95133248D01*
X163458500Y-93935140D01*
X163433195Y-93807928D01*
X163433194Y-93807927D01*
X163433194Y-93807923D01*
X163383555Y-93688083D01*
X163311491Y-93580231D01*
X163311489Y-93580228D01*
X163311488Y-93580227D01*
X162224388Y-92493128D01*
X162190903Y-92431805D01*
X162190469Y-92429724D01*
X162177430Y-92364169D01*
X162116483Y-92217032D01*
X162077356Y-92158474D01*
X162028004Y-92084612D01*
X162027998Y-92084605D01*
X161915394Y-91972001D01*
X161915387Y-91971995D01*
X161782969Y-91883517D01*
X161635831Y-91822570D01*
X161635828Y-91822569D01*
X161628306Y-91821073D01*
X161566396Y-91788687D01*
X161531823Y-91727970D01*
X161528500Y-91699456D01*
X161528500Y-89054000D01*
X161548185Y-88986961D01*
X161600989Y-88941206D01*
X161652500Y-88930000D01*
X161900000Y-88930000D01*
X161900000Y-88024560D01*
X161953147Y-88055245D01*
X162082857Y-88090000D01*
X162217143Y-88090000D01*
X162346853Y-88055245D01*
X162400000Y-88024560D01*
X162400000Y-88930000D01*
G37*
%TD.AperFunction*%
%TA.AperFunction,Conductor*%
G36*
X155816979Y-88787614D02*
G01*
X155843335Y-88789500D01*
X155855046Y-88795895D01*
X155859426Y-88796848D01*
X155874311Y-88806415D01*
X155973792Y-88880887D01*
X155973793Y-88880888D01*
X156110794Y-88931987D01*
X156110799Y-88931989D01*
X156138050Y-88934918D01*
X156171345Y-88938499D01*
X156171362Y-88938500D01*
X156217500Y-88938500D01*
X156284539Y-88958185D01*
X156330294Y-89010989D01*
X156341500Y-89062500D01*
X156341500Y-90475877D01*
X156321815Y-90542916D01*
X156305181Y-90563558D01*
X155272513Y-91596225D01*
X155272510Y-91596228D01*
X155245642Y-91636441D01*
X155238268Y-91647477D01*
X155221374Y-91672760D01*
X155200445Y-91704082D01*
X155200441Y-91704089D01*
X155150807Y-91823918D01*
X155150804Y-91823928D01*
X155125500Y-91951140D01*
X155125500Y-103877500D01*
X155105815Y-103944539D01*
X155053011Y-103990294D01*
X155001500Y-104001500D01*
X153631345Y-104001500D01*
X153570797Y-104008011D01*
X153570795Y-104008011D01*
X153433795Y-104059111D01*
X153334311Y-104133585D01*
X153268846Y-104158002D01*
X153200573Y-104143150D01*
X153185689Y-104133585D01*
X153086204Y-104059111D01*
X152949203Y-104008011D01*
X152888654Y-104001500D01*
X152888638Y-104001500D01*
X151483500Y-104001500D01*
X151474814Y-103998949D01*
X151465853Y-104000238D01*
X151441812Y-103989259D01*
X151416461Y-103981815D01*
X151410533Y-103974974D01*
X151402297Y-103971213D01*
X151388007Y-103948978D01*
X151370706Y-103929011D01*
X151368418Y-103918496D01*
X151364523Y-103912435D01*
X151359500Y-103877500D01*
X151359500Y-103833122D01*
X151379185Y-103766083D01*
X151395819Y-103745441D01*
X152551489Y-102589771D01*
X152551491Y-102589769D01*
X152623555Y-102481917D01*
X152673194Y-102362077D01*
X152688235Y-102286462D01*
X152698500Y-102234859D01*
X152698500Y-93884122D01*
X152718185Y-93817083D01*
X152734819Y-93796441D01*
X155041489Y-91489771D01*
X155041491Y-91489769D01*
X155113555Y-91381917D01*
X155163194Y-91262077D01*
X155188500Y-91134856D01*
X155188500Y-91005143D01*
X155188500Y-89062500D01*
X155208185Y-88995461D01*
X155260989Y-88949706D01*
X155312500Y-88938500D01*
X155428638Y-88938500D01*
X155428654Y-88938499D01*
X155455692Y-88935591D01*
X155489201Y-88931989D01*
X155489207Y-88931987D01*
X155559405Y-88905804D01*
X155626204Y-88880889D01*
X155626204Y-88880888D01*
X155626206Y-88880888D01*
X155626207Y-88880887D01*
X155725689Y-88806415D01*
X155750448Y-88797179D01*
X155773643Y-88784515D01*
X155782671Y-88785160D01*
X155791153Y-88781997D01*
X155816979Y-88787614D01*
G37*
%TD.AperFunction*%
%TA.AperFunction,Conductor*%
G36*
X158399426Y-88796848D02*
G01*
X158414311Y-88806415D01*
X158491811Y-88864432D01*
X158533682Y-88920366D01*
X158541500Y-88963698D01*
X158541500Y-90475877D01*
X158521815Y-90542916D01*
X158505181Y-90563558D01*
X157844513Y-91224225D01*
X157844510Y-91224228D01*
X157786205Y-91311490D01*
X157786204Y-91311489D01*
X157772446Y-91332080D01*
X157772442Y-91332087D01*
X157722807Y-91451918D01*
X157722804Y-91451928D01*
X157697500Y-91579140D01*
X157697500Y-103877500D01*
X157677815Y-103944539D01*
X157625011Y-103990294D01*
X157573500Y-104001500D01*
X156566500Y-104001500D01*
X156499461Y-103981815D01*
X156453706Y-103929011D01*
X156442500Y-103877500D01*
X156442500Y-92340122D01*
X156462185Y-92273083D01*
X156478819Y-92252441D01*
X157511488Y-91219772D01*
X157511491Y-91219769D01*
X157583555Y-91111917D01*
X157633195Y-90992077D01*
X157641632Y-90949656D01*
X157655902Y-90877923D01*
X157655902Y-90877916D01*
X157658500Y-90864858D01*
X157658500Y-89062500D01*
X157678185Y-88995461D01*
X157730989Y-88949706D01*
X157782500Y-88938500D01*
X157968638Y-88938500D01*
X157968654Y-88938499D01*
X157995692Y-88935591D01*
X158029201Y-88931989D01*
X158029207Y-88931987D01*
X158099405Y-88905804D01*
X158166204Y-88880889D01*
X158166204Y-88880888D01*
X158166206Y-88880888D01*
X158166207Y-88880887D01*
X158265689Y-88806415D01*
X158331153Y-88781997D01*
X158399426Y-88796848D01*
G37*
%TD.AperFunction*%
%TA.AperFunction,Conductor*%
G36*
X160154539Y-88958185D02*
G01*
X160200294Y-89010989D01*
X160211500Y-89062500D01*
X160211500Y-91455878D01*
X160191815Y-91522917D01*
X160175181Y-91543559D01*
X159226181Y-92492559D01*
X159164858Y-92526044D01*
X159095166Y-92521060D01*
X159039233Y-92479188D01*
X159014816Y-92413724D01*
X159014500Y-92404878D01*
X159014500Y-91968121D01*
X159034185Y-91901082D01*
X159050819Y-91880440D01*
X159711487Y-91219772D01*
X159711490Y-91219769D01*
X159783555Y-91111917D01*
X159833194Y-90992077D01*
X159835550Y-90980231D01*
X159858500Y-90864857D01*
X159858500Y-89062500D01*
X159861050Y-89053814D01*
X159859762Y-89044853D01*
X159870740Y-89020812D01*
X159878185Y-88995461D01*
X159885025Y-88989533D01*
X159888787Y-88981297D01*
X159911021Y-88967007D01*
X159930989Y-88949706D01*
X159941503Y-88947418D01*
X159947565Y-88943523D01*
X159982500Y-88938500D01*
X160087500Y-88938500D01*
X160154539Y-88958185D01*
G37*
%TD.AperFunction*%
%TA.AperFunction,Conductor*%
G36*
X137322206Y-83328185D02*
G01*
X137342848Y-83344819D01*
X137852428Y-83854399D01*
X138263733Y-84265703D01*
X138297218Y-84327026D01*
X138292234Y-84396717D01*
X138250362Y-84452651D01*
X138243719Y-84457293D01*
X138232226Y-84464776D01*
X138193796Y-84479111D01*
X138083988Y-84561312D01*
X138080575Y-84563535D01*
X138050839Y-84572461D01*
X138021754Y-84583310D01*
X138017665Y-84582420D01*
X138013656Y-84583624D01*
X137983812Y-84575056D01*
X137953481Y-84568458D01*
X137947547Y-84564645D01*
X137946499Y-84564344D01*
X137945749Y-84563489D01*
X137938597Y-84558893D01*
X137842088Y-84486646D01*
X137842086Y-84486645D01*
X137707379Y-84436403D01*
X137707372Y-84436401D01*
X137647844Y-84430000D01*
X137000000Y-84430000D01*
X137000000Y-87135439D01*
X136946853Y-87104755D01*
X136817143Y-87070000D01*
X136682857Y-87070000D01*
X136553147Y-87104755D01*
X136500000Y-87135439D01*
X136500000Y-84430000D01*
X135852155Y-84430000D01*
X135792627Y-84436401D01*
X135792620Y-84436403D01*
X135657913Y-84486645D01*
X135657910Y-84486647D01*
X135561402Y-84558893D01*
X135495937Y-84583310D01*
X135427664Y-84568458D01*
X135412780Y-84558893D01*
X135306204Y-84479111D01*
X135207779Y-84442399D01*
X135151846Y-84400527D01*
X135127430Y-84335062D01*
X135142283Y-84266790D01*
X135163430Y-84238540D01*
X136057151Y-83344818D01*
X136118474Y-83311334D01*
X136144832Y-83308500D01*
X137255167Y-83308500D01*
X137322206Y-83328185D01*
G37*
%TD.AperFunction*%
%TA.AperFunction,Conductor*%
G36*
X176903360Y-75506606D02*
G01*
X176920211Y-75507381D01*
X177129663Y-75517015D01*
X177195727Y-75539759D01*
X177239007Y-75594610D01*
X177245762Y-75664152D01*
X177213848Y-75726307D01*
X177211647Y-75728564D01*
X177170073Y-75770138D01*
X177170072Y-75770140D01*
X177170070Y-75770142D01*
X177141008Y-75810142D01*
X177053634Y-75930401D01*
X176963703Y-76106898D01*
X176902487Y-76295299D01*
X176871500Y-76490948D01*
X176871500Y-76689051D01*
X176902487Y-76884700D01*
X176963703Y-77073101D01*
X177032999Y-77209100D01*
X177053634Y-77249598D01*
X177170070Y-77409858D01*
X177310142Y-77549930D01*
X177470402Y-77666366D01*
X177548904Y-77706365D01*
X177646898Y-77756296D01*
X177646900Y-77756296D01*
X177646903Y-77756298D01*
X177747888Y-77789110D01*
X177835299Y-77817512D01*
X178030949Y-77848500D01*
X178030954Y-77848500D01*
X178229051Y-77848500D01*
X178424700Y-77817512D01*
X178613097Y-77756298D01*
X178789598Y-77666366D01*
X178949858Y-77549930D01*
X179089930Y-77409858D01*
X179126678Y-77359278D01*
X179138523Y-77350143D01*
X179146741Y-77337637D01*
X179165632Y-77329238D01*
X179182004Y-77316614D01*
X179196912Y-77315333D01*
X179210586Y-77309255D01*
X179231018Y-77312403D01*
X179251618Y-77310634D01*
X179264852Y-77317617D01*
X179279641Y-77319896D01*
X179295128Y-77333592D01*
X179313413Y-77343240D01*
X179321637Y-77357034D01*
X179331981Y-77366182D01*
X179346318Y-77398432D01*
X179365637Y-77466770D01*
X179368617Y-77480063D01*
X179411632Y-77737441D01*
X179413136Y-77750979D01*
X179427850Y-78014932D01*
X179428042Y-78021746D01*
X179463791Y-128111361D01*
X179463837Y-128175176D01*
X179463835Y-128175188D01*
X179463860Y-128208349D01*
X179463862Y-128210941D01*
X179463881Y-128237019D01*
X179463621Y-128245136D01*
X179451706Y-128428875D01*
X179449597Y-128444974D01*
X179419107Y-128598709D01*
X179386757Y-128660638D01*
X179326060Y-128695246D01*
X179256289Y-128691546D01*
X179199594Y-128650711D01*
X179186991Y-128630881D01*
X179186325Y-128629573D01*
X179166366Y-128590402D01*
X179049930Y-128430142D01*
X178909858Y-128290070D01*
X178749598Y-128173634D01*
X178723452Y-128160312D01*
X178573101Y-128083703D01*
X178384700Y-128022487D01*
X178189051Y-127991500D01*
X178189046Y-127991500D01*
X177990954Y-127991500D01*
X177990949Y-127991500D01*
X177795299Y-128022487D01*
X177606898Y-128083703D01*
X177430401Y-128173634D01*
X177379053Y-128210941D01*
X177270142Y-128290070D01*
X177270140Y-128290072D01*
X177270139Y-128290072D01*
X177130072Y-128430139D01*
X177130072Y-128430140D01*
X177130070Y-128430142D01*
X177080408Y-128498496D01*
X177013634Y-128590401D01*
X176923703Y-128766898D01*
X176862487Y-128955299D01*
X176831500Y-129150948D01*
X176831500Y-129349051D01*
X176862487Y-129544700D01*
X176923703Y-129733101D01*
X177013634Y-129909598D01*
X177130070Y-130069858D01*
X177270142Y-130209930D01*
X177415449Y-130315502D01*
X177428551Y-130325021D01*
X177440635Y-130340692D01*
X177456260Y-130352836D01*
X177461532Y-130367793D01*
X177471216Y-130380351D01*
X177472909Y-130400065D01*
X177479489Y-130418731D01*
X177475838Y-130434165D01*
X177477195Y-130449965D01*
X177467960Y-130467465D01*
X177463405Y-130486725D01*
X177451989Y-130497734D01*
X177444589Y-130511760D01*
X177427357Y-130521491D01*
X177413114Y-130535228D01*
X177386284Y-130544685D01*
X177383750Y-130546117D01*
X177379827Y-130546962D01*
X177340117Y-130554851D01*
X177324030Y-130556965D01*
X177140369Y-130568951D01*
X177132272Y-130569214D01*
X177126679Y-130569213D01*
X177126672Y-130569211D01*
X177126659Y-130569213D01*
X121099040Y-130549987D01*
X121032008Y-130530279D01*
X120986271Y-130477460D01*
X120976351Y-130408298D01*
X121005398Y-130344752D01*
X121042789Y-130315502D01*
X121119596Y-130276367D01*
X121119595Y-130276367D01*
X121119598Y-130276366D01*
X121279858Y-130159930D01*
X121419930Y-130019858D01*
X121536366Y-129859598D01*
X121626298Y-129683097D01*
X121687512Y-129494700D01*
X121694108Y-129453055D01*
X121718500Y-129299051D01*
X121718500Y-129100948D01*
X121687512Y-128905299D01*
X121626296Y-128716898D01*
X121545460Y-128558250D01*
X121536366Y-128540402D01*
X121419930Y-128380142D01*
X121279858Y-128240070D01*
X121119598Y-128123634D01*
X121095511Y-128111361D01*
X120943101Y-128033703D01*
X120754700Y-127972487D01*
X120559051Y-127941500D01*
X120559046Y-127941500D01*
X120360954Y-127941500D01*
X120360949Y-127941500D01*
X120165299Y-127972487D01*
X119976898Y-128033703D01*
X119800401Y-128123634D01*
X119729444Y-128175188D01*
X119640142Y-128240070D01*
X119640140Y-128240072D01*
X119640139Y-128240072D01*
X119500072Y-128380139D01*
X119500072Y-128380140D01*
X119500070Y-128380142D01*
X119464663Y-128428875D01*
X119383634Y-128540401D01*
X119293703Y-128716898D01*
X119244686Y-128867757D01*
X119205248Y-128925432D01*
X119140889Y-128952630D01*
X119072043Y-128940715D01*
X119020567Y-128893471D01*
X119019059Y-128890901D01*
X118948292Y-128766903D01*
X117580011Y-126369384D01*
X117580011Y-126369383D01*
X117549336Y-126315635D01*
X117545590Y-126308547D01*
X117465796Y-126144969D01*
X117459709Y-126130123D01*
X117402993Y-125961438D01*
X117398873Y-125945929D01*
X117381853Y-125859687D01*
X117364410Y-125771304D01*
X117362332Y-125755408D01*
X117350447Y-125573785D01*
X117350183Y-125565800D01*
X117350168Y-125540316D01*
X122394500Y-125540316D01*
X122394500Y-125859683D01*
X122425803Y-126177522D01*
X122488109Y-126490754D01*
X122580820Y-126796382D01*
X122703040Y-127091446D01*
X122703042Y-127091451D01*
X122853584Y-127373094D01*
X122853601Y-127373122D01*
X123031012Y-127638638D01*
X123031029Y-127638661D01*
X123233638Y-127885540D01*
X123459459Y-128111361D01*
X123459464Y-128111365D01*
X123459465Y-128111366D01*
X123706344Y-128313975D01*
X123706351Y-128313980D01*
X123706361Y-128313987D01*
X123971877Y-128491398D01*
X123971882Y-128491401D01*
X123971894Y-128491409D01*
X123971903Y-128491413D01*
X123971905Y-128491415D01*
X124253548Y-128641957D01*
X124253550Y-128641957D01*
X124253556Y-128641961D01*
X124548619Y-128764180D01*
X124854240Y-128856889D01*
X125167477Y-128919196D01*
X125485313Y-128950500D01*
X125485316Y-128950500D01*
X125804684Y-128950500D01*
X125804687Y-128950500D01*
X126122523Y-128919196D01*
X126435760Y-128856889D01*
X126741381Y-128764180D01*
X127036444Y-128641961D01*
X127318106Y-128491409D01*
X127583656Y-128313975D01*
X127830535Y-128111366D01*
X128056366Y-127885535D01*
X128258975Y-127638656D01*
X128436409Y-127373106D01*
X128586961Y-127091444D01*
X128709180Y-126796381D01*
X128801889Y-126490760D01*
X128864196Y-126177523D01*
X128895500Y-125859687D01*
X128895500Y-125540313D01*
X128864196Y-125222477D01*
X128801889Y-124909240D01*
X128709180Y-124603619D01*
X128586961Y-124308556D01*
X128578450Y-124292634D01*
X128436415Y-124026905D01*
X128436413Y-124026903D01*
X128436409Y-124026894D01*
X128436398Y-124026877D01*
X128258987Y-123761361D01*
X128258980Y-123761351D01*
X128258975Y-123761344D01*
X128056366Y-123514465D01*
X128056365Y-123514464D01*
X128056361Y-123514459D01*
X127830540Y-123288638D01*
X127583661Y-123086029D01*
X127583638Y-123086012D01*
X127318122Y-122908601D01*
X127318094Y-122908584D01*
X127036451Y-122758042D01*
X127036446Y-122758040D01*
X126741382Y-122635820D01*
X126435754Y-122543109D01*
X126122521Y-122480803D01*
X126122522Y-122480803D01*
X125883141Y-122457227D01*
X125804687Y-122449500D01*
X125485313Y-122449500D01*
X125412822Y-122456639D01*
X125167477Y-122480803D01*
X124854245Y-122543109D01*
X124548617Y-122635820D01*
X124253553Y-122758040D01*
X124253548Y-122758042D01*
X123971905Y-122908584D01*
X123971877Y-122908601D01*
X123706361Y-123086012D01*
X123706338Y-123086029D01*
X123459459Y-123288638D01*
X123233638Y-123514459D01*
X123031029Y-123761338D01*
X123031012Y-123761361D01*
X122853601Y-124026877D01*
X122853584Y-124026905D01*
X122703042Y-124308548D01*
X122703040Y-124308553D01*
X122580820Y-124603617D01*
X122488109Y-124909245D01*
X122425803Y-125222477D01*
X122401639Y-125467822D01*
X122398087Y-125503899D01*
X122394500Y-125540316D01*
X117350168Y-125540316D01*
X117350147Y-125503899D01*
X117350146Y-125503898D01*
X117350132Y-125479256D01*
X117350131Y-125479252D01*
X117349529Y-124463471D01*
X117334476Y-99084149D01*
X117691500Y-99084149D01*
X117691500Y-99305851D01*
X117719643Y-99483538D01*
X117726182Y-99524824D01*
X117794693Y-99735680D01*
X117873964Y-99891257D01*
X117895343Y-99933215D01*
X118025657Y-100112576D01*
X118182424Y-100269343D01*
X118361785Y-100399657D01*
X118450560Y-100444890D01*
X118559319Y-100500306D01*
X118559321Y-100500306D01*
X118559324Y-100500308D01*
X118770176Y-100568818D01*
X118989149Y-100603500D01*
X118989150Y-100603500D01*
X119210850Y-100603500D01*
X119210851Y-100603500D01*
X119429824Y-100568818D01*
X119640676Y-100500308D01*
X119838215Y-100399657D01*
X120017576Y-100269343D01*
X120174343Y-100112576D01*
X120304657Y-99933215D01*
X120405308Y-99735676D01*
X120473818Y-99524824D01*
X120508500Y-99305851D01*
X120508500Y-99084149D01*
X120478201Y-98892848D01*
X120473818Y-98865175D01*
X120462194Y-98829401D01*
X120451324Y-98795948D01*
X120871500Y-98795948D01*
X120871500Y-98994051D01*
X120902487Y-99189700D01*
X120963703Y-99378101D01*
X121036891Y-99521739D01*
X121053634Y-99554598D01*
X121170070Y-99714858D01*
X121310142Y-99854930D01*
X121470402Y-99971366D01*
X121549609Y-100011724D01*
X121646898Y-100061296D01*
X121646900Y-100061296D01*
X121646903Y-100061298D01*
X121747888Y-100094110D01*
X121835299Y-100122512D01*
X122030949Y-100153500D01*
X122030954Y-100153500D01*
X122229051Y-100153500D01*
X122424700Y-100122512D01*
X122613097Y-100061298D01*
X122789598Y-99971366D01*
X122949858Y-99854930D01*
X123089930Y-99714858D01*
X123206366Y-99554598D01*
X123296298Y-99378097D01*
X123357512Y-99189700D01*
X123373773Y-99087030D01*
X123388500Y-98994051D01*
X123388500Y-98795948D01*
X123357512Y-98600299D01*
X123321050Y-98488083D01*
X123296298Y-98411903D01*
X123296296Y-98411900D01*
X123296296Y-98411898D01*
X123227776Y-98277421D01*
X123206366Y-98235402D01*
X123089930Y-98075142D01*
X122949858Y-97935070D01*
X122789598Y-97818634D01*
X122726532Y-97786500D01*
X122613101Y-97728703D01*
X122424700Y-97667487D01*
X122229051Y-97636500D01*
X122229046Y-97636500D01*
X122030954Y-97636500D01*
X122030949Y-97636500D01*
X121835299Y-97667487D01*
X121646898Y-97728703D01*
X121470401Y-97818634D01*
X121404479Y-97866530D01*
X121310142Y-97935070D01*
X121310140Y-97935072D01*
X121310139Y-97935072D01*
X121170072Y-98075139D01*
X121170072Y-98075140D01*
X121170070Y-98075142D01*
X121137000Y-98120659D01*
X121053634Y-98235401D01*
X120963703Y-98411898D01*
X120902487Y-98600299D01*
X120871500Y-98795948D01*
X120451324Y-98795948D01*
X120449538Y-98790451D01*
X120405308Y-98654324D01*
X120405306Y-98654321D01*
X120405306Y-98654319D01*
X120320604Y-98488083D01*
X120304657Y-98456785D01*
X120174343Y-98277424D01*
X120017576Y-98120657D01*
X119838215Y-97990343D01*
X119791554Y-97966568D01*
X119640680Y-97889693D01*
X119429824Y-97821182D01*
X119413737Y-97818634D01*
X119210851Y-97786500D01*
X118989149Y-97786500D01*
X118879662Y-97803841D01*
X118770175Y-97821182D01*
X118559319Y-97889693D01*
X118361784Y-97990343D01*
X118271660Y-98055823D01*
X118182424Y-98120657D01*
X118182422Y-98120659D01*
X118182421Y-98120659D01*
X118025659Y-98277421D01*
X118025659Y-98277422D01*
X118025657Y-98277424D01*
X117983544Y-98335387D01*
X117895343Y-98456784D01*
X117794693Y-98654319D01*
X117726182Y-98865175D01*
X117721799Y-98892848D01*
X117691500Y-99084149D01*
X117334476Y-99084149D01*
X117331243Y-93634149D01*
X117691500Y-93634149D01*
X117691500Y-93855851D01*
X117704058Y-93935140D01*
X117726182Y-94074824D01*
X117794693Y-94285680D01*
X117895343Y-94483215D01*
X118025657Y-94662576D01*
X118182424Y-94819343D01*
X118361785Y-94949657D01*
X118455114Y-94997210D01*
X118559319Y-95050306D01*
X118559321Y-95050306D01*
X118559324Y-95050308D01*
X118770176Y-95118818D01*
X118989149Y-95153500D01*
X118989150Y-95153500D01*
X119210850Y-95153500D01*
X119210851Y-95153500D01*
X119429824Y-95118818D01*
X119640676Y-95050308D01*
X119838215Y-94949657D01*
X120017576Y-94819343D01*
X120174343Y-94662576D01*
X120304657Y-94483215D01*
X120405308Y-94285676D01*
X120473818Y-94074824D01*
X120494230Y-93945948D01*
X120871500Y-93945948D01*
X120871500Y-94144051D01*
X120902487Y-94339700D01*
X120963703Y-94528101D01*
X121034214Y-94666484D01*
X121053634Y-94704598D01*
X121170070Y-94864858D01*
X121310142Y-95004930D01*
X121470402Y-95121366D01*
X121553790Y-95163854D01*
X121646898Y-95211296D01*
X121646900Y-95211296D01*
X121646903Y-95211298D01*
X121747888Y-95244110D01*
X121835299Y-95272512D01*
X122030949Y-95303500D01*
X122030954Y-95303500D01*
X122229051Y-95303500D01*
X122424700Y-95272512D01*
X122613097Y-95211298D01*
X122789598Y-95121366D01*
X122949858Y-95004930D01*
X123089930Y-94864858D01*
X123206366Y-94704598D01*
X123296298Y-94528097D01*
X123357512Y-94339700D01*
X123359979Y-94324122D01*
X123388500Y-94144051D01*
X123388500Y-93945948D01*
X123357512Y-93750299D01*
X123303321Y-93583517D01*
X123296298Y-93561903D01*
X123296296Y-93561900D01*
X123296296Y-93561898D01*
X123226230Y-93424388D01*
X123206366Y-93385402D01*
X123089930Y-93225142D01*
X122949858Y-93085070D01*
X122789598Y-92968634D01*
X122613101Y-92878703D01*
X122424700Y-92817487D01*
X122229051Y-92786500D01*
X122229046Y-92786500D01*
X122030954Y-92786500D01*
X122030949Y-92786500D01*
X121835299Y-92817487D01*
X121646898Y-92878703D01*
X121470401Y-92968634D01*
X121413168Y-93010217D01*
X121310142Y-93085070D01*
X121310140Y-93085072D01*
X121310139Y-93085072D01*
X121170072Y-93225139D01*
X121170072Y-93225140D01*
X121170070Y-93225142D01*
X121120065Y-93293967D01*
X121053634Y-93385401D01*
X120963703Y-93561898D01*
X120902487Y-93750299D01*
X120871500Y-93945948D01*
X120494230Y-93945948D01*
X120508500Y-93855851D01*
X120508500Y-93634149D01*
X120473818Y-93415176D01*
X120405308Y-93204324D01*
X120405306Y-93204321D01*
X120405306Y-93204319D01*
X120344545Y-93085070D01*
X120304657Y-93006785D01*
X120174343Y-92827424D01*
X120017576Y-92670657D01*
X119838215Y-92540343D01*
X119800370Y-92521060D01*
X119640680Y-92439693D01*
X119429824Y-92371182D01*
X119385527Y-92364166D01*
X119210851Y-92336500D01*
X118989149Y-92336500D01*
X118966281Y-92340122D01*
X118770175Y-92371182D01*
X118559319Y-92439693D01*
X118361784Y-92540343D01*
X118276203Y-92602522D01*
X118182424Y-92670657D01*
X118182422Y-92670659D01*
X118182421Y-92670659D01*
X118025659Y-92827421D01*
X118025659Y-92827422D01*
X118025657Y-92827424D01*
X117969692Y-92904452D01*
X117895343Y-93006784D01*
X117794693Y-93204319D01*
X117726182Y-93415175D01*
X117709173Y-93522568D01*
X117691500Y-93634149D01*
X117331243Y-93634149D01*
X117326052Y-84881345D01*
X117611500Y-84881345D01*
X117611500Y-88478654D01*
X117618011Y-88539202D01*
X117618011Y-88539204D01*
X117669111Y-88676204D01*
X117756739Y-88793261D01*
X117873796Y-88880889D01*
X117979637Y-88920366D01*
X118010793Y-88931987D01*
X118010799Y-88931989D01*
X118038050Y-88934918D01*
X118071345Y-88938499D01*
X118071362Y-88938500D01*
X119868638Y-88938500D01*
X119868654Y-88938499D01*
X119895692Y-88935591D01*
X119929201Y-88931989D01*
X119929207Y-88931987D01*
X119999405Y-88905804D01*
X120066204Y-88880889D01*
X120066204Y-88880888D01*
X120066206Y-88880888D01*
X120066207Y-88880887D01*
X120165689Y-88806415D01*
X120231153Y-88781997D01*
X120299426Y-88796848D01*
X120314311Y-88806415D01*
X120413792Y-88880887D01*
X120413793Y-88880888D01*
X120550794Y-88931987D01*
X120550799Y-88931989D01*
X120578050Y-88934918D01*
X120611345Y-88938499D01*
X120611362Y-88938500D01*
X122408638Y-88938500D01*
X122408654Y-88938499D01*
X122435692Y-88935591D01*
X122469201Y-88931989D01*
X122469207Y-88931987D01*
X122500363Y-88920366D01*
X122606204Y-88880889D01*
X122712782Y-88801105D01*
X122778244Y-88776689D01*
X122846517Y-88791540D01*
X122861402Y-88801106D01*
X122957911Y-88873353D01*
X122957913Y-88873354D01*
X123092620Y-88923596D01*
X123092627Y-88923598D01*
X123152155Y-88929999D01*
X123152172Y-88930000D01*
X123800000Y-88930000D01*
X123800000Y-88024560D01*
X123853147Y-88055245D01*
X123982857Y-88090000D01*
X124117143Y-88090000D01*
X124246853Y-88055245D01*
X124300000Y-88024560D01*
X124300000Y-88930000D01*
X124947828Y-88930000D01*
X124947844Y-88929999D01*
X125007372Y-88923598D01*
X125007379Y-88923596D01*
X125142086Y-88873354D01*
X125142089Y-88873352D01*
X125238596Y-88801107D01*
X125304060Y-88776689D01*
X125372334Y-88791540D01*
X125387216Y-88801104D01*
X125493796Y-88880889D01*
X125599637Y-88920366D01*
X125630793Y-88931987D01*
X125630799Y-88931989D01*
X125658050Y-88934918D01*
X125691345Y-88938499D01*
X125691362Y-88938500D01*
X127488638Y-88938500D01*
X127488654Y-88938499D01*
X127515692Y-88935591D01*
X127549201Y-88931989D01*
X127549207Y-88931987D01*
X127619405Y-88905804D01*
X127686204Y-88880889D01*
X127686204Y-88880888D01*
X127686206Y-88880888D01*
X127686207Y-88880887D01*
X127785689Y-88806415D01*
X127851153Y-88781997D01*
X127919426Y-88796848D01*
X127934311Y-88806415D01*
X128033792Y-88880887D01*
X128033793Y-88880888D01*
X128170794Y-88931987D01*
X128170799Y-88931989D01*
X128198050Y-88934918D01*
X128231345Y-88938499D01*
X128231362Y-88938500D01*
X130028638Y-88938500D01*
X130028654Y-88938499D01*
X130055692Y-88935591D01*
X130089201Y-88931989D01*
X130089207Y-88931987D01*
X130159405Y-88905804D01*
X130226204Y-88880889D01*
X130226204Y-88880888D01*
X130226206Y-88880888D01*
X130226207Y-88880887D01*
X130325689Y-88806415D01*
X130391153Y-88781997D01*
X130459426Y-88796848D01*
X130474311Y-88806415D01*
X130573792Y-88880887D01*
X130573793Y-88880888D01*
X130710794Y-88931987D01*
X130710799Y-88931989D01*
X130738050Y-88934918D01*
X130771345Y-88938499D01*
X130771362Y-88938500D01*
X132568638Y-88938500D01*
X132568654Y-88938499D01*
X132595692Y-88935591D01*
X132629201Y-88931989D01*
X132629207Y-88931987D01*
X132699405Y-88905804D01*
X132766204Y-88880889D01*
X132766204Y-88880888D01*
X132766206Y-88880888D01*
X132766207Y-88880887D01*
X132865689Y-88806415D01*
X132931153Y-88781997D01*
X132999426Y-88796848D01*
X133014311Y-88806415D01*
X133113792Y-88880887D01*
X133113793Y-88880888D01*
X133250794Y-88931987D01*
X133250799Y-88931989D01*
X133278050Y-88934918D01*
X133311345Y-88938499D01*
X133311362Y-88938500D01*
X135108638Y-88938500D01*
X135108654Y-88938499D01*
X135135692Y-88935591D01*
X135169201Y-88931989D01*
X135169207Y-88931987D01*
X135200363Y-88920366D01*
X135306204Y-88880889D01*
X135412782Y-88801105D01*
X135478244Y-88776689D01*
X135546517Y-88791540D01*
X135561402Y-88801106D01*
X135657911Y-88873353D01*
X135657913Y-88873354D01*
X135792620Y-88923596D01*
X135792627Y-88923598D01*
X135852155Y-88929999D01*
X135852172Y-88930000D01*
X136500000Y-88930000D01*
X136500000Y-88024560D01*
X136553147Y-88055245D01*
X136682857Y-88090000D01*
X136817143Y-88090000D01*
X136946853Y-88055245D01*
X137000000Y-88024560D01*
X137000000Y-88930000D01*
X137647828Y-88930000D01*
X137647844Y-88929999D01*
X137707372Y-88923598D01*
X137707379Y-88923596D01*
X137842086Y-88873354D01*
X137842089Y-88873352D01*
X137938596Y-88801107D01*
X138004060Y-88776689D01*
X138072334Y-88791540D01*
X138087216Y-88801104D01*
X138193796Y-88880889D01*
X138299637Y-88920366D01*
X138330793Y-88931987D01*
X138330799Y-88931989D01*
X138358050Y-88934918D01*
X138391345Y-88938499D01*
X138391362Y-88938500D01*
X139595167Y-88938500D01*
X139662206Y-88958185D01*
X139682848Y-88974819D01*
X142805181Y-92097151D01*
X142838666Y-92158474D01*
X142841500Y-92184832D01*
X142841500Y-97513802D01*
X142832062Y-97561253D01*
X142822570Y-97584169D01*
X142822568Y-97584176D01*
X142791500Y-97740365D01*
X142791500Y-97899634D01*
X142822568Y-98055823D01*
X142822570Y-98055831D01*
X142883517Y-98202969D01*
X142971995Y-98335387D01*
X142972001Y-98335394D01*
X143084605Y-98447998D01*
X143084612Y-98448004D01*
X143217030Y-98536482D01*
X143217031Y-98536482D01*
X143217032Y-98536483D01*
X143364169Y-98597430D01*
X143517846Y-98627998D01*
X143520365Y-98628499D01*
X143520369Y-98628500D01*
X143520370Y-98628500D01*
X143679631Y-98628500D01*
X143679632Y-98628499D01*
X143835831Y-98597430D01*
X143982968Y-98536483D01*
X144115389Y-98448003D01*
X144228003Y-98335389D01*
X144316483Y-98202968D01*
X144377430Y-98055831D01*
X144408500Y-97899630D01*
X144408500Y-97740370D01*
X144377430Y-97584169D01*
X144316483Y-97437032D01*
X144279397Y-97381528D01*
X144258520Y-97314850D01*
X144258500Y-97312638D01*
X144258500Y-91770218D01*
X144258499Y-91770214D01*
X144245345Y-91704083D01*
X144231273Y-91633338D01*
X144196889Y-91550328D01*
X144196889Y-91550327D01*
X144177868Y-91504406D01*
X144177861Y-91504393D01*
X144100328Y-91388358D01*
X144100325Y-91388354D01*
X143122336Y-90410365D01*
X144831500Y-90410365D01*
X144831500Y-90569634D01*
X144862568Y-90725823D01*
X144862570Y-90725831D01*
X144872061Y-90748744D01*
X144881500Y-90796197D01*
X144881500Y-93514709D01*
X144910647Y-93661239D01*
X144910649Y-93661247D01*
X144961748Y-93784612D01*
X144967826Y-93799284D01*
X144973602Y-93807928D01*
X145050835Y-93923517D01*
X145050836Y-93923518D01*
X146535895Y-95408576D01*
X146542949Y-95420125D01*
X146550773Y-95426560D01*
X146559263Y-95446833D01*
X146566254Y-95458277D01*
X146568440Y-95465073D01*
X146572570Y-95485831D01*
X146583991Y-95513404D01*
X146585540Y-95518217D01*
X146585776Y-95527422D01*
X146591500Y-95556197D01*
X146591500Y-100647474D01*
X146589117Y-100671665D01*
X146566500Y-100785366D01*
X146566500Y-100944634D01*
X146597568Y-101100823D01*
X146597570Y-101100831D01*
X146658517Y-101247969D01*
X146746995Y-101380387D01*
X146747001Y-101380394D01*
X146859605Y-101492998D01*
X146859612Y-101493004D01*
X146992030Y-101581482D01*
X146992031Y-101581482D01*
X146992032Y-101581483D01*
X147139169Y-101642430D01*
X147295365Y-101673499D01*
X147295369Y-101673500D01*
X147295370Y-101673500D01*
X147454631Y-101673500D01*
X147454632Y-101673499D01*
X147610831Y-101642430D01*
X147757968Y-101581483D01*
X147890389Y-101493003D01*
X148003003Y-101380389D01*
X148091483Y-101247968D01*
X148152430Y-101100831D01*
X148183500Y-100944630D01*
X148183500Y-100785370D01*
X148152430Y-100629169D01*
X148117939Y-100545901D01*
X148108500Y-100498448D01*
X148108500Y-95556197D01*
X148117939Y-95508744D01*
X148119493Y-95504992D01*
X148127430Y-95485831D01*
X148158500Y-95329630D01*
X148158500Y-95170370D01*
X148127430Y-95014169D01*
X148066483Y-94867032D01*
X148065030Y-94864858D01*
X148039860Y-94827187D01*
X148028401Y-94805749D01*
X148022177Y-94790723D01*
X148022176Y-94790722D01*
X148022174Y-94790716D01*
X148007892Y-94769342D01*
X147939168Y-94666488D01*
X147939167Y-94666487D01*
X147939165Y-94666484D01*
X147833516Y-94560835D01*
X146434819Y-93162138D01*
X146401334Y-93100815D01*
X146398500Y-93074457D01*
X146398500Y-90796197D01*
X146407939Y-90748744D01*
X146413629Y-90735007D01*
X146417430Y-90725831D01*
X146448500Y-90569630D01*
X146448500Y-90410370D01*
X146417430Y-90254169D01*
X146356483Y-90107032D01*
X146268003Y-89974611D01*
X146267998Y-89974605D01*
X146155394Y-89862001D01*
X146155387Y-89861995D01*
X146022969Y-89773517D01*
X145875831Y-89712570D01*
X145875823Y-89712568D01*
X145719634Y-89681500D01*
X145719630Y-89681500D01*
X145560370Y-89681500D01*
X145560365Y-89681500D01*
X145404176Y-89712568D01*
X145404168Y-89712570D01*
X145257030Y-89773517D01*
X145124612Y-89861995D01*
X145124605Y-89862001D01*
X145012001Y-89974605D01*
X145011995Y-89974612D01*
X144923517Y-90107030D01*
X144862570Y-90254168D01*
X144862568Y-90254176D01*
X144831500Y-90410365D01*
X143122336Y-90410365D01*
X141862152Y-89150181D01*
X141828667Y-89088858D01*
X141833651Y-89019166D01*
X141875523Y-88963233D01*
X141940987Y-88938816D01*
X141949833Y-88938500D01*
X142728638Y-88938500D01*
X142728654Y-88938499D01*
X142755692Y-88935591D01*
X142789201Y-88931989D01*
X142789207Y-88931987D01*
X142859405Y-88905804D01*
X142926204Y-88880889D01*
X142926204Y-88880888D01*
X142926206Y-88880888D01*
X142926207Y-88880887D01*
X143025689Y-88806415D01*
X143091153Y-88781997D01*
X143159426Y-88796848D01*
X143174311Y-88806415D01*
X143273792Y-88880887D01*
X143273793Y-88880888D01*
X143410794Y-88931987D01*
X143410799Y-88931989D01*
X143438050Y-88934918D01*
X143471345Y-88938499D01*
X143471362Y-88938500D01*
X145268638Y-88938500D01*
X145268654Y-88938499D01*
X145295692Y-88935591D01*
X145329201Y-88931989D01*
X145329207Y-88931987D01*
X145399405Y-88905804D01*
X145466204Y-88880889D01*
X145466204Y-88880888D01*
X145466206Y-88880888D01*
X145466207Y-88880887D01*
X145565689Y-88806415D01*
X145631153Y-88781997D01*
X145699426Y-88796848D01*
X145714311Y-88806415D01*
X145813792Y-88880887D01*
X145813793Y-88880888D01*
X145950794Y-88931987D01*
X145950799Y-88931989D01*
X145978050Y-88934918D01*
X146011345Y-88938499D01*
X146011362Y-88938500D01*
X147808638Y-88938500D01*
X147808654Y-88938499D01*
X147835692Y-88935591D01*
X147869201Y-88931989D01*
X147869207Y-88931987D01*
X147900363Y-88920366D01*
X148006204Y-88880889D01*
X148112782Y-88801105D01*
X148178244Y-88776689D01*
X148246517Y-88791540D01*
X148261402Y-88801106D01*
X148357911Y-88873353D01*
X148357913Y-88873354D01*
X148492620Y-88923596D01*
X148492627Y-88923598D01*
X148552155Y-88929999D01*
X148552172Y-88930000D01*
X149200000Y-88930000D01*
X149200000Y-88024560D01*
X149253147Y-88055245D01*
X149382857Y-88090000D01*
X149517143Y-88090000D01*
X149646853Y-88055245D01*
X149700000Y-88024560D01*
X149700000Y-88930000D01*
X150347828Y-88930000D01*
X150347844Y-88929999D01*
X150407372Y-88923598D01*
X150407379Y-88923596D01*
X150542086Y-88873354D01*
X150542089Y-88873352D01*
X150638596Y-88801107D01*
X150704060Y-88776689D01*
X150772334Y-88791540D01*
X150787216Y-88801104D01*
X150893796Y-88880889D01*
X150993110Y-88917931D01*
X151030793Y-88931987D01*
X151030799Y-88931989D01*
X151049360Y-88933984D01*
X151113908Y-88960720D01*
X151153758Y-89018111D01*
X151156253Y-89087937D01*
X151123785Y-89144954D01*
X149288514Y-90980225D01*
X149288510Y-90980228D01*
X149271863Y-91005143D01*
X149234912Y-91060445D01*
X149234911Y-91060447D01*
X149216449Y-91088075D01*
X149216443Y-91088086D01*
X149166806Y-91207922D01*
X149166804Y-91207928D01*
X149141500Y-91335140D01*
X149141500Y-100675877D01*
X149121815Y-100742916D01*
X149105181Y-100763558D01*
X147649513Y-102219225D01*
X147649510Y-102219228D01*
X147609852Y-102278582D01*
X147608347Y-102280835D01*
X147592896Y-102303959D01*
X147577445Y-102327082D01*
X147577441Y-102327089D01*
X147527807Y-102446918D01*
X147527804Y-102446928D01*
X147502500Y-102574140D01*
X147502500Y-103541167D01*
X147482815Y-103608206D01*
X147430011Y-103653961D01*
X147360853Y-103663905D01*
X147297297Y-103634880D01*
X147290819Y-103628848D01*
X143409246Y-99747275D01*
X143375761Y-99685952D01*
X143375324Y-99683858D01*
X143367430Y-99644169D01*
X143306483Y-99497032D01*
X143302731Y-99491417D01*
X143218004Y-99364612D01*
X143217998Y-99364605D01*
X143105394Y-99252001D01*
X143105387Y-99251995D01*
X142972969Y-99163517D01*
X142825831Y-99102570D01*
X142825823Y-99102568D01*
X142748764Y-99087240D01*
X142686853Y-99054855D01*
X142685333Y-99053363D01*
X142524816Y-98892846D01*
X142491334Y-98831525D01*
X142488500Y-98805167D01*
X142488500Y-94726905D01*
X142497939Y-94679452D01*
X142503311Y-94666484D01*
X142557430Y-94535831D01*
X142588500Y-94379630D01*
X142588500Y-94220370D01*
X142557430Y-94064169D01*
X142496483Y-93917032D01*
X142474493Y-93884122D01*
X142408004Y-93784612D01*
X142407998Y-93784605D01*
X142295394Y-93672001D01*
X142295387Y-93671995D01*
X142162969Y-93583517D01*
X142015831Y-93522570D01*
X142015823Y-93522568D01*
X141859634Y-93491500D01*
X141859630Y-93491500D01*
X141700370Y-93491500D01*
X141700365Y-93491500D01*
X141544176Y-93522568D01*
X141544168Y-93522570D01*
X141397030Y-93583517D01*
X141264612Y-93671995D01*
X141264605Y-93672001D01*
X141152001Y-93784605D01*
X141151995Y-93784612D01*
X141063517Y-93917030D01*
X141002570Y-94064168D01*
X141002568Y-94064176D01*
X140971500Y-94220365D01*
X140971500Y-94379634D01*
X141001032Y-94528101D01*
X141002570Y-94535831D01*
X141055070Y-94662576D01*
X141062061Y-94679452D01*
X141071500Y-94726905D01*
X141071500Y-99219784D01*
X141077257Y-99248724D01*
X141077257Y-99248727D01*
X141098725Y-99356658D01*
X141098728Y-99356666D01*
X141106944Y-99376500D01*
X141114369Y-99394427D01*
X141125279Y-99420765D01*
X141152134Y-99485599D01*
X141152136Y-99485603D01*
X141229668Y-99601638D01*
X141229674Y-99601646D01*
X141843714Y-100215685D01*
X141870592Y-100255908D01*
X141873517Y-100262968D01*
X141961997Y-100395389D01*
X141962000Y-100395393D01*
X142074605Y-100507998D01*
X142074612Y-100508004D01*
X142207030Y-100596482D01*
X142207033Y-100596484D01*
X142265298Y-100620618D01*
X142305527Y-100647498D01*
X144021538Y-102363509D01*
X145463344Y-103805314D01*
X145496829Y-103866637D01*
X145491845Y-103936329D01*
X145449973Y-103992262D01*
X145384509Y-104016679D01*
X145332334Y-104009179D01*
X145329202Y-104008011D01*
X145268654Y-104001500D01*
X145268638Y-104001500D01*
X143471362Y-104001500D01*
X143471345Y-104001500D01*
X143410797Y-104008011D01*
X143410795Y-104008011D01*
X143273795Y-104059111D01*
X143174311Y-104133585D01*
X143108846Y-104158002D01*
X143040573Y-104143150D01*
X143025689Y-104133585D01*
X142926204Y-104059111D01*
X142789203Y-104008011D01*
X142728654Y-104001500D01*
X142728638Y-104001500D01*
X140931362Y-104001500D01*
X140931345Y-104001500D01*
X140870797Y-104008011D01*
X140870795Y-104008011D01*
X140733795Y-104059111D01*
X140634311Y-104133585D01*
X140568846Y-104158002D01*
X140500573Y-104143150D01*
X140485689Y-104133585D01*
X140386204Y-104059111D01*
X140249203Y-104008011D01*
X140188654Y-104001500D01*
X140188638Y-104001500D01*
X138391362Y-104001500D01*
X138391345Y-104001500D01*
X138330797Y-104008011D01*
X138330795Y-104008011D01*
X138193795Y-104059111D01*
X138094311Y-104133585D01*
X138028846Y-104158002D01*
X137960573Y-104143150D01*
X137945689Y-104133585D01*
X137846204Y-104059111D01*
X137709203Y-104008011D01*
X137648654Y-104001500D01*
X137648638Y-104001500D01*
X135851362Y-104001500D01*
X135851345Y-104001500D01*
X135790797Y-104008011D01*
X135790795Y-104008011D01*
X135653795Y-104059111D01*
X135554311Y-104133585D01*
X135488846Y-104158002D01*
X135420573Y-104143150D01*
X135405689Y-104133585D01*
X135306204Y-104059111D01*
X135169203Y-104008011D01*
X135108654Y-104001500D01*
X135108638Y-104001500D01*
X133311362Y-104001500D01*
X133311345Y-104001500D01*
X133250797Y-104008011D01*
X133250795Y-104008011D01*
X133113795Y-104059111D01*
X133014311Y-104133585D01*
X132948846Y-104158002D01*
X132880573Y-104143150D01*
X132865689Y-104133585D01*
X132766204Y-104059111D01*
X132629203Y-104008011D01*
X132568654Y-104001500D01*
X132568638Y-104001500D01*
X130771362Y-104001500D01*
X130771345Y-104001500D01*
X130710797Y-104008011D01*
X130710795Y-104008011D01*
X130573795Y-104059111D01*
X130474311Y-104133585D01*
X130408846Y-104158002D01*
X130340573Y-104143150D01*
X130325689Y-104133585D01*
X130226204Y-104059111D01*
X130089203Y-104008011D01*
X130028654Y-104001500D01*
X130028638Y-104001500D01*
X130012500Y-104001500D01*
X129945461Y-103981815D01*
X129899706Y-103929011D01*
X129888500Y-103877500D01*
X129888500Y-103235543D01*
X129908185Y-103168504D01*
X129924819Y-103147862D01*
X134177862Y-98894819D01*
X134239185Y-98861334D01*
X134265543Y-98858500D01*
X138284457Y-98858500D01*
X138313897Y-98867144D01*
X138343884Y-98873668D01*
X138348899Y-98877422D01*
X138351496Y-98878185D01*
X138372138Y-98894819D01*
X138418822Y-98941503D01*
X138445702Y-98981731D01*
X138477824Y-99059281D01*
X138560835Y-99183517D01*
X138560836Y-99183518D01*
X138610833Y-99233514D01*
X139167145Y-99789826D01*
X139194024Y-99830052D01*
X139203516Y-99852967D01*
X139203517Y-99852969D01*
X139291995Y-99985387D01*
X139292001Y-99985394D01*
X139404605Y-100097998D01*
X139404612Y-100098004D01*
X139537030Y-100186482D01*
X139537031Y-100186482D01*
X139537032Y-100186483D01*
X139684169Y-100247430D01*
X139831150Y-100276666D01*
X139840365Y-100278499D01*
X139840369Y-100278500D01*
X139840370Y-100278500D01*
X139999631Y-100278500D01*
X139999632Y-100278499D01*
X140155831Y-100247430D01*
X140302968Y-100186483D01*
X140435389Y-100098003D01*
X140548003Y-99985389D01*
X140636483Y-99852968D01*
X140697430Y-99705831D01*
X140728500Y-99549630D01*
X140728500Y-99390370D01*
X140697430Y-99234169D01*
X140636483Y-99087032D01*
X140616471Y-99057082D01*
X140548004Y-98954612D01*
X140547998Y-98954605D01*
X140435394Y-98842001D01*
X140435387Y-98841995D01*
X140302969Y-98753517D01*
X140302967Y-98753516D01*
X140280052Y-98744024D01*
X140239826Y-98717145D01*
X139994819Y-98472138D01*
X139961334Y-98410815D01*
X139958500Y-98384457D01*
X139958500Y-95777696D01*
X139978185Y-95710657D01*
X139979370Y-95708846D01*
X140005102Y-95670336D01*
X140073587Y-95505000D01*
X140108500Y-95329479D01*
X140108500Y-95150521D01*
X140073587Y-94975000D01*
X140005102Y-94809664D01*
X139992434Y-94790705D01*
X139979397Y-94771192D01*
X139958520Y-94704515D01*
X139958500Y-94702303D01*
X139958500Y-91537696D01*
X139978185Y-91470657D01*
X139979370Y-91468846D01*
X140005102Y-91430336D01*
X140073587Y-91265000D01*
X140108500Y-91089479D01*
X140108500Y-90910521D01*
X140073587Y-90735000D01*
X140005102Y-90569664D01*
X140005100Y-90569661D01*
X140005098Y-90569657D01*
X139905678Y-90420865D01*
X139905675Y-90420861D01*
X139779138Y-90294324D01*
X139779134Y-90294321D01*
X139630342Y-90194901D01*
X139630332Y-90194896D01*
X139465000Y-90126413D01*
X139464992Y-90126411D01*
X139289483Y-90091500D01*
X139289479Y-90091500D01*
X139110521Y-90091500D01*
X139110516Y-90091500D01*
X138935007Y-90126411D01*
X138934999Y-90126413D01*
X138769667Y-90194896D01*
X138769657Y-90194901D01*
X138620865Y-90294321D01*
X138620861Y-90294324D01*
X138494324Y-90420861D01*
X138494321Y-90420865D01*
X138394901Y-90569657D01*
X138394896Y-90569667D01*
X138326413Y-90734999D01*
X138326411Y-90735007D01*
X138291500Y-90910516D01*
X138291500Y-91089483D01*
X138326411Y-91264992D01*
X138326413Y-91265000D01*
X138354201Y-91332087D01*
X138394898Y-91430336D01*
X138420602Y-91468805D01*
X138441480Y-91535482D01*
X138441500Y-91537696D01*
X138441500Y-94702303D01*
X138421815Y-94769342D01*
X138420603Y-94771192D01*
X138394898Y-94809663D01*
X138326413Y-94974999D01*
X138326411Y-94975007D01*
X138291500Y-95150516D01*
X138291500Y-95329483D01*
X138326411Y-95504992D01*
X138326413Y-95505000D01*
X138392628Y-95664857D01*
X138394898Y-95670336D01*
X138420602Y-95708805D01*
X138441480Y-95775482D01*
X138441500Y-95777696D01*
X138441500Y-97217500D01*
X138421815Y-97284539D01*
X138369011Y-97330294D01*
X138317500Y-97341500D01*
X133825292Y-97341500D01*
X133678759Y-97370647D01*
X133678749Y-97370650D01*
X133540719Y-97427823D01*
X133416482Y-97510835D01*
X133416481Y-97510836D01*
X128540835Y-102386483D01*
X128540831Y-102386487D01*
X128536148Y-102393498D01*
X128536147Y-102393500D01*
X128457824Y-102510718D01*
X128400650Y-102648749D01*
X128400647Y-102648759D01*
X128371500Y-102795291D01*
X128371500Y-103877500D01*
X128351815Y-103944539D01*
X128299011Y-103990294D01*
X128247500Y-104001500D01*
X128231345Y-104001500D01*
X128170797Y-104008011D01*
X128170795Y-104008011D01*
X128033795Y-104059111D01*
X127934311Y-104133585D01*
X127868846Y-104158002D01*
X127800573Y-104143150D01*
X127785689Y-104133585D01*
X127686204Y-104059111D01*
X127549203Y-104008011D01*
X127488654Y-104001500D01*
X127488638Y-104001500D01*
X125691362Y-104001500D01*
X125691345Y-104001500D01*
X125630797Y-104008011D01*
X125630795Y-104008011D01*
X125493793Y-104059111D01*
X125493793Y-104059112D01*
X125387218Y-104138893D01*
X125321754Y-104163310D01*
X125253481Y-104148458D01*
X125238597Y-104138893D01*
X125142088Y-104066646D01*
X125142086Y-104066645D01*
X125007379Y-104016403D01*
X125007372Y-104016401D01*
X124947844Y-104010000D01*
X124300000Y-104010000D01*
X124300000Y-104915439D01*
X124246853Y-104884755D01*
X124117143Y-104850000D01*
X123982857Y-104850000D01*
X123853147Y-104884755D01*
X123800000Y-104915439D01*
X123800000Y-104010000D01*
X123152155Y-104010000D01*
X123092627Y-104016401D01*
X123092620Y-104016403D01*
X122957913Y-104066645D01*
X122957910Y-104066647D01*
X122861402Y-104138893D01*
X122795937Y-104163310D01*
X122727664Y-104148458D01*
X122712780Y-104138893D01*
X122606204Y-104059111D01*
X122469203Y-104008011D01*
X122408654Y-104001500D01*
X122408638Y-104001500D01*
X120611362Y-104001500D01*
X120611345Y-104001500D01*
X120550797Y-104008011D01*
X120550795Y-104008011D01*
X120413795Y-104059111D01*
X120314311Y-104133585D01*
X120248846Y-104158002D01*
X120180573Y-104143150D01*
X120165689Y-104133585D01*
X120066204Y-104059111D01*
X119929203Y-104008011D01*
X119868654Y-104001500D01*
X119868638Y-104001500D01*
X118071362Y-104001500D01*
X118071345Y-104001500D01*
X118010797Y-104008011D01*
X118010795Y-104008011D01*
X117873795Y-104059111D01*
X117756739Y-104146739D01*
X117669111Y-104263795D01*
X117618011Y-104400795D01*
X117618011Y-104400797D01*
X117611500Y-104461345D01*
X117611500Y-108058654D01*
X117618011Y-108119202D01*
X117618011Y-108119204D01*
X117669111Y-108256204D01*
X117756739Y-108373261D01*
X117873796Y-108460889D01*
X117954360Y-108490938D01*
X118005463Y-108509999D01*
X118010799Y-108511989D01*
X118038050Y-108514918D01*
X118071345Y-108518499D01*
X118071362Y-108518500D01*
X119868638Y-108518500D01*
X119868654Y-108518499D01*
X119895692Y-108515591D01*
X119929201Y-108511989D01*
X119934537Y-108509999D01*
X120026076Y-108475856D01*
X120066204Y-108460889D01*
X120066204Y-108460888D01*
X120066206Y-108460888D01*
X120066207Y-108460887D01*
X120165689Y-108386415D01*
X120231153Y-108361997D01*
X120299426Y-108376848D01*
X120314311Y-108386415D01*
X120413792Y-108460887D01*
X120413793Y-108460888D01*
X120545464Y-108509999D01*
X120550799Y-108511989D01*
X120578050Y-108514918D01*
X120611345Y-108518499D01*
X120611362Y-108518500D01*
X122408638Y-108518500D01*
X122408654Y-108518499D01*
X122435692Y-108515591D01*
X122469201Y-108511989D01*
X122474537Y-108509999D01*
X122491703Y-108503596D01*
X122606204Y-108460889D01*
X122712782Y-108381105D01*
X122778244Y-108356689D01*
X122846517Y-108371540D01*
X122861402Y-108381106D01*
X122957911Y-108453353D01*
X122957913Y-108453354D01*
X123092620Y-108503596D01*
X123092627Y-108503598D01*
X123152155Y-108509999D01*
X123152172Y-108510000D01*
X123800000Y-108510000D01*
X123800000Y-105804560D01*
X123853147Y-105835245D01*
X123982857Y-105870000D01*
X124117143Y-105870000D01*
X124246853Y-105835245D01*
X124300000Y-105804560D01*
X124300000Y-108510000D01*
X124947828Y-108510000D01*
X124947844Y-108509999D01*
X125007372Y-108503598D01*
X125007379Y-108503596D01*
X125142086Y-108453354D01*
X125142089Y-108453352D01*
X125238596Y-108381107D01*
X125304060Y-108356689D01*
X125372334Y-108371540D01*
X125387216Y-108381104D01*
X125493796Y-108460889D01*
X125574360Y-108490938D01*
X125625463Y-108509999D01*
X125630799Y-108511989D01*
X125658050Y-108514918D01*
X125691345Y-108518499D01*
X125691362Y-108518500D01*
X127488638Y-108518500D01*
X127488654Y-108518499D01*
X127515692Y-108515591D01*
X127549201Y-108511989D01*
X127554537Y-108509999D01*
X127646076Y-108475856D01*
X127686204Y-108460889D01*
X127686204Y-108460888D01*
X127686206Y-108460888D01*
X127686207Y-108460887D01*
X127785689Y-108386415D01*
X127851153Y-108361997D01*
X127919426Y-108376848D01*
X127934311Y-108386415D01*
X128033792Y-108460887D01*
X128033793Y-108460888D01*
X128165464Y-108509999D01*
X128170799Y-108511989D01*
X128198050Y-108514918D01*
X128231345Y-108518499D01*
X128231362Y-108518500D01*
X128247500Y-108518500D01*
X128314539Y-108538185D01*
X128360294Y-108590989D01*
X128371500Y-108642500D01*
X128371500Y-112454846D01*
X128353618Y-112518992D01*
X128297139Y-112612423D01*
X128297137Y-112612426D01*
X128297137Y-112612428D01*
X128247759Y-112770886D01*
X128247758Y-112770889D01*
X128247758Y-112770891D01*
X128247758Y-112770897D01*
X128241500Y-112839759D01*
X128241500Y-113600250D01*
X128247756Y-113669102D01*
X128247758Y-113669109D01*
X128297137Y-113827574D01*
X128297139Y-113827578D01*
X128383005Y-113969619D01*
X128383008Y-113969623D01*
X128500376Y-114086991D01*
X128500380Y-114086994D01*
X128642338Y-114172810D01*
X128642423Y-114172861D01*
X128800891Y-114222242D01*
X128869757Y-114228500D01*
X129330242Y-114228499D01*
X129330250Y-114228499D01*
X129399102Y-114222243D01*
X129399103Y-114222242D01*
X129399109Y-114222242D01*
X129547880Y-114175882D01*
X129557574Y-114172862D01*
X129557574Y-114172861D01*
X129557577Y-114172861D01*
X129699623Y-114086992D01*
X129816992Y-113969623D01*
X129902861Y-113827577D01*
X129952242Y-113669109D01*
X129958500Y-113600243D01*
X129958499Y-112839758D01*
X129958499Y-112839757D01*
X129958499Y-112839749D01*
X129952243Y-112770897D01*
X129952242Y-112770893D01*
X129952242Y-112770891D01*
X129918248Y-112661803D01*
X129902861Y-112612422D01*
X129899784Y-112605585D01*
X129902507Y-112604359D01*
X129888500Y-112554100D01*
X129888500Y-108642500D01*
X129908185Y-108575461D01*
X129960989Y-108529706D01*
X130012500Y-108518500D01*
X130028638Y-108518500D01*
X130028654Y-108518499D01*
X130055692Y-108515591D01*
X130089201Y-108511989D01*
X130094537Y-108509999D01*
X130186076Y-108475856D01*
X130226204Y-108460889D01*
X130226204Y-108460888D01*
X130226206Y-108460888D01*
X130226207Y-108460887D01*
X130325689Y-108386415D01*
X130391153Y-108361997D01*
X130459426Y-108376848D01*
X130474311Y-108386415D01*
X130573792Y-108460887D01*
X130573793Y-108460888D01*
X130705464Y-108509999D01*
X130710799Y-108511989D01*
X130738050Y-108514918D01*
X130771345Y-108518499D01*
X130771362Y-108518500D01*
X132568638Y-108518500D01*
X132568654Y-108518499D01*
X132595692Y-108515591D01*
X132629201Y-108511989D01*
X132634537Y-108509999D01*
X132726076Y-108475856D01*
X132766204Y-108460889D01*
X132766204Y-108460888D01*
X132766206Y-108460888D01*
X132766207Y-108460887D01*
X132865689Y-108386415D01*
X132931153Y-108361997D01*
X132999426Y-108376848D01*
X133014311Y-108386415D01*
X133113792Y-108460887D01*
X133113793Y-108460888D01*
X133245464Y-108509999D01*
X133250799Y-108511989D01*
X133278050Y-108514918D01*
X133311345Y-108518499D01*
X133311362Y-108518500D01*
X133377500Y-108518500D01*
X133444539Y-108538185D01*
X133490294Y-108590989D01*
X133501500Y-108642500D01*
X133501500Y-109755166D01*
X133481815Y-109822205D01*
X133465181Y-109842847D01*
X132389674Y-110918353D01*
X132389668Y-110918361D01*
X132312137Y-111034394D01*
X132312135Y-111034399D01*
X132274369Y-111125572D01*
X132274368Y-111125573D01*
X132258727Y-111163336D01*
X132258725Y-111163342D01*
X132231500Y-111300214D01*
X132231500Y-112105166D01*
X132211815Y-112172205D01*
X132195181Y-112192847D01*
X132093187Y-112294840D01*
X132093186Y-112294841D01*
X132004173Y-112442086D01*
X131952986Y-112606354D01*
X131946500Y-112677737D01*
X131946500Y-113192272D01*
X131952985Y-113263645D01*
X131952988Y-113263655D01*
X132004171Y-113427909D01*
X132004172Y-113427911D01*
X132004173Y-113427913D01*
X132093184Y-113575155D01*
X132093186Y-113575158D01*
X132190347Y-113672319D01*
X132223832Y-113733642D01*
X132218848Y-113803334D01*
X132190347Y-113847681D01*
X132093187Y-113944840D01*
X132093186Y-113944841D01*
X132004173Y-114092086D01*
X131952986Y-114256354D01*
X131946500Y-114327737D01*
X131946500Y-114515166D01*
X131926815Y-114582205D01*
X131910181Y-114602847D01*
X131637848Y-114875181D01*
X131576525Y-114908666D01*
X131550167Y-114911500D01*
X130859477Y-114911500D01*
X130792438Y-114891815D01*
X130771796Y-114875181D01*
X130649623Y-114753008D01*
X130649619Y-114753005D01*
X130507578Y-114667139D01*
X130507576Y-114667138D01*
X130349113Y-114617759D01*
X130349111Y-114617758D01*
X130349109Y-114617758D01*
X130280243Y-114611500D01*
X130280240Y-114611500D01*
X129819749Y-114611500D01*
X129750897Y-114617756D01*
X129750890Y-114617758D01*
X129592425Y-114667137D01*
X129592421Y-114667139D01*
X129450380Y-114753005D01*
X129450376Y-114753008D01*
X129333008Y-114870376D01*
X129333005Y-114870380D01*
X129247139Y-115012421D01*
X129247139Y-115012422D01*
X129218384Y-115104698D01*
X129179646Y-115162845D01*
X129115620Y-115190818D01*
X129046635Y-115179736D01*
X128994593Y-115133117D01*
X128981617Y-115104704D01*
X128952861Y-115012423D01*
X128932992Y-114979556D01*
X128866994Y-114870380D01*
X128866991Y-114870376D01*
X128749623Y-114753008D01*
X128749619Y-114753005D01*
X128607578Y-114667139D01*
X128607576Y-114667138D01*
X128449113Y-114617759D01*
X128449111Y-114617758D01*
X128449109Y-114617758D01*
X128380243Y-114611500D01*
X128380240Y-114611500D01*
X127919749Y-114611500D01*
X127850897Y-114617756D01*
X127850890Y-114617758D01*
X127692425Y-114667137D01*
X127692421Y-114667139D01*
X127550380Y-114753005D01*
X127550376Y-114753008D01*
X127433008Y-114870376D01*
X127433005Y-114870380D01*
X127347139Y-115012421D01*
X127347138Y-115012423D01*
X127297759Y-115170886D01*
X127297758Y-115170889D01*
X127297758Y-115170891D01*
X127294659Y-115205000D01*
X127291500Y-115239759D01*
X127291500Y-116000250D01*
X127297756Y-116069102D01*
X127297758Y-116069109D01*
X127347137Y-116227574D01*
X127347139Y-116227578D01*
X127433004Y-116369617D01*
X127433008Y-116369623D01*
X127433011Y-116369626D01*
X127435107Y-116372301D01*
X127436034Y-116374630D01*
X127436888Y-116376042D01*
X127436653Y-116376183D01*
X127460959Y-116437212D01*
X127461500Y-116448779D01*
X127461500Y-118079786D01*
X127488724Y-118216653D01*
X127488727Y-118216662D01*
X127542135Y-118345601D01*
X127542136Y-118345604D01*
X127619671Y-118461642D01*
X127619674Y-118461646D01*
X131465181Y-122307151D01*
X131498666Y-122368474D01*
X131501500Y-122394832D01*
X131501500Y-126293063D01*
X131481815Y-126360102D01*
X131450387Y-126393380D01*
X131409687Y-126422951D01*
X131409683Y-126422954D01*
X131272950Y-126559687D01*
X131272946Y-126559692D01*
X131159294Y-126716122D01*
X131071503Y-126888419D01*
X131071502Y-126888422D01*
X131011750Y-127072324D01*
X130981500Y-127263315D01*
X130981500Y-127456684D01*
X131011750Y-127647675D01*
X131071502Y-127831577D01*
X131071503Y-127831580D01*
X131127511Y-127941500D01*
X131157022Y-127999419D01*
X131159294Y-128003877D01*
X131272946Y-128160307D01*
X131272950Y-128160312D01*
X131409687Y-128297049D01*
X131409692Y-128297053D01*
X131524055Y-128380142D01*
X131566126Y-128410708D01*
X131678756Y-128468095D01*
X131738419Y-128498496D01*
X131738422Y-128498497D01*
X131830373Y-128528373D01*
X131922326Y-128558250D01*
X132113315Y-128588500D01*
X132113316Y-128588500D01*
X132306684Y-128588500D01*
X132306685Y-128588500D01*
X132497674Y-128558250D01*
X132681580Y-128498496D01*
X132853874Y-128410708D01*
X133010314Y-128297048D01*
X133147048Y-128160314D01*
X133260708Y-128003874D01*
X133348496Y-127831580D01*
X133362069Y-127789807D01*
X133401506Y-127732132D01*
X133465865Y-127704933D01*
X133534711Y-127716847D01*
X133586187Y-127764091D01*
X133597931Y-127789807D01*
X133611502Y-127831577D01*
X133611503Y-127831580D01*
X133667511Y-127941500D01*
X133697022Y-127999419D01*
X133699294Y-128003877D01*
X133812946Y-128160307D01*
X133812950Y-128160312D01*
X133949687Y-128297049D01*
X133949692Y-128297053D01*
X134064055Y-128380142D01*
X134106126Y-128410708D01*
X134218756Y-128468095D01*
X134278419Y-128498496D01*
X134278422Y-128498497D01*
X134370373Y-128528373D01*
X134462326Y-128558250D01*
X134653315Y-128588500D01*
X134653316Y-128588500D01*
X134846684Y-128588500D01*
X134846685Y-128588500D01*
X135037674Y-128558250D01*
X135221580Y-128498496D01*
X135393874Y-128410708D01*
X135550314Y-128297048D01*
X135687048Y-128160314D01*
X135800708Y-128003874D01*
X135888496Y-127831580D01*
X135906538Y-127776053D01*
X135945975Y-127718377D01*
X136010333Y-127691178D01*
X136079180Y-127703092D01*
X136130656Y-127750336D01*
X136142400Y-127776051D01*
X136159383Y-127828321D01*
X136246561Y-127999415D01*
X136267798Y-128028646D01*
X136890000Y-127406445D01*
X136890000Y-127412661D01*
X136917259Y-127514394D01*
X136969920Y-127605606D01*
X137044394Y-127680080D01*
X137135606Y-127732741D01*
X137237339Y-127760000D01*
X137243554Y-127760000D01*
X136621351Y-128382200D01*
X136621352Y-128382201D01*
X136650577Y-128403434D01*
X136821678Y-128490616D01*
X137004315Y-128549959D01*
X137193985Y-128580000D01*
X137386015Y-128580000D01*
X137575684Y-128549959D01*
X137758321Y-128490616D01*
X137929419Y-128403436D01*
X137958646Y-128382201D01*
X137958646Y-128382200D01*
X137336447Y-127760000D01*
X137342661Y-127760000D01*
X137444394Y-127732741D01*
X137535606Y-127680080D01*
X137610080Y-127605606D01*
X137662741Y-127514394D01*
X137690000Y-127412661D01*
X137690000Y-127406446D01*
X138312200Y-128028646D01*
X138312201Y-128028646D01*
X138333436Y-127999419D01*
X138420616Y-127828321D01*
X138479959Y-127645684D01*
X138510000Y-127456015D01*
X138510000Y-127263984D01*
X138479959Y-127074315D01*
X138420616Y-126891678D01*
X138333434Y-126720577D01*
X138312201Y-126691352D01*
X138312200Y-126691351D01*
X137690000Y-127313552D01*
X137690000Y-127307339D01*
X137662741Y-127205606D01*
X137610080Y-127114394D01*
X137535606Y-127039920D01*
X137444394Y-126987259D01*
X137342661Y-126960000D01*
X137336447Y-126960000D01*
X137958646Y-126337798D01*
X137929415Y-126316561D01*
X137758321Y-126229383D01*
X137575684Y-126170040D01*
X137386015Y-126140000D01*
X137193985Y-126140000D01*
X137004315Y-126170040D01*
X136821678Y-126229383D01*
X136650578Y-126316564D01*
X136621352Y-126337798D01*
X136621351Y-126337798D01*
X137243554Y-126960000D01*
X137237339Y-126960000D01*
X137135606Y-126987259D01*
X137044394Y-127039920D01*
X136969920Y-127114394D01*
X136917259Y-127205606D01*
X136890000Y-127307339D01*
X136890000Y-127313553D01*
X136267798Y-126691351D01*
X136267798Y-126691352D01*
X136246564Y-126720578D01*
X136159383Y-126891679D01*
X136142400Y-126943948D01*
X136102961Y-127001623D01*
X136038603Y-127028821D01*
X135969756Y-127016906D01*
X135918281Y-126969661D01*
X135906538Y-126943947D01*
X135888497Y-126888422D01*
X135888496Y-126888419D01*
X135841600Y-126796381D01*
X135800708Y-126716126D01*
X135782708Y-126691351D01*
X135687053Y-126559692D01*
X135687049Y-126559687D01*
X135603052Y-126475690D01*
X135550314Y-126422952D01*
X135505113Y-126390111D01*
X135500909Y-126386438D01*
X135485015Y-126361480D01*
X135466948Y-126338049D01*
X135465632Y-126331042D01*
X135463379Y-126327504D01*
X135463413Y-126319226D01*
X135458500Y-126293063D01*
X135458500Y-124514833D01*
X135478185Y-124447794D01*
X135494819Y-124427152D01*
X135509790Y-124412181D01*
X135571113Y-124378696D01*
X135616869Y-124377389D01*
X135687019Y-124388500D01*
X135687020Y-124388500D01*
X135892980Y-124388500D01*
X135892981Y-124388500D01*
X136096408Y-124356280D01*
X136292290Y-124292634D01*
X136475803Y-124199129D01*
X136642430Y-124078068D01*
X136788068Y-123932430D01*
X136909129Y-123765803D01*
X137002634Y-123582290D01*
X137066280Y-123386408D01*
X137098500Y-123182981D01*
X137098500Y-122977019D01*
X137066280Y-122773592D01*
X137061227Y-122758042D01*
X137002632Y-122577705D01*
X136968709Y-122511128D01*
X136909129Y-122394197D01*
X136845887Y-122307151D01*
X136788073Y-122227576D01*
X136788069Y-122227571D01*
X136642428Y-122081930D01*
X136642423Y-122081926D01*
X136475806Y-121960873D01*
X136475805Y-121960872D01*
X136475803Y-121960871D01*
X136418496Y-121931671D01*
X136292294Y-121867367D01*
X136096408Y-121803719D01*
X135920794Y-121775905D01*
X135892981Y-121771500D01*
X135687019Y-121771500D01*
X135662550Y-121775375D01*
X135483591Y-121803719D01*
X135287705Y-121867367D01*
X135104193Y-121960873D01*
X134937576Y-122081926D01*
X134937571Y-122081930D01*
X134791930Y-122227571D01*
X134791926Y-122227576D01*
X134670873Y-122394193D01*
X134577367Y-122577705D01*
X134513719Y-122773591D01*
X134481500Y-122977019D01*
X134481500Y-123182981D01*
X134481499Y-123182981D01*
X134506283Y-123339458D01*
X134497328Y-123408751D01*
X134471491Y-123446536D01*
X134199674Y-123718353D01*
X134199668Y-123718361D01*
X134122137Y-123834394D01*
X134122135Y-123834399D01*
X134084369Y-123925572D01*
X134084368Y-123925573D01*
X134068727Y-123963336D01*
X134068725Y-123963342D01*
X134041500Y-124100214D01*
X134041500Y-126293063D01*
X134021815Y-126360102D01*
X133990387Y-126393380D01*
X133949687Y-126422951D01*
X133949683Y-126422954D01*
X133812950Y-126559687D01*
X133812946Y-126559692D01*
X133699294Y-126716122D01*
X133611503Y-126888419D01*
X133611502Y-126888422D01*
X133597931Y-126930192D01*
X133558493Y-126987868D01*
X133494135Y-127015066D01*
X133425288Y-127003151D01*
X133373813Y-126955907D01*
X133362069Y-126930192D01*
X133348497Y-126888422D01*
X133348496Y-126888419D01*
X133301600Y-126796381D01*
X133260708Y-126716126D01*
X133242708Y-126691351D01*
X133147053Y-126559692D01*
X133147049Y-126559687D01*
X133010316Y-126422954D01*
X133010314Y-126422952D01*
X132996614Y-126412998D01*
X132969613Y-126393380D01*
X132926948Y-126338049D01*
X132918500Y-126293063D01*
X132918500Y-121980218D01*
X132918499Y-121980214D01*
X132914651Y-121960871D01*
X132891273Y-121843338D01*
X132874863Y-121803722D01*
X132874863Y-121803721D01*
X132837863Y-121714395D01*
X132760328Y-121598358D01*
X132760325Y-121598354D01*
X128914819Y-117752848D01*
X128881334Y-117691525D01*
X128878500Y-117665167D01*
X128878500Y-116385153D01*
X128880805Y-116374578D01*
X128879779Y-116367389D01*
X128886416Y-116348847D01*
X128889755Y-116333534D01*
X128892710Y-116327079D01*
X128952861Y-116227577D01*
X128983966Y-116127756D01*
X128987255Y-116120574D01*
X129005186Y-116099919D01*
X129020352Y-116077155D01*
X129027760Y-116073917D01*
X129033060Y-116067814D01*
X129059310Y-116060133D01*
X129084377Y-116049181D01*
X129092359Y-116050463D01*
X129100118Y-116048193D01*
X129126358Y-116055924D01*
X129153363Y-116060263D01*
X129159383Y-116065656D01*
X129167138Y-116067941D01*
X129185029Y-116088628D01*
X129205406Y-116106881D01*
X129210542Y-116118128D01*
X129212843Y-116120789D01*
X129213337Y-116124248D01*
X129218385Y-116135303D01*
X129247137Y-116227574D01*
X129247139Y-116227578D01*
X129333005Y-116369619D01*
X129333008Y-116369623D01*
X129450377Y-116486992D01*
X129592423Y-116572861D01*
X129750891Y-116622242D01*
X129819757Y-116628500D01*
X130280242Y-116628499D01*
X130280250Y-116628499D01*
X130349102Y-116622243D01*
X130349103Y-116622242D01*
X130349109Y-116622242D01*
X130507577Y-116572861D01*
X130649623Y-116486992D01*
X130766992Y-116369623D01*
X130766992Y-116369622D01*
X130771796Y-116364819D01*
X130833119Y-116331334D01*
X130859477Y-116328500D01*
X131964782Y-116328500D01*
X132033221Y-116314886D01*
X132101662Y-116301273D01*
X132139427Y-116285630D01*
X132230601Y-116247865D01*
X132346643Y-116170328D01*
X132987152Y-115529817D01*
X133048475Y-115496333D01*
X133074833Y-115493499D01*
X133262271Y-115493499D01*
X133333644Y-115487014D01*
X133333647Y-115487013D01*
X133333649Y-115487013D01*
X133497913Y-115435827D01*
X133645155Y-115346816D01*
X133766816Y-115225155D01*
X133855827Y-115077913D01*
X133907013Y-114913649D01*
X133913500Y-114842265D01*
X133913499Y-114327736D01*
X133913499Y-114327735D01*
X133913499Y-114327727D01*
X133907014Y-114256354D01*
X133907011Y-114256344D01*
X133855828Y-114092090D01*
X133855827Y-114092089D01*
X133855827Y-114092087D01*
X133766816Y-113944845D01*
X133766814Y-113944843D01*
X133766813Y-113944841D01*
X133669653Y-113847681D01*
X133636168Y-113786358D01*
X133641152Y-113716666D01*
X133669653Y-113672319D01*
X133766812Y-113575159D01*
X133766813Y-113575158D01*
X133766816Y-113575155D01*
X133855827Y-113427913D01*
X133907013Y-113263649D01*
X133913500Y-113192265D01*
X133913499Y-112817019D01*
X134481500Y-112817019D01*
X134481500Y-113022980D01*
X134513719Y-113226408D01*
X134577367Y-113422294D01*
X134608339Y-113483078D01*
X134669396Y-113602909D01*
X134670873Y-113605806D01*
X134791926Y-113772423D01*
X134791930Y-113772428D01*
X134791932Y-113772430D01*
X134937570Y-113918068D01*
X135030384Y-113985501D01*
X135073051Y-114040830D01*
X135081500Y-114085819D01*
X135081500Y-119529786D01*
X135108724Y-119666653D01*
X135108727Y-119666662D01*
X135162135Y-119795601D01*
X135162136Y-119795604D01*
X135239671Y-119911642D01*
X135239674Y-119911646D01*
X138503354Y-123175325D01*
X138503358Y-123175328D01*
X138619399Y-123252865D01*
X138649951Y-123265520D01*
X138704354Y-123309358D01*
X138726421Y-123375652D01*
X138726500Y-123380081D01*
X138726500Y-123523654D01*
X138733011Y-123584202D01*
X138733011Y-123584204D01*
X138783048Y-123718353D01*
X138784111Y-123721204D01*
X138871739Y-123838261D01*
X138988796Y-123925889D01*
X139125799Y-123976989D01*
X139153050Y-123979918D01*
X139186345Y-123983499D01*
X139186362Y-123983500D01*
X140983638Y-123983500D01*
X140983654Y-123983499D01*
X141010692Y-123980591D01*
X141044201Y-123976989D01*
X141181204Y-123925889D01*
X141298261Y-123838261D01*
X141385889Y-123721204D01*
X141436989Y-123584201D01*
X141440591Y-123550692D01*
X141443499Y-123523654D01*
X141443500Y-123523637D01*
X141443500Y-121726362D01*
X141443499Y-121726345D01*
X141440157Y-121695270D01*
X141436989Y-121665799D01*
X141385889Y-121528796D01*
X141298261Y-121411739D01*
X141181204Y-121324111D01*
X141044203Y-121273011D01*
X140983654Y-121266500D01*
X140983638Y-121266500D01*
X140964309Y-121266500D01*
X140897270Y-121246815D01*
X140876628Y-121230181D01*
X140214408Y-120567962D01*
X140277993Y-120550925D01*
X140392007Y-120485099D01*
X140485099Y-120392007D01*
X140550925Y-120277993D01*
X140567962Y-120214409D01*
X141200270Y-120846717D01*
X141200270Y-120846716D01*
X141239622Y-120792554D01*
X141336095Y-120603217D01*
X141401757Y-120401130D01*
X141401757Y-120401127D01*
X141435000Y-120191246D01*
X141435000Y-119978753D01*
X141401757Y-119768872D01*
X141401757Y-119768869D01*
X141336095Y-119566782D01*
X141239624Y-119377449D01*
X141200270Y-119323282D01*
X141200269Y-119323282D01*
X140567962Y-119955590D01*
X140550925Y-119892007D01*
X140485099Y-119777993D01*
X140392007Y-119684901D01*
X140277993Y-119619075D01*
X140214409Y-119602037D01*
X140846716Y-118969728D01*
X140792550Y-118930375D01*
X140603217Y-118833904D01*
X140401129Y-118768242D01*
X140191246Y-118735000D01*
X139978754Y-118735000D01*
X139768872Y-118768242D01*
X139768869Y-118768242D01*
X139566782Y-118833904D01*
X139377439Y-118930380D01*
X139323282Y-118969727D01*
X139323282Y-118969728D01*
X139955591Y-119602037D01*
X139892007Y-119619075D01*
X139777993Y-119684901D01*
X139684901Y-119777993D01*
X139619075Y-119892007D01*
X139602037Y-119955591D01*
X138969728Y-119323282D01*
X138969727Y-119323282D01*
X138930380Y-119377439D01*
X138833904Y-119566782D01*
X138768242Y-119768869D01*
X138768242Y-119768872D01*
X138735000Y-119978753D01*
X138735000Y-120191246D01*
X138768242Y-120401127D01*
X138768242Y-120401130D01*
X138833904Y-120603217D01*
X138930375Y-120792550D01*
X138969728Y-120846716D01*
X139602037Y-120214408D01*
X139619075Y-120277993D01*
X139684901Y-120392007D01*
X139777993Y-120485099D01*
X139892007Y-120550925D01*
X139955591Y-120567962D01*
X139293371Y-121230181D01*
X139232048Y-121263666D01*
X139205690Y-121266500D01*
X139186345Y-121266500D01*
X139125797Y-121273011D01*
X139125795Y-121273011D01*
X138988793Y-121324111D01*
X138988792Y-121324112D01*
X138884534Y-121402159D01*
X138819069Y-121426576D01*
X138750797Y-121411724D01*
X138722543Y-121390573D01*
X137393533Y-120061562D01*
X136534819Y-119202848D01*
X136520115Y-119175920D01*
X136503523Y-119150102D01*
X136502631Y-119143901D01*
X136501334Y-119141525D01*
X136498500Y-119115167D01*
X136498500Y-114299447D01*
X138521500Y-114299447D01*
X138521500Y-115100537D01*
X138521501Y-115100553D01*
X138532113Y-115204427D01*
X138543821Y-115239759D01*
X138587885Y-115372738D01*
X138680970Y-115523652D01*
X138806348Y-115649030D01*
X138957262Y-115742115D01*
X139125574Y-115797887D01*
X139229455Y-115808500D01*
X140030544Y-115808499D01*
X140134426Y-115797887D01*
X140302738Y-115742115D01*
X140446808Y-115653250D01*
X140514198Y-115634811D01*
X140568199Y-115648306D01*
X140707740Y-115719407D01*
X140872415Y-115772914D01*
X141043429Y-115800000D01*
X141216571Y-115800000D01*
X141387584Y-115772914D01*
X141552257Y-115719408D01*
X141706525Y-115640803D01*
X141712736Y-115636289D01*
X141071301Y-114994854D01*
X141090504Y-115000000D01*
X141169496Y-115000000D01*
X141245796Y-114979556D01*
X141314205Y-114940060D01*
X141370060Y-114884205D01*
X141409556Y-114815796D01*
X141430000Y-114739496D01*
X141430000Y-114699999D01*
X141483553Y-114699999D01*
X141483553Y-114700000D01*
X142066289Y-115282736D01*
X142070803Y-115276525D01*
X142149408Y-115122257D01*
X142202914Y-114957584D01*
X142230000Y-114786571D01*
X142230000Y-114613428D01*
X142202914Y-114442415D01*
X142149408Y-114277742D01*
X142070801Y-114123471D01*
X142066290Y-114117262D01*
X142066289Y-114117261D01*
X141483553Y-114699999D01*
X141430000Y-114699999D01*
X141430000Y-114660504D01*
X141409556Y-114584204D01*
X141370060Y-114515795D01*
X141314205Y-114459940D01*
X141245796Y-114420444D01*
X141169496Y-114400000D01*
X141090504Y-114400000D01*
X141071300Y-114405145D01*
X141712737Y-113763709D01*
X141706525Y-113759196D01*
X141552259Y-113680592D01*
X141387584Y-113627085D01*
X141216571Y-113600000D01*
X141043429Y-113600000D01*
X140872415Y-113627085D01*
X140707742Y-113680591D01*
X140568198Y-113751694D01*
X140499529Y-113764590D01*
X140446806Y-113746747D01*
X140302746Y-113657889D01*
X140302740Y-113657886D01*
X140302738Y-113657885D01*
X140302735Y-113657884D01*
X140134427Y-113602113D01*
X140030546Y-113591500D01*
X139229462Y-113591500D01*
X139229446Y-113591501D01*
X139125572Y-113602113D01*
X138957264Y-113657884D01*
X138957259Y-113657886D01*
X138806346Y-113750971D01*
X138680971Y-113876346D01*
X138587886Y-114027259D01*
X138587884Y-114027264D01*
X138532113Y-114195572D01*
X138521500Y-114299447D01*
X136498500Y-114299447D01*
X136498500Y-114085819D01*
X136518185Y-114018780D01*
X136549614Y-113985501D01*
X136642430Y-113918068D01*
X136788068Y-113772430D01*
X136909129Y-113605803D01*
X137002634Y-113422290D01*
X137066280Y-113226408D01*
X137098500Y-113022981D01*
X137098500Y-112817019D01*
X137066280Y-112613592D01*
X137063928Y-112606354D01*
X137014700Y-112454846D01*
X137002634Y-112417710D01*
X137002632Y-112417707D01*
X137002632Y-112417705D01*
X136968709Y-112351128D01*
X136909129Y-112234197D01*
X136864801Y-112173184D01*
X136788073Y-112067576D01*
X136788069Y-112067571D01*
X136642428Y-111921930D01*
X136642423Y-111921926D01*
X136475806Y-111800873D01*
X136475805Y-111800872D01*
X136475803Y-111800871D01*
X136398057Y-111761257D01*
X136292294Y-111707367D01*
X136096408Y-111643719D01*
X135920794Y-111615905D01*
X135892981Y-111611500D01*
X135687019Y-111611500D01*
X135662550Y-111615375D01*
X135483591Y-111643719D01*
X135287705Y-111707367D01*
X135104193Y-111800873D01*
X134937576Y-111921926D01*
X134937571Y-111921930D01*
X134791930Y-112067571D01*
X134791926Y-112067576D01*
X134670873Y-112234193D01*
X134577367Y-112417705D01*
X134513719Y-112613591D01*
X134481500Y-112817019D01*
X133913499Y-112817019D01*
X133913499Y-112677736D01*
X133913499Y-112677735D01*
X133913499Y-112677727D01*
X133907014Y-112606354D01*
X133907011Y-112606344D01*
X133855828Y-112442090D01*
X133855827Y-112442089D01*
X133855827Y-112442087D01*
X133766816Y-112294845D01*
X133766814Y-112294843D01*
X133766813Y-112294841D01*
X133684819Y-112212847D01*
X133651334Y-112151524D01*
X133648500Y-112125166D01*
X133648500Y-111714833D01*
X133668185Y-111647794D01*
X133684819Y-111627152D01*
X134760328Y-110551643D01*
X134837865Y-110435601D01*
X134859986Y-110382192D01*
X134891273Y-110306662D01*
X134918500Y-110169781D01*
X134918500Y-108642500D01*
X134938185Y-108575461D01*
X134990989Y-108529706D01*
X135042500Y-108518500D01*
X135108638Y-108518500D01*
X135108654Y-108518499D01*
X135135692Y-108515591D01*
X135169201Y-108511989D01*
X135174537Y-108509999D01*
X135266076Y-108475856D01*
X135306204Y-108460889D01*
X135306204Y-108460888D01*
X135306206Y-108460888D01*
X135306207Y-108460887D01*
X135405689Y-108386415D01*
X135471153Y-108361997D01*
X135539426Y-108376848D01*
X135554311Y-108386415D01*
X135653792Y-108460887D01*
X135653793Y-108460888D01*
X135785464Y-108509999D01*
X135790799Y-108511989D01*
X135818050Y-108514918D01*
X135851345Y-108518499D01*
X135851362Y-108518500D01*
X137648638Y-108518500D01*
X137648654Y-108518499D01*
X137675692Y-108515591D01*
X137709201Y-108511989D01*
X137714537Y-108509999D01*
X137806076Y-108475856D01*
X137846204Y-108460889D01*
X137846204Y-108460888D01*
X137846206Y-108460888D01*
X137846207Y-108460887D01*
X137945689Y-108386415D01*
X138011153Y-108361997D01*
X138079426Y-108376848D01*
X138094311Y-108386415D01*
X138193792Y-108460887D01*
X138193793Y-108460888D01*
X138325464Y-108509999D01*
X138330799Y-108511989D01*
X138358050Y-108514918D01*
X138391345Y-108518499D01*
X138391362Y-108518500D01*
X140188638Y-108518500D01*
X140188654Y-108518499D01*
X140215692Y-108515591D01*
X140249201Y-108511989D01*
X140254537Y-108509999D01*
X140346076Y-108475856D01*
X140386204Y-108460889D01*
X140386204Y-108460888D01*
X140386206Y-108460888D01*
X140386207Y-108460887D01*
X140485689Y-108386415D01*
X140551153Y-108361997D01*
X140619426Y-108376848D01*
X140634311Y-108386415D01*
X140733792Y-108460887D01*
X140733793Y-108460888D01*
X140865464Y-108509999D01*
X140870799Y-108511989D01*
X140898050Y-108514918D01*
X140931345Y-108518499D01*
X140931362Y-108518500D01*
X142728638Y-108518500D01*
X142728654Y-108518499D01*
X142755692Y-108515591D01*
X142789201Y-108511989D01*
X142794537Y-108509999D01*
X142886076Y-108475856D01*
X142926204Y-108460889D01*
X142926204Y-108460888D01*
X142926206Y-108460888D01*
X142926207Y-108460887D01*
X143025689Y-108386415D01*
X143091153Y-108361997D01*
X143159426Y-108376848D01*
X143174311Y-108386415D01*
X143273792Y-108460887D01*
X143273793Y-108460888D01*
X143405464Y-108509999D01*
X143410799Y-108511989D01*
X143438050Y-108514918D01*
X143471345Y-108518499D01*
X143471362Y-108518500D01*
X145268638Y-108518500D01*
X145268654Y-108518499D01*
X145295692Y-108515591D01*
X145329201Y-108511989D01*
X145334537Y-108509999D01*
X145426076Y-108475856D01*
X145466204Y-108460889D01*
X145466204Y-108460888D01*
X145466206Y-108460888D01*
X145466207Y-108460887D01*
X145565689Y-108386415D01*
X145631153Y-108361997D01*
X145699426Y-108376848D01*
X145714311Y-108386415D01*
X145813792Y-108460887D01*
X145813793Y-108460888D01*
X145945464Y-108509999D01*
X145950799Y-108511989D01*
X145978050Y-108514918D01*
X146011345Y-108518499D01*
X146011362Y-108518500D01*
X147378500Y-108518500D01*
X147445539Y-108538185D01*
X147491294Y-108590989D01*
X147502500Y-108642500D01*
X147502500Y-108892500D01*
X147482815Y-108959539D01*
X147430011Y-109005294D01*
X147378500Y-109016500D01*
X145976345Y-109016500D01*
X145915797Y-109023011D01*
X145915795Y-109023011D01*
X145778795Y-109074111D01*
X145661739Y-109161739D01*
X145574111Y-109278795D01*
X145523011Y-109415795D01*
X145523011Y-109415797D01*
X145516500Y-109476345D01*
X145516500Y-111273654D01*
X145523011Y-111334202D01*
X145523011Y-111334204D01*
X145574111Y-111471204D01*
X145661739Y-111588261D01*
X145778796Y-111675889D01*
X145915799Y-111726989D01*
X145943050Y-111729918D01*
X145976345Y-111733499D01*
X145976362Y-111733500D01*
X147381500Y-111733500D01*
X147448539Y-111753185D01*
X147494294Y-111805989D01*
X147505500Y-111857500D01*
X147505500Y-113841877D01*
X147496855Y-113871317D01*
X147490332Y-113901304D01*
X147486577Y-113906319D01*
X147485815Y-113908916D01*
X147469181Y-113929559D01*
X147303117Y-114095622D01*
X147241794Y-114129106D01*
X147196039Y-114130413D01*
X146981916Y-114096500D01*
X146768084Y-114096500D01*
X146697684Y-114107650D01*
X146556882Y-114129951D01*
X146353519Y-114196026D01*
X146353516Y-114196027D01*
X146162990Y-114293106D01*
X145989993Y-114418796D01*
X145838796Y-114569993D01*
X145713106Y-114742990D01*
X145616027Y-114933516D01*
X145616026Y-114933519D01*
X145549951Y-115136882D01*
X145516500Y-115348084D01*
X145516500Y-115561915D01*
X145549951Y-115773117D01*
X145616026Y-115976480D01*
X145616027Y-115976483D01*
X145708917Y-116158788D01*
X145713106Y-116167009D01*
X145838794Y-116340004D01*
X145989996Y-116491206D01*
X146162991Y-116616894D01*
X146256438Y-116664507D01*
X146353516Y-116713972D01*
X146353519Y-116713973D01*
X146455200Y-116747010D01*
X146556884Y-116780049D01*
X146768084Y-116813500D01*
X146768085Y-116813500D01*
X146981915Y-116813500D01*
X146981916Y-116813500D01*
X147193116Y-116780049D01*
X147396483Y-116713972D01*
X147587009Y-116616894D01*
X147760004Y-116491206D01*
X147911206Y-116340004D01*
X148036894Y-116167009D01*
X148036896Y-116167004D01*
X148039270Y-116163132D01*
X148091080Y-116116254D01*
X148160009Y-116104829D01*
X148224173Y-116132483D01*
X148250730Y-116163132D01*
X148253103Y-116167005D01*
X148253106Y-116167009D01*
X148378794Y-116340004D01*
X148529996Y-116491206D01*
X148702991Y-116616894D01*
X148796438Y-116664507D01*
X148893516Y-116713972D01*
X148893519Y-116713973D01*
X148995200Y-116747010D01*
X149096884Y-116780049D01*
X149308084Y-116813500D01*
X149308085Y-116813500D01*
X149521915Y-116813500D01*
X149521916Y-116813500D01*
X149733116Y-116780049D01*
X149936483Y-116713972D01*
X150127009Y-116616894D01*
X150300004Y-116491206D01*
X150451206Y-116340004D01*
X150576894Y-116167009D01*
X150576896Y-116167004D01*
X150579270Y-116163132D01*
X150631080Y-116116254D01*
X150700009Y-116104829D01*
X150764173Y-116132483D01*
X150790730Y-116163132D01*
X150793103Y-116167005D01*
X150793106Y-116167009D01*
X150918794Y-116340004D01*
X151069996Y-116491206D01*
X151242991Y-116616894D01*
X151336438Y-116664507D01*
X151433516Y-116713972D01*
X151433519Y-116713973D01*
X151535200Y-116747010D01*
X151636884Y-116780049D01*
X151848084Y-116813500D01*
X151848085Y-116813500D01*
X152061915Y-116813500D01*
X152061916Y-116813500D01*
X152273116Y-116780049D01*
X152476483Y-116713972D01*
X152667009Y-116616894D01*
X152840004Y-116491206D01*
X152991206Y-116340004D01*
X153116894Y-116167009D01*
X153116896Y-116167004D01*
X153119270Y-116163132D01*
X153171080Y-116116254D01*
X153240009Y-116104829D01*
X153304173Y-116132483D01*
X153330730Y-116163132D01*
X153333103Y-116167005D01*
X153333106Y-116167009D01*
X153458794Y-116340004D01*
X153609996Y-116491206D01*
X153782991Y-116616894D01*
X153876438Y-116664507D01*
X153973516Y-116713972D01*
X153973519Y-116713973D01*
X154075200Y-116747010D01*
X154176884Y-116780049D01*
X154388084Y-116813500D01*
X154388085Y-116813500D01*
X154601915Y-116813500D01*
X154601916Y-116813500D01*
X154813116Y-116780049D01*
X155016483Y-116713972D01*
X155207009Y-116616894D01*
X155380004Y-116491206D01*
X155531206Y-116340004D01*
X155656894Y-116167009D01*
X155656896Y-116167004D01*
X155659270Y-116163132D01*
X155711080Y-116116254D01*
X155780009Y-116104829D01*
X155844173Y-116132483D01*
X155870730Y-116163132D01*
X155873103Y-116167005D01*
X155873106Y-116167009D01*
X155998794Y-116340004D01*
X156149996Y-116491206D01*
X156322991Y-116616894D01*
X156416438Y-116664507D01*
X156513516Y-116713972D01*
X156513519Y-116713973D01*
X156615200Y-116747010D01*
X156716884Y-116780049D01*
X156928084Y-116813500D01*
X156928085Y-116813500D01*
X157141915Y-116813500D01*
X157141916Y-116813500D01*
X157353116Y-116780049D01*
X157556483Y-116713972D01*
X157747009Y-116616894D01*
X157920004Y-116491206D01*
X158071206Y-116340004D01*
X158196894Y-116167009D01*
X158196896Y-116167004D01*
X158199270Y-116163132D01*
X158251080Y-116116254D01*
X158320009Y-116104829D01*
X158384173Y-116132483D01*
X158410730Y-116163132D01*
X158413103Y-116167005D01*
X158413106Y-116167009D01*
X158538794Y-116340004D01*
X158689996Y-116491206D01*
X158862991Y-116616894D01*
X158956438Y-116664507D01*
X159053516Y-116713972D01*
X159053519Y-116713973D01*
X159155200Y-116747010D01*
X159256884Y-116780049D01*
X159468084Y-116813500D01*
X159468085Y-116813500D01*
X159681915Y-116813500D01*
X159681916Y-116813500D01*
X159893116Y-116780049D01*
X160096483Y-116713972D01*
X160287009Y-116616894D01*
X160460004Y-116491206D01*
X160611206Y-116340004D01*
X160736894Y-116167009D01*
X160736896Y-116167004D01*
X160739270Y-116163132D01*
X160791080Y-116116254D01*
X160860009Y-116104829D01*
X160924173Y-116132483D01*
X160950730Y-116163132D01*
X160953103Y-116167005D01*
X160953106Y-116167009D01*
X161078794Y-116340004D01*
X161229996Y-116491206D01*
X161402991Y-116616894D01*
X161496438Y-116664507D01*
X161593516Y-116713972D01*
X161593519Y-116713973D01*
X161695200Y-116747010D01*
X161796884Y-116780049D01*
X162008084Y-116813500D01*
X162008085Y-116813500D01*
X162221915Y-116813500D01*
X162221916Y-116813500D01*
X162433116Y-116780049D01*
X162636483Y-116713972D01*
X162827009Y-116616894D01*
X163000004Y-116491206D01*
X163151206Y-116340004D01*
X163276894Y-116167009D01*
X163279283Y-116162319D01*
X163327254Y-116111522D01*
X163395074Y-116094724D01*
X163461210Y-116117258D01*
X163497201Y-116158788D01*
X163497832Y-116158402D01*
X163500164Y-116162207D01*
X163500251Y-116162308D01*
X163500376Y-116162554D01*
X163625272Y-116334459D01*
X163625276Y-116334464D01*
X163775535Y-116484723D01*
X163775540Y-116484727D01*
X163947442Y-116609620D01*
X164136782Y-116706095D01*
X164338871Y-116771757D01*
X164405000Y-116782231D01*
X164405000Y-115888012D01*
X164462007Y-115920925D01*
X164589174Y-115955000D01*
X164720826Y-115955000D01*
X164847993Y-115920925D01*
X164905000Y-115888012D01*
X164905000Y-116782230D01*
X164971126Y-116771757D01*
X164971129Y-116771757D01*
X165173217Y-116706095D01*
X165362557Y-116609620D01*
X165534459Y-116484727D01*
X165534464Y-116484723D01*
X165684723Y-116334464D01*
X165684727Y-116334459D01*
X165809620Y-116162557D01*
X165906095Y-115973217D01*
X165971757Y-115771129D01*
X165971757Y-115771126D01*
X165982231Y-115705000D01*
X165088012Y-115705000D01*
X165120925Y-115647993D01*
X165155000Y-115520826D01*
X165155000Y-115389174D01*
X165120925Y-115262007D01*
X165088012Y-115205000D01*
X165982231Y-115205000D01*
X165971757Y-115138873D01*
X165971757Y-115138870D01*
X165906095Y-114936782D01*
X165809620Y-114747442D01*
X165684727Y-114575540D01*
X165684723Y-114575535D01*
X165534464Y-114425276D01*
X165534459Y-114425272D01*
X165362557Y-114300379D01*
X165173215Y-114203903D01*
X164971124Y-114138241D01*
X164905000Y-114127768D01*
X164905000Y-115021988D01*
X164847993Y-114989075D01*
X164720826Y-114955000D01*
X164589174Y-114955000D01*
X164462007Y-114989075D01*
X164405000Y-115021988D01*
X164405000Y-114127768D01*
X164404999Y-114127768D01*
X164338875Y-114138241D01*
X164136784Y-114203903D01*
X163947442Y-114300379D01*
X163775540Y-114425272D01*
X163775535Y-114425276D01*
X163625276Y-114575535D01*
X163625272Y-114575540D01*
X163500376Y-114747446D01*
X163500374Y-114747448D01*
X163500246Y-114747701D01*
X163500172Y-114747779D01*
X163497832Y-114751598D01*
X163497029Y-114751106D01*
X163452264Y-114798489D01*
X163384441Y-114815274D01*
X163318309Y-114792727D01*
X163279285Y-114747683D01*
X163276895Y-114742992D01*
X163221784Y-114667139D01*
X163151206Y-114569996D01*
X163143916Y-114562706D01*
X163110431Y-114501383D01*
X163115415Y-114431691D01*
X163143916Y-114387344D01*
X163736441Y-113794819D01*
X163797764Y-113761334D01*
X163824122Y-113758500D01*
X166614859Y-113758500D01*
X166700444Y-113741475D01*
X166742077Y-113733194D01*
X166861917Y-113683555D01*
X166969769Y-113611491D01*
X170111490Y-110469769D01*
X170183555Y-110361917D01*
X170233194Y-110242077D01*
X170258500Y-110114857D01*
X170258500Y-100722511D01*
X170539000Y-100722511D01*
X170539000Y-101047488D01*
X170574973Y-101274618D01*
X170646039Y-101493333D01*
X170737839Y-101673500D01*
X170750440Y-101698231D01*
X170885611Y-101884278D01*
X171048222Y-102046889D01*
X171234269Y-102182060D01*
X171307210Y-102219225D01*
X171439166Y-102286460D01*
X171439168Y-102286460D01*
X171439171Y-102286462D01*
X171556404Y-102324553D01*
X171657881Y-102357526D01*
X171885012Y-102393500D01*
X171885017Y-102393500D01*
X172114988Y-102393500D01*
X172342118Y-102357526D01*
X172408712Y-102335888D01*
X172560829Y-102286462D01*
X172765731Y-102182060D01*
X172951778Y-102046889D01*
X173114389Y-101884278D01*
X173174937Y-101800940D01*
X173230264Y-101758276D01*
X173299877Y-101752297D01*
X173361672Y-101784902D01*
X173375571Y-101800941D01*
X173432097Y-101878741D01*
X173432097Y-101878742D01*
X173593757Y-102040402D01*
X173778723Y-102174788D01*
X173982429Y-102278582D01*
X174199871Y-102349234D01*
X174290000Y-102363509D01*
X174290000Y-101375747D01*
X174327708Y-101397518D01*
X174467591Y-101435000D01*
X174612409Y-101435000D01*
X174752292Y-101397518D01*
X174790000Y-101375747D01*
X174790000Y-102363508D01*
X174880128Y-102349234D01*
X175097570Y-102278582D01*
X175301276Y-102174788D01*
X175477342Y-102046869D01*
X175543149Y-102023389D01*
X175611203Y-102039214D01*
X175659898Y-102089320D01*
X175666409Y-102103852D01*
X175676611Y-102131204D01*
X175764239Y-102248261D01*
X175881296Y-102335889D01*
X175996449Y-102378839D01*
X176016947Y-102386485D01*
X176018299Y-102386989D01*
X176045550Y-102389918D01*
X176078845Y-102393499D01*
X176078862Y-102393500D01*
X178081138Y-102393500D01*
X178081154Y-102393499D01*
X178108192Y-102390591D01*
X178141701Y-102386989D01*
X178143053Y-102386485D01*
X178156268Y-102381555D01*
X178278704Y-102335889D01*
X178395761Y-102248261D01*
X178483389Y-102131204D01*
X178534489Y-101994201D01*
X178538091Y-101960692D01*
X178540999Y-101933654D01*
X178541000Y-101933637D01*
X178541000Y-99836362D01*
X178540999Y-99836345D01*
X178535997Y-99789826D01*
X178534489Y-99775799D01*
X178523559Y-99746496D01*
X178500169Y-99683784D01*
X178483389Y-99638796D01*
X178395761Y-99521739D01*
X178278704Y-99434111D01*
X178141703Y-99383011D01*
X178081154Y-99376500D01*
X178081138Y-99376500D01*
X176078862Y-99376500D01*
X176078845Y-99376500D01*
X176018297Y-99383011D01*
X176018295Y-99383011D01*
X175881295Y-99434111D01*
X175764239Y-99521739D01*
X175676611Y-99638794D01*
X175666409Y-99666148D01*
X175624536Y-99722081D01*
X175559071Y-99746496D01*
X175490799Y-99731643D01*
X175477343Y-99723130D01*
X175301279Y-99595213D01*
X175097568Y-99491417D01*
X174880124Y-99420765D01*
X174790000Y-99406490D01*
X174790000Y-100394252D01*
X174752292Y-100372482D01*
X174612409Y-100335000D01*
X174467591Y-100335000D01*
X174327708Y-100372482D01*
X174290000Y-100394252D01*
X174290000Y-99406490D01*
X174289999Y-99406490D01*
X174199875Y-99420765D01*
X173982431Y-99491417D01*
X173778723Y-99595211D01*
X173593757Y-99729597D01*
X173432097Y-99891257D01*
X173432090Y-99891266D01*
X173375570Y-99969058D01*
X173320240Y-100011724D01*
X173250627Y-100017702D01*
X173188832Y-99985096D01*
X173174935Y-99969057D01*
X173148894Y-99933215D01*
X173114389Y-99885722D01*
X172951778Y-99723111D01*
X172765731Y-99587940D01*
X172560833Y-99483539D01*
X172342118Y-99412473D01*
X172114988Y-99376500D01*
X172114983Y-99376500D01*
X171885017Y-99376500D01*
X171885012Y-99376500D01*
X171657881Y-99412473D01*
X171439166Y-99483539D01*
X171234268Y-99587940D01*
X171048219Y-99723113D01*
X170885613Y-99885719D01*
X170750440Y-100071768D01*
X170646039Y-100276666D01*
X170574973Y-100495381D01*
X170539000Y-100722511D01*
X170258500Y-100722511D01*
X170258500Y-99124121D01*
X170278185Y-99057082D01*
X170294815Y-99036444D01*
X170506872Y-98824386D01*
X170568193Y-98790903D01*
X170570266Y-98790471D01*
X170635831Y-98777430D01*
X170782968Y-98716483D01*
X170915389Y-98628003D01*
X171028003Y-98515389D01*
X171116483Y-98382968D01*
X171177430Y-98235831D01*
X171208500Y-98079630D01*
X171208500Y-97920370D01*
X171177430Y-97764169D01*
X171116483Y-97617032D01*
X171094524Y-97584168D01*
X171028004Y-97484612D01*
X171027998Y-97484605D01*
X170915394Y-97372001D01*
X170915387Y-97371995D01*
X170782969Y-97283517D01*
X170635831Y-97222570D01*
X170635823Y-97222568D01*
X170479634Y-97191500D01*
X170479630Y-97191500D01*
X170320370Y-97191500D01*
X170320365Y-97191500D01*
X170164176Y-97222568D01*
X170164168Y-97222570D01*
X170017030Y-97283517D01*
X169884612Y-97371995D01*
X169884605Y-97372001D01*
X169772001Y-97484605D01*
X169771995Y-97484612D01*
X169683517Y-97617030D01*
X169622570Y-97764168D01*
X169622568Y-97764176D01*
X169609547Y-97829637D01*
X169577162Y-97891548D01*
X169575611Y-97893127D01*
X169088513Y-98380225D01*
X169088507Y-98380232D01*
X169041041Y-98451272D01*
X169041041Y-98451273D01*
X169016443Y-98488085D01*
X169016442Y-98488087D01*
X168966807Y-98607918D01*
X168966804Y-98607928D01*
X168941500Y-98735140D01*
X168941500Y-109725878D01*
X168921815Y-109792917D01*
X168905181Y-109813559D01*
X166313559Y-112405181D01*
X166252236Y-112438666D01*
X166225878Y-112441500D01*
X163435141Y-112441500D01*
X163368049Y-112454846D01*
X163338876Y-112460649D01*
X163315607Y-112465277D01*
X163307922Y-112466806D01*
X163188086Y-112516443D01*
X163188079Y-112516447D01*
X163080228Y-112588510D01*
X161603511Y-114065227D01*
X161603505Y-114065235D01*
X161531625Y-114172810D01*
X161531626Y-114172811D01*
X161531446Y-114173080D01*
X161531441Y-114173089D01*
X161520296Y-114199994D01*
X161476453Y-114254396D01*
X161462034Y-114263021D01*
X161402988Y-114293107D01*
X161229993Y-114418796D01*
X161078796Y-114569993D01*
X160953105Y-114742991D01*
X160950727Y-114746873D01*
X160898914Y-114793748D01*
X160829984Y-114805169D01*
X160765822Y-114777512D01*
X160739273Y-114746873D01*
X160736894Y-114742991D01*
X160705659Y-114700000D01*
X160611206Y-114569996D01*
X160460004Y-114418794D01*
X160287009Y-114293106D01*
X160256856Y-114277742D01*
X160096483Y-114196027D01*
X160096480Y-114196026D01*
X159893117Y-114129951D01*
X159787516Y-114113225D01*
X159681916Y-114096500D01*
X159468084Y-114096500D01*
X159253959Y-114130413D01*
X159248534Y-114129711D01*
X159243408Y-114131624D01*
X159214252Y-114125281D01*
X159184666Y-114121458D01*
X159179062Y-114117626D01*
X159175135Y-114116772D01*
X159146881Y-114095621D01*
X159015819Y-113964559D01*
X158982334Y-113903236D01*
X158979500Y-113876878D01*
X158979500Y-111780593D01*
X158999185Y-111713554D01*
X159051989Y-111667799D01*
X159121147Y-111657855D01*
X159141814Y-111662661D01*
X159256884Y-111700049D01*
X159468084Y-111733500D01*
X159468085Y-111733500D01*
X159681915Y-111733500D01*
X159681916Y-111733500D01*
X159893116Y-111700049D01*
X160096483Y-111633972D01*
X160287009Y-111536894D01*
X160460004Y-111411206D01*
X160611206Y-111260004D01*
X160736894Y-111087009D01*
X160736896Y-111087004D01*
X160739270Y-111083132D01*
X160791080Y-111036254D01*
X160860009Y-111024829D01*
X160924173Y-111052483D01*
X160950730Y-111083132D01*
X160953103Y-111087005D01*
X160953106Y-111087009D01*
X161078794Y-111260004D01*
X161229996Y-111411206D01*
X161402991Y-111536894D01*
X161487499Y-111579953D01*
X161593516Y-111633972D01*
X161593519Y-111633973D01*
X161657309Y-111654699D01*
X161796884Y-111700049D01*
X162008084Y-111733500D01*
X162008085Y-111733500D01*
X162221915Y-111733500D01*
X162221916Y-111733500D01*
X162433116Y-111700049D01*
X162636483Y-111633972D01*
X162827009Y-111536894D01*
X163000004Y-111411206D01*
X163151206Y-111260004D01*
X163276894Y-111087009D01*
X163276896Y-111087004D01*
X163279270Y-111083132D01*
X163331080Y-111036254D01*
X163400009Y-111024829D01*
X163464173Y-111052483D01*
X163490730Y-111083132D01*
X163493103Y-111087005D01*
X163493106Y-111087009D01*
X163618794Y-111260004D01*
X163769996Y-111411206D01*
X163942991Y-111536894D01*
X164027499Y-111579953D01*
X164133516Y-111633972D01*
X164133519Y-111633973D01*
X164197309Y-111654699D01*
X164336884Y-111700049D01*
X164548084Y-111733500D01*
X164548085Y-111733500D01*
X164761915Y-111733500D01*
X164761916Y-111733500D01*
X164973116Y-111700049D01*
X165176483Y-111633972D01*
X165367009Y-111536894D01*
X165540004Y-111411206D01*
X165691206Y-111260004D01*
X165816894Y-111087009D01*
X165913972Y-110896483D01*
X165980049Y-110693116D01*
X166013500Y-110481916D01*
X166013500Y-110268084D01*
X165980049Y-110056884D01*
X165979586Y-110053960D01*
X165988541Y-109984666D01*
X166014378Y-109946881D01*
X166455487Y-109505772D01*
X166455490Y-109505769D01*
X166527555Y-109397917D01*
X166577194Y-109278077D01*
X166580208Y-109262923D01*
X166602500Y-109150857D01*
X166602500Y-108642500D01*
X166622185Y-108575461D01*
X166674989Y-108529706D01*
X166726500Y-108518500D01*
X168128638Y-108518500D01*
X168128654Y-108518499D01*
X168155692Y-108515591D01*
X168189201Y-108511989D01*
X168194537Y-108509999D01*
X168211703Y-108503596D01*
X168326204Y-108460889D01*
X168443261Y-108373261D01*
X168530889Y-108256204D01*
X168581989Y-108119201D01*
X168585591Y-108085692D01*
X168588499Y-108058654D01*
X168588500Y-108058637D01*
X168588500Y-104461362D01*
X168588499Y-104461345D01*
X168585157Y-104430270D01*
X168581989Y-104400799D01*
X168530889Y-104263796D01*
X168443261Y-104146739D01*
X168326204Y-104059111D01*
X168286074Y-104044143D01*
X168189203Y-104008011D01*
X168128654Y-104001500D01*
X168128638Y-104001500D01*
X166726500Y-104001500D01*
X166659461Y-103981815D01*
X166613706Y-103929011D01*
X166602500Y-103877500D01*
X166602500Y-99251361D01*
X166622185Y-99184322D01*
X166623398Y-99182470D01*
X166660479Y-99126974D01*
X166660479Y-99126973D01*
X166660483Y-99126968D01*
X166721430Y-98979831D01*
X166752500Y-98823630D01*
X166752500Y-98664370D01*
X166721430Y-98508169D01*
X166660483Y-98361032D01*
X166643352Y-98335394D01*
X166572004Y-98228612D01*
X166571998Y-98228605D01*
X166459394Y-98116001D01*
X166459387Y-98115995D01*
X166326969Y-98027517D01*
X166179831Y-97966570D01*
X166179823Y-97966568D01*
X166023634Y-97935500D01*
X166023630Y-97935500D01*
X165864370Y-97935500D01*
X165864365Y-97935500D01*
X165708176Y-97966568D01*
X165708168Y-97966570D01*
X165561030Y-98027517D01*
X165428612Y-98115995D01*
X165428605Y-98116001D01*
X165316001Y-98228605D01*
X165315995Y-98228612D01*
X165227517Y-98361030D01*
X165166570Y-98508168D01*
X165166568Y-98508176D01*
X165135500Y-98664365D01*
X165135500Y-98823634D01*
X165166568Y-98979823D01*
X165166570Y-98979831D01*
X165227515Y-99126964D01*
X165227520Y-99126974D01*
X165264602Y-99182470D01*
X165285480Y-99249147D01*
X165285500Y-99251361D01*
X165285500Y-103877500D01*
X165265815Y-103944539D01*
X165213011Y-103990294D01*
X165161500Y-104001500D01*
X164186500Y-104001500D01*
X164119461Y-103981815D01*
X164073706Y-103929011D01*
X164062500Y-103877500D01*
X164062500Y-98610122D01*
X164082185Y-98543083D01*
X164098819Y-98522441D01*
X165431489Y-97189771D01*
X165431491Y-97189769D01*
X165503555Y-97081917D01*
X165553194Y-96962077D01*
X165571380Y-96870649D01*
X165578500Y-96834857D01*
X165578500Y-91965313D01*
X168849500Y-91965313D01*
X168849500Y-92284687D01*
X168854603Y-92336500D01*
X168880803Y-92602522D01*
X168943109Y-92915754D01*
X169035820Y-93221382D01*
X169103759Y-93385401D01*
X169157590Y-93515361D01*
X169158040Y-93516446D01*
X169158042Y-93516451D01*
X169308584Y-93798094D01*
X169308601Y-93798122D01*
X169486012Y-94063638D01*
X169486029Y-94063661D01*
X169688638Y-94310540D01*
X169914459Y-94536361D01*
X169914464Y-94536365D01*
X169914465Y-94536366D01*
X170161344Y-94738975D01*
X170161351Y-94738980D01*
X170161361Y-94738987D01*
X170426877Y-94916398D01*
X170426882Y-94916401D01*
X170426894Y-94916409D01*
X170426903Y-94916413D01*
X170426905Y-94916415D01*
X170708548Y-95066957D01*
X170708550Y-95066957D01*
X170708556Y-95066961D01*
X171003619Y-95189180D01*
X171309240Y-95281889D01*
X171622477Y-95344196D01*
X171940313Y-95375500D01*
X171940316Y-95375500D01*
X172259684Y-95375500D01*
X172259687Y-95375500D01*
X172577523Y-95344196D01*
X172890760Y-95281889D01*
X173196381Y-95189180D01*
X173491444Y-95066961D01*
X173773106Y-94916409D01*
X174038656Y-94738975D01*
X174285535Y-94536366D01*
X174511366Y-94310535D01*
X174713975Y-94063656D01*
X174891409Y-93798106D01*
X175041961Y-93516444D01*
X175164180Y-93221381D01*
X175256889Y-92915760D01*
X175319196Y-92602523D01*
X175350500Y-92284687D01*
X175350500Y-91965313D01*
X175319196Y-91647477D01*
X175256889Y-91334240D01*
X175164180Y-91028619D01*
X175041961Y-90733556D01*
X174954340Y-90569630D01*
X174891415Y-90451905D01*
X174891413Y-90451903D01*
X174891409Y-90451894D01*
X174891398Y-90451877D01*
X174713987Y-90186361D01*
X174713980Y-90186351D01*
X174713975Y-90186344D01*
X174511366Y-89939465D01*
X174511365Y-89939464D01*
X174511361Y-89939459D01*
X174285540Y-89713638D01*
X174038661Y-89511029D01*
X174038638Y-89511012D01*
X173773122Y-89333601D01*
X173773094Y-89333584D01*
X173491451Y-89183042D01*
X173491446Y-89183040D01*
X173196382Y-89060820D01*
X172890754Y-88968109D01*
X172577521Y-88905803D01*
X172577522Y-88905803D01*
X172338141Y-88882227D01*
X172259687Y-88874500D01*
X171940313Y-88874500D01*
X171875444Y-88880889D01*
X171622477Y-88905803D01*
X171309245Y-88968109D01*
X171003617Y-89060820D01*
X170708553Y-89183040D01*
X170708548Y-89183042D01*
X170426905Y-89333584D01*
X170426877Y-89333601D01*
X170161361Y-89511012D01*
X170161338Y-89511029D01*
X169914459Y-89713638D01*
X169688638Y-89939459D01*
X169486029Y-90186338D01*
X169486012Y-90186361D01*
X169308601Y-90451877D01*
X169308584Y-90451905D01*
X169158042Y-90733548D01*
X169158040Y-90733553D01*
X169035820Y-91028617D01*
X168943109Y-91334245D01*
X168880804Y-91647477D01*
X168880803Y-91647477D01*
X168863425Y-91823928D01*
X168849500Y-91965313D01*
X165578500Y-91965313D01*
X165578500Y-89044454D01*
X165598185Y-88977415D01*
X165650989Y-88931660D01*
X165659166Y-88928273D01*
X165786204Y-88880889D01*
X165786207Y-88880887D01*
X165885689Y-88806415D01*
X165951153Y-88781997D01*
X166019426Y-88796848D01*
X166034311Y-88806415D01*
X166133792Y-88880887D01*
X166133793Y-88880888D01*
X166270794Y-88931987D01*
X166270799Y-88931989D01*
X166298050Y-88934918D01*
X166331345Y-88938499D01*
X166331362Y-88938500D01*
X168128638Y-88938500D01*
X168128654Y-88938499D01*
X168155692Y-88935591D01*
X168189201Y-88931989D01*
X168189207Y-88931987D01*
X168220363Y-88920366D01*
X168326204Y-88880889D01*
X168443261Y-88793261D01*
X168530889Y-88676204D01*
X168581989Y-88539201D01*
X168585591Y-88505692D01*
X168588499Y-88478654D01*
X168588500Y-88478637D01*
X168588500Y-84881362D01*
X168588499Y-84881345D01*
X168585157Y-84850270D01*
X168581989Y-84820799D01*
X168530889Y-84683796D01*
X168443261Y-84566739D01*
X168326204Y-84479111D01*
X168189203Y-84428011D01*
X168128654Y-84421500D01*
X168128638Y-84421500D01*
X166331362Y-84421500D01*
X166331345Y-84421500D01*
X166270797Y-84428011D01*
X166270795Y-84428011D01*
X166133795Y-84479111D01*
X166034311Y-84553585D01*
X165968846Y-84578002D01*
X165900573Y-84563150D01*
X165885689Y-84553585D01*
X165786204Y-84479111D01*
X165649203Y-84428011D01*
X165588654Y-84421500D01*
X165588638Y-84421500D01*
X163791362Y-84421500D01*
X163791345Y-84421500D01*
X163730797Y-84428011D01*
X163730795Y-84428011D01*
X163593793Y-84479111D01*
X163593793Y-84479112D01*
X163487218Y-84558893D01*
X163421754Y-84583310D01*
X163353481Y-84568458D01*
X163338597Y-84558893D01*
X163242088Y-84486646D01*
X163242086Y-84486645D01*
X163107379Y-84436403D01*
X163107372Y-84436401D01*
X163047844Y-84430000D01*
X162400000Y-84430000D01*
X162400000Y-87135439D01*
X162346853Y-87104755D01*
X162217143Y-87070000D01*
X162082857Y-87070000D01*
X161953147Y-87104755D01*
X161900000Y-87135439D01*
X161900000Y-84430000D01*
X161888310Y-84418310D01*
X161854825Y-84356987D01*
X161859809Y-84287295D01*
X161888308Y-84242950D01*
X163265490Y-82865769D01*
X163276909Y-82848678D01*
X163330519Y-82803873D01*
X163399844Y-82795164D01*
X163436308Y-82807084D01*
X163518512Y-82848970D01*
X163518519Y-82848973D01*
X163620200Y-82882010D01*
X163721884Y-82915049D01*
X163933084Y-82948500D01*
X163933085Y-82948500D01*
X164146915Y-82948500D01*
X164146916Y-82948500D01*
X164358116Y-82915049D01*
X164561483Y-82848972D01*
X164752009Y-82751894D01*
X164925004Y-82626206D01*
X165076206Y-82475004D01*
X165201894Y-82302009D01*
X165201896Y-82302004D01*
X165204270Y-82298132D01*
X165256080Y-82251254D01*
X165325009Y-82239829D01*
X165389173Y-82267483D01*
X165415730Y-82298132D01*
X165418103Y-82302005D01*
X165418106Y-82302009D01*
X165543794Y-82475004D01*
X165694996Y-82626206D01*
X165867991Y-82751894D01*
X165896553Y-82766447D01*
X166058516Y-82848972D01*
X166058519Y-82848973D01*
X166160200Y-82882010D01*
X166261884Y-82915049D01*
X166473084Y-82948500D01*
X166473085Y-82948500D01*
X166686915Y-82948500D01*
X166686916Y-82948500D01*
X166898116Y-82915049D01*
X167101483Y-82848972D01*
X167292009Y-82751894D01*
X167465004Y-82626206D01*
X167616206Y-82475004D01*
X167741894Y-82302009D01*
X167741896Y-82302004D01*
X167744270Y-82298132D01*
X167796080Y-82251254D01*
X167865009Y-82239829D01*
X167929173Y-82267483D01*
X167955730Y-82298132D01*
X167958103Y-82302005D01*
X167958106Y-82302009D01*
X168083794Y-82475004D01*
X168234996Y-82626206D01*
X168407991Y-82751894D01*
X168436553Y-82766447D01*
X168598516Y-82848972D01*
X168598519Y-82848973D01*
X168700200Y-82882010D01*
X168801884Y-82915049D01*
X169013084Y-82948500D01*
X169013085Y-82948500D01*
X169226915Y-82948500D01*
X169226916Y-82948500D01*
X169438116Y-82915049D01*
X169641483Y-82848972D01*
X169832009Y-82751894D01*
X170005004Y-82626206D01*
X170156206Y-82475004D01*
X170281894Y-82302009D01*
X170281896Y-82302004D01*
X170284270Y-82298132D01*
X170336080Y-82251254D01*
X170405009Y-82239829D01*
X170469173Y-82267483D01*
X170495730Y-82298132D01*
X170498103Y-82302005D01*
X170498106Y-82302009D01*
X170623794Y-82475004D01*
X170774996Y-82626206D01*
X170947991Y-82751894D01*
X170976553Y-82766447D01*
X171138516Y-82848972D01*
X171138519Y-82848973D01*
X171240200Y-82882010D01*
X171341884Y-82915049D01*
X171553084Y-82948500D01*
X171553085Y-82948500D01*
X171766915Y-82948500D01*
X171766916Y-82948500D01*
X171978116Y-82915049D01*
X172181483Y-82848972D01*
X172372009Y-82751894D01*
X172545004Y-82626206D01*
X172696206Y-82475004D01*
X172821894Y-82302009D01*
X172918972Y-82111483D01*
X172985049Y-81908116D01*
X173018500Y-81696916D01*
X173018500Y-81483084D01*
X172985049Y-81271884D01*
X172930332Y-81103479D01*
X172918973Y-81068519D01*
X172918972Y-81068516D01*
X172846872Y-80927013D01*
X172821894Y-80877991D01*
X172696206Y-80704996D01*
X172545004Y-80553794D01*
X172372009Y-80428106D01*
X172372010Y-80428106D01*
X172372008Y-80428105D01*
X172367311Y-80425712D01*
X172316517Y-80377735D01*
X172299724Y-80309914D01*
X172322264Y-80243780D01*
X172363790Y-80207801D01*
X172363402Y-80207168D01*
X172367229Y-80204822D01*
X172367327Y-80204738D01*
X172367560Y-80204619D01*
X172539459Y-80079727D01*
X172539464Y-80079723D01*
X172689723Y-79929464D01*
X172689727Y-79929459D01*
X172814620Y-79757557D01*
X172911095Y-79568217D01*
X172976757Y-79366129D01*
X172976757Y-79366126D01*
X172987231Y-79300000D01*
X172093012Y-79300000D01*
X172125925Y-79242993D01*
X172160000Y-79115826D01*
X172160000Y-79099108D01*
X173449500Y-79099108D01*
X173449500Y-81565892D01*
X173460888Y-81608392D01*
X173483608Y-81693187D01*
X173495053Y-81713010D01*
X173549500Y-81807314D01*
X173642686Y-81900500D01*
X173756814Y-81966392D01*
X173884108Y-82000500D01*
X173884110Y-82000500D01*
X175935890Y-82000500D01*
X175935892Y-82000500D01*
X176063186Y-81966392D01*
X176177314Y-81900500D01*
X176270500Y-81807314D01*
X176336392Y-81693186D01*
X176370500Y-81565892D01*
X176370500Y-79099108D01*
X176336392Y-78971814D01*
X176270500Y-78857686D01*
X176177314Y-78764500D01*
X176120250Y-78731554D01*
X176063187Y-78698608D01*
X175999539Y-78681554D01*
X175935892Y-78664500D01*
X174015892Y-78664500D01*
X173884108Y-78664500D01*
X173756812Y-78698608D01*
X173642686Y-78764500D01*
X173642683Y-78764502D01*
X173549502Y-78857683D01*
X173549500Y-78857686D01*
X173483608Y-78971812D01*
X173456727Y-79072135D01*
X173449500Y-79099108D01*
X172160000Y-79099108D01*
X172160000Y-78984174D01*
X172125925Y-78857007D01*
X172093012Y-78800000D01*
X172987231Y-78800000D01*
X172976757Y-78733873D01*
X172976757Y-78733870D01*
X172911095Y-78531782D01*
X172814620Y-78342442D01*
X172689727Y-78170540D01*
X172689723Y-78170535D01*
X172539464Y-78020276D01*
X172539459Y-78020272D01*
X172367557Y-77895379D01*
X172178215Y-77798903D01*
X171976124Y-77733241D01*
X171910000Y-77722768D01*
X171910000Y-78616988D01*
X171852993Y-78584075D01*
X171725826Y-78550000D01*
X171594174Y-78550000D01*
X171467007Y-78584075D01*
X171410000Y-78616988D01*
X171410000Y-77722768D01*
X171409999Y-77722768D01*
X171343875Y-77733241D01*
X171141784Y-77798903D01*
X170952442Y-77895379D01*
X170780540Y-78020272D01*
X170780535Y-78020276D01*
X170630276Y-78170535D01*
X170630272Y-78170540D01*
X170505376Y-78342446D01*
X170505374Y-78342448D01*
X170505246Y-78342701D01*
X170505172Y-78342779D01*
X170502832Y-78346598D01*
X170502029Y-78346106D01*
X170457264Y-78393489D01*
X170389441Y-78410274D01*
X170323309Y-78387727D01*
X170284285Y-78342683D01*
X170281895Y-78337992D01*
X170213694Y-78244122D01*
X170156206Y-78164996D01*
X170005004Y-78013794D01*
X169832009Y-77888106D01*
X169820196Y-77882087D01*
X169641483Y-77791027D01*
X169641480Y-77791026D01*
X169438117Y-77724951D01*
X169320769Y-77706365D01*
X169226916Y-77691500D01*
X169013084Y-77691500D01*
X168942684Y-77702650D01*
X168801882Y-77724951D01*
X168598519Y-77791026D01*
X168598516Y-77791027D01*
X168407990Y-77888106D01*
X168234993Y-78013796D01*
X168083796Y-78164993D01*
X167958105Y-78337991D01*
X167955727Y-78341873D01*
X167903914Y-78388748D01*
X167834984Y-78400169D01*
X167770822Y-78372512D01*
X167744273Y-78341873D01*
X167741894Y-78337991D01*
X167673694Y-78244122D01*
X167616206Y-78164996D01*
X167465004Y-78013794D01*
X167292009Y-77888106D01*
X167280196Y-77882087D01*
X167101483Y-77791027D01*
X167101480Y-77791026D01*
X166898117Y-77724951D01*
X166780769Y-77706365D01*
X166686916Y-77691500D01*
X166473084Y-77691500D01*
X166402684Y-77702650D01*
X166261882Y-77724951D01*
X166058519Y-77791026D01*
X166058516Y-77791027D01*
X165867990Y-77888106D01*
X165694993Y-78013796D01*
X165543796Y-78164993D01*
X165418105Y-78337991D01*
X165415727Y-78341873D01*
X165363914Y-78388748D01*
X165294984Y-78400169D01*
X165230822Y-78372512D01*
X165204273Y-78341873D01*
X165201894Y-78337991D01*
X165133694Y-78244122D01*
X165076206Y-78164996D01*
X164925004Y-78013794D01*
X164752009Y-77888106D01*
X164740196Y-77882087D01*
X164561483Y-77791027D01*
X164561480Y-77791026D01*
X164358117Y-77724951D01*
X164240769Y-77706365D01*
X164146916Y-77691500D01*
X163933084Y-77691500D01*
X163862684Y-77702650D01*
X163721882Y-77724951D01*
X163518519Y-77791026D01*
X163518516Y-77791027D01*
X163327990Y-77888106D01*
X163154993Y-78013796D01*
X163003796Y-78164993D01*
X162878105Y-78337991D01*
X162875727Y-78341873D01*
X162823914Y-78388748D01*
X162754984Y-78400169D01*
X162690822Y-78372512D01*
X162664273Y-78341873D01*
X162661894Y-78337991D01*
X162593694Y-78244122D01*
X162536206Y-78164996D01*
X162385004Y-78013794D01*
X162212009Y-77888106D01*
X162200196Y-77882087D01*
X162021483Y-77791027D01*
X162021480Y-77791026D01*
X161818117Y-77724951D01*
X161700769Y-77706365D01*
X161606916Y-77691500D01*
X161393084Y-77691500D01*
X161178960Y-77725413D01*
X161109667Y-77716458D01*
X161071882Y-77690621D01*
X159544771Y-76163510D01*
X159436920Y-76091447D01*
X159436919Y-76091446D01*
X159436917Y-76091445D01*
X159436915Y-76091444D01*
X159436913Y-76091443D01*
X159317077Y-76041806D01*
X159317071Y-76041804D01*
X159189859Y-76016500D01*
X159189857Y-76016500D01*
X144200143Y-76016500D01*
X144200141Y-76016500D01*
X144072928Y-76041804D01*
X144072922Y-76041806D01*
X143953086Y-76091443D01*
X143953079Y-76091447D01*
X143845228Y-76163510D01*
X142508510Y-77500228D01*
X142445522Y-77594499D01*
X142436442Y-77608087D01*
X142386807Y-77727918D01*
X142386804Y-77727928D01*
X142361500Y-77855140D01*
X142361500Y-80045518D01*
X142359872Y-80053697D01*
X142360789Y-80058775D01*
X142352060Y-80092972D01*
X142347769Y-80103331D01*
X142303928Y-80157734D01*
X142237633Y-80179798D01*
X142169934Y-80162518D01*
X142145533Y-80143563D01*
X142019815Y-80017845D01*
X141986333Y-79956524D01*
X141983499Y-79930166D01*
X141983499Y-79767727D01*
X141977014Y-79696355D01*
X141977011Y-79696344D01*
X141925828Y-79532090D01*
X141925827Y-79532089D01*
X141925827Y-79532087D01*
X141836816Y-79384845D01*
X141836814Y-79384843D01*
X141836813Y-79384841D01*
X141739653Y-79287681D01*
X141706168Y-79226358D01*
X141711152Y-79156666D01*
X141739653Y-79112319D01*
X141836812Y-79015159D01*
X141836813Y-79015158D01*
X141836816Y-79015155D01*
X141925827Y-78867913D01*
X141977013Y-78703649D01*
X141983500Y-78632265D01*
X141983499Y-78117736D01*
X141983499Y-78117727D01*
X141977014Y-78046354D01*
X141977011Y-78046344D01*
X141925828Y-77882090D01*
X141925827Y-77882089D01*
X141925827Y-77882087D01*
X141836816Y-77734845D01*
X141836814Y-77734843D01*
X141836813Y-77734841D01*
X141715158Y-77613186D01*
X141713444Y-77612150D01*
X141567913Y-77524173D01*
X141403649Y-77472987D01*
X141403647Y-77472986D01*
X141403645Y-77472986D01*
X141353667Y-77468444D01*
X141332265Y-77466500D01*
X141332262Y-77466500D01*
X140667727Y-77466500D01*
X140596354Y-77472985D01*
X140596344Y-77472988D01*
X140432089Y-77524171D01*
X140432085Y-77524173D01*
X140278936Y-77616754D01*
X140211381Y-77634590D01*
X140167335Y-77625198D01*
X140135835Y-77612150D01*
X140135823Y-77612147D01*
X139979634Y-77581079D01*
X139979630Y-77581079D01*
X139820370Y-77581079D01*
X139820365Y-77581079D01*
X139664176Y-77612147D01*
X139664168Y-77612149D01*
X139517030Y-77673096D01*
X139384612Y-77761574D01*
X139384605Y-77761580D01*
X139272001Y-77874184D01*
X139271995Y-77874191D01*
X139183517Y-78006609D01*
X139122570Y-78153747D01*
X139122568Y-78153755D01*
X139091500Y-78309944D01*
X139091500Y-78469213D01*
X139122568Y-78625402D01*
X139122570Y-78625410D01*
X139183517Y-78772548D01*
X139271995Y-78904966D01*
X139272001Y-78904973D01*
X139384605Y-79017577D01*
X139384612Y-79017583D01*
X139517030Y-79106061D01*
X139517031Y-79106061D01*
X139517032Y-79106062D01*
X139664169Y-79167009D01*
X139820365Y-79198078D01*
X139820369Y-79198079D01*
X139820370Y-79198079D01*
X139979631Y-79198079D01*
X139979631Y-79198078D01*
X140042270Y-79185619D01*
X140111862Y-79191846D01*
X140167039Y-79234709D01*
X140190284Y-79300598D01*
X140174217Y-79368595D01*
X140164083Y-79383696D01*
X140163189Y-79384836D01*
X140074173Y-79532086D01*
X140022986Y-79696354D01*
X140016500Y-79767737D01*
X140016500Y-80282272D01*
X140022985Y-80353645D01*
X140022988Y-80353655D01*
X140074171Y-80517909D01*
X140074172Y-80517911D01*
X140074173Y-80517913D01*
X140095864Y-80553794D01*
X140163186Y-80665158D01*
X140284841Y-80786813D01*
X140284843Y-80786814D01*
X140284845Y-80786816D01*
X140432087Y-80875827D01*
X140596351Y-80927013D01*
X140667735Y-80933500D01*
X140880165Y-80933499D01*
X140947205Y-80953183D01*
X140967847Y-80969818D01*
X141982500Y-81984470D01*
X142009380Y-82024697D01*
X142033518Y-82082971D01*
X142121995Y-82215387D01*
X142122001Y-82215394D01*
X142234605Y-82327998D01*
X142234612Y-82328004D01*
X142367030Y-82416482D01*
X142367031Y-82416482D01*
X142367032Y-82416483D01*
X142514169Y-82477430D01*
X142670365Y-82508499D01*
X142670369Y-82508500D01*
X142670370Y-82508500D01*
X142829631Y-82508500D01*
X142829632Y-82508499D01*
X142985831Y-82477430D01*
X143132968Y-82416483D01*
X143265389Y-82328003D01*
X143378003Y-82215389D01*
X143466483Y-82082968D01*
X143527430Y-81935831D01*
X143558500Y-81779630D01*
X143558500Y-81620370D01*
X143527430Y-81464169D01*
X143466483Y-81317032D01*
X143447819Y-81289100D01*
X143426942Y-81222424D01*
X143445426Y-81155043D01*
X143482032Y-81117107D01*
X143482962Y-81116485D01*
X143482968Y-81116483D01*
X143615389Y-81028003D01*
X143728003Y-80915389D01*
X143816483Y-80782968D01*
X143877430Y-80635831D01*
X143908500Y-80479630D01*
X143908500Y-80320370D01*
X143877430Y-80164169D01*
X143816483Y-80017032D01*
X143792760Y-79981528D01*
X143728004Y-79884612D01*
X143727998Y-79884605D01*
X143714819Y-79871426D01*
X143681334Y-79810103D01*
X143678500Y-79783745D01*
X143678500Y-78244122D01*
X143698185Y-78177083D01*
X143714819Y-78156441D01*
X144501441Y-77369819D01*
X144562764Y-77336334D01*
X144589122Y-77333500D01*
X158800878Y-77333500D01*
X158830318Y-77342144D01*
X158860305Y-77348668D01*
X158865320Y-77352422D01*
X158867917Y-77353185D01*
X158888559Y-77369819D01*
X158998559Y-77479819D01*
X159032044Y-77541142D01*
X159027060Y-77610834D01*
X158985188Y-77666767D01*
X158919724Y-77691184D01*
X158910878Y-77691500D01*
X158853084Y-77691500D01*
X158782684Y-77702650D01*
X158641882Y-77724951D01*
X158438519Y-77791026D01*
X158438516Y-77791027D01*
X158247990Y-77888106D01*
X158074993Y-78013796D01*
X157923796Y-78164993D01*
X157798105Y-78337991D01*
X157795727Y-78341873D01*
X157743914Y-78388748D01*
X157674984Y-78400169D01*
X157610822Y-78372512D01*
X157584273Y-78341873D01*
X157581894Y-78337991D01*
X157513694Y-78244122D01*
X157456206Y-78164996D01*
X157305004Y-78013794D01*
X157132009Y-77888106D01*
X157120196Y-77882087D01*
X156941483Y-77791027D01*
X156941480Y-77791026D01*
X156738117Y-77724951D01*
X156620769Y-77706365D01*
X156526916Y-77691500D01*
X156313084Y-77691500D01*
X156242684Y-77702650D01*
X156101882Y-77724951D01*
X155898519Y-77791026D01*
X155898516Y-77791027D01*
X155707990Y-77888106D01*
X155534993Y-78013796D01*
X155383796Y-78164993D01*
X155258106Y-78337990D01*
X155161027Y-78528516D01*
X155161026Y-78528519D01*
X155094951Y-78731882D01*
X155088510Y-78772548D01*
X155061500Y-78943084D01*
X155061500Y-79156916D01*
X155068020Y-79198079D01*
X155094951Y-79368117D01*
X155161026Y-79571480D01*
X155161027Y-79571483D01*
X155253917Y-79753788D01*
X155258106Y-79762009D01*
X155383794Y-79935004D01*
X155383796Y-79935006D01*
X155488971Y-80040181D01*
X155522456Y-80101504D01*
X155517472Y-80171196D01*
X155475600Y-80227129D01*
X155444625Y-80244043D01*
X155323795Y-80289111D01*
X155206739Y-80376739D01*
X155119111Y-80493795D01*
X155068011Y-80630795D01*
X155068011Y-80630797D01*
X155061500Y-80691345D01*
X155061500Y-82061500D01*
X155041815Y-82128539D01*
X154989011Y-82174294D01*
X154937500Y-82185500D01*
X154410066Y-82185500D01*
X154343027Y-82165815D01*
X154297272Y-82113011D01*
X154287328Y-82043853D01*
X154316353Y-81980297D01*
X154348063Y-81954114D01*
X154367314Y-81943000D01*
X154460500Y-81849814D01*
X154526392Y-81735686D01*
X154560500Y-81608392D01*
X154560500Y-79066608D01*
X154526392Y-78939314D01*
X154460500Y-78825186D01*
X154367314Y-78732000D01*
X154309478Y-78698608D01*
X154253187Y-78666108D01*
X154189539Y-78649054D01*
X154125892Y-78632000D01*
X152255892Y-78632000D01*
X152124108Y-78632000D01*
X151996812Y-78666108D01*
X151882686Y-78732000D01*
X151882683Y-78732002D01*
X151789502Y-78825183D01*
X151789500Y-78825186D01*
X151723608Y-78939312D01*
X151696402Y-79040849D01*
X151689500Y-79066608D01*
X151689500Y-81608392D01*
X151699062Y-81644079D01*
X151723608Y-81735687D01*
X151748979Y-81779630D01*
X151789500Y-81849814D01*
X151882686Y-81943000D01*
X151901935Y-81954113D01*
X151950150Y-82004681D01*
X151963372Y-82073288D01*
X151937404Y-82138152D01*
X151880490Y-82178680D01*
X151839934Y-82185500D01*
X151578121Y-82185500D01*
X151511082Y-82165815D01*
X151490440Y-82149181D01*
X149184280Y-79843019D01*
X149184279Y-79843018D01*
X149076428Y-79770955D01*
X149076427Y-79770954D01*
X149076425Y-79770953D01*
X149076423Y-79770952D01*
X149076421Y-79770951D01*
X148956585Y-79721314D01*
X148956579Y-79721312D01*
X148829367Y-79696008D01*
X148829365Y-79696008D01*
X146645213Y-79696008D01*
X146578174Y-79676323D01*
X146576323Y-79675110D01*
X146569452Y-79670519D01*
X146569437Y-79670511D01*
X146422304Y-79609566D01*
X146422296Y-79609564D01*
X146266107Y-79578496D01*
X146266103Y-79578496D01*
X146106843Y-79578496D01*
X146106838Y-79578496D01*
X145950649Y-79609564D01*
X145950641Y-79609566D01*
X145803503Y-79670513D01*
X145671085Y-79758991D01*
X145671078Y-79758997D01*
X145558474Y-79871601D01*
X145558468Y-79871608D01*
X145469990Y-80004026D01*
X145409043Y-80151164D01*
X145409041Y-80151172D01*
X145377973Y-80307361D01*
X145377973Y-80466630D01*
X145409041Y-80622819D01*
X145409043Y-80622827D01*
X145469990Y-80769965D01*
X145558468Y-80902383D01*
X145558474Y-80902390D01*
X145671078Y-81014994D01*
X145671085Y-81015000D01*
X145803503Y-81103478D01*
X145803504Y-81103478D01*
X145803505Y-81103479D01*
X145950642Y-81164426D01*
X146106838Y-81195495D01*
X146106842Y-81195496D01*
X146106843Y-81195496D01*
X146266104Y-81195496D01*
X146266105Y-81195495D01*
X146422304Y-81164426D01*
X146569441Y-81103479D01*
X146650486Y-81049327D01*
X146673566Y-81033906D01*
X146740243Y-81013028D01*
X146742456Y-81013008D01*
X148440386Y-81013008D01*
X148507425Y-81032693D01*
X148528067Y-81049327D01*
X149644556Y-82165815D01*
X150742510Y-83263769D01*
X150834231Y-83355490D01*
X150942083Y-83427555D01*
X150942084Y-83427555D01*
X150942085Y-83427556D01*
X150942087Y-83427557D01*
X151061918Y-83477192D01*
X151061923Y-83477194D01*
X151061927Y-83477194D01*
X151061928Y-83477195D01*
X151189140Y-83502500D01*
X151189143Y-83502500D01*
X157738859Y-83502500D01*
X157824444Y-83485475D01*
X157866077Y-83477194D01*
X157985917Y-83427555D01*
X157985922Y-83427551D01*
X157991289Y-83424683D01*
X157991553Y-83425178D01*
X158002674Y-83419224D01*
X158021266Y-83411522D01*
X158042917Y-83402555D01*
X158150769Y-83330491D01*
X158531881Y-82949377D01*
X158593204Y-82915893D01*
X158638960Y-82914586D01*
X158730802Y-82929132D01*
X158853084Y-82948500D01*
X158853085Y-82948500D01*
X159066915Y-82948500D01*
X159066916Y-82948500D01*
X159278116Y-82915049D01*
X159481483Y-82848972D01*
X159672009Y-82751894D01*
X159845004Y-82626206D01*
X159996206Y-82475004D01*
X160121894Y-82302009D01*
X160121896Y-82302004D01*
X160124270Y-82298132D01*
X160176080Y-82251254D01*
X160245009Y-82239829D01*
X160309173Y-82267483D01*
X160335730Y-82298132D01*
X160338103Y-82302005D01*
X160338106Y-82302009D01*
X160463794Y-82475004D01*
X160614996Y-82626206D01*
X160787991Y-82751894D01*
X160816553Y-82766447D01*
X160978516Y-82848972D01*
X160978522Y-82848974D01*
X161119110Y-82894653D01*
X161176786Y-82934090D01*
X161203985Y-82998448D01*
X161192071Y-83067295D01*
X161168474Y-83100265D01*
X160358511Y-83910227D01*
X160358510Y-83910228D01*
X160329001Y-83954393D01*
X160313226Y-83978003D01*
X160309758Y-83983193D01*
X160309757Y-83983194D01*
X160286445Y-84018083D01*
X160286443Y-84018084D01*
X160236807Y-84137918D01*
X160236804Y-84137928D01*
X160211500Y-84265140D01*
X160211500Y-84297500D01*
X160191815Y-84364539D01*
X160139011Y-84410294D01*
X160087500Y-84421500D01*
X158711345Y-84421500D01*
X158650797Y-84428011D01*
X158650795Y-84428011D01*
X158513795Y-84479111D01*
X158414311Y-84553585D01*
X158348846Y-84578002D01*
X158280573Y-84563150D01*
X158265689Y-84553585D01*
X158166204Y-84479111D01*
X158029203Y-84428011D01*
X157968654Y-84421500D01*
X157968638Y-84421500D01*
X156171362Y-84421500D01*
X156171345Y-84421500D01*
X156110797Y-84428011D01*
X156110795Y-84428011D01*
X155973795Y-84479111D01*
X155874311Y-84553585D01*
X155808846Y-84578002D01*
X155740573Y-84563150D01*
X155725689Y-84553585D01*
X155626204Y-84479111D01*
X155489203Y-84428011D01*
X155428654Y-84421500D01*
X155428638Y-84421500D01*
X153631362Y-84421500D01*
X153631345Y-84421500D01*
X153570797Y-84428011D01*
X153570795Y-84428011D01*
X153433795Y-84479111D01*
X153334311Y-84553585D01*
X153268846Y-84578002D01*
X153200573Y-84563150D01*
X153185689Y-84553585D01*
X153086204Y-84479111D01*
X152949203Y-84428011D01*
X152888654Y-84421500D01*
X152888638Y-84421500D01*
X151091362Y-84421500D01*
X151091345Y-84421500D01*
X151030797Y-84428011D01*
X151030795Y-84428011D01*
X150893793Y-84479111D01*
X150893793Y-84479112D01*
X150787218Y-84558893D01*
X150721754Y-84583310D01*
X150653481Y-84568458D01*
X150638597Y-84558893D01*
X150542088Y-84486646D01*
X150542086Y-84486645D01*
X150407379Y-84436403D01*
X150407372Y-84436401D01*
X150347844Y-84430000D01*
X149700000Y-84430000D01*
X149700000Y-87135439D01*
X149646853Y-87104755D01*
X149517143Y-87070000D01*
X149382857Y-87070000D01*
X149253147Y-87104755D01*
X149200000Y-87135439D01*
X149200000Y-84430000D01*
X148552155Y-84430000D01*
X148492627Y-84436401D01*
X148492620Y-84436403D01*
X148357913Y-84486645D01*
X148357910Y-84486647D01*
X148261402Y-84558893D01*
X148195937Y-84583310D01*
X148127664Y-84568458D01*
X148112780Y-84558893D01*
X148006204Y-84479111D01*
X147869203Y-84428011D01*
X147808654Y-84421500D01*
X147808638Y-84421500D01*
X146011362Y-84421500D01*
X146011345Y-84421500D01*
X145950798Y-84428010D01*
X145834895Y-84471241D01*
X145765203Y-84476225D01*
X145703880Y-84442740D01*
X145670395Y-84381417D01*
X145675379Y-84311726D01*
X145703875Y-84267383D01*
X145926443Y-84044816D01*
X145987764Y-84011334D01*
X146014122Y-84008500D01*
X148092638Y-84008500D01*
X148159677Y-84028185D01*
X148161528Y-84029397D01*
X148217032Y-84066483D01*
X148364169Y-84127430D01*
X148520365Y-84158499D01*
X148520369Y-84158500D01*
X148520370Y-84158500D01*
X148679631Y-84158500D01*
X148679632Y-84158499D01*
X148835831Y-84127430D01*
X148982968Y-84066483D01*
X149115389Y-83978003D01*
X149228003Y-83865389D01*
X149316483Y-83732968D01*
X149377430Y-83585831D01*
X149408500Y-83429630D01*
X149408500Y-83270370D01*
X149377430Y-83114169D01*
X149316483Y-82967032D01*
X149304100Y-82948500D01*
X149228004Y-82834612D01*
X149227998Y-82834605D01*
X149115394Y-82722001D01*
X149115387Y-82721995D01*
X148982969Y-82633517D01*
X148835831Y-82572570D01*
X148835823Y-82572568D01*
X148679634Y-82541500D01*
X148679630Y-82541500D01*
X148520370Y-82541500D01*
X148520365Y-82541500D01*
X148364176Y-82572568D01*
X148364168Y-82572570D01*
X148217033Y-82633516D01*
X148161528Y-82670603D01*
X148094850Y-82691480D01*
X148092638Y-82691500D01*
X145625141Y-82691500D01*
X145497928Y-82716804D01*
X145497922Y-82716806D01*
X145378086Y-82766443D01*
X145378079Y-82766447D01*
X145270228Y-82838510D01*
X143858510Y-84250228D01*
X143800140Y-84337585D01*
X143800141Y-84337586D01*
X143786445Y-84358083D01*
X143786444Y-84358085D01*
X143783062Y-84363147D01*
X143781528Y-84362122D01*
X143738606Y-84405806D01*
X143678225Y-84421500D01*
X143471345Y-84421500D01*
X143410797Y-84428011D01*
X143410795Y-84428011D01*
X143273795Y-84479111D01*
X143174311Y-84553585D01*
X143108846Y-84578002D01*
X143040573Y-84563150D01*
X143025689Y-84553585D01*
X142926204Y-84479111D01*
X142789203Y-84428011D01*
X142728654Y-84421500D01*
X142728638Y-84421500D01*
X140931362Y-84421500D01*
X140931345Y-84421500D01*
X140870797Y-84428011D01*
X140870795Y-84428011D01*
X140733795Y-84479111D01*
X140634311Y-84553585D01*
X140568846Y-84578002D01*
X140500573Y-84563150D01*
X140485689Y-84553585D01*
X140386204Y-84479111D01*
X140249203Y-84428011D01*
X140188654Y-84421500D01*
X140188638Y-84421500D01*
X140122500Y-84421500D01*
X140055461Y-84401815D01*
X140009706Y-84349011D01*
X139998500Y-84297500D01*
X139998500Y-84220218D01*
X139998499Y-84220214D01*
X139982131Y-84137928D01*
X139971273Y-84083338D01*
X139944243Y-84018083D01*
X139917865Y-83954399D01*
X139917864Y-83954397D01*
X139917863Y-83954395D01*
X139840328Y-83838358D01*
X139840325Y-83838354D01*
X138051646Y-82049674D01*
X138051638Y-82049668D01*
X137935603Y-81972136D01*
X137935599Y-81972134D01*
X137908896Y-81961073D01*
X137844427Y-81934369D01*
X137844426Y-81934368D01*
X137806664Y-81918727D01*
X137806658Y-81918725D01*
X137738221Y-81905113D01*
X137669785Y-81891500D01*
X137669782Y-81891500D01*
X137669781Y-81891500D01*
X135730219Y-81891500D01*
X135730214Y-81891500D01*
X135593345Y-81918725D01*
X135593337Y-81918727D01*
X135555235Y-81934510D01*
X135555234Y-81934510D01*
X135464406Y-81972131D01*
X135464393Y-81972138D01*
X135348358Y-82049671D01*
X135348354Y-82049674D01*
X133659674Y-83738353D01*
X133659671Y-83738357D01*
X133582136Y-83854395D01*
X133582135Y-83854398D01*
X133549348Y-83933554D01*
X133549348Y-83933555D01*
X133528727Y-83983337D01*
X133528725Y-83983345D01*
X133501500Y-84120214D01*
X133501500Y-84297500D01*
X133481815Y-84364539D01*
X133429011Y-84410294D01*
X133377500Y-84421500D01*
X133311345Y-84421500D01*
X133250797Y-84428011D01*
X133250795Y-84428011D01*
X133113795Y-84479111D01*
X133014311Y-84553585D01*
X132948846Y-84578002D01*
X132880573Y-84563150D01*
X132865689Y-84553585D01*
X132766204Y-84479111D01*
X132629203Y-84428011D01*
X132568654Y-84421500D01*
X132568638Y-84421500D01*
X130771362Y-84421500D01*
X130771345Y-84421500D01*
X130710797Y-84428011D01*
X130710795Y-84428011D01*
X130573795Y-84479111D01*
X130474311Y-84553585D01*
X130408846Y-84578002D01*
X130340573Y-84563150D01*
X130325689Y-84553585D01*
X130226204Y-84479111D01*
X130089203Y-84428011D01*
X130028654Y-84421500D01*
X130028638Y-84421500D01*
X128231362Y-84421500D01*
X128231345Y-84421500D01*
X128170797Y-84428011D01*
X128170795Y-84428011D01*
X128033795Y-84479111D01*
X127934311Y-84553585D01*
X127868846Y-84578002D01*
X127800573Y-84563150D01*
X127785689Y-84553585D01*
X127686204Y-84479111D01*
X127549203Y-84428011D01*
X127488654Y-84421500D01*
X127488638Y-84421500D01*
X127422500Y-84421500D01*
X127355461Y-84401815D01*
X127309706Y-84349011D01*
X127298500Y-84297500D01*
X127298500Y-83104832D01*
X127318185Y-83037793D01*
X127334819Y-83017151D01*
X129907151Y-80444819D01*
X129968474Y-80411334D01*
X129994832Y-80408500D01*
X136073094Y-80408500D01*
X136120547Y-80417939D01*
X136264169Y-80477430D01*
X136420365Y-80508499D01*
X136420369Y-80508500D01*
X136420370Y-80508500D01*
X136579631Y-80508500D01*
X136579632Y-80508499D01*
X136735831Y-80477430D01*
X136882968Y-80416483D01*
X137015389Y-80328003D01*
X137128003Y-80215389D01*
X137216483Y-80082968D01*
X137277430Y-79935831D01*
X137308500Y-79779630D01*
X137308500Y-79620370D01*
X137277430Y-79464169D01*
X137216483Y-79317032D01*
X137205502Y-79300598D01*
X137128004Y-79184612D01*
X137127998Y-79184605D01*
X137015394Y-79072001D01*
X137015387Y-79071995D01*
X136882969Y-78983517D01*
X136735831Y-78922570D01*
X136735823Y-78922568D01*
X136579634Y-78891500D01*
X136579630Y-78891500D01*
X136420370Y-78891500D01*
X136420365Y-78891500D01*
X136264176Y-78922568D01*
X136264168Y-78922570D01*
X136120547Y-78982061D01*
X136073094Y-78991500D01*
X129580214Y-78991500D01*
X129443345Y-79018724D01*
X129443341Y-79018726D01*
X129443339Y-79018726D01*
X129443338Y-79018727D01*
X129415362Y-79030315D01*
X129389928Y-79040850D01*
X129314401Y-79072134D01*
X129314397Y-79072136D01*
X129198362Y-79149668D01*
X129198354Y-79149674D01*
X126039674Y-82308353D01*
X126039671Y-82308357D01*
X125962136Y-82424395D01*
X125962135Y-82424398D01*
X125908728Y-82553335D01*
X125908725Y-82553347D01*
X125882301Y-82686193D01*
X125882298Y-82686210D01*
X125881500Y-82690217D01*
X125881500Y-84297500D01*
X125861815Y-84364539D01*
X125809011Y-84410294D01*
X125757500Y-84421500D01*
X125691345Y-84421500D01*
X125630797Y-84428011D01*
X125630795Y-84428011D01*
X125493793Y-84479111D01*
X125493793Y-84479112D01*
X125387218Y-84558893D01*
X125321754Y-84583310D01*
X125253481Y-84568458D01*
X125238597Y-84558893D01*
X125142088Y-84486646D01*
X125142086Y-84486645D01*
X125007379Y-84436403D01*
X125007372Y-84436401D01*
X124947844Y-84430000D01*
X124300000Y-84430000D01*
X124300000Y-87135439D01*
X124246853Y-87104755D01*
X124117143Y-87070000D01*
X123982857Y-87070000D01*
X123853147Y-87104755D01*
X123800000Y-87135439D01*
X123800000Y-84430000D01*
X123152155Y-84430000D01*
X123092627Y-84436401D01*
X123092620Y-84436403D01*
X122957913Y-84486645D01*
X122957910Y-84486647D01*
X122861402Y-84558893D01*
X122840315Y-84566757D01*
X122821308Y-84578812D01*
X122808208Y-84578732D01*
X122795937Y-84583310D01*
X122773945Y-84578525D01*
X122751439Y-84578390D01*
X122734841Y-84570019D01*
X122727664Y-84568458D01*
X122719424Y-84563535D01*
X122716018Y-84561317D01*
X122606204Y-84479111D01*
X122567770Y-84464776D01*
X122556280Y-84457293D01*
X122542116Y-84440746D01*
X122524678Y-84427692D01*
X122519842Y-84414726D01*
X122510844Y-84404214D01*
X122507874Y-84382635D01*
X122500263Y-84362227D01*
X122503204Y-84348705D01*
X122501318Y-84334997D01*
X122510485Y-84315239D01*
X122515116Y-84293954D01*
X122528911Y-84275527D01*
X122530725Y-84271618D01*
X122532843Y-84270274D01*
X122536260Y-84265710D01*
X125121572Y-81680397D01*
X125182895Y-81646913D01*
X125209253Y-81644079D01*
X125247515Y-81644079D01*
X125294968Y-81653518D01*
X125438590Y-81713009D01*
X125594786Y-81744078D01*
X125594790Y-81744079D01*
X125594791Y-81744079D01*
X125754052Y-81744079D01*
X125754053Y-81744078D01*
X125910252Y-81713009D01*
X126057389Y-81652062D01*
X126189810Y-81563582D01*
X126302424Y-81450968D01*
X126390904Y-81318547D01*
X126451851Y-81171410D01*
X126482921Y-81015209D01*
X126482921Y-80855949D01*
X126451851Y-80699748D01*
X126390904Y-80552611D01*
X126361430Y-80508500D01*
X126302425Y-80420191D01*
X126302419Y-80420184D01*
X126189815Y-80307580D01*
X126189808Y-80307574D01*
X126057390Y-80219096D01*
X125910252Y-80158149D01*
X125910244Y-80158147D01*
X125754055Y-80127079D01*
X125754051Y-80127079D01*
X125594791Y-80127079D01*
X125594786Y-80127079D01*
X125438597Y-80158147D01*
X125438589Y-80158149D01*
X125294968Y-80217640D01*
X125247515Y-80227079D01*
X124794635Y-80227079D01*
X124657766Y-80254303D01*
X124657762Y-80254305D01*
X124657760Y-80254305D01*
X124657759Y-80254306D01*
X124616833Y-80271258D01*
X124604349Y-80276429D01*
X124528822Y-80307713D01*
X124528818Y-80307715D01*
X124412783Y-80385247D01*
X124412775Y-80385253D01*
X120959674Y-83838353D01*
X120959671Y-83838356D01*
X120882138Y-83954393D01*
X120882133Y-83954402D01*
X120855756Y-84018084D01*
X120828728Y-84083333D01*
X120828725Y-84083345D01*
X120801500Y-84220214D01*
X120801500Y-84297500D01*
X120781815Y-84364539D01*
X120729011Y-84410294D01*
X120677500Y-84421500D01*
X120611345Y-84421500D01*
X120550797Y-84428011D01*
X120550795Y-84428011D01*
X120413795Y-84479111D01*
X120314311Y-84553585D01*
X120248846Y-84578002D01*
X120180573Y-84563150D01*
X120165689Y-84553585D01*
X120066204Y-84479111D01*
X119929203Y-84428011D01*
X119868654Y-84421500D01*
X119868638Y-84421500D01*
X118071362Y-84421500D01*
X118071345Y-84421500D01*
X118010797Y-84428011D01*
X118010795Y-84428011D01*
X117873795Y-84479111D01*
X117756739Y-84566739D01*
X117669111Y-84683795D01*
X117618011Y-84820795D01*
X117618011Y-84820797D01*
X117611500Y-84881345D01*
X117326052Y-84881345D01*
X117325806Y-84466526D01*
X117326046Y-84458758D01*
X117327043Y-84442740D01*
X117337008Y-84282677D01*
X117338943Y-84267260D01*
X117371142Y-84097737D01*
X117374991Y-84082697D01*
X117428161Y-83918543D01*
X117433866Y-83904092D01*
X117508827Y-83744354D01*
X117512317Y-83737484D01*
X121478704Y-76503448D01*
X121478710Y-76503442D01*
X121488770Y-76485094D01*
X121538259Y-76435773D01*
X121606557Y-76421038D01*
X121671980Y-76445567D01*
X121713756Y-76501572D01*
X121721500Y-76544707D01*
X121721500Y-76729051D01*
X121752487Y-76924700D01*
X121813703Y-77113101D01*
X121862618Y-77209100D01*
X121903634Y-77289598D01*
X122020070Y-77449858D01*
X122160142Y-77589930D01*
X122320402Y-77706366D01*
X122362710Y-77727923D01*
X122496898Y-77796296D01*
X122496900Y-77796296D01*
X122496903Y-77796298D01*
X122562193Y-77817512D01*
X122685299Y-77857512D01*
X122880949Y-77888500D01*
X122880954Y-77888500D01*
X123079051Y-77888500D01*
X123274700Y-77857512D01*
X123315288Y-77844324D01*
X123463097Y-77796298D01*
X123639598Y-77706366D01*
X123799858Y-77589930D01*
X123939930Y-77449858D01*
X124056366Y-77289598D01*
X124146298Y-77113097D01*
X124207512Y-76924700D01*
X124213847Y-76884700D01*
X124238500Y-76729051D01*
X124238500Y-76530948D01*
X124207512Y-76335299D01*
X124151694Y-76163510D01*
X124146298Y-76146903D01*
X124146296Y-76146900D01*
X124146296Y-76146898D01*
X124056365Y-75970401D01*
X123997971Y-75890029D01*
X123964607Y-75844107D01*
X123941128Y-75778302D01*
X123956953Y-75710249D01*
X124007059Y-75661554D01*
X124064592Y-75647223D01*
X176897333Y-75506475D01*
X176903360Y-75506606D01*
G37*
%TD.AperFunction*%
%TD*%
M02*
