%TF.GenerationSoftware,KiCad,Pcbnew,9.0.9-9.0.9~ubuntu24.04.1*%
%TF.CreationDate,2026-07-09T23:06:26+02:00*%
%TF.ProjectId,MicroPicoDrive,4d696372-6f50-4696-936f-44726976652e,1.4.h*%
%TF.SameCoordinates,Original*%
%TF.FileFunction,Copper,L1,Top*%
%TF.FilePolarity,Positive*%
%FSLAX46Y46*%
G04 Gerber Fmt 4.6, Leading zero omitted, Abs format (unit mm)*
G04 Created by KiCad (PCBNEW 9.0.9-9.0.9~ubuntu24.04.1) date 2026-07-09 23:06:26*
%MOMM*%
%LPD*%
G01*
G04 APERTURE LIST*
G04 Aperture macros list*
%AMRoundRect*
0 Rectangle with rounded corners*
0 $1 Rounding radius*
0 $2 $3 $4 $5 $6 $7 $8 $9 X,Y pos of 4 corners*
0 Add a 4 corners polygon primitive as box body*
4,1,4,$2,$3,$4,$5,$6,$7,$8,$9,$2,$3,0*
0 Add four circle primitives for the rounded corners*
1,1,$1+$1,$2,$3*
1,1,$1+$1,$4,$5*
1,1,$1+$1,$6,$7*
1,1,$1+$1,$8,$9*
0 Add four rect primitives between the rounded corners*
20,1,$1+$1,$2,$3,$4,$5,0*
20,1,$1+$1,$4,$5,$6,$7,0*
20,1,$1+$1,$6,$7,$8,$9,0*
20,1,$1+$1,$8,$9,$2,$3,0*%
G04 Aperture macros list end*
%TA.AperFunction,SMDPad,CuDef*%
%ADD10RoundRect,0.225000X-0.225000X-0.250000X0.225000X-0.250000X0.225000X0.250000X-0.225000X0.250000X0*%
%TD*%
%TA.AperFunction,SMDPad,CuDef*%
%ADD11RoundRect,0.225000X0.225000X0.250000X-0.225000X0.250000X-0.225000X-0.250000X0.225000X-0.250000X0*%
%TD*%
%TA.AperFunction,SMDPad,CuDef*%
%ADD12R,1.200000X0.600000*%
%TD*%
%TA.AperFunction,SMDPad,CuDef*%
%ADD13RoundRect,0.225000X-0.250000X0.225000X-0.250000X-0.225000X0.250000X-0.225000X0.250000X0.225000X0*%
%TD*%
%TA.AperFunction,ComponentPad*%
%ADD14C,1.600000*%
%TD*%
%TA.AperFunction,ComponentPad*%
%ADD15R,1.700000X1.700000*%
%TD*%
%TA.AperFunction,ComponentPad*%
%ADD16O,1.700000X1.700000*%
%TD*%
%TA.AperFunction,SMDPad,CuDef*%
%ADD17RoundRect,0.250000X-1.000000X-0.900000X1.000000X-0.900000X1.000000X0.900000X-1.000000X0.900000X0*%
%TD*%
%TA.AperFunction,ComponentPad*%
%ADD18R,1.905000X2.000000*%
%TD*%
%TA.AperFunction,ComponentPad*%
%ADD19O,1.905000X2.000000*%
%TD*%
%TA.AperFunction,ComponentPad*%
%ADD20C,1.440000*%
%TD*%
%TA.AperFunction,SMDPad,CuDef*%
%ADD21RoundRect,0.200000X0.275000X-0.200000X0.275000X0.200000X-0.275000X0.200000X-0.275000X-0.200000X0*%
%TD*%
%TA.AperFunction,SMDPad,CuDef*%
%ADD22R,1.475000X0.450000*%
%TD*%
%TA.AperFunction,ComponentPad*%
%ADD23C,1.700000*%
%TD*%
%TA.AperFunction,ComponentPad*%
%ADD24RoundRect,0.250000X-0.350000X-0.350000X0.350000X-0.350000X0.350000X0.350000X-0.350000X0.350000X0*%
%TD*%
%TA.AperFunction,ComponentPad*%
%ADD25C,1.200000*%
%TD*%
%TA.AperFunction,ViaPad*%
%ADD26C,0.600000*%
%TD*%
%TA.AperFunction,ViaPad*%
%ADD27C,0.800000*%
%TD*%
%TA.AperFunction,Conductor*%
%ADD28C,0.300000*%
%TD*%
%TA.AperFunction,Conductor*%
%ADD29C,0.500000*%
%TD*%
%TA.AperFunction,Conductor*%
%ADD30C,0.400000*%
%TD*%
%TA.AperFunction,Conductor*%
%ADD31C,0.350000*%
%TD*%
G04 APERTURE END LIST*
D10*
%TO.P,C2,1*%
%TO.N,+5V*%
X148475000Y-95470000D03*
%TO.P,C2,2*%
%TO.N,GND*%
X150025000Y-95470000D03*
%TD*%
D11*
%TO.P,C4,1*%
%TO.N,+3V3*%
X140875000Y-100900000D03*
%TO.P,C4,2*%
%TO.N,GND*%
X139325000Y-100900000D03*
%TD*%
D12*
%TO.P,IC2,1,VCCA*%
%TO.N,+5V*%
X146020000Y-100820000D03*
%TO.P,IC2,2,GND*%
%TO.N,GND*%
X146020000Y-99870000D03*
%TO.P,IC2,3,A*%
%TO.N,/QL_HEAD2*%
X146020000Y-98920000D03*
%TO.P,IC2,4,B*%
%TO.N,/PICO_HEAD2*%
X143520000Y-98920000D03*
%TO.P,IC2,5,DIR*%
%TO.N,/HEAD_DIR*%
X143520000Y-99870000D03*
%TO.P,IC2,6,VCCB*%
%TO.N,+3V3*%
X143520000Y-100820000D03*
%TD*%
D13*
%TO.P,C1,1*%
%TO.N,+5V*%
X148400000Y-101035000D03*
%TO.P,C1,2*%
%TO.N,GND*%
X148400000Y-102585000D03*
%TD*%
%TO.P,C5,1*%
%TO.N,+3V3*%
X140900000Y-95415000D03*
%TO.P,C5,2*%
%TO.N,GND*%
X140900000Y-96965000D03*
%TD*%
D12*
%TO.P,IC1,1,VCCA*%
%TO.N,+5V*%
X146020000Y-95250000D03*
%TO.P,IC1,2,GND*%
%TO.N,GND*%
X146020000Y-94300000D03*
%TO.P,IC1,3,A*%
%TO.N,/QL_HEAD1*%
X146020000Y-93350000D03*
%TO.P,IC1,4,B*%
%TO.N,/PICO_HEAD1*%
X143520000Y-93350000D03*
%TO.P,IC1,5,DIR*%
%TO.N,/HEAD_DIR*%
X143520000Y-94300000D03*
%TO.P,IC1,6,VCCB*%
%TO.N,+3V3*%
X143520000Y-95250000D03*
%TD*%
D14*
%TO.P,R3,1*%
%TO.N,Net-(R3-Pad1)*%
X135790000Y-123080000D03*
%TO.P,R3,2*%
%TO.N,Net-(C7-Pad1)*%
X135790000Y-112920000D03*
%TD*%
D15*
%TO.P,J2,1,Pin_1*%
%TO.N,unconnected-(J2-Pin_1-Pad1)*%
X156420000Y-81590000D03*
D16*
%TO.P,J2,2,Pin_2*%
%TO.N,/QL_CS_IN*%
X156420000Y-79050000D03*
%TO.P,J2,3,Pin_3*%
%TO.N,/QL_R{slash}~{W}*%
X158960000Y-81590000D03*
%TO.P,J2,4,Pin_4*%
%TO.N,/QL_CS_OUT*%
X158960000Y-79050000D03*
%TO.P,J2,5,Pin_5*%
%TO.N,unconnected-(J2-Pin_5-Pad5)*%
X161500000Y-81590000D03*
%TO.P,J2,6,Pin_6*%
%TO.N,/QL_CS_CK*%
X161500000Y-79050000D03*
%TO.P,J2,7,Pin_7*%
%TO.N,/QL2PICO_ERASE*%
X164040000Y-81590000D03*
%TO.P,J2,8,Pin_8*%
%TO.N,/QL_HEAD1*%
X164040000Y-79050000D03*
%TO.P,J2,9,Pin_9*%
%TO.N,unconnected-(J2-Pin_9-Pad9)*%
X166580000Y-81590000D03*
%TO.P,J2,10,Pin_10*%
%TO.N,/QL_HEAD2*%
X166580000Y-79050000D03*
%TO.P,J2,11,Pin_11*%
%TO.N,unconnected-(J2-Pin_11-Pad11)*%
X169120000Y-81590000D03*
%TO.P,J2,12,Pin_12*%
%TO.N,+9V*%
X169120000Y-79050000D03*
%TO.P,J2,13,Pin_13*%
%TO.N,unconnected-(J2-Pin_13-Pad13)*%
X171660000Y-81590000D03*
%TO.P,J2,14,Pin_14*%
%TO.N,GND*%
X171660000Y-79050000D03*
%TD*%
D10*
%TO.P,C3,1*%
%TO.N,+5V*%
X144425000Y-84200000D03*
%TO.P,C3,2*%
%TO.N,GND*%
X145975000Y-84200000D03*
%TD*%
D17*
%TO.P,D1,1,K*%
%TO.N,Net-(D1-K)*%
X126962500Y-101180000D03*
%TO.P,D1,2,A*%
%TO.N,+5V*%
X131262500Y-101180000D03*
%TD*%
D18*
%TO.P,U1,1,VI*%
%TO.N,+9V*%
X177080000Y-100885000D03*
D19*
%TO.P,U1,2,GND*%
%TO.N,GND*%
X174540000Y-100885000D03*
%TO.P,U1,3,VO*%
%TO.N,+5V*%
X172000000Y-100885000D03*
%TD*%
D11*
%TO.P,C6,1*%
%TO.N,+3V3*%
X138775000Y-84200000D03*
%TO.P,C6,2*%
%TO.N,GND*%
X137225000Y-84200000D03*
%TD*%
D20*
%TO.P,RV1,1,1*%
%TO.N,GND*%
X137290000Y-127360000D03*
%TO.P,RV1,2,2*%
%TO.N,Net-(R3-Pad1)*%
X134750000Y-127360000D03*
%TO.P,RV1,3,3*%
%TO.N,Net-(Q1-E)*%
X132210000Y-127360000D03*
%TD*%
D15*
%TO.P,J1,1,Pin_1*%
%TO.N,+3V3*%
X146875000Y-110375000D03*
D16*
%TO.P,J1,2,Pin_2*%
%TO.N,/UI_LD_READ*%
X146875000Y-115455000D03*
%TO.P,J1,3,Pin_3*%
%TO.N,GND*%
X149415000Y-110375000D03*
%TO.P,J1,4,Pin_4*%
%TO.N,/UI_LD_WRITE*%
X149415000Y-115455000D03*
%TO.P,J1,5,Pin_5*%
%TO.N,/UI_SCR_SDA*%
X151955000Y-110375000D03*
%TO.P,J1,6,Pin_6*%
%TO.N,/UI_SD_CS*%
X151955000Y-115455000D03*
%TO.P,J1,7,Pin_7*%
%TO.N,/UI_SCR_SCL*%
X154495000Y-110375000D03*
%TO.P,J1,8,Pin_8*%
%TO.N,/UI_SD_SCK*%
X154495000Y-115455000D03*
%TO.P,J1,9,Pin_9*%
%TO.N,/UI_BTN_BACK*%
X157035000Y-110375000D03*
%TO.P,J1,10,Pin_10*%
%TO.N,/UI_SD_MISO*%
X157035000Y-115455000D03*
%TO.P,J1,11,Pin_11*%
%TO.N,/UI_BTN_NEXT*%
X159575000Y-110375000D03*
%TO.P,J1,12,Pin_12*%
%TO.N,/UI_SD_MOSI*%
X159575000Y-115455000D03*
%TO.P,J1,13,Pin_13*%
%TO.N,/UI_BTN_SELECT*%
X162115000Y-110375000D03*
%TO.P,J1,14,Pin_14*%
%TO.N,/UI_DETECT*%
X162115000Y-115455000D03*
%TO.P,J1,15,Pin_15*%
%TO.N,/UI_LD_SELECT*%
X164655000Y-110375000D03*
%TO.P,J1,16,Pin_16*%
%TO.N,GND*%
X164655000Y-115455000D03*
%TD*%
D21*
%TO.P,R4,1*%
%TO.N,/UI_DETECT*%
X167200000Y-91225000D03*
%TO.P,R4,2*%
%TO.N,Net-(U2-GPIO15)*%
X167200000Y-89575000D03*
%TD*%
D22*
%TO.P,IC3,1,VCCA*%
%TO.N,+5V*%
X144638000Y-82289579D03*
%TO.P,IC3,2,A1*%
%TO.N,/QL_CS_IN*%
X144638000Y-81639579D03*
%TO.P,IC3,3,A2*%
%TO.N,/QL_CS_CK*%
X144638000Y-80989579D03*
%TO.P,IC3,4,A3*%
%TO.N,/QL_R{slash}~{W}*%
X144638000Y-80339579D03*
%TO.P,IC3,5,A4Y*%
%TO.N,/QL_CS_OUT*%
X144638000Y-79689579D03*
%TO.P,IC3,6,NC_1*%
%TO.N,unconnected-(IC3-NC_1-Pad6)*%
X144638000Y-79039579D03*
%TO.P,IC3,7,GND*%
%TO.N,GND*%
X144638000Y-78389579D03*
%TO.P,IC3,8,OE*%
%TO.N,Net-(IC3-OE)*%
X138762000Y-78389579D03*
%TO.P,IC3,9,NC_2*%
%TO.N,unconnected-(IC3-NC_2-Pad9)*%
X138762000Y-79039579D03*
%TO.P,IC3,10,B4*%
%TO.N,/PICO_CS_OUT*%
X138762000Y-79689579D03*
%TO.P,IC3,11,B3Y*%
%TO.N,/PICO_R{slash}~{W}*%
X138762000Y-80339579D03*
%TO.P,IC3,12,B2Y*%
%TO.N,/PICO_CS_CK*%
X138762000Y-80989579D03*
%TO.P,IC3,13,B1Y*%
%TO.N,/PICO_CS_IN*%
X138762000Y-81639579D03*
%TO.P,IC3,14,VCCB*%
%TO.N,+3V3*%
X138762000Y-82289579D03*
%TD*%
D16*
%TO.P,U2,1,GPIO0*%
%TO.N,/PICO_CS_IN*%
X118970000Y-87580000D03*
D15*
%TO.P,U2,3,GND*%
%TO.N,GND*%
X124050000Y-87580000D03*
D16*
%TO.P,U2,6,GPIO4*%
%TO.N,/PICO_HEAD1*%
X131670000Y-87580000D03*
D15*
%TO.P,U2,8,GND*%
%TO.N,GND*%
X136750000Y-87580000D03*
D16*
%TO.P,U2,10,GPIO7*%
%TO.N,/PICO_R{slash}~{W}*%
X141830000Y-87580000D03*
%TO.P,U2,12,GPIO9*%
%TO.N,/UI_LD_SELECT*%
X146910000Y-87580000D03*
D15*
%TO.P,U2,13,GND*%
%TO.N,GND*%
X149450000Y-87580000D03*
%TO.P,U2,18,GND*%
X162150000Y-87580000D03*
D16*
%TO.P,U2,20,GPIO15*%
%TO.N,Net-(U2-GPIO15)*%
X167230000Y-87580000D03*
%TO.P,U2,21,GPIO16*%
%TO.N,/UI_SD_MISO*%
X167230000Y-105360000D03*
%TO.P,U2,22,GPIO17*%
%TO.N,/UI_SD_CS*%
X164690000Y-105360000D03*
D15*
%TO.P,U2,23,GND*%
%TO.N,GND*%
X162150000Y-105360000D03*
X149450000Y-105360000D03*
D16*
%TO.P,U2,24,GPIO18*%
%TO.N,/UI_SD_SCK*%
X159610000Y-105360000D03*
%TO.P,U2,27,GPIO21*%
%TO.N,/UI_SCR_SCL*%
X151990000Y-105360000D03*
%TO.P,U2,30,RUN*%
%TO.N,unconnected-(U2-RUN-Pad30)*%
X144370000Y-105360000D03*
%TO.P,U2,31,GPIO26_ADC0*%
%TO.N,unconnected-(U2-GPIO26_ADC0-Pad31)_1*%
X141830000Y-105360000D03*
%TO.P,U2,32,GPIO27_ADC1*%
%TO.N,unconnected-(U2-GPIO27_ADC1-Pad32)*%
X139290000Y-105360000D03*
D15*
%TO.P,U2,33,AGND*%
%TO.N,unconnected-(U2-AGND-Pad33)_1*%
X136750000Y-105360000D03*
D16*
%TO.P,U2,35,ADC_VREF*%
%TO.N,unconnected-(U2-ADC_VREF-Pad35)_1*%
X131670000Y-105360000D03*
%TO.P,U2,36,3V3*%
%TO.N,+3V3*%
X129130000Y-105360000D03*
%TO.P,U2,37,3V3_EN*%
%TO.N,unconnected-(U2-3V3_EN-Pad37)*%
X126590000Y-105360000D03*
D15*
%TO.P,U2,38,GND*%
%TO.N,GND*%
X124050000Y-105360000D03*
D16*
%TO.P,U2,39,VSYS*%
%TO.N,Net-(D1-K)*%
X121510000Y-105360000D03*
%TO.P,U2,40,VBUS*%
%TO.N,unconnected-(U2-VBUS-Pad40)*%
X118970000Y-105360000D03*
%TD*%
D15*
%TO.P,LS1,1,1*%
%TO.N,Net-(C7-Pad1)*%
X140085000Y-122625000D03*
D23*
%TO.P,LS1,2,2*%
%TO.N,GND*%
X140085000Y-120085000D03*
%TD*%
D24*
%TO.P,C7,1*%
%TO.N,Net-(C7-Pad1)*%
X139630000Y-114700000D03*
D25*
%TO.P,C7,2*%
%TO.N,GND*%
X141130000Y-114700000D03*
%TD*%
D26*
%TO.N,GND*%
X160840000Y-102180000D03*
X164570000Y-99530000D03*
X169180000Y-97820000D03*
X170390000Y-82830000D03*
X167820000Y-82830000D03*
X160240000Y-82810000D03*
X151100000Y-81170000D03*
%TO.N,/QL_R{slash}~{W}*%
X146186473Y-80386996D03*
%TO.N,GND*%
X165880000Y-97150000D03*
X163890000Y-94480000D03*
X146200000Y-129040000D03*
X151320000Y-128950000D03*
X161470000Y-130080000D03*
X168020000Y-129970000D03*
%TO.N,+5V*%
X142750000Y-81700000D03*
X147375000Y-100865000D03*
X147350000Y-95250000D03*
X145640000Y-90490000D03*
%TO.N,GND*%
X164600000Y-102220000D03*
X148700000Y-78920000D03*
X178680000Y-79370000D03*
X124930000Y-109840000D03*
X132000000Y-77700000D03*
X152800000Y-90200000D03*
X146550000Y-77700000D03*
X158790000Y-121430000D03*
X162200000Y-108540000D03*
X174420000Y-86760000D03*
X157200000Y-102200000D03*
X165890000Y-89310000D03*
X132300000Y-97480000D03*
X159200000Y-92200000D03*
X155800000Y-90200000D03*
X141450000Y-128020000D03*
X125600000Y-89870000D03*
X136200000Y-100400000D03*
X160270000Y-75970000D03*
X155400000Y-118200000D03*
X171700000Y-86810000D03*
X174460000Y-96230000D03*
X142430000Y-101870000D03*
X141800000Y-111460000D03*
X170300000Y-112900000D03*
X151550000Y-121500000D03*
X178570000Y-108030000D03*
X147000000Y-91000000D03*
X148000000Y-118200000D03*
X174850000Y-129140000D03*
X153900000Y-102300000D03*
X146900000Y-102610000D03*
X154320000Y-124830000D03*
X125570000Y-121230000D03*
X160000000Y-90200000D03*
X120320000Y-102220000D03*
X165530000Y-112130000D03*
X129190000Y-97460000D03*
X160600000Y-94200000D03*
X174900000Y-121180000D03*
X120400000Y-83200000D03*
X149830000Y-82870000D03*
X160830000Y-111690000D03*
X151890000Y-112830000D03*
X151600000Y-108800000D03*
X128240000Y-129910000D03*
X154849739Y-108783420D03*
X168600000Y-108800000D03*
X133600000Y-92450000D03*
X123780000Y-103350000D03*
X158760000Y-126470000D03*
X120320000Y-89900000D03*
X119920000Y-109840000D03*
X123850000Y-129870000D03*
X157000000Y-96400000D03*
X168510000Y-103710000D03*
X172760000Y-106890000D03*
X125630000Y-97460000D03*
X126230000Y-76590000D03*
X153240000Y-77520000D03*
X176660000Y-105260000D03*
X160860000Y-99490000D03*
X160830000Y-113890000D03*
X131860000Y-110640000D03*
X149380000Y-112860000D03*
X157060000Y-113740000D03*
X176080000Y-76020000D03*
X119979516Y-125623917D03*
X140600000Y-98400000D03*
X148600000Y-99800000D03*
X178770000Y-96260000D03*
X136800000Y-89800000D03*
X129390000Y-123080000D03*
X157000000Y-92440000D03*
X153940000Y-96400000D03*
X178730000Y-86830000D03*
X130000000Y-84000000D03*
X134440000Y-96240000D03*
X165430000Y-76110000D03*
X120990000Y-79270000D03*
X145800000Y-96400000D03*
X133700000Y-103000000D03*
X141000000Y-91000000D03*
X142100000Y-77100000D03*
X174797859Y-125010367D03*
X158200000Y-90200000D03*
X120040000Y-122480000D03*
X150800000Y-96400000D03*
X118140000Y-115830000D03*
X148901455Y-124657198D03*
X168600000Y-117400000D03*
X178710000Y-113110000D03*
X130700000Y-89900000D03*
X178740000Y-117780000D03*
X122370000Y-109860000D03*
X142990000Y-83680000D03*
X136200000Y-95000000D03*
X144160000Y-124660000D03*
X172380000Y-111630000D03*
X140400000Y-83590000D03*
D27*
%TO.N,+3V3*%
X139200000Y-95240000D03*
X139200000Y-91000000D03*
D26*
X139920000Y-99470000D03*
%TO.N,/QL2PICO_ERASE*%
X148600000Y-83350000D03*
%TO.N,/QL_HEAD1*%
X159305000Y-93345000D03*
%TO.N,/HEAD_DIR*%
X142590000Y-99880000D03*
X141780000Y-94300000D03*
%TO.N,/PICO_HEAD2*%
X143600000Y-97820000D03*
%TO.N,/QL_CS_CK*%
X143100000Y-80400000D03*
%TO.N,Net-(IC3-OE)*%
X139900000Y-78389579D03*
%TO.N,/PICO_CS_OUT*%
X136500000Y-79700000D03*
%TO.N,/PICO_CS_CK*%
X125674421Y-80935579D03*
%TO.N,/UI_SD_SCK*%
X155740000Y-109560000D03*
%TO.N,/UI_DETECT*%
X170400000Y-98000000D03*
%TO.N,/UI_LD_SELECT*%
X163190000Y-95980000D03*
X161400000Y-92600000D03*
X165944000Y-98744000D03*
%TD*%
D28*
%TO.N,/UI_LD_SELECT*%
X165944000Y-98744000D02*
X163190000Y-95990000D01*
X163190000Y-95990000D02*
X163190000Y-95980000D01*
%TO.N,/QL_R{slash}~{W}*%
X146186473Y-80386996D02*
X146139056Y-80339579D01*
X146139056Y-80339579D02*
X144638000Y-80339579D01*
X146186473Y-80386996D02*
X146179890Y-80393579D01*
D29*
%TO.N,+5V*%
X144400000Y-84425000D02*
X144400000Y-89250000D01*
X147250000Y-100820000D02*
X146020000Y-100820000D01*
X144400000Y-89250000D02*
X145640000Y-90490000D01*
D30*
X142750000Y-81700000D02*
X143339579Y-82289579D01*
D29*
X131262500Y-101180000D02*
X134000000Y-101180000D01*
X144425000Y-84200000D02*
X144599000Y-84026000D01*
D30*
X143339579Y-82289579D02*
X144638000Y-82289579D01*
X144425000Y-84200000D02*
X144425000Y-82502579D01*
D29*
X144599000Y-84026000D02*
X144625000Y-84026000D01*
X144470000Y-102930000D02*
X146020000Y-101380000D01*
X147375000Y-100865000D02*
X171870000Y-100865000D01*
X134000000Y-101180000D02*
X135750000Y-102930000D01*
X135750000Y-102930000D02*
X144470000Y-102930000D01*
X147295000Y-100865000D02*
X147250000Y-100820000D01*
X144425000Y-84200000D02*
X144425000Y-84400000D01*
X148365000Y-95250000D02*
X146020000Y-95250000D01*
D30*
X144425000Y-82502579D02*
X144638000Y-82289579D01*
D29*
X171870000Y-100865000D02*
X171925000Y-100810000D01*
X146020000Y-101380000D02*
X146020000Y-100820000D01*
X144425000Y-84400000D02*
X144400000Y-84425000D01*
X147375000Y-100865000D02*
X147295000Y-100865000D01*
X148370000Y-95245000D02*
X148365000Y-95250000D01*
%TO.N,+3V3*%
X138800000Y-84600000D02*
X138775000Y-84575000D01*
D30*
X138775000Y-84175000D02*
X138775000Y-82302579D01*
D29*
X143490000Y-95220000D02*
X143520000Y-95250000D01*
X140710000Y-100735000D02*
X140875000Y-100900000D01*
X134315000Y-110375000D02*
X129300000Y-105360000D01*
X139920000Y-99470000D02*
X139930000Y-99470000D01*
X139930000Y-99470000D02*
X140710000Y-100250000D01*
X138800000Y-85200000D02*
X138800000Y-84600000D01*
X146875000Y-110375000D02*
X134315000Y-110375000D01*
X129300000Y-105360000D02*
X129130000Y-105360000D01*
X139200000Y-91000000D02*
X139200000Y-85600000D01*
X139200000Y-85600000D02*
X138800000Y-85200000D01*
X140875000Y-100900000D02*
X140955000Y-100820000D01*
X140710000Y-100250000D02*
X140710000Y-100735000D01*
X139220000Y-95220000D02*
X143490000Y-95220000D01*
X138775000Y-84575000D02*
X138775000Y-84200000D01*
X139200000Y-95240000D02*
X139220000Y-95220000D01*
D30*
X138775000Y-82302579D02*
X138762000Y-82289579D01*
D29*
X140955000Y-100820000D02*
X143520000Y-100820000D01*
D28*
%TO.N,/QL2PICO_ERASE*%
X161710000Y-83920000D02*
X164040000Y-81590000D01*
X148600000Y-83350000D02*
X149170000Y-83920000D01*
X149170000Y-83920000D02*
X161710000Y-83920000D01*
D30*
%TO.N,/QL_HEAD1*%
X159300000Y-93350000D02*
X146020000Y-93350000D01*
D28*
X159305000Y-93345000D02*
X159300000Y-93350000D01*
D30*
%TO.N,/PICO_HEAD1*%
X143460000Y-93290000D02*
X137380000Y-93290000D01*
X137380000Y-93290000D02*
X131670000Y-87580000D01*
%TO.N,/HEAD_DIR*%
X143500000Y-99890000D02*
X143520000Y-99870000D01*
X141780000Y-94300000D02*
X143520000Y-94300000D01*
X142590000Y-99880000D02*
X142600000Y-99890000D01*
X142600000Y-99890000D02*
X143500000Y-99890000D01*
%TO.N,/QL_HEAD2*%
X165310000Y-80320000D02*
X166580000Y-79050000D01*
X163320000Y-93200000D02*
X164600000Y-91920000D01*
X146090000Y-98910000D02*
X157610000Y-98910000D01*
X164600000Y-83490000D02*
X165310000Y-82780000D01*
D28*
X165310000Y-82780000D02*
X165310000Y-80320000D01*
D30*
X157610000Y-98910000D02*
X163420000Y-93100000D01*
X164600000Y-91920000D02*
X164600000Y-83490000D01*
%TO.N,/PICO_HEAD2*%
X143600000Y-98840000D02*
X143520000Y-98920000D01*
X143600000Y-97820000D02*
X143600000Y-98840000D01*
D28*
%TO.N,/QL_CS_IN*%
X147960421Y-81639579D02*
X144638000Y-81639579D01*
X155840000Y-78470000D02*
X151130000Y-78470000D01*
X151130000Y-78470000D02*
X147960421Y-81639579D01*
X156420000Y-79050000D02*
X155840000Y-78470000D01*
%TO.N,/QL_CS_CK*%
X143100000Y-80464079D02*
X143625500Y-80989579D01*
X143100000Y-80400000D02*
X143100000Y-80464079D01*
X143625500Y-80989579D02*
X144638000Y-80989579D01*
%TO.N,/QL_CS_OUT*%
X146090421Y-79689579D02*
X149210000Y-76570000D01*
X149210000Y-76570000D02*
X157550000Y-76570000D01*
X144638000Y-79689579D02*
X146090421Y-79689579D01*
X158960000Y-77980000D02*
X158960000Y-79050000D01*
X157550000Y-76570000D02*
X158960000Y-77980000D01*
%TO.N,Net-(IC3-OE)*%
X138822421Y-78450000D02*
X138762000Y-78389579D01*
X139900000Y-78389579D02*
X138762000Y-78389579D01*
D30*
%TO.N,/PICO_CS_OUT*%
X138751579Y-79700000D02*
X138762000Y-79689579D01*
X136500000Y-79700000D02*
X138751579Y-79700000D01*
D28*
%TO.N,/PICO_R{slash}~{W}*%
X139599579Y-80339579D02*
X141800000Y-82540000D01*
X138762000Y-80339579D02*
X139599579Y-80339579D01*
X141800000Y-87380000D02*
X142000000Y-87580000D01*
X138762000Y-80339579D02*
X138752421Y-80330000D01*
X141800000Y-82540000D02*
X141800000Y-87380000D01*
D30*
%TO.N,/PICO_CS_CK*%
X125704421Y-80970000D02*
X138742421Y-80970000D01*
X138742421Y-80970000D02*
X138762000Y-80989579D01*
X125674421Y-80940000D02*
X125704421Y-80970000D01*
X125674421Y-80935579D02*
X125674421Y-80940000D01*
D31*
%TO.N,/PICO_CS_IN*%
X136200000Y-83000000D02*
X123600000Y-83000000D01*
X138511816Y-81685579D02*
X138426237Y-81600000D01*
X137600000Y-81600000D02*
X136200000Y-83000000D01*
X138426237Y-81600000D02*
X137600000Y-81600000D01*
X119020000Y-87580000D02*
X118970000Y-87580000D01*
X123600000Y-83000000D02*
X119020000Y-87580000D01*
D29*
%TO.N,+9V*%
X177080000Y-100885000D02*
X177000000Y-100805000D01*
X177270000Y-100885000D02*
X177080000Y-100885000D01*
X170090000Y-76600000D02*
X169120000Y-77570000D01*
X169120000Y-77570000D02*
X169120000Y-79050000D01*
X177000000Y-100805000D02*
X177000000Y-79000000D01*
X177000000Y-79000000D02*
X174600000Y-76600000D01*
X174600000Y-76600000D02*
X170090000Y-76600000D01*
D28*
%TO.N,/UI_SD_CS*%
X163401000Y-106649000D02*
X164690000Y-105360000D01*
X151955000Y-115455000D02*
X151955000Y-114635000D01*
X151955000Y-114635000D02*
X153790000Y-112800000D01*
X153790000Y-112800000D02*
X162580000Y-112800000D01*
X163401000Y-111979000D02*
X163401000Y-106649000D01*
X162580000Y-112800000D02*
X163401000Y-111979000D01*
D30*
%TO.N,/UI_SCR_SCL*%
X154495000Y-110095000D02*
X153200000Y-108800000D01*
X153200000Y-108800000D02*
X153200000Y-106570000D01*
X154495000Y-110375000D02*
X154495000Y-110095000D01*
X153200000Y-106570000D02*
X151990000Y-105360000D01*
D28*
%TO.N,/UI_SD_SCK*%
X158640000Y-105360000D02*
X159610000Y-105360000D01*
X155740000Y-108260000D02*
X158640000Y-105360000D01*
X155740000Y-109560000D02*
X155740000Y-108260000D01*
D30*
%TO.N,/UI_SD_MISO*%
X157035000Y-116935000D02*
X157900000Y-117800000D01*
X166250000Y-117800000D02*
X167230000Y-116820000D01*
X157035000Y-115455000D02*
X157035000Y-116935000D01*
X157900000Y-117800000D02*
X166250000Y-117800000D01*
X167230000Y-116820000D02*
X167230000Y-105360000D01*
D28*
%TO.N,/UI_DETECT*%
X170400000Y-97000000D02*
X167200000Y-93800000D01*
X170400000Y-98000000D02*
X170400000Y-97000000D01*
X167200000Y-93800000D02*
X167200000Y-91225000D01*
%TO.N,/UI_LD_SELECT*%
X160200000Y-91400000D02*
X149000000Y-91400000D01*
X146910000Y-89310000D02*
X146910000Y-87580000D01*
X161400000Y-92600000D02*
X160200000Y-91400000D01*
X149000000Y-91400000D02*
X146910000Y-89310000D01*
D30*
%TO.N,Net-(C7-Pad1)*%
X139630000Y-114700000D02*
X139630000Y-114665000D01*
X139630000Y-114665000D02*
X137885000Y-112920000D01*
X137885000Y-112920000D02*
X135790000Y-112920000D01*
D29*
%TO.N,Net-(D1-K)*%
X124070000Y-101180000D02*
X121510000Y-103740000D01*
X121510000Y-103740000D02*
X121510000Y-105360000D01*
X126962500Y-101180000D02*
X124070000Y-101180000D01*
D30*
%TO.N,Net-(U2-GPIO15)*%
X167200000Y-89575000D02*
X167200000Y-87610000D01*
D28*
X167200000Y-87610000D02*
X167230000Y-87580000D01*
X167600000Y-87950000D02*
X167230000Y-87580000D01*
%TD*%
%TA.AperFunction,Conductor*%
%TO.N,GND*%
G36*
X166039173Y-106037483D02*
G01*
X166065730Y-106068132D01*
X166068103Y-106072005D01*
X166068106Y-106072009D01*
X166193794Y-106245004D01*
X166344996Y-106396206D01*
X166427579Y-106456206D01*
X166470386Y-106487307D01*
X166513051Y-106542637D01*
X166521500Y-106587625D01*
X166521500Y-116475167D01*
X166501815Y-116542206D01*
X166485181Y-116562848D01*
X165992848Y-117055181D01*
X165931525Y-117088666D01*
X165905167Y-117091500D01*
X158244832Y-117091500D01*
X158177793Y-117071815D01*
X158157151Y-117055181D01*
X157833369Y-116731398D01*
X157799884Y-116670075D01*
X157804868Y-116600383D01*
X157846740Y-116544450D01*
X157848052Y-116543481D01*
X157920004Y-116491206D01*
X158071206Y-116340004D01*
X158196894Y-116167009D01*
X158196896Y-116167004D01*
X158199270Y-116163132D01*
X158251080Y-116116254D01*
X158320009Y-116104829D01*
X158384173Y-116132483D01*
X158410730Y-116163132D01*
X158413103Y-116167005D01*
X158413106Y-116167009D01*
X158538794Y-116340004D01*
X158689996Y-116491206D01*
X158862991Y-116616894D01*
X158911340Y-116641529D01*
X159053516Y-116713972D01*
X159053519Y-116713973D01*
X159107149Y-116731398D01*
X159256884Y-116780049D01*
X159468084Y-116813500D01*
X159468085Y-116813500D01*
X159681915Y-116813500D01*
X159681916Y-116813500D01*
X159893116Y-116780049D01*
X160096483Y-116713972D01*
X160287009Y-116616894D01*
X160460004Y-116491206D01*
X160611206Y-116340004D01*
X160736894Y-116167009D01*
X160736896Y-116167004D01*
X160739270Y-116163132D01*
X160791080Y-116116254D01*
X160860009Y-116104829D01*
X160924173Y-116132483D01*
X160950730Y-116163132D01*
X160953103Y-116167005D01*
X160953106Y-116167009D01*
X161078794Y-116340004D01*
X161229996Y-116491206D01*
X161402991Y-116616894D01*
X161451340Y-116641529D01*
X161593516Y-116713972D01*
X161593519Y-116713973D01*
X161647149Y-116731398D01*
X161796884Y-116780049D01*
X162008084Y-116813500D01*
X162008085Y-116813500D01*
X162221915Y-116813500D01*
X162221916Y-116813500D01*
X162433116Y-116780049D01*
X162636483Y-116713972D01*
X162827009Y-116616894D01*
X163000004Y-116491206D01*
X163151206Y-116340004D01*
X163276894Y-116167009D01*
X163279283Y-116162319D01*
X163327254Y-116111522D01*
X163395074Y-116094724D01*
X163461210Y-116117258D01*
X163497201Y-116158788D01*
X163497832Y-116158402D01*
X163500164Y-116162207D01*
X163500251Y-116162308D01*
X163500376Y-116162554D01*
X163625272Y-116334459D01*
X163625276Y-116334464D01*
X163775535Y-116484723D01*
X163775540Y-116484727D01*
X163947442Y-116609620D01*
X164136782Y-116706095D01*
X164338871Y-116771757D01*
X164405000Y-116782231D01*
X164405000Y-115888012D01*
X164462007Y-115920925D01*
X164589174Y-115955000D01*
X164720826Y-115955000D01*
X164847993Y-115920925D01*
X164905000Y-115888012D01*
X164905000Y-116782230D01*
X164971126Y-116771757D01*
X164971129Y-116771757D01*
X165173217Y-116706095D01*
X165362557Y-116609620D01*
X165534459Y-116484727D01*
X165534464Y-116484723D01*
X165684723Y-116334464D01*
X165684727Y-116334459D01*
X165809620Y-116162557D01*
X165906095Y-115973217D01*
X165971757Y-115771129D01*
X165971757Y-115771126D01*
X165982231Y-115705000D01*
X165088012Y-115705000D01*
X165120925Y-115647993D01*
X165155000Y-115520826D01*
X165155000Y-115389174D01*
X165120925Y-115262007D01*
X165088012Y-115205000D01*
X165982231Y-115205000D01*
X165971757Y-115138873D01*
X165971757Y-115138870D01*
X165906095Y-114936782D01*
X165809620Y-114747442D01*
X165684727Y-114575540D01*
X165684723Y-114575535D01*
X165534464Y-114425276D01*
X165534459Y-114425272D01*
X165362557Y-114300379D01*
X165173215Y-114203903D01*
X164971124Y-114138241D01*
X164905000Y-114127768D01*
X164905000Y-115021988D01*
X164847993Y-114989075D01*
X164720826Y-114955000D01*
X164589174Y-114955000D01*
X164462007Y-114989075D01*
X164405000Y-115021988D01*
X164405000Y-114127768D01*
X164404999Y-114127768D01*
X164338875Y-114138241D01*
X164136784Y-114203903D01*
X163947442Y-114300379D01*
X163775540Y-114425272D01*
X163775535Y-114425276D01*
X163625276Y-114575535D01*
X163625272Y-114575540D01*
X163500376Y-114747446D01*
X163500374Y-114747448D01*
X163500246Y-114747701D01*
X163500172Y-114747779D01*
X163497832Y-114751598D01*
X163497029Y-114751106D01*
X163452264Y-114798489D01*
X163384441Y-114815274D01*
X163318309Y-114792727D01*
X163279285Y-114747683D01*
X163276895Y-114742992D01*
X163180148Y-114609832D01*
X163151206Y-114569996D01*
X163000004Y-114418794D01*
X162827009Y-114293106D01*
X162796856Y-114277742D01*
X162636483Y-114196027D01*
X162636480Y-114196026D01*
X162433117Y-114129951D01*
X162327516Y-114113225D01*
X162221916Y-114096500D01*
X162008084Y-114096500D01*
X161937684Y-114107650D01*
X161796882Y-114129951D01*
X161593519Y-114196026D01*
X161593516Y-114196027D01*
X161402990Y-114293106D01*
X161229993Y-114418796D01*
X161078796Y-114569993D01*
X160953105Y-114742991D01*
X160950727Y-114746873D01*
X160898914Y-114793748D01*
X160829984Y-114805169D01*
X160765822Y-114777512D01*
X160739273Y-114746873D01*
X160736894Y-114742991D01*
X160705659Y-114700000D01*
X160611206Y-114569996D01*
X160460004Y-114418794D01*
X160287009Y-114293106D01*
X160256856Y-114277742D01*
X160096483Y-114196027D01*
X160096480Y-114196026D01*
X159893117Y-114129951D01*
X159787516Y-114113225D01*
X159681916Y-114096500D01*
X159468084Y-114096500D01*
X159397684Y-114107650D01*
X159256882Y-114129951D01*
X159053519Y-114196026D01*
X159053516Y-114196027D01*
X158862990Y-114293106D01*
X158689993Y-114418796D01*
X158538796Y-114569993D01*
X158413105Y-114742991D01*
X158410727Y-114746873D01*
X158358914Y-114793748D01*
X158289984Y-114805169D01*
X158225822Y-114777512D01*
X158199273Y-114746873D01*
X158196894Y-114742991D01*
X158165659Y-114700000D01*
X158071206Y-114569996D01*
X157920004Y-114418794D01*
X157747009Y-114293106D01*
X157716856Y-114277742D01*
X157556483Y-114196027D01*
X157556480Y-114196026D01*
X157353117Y-114129951D01*
X157247516Y-114113225D01*
X157141916Y-114096500D01*
X156928084Y-114096500D01*
X156857684Y-114107650D01*
X156716882Y-114129951D01*
X156513519Y-114196026D01*
X156513516Y-114196027D01*
X156322990Y-114293106D01*
X156149993Y-114418796D01*
X155998796Y-114569993D01*
X155873105Y-114742991D01*
X155870727Y-114746873D01*
X155818914Y-114793748D01*
X155749984Y-114805169D01*
X155685822Y-114777512D01*
X155659273Y-114746873D01*
X155656894Y-114742991D01*
X155625659Y-114700000D01*
X155531206Y-114569996D01*
X155380004Y-114418794D01*
X155207009Y-114293106D01*
X155176856Y-114277742D01*
X155016483Y-114196027D01*
X155016480Y-114196026D01*
X154813117Y-114129951D01*
X154707516Y-114113225D01*
X154601916Y-114096500D01*
X154388084Y-114096500D01*
X154317684Y-114107650D01*
X154176882Y-114129951D01*
X153973519Y-114196026D01*
X153973516Y-114196027D01*
X153782990Y-114293106D01*
X153609993Y-114418796D01*
X153458796Y-114569993D01*
X153333105Y-114742991D01*
X153330727Y-114746873D01*
X153278914Y-114793748D01*
X153209984Y-114805169D01*
X153145822Y-114777512D01*
X153119273Y-114746873D01*
X153116894Y-114742991D01*
X153085659Y-114700000D01*
X153036645Y-114632538D01*
X153013167Y-114566736D01*
X153028992Y-114498682D01*
X153049280Y-114471979D01*
X154026441Y-113494819D01*
X154087764Y-113461334D01*
X154114122Y-113458500D01*
X162644859Y-113458500D01*
X162730444Y-113441475D01*
X162772077Y-113433194D01*
X162891917Y-113383555D01*
X162999769Y-113311491D01*
X163912490Y-112398769D01*
X163931932Y-112369672D01*
X163984555Y-112290917D01*
X164034194Y-112171077D01*
X164054783Y-112067570D01*
X164059500Y-112043859D01*
X164059500Y-111780593D01*
X164079185Y-111713554D01*
X164131989Y-111667799D01*
X164201147Y-111657855D01*
X164221814Y-111662661D01*
X164336884Y-111700049D01*
X164548084Y-111733500D01*
X164548085Y-111733500D01*
X164761915Y-111733500D01*
X164761916Y-111733500D01*
X164973116Y-111700049D01*
X165176483Y-111633972D01*
X165367009Y-111536894D01*
X165540004Y-111411206D01*
X165691206Y-111260004D01*
X165816894Y-111087009D01*
X165913972Y-110896483D01*
X165980049Y-110693116D01*
X166013500Y-110481916D01*
X166013500Y-110268084D01*
X165980049Y-110056884D01*
X165913972Y-109853517D01*
X165913972Y-109853516D01*
X165864507Y-109756438D01*
X165816894Y-109662991D01*
X165691206Y-109489996D01*
X165540004Y-109338794D01*
X165367009Y-109213106D01*
X165301680Y-109179819D01*
X165176483Y-109116027D01*
X165176480Y-109116026D01*
X164973117Y-109049951D01*
X164867516Y-109033225D01*
X164761916Y-109016500D01*
X164548084Y-109016500D01*
X164506975Y-109023011D01*
X164336880Y-109049951D01*
X164221817Y-109087337D01*
X164151976Y-109089332D01*
X164092144Y-109053251D01*
X164061316Y-108990550D01*
X164059500Y-108969406D01*
X164059500Y-106973121D01*
X164068144Y-106943680D01*
X164074668Y-106913694D01*
X164078422Y-106908678D01*
X164079185Y-106906082D01*
X164095813Y-106885445D01*
X164261883Y-106719375D01*
X164323203Y-106685893D01*
X164368959Y-106684586D01*
X164462397Y-106699385D01*
X164583084Y-106718500D01*
X164583085Y-106718500D01*
X164796915Y-106718500D01*
X164796916Y-106718500D01*
X165008116Y-106685049D01*
X165211483Y-106618972D01*
X165402009Y-106521894D01*
X165575004Y-106396206D01*
X165726206Y-106245004D01*
X165851894Y-106072009D01*
X165851896Y-106072004D01*
X165854270Y-106068132D01*
X165906080Y-106021254D01*
X165975009Y-106009829D01*
X166039173Y-106037483D01*
G37*
%TD.AperFunction*%
%TA.AperFunction,Conductor*%
G36*
X162400000Y-106710000D02*
G01*
X162618500Y-106710000D01*
X162685539Y-106729685D01*
X162731294Y-106782489D01*
X162742500Y-106834000D01*
X162742500Y-108979803D01*
X162722815Y-109046842D01*
X162670011Y-109092597D01*
X162600853Y-109102541D01*
X162580183Y-109097734D01*
X162433118Y-109049951D01*
X162433119Y-109049951D01*
X162274716Y-109024862D01*
X162221916Y-109016500D01*
X162008084Y-109016500D01*
X161937684Y-109027650D01*
X161796882Y-109049951D01*
X161593519Y-109116026D01*
X161593516Y-109116027D01*
X161402990Y-109213106D01*
X161229993Y-109338796D01*
X161078796Y-109489993D01*
X160953105Y-109662991D01*
X160950727Y-109666873D01*
X160898914Y-109713748D01*
X160829984Y-109725169D01*
X160765822Y-109697512D01*
X160739273Y-109666873D01*
X160736894Y-109662991D01*
X160703116Y-109616500D01*
X160611206Y-109489996D01*
X160460004Y-109338794D01*
X160287009Y-109213106D01*
X160221680Y-109179819D01*
X160096483Y-109116027D01*
X160096480Y-109116026D01*
X159893117Y-109049951D01*
X159787516Y-109033225D01*
X159681916Y-109016500D01*
X159468084Y-109016500D01*
X159397684Y-109027650D01*
X159256882Y-109049951D01*
X159053519Y-109116026D01*
X159053516Y-109116027D01*
X158862990Y-109213106D01*
X158689993Y-109338796D01*
X158538796Y-109489993D01*
X158413105Y-109662991D01*
X158410727Y-109666873D01*
X158358914Y-109713748D01*
X158289984Y-109725169D01*
X158225822Y-109697512D01*
X158199273Y-109666873D01*
X158196894Y-109662991D01*
X158163116Y-109616500D01*
X158071206Y-109489996D01*
X157920004Y-109338794D01*
X157747009Y-109213106D01*
X157681680Y-109179819D01*
X157556483Y-109116027D01*
X157556480Y-109116026D01*
X157353117Y-109049951D01*
X157247516Y-109033225D01*
X157141916Y-109016500D01*
X156928084Y-109016500D01*
X156886975Y-109023011D01*
X156716880Y-109049951D01*
X156560817Y-109100658D01*
X156490976Y-109102653D01*
X156431143Y-109066572D01*
X156400316Y-109003871D01*
X156398500Y-108982727D01*
X156398500Y-108584120D01*
X156418185Y-108517081D01*
X156434814Y-108496444D01*
X158542343Y-106388914D01*
X158603666Y-106355430D01*
X158673358Y-106360414D01*
X158717705Y-106388915D01*
X158724996Y-106396206D01*
X158897991Y-106521894D01*
X158986883Y-106567187D01*
X159088516Y-106618972D01*
X159088519Y-106618973D01*
X159190200Y-106652010D01*
X159291884Y-106685049D01*
X159503084Y-106718500D01*
X159503085Y-106718500D01*
X159716915Y-106718500D01*
X159716916Y-106718500D01*
X159928116Y-106685049D01*
X160131483Y-106618972D01*
X160322009Y-106521894D01*
X160495004Y-106396206D01*
X160606791Y-106284418D01*
X160668110Y-106250936D01*
X160737802Y-106255920D01*
X160793736Y-106297791D01*
X160810651Y-106328769D01*
X160856645Y-106452086D01*
X160856649Y-106452093D01*
X160942809Y-106567187D01*
X160942812Y-106567190D01*
X161057906Y-106653350D01*
X161057913Y-106653354D01*
X161192620Y-106703596D01*
X161192627Y-106703598D01*
X161252155Y-106709999D01*
X161252172Y-106710000D01*
X161900000Y-106710000D01*
X161900000Y-105804560D01*
X161953147Y-105835245D01*
X162082857Y-105870000D01*
X162217143Y-105870000D01*
X162346853Y-105835245D01*
X162400000Y-105804560D01*
X162400000Y-106710000D01*
G37*
%TD.AperFunction*%
%TA.AperFunction,Conductor*%
G36*
X157292917Y-77248185D02*
G01*
X157313559Y-77264819D01*
X157981084Y-77932344D01*
X158014569Y-77993667D01*
X158009585Y-78063359D01*
X157981084Y-78107706D01*
X157923796Y-78164993D01*
X157798105Y-78337991D01*
X157795727Y-78341873D01*
X157743914Y-78388748D01*
X157674984Y-78400169D01*
X157610822Y-78372512D01*
X157584273Y-78341873D01*
X157581894Y-78337991D01*
X157561520Y-78309949D01*
X157456206Y-78164996D01*
X157305004Y-78013794D01*
X157132009Y-77888106D01*
X157124306Y-77884181D01*
X156941483Y-77791027D01*
X156941480Y-77791026D01*
X156738117Y-77724951D01*
X156620769Y-77706365D01*
X156526916Y-77691500D01*
X156313084Y-77691500D01*
X156242684Y-77702650D01*
X156101882Y-77724951D01*
X155898523Y-77791025D01*
X155898517Y-77791027D01*
X155898517Y-77791028D01*
X155884861Y-77797985D01*
X155828570Y-77811500D01*
X151065139Y-77811500D01*
X151044033Y-77815698D01*
X151044032Y-77815697D01*
X150937930Y-77836803D01*
X150937922Y-77836805D01*
X150818086Y-77886443D01*
X150818076Y-77886448D01*
X150710231Y-77958508D01*
X150710227Y-77958511D01*
X147723980Y-80944760D01*
X147662657Y-80978245D01*
X147636299Y-80981079D01*
X146993881Y-80981079D01*
X146926842Y-80961394D01*
X146881087Y-80908590D01*
X146871143Y-80839432D01*
X146890779Y-80788188D01*
X146894267Y-80782968D01*
X146902956Y-80769964D01*
X146963903Y-80622827D01*
X146994973Y-80466626D01*
X146994973Y-80307366D01*
X146963903Y-80151165D01*
X146902956Y-80004028D01*
X146881094Y-79971310D01*
X146860218Y-79904637D01*
X146878702Y-79837256D01*
X146896513Y-79814745D01*
X149446441Y-77264819D01*
X149507764Y-77231334D01*
X149534122Y-77228500D01*
X157225878Y-77228500D01*
X157292917Y-77248185D01*
G37*
%TD.AperFunction*%
%TA.AperFunction,Conductor*%
G36*
X176903360Y-75506606D02*
G01*
X176920211Y-75507381D01*
X177129663Y-75517015D01*
X177195727Y-75539759D01*
X177239007Y-75594610D01*
X177245762Y-75664152D01*
X177213848Y-75726307D01*
X177211647Y-75728564D01*
X177170073Y-75770138D01*
X177170072Y-75770140D01*
X177170070Y-75770142D01*
X177141008Y-75810142D01*
X177053634Y-75930401D01*
X176963703Y-76106898D01*
X176902487Y-76295299D01*
X176871500Y-76490948D01*
X176871500Y-76689051D01*
X176902487Y-76884700D01*
X176963703Y-77073101D01*
X177033823Y-77210717D01*
X177053634Y-77249598D01*
X177170070Y-77409858D01*
X177310142Y-77549930D01*
X177470402Y-77666366D01*
X177548904Y-77706365D01*
X177646898Y-77756296D01*
X177646900Y-77756296D01*
X177646903Y-77756298D01*
X177744235Y-77787923D01*
X177835299Y-77817512D01*
X178030949Y-77848500D01*
X178030954Y-77848500D01*
X178229051Y-77848500D01*
X178424700Y-77817512D01*
X178460056Y-77806024D01*
X178613097Y-77756298D01*
X178789598Y-77666366D01*
X178949858Y-77549930D01*
X179089930Y-77409858D01*
X179126678Y-77359278D01*
X179138523Y-77350143D01*
X179146741Y-77337637D01*
X179165632Y-77329238D01*
X179182004Y-77316614D01*
X179196912Y-77315333D01*
X179210586Y-77309255D01*
X179231018Y-77312403D01*
X179251618Y-77310634D01*
X179264852Y-77317617D01*
X179279641Y-77319896D01*
X179295128Y-77333592D01*
X179313413Y-77343240D01*
X179321637Y-77357034D01*
X179331981Y-77366182D01*
X179346318Y-77398432D01*
X179365637Y-77466770D01*
X179368617Y-77480063D01*
X179411632Y-77737441D01*
X179413136Y-77750979D01*
X179427850Y-78014932D01*
X179428042Y-78021746D01*
X179463791Y-128111361D01*
X179463837Y-128175176D01*
X179463835Y-128175188D01*
X179463860Y-128208349D01*
X179463862Y-128210941D01*
X179463881Y-128237019D01*
X179463621Y-128245136D01*
X179451706Y-128428875D01*
X179449597Y-128444974D01*
X179419107Y-128598709D01*
X179386757Y-128660638D01*
X179326060Y-128695246D01*
X179256289Y-128691546D01*
X179199594Y-128650711D01*
X179186991Y-128630881D01*
X179186325Y-128629573D01*
X179166366Y-128590402D01*
X179049930Y-128430142D01*
X178909858Y-128290070D01*
X178749598Y-128173634D01*
X178723452Y-128160312D01*
X178573101Y-128083703D01*
X178384700Y-128022487D01*
X178189051Y-127991500D01*
X178189046Y-127991500D01*
X177990954Y-127991500D01*
X177990949Y-127991500D01*
X177795299Y-128022487D01*
X177606898Y-128083703D01*
X177430401Y-128173634D01*
X177379053Y-128210941D01*
X177270142Y-128290070D01*
X177270140Y-128290072D01*
X177270139Y-128290072D01*
X177130072Y-128430139D01*
X177130072Y-128430140D01*
X177130070Y-128430142D01*
X177080408Y-128498496D01*
X177013634Y-128590401D01*
X176923703Y-128766898D01*
X176862487Y-128955299D01*
X176831500Y-129150948D01*
X176831500Y-129349051D01*
X176862487Y-129544700D01*
X176923703Y-129733101D01*
X177013634Y-129909598D01*
X177130070Y-130069858D01*
X177270142Y-130209930D01*
X177415449Y-130315502D01*
X177428551Y-130325021D01*
X177440635Y-130340692D01*
X177456260Y-130352836D01*
X177461532Y-130367793D01*
X177471216Y-130380351D01*
X177472909Y-130400065D01*
X177479489Y-130418731D01*
X177475838Y-130434165D01*
X177477195Y-130449965D01*
X177467960Y-130467465D01*
X177463405Y-130486725D01*
X177451989Y-130497734D01*
X177444589Y-130511760D01*
X177427357Y-130521491D01*
X177413114Y-130535228D01*
X177386284Y-130544685D01*
X177383750Y-130546117D01*
X177379827Y-130546962D01*
X177340117Y-130554851D01*
X177324030Y-130556965D01*
X177140369Y-130568951D01*
X177132272Y-130569214D01*
X177126679Y-130569213D01*
X177126672Y-130569211D01*
X177126659Y-130569213D01*
X121099040Y-130549987D01*
X121032008Y-130530279D01*
X120986271Y-130477460D01*
X120976351Y-130408298D01*
X121005398Y-130344752D01*
X121042789Y-130315502D01*
X121119596Y-130276367D01*
X121119595Y-130276367D01*
X121119598Y-130276366D01*
X121279858Y-130159930D01*
X121419930Y-130019858D01*
X121536366Y-129859598D01*
X121626298Y-129683097D01*
X121687512Y-129494700D01*
X121694108Y-129453055D01*
X121718500Y-129299051D01*
X121718500Y-129100948D01*
X121687512Y-128905299D01*
X121626296Y-128716898D01*
X121545460Y-128558250D01*
X121536366Y-128540402D01*
X121419930Y-128380142D01*
X121279858Y-128240070D01*
X121119598Y-128123634D01*
X121095511Y-128111361D01*
X120943101Y-128033703D01*
X120754700Y-127972487D01*
X120559051Y-127941500D01*
X120559046Y-127941500D01*
X120360954Y-127941500D01*
X120360949Y-127941500D01*
X120165299Y-127972487D01*
X119976898Y-128033703D01*
X119800401Y-128123634D01*
X119729444Y-128175188D01*
X119640142Y-128240070D01*
X119640140Y-128240072D01*
X119640139Y-128240072D01*
X119500072Y-128380139D01*
X119500072Y-128380140D01*
X119500070Y-128380142D01*
X119464663Y-128428875D01*
X119383634Y-128540401D01*
X119293703Y-128716898D01*
X119244686Y-128867757D01*
X119205248Y-128925432D01*
X119140889Y-128952630D01*
X119072043Y-128940715D01*
X119020567Y-128893471D01*
X119019059Y-128890901D01*
X118948292Y-128766903D01*
X117580011Y-126369384D01*
X117580011Y-126369383D01*
X117549336Y-126315635D01*
X117545590Y-126308547D01*
X117465796Y-126144969D01*
X117459709Y-126130123D01*
X117402993Y-125961438D01*
X117398873Y-125945929D01*
X117381853Y-125859687D01*
X117364410Y-125771304D01*
X117362332Y-125755408D01*
X117350447Y-125573785D01*
X117350183Y-125565800D01*
X117350168Y-125540316D01*
X122394500Y-125540316D01*
X122394500Y-125859683D01*
X122425803Y-126177522D01*
X122488109Y-126490754D01*
X122580820Y-126796382D01*
X122703040Y-127091446D01*
X122703042Y-127091451D01*
X122853584Y-127373094D01*
X122853601Y-127373122D01*
X123031012Y-127638638D01*
X123031029Y-127638661D01*
X123233638Y-127885540D01*
X123459459Y-128111361D01*
X123459464Y-128111365D01*
X123459465Y-128111366D01*
X123706344Y-128313975D01*
X123706351Y-128313980D01*
X123706361Y-128313987D01*
X123971877Y-128491398D01*
X123971882Y-128491401D01*
X123971894Y-128491409D01*
X123971903Y-128491413D01*
X123971905Y-128491415D01*
X124253548Y-128641957D01*
X124253550Y-128641957D01*
X124253556Y-128641961D01*
X124548619Y-128764180D01*
X124854240Y-128856889D01*
X125167477Y-128919196D01*
X125485313Y-128950500D01*
X125485316Y-128950500D01*
X125804684Y-128950500D01*
X125804687Y-128950500D01*
X126122523Y-128919196D01*
X126435760Y-128856889D01*
X126741381Y-128764180D01*
X127036444Y-128641961D01*
X127318106Y-128491409D01*
X127583656Y-128313975D01*
X127830535Y-128111366D01*
X128056366Y-127885535D01*
X128258975Y-127638656D01*
X128436409Y-127373106D01*
X128495094Y-127263315D01*
X130981500Y-127263315D01*
X130981500Y-127456684D01*
X131011750Y-127647675D01*
X131071502Y-127831577D01*
X131071503Y-127831580D01*
X131127511Y-127941500D01*
X131157022Y-127999419D01*
X131159294Y-128003877D01*
X131272946Y-128160307D01*
X131272950Y-128160312D01*
X131409687Y-128297049D01*
X131409692Y-128297053D01*
X131524055Y-128380142D01*
X131566126Y-128410708D01*
X131678756Y-128468095D01*
X131738419Y-128498496D01*
X131738422Y-128498497D01*
X131830373Y-128528373D01*
X131922326Y-128558250D01*
X132113315Y-128588500D01*
X132113316Y-128588500D01*
X132306684Y-128588500D01*
X132306685Y-128588500D01*
X132497674Y-128558250D01*
X132681580Y-128498496D01*
X132853874Y-128410708D01*
X133010314Y-128297048D01*
X133147048Y-128160314D01*
X133260708Y-128003874D01*
X133348496Y-127831580D01*
X133362069Y-127789807D01*
X133401506Y-127732132D01*
X133465865Y-127704933D01*
X133534711Y-127716847D01*
X133586187Y-127764091D01*
X133597931Y-127789807D01*
X133611502Y-127831577D01*
X133611503Y-127831580D01*
X133667511Y-127941500D01*
X133697022Y-127999419D01*
X133699294Y-128003877D01*
X133812946Y-128160307D01*
X133812950Y-128160312D01*
X133949687Y-128297049D01*
X133949692Y-128297053D01*
X134064055Y-128380142D01*
X134106126Y-128410708D01*
X134218756Y-128468095D01*
X134278419Y-128498496D01*
X134278422Y-128498497D01*
X134370373Y-128528373D01*
X134462326Y-128558250D01*
X134653315Y-128588500D01*
X134653316Y-128588500D01*
X134846684Y-128588500D01*
X134846685Y-128588500D01*
X135037674Y-128558250D01*
X135221580Y-128498496D01*
X135393874Y-128410708D01*
X135550314Y-128297048D01*
X135687048Y-128160314D01*
X135800708Y-128003874D01*
X135888496Y-127831580D01*
X135906538Y-127776053D01*
X135945975Y-127718377D01*
X136010333Y-127691178D01*
X136079180Y-127703092D01*
X136130656Y-127750336D01*
X136142400Y-127776051D01*
X136159383Y-127828321D01*
X136246561Y-127999415D01*
X136267798Y-128028646D01*
X136890000Y-127406445D01*
X136890000Y-127412661D01*
X136917259Y-127514394D01*
X136969920Y-127605606D01*
X137044394Y-127680080D01*
X137135606Y-127732741D01*
X137237339Y-127760000D01*
X137243554Y-127760000D01*
X136621351Y-128382200D01*
X136621352Y-128382201D01*
X136650577Y-128403434D01*
X136821678Y-128490616D01*
X137004315Y-128549959D01*
X137193985Y-128580000D01*
X137386015Y-128580000D01*
X137575684Y-128549959D01*
X137758321Y-128490616D01*
X137929419Y-128403436D01*
X137958646Y-128382201D01*
X137958646Y-128382200D01*
X137336447Y-127760000D01*
X137342661Y-127760000D01*
X137444394Y-127732741D01*
X137535606Y-127680080D01*
X137610080Y-127605606D01*
X137662741Y-127514394D01*
X137690000Y-127412661D01*
X137690000Y-127406446D01*
X138312200Y-128028646D01*
X138312201Y-128028646D01*
X138333436Y-127999419D01*
X138420616Y-127828321D01*
X138479959Y-127645684D01*
X138510000Y-127456015D01*
X138510000Y-127263984D01*
X138479959Y-127074315D01*
X138420616Y-126891678D01*
X138333434Y-126720577D01*
X138312201Y-126691352D01*
X138312200Y-126691351D01*
X137690000Y-127313552D01*
X137690000Y-127307339D01*
X137662741Y-127205606D01*
X137610080Y-127114394D01*
X137535606Y-127039920D01*
X137444394Y-126987259D01*
X137342661Y-126960000D01*
X137336447Y-126960000D01*
X137958646Y-126337798D01*
X137929415Y-126316561D01*
X137758321Y-126229383D01*
X137575684Y-126170040D01*
X137386015Y-126140000D01*
X137193985Y-126140000D01*
X137004315Y-126170040D01*
X136821678Y-126229383D01*
X136650578Y-126316564D01*
X136621352Y-126337798D01*
X136621351Y-126337798D01*
X137243554Y-126960000D01*
X137237339Y-126960000D01*
X137135606Y-126987259D01*
X137044394Y-127039920D01*
X136969920Y-127114394D01*
X136917259Y-127205606D01*
X136890000Y-127307339D01*
X136890000Y-127313553D01*
X136267798Y-126691351D01*
X136267798Y-126691352D01*
X136246564Y-126720578D01*
X136159383Y-126891679D01*
X136142400Y-126943948D01*
X136102961Y-127001623D01*
X136038603Y-127028821D01*
X135969756Y-127016906D01*
X135918281Y-126969661D01*
X135906538Y-126943947D01*
X135888497Y-126888422D01*
X135888496Y-126888419D01*
X135841600Y-126796381D01*
X135800708Y-126716126D01*
X135782708Y-126691351D01*
X135687053Y-126559692D01*
X135687049Y-126559687D01*
X135550312Y-126422950D01*
X135550307Y-126422946D01*
X135393877Y-126309294D01*
X135393876Y-126309293D01*
X135393874Y-126309292D01*
X135338675Y-126281166D01*
X135221580Y-126221503D01*
X135221577Y-126221502D01*
X135037675Y-126161750D01*
X134886120Y-126137746D01*
X134846685Y-126131500D01*
X134653315Y-126131500D01*
X134613880Y-126137746D01*
X134462324Y-126161750D01*
X134278422Y-126221502D01*
X134278419Y-126221503D01*
X134106122Y-126309294D01*
X133949692Y-126422946D01*
X133949687Y-126422950D01*
X133812950Y-126559687D01*
X133812946Y-126559692D01*
X133699294Y-126716122D01*
X133611503Y-126888419D01*
X133611502Y-126888422D01*
X133597931Y-126930192D01*
X133558493Y-126987868D01*
X133494135Y-127015066D01*
X133425288Y-127003151D01*
X133373813Y-126955907D01*
X133362069Y-126930192D01*
X133348497Y-126888422D01*
X133348496Y-126888419D01*
X133301600Y-126796381D01*
X133260708Y-126716126D01*
X133242708Y-126691351D01*
X133147053Y-126559692D01*
X133147049Y-126559687D01*
X133010312Y-126422950D01*
X133010307Y-126422946D01*
X132853877Y-126309294D01*
X132853876Y-126309293D01*
X132853874Y-126309292D01*
X132798675Y-126281166D01*
X132681580Y-126221503D01*
X132681577Y-126221502D01*
X132497675Y-126161750D01*
X132346120Y-126137746D01*
X132306685Y-126131500D01*
X132113315Y-126131500D01*
X132073880Y-126137746D01*
X131922324Y-126161750D01*
X131738422Y-126221502D01*
X131738419Y-126221503D01*
X131566122Y-126309294D01*
X131409692Y-126422946D01*
X131409687Y-126422950D01*
X131272950Y-126559687D01*
X131272946Y-126559692D01*
X131159294Y-126716122D01*
X131071503Y-126888419D01*
X131071502Y-126888422D01*
X131011750Y-127072324D01*
X130981500Y-127263315D01*
X128495094Y-127263315D01*
X128586961Y-127091444D01*
X128709180Y-126796381D01*
X128801889Y-126490760D01*
X128864196Y-126177523D01*
X128895500Y-125859687D01*
X128895500Y-125540313D01*
X128864196Y-125222477D01*
X128801889Y-124909240D01*
X128709180Y-124603619D01*
X128586961Y-124308556D01*
X128578450Y-124292634D01*
X128436415Y-124026905D01*
X128436413Y-124026903D01*
X128436409Y-124026894D01*
X128436398Y-124026877D01*
X128258987Y-123761361D01*
X128258980Y-123761351D01*
X128258975Y-123761344D01*
X128056366Y-123514465D01*
X128056365Y-123514464D01*
X128056361Y-123514459D01*
X127830540Y-123288638D01*
X127583661Y-123086029D01*
X127583647Y-123086018D01*
X127567529Y-123075249D01*
X127567527Y-123075247D01*
X127420517Y-122977019D01*
X134481500Y-122977019D01*
X134481500Y-123182980D01*
X134513719Y-123386408D01*
X134577367Y-123582294D01*
X134670873Y-123765806D01*
X134791926Y-123932423D01*
X134791930Y-123932428D01*
X134937571Y-124078069D01*
X134937576Y-124078073D01*
X135082908Y-124183661D01*
X135104197Y-124199129D01*
X135221128Y-124258709D01*
X135287705Y-124292632D01*
X135287707Y-124292632D01*
X135287710Y-124292634D01*
X135336704Y-124308553D01*
X135483591Y-124356280D01*
X135585305Y-124372390D01*
X135687019Y-124388500D01*
X135687020Y-124388500D01*
X135892980Y-124388500D01*
X135892981Y-124388500D01*
X136096408Y-124356280D01*
X136292290Y-124292634D01*
X136475803Y-124199129D01*
X136642430Y-124078068D01*
X136788068Y-123932430D01*
X136909129Y-123765803D01*
X137002634Y-123582290D01*
X137066280Y-123386408D01*
X137098500Y-123182981D01*
X137098500Y-122977019D01*
X137066280Y-122773592D01*
X137061227Y-122758042D01*
X137002632Y-122577705D01*
X136968709Y-122511128D01*
X136909129Y-122394197D01*
X136893661Y-122372908D01*
X136788073Y-122227576D01*
X136788069Y-122227571D01*
X136642428Y-122081930D01*
X136642423Y-122081926D01*
X136475806Y-121960873D01*
X136475805Y-121960872D01*
X136475803Y-121960871D01*
X136418496Y-121931671D01*
X136292294Y-121867367D01*
X136246752Y-121852569D01*
X136189249Y-121833886D01*
X136096408Y-121803719D01*
X135920794Y-121775905D01*
X135892981Y-121771500D01*
X135687019Y-121771500D01*
X135662550Y-121775375D01*
X135483591Y-121803719D01*
X135287705Y-121867367D01*
X135104193Y-121960873D01*
X134937576Y-122081926D01*
X134937571Y-122081930D01*
X134791930Y-122227571D01*
X134791926Y-122227576D01*
X134670873Y-122394193D01*
X134577367Y-122577705D01*
X134513719Y-122773591D01*
X134481500Y-122977019D01*
X127420517Y-122977019D01*
X127318122Y-122908601D01*
X127318094Y-122908584D01*
X127036451Y-122758042D01*
X127036446Y-122758040D01*
X126741382Y-122635820D01*
X126435754Y-122543109D01*
X126122521Y-122480803D01*
X126122522Y-122480803D01*
X125883141Y-122457227D01*
X125804687Y-122449500D01*
X125485313Y-122449500D01*
X125412822Y-122456639D01*
X125167477Y-122480803D01*
X124854245Y-122543109D01*
X124548617Y-122635820D01*
X124253553Y-122758040D01*
X124253548Y-122758042D01*
X123971905Y-122908584D01*
X123971877Y-122908601D01*
X123706361Y-123086012D01*
X123706338Y-123086029D01*
X123459459Y-123288638D01*
X123233638Y-123514459D01*
X123031029Y-123761338D01*
X123031012Y-123761361D01*
X122853601Y-124026877D01*
X122853584Y-124026905D01*
X122703042Y-124308548D01*
X122703040Y-124308553D01*
X122580820Y-124603617D01*
X122488109Y-124909245D01*
X122425803Y-125222477D01*
X122401639Y-125467822D01*
X122398087Y-125503899D01*
X122394500Y-125540316D01*
X117350168Y-125540316D01*
X117350147Y-125503899D01*
X117350146Y-125503898D01*
X117350132Y-125479256D01*
X117350131Y-125479252D01*
X117349427Y-124292634D01*
X117347905Y-121726345D01*
X138726500Y-121726345D01*
X138726500Y-123523654D01*
X138733011Y-123584202D01*
X138733011Y-123584204D01*
X138784111Y-123721204D01*
X138871739Y-123838261D01*
X138988796Y-123925889D01*
X139125799Y-123976989D01*
X139153050Y-123979918D01*
X139186345Y-123983499D01*
X139186362Y-123983500D01*
X140983638Y-123983500D01*
X140983654Y-123983499D01*
X141010692Y-123980591D01*
X141044201Y-123976989D01*
X141181204Y-123925889D01*
X141298261Y-123838261D01*
X141385889Y-123721204D01*
X141436989Y-123584201D01*
X141440591Y-123550692D01*
X141443499Y-123523654D01*
X141443500Y-123523637D01*
X141443500Y-121726362D01*
X141443499Y-121726345D01*
X141440157Y-121695270D01*
X141436989Y-121665799D01*
X141385889Y-121528796D01*
X141298261Y-121411739D01*
X141181204Y-121324111D01*
X141044203Y-121273011D01*
X140983654Y-121266500D01*
X140983638Y-121266500D01*
X140964309Y-121266500D01*
X140897270Y-121246815D01*
X140876628Y-121230181D01*
X140214408Y-120567962D01*
X140277993Y-120550925D01*
X140392007Y-120485099D01*
X140485099Y-120392007D01*
X140550925Y-120277993D01*
X140567962Y-120214409D01*
X141200270Y-120846717D01*
X141200270Y-120846716D01*
X141239622Y-120792554D01*
X141336095Y-120603217D01*
X141401757Y-120401130D01*
X141401757Y-120401127D01*
X141435000Y-120191246D01*
X141435000Y-119978753D01*
X141401757Y-119768872D01*
X141401757Y-119768869D01*
X141336095Y-119566782D01*
X141239624Y-119377449D01*
X141200270Y-119323282D01*
X141200269Y-119323282D01*
X140567962Y-119955590D01*
X140550925Y-119892007D01*
X140485099Y-119777993D01*
X140392007Y-119684901D01*
X140277993Y-119619075D01*
X140214409Y-119602037D01*
X140846716Y-118969728D01*
X140792550Y-118930375D01*
X140603217Y-118833904D01*
X140401129Y-118768242D01*
X140191246Y-118735000D01*
X139978754Y-118735000D01*
X139768872Y-118768242D01*
X139768869Y-118768242D01*
X139566782Y-118833904D01*
X139377439Y-118930380D01*
X139323282Y-118969727D01*
X139323282Y-118969728D01*
X139955591Y-119602037D01*
X139892007Y-119619075D01*
X139777993Y-119684901D01*
X139684901Y-119777993D01*
X139619075Y-119892007D01*
X139602037Y-119955591D01*
X138969728Y-119323282D01*
X138969727Y-119323282D01*
X138930380Y-119377439D01*
X138833904Y-119566782D01*
X138768242Y-119768869D01*
X138768242Y-119768872D01*
X138735000Y-119978753D01*
X138735000Y-120191246D01*
X138768242Y-120401127D01*
X138768242Y-120401130D01*
X138833904Y-120603217D01*
X138930375Y-120792550D01*
X138969728Y-120846716D01*
X139602037Y-120214408D01*
X139619075Y-120277993D01*
X139684901Y-120392007D01*
X139777993Y-120485099D01*
X139892007Y-120550925D01*
X139955591Y-120567962D01*
X139293371Y-121230181D01*
X139232048Y-121263666D01*
X139205690Y-121266500D01*
X139186345Y-121266500D01*
X139125797Y-121273011D01*
X139125795Y-121273011D01*
X138988795Y-121324111D01*
X138871739Y-121411739D01*
X138784111Y-121528795D01*
X138733011Y-121665795D01*
X138733011Y-121665797D01*
X138726500Y-121726345D01*
X117347905Y-121726345D01*
X117342620Y-112817019D01*
X134481500Y-112817019D01*
X134481500Y-113022980D01*
X134513719Y-113226408D01*
X134577367Y-113422294D01*
X134641671Y-113548496D01*
X134667914Y-113600000D01*
X134670873Y-113605806D01*
X134791926Y-113772423D01*
X134791930Y-113772428D01*
X134937571Y-113918069D01*
X134937576Y-113918073D01*
X135082908Y-114023661D01*
X135104197Y-114039129D01*
X135216793Y-114096500D01*
X135287705Y-114132632D01*
X135287707Y-114132632D01*
X135287710Y-114132634D01*
X135374781Y-114160925D01*
X135483591Y-114196280D01*
X135531721Y-114203903D01*
X135687019Y-114228500D01*
X135687020Y-114228500D01*
X135892980Y-114228500D01*
X135892981Y-114228500D01*
X136096408Y-114196280D01*
X136292290Y-114132634D01*
X136475803Y-114039129D01*
X136642430Y-113918068D01*
X136788068Y-113772430D01*
X136855502Y-113679613D01*
X136910831Y-113636949D01*
X136955820Y-113628500D01*
X137540167Y-113628500D01*
X137607206Y-113648185D01*
X137627848Y-113664819D01*
X138485181Y-114522151D01*
X138518666Y-114583474D01*
X138521500Y-114609832D01*
X138521500Y-115100537D01*
X138521501Y-115100553D01*
X138525213Y-115136884D01*
X138532113Y-115204426D01*
X138587885Y-115372738D01*
X138680970Y-115523652D01*
X138806348Y-115649030D01*
X138957262Y-115742115D01*
X139125574Y-115797887D01*
X139229455Y-115808500D01*
X140030544Y-115808499D01*
X140134426Y-115797887D01*
X140302738Y-115742115D01*
X140446808Y-115653250D01*
X140514198Y-115634811D01*
X140568199Y-115648306D01*
X140707740Y-115719407D01*
X140872415Y-115772914D01*
X141043429Y-115800000D01*
X141216571Y-115800000D01*
X141387584Y-115772914D01*
X141552257Y-115719408D01*
X141706525Y-115640803D01*
X141712736Y-115636289D01*
X141071301Y-114994854D01*
X141090504Y-115000000D01*
X141169496Y-115000000D01*
X141245796Y-114979556D01*
X141314205Y-114940060D01*
X141370060Y-114884205D01*
X141409556Y-114815796D01*
X141430000Y-114739496D01*
X141430000Y-114699999D01*
X141483553Y-114699999D01*
X141483553Y-114700000D01*
X142066289Y-115282736D01*
X142070803Y-115276525D01*
X142149408Y-115122257D01*
X142202914Y-114957584D01*
X142230000Y-114786571D01*
X142230000Y-114613428D01*
X142202914Y-114442415D01*
X142149408Y-114277742D01*
X142070801Y-114123471D01*
X142066290Y-114117262D01*
X142066289Y-114117261D01*
X141483553Y-114699999D01*
X141430000Y-114699999D01*
X141430000Y-114660504D01*
X141409556Y-114584204D01*
X141370060Y-114515795D01*
X141314205Y-114459940D01*
X141245796Y-114420444D01*
X141169496Y-114400000D01*
X141090504Y-114400000D01*
X141071300Y-114405145D01*
X141712737Y-113763709D01*
X141706525Y-113759196D01*
X141552259Y-113680592D01*
X141387584Y-113627085D01*
X141216571Y-113600000D01*
X141043429Y-113600000D01*
X140872415Y-113627085D01*
X140707742Y-113680591D01*
X140568198Y-113751694D01*
X140499529Y-113764590D01*
X140446806Y-113746747D01*
X140302746Y-113657889D01*
X140302740Y-113657886D01*
X140302738Y-113657885D01*
X140273465Y-113648185D01*
X140134427Y-113602113D01*
X140030552Y-113591500D01*
X140030545Y-113591500D01*
X139609832Y-113591500D01*
X139542793Y-113571815D01*
X139522151Y-113555181D01*
X138336645Y-112369673D01*
X138336638Y-112369668D01*
X138220603Y-112292136D01*
X138220599Y-112292134D01*
X138193896Y-112281073D01*
X138129427Y-112254369D01*
X138129426Y-112254368D01*
X138091664Y-112238727D01*
X138091658Y-112238725D01*
X138023221Y-112225113D01*
X137954785Y-112211500D01*
X137954782Y-112211500D01*
X137954781Y-112211500D01*
X136955820Y-112211500D01*
X136888781Y-112191815D01*
X136855503Y-112160387D01*
X136788068Y-112067570D01*
X136642430Y-111921932D01*
X136642428Y-111921930D01*
X136642423Y-111921926D01*
X136475806Y-111800873D01*
X136475805Y-111800872D01*
X136475803Y-111800871D01*
X136418496Y-111771671D01*
X136292294Y-111707367D01*
X136096408Y-111643719D01*
X135920794Y-111615905D01*
X135892981Y-111611500D01*
X135687019Y-111611500D01*
X135662550Y-111615375D01*
X135483591Y-111643719D01*
X135287705Y-111707367D01*
X135104193Y-111800873D01*
X134937576Y-111921926D01*
X134937571Y-111921930D01*
X134791930Y-112067571D01*
X134791926Y-112067576D01*
X134670873Y-112234193D01*
X134577367Y-112417705D01*
X134513719Y-112613591D01*
X134481500Y-112817019D01*
X117342620Y-112817019D01*
X117338134Y-105253084D01*
X117611500Y-105253084D01*
X117611500Y-105466915D01*
X117644951Y-105678117D01*
X117711026Y-105881480D01*
X117711027Y-105881483D01*
X117782245Y-106021254D01*
X117808106Y-106072009D01*
X117933794Y-106245004D01*
X118084996Y-106396206D01*
X118257991Y-106521894D01*
X118346883Y-106567187D01*
X118448516Y-106618972D01*
X118448519Y-106618973D01*
X118550200Y-106652010D01*
X118651884Y-106685049D01*
X118863084Y-106718500D01*
X118863085Y-106718500D01*
X119076915Y-106718500D01*
X119076916Y-106718500D01*
X119288116Y-106685049D01*
X119491483Y-106618972D01*
X119682009Y-106521894D01*
X119855004Y-106396206D01*
X120006206Y-106245004D01*
X120131894Y-106072009D01*
X120131896Y-106072004D01*
X120134270Y-106068132D01*
X120186080Y-106021254D01*
X120255009Y-106009829D01*
X120319173Y-106037483D01*
X120345730Y-106068132D01*
X120348103Y-106072005D01*
X120348106Y-106072009D01*
X120473794Y-106245004D01*
X120624996Y-106396206D01*
X120797991Y-106521894D01*
X120886883Y-106567187D01*
X120988516Y-106618972D01*
X120988519Y-106618973D01*
X121090200Y-106652010D01*
X121191884Y-106685049D01*
X121403084Y-106718500D01*
X121403085Y-106718500D01*
X121616915Y-106718500D01*
X121616916Y-106718500D01*
X121828116Y-106685049D01*
X122031483Y-106618972D01*
X122222009Y-106521894D01*
X122395004Y-106396206D01*
X122506791Y-106284418D01*
X122568110Y-106250936D01*
X122637802Y-106255920D01*
X122693736Y-106297791D01*
X122710651Y-106328769D01*
X122756645Y-106452086D01*
X122756649Y-106452093D01*
X122842809Y-106567187D01*
X122842812Y-106567190D01*
X122957906Y-106653350D01*
X122957913Y-106653354D01*
X123092620Y-106703596D01*
X123092627Y-106703598D01*
X123152155Y-106709999D01*
X123152172Y-106710000D01*
X123800000Y-106710000D01*
X123800000Y-105804560D01*
X123853147Y-105835245D01*
X123982857Y-105870000D01*
X124117143Y-105870000D01*
X124246853Y-105835245D01*
X124300000Y-105804560D01*
X124300000Y-106710000D01*
X124947828Y-106710000D01*
X124947844Y-106709999D01*
X125007372Y-106703598D01*
X125007379Y-106703596D01*
X125142086Y-106653354D01*
X125142093Y-106653350D01*
X125257187Y-106567190D01*
X125257190Y-106567187D01*
X125343350Y-106452093D01*
X125343355Y-106452084D01*
X125389348Y-106328770D01*
X125431219Y-106272836D01*
X125496683Y-106248418D01*
X125564956Y-106263269D01*
X125593211Y-106284421D01*
X125704996Y-106396206D01*
X125877991Y-106521894D01*
X125966883Y-106567187D01*
X126068516Y-106618972D01*
X126068519Y-106618973D01*
X126170200Y-106652010D01*
X126271884Y-106685049D01*
X126483084Y-106718500D01*
X126483085Y-106718500D01*
X126696915Y-106718500D01*
X126696916Y-106718500D01*
X126908116Y-106685049D01*
X127111483Y-106618972D01*
X127302009Y-106521894D01*
X127475004Y-106396206D01*
X127626206Y-106245004D01*
X127751894Y-106072009D01*
X127751896Y-106072004D01*
X127754270Y-106068132D01*
X127806080Y-106021254D01*
X127875009Y-106009829D01*
X127939173Y-106037483D01*
X127965730Y-106068132D01*
X127968103Y-106072005D01*
X127968106Y-106072009D01*
X128093794Y-106245004D01*
X128244996Y-106396206D01*
X128417991Y-106521894D01*
X128506883Y-106567187D01*
X128608516Y-106618972D01*
X128608519Y-106618973D01*
X128710200Y-106652010D01*
X128811884Y-106685049D01*
X129023084Y-106718500D01*
X129023085Y-106718500D01*
X129236915Y-106718500D01*
X129236916Y-106718500D01*
X129448116Y-106685049D01*
X129454529Y-106682964D01*
X129524368Y-106680966D01*
X129580532Y-106713213D01*
X133831481Y-110964163D01*
X133831485Y-110964166D01*
X133955708Y-111047170D01*
X133955721Y-111047177D01*
X134031106Y-111078402D01*
X134093753Y-111104351D01*
X134126253Y-111110815D01*
X134166970Y-111118915D01*
X134166997Y-111118919D01*
X134167024Y-111118925D01*
X134240294Y-111133500D01*
X134240295Y-111133500D01*
X134389705Y-111133500D01*
X145392500Y-111133500D01*
X145459539Y-111153185D01*
X145505294Y-111205989D01*
X145516500Y-111257500D01*
X145516500Y-111273654D01*
X145523011Y-111334202D01*
X145523011Y-111334204D01*
X145574111Y-111471204D01*
X145661739Y-111588261D01*
X145778796Y-111675889D01*
X145915799Y-111726989D01*
X145943050Y-111729918D01*
X145976345Y-111733499D01*
X145976362Y-111733500D01*
X147773638Y-111733500D01*
X147773654Y-111733499D01*
X147800692Y-111730591D01*
X147834201Y-111726989D01*
X147971204Y-111675889D01*
X148088261Y-111588261D01*
X148175889Y-111471204D01*
X148224223Y-111341615D01*
X148266093Y-111285686D01*
X148331557Y-111261269D01*
X148399830Y-111276121D01*
X148428084Y-111297272D01*
X148535535Y-111404723D01*
X148535540Y-111404727D01*
X148707442Y-111529620D01*
X148896782Y-111626095D01*
X149098871Y-111691757D01*
X149165000Y-111702231D01*
X149165000Y-110808012D01*
X149222007Y-110840925D01*
X149349174Y-110875000D01*
X149480826Y-110875000D01*
X149607993Y-110840925D01*
X149665000Y-110808012D01*
X149665000Y-111702230D01*
X149731126Y-111691757D01*
X149731129Y-111691757D01*
X149933217Y-111626095D01*
X150122557Y-111529620D01*
X150294459Y-111404727D01*
X150294464Y-111404723D01*
X150444723Y-111254464D01*
X150444727Y-111254459D01*
X150569619Y-111082560D01*
X150569738Y-111082327D01*
X150569808Y-111082252D01*
X150572168Y-111078402D01*
X150572976Y-111078897D01*
X150617707Y-111031526D01*
X150685526Y-111014723D01*
X150751663Y-111037254D01*
X150790712Y-111082311D01*
X150793105Y-111087008D01*
X150805706Y-111104352D01*
X150918794Y-111260004D01*
X151069996Y-111411206D01*
X151242991Y-111536894D01*
X151327499Y-111579953D01*
X151433516Y-111633972D01*
X151433519Y-111633973D01*
X151507022Y-111657855D01*
X151636884Y-111700049D01*
X151848084Y-111733500D01*
X151848085Y-111733500D01*
X152061915Y-111733500D01*
X152061916Y-111733500D01*
X152273116Y-111700049D01*
X152476483Y-111633972D01*
X152667009Y-111536894D01*
X152840004Y-111411206D01*
X152991206Y-111260004D01*
X153116894Y-111087009D01*
X153116896Y-111087004D01*
X153119270Y-111083132D01*
X153171080Y-111036254D01*
X153240009Y-111024829D01*
X153304173Y-111052483D01*
X153330730Y-111083132D01*
X153333103Y-111087005D01*
X153333105Y-111087008D01*
X153333106Y-111087009D01*
X153458794Y-111260004D01*
X153609996Y-111411206D01*
X153782991Y-111536894D01*
X153867499Y-111579953D01*
X153973516Y-111633972D01*
X153973519Y-111633973D01*
X154047022Y-111657855D01*
X154176884Y-111700049D01*
X154388084Y-111733500D01*
X154388085Y-111733500D01*
X154601915Y-111733500D01*
X154601916Y-111733500D01*
X154813116Y-111700049D01*
X155016483Y-111633972D01*
X155207009Y-111536894D01*
X155380004Y-111411206D01*
X155531206Y-111260004D01*
X155656894Y-111087009D01*
X155656896Y-111087004D01*
X155659270Y-111083132D01*
X155711080Y-111036254D01*
X155780009Y-111024829D01*
X155844173Y-111052483D01*
X155870730Y-111083132D01*
X155873103Y-111087005D01*
X155873105Y-111087008D01*
X155873106Y-111087009D01*
X155998794Y-111260004D01*
X156149996Y-111411206D01*
X156322991Y-111536894D01*
X156407499Y-111579953D01*
X156513516Y-111633972D01*
X156513519Y-111633973D01*
X156587022Y-111657855D01*
X156716884Y-111700049D01*
X156928084Y-111733500D01*
X156928085Y-111733500D01*
X157141915Y-111733500D01*
X157141916Y-111733500D01*
X157353116Y-111700049D01*
X157556483Y-111633972D01*
X157747009Y-111536894D01*
X157920004Y-111411206D01*
X158071206Y-111260004D01*
X158196894Y-111087009D01*
X158196896Y-111087004D01*
X158199270Y-111083132D01*
X158251080Y-111036254D01*
X158320009Y-111024829D01*
X158384173Y-111052483D01*
X158410730Y-111083132D01*
X158413103Y-111087005D01*
X158413105Y-111087008D01*
X158413106Y-111087009D01*
X158538794Y-111260004D01*
X158689996Y-111411206D01*
X158862991Y-111536894D01*
X158947499Y-111579953D01*
X159053516Y-111633972D01*
X159053519Y-111633973D01*
X159127022Y-111657855D01*
X159256884Y-111700049D01*
X159468084Y-111733500D01*
X159468085Y-111733500D01*
X159681915Y-111733500D01*
X159681916Y-111733500D01*
X159893116Y-111700049D01*
X160096483Y-111633972D01*
X160287009Y-111536894D01*
X160460004Y-111411206D01*
X160611206Y-111260004D01*
X160736894Y-111087009D01*
X160736896Y-111087004D01*
X160739270Y-111083132D01*
X160791080Y-111036254D01*
X160860009Y-111024829D01*
X160924173Y-111052483D01*
X160950730Y-111083132D01*
X160953103Y-111087005D01*
X160953105Y-111087008D01*
X160953106Y-111087009D01*
X161078794Y-111260004D01*
X161229996Y-111411206D01*
X161402991Y-111536894D01*
X161487499Y-111579953D01*
X161593516Y-111633972D01*
X161593519Y-111633973D01*
X161667022Y-111657855D01*
X161796884Y-111700049D01*
X162008084Y-111733500D01*
X162008085Y-111733500D01*
X162221915Y-111733500D01*
X162221916Y-111733500D01*
X162431145Y-111700361D01*
X162500438Y-111709316D01*
X162553890Y-111754312D01*
X162574530Y-111821063D01*
X162555805Y-111888377D01*
X162538224Y-111910515D01*
X162343559Y-112105181D01*
X162282236Y-112138666D01*
X162255878Y-112141500D01*
X153725141Y-112141500D01*
X153597928Y-112166804D01*
X153597922Y-112166806D01*
X153478086Y-112216443D01*
X153478079Y-112216447D01*
X153370228Y-112288510D01*
X151497813Y-114160925D01*
X151448455Y-114191173D01*
X151433525Y-114196024D01*
X151433523Y-114196025D01*
X151433517Y-114196027D01*
X151433517Y-114196028D01*
X151418061Y-114203903D01*
X151242990Y-114293106D01*
X151069993Y-114418796D01*
X150918796Y-114569993D01*
X150793105Y-114742991D01*
X150790727Y-114746873D01*
X150738914Y-114793748D01*
X150669984Y-114805169D01*
X150605822Y-114777512D01*
X150579273Y-114746873D01*
X150576894Y-114742991D01*
X150545659Y-114700000D01*
X150451206Y-114569996D01*
X150300004Y-114418794D01*
X150127009Y-114293106D01*
X150096856Y-114277742D01*
X149936483Y-114196027D01*
X149936480Y-114196026D01*
X149733117Y-114129951D01*
X149627516Y-114113225D01*
X149521916Y-114096500D01*
X149308084Y-114096500D01*
X149237684Y-114107650D01*
X149096882Y-114129951D01*
X148893519Y-114196026D01*
X148893516Y-114196027D01*
X148702990Y-114293106D01*
X148529993Y-114418796D01*
X148378796Y-114569993D01*
X148253105Y-114742991D01*
X148250727Y-114746873D01*
X148198914Y-114793748D01*
X148129984Y-114805169D01*
X148065822Y-114777512D01*
X148039273Y-114746873D01*
X148036894Y-114742991D01*
X148005659Y-114700000D01*
X147911206Y-114569996D01*
X147760004Y-114418794D01*
X147587009Y-114293106D01*
X147556856Y-114277742D01*
X147396483Y-114196027D01*
X147396480Y-114196026D01*
X147193117Y-114129951D01*
X147087516Y-114113225D01*
X146981916Y-114096500D01*
X146768084Y-114096500D01*
X146697684Y-114107650D01*
X146556882Y-114129951D01*
X146353519Y-114196026D01*
X146353516Y-114196027D01*
X146162990Y-114293106D01*
X145989993Y-114418796D01*
X145838796Y-114569993D01*
X145713106Y-114742990D01*
X145616027Y-114933516D01*
X145616026Y-114933519D01*
X145549951Y-115136882D01*
X145516500Y-115348084D01*
X145516500Y-115561915D01*
X145549951Y-115773117D01*
X145616026Y-115976480D01*
X145616027Y-115976483D01*
X145708917Y-116158788D01*
X145713106Y-116167009D01*
X145838794Y-116340004D01*
X145989996Y-116491206D01*
X146162991Y-116616894D01*
X146211340Y-116641529D01*
X146353516Y-116713972D01*
X146353519Y-116713973D01*
X146407149Y-116731398D01*
X146556884Y-116780049D01*
X146768084Y-116813500D01*
X146768085Y-116813500D01*
X146981915Y-116813500D01*
X146981916Y-116813500D01*
X147193116Y-116780049D01*
X147396483Y-116713972D01*
X147587009Y-116616894D01*
X147760004Y-116491206D01*
X147911206Y-116340004D01*
X148036894Y-116167009D01*
X148036896Y-116167004D01*
X148039270Y-116163132D01*
X148091080Y-116116254D01*
X148160009Y-116104829D01*
X148224173Y-116132483D01*
X148250730Y-116163132D01*
X148253103Y-116167005D01*
X148253106Y-116167009D01*
X148378794Y-116340004D01*
X148529996Y-116491206D01*
X148702991Y-116616894D01*
X148751340Y-116641529D01*
X148893516Y-116713972D01*
X148893519Y-116713973D01*
X148947149Y-116731398D01*
X149096884Y-116780049D01*
X149308084Y-116813500D01*
X149308085Y-116813500D01*
X149521915Y-116813500D01*
X149521916Y-116813500D01*
X149733116Y-116780049D01*
X149936483Y-116713972D01*
X150127009Y-116616894D01*
X150300004Y-116491206D01*
X150451206Y-116340004D01*
X150576894Y-116167009D01*
X150576896Y-116167004D01*
X150579270Y-116163132D01*
X150631080Y-116116254D01*
X150700009Y-116104829D01*
X150764173Y-116132483D01*
X150790730Y-116163132D01*
X150793103Y-116167005D01*
X150793106Y-116167009D01*
X150918794Y-116340004D01*
X151069996Y-116491206D01*
X151242991Y-116616894D01*
X151291340Y-116641529D01*
X151433516Y-116713972D01*
X151433519Y-116713973D01*
X151487149Y-116731398D01*
X151636884Y-116780049D01*
X151848084Y-116813500D01*
X151848085Y-116813500D01*
X152061915Y-116813500D01*
X152061916Y-116813500D01*
X152273116Y-116780049D01*
X152476483Y-116713972D01*
X152667009Y-116616894D01*
X152840004Y-116491206D01*
X152991206Y-116340004D01*
X153116894Y-116167009D01*
X153116896Y-116167004D01*
X153119270Y-116163132D01*
X153171080Y-116116254D01*
X153240009Y-116104829D01*
X153304173Y-116132483D01*
X153330730Y-116163132D01*
X153333103Y-116167005D01*
X153333106Y-116167009D01*
X153458794Y-116340004D01*
X153609996Y-116491206D01*
X153782991Y-116616894D01*
X153831340Y-116641529D01*
X153973516Y-116713972D01*
X153973519Y-116713973D01*
X154027149Y-116731398D01*
X154176884Y-116780049D01*
X154388084Y-116813500D01*
X154388085Y-116813500D01*
X154601915Y-116813500D01*
X154601916Y-116813500D01*
X154813116Y-116780049D01*
X155016483Y-116713972D01*
X155207009Y-116616894D01*
X155380004Y-116491206D01*
X155531206Y-116340004D01*
X155656894Y-116167009D01*
X155656896Y-116167004D01*
X155659270Y-116163132D01*
X155711080Y-116116254D01*
X155780009Y-116104829D01*
X155844173Y-116132483D01*
X155870730Y-116163132D01*
X155873103Y-116167005D01*
X155873106Y-116167009D01*
X155998794Y-116340004D01*
X156149996Y-116491206D01*
X156248603Y-116562848D01*
X156275386Y-116582307D01*
X156318051Y-116637637D01*
X156326500Y-116682625D01*
X156326500Y-117004786D01*
X156353724Y-117141653D01*
X156353727Y-117141662D01*
X156407135Y-117270601D01*
X156407136Y-117270604D01*
X156484671Y-117386642D01*
X156484674Y-117386646D01*
X157448354Y-118350325D01*
X157448358Y-118350328D01*
X157564400Y-118427865D01*
X157639930Y-118459150D01*
X157693338Y-118481273D01*
X157761776Y-118494886D01*
X157830214Y-118508499D01*
X157830218Y-118508500D01*
X157830219Y-118508500D01*
X166319782Y-118508500D01*
X166388221Y-118494886D01*
X166456662Y-118481273D01*
X166494427Y-118465630D01*
X166585601Y-118427865D01*
X166701643Y-118350328D01*
X167780328Y-117271643D01*
X167857865Y-117155601D01*
X167884416Y-117091500D01*
X167911273Y-117026662D01*
X167938500Y-116889781D01*
X167938500Y-106587625D01*
X167958185Y-106520586D01*
X167989614Y-106487307D01*
X168115004Y-106396206D01*
X168266206Y-106245004D01*
X168391894Y-106072009D01*
X168488972Y-105881483D01*
X168555049Y-105678116D01*
X168588500Y-105466916D01*
X168588500Y-105253084D01*
X168555049Y-105041884D01*
X168522010Y-104940200D01*
X168488973Y-104838519D01*
X168488972Y-104838516D01*
X168417756Y-104698748D01*
X168391894Y-104647991D01*
X168266206Y-104474996D01*
X168115004Y-104323794D01*
X167942009Y-104198106D01*
X167884299Y-104168701D01*
X167751483Y-104101027D01*
X167751480Y-104101026D01*
X167548117Y-104034951D01*
X167430997Y-104016401D01*
X167336916Y-104001500D01*
X167123084Y-104001500D01*
X167052684Y-104012650D01*
X166911882Y-104034951D01*
X166708519Y-104101026D01*
X166708516Y-104101027D01*
X166517990Y-104198106D01*
X166344993Y-104323796D01*
X166193796Y-104474993D01*
X166068105Y-104647991D01*
X166065727Y-104651873D01*
X166013914Y-104698748D01*
X165944984Y-104710169D01*
X165880822Y-104682512D01*
X165854273Y-104651873D01*
X165851894Y-104647991D01*
X165851891Y-104647987D01*
X165726206Y-104474996D01*
X165575004Y-104323794D01*
X165402009Y-104198106D01*
X165344299Y-104168701D01*
X165211483Y-104101027D01*
X165211480Y-104101026D01*
X165008117Y-104034951D01*
X164890997Y-104016401D01*
X164796916Y-104001500D01*
X164583084Y-104001500D01*
X164512684Y-104012650D01*
X164371882Y-104034951D01*
X164168519Y-104101026D01*
X164168516Y-104101027D01*
X163977990Y-104198106D01*
X163804997Y-104323793D01*
X163693211Y-104435579D01*
X163631888Y-104469063D01*
X163562196Y-104464079D01*
X163506263Y-104422207D01*
X163489348Y-104391230D01*
X163443354Y-104267913D01*
X163443350Y-104267906D01*
X163357190Y-104152812D01*
X163357187Y-104152809D01*
X163242093Y-104066649D01*
X163242086Y-104066645D01*
X163107379Y-104016403D01*
X163107372Y-104016401D01*
X163047844Y-104010000D01*
X162400000Y-104010000D01*
X162400000Y-104915439D01*
X162346853Y-104884755D01*
X162217143Y-104850000D01*
X162082857Y-104850000D01*
X161953147Y-104884755D01*
X161900000Y-104915439D01*
X161900000Y-104010000D01*
X161252155Y-104010000D01*
X161192627Y-104016401D01*
X161192620Y-104016403D01*
X161057913Y-104066645D01*
X161057906Y-104066649D01*
X160942812Y-104152809D01*
X160942809Y-104152812D01*
X160856649Y-104267906D01*
X160856645Y-104267913D01*
X160810651Y-104391230D01*
X160768779Y-104447164D01*
X160703315Y-104471581D01*
X160635042Y-104456729D01*
X160606788Y-104435578D01*
X160495006Y-104323796D01*
X160495004Y-104323794D01*
X160322009Y-104198106D01*
X160264299Y-104168701D01*
X160131483Y-104101027D01*
X160131480Y-104101026D01*
X159928117Y-104034951D01*
X159810997Y-104016401D01*
X159716916Y-104001500D01*
X159503084Y-104001500D01*
X159432684Y-104012650D01*
X159291882Y-104034951D01*
X159088519Y-104101026D01*
X159088516Y-104101027D01*
X158897990Y-104198106D01*
X158724993Y-104323796D01*
X158573796Y-104474993D01*
X158448107Y-104647988D01*
X158418021Y-104707035D01*
X158370046Y-104757830D01*
X158354993Y-104765298D01*
X158328082Y-104776445D01*
X158220231Y-104848509D01*
X158220227Y-104848512D01*
X155228511Y-107840227D01*
X155228510Y-107840228D01*
X155156447Y-107948079D01*
X155156443Y-107948086D01*
X155106806Y-108067922D01*
X155106804Y-108067928D01*
X155081500Y-108195140D01*
X155081500Y-108966482D01*
X155061815Y-109033521D01*
X155009011Y-109079276D01*
X154939853Y-109089220D01*
X154919182Y-109084413D01*
X154813117Y-109049951D01*
X154707516Y-109033225D01*
X154601916Y-109016500D01*
X154601915Y-109016500D01*
X154469832Y-109016500D01*
X154402793Y-108996815D01*
X154382151Y-108980181D01*
X153944819Y-108542848D01*
X153911334Y-108481525D01*
X153908500Y-108455167D01*
X153908500Y-106500218D01*
X153908499Y-106500214D01*
X153887810Y-106396203D01*
X153881273Y-106363338D01*
X153849986Y-106287807D01*
X153827865Y-106234399D01*
X153827862Y-106234394D01*
X153827863Y-106234394D01*
X153783448Y-106167925D01*
X153750327Y-106118357D01*
X153750323Y-106118353D01*
X153750321Y-106118350D01*
X153359046Y-105727076D01*
X153325561Y-105665753D01*
X153324254Y-105619997D01*
X153325838Y-105610000D01*
X153348500Y-105466916D01*
X153348500Y-105253084D01*
X153315049Y-105041884D01*
X153282010Y-104940200D01*
X153248973Y-104838519D01*
X153248972Y-104838516D01*
X153177756Y-104698748D01*
X153151894Y-104647991D01*
X153026206Y-104474996D01*
X152875004Y-104323794D01*
X152702009Y-104198106D01*
X152644299Y-104168701D01*
X152511483Y-104101027D01*
X152511480Y-104101026D01*
X152308117Y-104034951D01*
X152190997Y-104016401D01*
X152096916Y-104001500D01*
X151883084Y-104001500D01*
X151812684Y-104012650D01*
X151671882Y-104034951D01*
X151468519Y-104101026D01*
X151468516Y-104101027D01*
X151277990Y-104198106D01*
X151104997Y-104323793D01*
X150993211Y-104435579D01*
X150931888Y-104469063D01*
X150862196Y-104464079D01*
X150806263Y-104422207D01*
X150789348Y-104391230D01*
X150743354Y-104267913D01*
X150743350Y-104267906D01*
X150657190Y-104152812D01*
X150657187Y-104152809D01*
X150542093Y-104066649D01*
X150542086Y-104066645D01*
X150407379Y-104016403D01*
X150407372Y-104016401D01*
X150347844Y-104010000D01*
X149700000Y-104010000D01*
X149700000Y-104915439D01*
X149646853Y-104884755D01*
X149517143Y-104850000D01*
X149382857Y-104850000D01*
X149253147Y-104884755D01*
X149200000Y-104915439D01*
X149200000Y-104010000D01*
X148552155Y-104010000D01*
X148492627Y-104016401D01*
X148492620Y-104016403D01*
X148357913Y-104066645D01*
X148357906Y-104066649D01*
X148242812Y-104152809D01*
X148242809Y-104152812D01*
X148156649Y-104267906D01*
X148156645Y-104267913D01*
X148106403Y-104402620D01*
X148106401Y-104402627D01*
X148100000Y-104462155D01*
X148100000Y-105110000D01*
X149005440Y-105110000D01*
X148974755Y-105163147D01*
X148940000Y-105292857D01*
X148940000Y-105427143D01*
X148974755Y-105556853D01*
X149005440Y-105610000D01*
X148100000Y-105610000D01*
X148100000Y-106257844D01*
X148106401Y-106317372D01*
X148106403Y-106317379D01*
X148156645Y-106452086D01*
X148156649Y-106452093D01*
X148242809Y-106567187D01*
X148242812Y-106567190D01*
X148357906Y-106653350D01*
X148357913Y-106653354D01*
X148492620Y-106703596D01*
X148492627Y-106703598D01*
X148552155Y-106709999D01*
X148552172Y-106710000D01*
X149200000Y-106710000D01*
X149200000Y-105804560D01*
X149253147Y-105835245D01*
X149382857Y-105870000D01*
X149517143Y-105870000D01*
X149646853Y-105835245D01*
X149700000Y-105804560D01*
X149700000Y-106710000D01*
X150347828Y-106710000D01*
X150347844Y-106709999D01*
X150407372Y-106703598D01*
X150407379Y-106703596D01*
X150542086Y-106653354D01*
X150542093Y-106653350D01*
X150657187Y-106567190D01*
X150657190Y-106567187D01*
X150743350Y-106452093D01*
X150743355Y-106452084D01*
X150789348Y-106328770D01*
X150831219Y-106272836D01*
X150896683Y-106248418D01*
X150964956Y-106263269D01*
X150993211Y-106284421D01*
X151104996Y-106396206D01*
X151277991Y-106521894D01*
X151366883Y-106567187D01*
X151468516Y-106618972D01*
X151468519Y-106618973D01*
X151570200Y-106652010D01*
X151671884Y-106685049D01*
X151883084Y-106718500D01*
X151883085Y-106718500D01*
X152096915Y-106718500D01*
X152096916Y-106718500D01*
X152249997Y-106694254D01*
X152255422Y-106694955D01*
X152260549Y-106693043D01*
X152289705Y-106699385D01*
X152319290Y-106703209D01*
X152324893Y-106707040D01*
X152328822Y-106707895D01*
X152357076Y-106729046D01*
X152455181Y-106827151D01*
X152488666Y-106888474D01*
X152491500Y-106914832D01*
X152491500Y-108869781D01*
X152503629Y-108930761D01*
X152497400Y-109000352D01*
X152454537Y-109055529D01*
X152388647Y-109078773D01*
X152343694Y-109072882D01*
X152273118Y-109049951D01*
X152273119Y-109049951D01*
X152114716Y-109024862D01*
X152061916Y-109016500D01*
X151848084Y-109016500D01*
X151777684Y-109027650D01*
X151636882Y-109049951D01*
X151433519Y-109116026D01*
X151433516Y-109116027D01*
X151242990Y-109213106D01*
X151069993Y-109338796D01*
X150918796Y-109489993D01*
X150793103Y-109662994D01*
X150790709Y-109667693D01*
X150742731Y-109718485D01*
X150674908Y-109735275D01*
X150608775Y-109712732D01*
X150572800Y-109671210D01*
X150572168Y-109671598D01*
X150569829Y-109667781D01*
X150569743Y-109667682D01*
X150569620Y-109667441D01*
X150444727Y-109495540D01*
X150444723Y-109495535D01*
X150294464Y-109345276D01*
X150294459Y-109345272D01*
X150122557Y-109220379D01*
X149933215Y-109123903D01*
X149731124Y-109058241D01*
X149665000Y-109047768D01*
X149665000Y-109941988D01*
X149607993Y-109909075D01*
X149480826Y-109875000D01*
X149349174Y-109875000D01*
X149222007Y-109909075D01*
X149165000Y-109941988D01*
X149165000Y-109047768D01*
X149164999Y-109047768D01*
X149098875Y-109058241D01*
X148896784Y-109123903D01*
X148707442Y-109220379D01*
X148535541Y-109345271D01*
X148428084Y-109452728D01*
X148366761Y-109486212D01*
X148297069Y-109481228D01*
X148241136Y-109439356D01*
X148224223Y-109408384D01*
X148175889Y-109278796D01*
X148088261Y-109161739D01*
X147971204Y-109074111D01*
X147967909Y-109072882D01*
X147834203Y-109023011D01*
X147773654Y-109016500D01*
X147773638Y-109016500D01*
X145976362Y-109016500D01*
X145976345Y-109016500D01*
X145915797Y-109023011D01*
X145915795Y-109023011D01*
X145778795Y-109074111D01*
X145661739Y-109161739D01*
X145574111Y-109278795D01*
X145523011Y-109415795D01*
X145523011Y-109415797D01*
X145516500Y-109476345D01*
X145516500Y-109492500D01*
X145496815Y-109559539D01*
X145444011Y-109605294D01*
X145392500Y-109616500D01*
X134680543Y-109616500D01*
X134613504Y-109596815D01*
X134592862Y-109580181D01*
X131909517Y-106896836D01*
X131876032Y-106835513D01*
X131881016Y-106765821D01*
X131922888Y-106709888D01*
X131977801Y-106686682D01*
X131988116Y-106685049D01*
X132191483Y-106618972D01*
X132382009Y-106521894D01*
X132555004Y-106396206D01*
X132706206Y-106245004D01*
X132831894Y-106072009D01*
X132928972Y-105881483D01*
X132995049Y-105678116D01*
X133028500Y-105466916D01*
X133028500Y-105253084D01*
X132995049Y-105041884D01*
X132962010Y-104940200D01*
X132928973Y-104838519D01*
X132928972Y-104838516D01*
X132861978Y-104707035D01*
X132831894Y-104647991D01*
X132747431Y-104531737D01*
X132746844Y-104530929D01*
X132746842Y-104530927D01*
X132706206Y-104474996D01*
X132692555Y-104461345D01*
X135391500Y-104461345D01*
X135391500Y-106258654D01*
X135398011Y-106319202D01*
X135398011Y-106319204D01*
X135447574Y-106452084D01*
X135449111Y-106456204D01*
X135536739Y-106573261D01*
X135653796Y-106660889D01*
X135743250Y-106694254D01*
X135785463Y-106709999D01*
X135790799Y-106711989D01*
X135818050Y-106714918D01*
X135851345Y-106718499D01*
X135851362Y-106718500D01*
X137648638Y-106718500D01*
X137648654Y-106718499D01*
X137675692Y-106715591D01*
X137709201Y-106711989D01*
X137714537Y-106709999D01*
X137754870Y-106694955D01*
X137846204Y-106660889D01*
X137963261Y-106573261D01*
X138050889Y-106456204D01*
X138095957Y-106335371D01*
X138137827Y-106279442D01*
X138203291Y-106255025D01*
X138271564Y-106269877D01*
X138299818Y-106291028D01*
X138404996Y-106396206D01*
X138577991Y-106521894D01*
X138666883Y-106567187D01*
X138768516Y-106618972D01*
X138768519Y-106618973D01*
X138870200Y-106652010D01*
X138971884Y-106685049D01*
X139183084Y-106718500D01*
X139183085Y-106718500D01*
X139396915Y-106718500D01*
X139396916Y-106718500D01*
X139608116Y-106685049D01*
X139811483Y-106618972D01*
X140002009Y-106521894D01*
X140175004Y-106396206D01*
X140326206Y-106245004D01*
X140451894Y-106072009D01*
X140451896Y-106072004D01*
X140454270Y-106068132D01*
X140506080Y-106021254D01*
X140575009Y-106009829D01*
X140639173Y-106037483D01*
X140665730Y-106068132D01*
X140668103Y-106072005D01*
X140668106Y-106072009D01*
X140793794Y-106245004D01*
X140944996Y-106396206D01*
X141117991Y-106521894D01*
X141206883Y-106567187D01*
X141308516Y-106618972D01*
X141308519Y-106618973D01*
X141410200Y-106652010D01*
X141511884Y-106685049D01*
X141723084Y-106718500D01*
X141723085Y-106718500D01*
X141936915Y-106718500D01*
X141936916Y-106718500D01*
X142148116Y-106685049D01*
X142351483Y-106618972D01*
X142542009Y-106521894D01*
X142715004Y-106396206D01*
X142866206Y-106245004D01*
X142991894Y-106072009D01*
X142991896Y-106072004D01*
X142994270Y-106068132D01*
X143046080Y-106021254D01*
X143115009Y-106009829D01*
X143179173Y-106037483D01*
X143205730Y-106068132D01*
X143208103Y-106072005D01*
X143208106Y-106072009D01*
X143333794Y-106245004D01*
X143484996Y-106396206D01*
X143657991Y-106521894D01*
X143746883Y-106567187D01*
X143848516Y-106618972D01*
X143848519Y-106618973D01*
X143950200Y-106652010D01*
X144051884Y-106685049D01*
X144263084Y-106718500D01*
X144263085Y-106718500D01*
X144476915Y-106718500D01*
X144476916Y-106718500D01*
X144688116Y-106685049D01*
X144891483Y-106618972D01*
X145082009Y-106521894D01*
X145255004Y-106396206D01*
X145406206Y-106245004D01*
X145531894Y-106072009D01*
X145628972Y-105881483D01*
X145695049Y-105678116D01*
X145728500Y-105466916D01*
X145728500Y-105253084D01*
X145695049Y-105041884D01*
X145662010Y-104940200D01*
X145628973Y-104838519D01*
X145628972Y-104838516D01*
X145557756Y-104698748D01*
X145531894Y-104647991D01*
X145406206Y-104474996D01*
X145255004Y-104323794D01*
X145082009Y-104198106D01*
X145024299Y-104168701D01*
X144891483Y-104101027D01*
X144891480Y-104101026D01*
X144688117Y-104034951D01*
X144570997Y-104016401D01*
X144476916Y-104001500D01*
X144263084Y-104001500D01*
X144192684Y-104012650D01*
X144051882Y-104034951D01*
X143848519Y-104101026D01*
X143848516Y-104101027D01*
X143657990Y-104198106D01*
X143484993Y-104323796D01*
X143333796Y-104474993D01*
X143208105Y-104647991D01*
X143205727Y-104651873D01*
X143153914Y-104698748D01*
X143084984Y-104710169D01*
X143020822Y-104682512D01*
X142994273Y-104651873D01*
X142991894Y-104647991D01*
X142991891Y-104647987D01*
X142866206Y-104474996D01*
X142715004Y-104323794D01*
X142542009Y-104198106D01*
X142484299Y-104168701D01*
X142351483Y-104101027D01*
X142351480Y-104101026D01*
X142148117Y-104034951D01*
X142030997Y-104016401D01*
X141936916Y-104001500D01*
X141723084Y-104001500D01*
X141652684Y-104012650D01*
X141511882Y-104034951D01*
X141308519Y-104101026D01*
X141308516Y-104101027D01*
X141117990Y-104198106D01*
X140944993Y-104323796D01*
X140793796Y-104474993D01*
X140668105Y-104647991D01*
X140665727Y-104651873D01*
X140613914Y-104698748D01*
X140544984Y-104710169D01*
X140480822Y-104682512D01*
X140454273Y-104651873D01*
X140451894Y-104647991D01*
X140451891Y-104647987D01*
X140326206Y-104474996D01*
X140175004Y-104323794D01*
X140002009Y-104198106D01*
X139944299Y-104168701D01*
X139811483Y-104101027D01*
X139811480Y-104101026D01*
X139608117Y-104034951D01*
X139490997Y-104016401D01*
X139396916Y-104001500D01*
X139183084Y-104001500D01*
X139112684Y-104012650D01*
X138971882Y-104034951D01*
X138768519Y-104101026D01*
X138768516Y-104101027D01*
X138577990Y-104198106D01*
X138404997Y-104323793D01*
X138299818Y-104428972D01*
X138238495Y-104462456D01*
X138168803Y-104457472D01*
X138112870Y-104415600D01*
X138095958Y-104384629D01*
X138050889Y-104263796D01*
X138049854Y-104262414D01*
X138026999Y-104231883D01*
X137963261Y-104146739D01*
X137846204Y-104059111D01*
X137832986Y-104054181D01*
X137709203Y-104008011D01*
X137648654Y-104001500D01*
X137648638Y-104001500D01*
X135851362Y-104001500D01*
X135851345Y-104001500D01*
X135790797Y-104008011D01*
X135790795Y-104008011D01*
X135653795Y-104059111D01*
X135536739Y-104146739D01*
X135449111Y-104263795D01*
X135398011Y-104400795D01*
X135398011Y-104400797D01*
X135391500Y-104461345D01*
X132692555Y-104461345D01*
X132555004Y-104323794D01*
X132382009Y-104198106D01*
X132324299Y-104168701D01*
X132191483Y-104101027D01*
X132191480Y-104101026D01*
X131988117Y-104034951D01*
X131870997Y-104016401D01*
X131776916Y-104001500D01*
X131563084Y-104001500D01*
X131492684Y-104012650D01*
X131351882Y-104034951D01*
X131148519Y-104101026D01*
X131148516Y-104101027D01*
X130957990Y-104198106D01*
X130784993Y-104323796D01*
X130633796Y-104474993D01*
X130508105Y-104647991D01*
X130505727Y-104651873D01*
X130453914Y-104698748D01*
X130384984Y-104710169D01*
X130320822Y-104682512D01*
X130294273Y-104651873D01*
X130291894Y-104647991D01*
X130291891Y-104647987D01*
X130166206Y-104474996D01*
X130015004Y-104323794D01*
X129842009Y-104198106D01*
X129784299Y-104168701D01*
X129651483Y-104101027D01*
X129651480Y-104101026D01*
X129448117Y-104034951D01*
X129330997Y-104016401D01*
X129236916Y-104001500D01*
X129023084Y-104001500D01*
X128952684Y-104012650D01*
X128811882Y-104034951D01*
X128608519Y-104101026D01*
X128608516Y-104101027D01*
X128417990Y-104198106D01*
X128244993Y-104323796D01*
X128093796Y-104474993D01*
X127968105Y-104647991D01*
X127965727Y-104651873D01*
X127913914Y-104698748D01*
X127844984Y-104710169D01*
X127780822Y-104682512D01*
X127754273Y-104651873D01*
X127751894Y-104647991D01*
X127751891Y-104647987D01*
X127626206Y-104474996D01*
X127475004Y-104323794D01*
X127302009Y-104198106D01*
X127244299Y-104168701D01*
X127111483Y-104101027D01*
X127111480Y-104101026D01*
X126908117Y-104034951D01*
X126790997Y-104016401D01*
X126696916Y-104001500D01*
X126483084Y-104001500D01*
X126412684Y-104012650D01*
X126271882Y-104034951D01*
X126068519Y-104101026D01*
X126068516Y-104101027D01*
X125877990Y-104198106D01*
X125704997Y-104323793D01*
X125593211Y-104435579D01*
X125531888Y-104469063D01*
X125462196Y-104464079D01*
X125406263Y-104422207D01*
X125389348Y-104391230D01*
X125343354Y-104267913D01*
X125343350Y-104267906D01*
X125257190Y-104152812D01*
X125257187Y-104152809D01*
X125142093Y-104066649D01*
X125142086Y-104066645D01*
X125007379Y-104016403D01*
X125007372Y-104016401D01*
X124947844Y-104010000D01*
X124300000Y-104010000D01*
X124300000Y-104915439D01*
X124246853Y-104884755D01*
X124117143Y-104850000D01*
X123982857Y-104850000D01*
X123853147Y-104884755D01*
X123800000Y-104915439D01*
X123800000Y-104010000D01*
X123152155Y-104010000D01*
X123092627Y-104016401D01*
X123092620Y-104016403D01*
X122957913Y-104066645D01*
X122957906Y-104066649D01*
X122842812Y-104152809D01*
X122842809Y-104152812D01*
X122756649Y-104267906D01*
X122756645Y-104267913D01*
X122710651Y-104391230D01*
X122668779Y-104447164D01*
X122603315Y-104471581D01*
X122535042Y-104456729D01*
X122506788Y-104435578D01*
X122395003Y-104323793D01*
X122319613Y-104269018D01*
X122316272Y-104264686D01*
X122311297Y-104262414D01*
X122295167Y-104237316D01*
X122276948Y-104213688D01*
X122275695Y-104207015D01*
X122273523Y-104203636D01*
X122268500Y-104168701D01*
X122268500Y-104105543D01*
X122288185Y-104038504D01*
X122304819Y-104017862D01*
X124347862Y-101974819D01*
X124409185Y-101941334D01*
X124435543Y-101938500D01*
X125080001Y-101938500D01*
X125147040Y-101958185D01*
X125192795Y-102010989D01*
X125204001Y-102062500D01*
X125204001Y-102130553D01*
X125214613Y-102234427D01*
X125257386Y-102363508D01*
X125270385Y-102402738D01*
X125363470Y-102553652D01*
X125488848Y-102679030D01*
X125639762Y-102772115D01*
X125808074Y-102827887D01*
X125911955Y-102838500D01*
X128013044Y-102838499D01*
X128116926Y-102827887D01*
X128285238Y-102772115D01*
X128436152Y-102679030D01*
X128561530Y-102553652D01*
X128654615Y-102402738D01*
X128710387Y-102234426D01*
X128721000Y-102130545D01*
X128720999Y-100229456D01*
X128710387Y-100125574D01*
X128654615Y-99957262D01*
X128561530Y-99806348D01*
X128436152Y-99680970D01*
X128309004Y-99602544D01*
X128285240Y-99587886D01*
X128285235Y-99587884D01*
X128116927Y-99532113D01*
X128013045Y-99521500D01*
X125911962Y-99521500D01*
X125911946Y-99521501D01*
X125808072Y-99532113D01*
X125639764Y-99587884D01*
X125639759Y-99587886D01*
X125488846Y-99680971D01*
X125363471Y-99806346D01*
X125270386Y-99957259D01*
X125270384Y-99957264D01*
X125214613Y-100125572D01*
X125204000Y-100229447D01*
X125204000Y-100297500D01*
X125184315Y-100364539D01*
X125131511Y-100410294D01*
X125080000Y-100421500D01*
X123995292Y-100421500D01*
X123877706Y-100444890D01*
X123875992Y-100445231D01*
X123855516Y-100449303D01*
X123848753Y-100450649D01*
X123848749Y-100450650D01*
X123710719Y-100507823D01*
X123586482Y-100590835D01*
X123586481Y-100590836D01*
X121623667Y-102553652D01*
X121026484Y-103150835D01*
X120973658Y-103203660D01*
X120920833Y-103256485D01*
X120837829Y-103380709D01*
X120837822Y-103380722D01*
X120780650Y-103518749D01*
X120780647Y-103518759D01*
X120751500Y-103665291D01*
X120751500Y-104168701D01*
X120731815Y-104235740D01*
X120700387Y-104269018D01*
X120624996Y-104323793D01*
X120473796Y-104474993D01*
X120348105Y-104647991D01*
X120345727Y-104651873D01*
X120293914Y-104698748D01*
X120224984Y-104710169D01*
X120160822Y-104682512D01*
X120134273Y-104651873D01*
X120131894Y-104647991D01*
X120131891Y-104647987D01*
X120006206Y-104474996D01*
X119855004Y-104323794D01*
X119682009Y-104198106D01*
X119624299Y-104168701D01*
X119491483Y-104101027D01*
X119491480Y-104101026D01*
X119288117Y-104034951D01*
X119170997Y-104016401D01*
X119076916Y-104001500D01*
X118863084Y-104001500D01*
X118792684Y-104012650D01*
X118651882Y-104034951D01*
X118448519Y-104101026D01*
X118448516Y-104101027D01*
X118257990Y-104198106D01*
X118084993Y-104323796D01*
X117933796Y-104474993D01*
X117808106Y-104647990D01*
X117711027Y-104838516D01*
X117711026Y-104838519D01*
X117644951Y-105041882D01*
X117611500Y-105253084D01*
X117338134Y-105253084D01*
X117334475Y-99084149D01*
X117691500Y-99084149D01*
X117691500Y-99305851D01*
X117719643Y-99483538D01*
X117726182Y-99524824D01*
X117794693Y-99735680D01*
X117873690Y-99890718D01*
X117895343Y-99933215D01*
X118025657Y-100112576D01*
X118182424Y-100269343D01*
X118361785Y-100399657D01*
X118450560Y-100444890D01*
X118559319Y-100500306D01*
X118559321Y-100500306D01*
X118559324Y-100500308D01*
X118770176Y-100568818D01*
X118989149Y-100603500D01*
X118989150Y-100603500D01*
X119210850Y-100603500D01*
X119210851Y-100603500D01*
X119429824Y-100568818D01*
X119640676Y-100500308D01*
X119838215Y-100399657D01*
X120017576Y-100269343D01*
X120174343Y-100112576D01*
X120304657Y-99933215D01*
X120405308Y-99735676D01*
X120473818Y-99524824D01*
X120508500Y-99305851D01*
X120508500Y-99084149D01*
X120505151Y-99063007D01*
X120473818Y-98865175D01*
X120462194Y-98829401D01*
X120455403Y-98808500D01*
X120451325Y-98795948D01*
X120871500Y-98795948D01*
X120871500Y-98994051D01*
X120902487Y-99189700D01*
X120963703Y-99378101D01*
X121052565Y-99552500D01*
X121053634Y-99554598D01*
X121170070Y-99714858D01*
X121310142Y-99854930D01*
X121470402Y-99971366D01*
X121541961Y-100007827D01*
X121646898Y-100061296D01*
X121646900Y-100061296D01*
X121646903Y-100061298D01*
X121693690Y-100076500D01*
X121835299Y-100122512D01*
X122030949Y-100153500D01*
X122030954Y-100153500D01*
X122229051Y-100153500D01*
X122424700Y-100122512D01*
X122433404Y-100119684D01*
X122613097Y-100061298D01*
X122789598Y-99971366D01*
X122949858Y-99854930D01*
X123089930Y-99714858D01*
X123206366Y-99554598D01*
X123296298Y-99378097D01*
X123357512Y-99189700D01*
X123366476Y-99133101D01*
X123388500Y-98994051D01*
X123388500Y-98795948D01*
X123357512Y-98600299D01*
X123296296Y-98411898D01*
X123227776Y-98277421D01*
X123206366Y-98235402D01*
X123089930Y-98075142D01*
X122949858Y-97935070D01*
X122789598Y-97818634D01*
X122726532Y-97786500D01*
X122613101Y-97728703D01*
X122424700Y-97667487D01*
X122229051Y-97636500D01*
X122229046Y-97636500D01*
X122030954Y-97636500D01*
X122030949Y-97636500D01*
X121835299Y-97667487D01*
X121646898Y-97728703D01*
X121470401Y-97818634D01*
X121425108Y-97851542D01*
X121310142Y-97935070D01*
X121310140Y-97935072D01*
X121310139Y-97935072D01*
X121170072Y-98075139D01*
X121170072Y-98075140D01*
X121170070Y-98075142D01*
X121137000Y-98120659D01*
X121053634Y-98235401D01*
X120963703Y-98411898D01*
X120902487Y-98600299D01*
X120871500Y-98795948D01*
X120451325Y-98795948D01*
X120405308Y-98654324D01*
X120405306Y-98654321D01*
X120405306Y-98654319D01*
X120304656Y-98456784D01*
X120272048Y-98411903D01*
X120174343Y-98277424D01*
X120017576Y-98120657D01*
X119838215Y-97990343D01*
X119765999Y-97953547D01*
X119640680Y-97889693D01*
X119429824Y-97821182D01*
X119413737Y-97818634D01*
X119210851Y-97786500D01*
X118989149Y-97786500D01*
X118879662Y-97803841D01*
X118770175Y-97821182D01*
X118559319Y-97889693D01*
X118361784Y-97990343D01*
X118271660Y-98055823D01*
X118182424Y-98120657D01*
X118182422Y-98120659D01*
X118182421Y-98120659D01*
X118025659Y-98277421D01*
X118025659Y-98277422D01*
X118025657Y-98277424D01*
X117969692Y-98354452D01*
X117895343Y-98456784D01*
X117794693Y-98654319D01*
X117726182Y-98865175D01*
X117694849Y-99063007D01*
X117691500Y-99084149D01*
X117334475Y-99084149D01*
X117333380Y-97238322D01*
X139925001Y-97238322D01*
X139935144Y-97337607D01*
X139988452Y-97498481D01*
X139988457Y-97498492D01*
X140077424Y-97642728D01*
X140077427Y-97642732D01*
X140197267Y-97762572D01*
X140197271Y-97762575D01*
X140341507Y-97851542D01*
X140341518Y-97851547D01*
X140502393Y-97904855D01*
X140601683Y-97914999D01*
X141150000Y-97914999D01*
X141198308Y-97914999D01*
X141198322Y-97914998D01*
X141297607Y-97904855D01*
X141458481Y-97851547D01*
X141458492Y-97851542D01*
X141602728Y-97762575D01*
X141602732Y-97762572D01*
X141722572Y-97642732D01*
X141722575Y-97642728D01*
X141811542Y-97498492D01*
X141811547Y-97498481D01*
X141864855Y-97337606D01*
X141874999Y-97238322D01*
X141875000Y-97238309D01*
X141875000Y-97215000D01*
X141150000Y-97215000D01*
X141150000Y-97914999D01*
X140601683Y-97914999D01*
X140649999Y-97914998D01*
X140650000Y-97914998D01*
X140650000Y-97215000D01*
X139925001Y-97215000D01*
X139925001Y-97238322D01*
X117333380Y-97238322D01*
X117331243Y-93634149D01*
X117691500Y-93634149D01*
X117691500Y-93855851D01*
X117716249Y-94012109D01*
X117726182Y-94074824D01*
X117794693Y-94285680D01*
X117884279Y-94461500D01*
X117895343Y-94483215D01*
X118025657Y-94662576D01*
X118182424Y-94819343D01*
X118361785Y-94949657D01*
X118455114Y-94997210D01*
X118559319Y-95050306D01*
X118559321Y-95050306D01*
X118559324Y-95050308D01*
X118770176Y-95118818D01*
X118989149Y-95153500D01*
X118989150Y-95153500D01*
X119210850Y-95153500D01*
X119210851Y-95153500D01*
X119429824Y-95118818D01*
X119640676Y-95050308D01*
X119838215Y-94949657D01*
X120017576Y-94819343D01*
X120174343Y-94662576D01*
X120304657Y-94483215D01*
X120405308Y-94285676D01*
X120473818Y-94074824D01*
X120494230Y-93945948D01*
X120871500Y-93945948D01*
X120871500Y-94144051D01*
X120902487Y-94339700D01*
X120963703Y-94528101D01*
X121040848Y-94679505D01*
X121053634Y-94704598D01*
X121170070Y-94864858D01*
X121310142Y-95004930D01*
X121470402Y-95121366D01*
X121553790Y-95163854D01*
X121646898Y-95211296D01*
X121646900Y-95211296D01*
X121646903Y-95211298D01*
X121747888Y-95244110D01*
X121835299Y-95272512D01*
X122030949Y-95303500D01*
X122030954Y-95303500D01*
X122229051Y-95303500D01*
X122424700Y-95272512D01*
X122613097Y-95211298D01*
X122789598Y-95121366D01*
X122949858Y-95004930D01*
X123089930Y-94864858D01*
X123206366Y-94704598D01*
X123296298Y-94528097D01*
X123357512Y-94339700D01*
X123358811Y-94331500D01*
X123388500Y-94144051D01*
X123388500Y-93945948D01*
X123357512Y-93750299D01*
X123296296Y-93561898D01*
X123248854Y-93468790D01*
X123206366Y-93385402D01*
X123089930Y-93225142D01*
X122949858Y-93085070D01*
X122789598Y-92968634D01*
X122776637Y-92962030D01*
X122613101Y-92878703D01*
X122424700Y-92817487D01*
X122229051Y-92786500D01*
X122229046Y-92786500D01*
X122030954Y-92786500D01*
X122030949Y-92786500D01*
X121835299Y-92817487D01*
X121646898Y-92878703D01*
X121470401Y-92968634D01*
X121378967Y-93035065D01*
X121310142Y-93085070D01*
X121310140Y-93085072D01*
X121310139Y-93085072D01*
X121170072Y-93225139D01*
X121170072Y-93225140D01*
X121170070Y-93225142D01*
X121140843Y-93265370D01*
X121053634Y-93385401D01*
X120963703Y-93561898D01*
X120902487Y-93750299D01*
X120871500Y-93945948D01*
X120494230Y-93945948D01*
X120508500Y-93855851D01*
X120508500Y-93634149D01*
X120473818Y-93415176D01*
X120405308Y-93204324D01*
X120405306Y-93204321D01*
X120405306Y-93204319D01*
X120304656Y-93006784D01*
X120300717Y-93001362D01*
X120174343Y-92827424D01*
X120017576Y-92670657D01*
X119838215Y-92540343D01*
X119799006Y-92520365D01*
X119640680Y-92439693D01*
X119429824Y-92371182D01*
X119385539Y-92364168D01*
X119210851Y-92336500D01*
X118989149Y-92336500D01*
X118879662Y-92353841D01*
X118770175Y-92371182D01*
X118559319Y-92439693D01*
X118361784Y-92540343D01*
X118280898Y-92599111D01*
X118182424Y-92670657D01*
X118182422Y-92670659D01*
X118182421Y-92670659D01*
X118025659Y-92827421D01*
X118025659Y-92827422D01*
X118025657Y-92827424D01*
X117969692Y-92904452D01*
X117895343Y-93006784D01*
X117794693Y-93204319D01*
X117726182Y-93415175D01*
X117708433Y-93527240D01*
X117691500Y-93634149D01*
X117331243Y-93634149D01*
X117327589Y-87473084D01*
X117611500Y-87473084D01*
X117611500Y-87686915D01*
X117644951Y-87898117D01*
X117711026Y-88101480D01*
X117711027Y-88101483D01*
X117808106Y-88292009D01*
X117933794Y-88465004D01*
X118084996Y-88616206D01*
X118257991Y-88741894D01*
X118291499Y-88758967D01*
X118448516Y-88838972D01*
X118448519Y-88838973D01*
X118550200Y-88872010D01*
X118651884Y-88905049D01*
X118863084Y-88938500D01*
X118863085Y-88938500D01*
X119076915Y-88938500D01*
X119076916Y-88938500D01*
X119288116Y-88905049D01*
X119491483Y-88838972D01*
X119682009Y-88741894D01*
X119855004Y-88616206D01*
X120006206Y-88465004D01*
X120131894Y-88292009D01*
X120228972Y-88101483D01*
X120295049Y-87898116D01*
X120328500Y-87686916D01*
X120328500Y-87473084D01*
X120306162Y-87332049D01*
X120310762Y-87297766D01*
X120315209Y-87263353D01*
X120315421Y-87263042D01*
X120315454Y-87262800D01*
X120316134Y-87261999D01*
X120341044Y-87225569D01*
X120884458Y-86682155D01*
X122700000Y-86682155D01*
X122700000Y-87330000D01*
X123605440Y-87330000D01*
X123574755Y-87383147D01*
X123540000Y-87512857D01*
X123540000Y-87647143D01*
X123574755Y-87776853D01*
X123605440Y-87830000D01*
X122700000Y-87830000D01*
X122700000Y-88477844D01*
X122706401Y-88537372D01*
X122706403Y-88537379D01*
X122756645Y-88672086D01*
X122756649Y-88672093D01*
X122842809Y-88787187D01*
X122842812Y-88787190D01*
X122957906Y-88873350D01*
X122957913Y-88873354D01*
X123092620Y-88923596D01*
X123092627Y-88923598D01*
X123152155Y-88929999D01*
X123152172Y-88930000D01*
X123800000Y-88930000D01*
X123800000Y-88024560D01*
X123853147Y-88055245D01*
X123982857Y-88090000D01*
X124117143Y-88090000D01*
X124246853Y-88055245D01*
X124300000Y-88024560D01*
X124300000Y-88930000D01*
X124947828Y-88930000D01*
X124947844Y-88929999D01*
X125007372Y-88923598D01*
X125007379Y-88923596D01*
X125142086Y-88873354D01*
X125142093Y-88873350D01*
X125257187Y-88787190D01*
X125257190Y-88787187D01*
X125343350Y-88672093D01*
X125343354Y-88672086D01*
X125393596Y-88537379D01*
X125393598Y-88537372D01*
X125399999Y-88477844D01*
X125400000Y-88477827D01*
X125400000Y-87830000D01*
X124494560Y-87830000D01*
X124525245Y-87776853D01*
X124560000Y-87647143D01*
X124560000Y-87512857D01*
X124549343Y-87473084D01*
X130311500Y-87473084D01*
X130311500Y-87686915D01*
X130344951Y-87898117D01*
X130411026Y-88101480D01*
X130411027Y-88101483D01*
X130508106Y-88292009D01*
X130633794Y-88465004D01*
X130784996Y-88616206D01*
X130957991Y-88741894D01*
X130991499Y-88758967D01*
X131148516Y-88838972D01*
X131148519Y-88838973D01*
X131250200Y-88872010D01*
X131351884Y-88905049D01*
X131563084Y-88938500D01*
X131563085Y-88938500D01*
X131776915Y-88938500D01*
X131776916Y-88938500D01*
X131929997Y-88914254D01*
X131999289Y-88923208D01*
X132037075Y-88949046D01*
X136928350Y-93840321D01*
X136928353Y-93840323D01*
X136928357Y-93840327D01*
X136970279Y-93868339D01*
X137044394Y-93917863D01*
X137044399Y-93917865D01*
X137097804Y-93939985D01*
X137097806Y-93939986D01*
X137097807Y-93939986D01*
X137173338Y-93971273D01*
X137277898Y-93992071D01*
X137310214Y-93998499D01*
X137310218Y-93998500D01*
X137310219Y-93998500D01*
X140864538Y-93998500D01*
X140878023Y-94002459D01*
X140892053Y-94001591D01*
X140910884Y-94012109D01*
X140931577Y-94018185D01*
X140940780Y-94028806D01*
X140953053Y-94035661D01*
X140963209Y-94054690D01*
X140977332Y-94070989D01*
X140979989Y-94086130D01*
X140985951Y-94097301D01*
X140986047Y-94120650D01*
X140988132Y-94132528D01*
X140987552Y-94139665D01*
X140971500Y-94220370D01*
X140971500Y-94337523D01*
X140971094Y-94342528D01*
X140960298Y-94370646D01*
X140951815Y-94399539D01*
X140947906Y-94402925D01*
X140946052Y-94407756D01*
X140921765Y-94425577D01*
X140899011Y-94445294D01*
X140893161Y-94446566D01*
X140889721Y-94449091D01*
X140878309Y-94449797D01*
X140847500Y-94456500D01*
X140601120Y-94456500D01*
X140558472Y-94460858D01*
X140545869Y-94461500D01*
X139707763Y-94461500D01*
X139640724Y-94441815D01*
X139638930Y-94440640D01*
X139630336Y-94434898D01*
X139630335Y-94434897D01*
X139630333Y-94434896D01*
X139465000Y-94366413D01*
X139464992Y-94366411D01*
X139289483Y-94331500D01*
X139289479Y-94331500D01*
X139110521Y-94331500D01*
X139110516Y-94331500D01*
X138935007Y-94366411D01*
X138934999Y-94366413D01*
X138769667Y-94434896D01*
X138769657Y-94434901D01*
X138620865Y-94534321D01*
X138620861Y-94534324D01*
X138494324Y-94660861D01*
X138494321Y-94660865D01*
X138394901Y-94809657D01*
X138394896Y-94809667D01*
X138326413Y-94974999D01*
X138326411Y-94975007D01*
X138291500Y-95150516D01*
X138291500Y-95329483D01*
X138326411Y-95504992D01*
X138326413Y-95505000D01*
X138394896Y-95670332D01*
X138394901Y-95670342D01*
X138494321Y-95819134D01*
X138494324Y-95819138D01*
X138620861Y-95945675D01*
X138620865Y-95945678D01*
X138769657Y-96045098D01*
X138769661Y-96045100D01*
X138769664Y-96045102D01*
X138935000Y-96113587D01*
X139110516Y-96148499D01*
X139110520Y-96148500D01*
X139110521Y-96148500D01*
X139289480Y-96148500D01*
X139289481Y-96148499D01*
X139465000Y-96113587D01*
X139630336Y-96045102D01*
X139693193Y-96003101D01*
X139698737Y-95999398D01*
X139716783Y-95993747D01*
X139732693Y-95983523D01*
X139763652Y-95979071D01*
X139765414Y-95978520D01*
X139767628Y-95978500D01*
X139927775Y-95978500D01*
X139994814Y-95998185D01*
X140033313Y-96037403D01*
X140070712Y-96098036D01*
X140070715Y-96098040D01*
X140081004Y-96108329D01*
X140114489Y-96169652D01*
X140109505Y-96239344D01*
X140081004Y-96283691D01*
X140077427Y-96287267D01*
X140077424Y-96287271D01*
X139988457Y-96431507D01*
X139988452Y-96431518D01*
X139935144Y-96592393D01*
X139925000Y-96691677D01*
X139925000Y-96715000D01*
X141874999Y-96715000D01*
X141874999Y-96691692D01*
X141874998Y-96691677D01*
X141864855Y-96592392D01*
X141811547Y-96431518D01*
X141811542Y-96431507D01*
X141722575Y-96287271D01*
X141722572Y-96287267D01*
X141718996Y-96283691D01*
X141685511Y-96222368D01*
X141690495Y-96152676D01*
X141705139Y-96124834D01*
X141711346Y-96115978D01*
X141729285Y-96098040D01*
X141768599Y-96034301D01*
X141770687Y-96031324D01*
X141795262Y-96011700D01*
X141818635Y-95990678D01*
X141822765Y-95989739D01*
X141825286Y-95987727D01*
X141836870Y-95986534D01*
X141872225Y-95978500D01*
X142602616Y-95978500D01*
X142665783Y-95997048D01*
X142666008Y-95996637D01*
X142667898Y-95997669D01*
X142669655Y-95998185D01*
X142672645Y-96000261D01*
X142673793Y-96000888D01*
X142810515Y-96051883D01*
X142810799Y-96051989D01*
X142838050Y-96054918D01*
X142871345Y-96058499D01*
X142871362Y-96058500D01*
X144168638Y-96058500D01*
X144168654Y-96058499D01*
X144195692Y-96055591D01*
X144229201Y-96051989D01*
X144229486Y-96051883D01*
X144247663Y-96045103D01*
X144366204Y-96000889D01*
X144483261Y-95913261D01*
X144570889Y-95796204D01*
X144621989Y-95659201D01*
X144625591Y-95625692D01*
X144628499Y-95598654D01*
X144628500Y-95598637D01*
X144628500Y-94901362D01*
X144628499Y-94901345D01*
X144911500Y-94901345D01*
X144911500Y-95598654D01*
X144918011Y-95659202D01*
X144918011Y-95659204D01*
X144969111Y-95796204D01*
X145056739Y-95913261D01*
X145173796Y-96000889D01*
X145255395Y-96031324D01*
X145310514Y-96051883D01*
X145310799Y-96051989D01*
X145338050Y-96054918D01*
X145371345Y-96058499D01*
X145371362Y-96058500D01*
X146668638Y-96058500D01*
X146668654Y-96058499D01*
X146715277Y-96053485D01*
X146729201Y-96051989D01*
X146802889Y-96024504D01*
X146824838Y-96016318D01*
X146830467Y-96015302D01*
X146833236Y-96013523D01*
X146868171Y-96008500D01*
X147043803Y-96008500D01*
X147091256Y-96017939D01*
X147114169Y-96027430D01*
X147237104Y-96051883D01*
X147270365Y-96058499D01*
X147270369Y-96058500D01*
X147270370Y-96058500D01*
X147429630Y-96058500D01*
X147494193Y-96045657D01*
X147563781Y-96051883D01*
X147618959Y-96094745D01*
X147623921Y-96102176D01*
X147670714Y-96178039D01*
X147791959Y-96299284D01*
X147791963Y-96299287D01*
X147937890Y-96389297D01*
X147937893Y-96389298D01*
X147937899Y-96389302D01*
X148100664Y-96443236D01*
X148201128Y-96453500D01*
X148201133Y-96453500D01*
X148748867Y-96453500D01*
X148748872Y-96453500D01*
X148849336Y-96443236D01*
X149012101Y-96389302D01*
X149158040Y-96299285D01*
X149168329Y-96288996D01*
X149229652Y-96255511D01*
X149299344Y-96260495D01*
X149343691Y-96288996D01*
X149347267Y-96292572D01*
X149347271Y-96292575D01*
X149491507Y-96381542D01*
X149491518Y-96381547D01*
X149652393Y-96434855D01*
X149751683Y-96444999D01*
X150275000Y-96444999D01*
X150298308Y-96444999D01*
X150298322Y-96444998D01*
X150397607Y-96434855D01*
X150558481Y-96381547D01*
X150558492Y-96381542D01*
X150702728Y-96292575D01*
X150702732Y-96292572D01*
X150822572Y-96172732D01*
X150822575Y-96172728D01*
X150911542Y-96028492D01*
X150911547Y-96028481D01*
X150964855Y-95867606D01*
X150974999Y-95768322D01*
X150975000Y-95768309D01*
X150975000Y-95720000D01*
X150275000Y-95720000D01*
X150275000Y-96444999D01*
X149751683Y-96444999D01*
X149775000Y-96444998D01*
X149775000Y-95220000D01*
X150275000Y-95220000D01*
X150974999Y-95220000D01*
X150974999Y-95171692D01*
X150974998Y-95171677D01*
X150964855Y-95072392D01*
X150911547Y-94911518D01*
X150911542Y-94911507D01*
X150822575Y-94767271D01*
X150822572Y-94767267D01*
X150702732Y-94647427D01*
X150702728Y-94647424D01*
X150558492Y-94558457D01*
X150558481Y-94558452D01*
X150397606Y-94505144D01*
X150298322Y-94495000D01*
X150275000Y-94495000D01*
X150275000Y-95220000D01*
X149775000Y-95220000D01*
X149775000Y-94494999D01*
X149751693Y-94495000D01*
X149751674Y-94495001D01*
X149652392Y-94505144D01*
X149491518Y-94558452D01*
X149491507Y-94558457D01*
X149347271Y-94647424D01*
X149347267Y-94647427D01*
X149343691Y-94651004D01*
X149282368Y-94684489D01*
X149212676Y-94679505D01*
X149168329Y-94651004D01*
X149158040Y-94640715D01*
X149158036Y-94640712D01*
X149012109Y-94550702D01*
X149012103Y-94550699D01*
X149012101Y-94550698D01*
X148849336Y-94496764D01*
X148748879Y-94486500D01*
X148748872Y-94486500D01*
X148201128Y-94486500D01*
X148201120Y-94486500D01*
X148158472Y-94490858D01*
X148145869Y-94491500D01*
X147656197Y-94491500D01*
X147608744Y-94482061D01*
X147585831Y-94472570D01*
X147585823Y-94472568D01*
X147429634Y-94441500D01*
X147429630Y-94441500D01*
X147270370Y-94441500D01*
X147270365Y-94441500D01*
X147114176Y-94472568D01*
X147114168Y-94472570D01*
X147091256Y-94482061D01*
X147083078Y-94483687D01*
X147078738Y-94486477D01*
X147043803Y-94491500D01*
X146868171Y-94491500D01*
X146824838Y-94483682D01*
X146762547Y-94460448D01*
X146729201Y-94448011D01*
X146729200Y-94448010D01*
X146729199Y-94448010D01*
X146668654Y-94441500D01*
X146668638Y-94441500D01*
X145371362Y-94441500D01*
X145371345Y-94441500D01*
X145310797Y-94448011D01*
X145310795Y-94448011D01*
X145173795Y-94499111D01*
X145138856Y-94525267D01*
X145073392Y-94549684D01*
X145064545Y-94550000D01*
X144920000Y-94550000D01*
X144920000Y-94647844D01*
X144926401Y-94707372D01*
X144926403Y-94707382D01*
X144930926Y-94719508D01*
X144932507Y-94741628D01*
X144938743Y-94762913D01*
X144935365Y-94781604D01*
X144935908Y-94789200D01*
X144933044Y-94794442D01*
X144930926Y-94806168D01*
X144918012Y-94840792D01*
X144918010Y-94840802D01*
X144911500Y-94901345D01*
X144628499Y-94901345D01*
X144621989Y-94840802D01*
X144621989Y-94840799D01*
X144613609Y-94818334D01*
X144612026Y-94796212D01*
X144605790Y-94774925D01*
X144609581Y-94762041D01*
X144608623Y-94748647D01*
X144613604Y-94731678D01*
X144621989Y-94709201D01*
X144625182Y-94679505D01*
X144628499Y-94648654D01*
X144628500Y-94648637D01*
X144628500Y-93951362D01*
X144628499Y-93951345D01*
X144621989Y-93890802D01*
X144621989Y-93890799D01*
X144613609Y-93868334D01*
X144613286Y-93863819D01*
X144610834Y-93860008D01*
X144610815Y-93829280D01*
X144608623Y-93798647D01*
X144610793Y-93794671D01*
X144610791Y-93790139D01*
X144613598Y-93781696D01*
X144621989Y-93759201D01*
X144625347Y-93727968D01*
X144628499Y-93698654D01*
X144628500Y-93698637D01*
X144628500Y-93001362D01*
X144628499Y-93001345D01*
X144911500Y-93001345D01*
X144911500Y-93698654D01*
X144918010Y-93759197D01*
X144918012Y-93759204D01*
X144930926Y-93793828D01*
X144931248Y-93798344D01*
X144933700Y-93802153D01*
X144933718Y-93832881D01*
X144935910Y-93863519D01*
X144933742Y-93870902D01*
X144933743Y-93872022D01*
X144933135Y-93872967D01*
X144930927Y-93880492D01*
X144926401Y-93892625D01*
X144920000Y-93952155D01*
X144920000Y-94050000D01*
X145064545Y-94050000D01*
X145131584Y-94069685D01*
X145138852Y-94074730D01*
X145173796Y-94100889D01*
X145310799Y-94151989D01*
X145338050Y-94154918D01*
X145371345Y-94158499D01*
X145371362Y-94158500D01*
X146668638Y-94158500D01*
X146668654Y-94158499D01*
X146695692Y-94155591D01*
X146729201Y-94151989D01*
X146750484Y-94144051D01*
X146808451Y-94122430D01*
X146866204Y-94100889D01*
X146866204Y-94100888D01*
X146866206Y-94100888D01*
X146866207Y-94100887D01*
X146889789Y-94083234D01*
X146955253Y-94058816D01*
X146964100Y-94058500D01*
X158890166Y-94058500D01*
X158937616Y-94067938D01*
X159069169Y-94122430D01*
X159217769Y-94151988D01*
X159225365Y-94153499D01*
X159225369Y-94153500D01*
X159225370Y-94153500D01*
X159384631Y-94153500D01*
X159384632Y-94153499D01*
X159540831Y-94122430D01*
X159687968Y-94061483D01*
X159820389Y-93973003D01*
X159933003Y-93860389D01*
X160021483Y-93727968D01*
X160082430Y-93580831D01*
X160113500Y-93424630D01*
X160113500Y-93265370D01*
X160082430Y-93109169D01*
X160021483Y-92962032D01*
X160007294Y-92940797D01*
X159933004Y-92829612D01*
X159932998Y-92829605D01*
X159820394Y-92717001D01*
X159820387Y-92716995D01*
X159687969Y-92628517D01*
X159540831Y-92567570D01*
X159540823Y-92567568D01*
X159384634Y-92536500D01*
X159384630Y-92536500D01*
X159225370Y-92536500D01*
X159225365Y-92536500D01*
X159069176Y-92567568D01*
X159069168Y-92567570D01*
X158916404Y-92630848D01*
X158915726Y-92629212D01*
X158866682Y-92641500D01*
X146964100Y-92641500D01*
X146897061Y-92621815D01*
X146889789Y-92616766D01*
X146866207Y-92599112D01*
X146866206Y-92599111D01*
X146729203Y-92548011D01*
X146668654Y-92541500D01*
X146668638Y-92541500D01*
X145371362Y-92541500D01*
X145371345Y-92541500D01*
X145310797Y-92548011D01*
X145310795Y-92548011D01*
X145173795Y-92599111D01*
X145056739Y-92686739D01*
X144969111Y-92803795D01*
X144918011Y-92940795D01*
X144918011Y-92940797D01*
X144911500Y-93001345D01*
X144628499Y-93001345D01*
X144624981Y-92968634D01*
X144621989Y-92940799D01*
X144570889Y-92803796D01*
X144483261Y-92686739D01*
X144366204Y-92599111D01*
X144318988Y-92581500D01*
X144229203Y-92548011D01*
X144168654Y-92541500D01*
X144168638Y-92541500D01*
X142871362Y-92541500D01*
X142871345Y-92541500D01*
X142810798Y-92548010D01*
X142741973Y-92573682D01*
X142698639Y-92581500D01*
X137724832Y-92581500D01*
X137657793Y-92561815D01*
X137637151Y-92545181D01*
X133039046Y-87947075D01*
X133036424Y-87942273D01*
X133031864Y-87939250D01*
X133019859Y-87911937D01*
X133005561Y-87885752D01*
X133005367Y-87878965D01*
X133003750Y-87875286D01*
X133004253Y-87839998D01*
X133028500Y-87686916D01*
X133028500Y-87473084D01*
X132995049Y-87261884D01*
X132962010Y-87160200D01*
X132928973Y-87058519D01*
X132928972Y-87058516D01*
X132831893Y-86867990D01*
X132706206Y-86694996D01*
X132693365Y-86682155D01*
X135400000Y-86682155D01*
X135400000Y-87330000D01*
X136305440Y-87330000D01*
X136274755Y-87383147D01*
X136240000Y-87512857D01*
X136240000Y-87647143D01*
X136274755Y-87776853D01*
X136305440Y-87830000D01*
X135400000Y-87830000D01*
X135400000Y-88477844D01*
X135406401Y-88537372D01*
X135406403Y-88537379D01*
X135456645Y-88672086D01*
X135456649Y-88672093D01*
X135542809Y-88787187D01*
X135542812Y-88787190D01*
X135657906Y-88873350D01*
X135657913Y-88873354D01*
X135792620Y-88923596D01*
X135792627Y-88923598D01*
X135852155Y-88929999D01*
X135852172Y-88930000D01*
X136500000Y-88930000D01*
X136500000Y-88024560D01*
X136553147Y-88055245D01*
X136682857Y-88090000D01*
X136817143Y-88090000D01*
X136946853Y-88055245D01*
X137000000Y-88024560D01*
X137000000Y-88930000D01*
X137647828Y-88930000D01*
X137647844Y-88929999D01*
X137707372Y-88923598D01*
X137707379Y-88923596D01*
X137842086Y-88873354D01*
X137842093Y-88873350D01*
X137957187Y-88787190D01*
X137957190Y-88787187D01*
X138043350Y-88672093D01*
X138043354Y-88672086D01*
X138093596Y-88537379D01*
X138093598Y-88537372D01*
X138099999Y-88477844D01*
X138100000Y-88477827D01*
X138100000Y-87830000D01*
X137194560Y-87830000D01*
X137225245Y-87776853D01*
X137260000Y-87647143D01*
X137260000Y-87512857D01*
X137225245Y-87383147D01*
X137194560Y-87330000D01*
X138100000Y-87330000D01*
X138100000Y-86682172D01*
X138099999Y-86682155D01*
X138093598Y-86622627D01*
X138093596Y-86622620D01*
X138043354Y-86487913D01*
X138043350Y-86487906D01*
X137957190Y-86372812D01*
X137957187Y-86372809D01*
X137842093Y-86286649D01*
X137842086Y-86286645D01*
X137707379Y-86236403D01*
X137707372Y-86236401D01*
X137647844Y-86230000D01*
X137000000Y-86230000D01*
X137000000Y-87135439D01*
X136946853Y-87104755D01*
X136817143Y-87070000D01*
X136682857Y-87070000D01*
X136553147Y-87104755D01*
X136500000Y-87135439D01*
X136500000Y-86230000D01*
X135852155Y-86230000D01*
X135792627Y-86236401D01*
X135792620Y-86236403D01*
X135657913Y-86286645D01*
X135657906Y-86286649D01*
X135542812Y-86372809D01*
X135542809Y-86372812D01*
X135456649Y-86487906D01*
X135456645Y-86487913D01*
X135406403Y-86622620D01*
X135406401Y-86622627D01*
X135400000Y-86682155D01*
X132693365Y-86682155D01*
X132555004Y-86543794D01*
X132382009Y-86418106D01*
X132358499Y-86406127D01*
X132191483Y-86321027D01*
X132191480Y-86321026D01*
X131988117Y-86254951D01*
X131870997Y-86236401D01*
X131776916Y-86221500D01*
X131563084Y-86221500D01*
X131492684Y-86232650D01*
X131351882Y-86254951D01*
X131148519Y-86321026D01*
X131148516Y-86321027D01*
X130957990Y-86418106D01*
X130784993Y-86543796D01*
X130633796Y-86694993D01*
X130508106Y-86867990D01*
X130411027Y-87058516D01*
X130411026Y-87058519D01*
X130344951Y-87261882D01*
X130311500Y-87473084D01*
X124549343Y-87473084D01*
X124525245Y-87383147D01*
X124494560Y-87330000D01*
X125400000Y-87330000D01*
X125400000Y-86682172D01*
X125399999Y-86682155D01*
X125393598Y-86622627D01*
X125393596Y-86622620D01*
X125343354Y-86487913D01*
X125343350Y-86487906D01*
X125257190Y-86372812D01*
X125257187Y-86372809D01*
X125142093Y-86286649D01*
X125142086Y-86286645D01*
X125007379Y-86236403D01*
X125007372Y-86236401D01*
X124947844Y-86230000D01*
X124300000Y-86230000D01*
X124300000Y-87135439D01*
X124246853Y-87104755D01*
X124117143Y-87070000D01*
X123982857Y-87070000D01*
X123853147Y-87104755D01*
X123800000Y-87135439D01*
X123800000Y-86230000D01*
X123152155Y-86230000D01*
X123092627Y-86236401D01*
X123092620Y-86236403D01*
X122957913Y-86286645D01*
X122957906Y-86286649D01*
X122842812Y-86372809D01*
X122842809Y-86372812D01*
X122756649Y-86487906D01*
X122756645Y-86487913D01*
X122706403Y-86622620D01*
X122706401Y-86622627D01*
X122700000Y-86682155D01*
X120884458Y-86682155D01*
X123068292Y-84498322D01*
X136275001Y-84498322D01*
X136285144Y-84597607D01*
X136338452Y-84758481D01*
X136338457Y-84758492D01*
X136427424Y-84902728D01*
X136427427Y-84902732D01*
X136547267Y-85022572D01*
X136547271Y-85022575D01*
X136691507Y-85111542D01*
X136691518Y-85111547D01*
X136852393Y-85164855D01*
X136951683Y-85174999D01*
X136975000Y-85174998D01*
X136975000Y-84450000D01*
X136275001Y-84450000D01*
X136275001Y-84498322D01*
X123068292Y-84498322D01*
X123846796Y-83719819D01*
X123908119Y-83686334D01*
X123934477Y-83683500D01*
X136159977Y-83683500D01*
X136227016Y-83703185D01*
X136272771Y-83755989D01*
X136283335Y-83820103D01*
X136275000Y-83901677D01*
X136275000Y-83950000D01*
X136975000Y-83950000D01*
X136975000Y-83242976D01*
X136994685Y-83175937D01*
X137011314Y-83155300D01*
X137628154Y-82538460D01*
X137689475Y-82504977D01*
X137759167Y-82509961D01*
X137815100Y-82551833D01*
X137828752Y-82582438D01*
X137830958Y-82581525D01*
X137835632Y-82592809D01*
X137879947Y-82659131D01*
X137920465Y-82686204D01*
X137946269Y-82703446D01*
X137966689Y-82707507D01*
X138028600Y-82739890D01*
X138063176Y-82800605D01*
X138066500Y-82829125D01*
X138066500Y-83256265D01*
X138046815Y-83323304D01*
X137994011Y-83369059D01*
X137924853Y-83379003D01*
X137877403Y-83361803D01*
X137758492Y-83288457D01*
X137758481Y-83288452D01*
X137597606Y-83235144D01*
X137498322Y-83225000D01*
X137475000Y-83225000D01*
X137475000Y-85174999D01*
X137498308Y-85174999D01*
X137498322Y-85174998D01*
X137597607Y-85164855D01*
X137758481Y-85111547D01*
X137758492Y-85111542D01*
X137852403Y-85053617D01*
X137919795Y-85035176D01*
X137986459Y-85056098D01*
X138031228Y-85109740D01*
X138041500Y-85159155D01*
X138041500Y-85274706D01*
X138070647Y-85421239D01*
X138070649Y-85421247D01*
X138127825Y-85559282D01*
X138210835Y-85683517D01*
X138210836Y-85683518D01*
X138405181Y-85877862D01*
X138438666Y-85939185D01*
X138441500Y-85965543D01*
X138441500Y-90462303D01*
X138421815Y-90529342D01*
X138420603Y-90531192D01*
X138394898Y-90569663D01*
X138326413Y-90734999D01*
X138326411Y-90735007D01*
X138291500Y-90910516D01*
X138291500Y-91089483D01*
X138326411Y-91264992D01*
X138326413Y-91265000D01*
X138394896Y-91430332D01*
X138394901Y-91430342D01*
X138494321Y-91579134D01*
X138494324Y-91579138D01*
X138620861Y-91705675D01*
X138620865Y-91705678D01*
X138769657Y-91805098D01*
X138769661Y-91805100D01*
X138769664Y-91805102D01*
X138935000Y-91873587D01*
X139110516Y-91908499D01*
X139110520Y-91908500D01*
X139110521Y-91908500D01*
X139289480Y-91908500D01*
X139289481Y-91908499D01*
X139465000Y-91873587D01*
X139630336Y-91805102D01*
X139779135Y-91705678D01*
X139905678Y-91579135D01*
X140005102Y-91430336D01*
X140073587Y-91265000D01*
X140108500Y-91089479D01*
X140108500Y-90910521D01*
X140073587Y-90735000D01*
X140005102Y-90569664D01*
X139997100Y-90557688D01*
X139979397Y-90531192D01*
X139958520Y-90464515D01*
X139958500Y-90462303D01*
X139958500Y-85525294D01*
X139943925Y-85452024D01*
X139929351Y-85378753D01*
X139886253Y-85274706D01*
X139872174Y-85240716D01*
X139828263Y-85174999D01*
X139789168Y-85116488D01*
X139789167Y-85116487D01*
X139789165Y-85116484D01*
X139683516Y-85010835D01*
X139649162Y-84976481D01*
X139615677Y-84915158D01*
X139620661Y-84845466D01*
X139631306Y-84823701D01*
X139669300Y-84762105D01*
X139669300Y-84762103D01*
X139669302Y-84762101D01*
X139723236Y-84599336D01*
X139733500Y-84498872D01*
X139733500Y-83901128D01*
X139723236Y-83800664D01*
X139669302Y-83637899D01*
X139669298Y-83637893D01*
X139669297Y-83637890D01*
X139579287Y-83491963D01*
X139579284Y-83491959D01*
X139519819Y-83432494D01*
X139486334Y-83371171D01*
X139483500Y-83344813D01*
X139483500Y-82823954D01*
X139503185Y-82756915D01*
X139555989Y-82711160D01*
X139570148Y-82706587D01*
X139577729Y-82703446D01*
X139577731Y-82703446D01*
X139644052Y-82659131D01*
X139688367Y-82592810D01*
X139688367Y-82592808D01*
X139688368Y-82592808D01*
X139699999Y-82534331D01*
X139700000Y-82534329D01*
X139700000Y-82044828D01*
X139688849Y-81988771D01*
X139688849Y-81940387D01*
X139700000Y-81884329D01*
X139700000Y-81670621D01*
X139719685Y-81603582D01*
X139772489Y-81557827D01*
X139841647Y-81547883D01*
X139905203Y-81576908D01*
X139911681Y-81582940D01*
X141105181Y-82776440D01*
X141138666Y-82837763D01*
X141141500Y-82864121D01*
X141141500Y-86337845D01*
X141121815Y-86404884D01*
X141090385Y-86438163D01*
X140944999Y-86543791D01*
X140944993Y-86543796D01*
X140793796Y-86694993D01*
X140668106Y-86867990D01*
X140571027Y-87058516D01*
X140571026Y-87058519D01*
X140504951Y-87261882D01*
X140471500Y-87473084D01*
X140471500Y-87686915D01*
X140504951Y-87898117D01*
X140571026Y-88101480D01*
X140571027Y-88101483D01*
X140668106Y-88292009D01*
X140793794Y-88465004D01*
X140944996Y-88616206D01*
X141117991Y-88741894D01*
X141151499Y-88758967D01*
X141308516Y-88838972D01*
X141308519Y-88838973D01*
X141410200Y-88872010D01*
X141511884Y-88905049D01*
X141723084Y-88938500D01*
X141723085Y-88938500D01*
X141936915Y-88938500D01*
X141936916Y-88938500D01*
X142148116Y-88905049D01*
X142351483Y-88838972D01*
X142542009Y-88741894D01*
X142715004Y-88616206D01*
X142866206Y-88465004D01*
X142991894Y-88292009D01*
X143088972Y-88101483D01*
X143155049Y-87898116D01*
X143188500Y-87686916D01*
X143188500Y-87473084D01*
X143155049Y-87261884D01*
X143122010Y-87160200D01*
X143088973Y-87058519D01*
X143088972Y-87058516D01*
X142991893Y-86867990D01*
X142866206Y-86694996D01*
X142715004Y-86543794D01*
X142628506Y-86480950D01*
X142542007Y-86418104D01*
X142526205Y-86410053D01*
X142475409Y-86362078D01*
X142458500Y-86299568D01*
X142458500Y-82709833D01*
X142478185Y-82642794D01*
X142530989Y-82597039D01*
X142600147Y-82587095D01*
X142663703Y-82616120D01*
X142670181Y-82622152D01*
X142887933Y-82839904D01*
X142887937Y-82839907D01*
X143003972Y-82917440D01*
X143003985Y-82917447D01*
X143063235Y-82941989D01*
X143063236Y-82941989D01*
X143132917Y-82970852D01*
X143269793Y-82998078D01*
X143269797Y-82998079D01*
X143269798Y-82998079D01*
X143592500Y-82998079D01*
X143601185Y-83000629D01*
X143610147Y-82999341D01*
X143634187Y-83010319D01*
X143659539Y-83017764D01*
X143665466Y-83024604D01*
X143673703Y-83028366D01*
X143687992Y-83050600D01*
X143705294Y-83070568D01*
X143707581Y-83081082D01*
X143711477Y-83087144D01*
X143716500Y-83122079D01*
X143716500Y-83344813D01*
X143696815Y-83411852D01*
X143680181Y-83432494D01*
X143620715Y-83491959D01*
X143620712Y-83491963D01*
X143530702Y-83637890D01*
X143530697Y-83637901D01*
X143476764Y-83800663D01*
X143466500Y-83901120D01*
X143466500Y-84498879D01*
X143476764Y-84599336D01*
X143530697Y-84762098D01*
X143530702Y-84762109D01*
X143623038Y-84911807D01*
X143641500Y-84976904D01*
X143641500Y-89324706D01*
X143651476Y-89374857D01*
X143670649Y-89471247D01*
X143727826Y-89609284D01*
X143736267Y-89621917D01*
X143810835Y-89733517D01*
X143810836Y-89733518D01*
X144887145Y-90809826D01*
X144914024Y-90850052D01*
X144923516Y-90872967D01*
X144923517Y-90872969D01*
X145011995Y-91005387D01*
X145012001Y-91005394D01*
X145124605Y-91117998D01*
X145124612Y-91118004D01*
X145257030Y-91206482D01*
X145257031Y-91206482D01*
X145257032Y-91206483D01*
X145404169Y-91267430D01*
X145560365Y-91298499D01*
X145560369Y-91298500D01*
X145560370Y-91298500D01*
X145719631Y-91298500D01*
X145719632Y-91298499D01*
X145875831Y-91267430D01*
X146022968Y-91206483D01*
X146155389Y-91118003D01*
X146268003Y-91005389D01*
X146356483Y-90872968D01*
X146417430Y-90725831D01*
X146448500Y-90569630D01*
X146448500Y-90410370D01*
X146417430Y-90254169D01*
X146356483Y-90107032D01*
X146268003Y-89974611D01*
X146267998Y-89974605D01*
X146155394Y-89862001D01*
X146155387Y-89861995D01*
X146022969Y-89773517D01*
X146022967Y-89773516D01*
X146000052Y-89764024D01*
X145959826Y-89737145D01*
X145194819Y-88972138D01*
X145161334Y-88910815D01*
X145158500Y-88884457D01*
X145158500Y-87473084D01*
X145551500Y-87473084D01*
X145551500Y-87686915D01*
X145584951Y-87898117D01*
X145651026Y-88101480D01*
X145651027Y-88101483D01*
X145748106Y-88292009D01*
X145873794Y-88465004D01*
X146024996Y-88616206D01*
X146197990Y-88741893D01*
X146200386Y-88743634D01*
X146243051Y-88798964D01*
X146251500Y-88843952D01*
X146251500Y-89374858D01*
X146276804Y-89502071D01*
X146276806Y-89502077D01*
X146326443Y-89621913D01*
X146326447Y-89621920D01*
X146398510Y-89729771D01*
X146398511Y-89729772D01*
X148488510Y-91819769D01*
X148580231Y-91911490D01*
X148688083Y-91983555D01*
X148688084Y-91983555D01*
X148688085Y-91983556D01*
X148688087Y-91983557D01*
X148785635Y-92023962D01*
X148807923Y-92033194D01*
X148807927Y-92033194D01*
X148807928Y-92033195D01*
X148935140Y-92058500D01*
X148935143Y-92058500D01*
X159875878Y-92058500D01*
X159942917Y-92078185D01*
X159963559Y-92094819D01*
X160575610Y-92706870D01*
X160609095Y-92768193D01*
X160609546Y-92770359D01*
X160622568Y-92835825D01*
X160622569Y-92835829D01*
X160683517Y-92982969D01*
X160771995Y-93115387D01*
X160772001Y-93115394D01*
X160884605Y-93227998D01*
X160884612Y-93228004D01*
X161017030Y-93316482D01*
X161017031Y-93316482D01*
X161017032Y-93316483D01*
X161164169Y-93377430D01*
X161320365Y-93408499D01*
X161320369Y-93408500D01*
X161320370Y-93408500D01*
X161479631Y-93408500D01*
X161479632Y-93408499D01*
X161635831Y-93377430D01*
X161782968Y-93316483D01*
X161915389Y-93228003D01*
X162028003Y-93115389D01*
X162116483Y-92982968D01*
X162177430Y-92835831D01*
X162208500Y-92679630D01*
X162208500Y-92520370D01*
X162177430Y-92364169D01*
X162116483Y-92217032D01*
X162106567Y-92202192D01*
X162028004Y-92084612D01*
X162027998Y-92084605D01*
X161915394Y-91972001D01*
X161915387Y-91971995D01*
X161782969Y-91883517D01*
X161635829Y-91822569D01*
X161635825Y-91822568D01*
X161570359Y-91809546D01*
X161508448Y-91777161D01*
X161506870Y-91775610D01*
X160619772Y-90888511D01*
X160619771Y-90888510D01*
X160511920Y-90816447D01*
X160511919Y-90816446D01*
X160511917Y-90816445D01*
X160511915Y-90816444D01*
X160511913Y-90816443D01*
X160392077Y-90766806D01*
X160392071Y-90766804D01*
X160264859Y-90741500D01*
X160264857Y-90741500D01*
X149324121Y-90741500D01*
X149257082Y-90721815D01*
X149236440Y-90705181D01*
X147604819Y-89073559D01*
X147590115Y-89046631D01*
X147573523Y-89020813D01*
X147572631Y-89014612D01*
X147571334Y-89012236D01*
X147568500Y-88985878D01*
X147568500Y-88843952D01*
X147588185Y-88776913D01*
X147619614Y-88743634D01*
X147622010Y-88741893D01*
X147795004Y-88616206D01*
X147906791Y-88504418D01*
X147968110Y-88470936D01*
X148037802Y-88475920D01*
X148093736Y-88517791D01*
X148110651Y-88548769D01*
X148156645Y-88672086D01*
X148156649Y-88672093D01*
X148242809Y-88787187D01*
X148242812Y-88787190D01*
X148357906Y-88873350D01*
X148357913Y-88873354D01*
X148492620Y-88923596D01*
X148492627Y-88923598D01*
X148552155Y-88929999D01*
X148552172Y-88930000D01*
X149200000Y-88930000D01*
X149200000Y-88024560D01*
X149253147Y-88055245D01*
X149382857Y-88090000D01*
X149517143Y-88090000D01*
X149646853Y-88055245D01*
X149700000Y-88024560D01*
X149700000Y-88930000D01*
X150347828Y-88930000D01*
X150347844Y-88929999D01*
X150407372Y-88923598D01*
X150407379Y-88923596D01*
X150542086Y-88873354D01*
X150542093Y-88873350D01*
X150657187Y-88787190D01*
X150657190Y-88787187D01*
X150743350Y-88672093D01*
X150743354Y-88672086D01*
X150793596Y-88537379D01*
X150793598Y-88537372D01*
X150799999Y-88477844D01*
X150800000Y-88477827D01*
X150800000Y-87830000D01*
X149894560Y-87830000D01*
X149925245Y-87776853D01*
X149960000Y-87647143D01*
X149960000Y-87512857D01*
X149925245Y-87383147D01*
X149894560Y-87330000D01*
X150800000Y-87330000D01*
X150800000Y-86682172D01*
X150799999Y-86682155D01*
X160800000Y-86682155D01*
X160800000Y-87330000D01*
X161705440Y-87330000D01*
X161674755Y-87383147D01*
X161640000Y-87512857D01*
X161640000Y-87647143D01*
X161674755Y-87776853D01*
X161705440Y-87830000D01*
X160800000Y-87830000D01*
X160800000Y-88477844D01*
X160806401Y-88537372D01*
X160806403Y-88537379D01*
X160856645Y-88672086D01*
X160856649Y-88672093D01*
X160942809Y-88787187D01*
X160942812Y-88787190D01*
X161057906Y-88873350D01*
X161057913Y-88873354D01*
X161192620Y-88923596D01*
X161192627Y-88923598D01*
X161252155Y-88929999D01*
X161252172Y-88930000D01*
X161900000Y-88930000D01*
X161900000Y-88024560D01*
X161953147Y-88055245D01*
X162082857Y-88090000D01*
X162217143Y-88090000D01*
X162346853Y-88055245D01*
X162400000Y-88024560D01*
X162400000Y-88930000D01*
X163047828Y-88930000D01*
X163047844Y-88929999D01*
X163107372Y-88923598D01*
X163107379Y-88923596D01*
X163242086Y-88873354D01*
X163242093Y-88873350D01*
X163357187Y-88787190D01*
X163357190Y-88787187D01*
X163443350Y-88672093D01*
X163443354Y-88672086D01*
X163493596Y-88537379D01*
X163493598Y-88537372D01*
X163499999Y-88477844D01*
X163500000Y-88477827D01*
X163500000Y-87830000D01*
X162594560Y-87830000D01*
X162625245Y-87776853D01*
X162660000Y-87647143D01*
X162660000Y-87512857D01*
X162625245Y-87383147D01*
X162594560Y-87330000D01*
X163500000Y-87330000D01*
X163500000Y-86682172D01*
X163499999Y-86682155D01*
X163493598Y-86622627D01*
X163493596Y-86622620D01*
X163443354Y-86487913D01*
X163443350Y-86487906D01*
X163357190Y-86372812D01*
X163357187Y-86372809D01*
X163242093Y-86286649D01*
X163242086Y-86286645D01*
X163107379Y-86236403D01*
X163107372Y-86236401D01*
X163047844Y-86230000D01*
X162400000Y-86230000D01*
X162400000Y-87135439D01*
X162346853Y-87104755D01*
X162217143Y-87070000D01*
X162082857Y-87070000D01*
X161953147Y-87104755D01*
X161900000Y-87135439D01*
X161900000Y-86230000D01*
X161252155Y-86230000D01*
X161192627Y-86236401D01*
X161192620Y-86236403D01*
X161057913Y-86286645D01*
X161057906Y-86286649D01*
X160942812Y-86372809D01*
X160942809Y-86372812D01*
X160856649Y-86487906D01*
X160856645Y-86487913D01*
X160806403Y-86622620D01*
X160806401Y-86622627D01*
X160800000Y-86682155D01*
X150799999Y-86682155D01*
X150793598Y-86622627D01*
X150793596Y-86622620D01*
X150743354Y-86487913D01*
X150743350Y-86487906D01*
X150657190Y-86372812D01*
X150657187Y-86372809D01*
X150542093Y-86286649D01*
X150542086Y-86286645D01*
X150407379Y-86236403D01*
X150407372Y-86236401D01*
X150347844Y-86230000D01*
X149700000Y-86230000D01*
X149700000Y-87135439D01*
X149646853Y-87104755D01*
X149517143Y-87070000D01*
X149382857Y-87070000D01*
X149253147Y-87104755D01*
X149200000Y-87135439D01*
X149200000Y-86230000D01*
X148552155Y-86230000D01*
X148492627Y-86236401D01*
X148492620Y-86236403D01*
X148357913Y-86286645D01*
X148357906Y-86286649D01*
X148242812Y-86372809D01*
X148242809Y-86372812D01*
X148156649Y-86487906D01*
X148156645Y-86487913D01*
X148110651Y-86611230D01*
X148068779Y-86667164D01*
X148003315Y-86691581D01*
X147935042Y-86676729D01*
X147906788Y-86655578D01*
X147795006Y-86543796D01*
X147795004Y-86543794D01*
X147622009Y-86418106D01*
X147598499Y-86406127D01*
X147431483Y-86321027D01*
X147431480Y-86321026D01*
X147228117Y-86254951D01*
X147110997Y-86236401D01*
X147016916Y-86221500D01*
X146803084Y-86221500D01*
X146732684Y-86232650D01*
X146591882Y-86254951D01*
X146388519Y-86321026D01*
X146388516Y-86321027D01*
X146197990Y-86418106D01*
X146024993Y-86543796D01*
X145873796Y-86694993D01*
X145748106Y-86867990D01*
X145651027Y-87058516D01*
X145651026Y-87058519D01*
X145584951Y-87261882D01*
X145551500Y-87473084D01*
X145158500Y-87473084D01*
X145158500Y-85159155D01*
X145178185Y-85092116D01*
X145230989Y-85046361D01*
X145300147Y-85036417D01*
X145347597Y-85053617D01*
X145441507Y-85111542D01*
X145441518Y-85111547D01*
X145602393Y-85164855D01*
X145701683Y-85174999D01*
X146225000Y-85174999D01*
X146248308Y-85174999D01*
X146248322Y-85174998D01*
X146347607Y-85164855D01*
X146508481Y-85111547D01*
X146508492Y-85111542D01*
X146652728Y-85022575D01*
X146652732Y-85022572D01*
X146772572Y-84902732D01*
X146772575Y-84902728D01*
X146861542Y-84758492D01*
X146861547Y-84758481D01*
X146914855Y-84597606D01*
X146924999Y-84498322D01*
X146925000Y-84498309D01*
X146925000Y-84450000D01*
X146225000Y-84450000D01*
X146225000Y-85174999D01*
X145701683Y-85174999D01*
X145725000Y-85174998D01*
X145725000Y-83950000D01*
X146225000Y-83950000D01*
X146924999Y-83950000D01*
X146924999Y-83901692D01*
X146924998Y-83901677D01*
X146914855Y-83802392D01*
X146861547Y-83641518D01*
X146861542Y-83641507D01*
X146772575Y-83497271D01*
X146772572Y-83497267D01*
X146652732Y-83377427D01*
X146652728Y-83377424D01*
X146508492Y-83288457D01*
X146508481Y-83288452D01*
X146347606Y-83235144D01*
X146248322Y-83225000D01*
X146225000Y-83225000D01*
X146225000Y-83950000D01*
X145725000Y-83950000D01*
X145725000Y-83224999D01*
X145701693Y-83225000D01*
X145701674Y-83225001D01*
X145602392Y-83235144D01*
X145441518Y-83288452D01*
X145441507Y-83288457D01*
X145322597Y-83361803D01*
X145255205Y-83380244D01*
X145188541Y-83359322D01*
X145143772Y-83305680D01*
X145133500Y-83256265D01*
X145133500Y-82847411D01*
X145142144Y-82817972D01*
X145148671Y-82787978D01*
X145152423Y-82782966D01*
X145153185Y-82780372D01*
X145169819Y-82759729D01*
X145178157Y-82751392D01*
X145239482Y-82717911D01*
X145265833Y-82715079D01*
X145395250Y-82715079D01*
X145395251Y-82715078D01*
X145414950Y-82711160D01*
X145453729Y-82703447D01*
X145453729Y-82703446D01*
X145453731Y-82703446D01*
X145520052Y-82659131D01*
X145564367Y-82592810D01*
X145564367Y-82592808D01*
X145564368Y-82592808D01*
X145575999Y-82534331D01*
X145576000Y-82534329D01*
X145576000Y-82422079D01*
X145595685Y-82355040D01*
X145648489Y-82309285D01*
X145700000Y-82298079D01*
X148025280Y-82298079D01*
X148115256Y-82280181D01*
X148152498Y-82272773D01*
X148272338Y-82223134D01*
X148380190Y-82151070D01*
X151366441Y-79164819D01*
X151393368Y-79150115D01*
X151419187Y-79133523D01*
X151425387Y-79132631D01*
X151427764Y-79131334D01*
X151454122Y-79128500D01*
X151565500Y-79128500D01*
X151632539Y-79148185D01*
X151678294Y-79200989D01*
X151689500Y-79252500D01*
X151689500Y-81608392D01*
X151701201Y-81652061D01*
X151723608Y-81735687D01*
X151732443Y-81750989D01*
X151789500Y-81849814D01*
X151882686Y-81943000D01*
X151996814Y-82008892D01*
X152124108Y-82043000D01*
X152124110Y-82043000D01*
X154125890Y-82043000D01*
X154125892Y-82043000D01*
X154253186Y-82008892D01*
X154367314Y-81943000D01*
X154460500Y-81849814D01*
X154526392Y-81735686D01*
X154560500Y-81608392D01*
X154560500Y-79252500D01*
X154580185Y-79185461D01*
X154632989Y-79139706D01*
X154684500Y-79128500D01*
X154951094Y-79128500D01*
X155018133Y-79148185D01*
X155063888Y-79200989D01*
X155073566Y-79233100D01*
X155076639Y-79252500D01*
X155094951Y-79368117D01*
X155161026Y-79571480D01*
X155161027Y-79571483D01*
X155255659Y-79757207D01*
X155258106Y-79762009D01*
X155383794Y-79935004D01*
X155383796Y-79935006D01*
X155488971Y-80040181D01*
X155522456Y-80101504D01*
X155517472Y-80171196D01*
X155475600Y-80227129D01*
X155444625Y-80244043D01*
X155323795Y-80289111D01*
X155206739Y-80376739D01*
X155119111Y-80493795D01*
X155068011Y-80630795D01*
X155068011Y-80630797D01*
X155061500Y-80691345D01*
X155061500Y-82488654D01*
X155068011Y-82549202D01*
X155068011Y-82549204D01*
X155109013Y-82659131D01*
X155119111Y-82686204D01*
X155206739Y-82803261D01*
X155323796Y-82890889D01*
X155460799Y-82941989D01*
X155488050Y-82944918D01*
X155521345Y-82948499D01*
X155521362Y-82948500D01*
X157318638Y-82948500D01*
X157318654Y-82948499D01*
X157345692Y-82945591D01*
X157379201Y-82941989D01*
X157516204Y-82890889D01*
X157633261Y-82803261D01*
X157720889Y-82686204D01*
X157765957Y-82565371D01*
X157807827Y-82509442D01*
X157873291Y-82485025D01*
X157941564Y-82499877D01*
X157969818Y-82521028D01*
X158074996Y-82626206D01*
X158247991Y-82751894D01*
X158308973Y-82782966D01*
X158438516Y-82848972D01*
X158438519Y-82848973D01*
X158485141Y-82864121D01*
X158641884Y-82915049D01*
X158853084Y-82948500D01*
X158853085Y-82948500D01*
X159066915Y-82948500D01*
X159066916Y-82948500D01*
X159278116Y-82915049D01*
X159481483Y-82848972D01*
X159672009Y-82751894D01*
X159845004Y-82626206D01*
X159996206Y-82475004D01*
X160121894Y-82302009D01*
X160121896Y-82302004D01*
X160124270Y-82298132D01*
X160176080Y-82251254D01*
X160245009Y-82239829D01*
X160309173Y-82267483D01*
X160335730Y-82298132D01*
X160338103Y-82302005D01*
X160338106Y-82302009D01*
X160463794Y-82475004D01*
X160614996Y-82626206D01*
X160787991Y-82751894D01*
X160848973Y-82782966D01*
X160978516Y-82848972D01*
X160978519Y-82848973D01*
X161025141Y-82864121D01*
X161181884Y-82915049D01*
X161393084Y-82948500D01*
X161393085Y-82948500D01*
X161450878Y-82948500D01*
X161472123Y-82954738D01*
X161494212Y-82956318D01*
X161504995Y-82964390D01*
X161517917Y-82968185D01*
X161532416Y-82984918D01*
X161550145Y-82998190D01*
X161554852Y-83010810D01*
X161563672Y-83020989D01*
X161566823Y-83042906D01*
X161574562Y-83063654D01*
X161571699Y-83076814D01*
X161573616Y-83090147D01*
X161564416Y-83110290D01*
X161559710Y-83131927D01*
X161546441Y-83149652D01*
X161544591Y-83153703D01*
X161538559Y-83160181D01*
X161473559Y-83225181D01*
X161412236Y-83258666D01*
X161385878Y-83261500D01*
X149508500Y-83261500D01*
X149441461Y-83241815D01*
X149395706Y-83189011D01*
X149386883Y-83161691D01*
X149379003Y-83122079D01*
X149377430Y-83114169D01*
X149316483Y-82967032D01*
X149309324Y-82956318D01*
X149228004Y-82834612D01*
X149227998Y-82834605D01*
X149115394Y-82722001D01*
X149115387Y-82721995D01*
X148982969Y-82633517D01*
X148835831Y-82572570D01*
X148835823Y-82572568D01*
X148679634Y-82541500D01*
X148679630Y-82541500D01*
X148520370Y-82541500D01*
X148520365Y-82541500D01*
X148364176Y-82572568D01*
X148364168Y-82572570D01*
X148217030Y-82633517D01*
X148084612Y-82721995D01*
X148084605Y-82722001D01*
X147972001Y-82834605D01*
X147971995Y-82834612D01*
X147883517Y-82967030D01*
X147822570Y-83114168D01*
X147822568Y-83114176D01*
X147791500Y-83270365D01*
X147791500Y-83429634D01*
X147822568Y-83585823D01*
X147822570Y-83585831D01*
X147883517Y-83732969D01*
X147971995Y-83865387D01*
X147972001Y-83865394D01*
X148084605Y-83977998D01*
X148084612Y-83978004D01*
X148217030Y-84066482D01*
X148217031Y-84066482D01*
X148217032Y-84066483D01*
X148364169Y-84127430D01*
X148429639Y-84140452D01*
X148491548Y-84172836D01*
X148493128Y-84174388D01*
X148750227Y-84431488D01*
X148750231Y-84431491D01*
X148858076Y-84503551D01*
X148858080Y-84503553D01*
X148858083Y-84503555D01*
X148977923Y-84553195D01*
X149084036Y-84574301D01*
X149105143Y-84578500D01*
X161774859Y-84578500D01*
X161860444Y-84561475D01*
X161902077Y-84553194D01*
X162021917Y-84503555D01*
X162129769Y-84431491D01*
X163611881Y-82949377D01*
X163616682Y-82946756D01*
X163619706Y-82942196D01*
X163647020Y-82930190D01*
X163673204Y-82915893D01*
X163679989Y-82915699D01*
X163683669Y-82914082D01*
X163718960Y-82914586D01*
X163736980Y-82917440D01*
X163901487Y-82943495D01*
X163964620Y-82973424D01*
X164001552Y-83032735D01*
X164000554Y-83102598D01*
X163985191Y-83134857D01*
X163972138Y-83154392D01*
X163972135Y-83154398D01*
X163942161Y-83226763D01*
X163942161Y-83226764D01*
X163918726Y-83283339D01*
X163918725Y-83283343D01*
X163905112Y-83351776D01*
X163905113Y-83351777D01*
X163892569Y-83414845D01*
X163892567Y-83414853D01*
X163891501Y-83420209D01*
X163891500Y-83420222D01*
X163891500Y-91575167D01*
X163871815Y-91642206D01*
X163855181Y-91662848D01*
X157352848Y-98165181D01*
X157291525Y-98198666D01*
X157265167Y-98201500D01*
X146950741Y-98201500D01*
X146883702Y-98181815D01*
X146876447Y-98176779D01*
X146866204Y-98169111D01*
X146805601Y-98146507D01*
X146729203Y-98118011D01*
X146668654Y-98111500D01*
X146668638Y-98111500D01*
X145371362Y-98111500D01*
X145371345Y-98111500D01*
X145310797Y-98118011D01*
X145310795Y-98118011D01*
X145173795Y-98169111D01*
X145056739Y-98256739D01*
X144969111Y-98373795D01*
X144918011Y-98510795D01*
X144918011Y-98510797D01*
X144911500Y-98571345D01*
X144911500Y-99268654D01*
X144918010Y-99329197D01*
X144918012Y-99329204D01*
X144930926Y-99363828D01*
X144931248Y-99368344D01*
X144933700Y-99372153D01*
X144933718Y-99402881D01*
X144935910Y-99433519D01*
X144933742Y-99440902D01*
X144933743Y-99442022D01*
X144933135Y-99442967D01*
X144930927Y-99450492D01*
X144926401Y-99462625D01*
X144920000Y-99522155D01*
X144920000Y-99620000D01*
X145064545Y-99620000D01*
X145131584Y-99639685D01*
X145138852Y-99644730D01*
X145173796Y-99670889D01*
X145310799Y-99721989D01*
X145338050Y-99724918D01*
X145371345Y-99728499D01*
X145371362Y-99728500D01*
X146668638Y-99728500D01*
X146668654Y-99728499D01*
X146695692Y-99725591D01*
X146729201Y-99721989D01*
X146866204Y-99670889D01*
X146901144Y-99644732D01*
X146966608Y-99620316D01*
X146975455Y-99620000D01*
X147158911Y-99620000D01*
X147172862Y-99618500D01*
X157679784Y-99618500D01*
X157717532Y-99610991D01*
X157766388Y-99601273D01*
X157816662Y-99591273D01*
X157872647Y-99568083D01*
X157945601Y-99537865D01*
X158061643Y-99460328D01*
X161621604Y-95900365D01*
X162381500Y-95900365D01*
X162381500Y-96059634D01*
X162412568Y-96215823D01*
X162412570Y-96215831D01*
X162473517Y-96362969D01*
X162561995Y-96495387D01*
X162562001Y-96495394D01*
X162674605Y-96607998D01*
X162674612Y-96608004D01*
X162807030Y-96696482D01*
X162807031Y-96696482D01*
X162807032Y-96696483D01*
X162954169Y-96757430D01*
X163007155Y-96767969D01*
X163069065Y-96800352D01*
X163070645Y-96801905D01*
X165119611Y-98850871D01*
X165153096Y-98912194D01*
X165153547Y-98914361D01*
X165166568Y-98979823D01*
X165166570Y-98979831D01*
X165227517Y-99126969D01*
X165315995Y-99259387D01*
X165316001Y-99259394D01*
X165428605Y-99371998D01*
X165428612Y-99372004D01*
X165561030Y-99460482D01*
X165561031Y-99460482D01*
X165561032Y-99460483D01*
X165708169Y-99521430D01*
X165849962Y-99549634D01*
X165864365Y-99552499D01*
X165864369Y-99552500D01*
X165864370Y-99552500D01*
X166023631Y-99552500D01*
X166023632Y-99552499D01*
X166179831Y-99521430D01*
X166326968Y-99460483D01*
X166459389Y-99372003D01*
X166572003Y-99259389D01*
X166660483Y-99126968D01*
X166721430Y-98979831D01*
X166752500Y-98823630D01*
X166752500Y-98664370D01*
X166721430Y-98508169D01*
X166660483Y-98361032D01*
X166604618Y-98277424D01*
X166572004Y-98228612D01*
X166571998Y-98228605D01*
X166459394Y-98116001D01*
X166459387Y-98115995D01*
X166326969Y-98027517D01*
X166179831Y-97966570D01*
X166179823Y-97966568D01*
X166114361Y-97953547D01*
X166052450Y-97921163D01*
X166050871Y-97919611D01*
X164016871Y-95885611D01*
X163983386Y-95824288D01*
X163982951Y-95822204D01*
X163967430Y-95744169D01*
X163906483Y-95597032D01*
X163844984Y-95504992D01*
X163818004Y-95464612D01*
X163817998Y-95464605D01*
X163705394Y-95352001D01*
X163705387Y-95351995D01*
X163572969Y-95263517D01*
X163425831Y-95202570D01*
X163425823Y-95202568D01*
X163269634Y-95171500D01*
X163269630Y-95171500D01*
X163110370Y-95171500D01*
X163110365Y-95171500D01*
X162954176Y-95202568D01*
X162954168Y-95202570D01*
X162807030Y-95263517D01*
X162674612Y-95351995D01*
X162674605Y-95352001D01*
X162562001Y-95464605D01*
X162561995Y-95464612D01*
X162473517Y-95597030D01*
X162412570Y-95744168D01*
X162412568Y-95744176D01*
X162381500Y-95900365D01*
X161621604Y-95900365D01*
X163761433Y-93760535D01*
X163761438Y-93760532D01*
X163771641Y-93750328D01*
X163771643Y-93750328D01*
X165150328Y-92371643D01*
X165227865Y-92255601D01*
X165249986Y-92202192D01*
X165281273Y-92126662D01*
X165308500Y-91989781D01*
X165308500Y-87473084D01*
X165871500Y-87473084D01*
X165871500Y-87686915D01*
X165904951Y-87898117D01*
X165971026Y-88101480D01*
X165971027Y-88101483D01*
X166068106Y-88292009D01*
X166193794Y-88465004D01*
X166344996Y-88616206D01*
X166422625Y-88672607D01*
X166465291Y-88727936D01*
X166471270Y-88797549D01*
X166438665Y-88859345D01*
X166437422Y-88860606D01*
X166363185Y-88934843D01*
X166274173Y-89082086D01*
X166222986Y-89246354D01*
X166216500Y-89317737D01*
X166216500Y-89832272D01*
X166222985Y-89903645D01*
X166222988Y-89903655D01*
X166274171Y-90067909D01*
X166274172Y-90067911D01*
X166274173Y-90067913D01*
X166363184Y-90215155D01*
X166363186Y-90215158D01*
X166460347Y-90312319D01*
X166493832Y-90373642D01*
X166488848Y-90443334D01*
X166460347Y-90487681D01*
X166363187Y-90584840D01*
X166363186Y-90584841D01*
X166274173Y-90732086D01*
X166222986Y-90896354D01*
X166216500Y-90967737D01*
X166216500Y-91482272D01*
X166222985Y-91553645D01*
X166222988Y-91553655D01*
X166274171Y-91717909D01*
X166274172Y-91717911D01*
X166274173Y-91717913D01*
X166363184Y-91865155D01*
X166484845Y-91986816D01*
X166484847Y-91986817D01*
X166484849Y-91986819D01*
X166490754Y-91991446D01*
X166489323Y-91993271D01*
X166528825Y-92036387D01*
X166541500Y-92091001D01*
X166541500Y-93735143D01*
X166541500Y-93864857D01*
X166541500Y-93864859D01*
X166541499Y-93864859D01*
X166566804Y-93992071D01*
X166566806Y-93992077D01*
X166616443Y-94111913D01*
X166616447Y-94111920D01*
X166688510Y-94219771D01*
X166688511Y-94219772D01*
X169705181Y-97236440D01*
X169719884Y-97263367D01*
X169736477Y-97289186D01*
X169737368Y-97295386D01*
X169738666Y-97297763D01*
X169741500Y-97324121D01*
X169741500Y-97492638D01*
X169721815Y-97559677D01*
X169720603Y-97561528D01*
X169683516Y-97617033D01*
X169622570Y-97764168D01*
X169622568Y-97764176D01*
X169591500Y-97920365D01*
X169591500Y-98079634D01*
X169622568Y-98235823D01*
X169622570Y-98235831D01*
X169683517Y-98382969D01*
X169771995Y-98515387D01*
X169772001Y-98515394D01*
X169884605Y-98627998D01*
X169884612Y-98628004D01*
X170017030Y-98716482D01*
X170017031Y-98716482D01*
X170017032Y-98716483D01*
X170164169Y-98777430D01*
X170320365Y-98808499D01*
X170320369Y-98808500D01*
X170320370Y-98808500D01*
X170479631Y-98808500D01*
X170479632Y-98808499D01*
X170635831Y-98777430D01*
X170782968Y-98716483D01*
X170915389Y-98628003D01*
X171028003Y-98515389D01*
X171116483Y-98382968D01*
X171177430Y-98235831D01*
X171208500Y-98079630D01*
X171208500Y-97920370D01*
X171177430Y-97764169D01*
X171116483Y-97617032D01*
X171079397Y-97561528D01*
X171058520Y-97494850D01*
X171058500Y-97492638D01*
X171058500Y-96935140D01*
X171033195Y-96807928D01*
X171033194Y-96807927D01*
X171033194Y-96807923D01*
X171012279Y-96757429D01*
X170983557Y-96688087D01*
X170983556Y-96688085D01*
X170911491Y-96580232D01*
X170911490Y-96580231D01*
X170819769Y-96488510D01*
X167894819Y-93563559D01*
X167861334Y-93502236D01*
X167858500Y-93475878D01*
X167858500Y-92091001D01*
X167878185Y-92023962D01*
X167896114Y-92002043D01*
X167906252Y-91992197D01*
X167915155Y-91986816D01*
X167936655Y-91965316D01*
X168849500Y-91965316D01*
X168849500Y-92284683D01*
X168880803Y-92602522D01*
X168943109Y-92915754D01*
X169035820Y-93221382D01*
X169158040Y-93516446D01*
X169158042Y-93516451D01*
X169308584Y-93798094D01*
X169308601Y-93798122D01*
X169486012Y-94063638D01*
X169486029Y-94063661D01*
X169688638Y-94310540D01*
X169914459Y-94536361D01*
X169914464Y-94536365D01*
X169914465Y-94536366D01*
X170161344Y-94738975D01*
X170161351Y-94738980D01*
X170161361Y-94738987D01*
X170426877Y-94916398D01*
X170426882Y-94916401D01*
X170426894Y-94916409D01*
X170426903Y-94916413D01*
X170426905Y-94916415D01*
X170708548Y-95066957D01*
X170708550Y-95066957D01*
X170708556Y-95066961D01*
X171003619Y-95189180D01*
X171309240Y-95281889D01*
X171622477Y-95344196D01*
X171940313Y-95375500D01*
X171940316Y-95375500D01*
X172259684Y-95375500D01*
X172259687Y-95375500D01*
X172577523Y-95344196D01*
X172890760Y-95281889D01*
X173196381Y-95189180D01*
X173491444Y-95066961D01*
X173773106Y-94916409D01*
X174038656Y-94738975D01*
X174285535Y-94536366D01*
X174511366Y-94310535D01*
X174713975Y-94063656D01*
X174891409Y-93798106D01*
X175041961Y-93516444D01*
X175164180Y-93221381D01*
X175256889Y-92915760D01*
X175319196Y-92602523D01*
X175350500Y-92284687D01*
X175350500Y-91965313D01*
X175319196Y-91647477D01*
X175256889Y-91334240D01*
X175164180Y-91028619D01*
X175041961Y-90733556D01*
X175041177Y-90732090D01*
X174891415Y-90451905D01*
X174891413Y-90451903D01*
X174891409Y-90451894D01*
X174891398Y-90451877D01*
X174713987Y-90186361D01*
X174713980Y-90186351D01*
X174713975Y-90186344D01*
X174511366Y-89939465D01*
X174511365Y-89939464D01*
X174511361Y-89939459D01*
X174285540Y-89713638D01*
X174038661Y-89511029D01*
X174038638Y-89511012D01*
X173773122Y-89333601D01*
X173773094Y-89333584D01*
X173491451Y-89183042D01*
X173491446Y-89183040D01*
X173196382Y-89060820D01*
X172890754Y-88968109D01*
X172577521Y-88905803D01*
X172577522Y-88905803D01*
X172338141Y-88882227D01*
X172259687Y-88874500D01*
X171940313Y-88874500D01*
X171867822Y-88881639D01*
X171622477Y-88905803D01*
X171309245Y-88968109D01*
X171003617Y-89060820D01*
X170708553Y-89183040D01*
X170708548Y-89183042D01*
X170426905Y-89333584D01*
X170426877Y-89333601D01*
X170161361Y-89511012D01*
X170161338Y-89511029D01*
X169914459Y-89713638D01*
X169688638Y-89939459D01*
X169486029Y-90186338D01*
X169486012Y-90186361D01*
X169308601Y-90451877D01*
X169308584Y-90451905D01*
X169158042Y-90733548D01*
X169158040Y-90733553D01*
X169035820Y-91028617D01*
X168943109Y-91334245D01*
X168880803Y-91647477D01*
X168849500Y-91965316D01*
X167936655Y-91965316D01*
X168036816Y-91865155D01*
X168125827Y-91717913D01*
X168177013Y-91553649D01*
X168183500Y-91482265D01*
X168183499Y-90967736D01*
X168183499Y-90967735D01*
X168183499Y-90967727D01*
X168177014Y-90896354D01*
X168177011Y-90896344D01*
X168125828Y-90732090D01*
X168125827Y-90732089D01*
X168125827Y-90732087D01*
X168036816Y-90584845D01*
X168036814Y-90584843D01*
X168036813Y-90584841D01*
X167939653Y-90487681D01*
X167906168Y-90426358D01*
X167911152Y-90356666D01*
X167939653Y-90312319D01*
X168036812Y-90215159D01*
X168036813Y-90215158D01*
X168036816Y-90215155D01*
X168125827Y-90067913D01*
X168177013Y-89903649D01*
X168183500Y-89832265D01*
X168183499Y-89317736D01*
X168183499Y-89317735D01*
X168183499Y-89317727D01*
X168177014Y-89246354D01*
X168177011Y-89246344D01*
X168125828Y-89082090D01*
X168125827Y-89082089D01*
X168125827Y-89082087D01*
X168036816Y-88934845D01*
X168036814Y-88934843D01*
X168036813Y-88934841D01*
X167987826Y-88885854D01*
X167954341Y-88824531D01*
X167959325Y-88754839D01*
X168001197Y-88698906D01*
X168002437Y-88697990D01*
X168115004Y-88616206D01*
X168266206Y-88465004D01*
X168391894Y-88292009D01*
X168488972Y-88101483D01*
X168555049Y-87898116D01*
X168588500Y-87686916D01*
X168588500Y-87473084D01*
X168555049Y-87261884D01*
X168522010Y-87160200D01*
X168488973Y-87058519D01*
X168488972Y-87058516D01*
X168391893Y-86867990D01*
X168266206Y-86694996D01*
X168115004Y-86543794D01*
X167942009Y-86418106D01*
X167918499Y-86406127D01*
X167751483Y-86321027D01*
X167751480Y-86321026D01*
X167548117Y-86254951D01*
X167430997Y-86236401D01*
X167336916Y-86221500D01*
X167123084Y-86221500D01*
X167052684Y-86232650D01*
X166911882Y-86254951D01*
X166708519Y-86321026D01*
X166708516Y-86321027D01*
X166517990Y-86418106D01*
X166344993Y-86543796D01*
X166193796Y-86694993D01*
X166068106Y-86867990D01*
X165971027Y-87058516D01*
X165971026Y-87058519D01*
X165904951Y-87261882D01*
X165871500Y-87473084D01*
X165308500Y-87473084D01*
X165308500Y-83834832D01*
X165328185Y-83767793D01*
X165344819Y-83747151D01*
X165860325Y-83231645D01*
X165860328Y-83231642D01*
X165937865Y-83115600D01*
X165940065Y-83110290D01*
X165969860Y-83038357D01*
X165991273Y-82986661D01*
X165993857Y-82973670D01*
X166026237Y-82911761D01*
X166086951Y-82877184D01*
X166153791Y-82879927D01*
X166261884Y-82915049D01*
X166473084Y-82948500D01*
X166473085Y-82948500D01*
X166686915Y-82948500D01*
X166686916Y-82948500D01*
X166898116Y-82915049D01*
X167101483Y-82848972D01*
X167292009Y-82751894D01*
X167465004Y-82626206D01*
X167616206Y-82475004D01*
X167741894Y-82302009D01*
X167741896Y-82302004D01*
X167744270Y-82298132D01*
X167796080Y-82251254D01*
X167865009Y-82239829D01*
X167929173Y-82267483D01*
X167955730Y-82298132D01*
X167958103Y-82302005D01*
X167958106Y-82302009D01*
X168083794Y-82475004D01*
X168234996Y-82626206D01*
X168407991Y-82751894D01*
X168468973Y-82782966D01*
X168598516Y-82848972D01*
X168598519Y-82848973D01*
X168645141Y-82864121D01*
X168801884Y-82915049D01*
X169013084Y-82948500D01*
X169013085Y-82948500D01*
X169226915Y-82948500D01*
X169226916Y-82948500D01*
X169438116Y-82915049D01*
X169641483Y-82848972D01*
X169832009Y-82751894D01*
X170005004Y-82626206D01*
X170156206Y-82475004D01*
X170281894Y-82302009D01*
X170281896Y-82302004D01*
X170284270Y-82298132D01*
X170336080Y-82251254D01*
X170405009Y-82239829D01*
X170469173Y-82267483D01*
X170495730Y-82298132D01*
X170498103Y-82302005D01*
X170498106Y-82302009D01*
X170623794Y-82475004D01*
X170774996Y-82626206D01*
X170947991Y-82751894D01*
X171008973Y-82782966D01*
X171138516Y-82848972D01*
X171138519Y-82848973D01*
X171185141Y-82864121D01*
X171341884Y-82915049D01*
X171553084Y-82948500D01*
X171553085Y-82948500D01*
X171766915Y-82948500D01*
X171766916Y-82948500D01*
X171978116Y-82915049D01*
X172181483Y-82848972D01*
X172372009Y-82751894D01*
X172545004Y-82626206D01*
X172696206Y-82475004D01*
X172821894Y-82302009D01*
X172918972Y-82111483D01*
X172985049Y-81908116D01*
X173018500Y-81696916D01*
X173018500Y-81483084D01*
X172985049Y-81271884D01*
X172918972Y-81068517D01*
X172918972Y-81068516D01*
X172856013Y-80944954D01*
X172821894Y-80877991D01*
X172696206Y-80704996D01*
X172545004Y-80553794D01*
X172372009Y-80428106D01*
X172372010Y-80428106D01*
X172372008Y-80428105D01*
X172367311Y-80425712D01*
X172316517Y-80377735D01*
X172299724Y-80309914D01*
X172322264Y-80243780D01*
X172363790Y-80207801D01*
X172363402Y-80207168D01*
X172367229Y-80204822D01*
X172367327Y-80204738D01*
X172367560Y-80204619D01*
X172539459Y-80079727D01*
X172539464Y-80079723D01*
X172689723Y-79929464D01*
X172689727Y-79929459D01*
X172814620Y-79757557D01*
X172911095Y-79568217D01*
X172976757Y-79366129D01*
X172976757Y-79366126D01*
X172987231Y-79300000D01*
X172093012Y-79300000D01*
X172125925Y-79242993D01*
X172160000Y-79115826D01*
X172160000Y-78984174D01*
X172125925Y-78857007D01*
X172093012Y-78800000D01*
X172987231Y-78800000D01*
X172976757Y-78733873D01*
X172976757Y-78733870D01*
X172911095Y-78531782D01*
X172814620Y-78342442D01*
X172689727Y-78170540D01*
X172689723Y-78170535D01*
X172539464Y-78020276D01*
X172539459Y-78020272D01*
X172367557Y-77895379D01*
X172178215Y-77798903D01*
X171976124Y-77733241D01*
X171910000Y-77722768D01*
X171910000Y-78616988D01*
X171852993Y-78584075D01*
X171725826Y-78550000D01*
X171594174Y-78550000D01*
X171467007Y-78584075D01*
X171410000Y-78616988D01*
X171410000Y-77722768D01*
X171409999Y-77722768D01*
X171343875Y-77733241D01*
X171141784Y-77798903D01*
X170952442Y-77895379D01*
X170780540Y-78020272D01*
X170780535Y-78020276D01*
X170630276Y-78170535D01*
X170630272Y-78170540D01*
X170505376Y-78342446D01*
X170505374Y-78342448D01*
X170505246Y-78342701D01*
X170505172Y-78342779D01*
X170502832Y-78346598D01*
X170502029Y-78346106D01*
X170457264Y-78393489D01*
X170389441Y-78410274D01*
X170323309Y-78387727D01*
X170284285Y-78342683D01*
X170281895Y-78337992D01*
X170250472Y-78294742D01*
X170156206Y-78164996D01*
X170005004Y-78013794D01*
X169974118Y-77991354D01*
X169931453Y-77936024D01*
X169925475Y-77866411D01*
X169958081Y-77804616D01*
X169959250Y-77803430D01*
X170367862Y-77394819D01*
X170429185Y-77361334D01*
X170455543Y-77358500D01*
X174234457Y-77358500D01*
X174301496Y-77378185D01*
X174322138Y-77394819D01*
X175380138Y-78452819D01*
X175413623Y-78514142D01*
X175408639Y-78583834D01*
X175366767Y-78639767D01*
X175301303Y-78664184D01*
X175292457Y-78664500D01*
X173884108Y-78664500D01*
X173756812Y-78698608D01*
X173642686Y-78764500D01*
X173642683Y-78764502D01*
X173549502Y-78857683D01*
X173549500Y-78857686D01*
X173483608Y-78971812D01*
X173462046Y-79052285D01*
X173449500Y-79099108D01*
X173449500Y-81565892D01*
X173460888Y-81608392D01*
X173483608Y-81693187D01*
X173495053Y-81713010D01*
X173549500Y-81807314D01*
X173642686Y-81900500D01*
X173756814Y-81966392D01*
X173884108Y-82000500D01*
X173884110Y-82000500D01*
X175935890Y-82000500D01*
X175935892Y-82000500D01*
X176063186Y-81966392D01*
X176063194Y-81966387D01*
X176070049Y-81963549D01*
X176139518Y-81956082D01*
X176201997Y-81987357D01*
X176237649Y-82047447D01*
X176241500Y-82078111D01*
X176241500Y-99252500D01*
X176221815Y-99319539D01*
X176169011Y-99365294D01*
X176117500Y-99376500D01*
X176078845Y-99376500D01*
X176018297Y-99383011D01*
X176018295Y-99383011D01*
X175881295Y-99434111D01*
X175764239Y-99521739D01*
X175676611Y-99638794D01*
X175666409Y-99666148D01*
X175624536Y-99722081D01*
X175559071Y-99746496D01*
X175490799Y-99731643D01*
X175477343Y-99723130D01*
X175301279Y-99595213D01*
X175097568Y-99491417D01*
X174880124Y-99420765D01*
X174790000Y-99406490D01*
X174790000Y-100394252D01*
X174752292Y-100372482D01*
X174612409Y-100335000D01*
X174467591Y-100335000D01*
X174327708Y-100372482D01*
X174290000Y-100394252D01*
X174290000Y-99406490D01*
X174289999Y-99406490D01*
X174199875Y-99420765D01*
X173982431Y-99491417D01*
X173778723Y-99595211D01*
X173593757Y-99729597D01*
X173432097Y-99891257D01*
X173432090Y-99891266D01*
X173375570Y-99969058D01*
X173320240Y-100011724D01*
X173250627Y-100017702D01*
X173188832Y-99985096D01*
X173174935Y-99969057D01*
X173166365Y-99957262D01*
X173114389Y-99885722D01*
X172951778Y-99723111D01*
X172765731Y-99587940D01*
X172756548Y-99583261D01*
X172560833Y-99483539D01*
X172342118Y-99412473D01*
X172114988Y-99376500D01*
X172114983Y-99376500D01*
X171885017Y-99376500D01*
X171885012Y-99376500D01*
X171657881Y-99412473D01*
X171439166Y-99483539D01*
X171234268Y-99587940D01*
X171048219Y-99723113D01*
X170885613Y-99885719D01*
X170881583Y-99891266D01*
X170766043Y-100050294D01*
X170762343Y-100055386D01*
X170707013Y-100098051D01*
X170662025Y-100106500D01*
X148878905Y-100106500D01*
X148839903Y-100100206D01*
X148821094Y-100093974D01*
X148799335Y-100086763D01*
X148698879Y-100076500D01*
X148698872Y-100076500D01*
X148101128Y-100076500D01*
X148101120Y-100076500D01*
X148000664Y-100086763D01*
X147975003Y-100095267D01*
X147960096Y-100100206D01*
X147957306Y-100100656D01*
X147956030Y-100101477D01*
X147921095Y-100106500D01*
X147681197Y-100106500D01*
X147633744Y-100097061D01*
X147610831Y-100087570D01*
X147610823Y-100087568D01*
X147454634Y-100056500D01*
X147454630Y-100056500D01*
X147295370Y-100056500D01*
X147295369Y-100056500D01*
X147282213Y-100059117D01*
X147278252Y-100058762D01*
X147258021Y-100061500D01*
X146868171Y-100061500D01*
X146824838Y-100053682D01*
X146729198Y-100018010D01*
X146729199Y-100018010D01*
X146668654Y-100011500D01*
X146668638Y-100011500D01*
X145371362Y-100011500D01*
X145371345Y-100011500D01*
X145310797Y-100018011D01*
X145310795Y-100018011D01*
X145173795Y-100069111D01*
X145138856Y-100095267D01*
X145073392Y-100119684D01*
X145064545Y-100120000D01*
X144920000Y-100120000D01*
X144920000Y-100217844D01*
X144926401Y-100277372D01*
X144926403Y-100277382D01*
X144930926Y-100289508D01*
X144932507Y-100311628D01*
X144938743Y-100332913D01*
X144935365Y-100351604D01*
X144935908Y-100359200D01*
X144933044Y-100364442D01*
X144930926Y-100376168D01*
X144918012Y-100410792D01*
X144918010Y-100410802D01*
X144911500Y-100471345D01*
X144911500Y-101168654D01*
X144918010Y-101229197D01*
X144918012Y-101229204D01*
X144939089Y-101285715D01*
X144944073Y-101355407D01*
X144910588Y-101416729D01*
X144192138Y-102135181D01*
X144130815Y-102168666D01*
X144104457Y-102171500D01*
X136115543Y-102171500D01*
X136048504Y-102151815D01*
X136027862Y-102135181D01*
X135091004Y-101198322D01*
X138375001Y-101198322D01*
X138385144Y-101297607D01*
X138438452Y-101458481D01*
X138438457Y-101458492D01*
X138527424Y-101602728D01*
X138527427Y-101602732D01*
X138647267Y-101722572D01*
X138647271Y-101722575D01*
X138791507Y-101811542D01*
X138791518Y-101811547D01*
X138952393Y-101864855D01*
X139051683Y-101874999D01*
X139075000Y-101874998D01*
X139075000Y-101150000D01*
X138375001Y-101150000D01*
X138375001Y-101198322D01*
X135091004Y-101198322D01*
X135079001Y-101186319D01*
X134494359Y-100601677D01*
X138375000Y-100601677D01*
X138375000Y-100650000D01*
X139201000Y-100650000D01*
X139268039Y-100669685D01*
X139313794Y-100722489D01*
X139325000Y-100774000D01*
X139325000Y-100900000D01*
X139451000Y-100900000D01*
X139518039Y-100919685D01*
X139563794Y-100972489D01*
X139575000Y-101024000D01*
X139575000Y-101874999D01*
X139598308Y-101874999D01*
X139598322Y-101874998D01*
X139697607Y-101864855D01*
X139858481Y-101811547D01*
X139858492Y-101811542D01*
X140002728Y-101722575D01*
X140002732Y-101722572D01*
X140006309Y-101718996D01*
X140067632Y-101685511D01*
X140137324Y-101690495D01*
X140181671Y-101718996D01*
X140191959Y-101729284D01*
X140191963Y-101729287D01*
X140337890Y-101819297D01*
X140337893Y-101819298D01*
X140337899Y-101819302D01*
X140500664Y-101873236D01*
X140601128Y-101883500D01*
X140601133Y-101883500D01*
X141148867Y-101883500D01*
X141148872Y-101883500D01*
X141249336Y-101873236D01*
X141412101Y-101819302D01*
X141558040Y-101729285D01*
X141672507Y-101614818D01*
X141733830Y-101581334D01*
X141760188Y-101578500D01*
X142671829Y-101578500D01*
X142715162Y-101586318D01*
X142737110Y-101594504D01*
X142810799Y-101621989D01*
X142817760Y-101622737D01*
X142871345Y-101628499D01*
X142871362Y-101628500D01*
X144168638Y-101628500D01*
X144168654Y-101628499D01*
X144195692Y-101625591D01*
X144229201Y-101621989D01*
X144366204Y-101570889D01*
X144483261Y-101483261D01*
X144570889Y-101366204D01*
X144621989Y-101229201D01*
X144626599Y-101186319D01*
X144628499Y-101168654D01*
X144628500Y-101168637D01*
X144628500Y-100471362D01*
X144628499Y-100471345D01*
X144621989Y-100410802D01*
X144621989Y-100410799D01*
X144613609Y-100388334D01*
X144612026Y-100366212D01*
X144605790Y-100344925D01*
X144609581Y-100332041D01*
X144608623Y-100318647D01*
X144613604Y-100301678D01*
X144621989Y-100279201D01*
X144624423Y-100256560D01*
X144628499Y-100218654D01*
X144628500Y-100218637D01*
X144628500Y-99521362D01*
X144628499Y-99521341D01*
X144621989Y-99460802D01*
X144621989Y-99460799D01*
X144613609Y-99438334D01*
X144613286Y-99433819D01*
X144610834Y-99430008D01*
X144610815Y-99399280D01*
X144608623Y-99368647D01*
X144610793Y-99364671D01*
X144610791Y-99360139D01*
X144613598Y-99351696D01*
X144621989Y-99329201D01*
X144624697Y-99304011D01*
X144628499Y-99268654D01*
X144628500Y-99268637D01*
X144628500Y-98571362D01*
X144628499Y-98571345D01*
X144625157Y-98540270D01*
X144621989Y-98510799D01*
X144621008Y-98508169D01*
X144574310Y-98382969D01*
X144570889Y-98373796D01*
X144483261Y-98256739D01*
X144416067Y-98206438D01*
X144374197Y-98150505D01*
X144369213Y-98080813D01*
X144375819Y-98059717D01*
X144377430Y-98055831D01*
X144408500Y-97899630D01*
X144408500Y-97740370D01*
X144377430Y-97584169D01*
X144316483Y-97437032D01*
X144250049Y-97337606D01*
X144228004Y-97304612D01*
X144227998Y-97304605D01*
X144115394Y-97192001D01*
X144115387Y-97191995D01*
X143982969Y-97103517D01*
X143835831Y-97042570D01*
X143835823Y-97042568D01*
X143679634Y-97011500D01*
X143679630Y-97011500D01*
X143520370Y-97011500D01*
X143520365Y-97011500D01*
X143364176Y-97042568D01*
X143364168Y-97042570D01*
X143217030Y-97103517D01*
X143084612Y-97191995D01*
X143084605Y-97192001D01*
X142972001Y-97304605D01*
X142971995Y-97304612D01*
X142883517Y-97437030D01*
X142822570Y-97584168D01*
X142822568Y-97584176D01*
X142791500Y-97740365D01*
X142791500Y-97899634D01*
X142812684Y-98006134D01*
X142806457Y-98075726D01*
X142763593Y-98130903D01*
X142734405Y-98146504D01*
X142684333Y-98165181D01*
X142673793Y-98169112D01*
X142556739Y-98256739D01*
X142469111Y-98373795D01*
X142418011Y-98510795D01*
X142418011Y-98510797D01*
X142411500Y-98571345D01*
X142411500Y-98995968D01*
X142391815Y-99063007D01*
X142339011Y-99108762D01*
X142334954Y-99110529D01*
X142207028Y-99163518D01*
X142074612Y-99251995D01*
X142074605Y-99252001D01*
X141962001Y-99364605D01*
X141961995Y-99364612D01*
X141873517Y-99497030D01*
X141812570Y-99644168D01*
X141812568Y-99644176D01*
X141781500Y-99800365D01*
X141781500Y-99937500D01*
X141778949Y-99946185D01*
X141780238Y-99955147D01*
X141769259Y-99979187D01*
X141761815Y-100004539D01*
X141754974Y-100010466D01*
X141751213Y-100018703D01*
X141728978Y-100032992D01*
X141709011Y-100050294D01*
X141698496Y-100052581D01*
X141692435Y-100056477D01*
X141657500Y-100061500D01*
X141578267Y-100061500D01*
X141513168Y-100043037D01*
X141456086Y-100007827D01*
X141409363Y-99955879D01*
X141406624Y-99949743D01*
X141382175Y-99890718D01*
X141382170Y-99890709D01*
X141299166Y-99766485D01*
X141247539Y-99714858D01*
X141193516Y-99660835D01*
X140665782Y-99133101D01*
X140638902Y-99092873D01*
X140636483Y-99087032D01*
X140620430Y-99063007D01*
X140548004Y-98954612D01*
X140547998Y-98954605D01*
X140435394Y-98842001D01*
X140435387Y-98841995D01*
X140302969Y-98753517D01*
X140155831Y-98692570D01*
X140155823Y-98692568D01*
X139999634Y-98661500D01*
X139999630Y-98661500D01*
X139840370Y-98661500D01*
X139840365Y-98661500D01*
X139684176Y-98692568D01*
X139684168Y-98692570D01*
X139537030Y-98753517D01*
X139404612Y-98841995D01*
X139404605Y-98842001D01*
X139292001Y-98954605D01*
X139291995Y-98954612D01*
X139203517Y-99087030D01*
X139142570Y-99234168D01*
X139142568Y-99234176D01*
X139111500Y-99390365D01*
X139111500Y-99549634D01*
X139142568Y-99705823D01*
X139142571Y-99705835D01*
X139162350Y-99753586D01*
X139169819Y-99823056D01*
X139138543Y-99885535D01*
X139078454Y-99921186D01*
X139054110Y-99924877D01*
X139051688Y-99925000D01*
X138952392Y-99935144D01*
X138791518Y-99988452D01*
X138791507Y-99988457D01*
X138647271Y-100077424D01*
X138647267Y-100077427D01*
X138527427Y-100197267D01*
X138527424Y-100197271D01*
X138438457Y-100341507D01*
X138438452Y-100341518D01*
X138385144Y-100502393D01*
X138375000Y-100601677D01*
X134494359Y-100601677D01*
X134483517Y-100590835D01*
X134401225Y-100535850D01*
X134359284Y-100507826D01*
X134341129Y-100500306D01*
X134221247Y-100450649D01*
X134221239Y-100450647D01*
X134147976Y-100436074D01*
X134074709Y-100421500D01*
X134074706Y-100421500D01*
X133144999Y-100421500D01*
X133077960Y-100401815D01*
X133032205Y-100349011D01*
X133020999Y-100297500D01*
X133020999Y-100229462D01*
X133020998Y-100229446D01*
X133020718Y-100226707D01*
X133010387Y-100125574D01*
X132954615Y-99957262D01*
X132861530Y-99806348D01*
X132736152Y-99680970D01*
X132609004Y-99602544D01*
X132585240Y-99587886D01*
X132585235Y-99587884D01*
X132416927Y-99532113D01*
X132313045Y-99521500D01*
X130211962Y-99521500D01*
X130211946Y-99521501D01*
X130108072Y-99532113D01*
X129939764Y-99587884D01*
X129939759Y-99587886D01*
X129788846Y-99680971D01*
X129663471Y-99806346D01*
X129570386Y-99957259D01*
X129570384Y-99957264D01*
X129514613Y-100125572D01*
X129504000Y-100229447D01*
X129504000Y-102130537D01*
X129504001Y-102130553D01*
X129514613Y-102234427D01*
X129557386Y-102363508D01*
X129570385Y-102402738D01*
X129663470Y-102553652D01*
X129788848Y-102679030D01*
X129939762Y-102772115D01*
X130108074Y-102827887D01*
X130211955Y-102838500D01*
X132313044Y-102838499D01*
X132416926Y-102827887D01*
X132585238Y-102772115D01*
X132736152Y-102679030D01*
X132861530Y-102553652D01*
X132954615Y-102402738D01*
X133010387Y-102234426D01*
X133021000Y-102130545D01*
X133021000Y-102062500D01*
X133040685Y-101995461D01*
X133093489Y-101949706D01*
X133145000Y-101938500D01*
X133634457Y-101938500D01*
X133701496Y-101958185D01*
X133722138Y-101974819D01*
X135160834Y-103413515D01*
X135160835Y-103413516D01*
X135218861Y-103471542D01*
X135266485Y-103519166D01*
X135390709Y-103602170D01*
X135390722Y-103602177D01*
X135528749Y-103659349D01*
X135528754Y-103659351D01*
X135528758Y-103659351D01*
X135528759Y-103659352D01*
X135675291Y-103688500D01*
X135675294Y-103688500D01*
X144544708Y-103688500D01*
X144622478Y-103673030D01*
X144661364Y-103665295D01*
X144691247Y-103659351D01*
X144829284Y-103602174D01*
X144953515Y-103519166D01*
X145354200Y-103118481D01*
X145614360Y-102858322D01*
X147425001Y-102858322D01*
X147435144Y-102957607D01*
X147488452Y-103118481D01*
X147488457Y-103118492D01*
X147577424Y-103262728D01*
X147577427Y-103262732D01*
X147697267Y-103382572D01*
X147697271Y-103382575D01*
X147841507Y-103471542D01*
X147841518Y-103471547D01*
X148002393Y-103524855D01*
X148101683Y-103534999D01*
X148650000Y-103534999D01*
X148698308Y-103534999D01*
X148698322Y-103534998D01*
X148797607Y-103524855D01*
X148958481Y-103471547D01*
X148958492Y-103471542D01*
X149102728Y-103382575D01*
X149102732Y-103382572D01*
X149222572Y-103262732D01*
X149222575Y-103262728D01*
X149311542Y-103118492D01*
X149311547Y-103118481D01*
X149364855Y-102957606D01*
X149374999Y-102858322D01*
X149375000Y-102858309D01*
X149375000Y-102835000D01*
X148650000Y-102835000D01*
X148650000Y-103534999D01*
X148101683Y-103534999D01*
X148149999Y-103534998D01*
X148150000Y-103534998D01*
X148150000Y-102835000D01*
X147425001Y-102835000D01*
X147425001Y-102858322D01*
X145614360Y-102858322D01*
X145776725Y-102695957D01*
X146609163Y-101863518D01*
X146609166Y-101863515D01*
X146692174Y-101739285D01*
X146722216Y-101666754D01*
X146742800Y-101641211D01*
X146762468Y-101614940D01*
X146765152Y-101613474D01*
X146766055Y-101612354D01*
X146793439Y-101598028D01*
X146824840Y-101586317D01*
X146868171Y-101578500D01*
X146960166Y-101578500D01*
X147007616Y-101587938D01*
X147139169Y-101642430D01*
X147288598Y-101672153D01*
X147295365Y-101673499D01*
X147295369Y-101673500D01*
X147295370Y-101673500D01*
X147454632Y-101673500D01*
X147460695Y-101672903D01*
X147460880Y-101674782D01*
X147468498Y-101672153D01*
X147493767Y-101678306D01*
X147519665Y-101680617D01*
X147528968Y-101686877D01*
X147536384Y-101688683D01*
X147552967Y-101703026D01*
X147564109Y-101710524D01*
X147569705Y-101716403D01*
X147570715Y-101718040D01*
X147582110Y-101729435D01*
X147583139Y-101730516D01*
X147598460Y-101760298D01*
X147614489Y-101789652D01*
X147614375Y-101791234D01*
X147615102Y-101792646D01*
X147611891Y-101825968D01*
X147609505Y-101859344D01*
X147608530Y-101860860D01*
X147608402Y-101862194D01*
X147604446Y-101867214D01*
X147581004Y-101903691D01*
X147577427Y-101907267D01*
X147577424Y-101907271D01*
X147488457Y-102051507D01*
X147488452Y-102051518D01*
X147435144Y-102212393D01*
X147425000Y-102311677D01*
X147425000Y-102335000D01*
X149374999Y-102335000D01*
X149374999Y-102311692D01*
X149374998Y-102311677D01*
X149364855Y-102212392D01*
X149311547Y-102051518D01*
X149311542Y-102051507D01*
X149222575Y-101907271D01*
X149222572Y-101907267D01*
X149218996Y-101903691D01*
X149185511Y-101842368D01*
X149190495Y-101772676D01*
X149206604Y-101742788D01*
X149212240Y-101735084D01*
X149229285Y-101718040D01*
X149253838Y-101678232D01*
X149256732Y-101674278D01*
X149280737Y-101655895D01*
X149303215Y-101635678D01*
X149308793Y-101634410D01*
X149312205Y-101631798D01*
X149324897Y-101630750D01*
X149356805Y-101623500D01*
X170636376Y-101623500D01*
X170703415Y-101643185D01*
X170746859Y-101691204D01*
X170750440Y-101698231D01*
X170885611Y-101884278D01*
X171048222Y-102046889D01*
X171234269Y-102182060D01*
X171331078Y-102231386D01*
X171439166Y-102286460D01*
X171439168Y-102286460D01*
X171439171Y-102286462D01*
X171556404Y-102324553D01*
X171657881Y-102357526D01*
X171885012Y-102393500D01*
X171885017Y-102393500D01*
X172114988Y-102393500D01*
X172342118Y-102357526D01*
X172411445Y-102335000D01*
X172560829Y-102286462D01*
X172765731Y-102182060D01*
X172951778Y-102046889D01*
X173114389Y-101884278D01*
X173174937Y-101800940D01*
X173230264Y-101758276D01*
X173299877Y-101752297D01*
X173361672Y-101784902D01*
X173375571Y-101800941D01*
X173432097Y-101878741D01*
X173432097Y-101878742D01*
X173593757Y-102040402D01*
X173778723Y-102174788D01*
X173982429Y-102278582D01*
X174199871Y-102349234D01*
X174290000Y-102363509D01*
X174290000Y-101375747D01*
X174327708Y-101397518D01*
X174467591Y-101435000D01*
X174612409Y-101435000D01*
X174752292Y-101397518D01*
X174790000Y-101375747D01*
X174790000Y-102363508D01*
X174880128Y-102349234D01*
X175097570Y-102278582D01*
X175301276Y-102174788D01*
X175477342Y-102046869D01*
X175543149Y-102023389D01*
X175611203Y-102039214D01*
X175659898Y-102089320D01*
X175666409Y-102103852D01*
X175676611Y-102131204D01*
X175764239Y-102248261D01*
X175881296Y-102335889D01*
X176018299Y-102386989D01*
X176045550Y-102389918D01*
X176078845Y-102393499D01*
X176078862Y-102393500D01*
X178081138Y-102393500D01*
X178081154Y-102393499D01*
X178108192Y-102390591D01*
X178141701Y-102386989D01*
X178278704Y-102335889D01*
X178395761Y-102248261D01*
X178483389Y-102131204D01*
X178534489Y-101994201D01*
X178540173Y-101941334D01*
X178540999Y-101933654D01*
X178541000Y-101933637D01*
X178541000Y-99836362D01*
X178540999Y-99836345D01*
X178537657Y-99805270D01*
X178534489Y-99775799D01*
X178523559Y-99746496D01*
X178511759Y-99714858D01*
X178483389Y-99638796D01*
X178395761Y-99521739D01*
X178278704Y-99434111D01*
X178267704Y-99430008D01*
X178141703Y-99383011D01*
X178081154Y-99376500D01*
X178081138Y-99376500D01*
X177882500Y-99376500D01*
X177815461Y-99356815D01*
X177769706Y-99304011D01*
X177758500Y-99252500D01*
X177758500Y-78925291D01*
X177729352Y-78778759D01*
X177729351Y-78778758D01*
X177729351Y-78778754D01*
X177722469Y-78762139D01*
X177672176Y-78640720D01*
X177672175Y-78640718D01*
X177662148Y-78625712D01*
X177643871Y-78598358D01*
X177643871Y-78598357D01*
X177589167Y-78516486D01*
X177589161Y-78516479D01*
X175083517Y-76010835D01*
X175021399Y-75969330D01*
X174959284Y-75927826D01*
X174932457Y-75916714D01*
X174821247Y-75870649D01*
X174821239Y-75870647D01*
X174716201Y-75849754D01*
X174716200Y-75849753D01*
X174687822Y-75844109D01*
X174674707Y-75841500D01*
X174674706Y-75841500D01*
X170015294Y-75841500D01*
X170015293Y-75841500D01*
X170002178Y-75844109D01*
X169973799Y-75849754D01*
X169973798Y-75849754D01*
X169868760Y-75870646D01*
X169868756Y-75870648D01*
X169868754Y-75870648D01*
X169868753Y-75870649D01*
X169857591Y-75875272D01*
X169811576Y-75894331D01*
X169811576Y-75894332D01*
X169771146Y-75911079D01*
X169730715Y-75927826D01*
X169698026Y-75949669D01*
X169606482Y-76010835D01*
X168530835Y-77086482D01*
X168447825Y-77210717D01*
X168390648Y-77348754D01*
X168390646Y-77348759D01*
X168378494Y-77409858D01*
X168361500Y-77495290D01*
X168361500Y-77858701D01*
X168341815Y-77925740D01*
X168310387Y-77959018D01*
X168234996Y-78013793D01*
X168083796Y-78164993D01*
X167958105Y-78337991D01*
X167955727Y-78341873D01*
X167903914Y-78388748D01*
X167834984Y-78400169D01*
X167770822Y-78372512D01*
X167744273Y-78341873D01*
X167741894Y-78337991D01*
X167721520Y-78309949D01*
X167616206Y-78164996D01*
X167465004Y-78013794D01*
X167292009Y-77888106D01*
X167284306Y-77884181D01*
X167101483Y-77791027D01*
X167101480Y-77791026D01*
X166898117Y-77724951D01*
X166780769Y-77706365D01*
X166686916Y-77691500D01*
X166473084Y-77691500D01*
X166402684Y-77702650D01*
X166261882Y-77724951D01*
X166058519Y-77791026D01*
X166058516Y-77791027D01*
X165867990Y-77888106D01*
X165694993Y-78013796D01*
X165543796Y-78164993D01*
X165418105Y-78337991D01*
X165415727Y-78341873D01*
X165363914Y-78388748D01*
X165294984Y-78400169D01*
X165230822Y-78372512D01*
X165204273Y-78341873D01*
X165201894Y-78337991D01*
X165181520Y-78309949D01*
X165076206Y-78164996D01*
X164925004Y-78013794D01*
X164752009Y-77888106D01*
X164744306Y-77884181D01*
X164561483Y-77791027D01*
X164561480Y-77791026D01*
X164358117Y-77724951D01*
X164240769Y-77706365D01*
X164146916Y-77691500D01*
X163933084Y-77691500D01*
X163862684Y-77702650D01*
X163721882Y-77724951D01*
X163518519Y-77791026D01*
X163518516Y-77791027D01*
X163327990Y-77888106D01*
X163154993Y-78013796D01*
X163003796Y-78164993D01*
X162878105Y-78337991D01*
X162875727Y-78341873D01*
X162823914Y-78388748D01*
X162754984Y-78400169D01*
X162690822Y-78372512D01*
X162664273Y-78341873D01*
X162661894Y-78337991D01*
X162641520Y-78309949D01*
X162536206Y-78164996D01*
X162385004Y-78013794D01*
X162212009Y-77888106D01*
X162204306Y-77884181D01*
X162021483Y-77791027D01*
X162021480Y-77791026D01*
X161818117Y-77724951D01*
X161700769Y-77706365D01*
X161606916Y-77691500D01*
X161393084Y-77691500D01*
X161322684Y-77702650D01*
X161181882Y-77724951D01*
X160978519Y-77791026D01*
X160978516Y-77791027D01*
X160787990Y-77888106D01*
X160614993Y-78013796D01*
X160463796Y-78164993D01*
X160338105Y-78337991D01*
X160335727Y-78341873D01*
X160283914Y-78388748D01*
X160214984Y-78400169D01*
X160150822Y-78372512D01*
X160124273Y-78341873D01*
X160121894Y-78337991D01*
X160101520Y-78309949D01*
X159996206Y-78164996D01*
X159845004Y-78013794D01*
X159737963Y-77936024D01*
X159672007Y-77888104D01*
X159660069Y-77882022D01*
X159609272Y-77834048D01*
X159594745Y-77795725D01*
X159593194Y-77787923D01*
X159553255Y-77691500D01*
X159543557Y-77668087D01*
X159543554Y-77668082D01*
X159542407Y-77666366D01*
X159538371Y-77660325D01*
X159527934Y-77644704D01*
X159471489Y-77560228D01*
X157969771Y-76058510D01*
X157861920Y-75986447D01*
X157861919Y-75986446D01*
X157861917Y-75986445D01*
X157861915Y-75986444D01*
X157861913Y-75986443D01*
X157742077Y-75936806D01*
X157742071Y-75936804D01*
X157614859Y-75911500D01*
X157614857Y-75911500D01*
X149145143Y-75911500D01*
X149145141Y-75911500D01*
X149063068Y-75927826D01*
X149063067Y-75927826D01*
X149017930Y-75936804D01*
X149017922Y-75936806D01*
X148898086Y-75986443D01*
X148898079Y-75986447D01*
X148790228Y-76058510D01*
X148790227Y-76058511D01*
X146086600Y-78762139D01*
X146025277Y-78795624D01*
X145955585Y-78790640D01*
X145899652Y-78748768D01*
X145875235Y-78683304D01*
X145875550Y-78665744D01*
X145875322Y-78665732D01*
X145875500Y-78662406D01*
X145875500Y-78614579D01*
X145406416Y-78614579D01*
X145396238Y-78614079D01*
X145395248Y-78614079D01*
X143880752Y-78614079D01*
X143879762Y-78614079D01*
X143869584Y-78614579D01*
X143400500Y-78614579D01*
X143400500Y-78662423D01*
X143406901Y-78721951D01*
X143406903Y-78721958D01*
X143457145Y-78856665D01*
X143457149Y-78856672D01*
X143543309Y-78971766D01*
X143543312Y-78971769D01*
X143650311Y-79051869D01*
X143650623Y-79052285D01*
X143651110Y-79052472D01*
X143671523Y-79080204D01*
X143692182Y-79107802D01*
X143692323Y-79108463D01*
X143692528Y-79108742D01*
X143693219Y-79112667D01*
X143699752Y-79143289D01*
X143700000Y-79147200D01*
X143700000Y-79284327D01*
X143711633Y-79342810D01*
X143712482Y-79344081D01*
X143713285Y-79356733D01*
X143711151Y-79366174D01*
X143711151Y-79388769D01*
X143700000Y-79444831D01*
X143700000Y-79596545D01*
X143680315Y-79663584D01*
X143627511Y-79709339D01*
X143558353Y-79719283D01*
X143507110Y-79699648D01*
X143506575Y-79699290D01*
X143482968Y-79683517D01*
X143335831Y-79622570D01*
X143335823Y-79622568D01*
X143179634Y-79591500D01*
X143179630Y-79591500D01*
X143020370Y-79591500D01*
X143020365Y-79591500D01*
X142864176Y-79622568D01*
X142864168Y-79622570D01*
X142717030Y-79683517D01*
X142584612Y-79771995D01*
X142584605Y-79772001D01*
X142472001Y-79884605D01*
X142471995Y-79884612D01*
X142383517Y-80017030D01*
X142322570Y-80164168D01*
X142322568Y-80164176D01*
X142291500Y-80320365D01*
X142291500Y-80479634D01*
X142322568Y-80635823D01*
X142322570Y-80635831D01*
X142349048Y-80699755D01*
X142383517Y-80782968D01*
X142402180Y-80810899D01*
X142423057Y-80877574D01*
X142404573Y-80944954D01*
X142367968Y-80982890D01*
X142234608Y-81071998D01*
X142122001Y-81184605D01*
X142121995Y-81184612D01*
X142033517Y-81317030D01*
X141972570Y-81464168D01*
X141972568Y-81464174D01*
X141965211Y-81501163D01*
X141932826Y-81563074D01*
X141872110Y-81597648D01*
X141802341Y-81593908D01*
X141755913Y-81564652D01*
X140019350Y-79828089D01*
X139911499Y-79756026D01*
X139911498Y-79756025D01*
X139911496Y-79756024D01*
X139911494Y-79756023D01*
X139911492Y-79756022D01*
X139791647Y-79706381D01*
X139787994Y-79705273D01*
X139786316Y-79704173D01*
X139786028Y-79704054D01*
X139786050Y-79703999D01*
X139769401Y-79693085D01*
X139748649Y-79685096D01*
X139740744Y-79674301D01*
X139729559Y-79666970D01*
X139720506Y-79646664D01*
X139707369Y-79628725D01*
X139704048Y-79609750D01*
X139701108Y-79603155D01*
X139700230Y-79594160D01*
X139700000Y-79590386D01*
X139700000Y-79444831D01*
X139688367Y-79386348D01*
X139687482Y-79385024D01*
X139686696Y-79372123D01*
X139688849Y-79362703D01*
X139688849Y-79340387D01*
X139697303Y-79297887D01*
X139729688Y-79235976D01*
X139790404Y-79201402D01*
X139818920Y-79198079D01*
X139979631Y-79198079D01*
X139979632Y-79198078D01*
X140135831Y-79167009D01*
X140282968Y-79106062D01*
X140415389Y-79017582D01*
X140528003Y-78904968D01*
X140616483Y-78772547D01*
X140677430Y-78625410D01*
X140708500Y-78469209D01*
X140708500Y-78309949D01*
X140680769Y-78170535D01*
X140677431Y-78153752D01*
X140677430Y-78153750D01*
X140677430Y-78153748D01*
X140662098Y-78116734D01*
X143400500Y-78116734D01*
X143400500Y-78164579D01*
X144413000Y-78164579D01*
X144863000Y-78164579D01*
X145875500Y-78164579D01*
X145875500Y-78116751D01*
X145875499Y-78116734D01*
X145869098Y-78057206D01*
X145869096Y-78057199D01*
X145818854Y-77922492D01*
X145818850Y-77922485D01*
X145732690Y-77807391D01*
X145732687Y-77807388D01*
X145617593Y-77721228D01*
X145617586Y-77721224D01*
X145482879Y-77670982D01*
X145482872Y-77670980D01*
X145423344Y-77664579D01*
X144863000Y-77664579D01*
X144863000Y-78164579D01*
X144413000Y-78164579D01*
X144413000Y-77664579D01*
X143852655Y-77664579D01*
X143793127Y-77670980D01*
X143793120Y-77670982D01*
X143658413Y-77721224D01*
X143658406Y-77721228D01*
X143543312Y-77807388D01*
X143543309Y-77807391D01*
X143457149Y-77922485D01*
X143457145Y-77922492D01*
X143406903Y-78057199D01*
X143406901Y-78057206D01*
X143400500Y-78116734D01*
X140662098Y-78116734D01*
X140616483Y-78006611D01*
X140607834Y-77993667D01*
X140528004Y-77874191D01*
X140527998Y-77874184D01*
X140415394Y-77761580D01*
X140415387Y-77761574D01*
X140282969Y-77673096D01*
X140135831Y-77612149D01*
X140135823Y-77612147D01*
X139979634Y-77581079D01*
X139979630Y-77581079D01*
X139820370Y-77581079D01*
X139820365Y-77581079D01*
X139664176Y-77612147D01*
X139664168Y-77612149D01*
X139517033Y-77673095D01*
X139461528Y-77710182D01*
X139394850Y-77731059D01*
X139392638Y-77731079D01*
X138697141Y-77731079D01*
X138569928Y-77756383D01*
X138569922Y-77756385D01*
X138450086Y-77806022D01*
X138450079Y-77806026D01*
X138342228Y-77878089D01*
X138342227Y-77878090D01*
X138292560Y-77927759D01*
X138231237Y-77961245D01*
X138204878Y-77964079D01*
X138004747Y-77964079D01*
X137946270Y-77975710D01*
X137946269Y-77975711D01*
X137879947Y-78020026D01*
X137835632Y-78086348D01*
X137835631Y-78086349D01*
X137824000Y-78144826D01*
X137824000Y-78634326D01*
X137835151Y-78690389D01*
X137837050Y-78725510D01*
X137836160Y-78735558D01*
X137835633Y-78736348D01*
X137824000Y-78794831D01*
X137824000Y-78872973D01*
X137823517Y-78878431D01*
X137812676Y-78906064D01*
X137804315Y-78934539D01*
X137800058Y-78938227D01*
X137798000Y-78943474D01*
X137773936Y-78960862D01*
X137751511Y-78980294D01*
X137745120Y-78981684D01*
X137741368Y-78984396D01*
X137729736Y-78985030D01*
X137700000Y-78991500D01*
X136926906Y-78991500D01*
X136879453Y-78982061D01*
X136735831Y-78922570D01*
X136735823Y-78922568D01*
X136579634Y-78891500D01*
X136579630Y-78891500D01*
X136420370Y-78891500D01*
X136420365Y-78891500D01*
X136264176Y-78922568D01*
X136264168Y-78922570D01*
X136117030Y-78983517D01*
X135984612Y-79071995D01*
X135984605Y-79072001D01*
X135872001Y-79184605D01*
X135871995Y-79184612D01*
X135783517Y-79317030D01*
X135722570Y-79464168D01*
X135722568Y-79464176D01*
X135691500Y-79620365D01*
X135691500Y-79779634D01*
X135722568Y-79935823D01*
X135722570Y-79935831D01*
X135785848Y-80088596D01*
X135783597Y-80089528D01*
X135795665Y-80147421D01*
X135770680Y-80212671D01*
X135714384Y-80254054D01*
X135672063Y-80261500D01*
X126158467Y-80261500D01*
X126091428Y-80241815D01*
X126089578Y-80240603D01*
X126057389Y-80219096D01*
X125910252Y-80158149D01*
X125910244Y-80158147D01*
X125754055Y-80127079D01*
X125754051Y-80127079D01*
X125594791Y-80127079D01*
X125594786Y-80127079D01*
X125438597Y-80158147D01*
X125438589Y-80158149D01*
X125291451Y-80219096D01*
X125159033Y-80307574D01*
X125159026Y-80307580D01*
X125046422Y-80420184D01*
X125046416Y-80420191D01*
X124957938Y-80552609D01*
X124896991Y-80699747D01*
X124896989Y-80699755D01*
X124865921Y-80855944D01*
X124865921Y-81015213D01*
X124896989Y-81171402D01*
X124896991Y-81171410D01*
X124957938Y-81318548D01*
X125046416Y-81450966D01*
X125046422Y-81450973D01*
X125159026Y-81563577D01*
X125159033Y-81563583D01*
X125291451Y-81652061D01*
X125291452Y-81652061D01*
X125291453Y-81652062D01*
X125438590Y-81713009D01*
X125594786Y-81744078D01*
X125594790Y-81744079D01*
X125594791Y-81744079D01*
X125754052Y-81744079D01*
X125754053Y-81744078D01*
X125910252Y-81713009D01*
X125970776Y-81687938D01*
X126018228Y-81678500D01*
X136255523Y-81678500D01*
X136322562Y-81698185D01*
X136368317Y-81750989D01*
X136378261Y-81820147D01*
X136349236Y-81883703D01*
X136343204Y-81890181D01*
X135953204Y-82280181D01*
X135891881Y-82313666D01*
X135865523Y-82316500D01*
X123532676Y-82316500D01*
X123400637Y-82342764D01*
X123400629Y-82342766D01*
X123326787Y-82373353D01*
X123276240Y-82394290D01*
X123238744Y-82419344D01*
X123201248Y-82444399D01*
X123201247Y-82444399D01*
X123164298Y-82469087D01*
X123164290Y-82469093D01*
X119410015Y-86223368D01*
X119348692Y-86256853D01*
X119293334Y-86254108D01*
X119292859Y-86256089D01*
X119288119Y-86254951D01*
X119129716Y-86229862D01*
X119076916Y-86221500D01*
X118863084Y-86221500D01*
X118792684Y-86232650D01*
X118651882Y-86254951D01*
X118448519Y-86321026D01*
X118448516Y-86321027D01*
X118257990Y-86418106D01*
X118084993Y-86543796D01*
X117933796Y-86694993D01*
X117808106Y-86867990D01*
X117711027Y-87058516D01*
X117711026Y-87058519D01*
X117644951Y-87261882D01*
X117611500Y-87473084D01*
X117327589Y-87473084D01*
X117325806Y-84466526D01*
X117326046Y-84458758D01*
X117337008Y-84282677D01*
X117338943Y-84267260D01*
X117371142Y-84097737D01*
X117374991Y-84082697D01*
X117428161Y-83918543D01*
X117433866Y-83904092D01*
X117508827Y-83744354D01*
X117512346Y-83737432D01*
X117517612Y-83727829D01*
X118059294Y-82739890D01*
X121487799Y-76486862D01*
X121487801Y-76486861D01*
X121488776Y-76485081D01*
X121513634Y-76460313D01*
X121538259Y-76435773D01*
X121538266Y-76435771D01*
X121538270Y-76435768D01*
X121566165Y-76429752D01*
X121606557Y-76421038D01*
X121606563Y-76421040D01*
X121606570Y-76421039D01*
X121642141Y-76434379D01*
X121671980Y-76445567D01*
X121671983Y-76445571D01*
X121671990Y-76445574D01*
X121692504Y-76473081D01*
X121713756Y-76501572D01*
X121713757Y-76501580D01*
X121713760Y-76501584D01*
X121713761Y-76501600D01*
X121721500Y-76544707D01*
X121721500Y-76729051D01*
X121752487Y-76924700D01*
X121813703Y-77113101D01*
X121863442Y-77210717D01*
X121903634Y-77289598D01*
X122020070Y-77449858D01*
X122160142Y-77589930D01*
X122320402Y-77706366D01*
X122368865Y-77731059D01*
X122496898Y-77796296D01*
X122496900Y-77796296D01*
X122496903Y-77796298D01*
X122531044Y-77807391D01*
X122685299Y-77857512D01*
X122880949Y-77888500D01*
X122880954Y-77888500D01*
X123079051Y-77888500D01*
X123274700Y-77857512D01*
X123338429Y-77836805D01*
X123463097Y-77796298D01*
X123639598Y-77706366D01*
X123799858Y-77589930D01*
X123939930Y-77449858D01*
X124056366Y-77289598D01*
X124146298Y-77113097D01*
X124207512Y-76924700D01*
X124213847Y-76884700D01*
X124238500Y-76729051D01*
X124238500Y-76530948D01*
X124207512Y-76335299D01*
X124146296Y-76146898D01*
X124098854Y-76053790D01*
X124056366Y-75970402D01*
X123964607Y-75844107D01*
X123941128Y-75778302D01*
X123956953Y-75710249D01*
X124007059Y-75661554D01*
X124064592Y-75647223D01*
X176897333Y-75506475D01*
X176903360Y-75506606D01*
G37*
%TD.AperFunction*%
%TD*%
M02*
