%TF.GenerationSoftware,KiCad,Pcbnew,9.0.9-9.0.9~ubuntu24.04.1*%
%TF.CreationDate,2026-07-09T23:06:31+02:00*%
%TF.ProjectId,MicroPicoDrive,4d696372-6f50-4696-936f-44726976652e,1.4.h*%
%TF.SameCoordinates,Original*%
%TF.FileFunction,Drillmap*%
%TF.FilePolarity,Positive*%
%FSLAX45Y45*%
G04 Gerber Fmt 4.5, Leading zero omitted, Abs format (unit mm)*
G04 Created by KiCad (PCBNEW 9.0.9-9.0.9~ubuntu24.04.1) date 2026-07-09 23:06:31*
%MOMM*%
%LPD*%
G01*
G04 APERTURE LIST*
%ADD10C,0.100000*%
%ADD11C,0.200000*%
%ADD12C,0.102000*%
%ADD13C,0.110000*%
G04 APERTURE END LIST*
D10*
X11682530Y-8446295D02*
X11684969Y-12557009D01*
X11682530Y-8446295D02*
G75*
G02*
X11707163Y-8350023I200000J115D01*
G01*
X11711266Y-12656023D02*
G75*
G02*
X11684969Y-12557009I173704J99134D01*
G01*
X11909957Y-13004173D02*
X11711266Y-12656023D01*
X12083591Y-13105040D02*
G75*
G02*
X11909957Y-13004173I69J200000D01*
G01*
X12083591Y-13105040D02*
X17713617Y-13106972D01*
X12108062Y-7618846D02*
X11707161Y-8350022D01*
X12108062Y-7618846D02*
G75*
G02*
X12283431Y-7515001I175368J-96154D01*
G01*
X12283431Y-7515000D02*
X17689900Y-7500597D01*
X15219000Y-7913250D02*
X15406000Y-7913250D01*
X15406000Y-8154250D01*
X15219000Y-8154250D01*
X15219000Y-7913250D01*
X17395000Y-7916500D02*
X17587000Y-7916500D01*
X17587000Y-8150000D01*
X17395000Y-8150000D01*
X17395000Y-7916500D01*
X17689900Y-7500597D02*
G75*
G02*
X17855324Y-7549798I801J-300003D01*
G01*
X17855107Y-13048393D02*
G75*
G02*
X17713617Y-13106969I-141427J141443D01*
G01*
X17855107Y-13048393D02*
X17937860Y-12965640D01*
X17855323Y-7549800D02*
X17857479Y-7551214D01*
X17857479Y-7551214D02*
G75*
G02*
X17992855Y-7801797I-164639J-250806D01*
G01*
X17992854Y-7801797D02*
X17996439Y-12824070D01*
X17996439Y-12824070D02*
G75*
G02*
X17937860Y-12965640I-199999J-150D01*
G01*
D11*
D10*
X11799000Y-11568000D02*
X11829000Y-11598000D01*
X11829000Y-11568000D02*
X11799000Y-11598000D01*
X11977000Y-10969000D02*
X12007000Y-10999000D01*
X12007000Y-10969000D02*
X11977000Y-10999000D01*
X11982952Y-12547392D02*
X12012952Y-12577392D01*
X12012952Y-12547392D02*
X11982952Y-12577392D01*
X11989000Y-12233000D02*
X12019000Y-12263000D01*
X12019000Y-12233000D02*
X11989000Y-12263000D01*
X12017000Y-8975000D02*
X12047000Y-9005000D01*
X12047000Y-8975000D02*
X12017000Y-9005000D01*
X12017000Y-10207000D02*
X12047000Y-10237000D01*
X12047000Y-10207000D02*
X12017000Y-10237000D01*
X12025000Y-8305000D02*
X12055000Y-8335000D01*
X12055000Y-8305000D02*
X12025000Y-8335000D01*
X12084000Y-7912000D02*
X12114000Y-7942000D01*
X12114000Y-7912000D02*
X12084000Y-7942000D01*
X12222000Y-10971000D02*
X12252000Y-11001000D01*
X12252000Y-10971000D02*
X12222000Y-11001000D01*
X12363000Y-10320000D02*
X12393000Y-10350000D01*
X12393000Y-10320000D02*
X12363000Y-10350000D01*
X12370000Y-12972000D02*
X12400000Y-13002000D01*
X12400000Y-12972000D02*
X12370000Y-13002000D01*
X12478000Y-10969000D02*
X12508000Y-10999000D01*
X12508000Y-10969000D02*
X12478000Y-10999000D01*
X12542000Y-12108000D02*
X12572000Y-12138000D01*
X12572000Y-12108000D02*
X12542000Y-12138000D01*
X12545000Y-8972000D02*
X12575000Y-9002000D01*
X12575000Y-8972000D02*
X12545000Y-9002000D01*
X12548000Y-9731000D02*
X12578000Y-9761000D01*
X12578000Y-9731000D02*
X12548000Y-9761000D01*
X12552442Y-8078558D02*
X12582442Y-8108558D01*
X12582442Y-8078558D02*
X12552442Y-8108558D01*
X12608000Y-7644000D02*
X12638000Y-7674000D01*
X12638000Y-7644000D02*
X12608000Y-7674000D01*
X12809000Y-12976000D02*
X12839000Y-13006000D01*
X12839000Y-12976000D02*
X12809000Y-13006000D01*
X12904000Y-9731000D02*
X12934000Y-9761000D01*
X12934000Y-9731000D02*
X12904000Y-9761000D01*
X12924000Y-12293000D02*
X12954000Y-12323000D01*
X12954000Y-12293000D02*
X12924000Y-12323000D01*
X12985000Y-8385000D02*
X13015000Y-8415000D01*
X13015000Y-8385000D02*
X12985000Y-8415000D01*
X13055000Y-8975000D02*
X13085000Y-9005000D01*
X13085000Y-8975000D02*
X13055000Y-9005000D01*
X13171000Y-11049000D02*
X13201000Y-11079000D01*
X13201000Y-11049000D02*
X13171000Y-11079000D01*
X13185000Y-7755000D02*
X13215000Y-7785000D01*
X13215000Y-7755000D02*
X13185000Y-7785000D01*
X13215000Y-9733000D02*
X13245000Y-9763000D01*
X13245000Y-9733000D02*
X13215000Y-9763000D01*
X13345000Y-9230000D02*
X13375000Y-9260000D01*
X13375000Y-9230000D02*
X13345000Y-9260000D01*
X13355000Y-10285000D02*
X13385000Y-10315000D01*
X13385000Y-10285000D02*
X13355000Y-10315000D01*
X13429000Y-9609000D02*
X13459000Y-9639000D01*
X13459000Y-9609000D02*
X13429000Y-9639000D01*
X13605000Y-9485000D02*
X13635000Y-9515000D01*
X13635000Y-9485000D02*
X13605000Y-9515000D01*
X13605000Y-10025000D02*
X13635000Y-10055000D01*
X13635000Y-10025000D02*
X13605000Y-10055000D01*
X13635000Y-7955000D02*
X13665000Y-7985000D01*
X13665000Y-7955000D02*
X13635000Y-7985000D01*
X13665000Y-8965000D02*
X13695000Y-8995000D01*
X13695000Y-8965000D02*
X13665000Y-8995000D01*
X13975000Y-7823958D02*
X14005000Y-7853958D01*
X14005000Y-7823958D02*
X13975000Y-7853958D01*
X13977000Y-9932000D02*
X14007000Y-9962000D01*
X14007000Y-9932000D02*
X13977000Y-9962000D01*
X14025000Y-8344000D02*
X14055000Y-8374000D01*
X14055000Y-8344000D02*
X14025000Y-8374000D01*
X14045000Y-9825000D02*
X14075000Y-9855000D01*
X14075000Y-9825000D02*
X14045000Y-9855000D01*
X14085000Y-9085000D02*
X14115000Y-9115000D01*
X14115000Y-9085000D02*
X14085000Y-9115000D01*
X14130000Y-12787000D02*
X14160000Y-12817000D01*
X14160000Y-12787000D02*
X14130000Y-12817000D01*
X14163000Y-9415000D02*
X14193000Y-9445000D01*
X14193000Y-9415000D02*
X14163000Y-9445000D01*
X14165000Y-11131000D02*
X14195000Y-11161000D01*
X14195000Y-11131000D02*
X14165000Y-11161000D01*
X14195000Y-7695000D02*
X14225000Y-7725000D01*
X14225000Y-7695000D02*
X14195000Y-7725000D01*
X14228000Y-10172000D02*
X14258000Y-10202000D01*
X14258000Y-10172000D02*
X14228000Y-10202000D01*
X14244000Y-9973000D02*
X14274000Y-10003000D01*
X14274000Y-9973000D02*
X14244000Y-10003000D01*
X14260000Y-8155000D02*
X14290000Y-8185000D01*
X14290000Y-8155000D02*
X14260000Y-8185000D01*
X14284000Y-8353000D02*
X14314000Y-8383000D01*
X14314000Y-8353000D02*
X14284000Y-8383000D01*
X14295000Y-8025000D02*
X14325000Y-8055000D01*
X14325000Y-8025000D02*
X14295000Y-8055000D01*
X14345000Y-9767000D02*
X14375000Y-9797000D01*
X14375000Y-9767000D02*
X14345000Y-9797000D01*
X14401000Y-12451000D02*
X14431000Y-12481000D01*
X14431000Y-12451000D02*
X14401000Y-12481000D01*
X14549000Y-9034000D02*
X14579000Y-9064000D01*
X14579000Y-9034000D02*
X14549000Y-9064000D01*
X14565000Y-9625000D02*
X14595000Y-9655000D01*
X14595000Y-9625000D02*
X14565000Y-9655000D01*
X14603647Y-8023700D02*
X14633647Y-8053700D01*
X14633647Y-8023700D02*
X14603647Y-8053700D01*
X14605000Y-12889000D02*
X14635000Y-12919000D01*
X14635000Y-12889000D02*
X14605000Y-12919000D01*
X14640000Y-7755000D02*
X14670000Y-7785000D01*
X14670000Y-7755000D02*
X14640000Y-7785000D01*
X14675000Y-10246000D02*
X14705000Y-10276000D01*
X14705000Y-10246000D02*
X14675000Y-10276000D01*
X14685000Y-9085000D02*
X14715000Y-9115000D01*
X14715000Y-9085000D02*
X14685000Y-9115000D01*
X14720000Y-9510000D02*
X14750000Y-9540000D01*
X14750000Y-9510000D02*
X14720000Y-9540000D01*
X14722500Y-10071500D02*
X14752500Y-10101500D01*
X14752500Y-10071500D02*
X14722500Y-10101500D01*
X14785000Y-11805000D02*
X14815000Y-11835000D01*
X14815000Y-11805000D02*
X14785000Y-11835000D01*
X14845000Y-8320000D02*
X14875000Y-8350000D01*
X14875000Y-8320000D02*
X14845000Y-8350000D01*
X14845000Y-9965000D02*
X14875000Y-9995000D01*
X14875000Y-9965000D02*
X14845000Y-9995000D01*
X14855000Y-7877000D02*
X14885000Y-7907000D01*
X14885000Y-7877000D02*
X14855000Y-7907000D01*
X14875145Y-12450720D02*
X14905145Y-12480720D01*
X14905145Y-12450720D02*
X14875145Y-12480720D01*
X14923000Y-11271000D02*
X14953000Y-11301000D01*
X14953000Y-11271000D02*
X14923000Y-11301000D01*
X14968000Y-8272000D02*
X14998000Y-8302000D01*
X14998000Y-8272000D02*
X14968000Y-8302000D01*
X15065000Y-9625000D02*
X15095000Y-9655000D01*
X15095000Y-9625000D02*
X15065000Y-9655000D01*
X15095000Y-8102000D02*
X15125000Y-8132000D01*
X15125000Y-8102000D02*
X15095000Y-8132000D01*
X15117000Y-12880000D02*
X15147000Y-12910000D01*
X15147000Y-12880000D02*
X15117000Y-12910000D01*
X15140000Y-12135000D02*
X15170000Y-12165000D01*
X15170000Y-12135000D02*
X15140000Y-12165000D01*
X15145000Y-10865000D02*
X15175000Y-10895000D01*
X15175000Y-10865000D02*
X15145000Y-10895000D01*
X15174000Y-11268000D02*
X15204000Y-11298000D01*
X15204000Y-11268000D02*
X15174000Y-11298000D01*
X15265000Y-9005000D02*
X15295000Y-9035000D01*
X15295000Y-9005000D02*
X15265000Y-9035000D01*
X15309000Y-7737000D02*
X15339000Y-7767000D01*
X15339000Y-7737000D02*
X15309000Y-7767000D01*
X15375000Y-10215000D02*
X15405000Y-10245000D01*
X15405000Y-10215000D02*
X15375000Y-10245000D01*
X15379000Y-9625000D02*
X15409000Y-9655000D01*
X15409000Y-9625000D02*
X15379000Y-9655000D01*
X15417000Y-12468000D02*
X15447000Y-12498000D01*
X15447000Y-12468000D02*
X15417000Y-12498000D01*
X15469974Y-10863342D02*
X15499974Y-10893342D01*
X15499974Y-10863342D02*
X15469974Y-10893342D01*
X15525000Y-11805000D02*
X15555000Y-11835000D01*
X15555000Y-11805000D02*
X15525000Y-11835000D01*
X15559000Y-10941000D02*
X15589000Y-10971000D01*
X15589000Y-10941000D02*
X15559000Y-10971000D01*
X15565000Y-9005000D02*
X15595000Y-9035000D01*
X15595000Y-9005000D02*
X15565000Y-9035000D01*
X15685000Y-9229000D02*
X15715000Y-9259000D01*
X15715000Y-9229000D02*
X15685000Y-9259000D01*
X15685000Y-9625000D02*
X15715000Y-9655000D01*
X15715000Y-9625000D02*
X15685000Y-9655000D01*
X15691000Y-11359000D02*
X15721000Y-11389000D01*
X15721000Y-11359000D02*
X15691000Y-11389000D01*
X15705000Y-10205000D02*
X15735000Y-10235000D01*
X15735000Y-10205000D02*
X15705000Y-10235000D01*
X15805000Y-9005000D02*
X15835000Y-9035000D01*
X15835000Y-9005000D02*
X15805000Y-9035000D01*
X15861000Y-12632000D02*
X15891000Y-12662000D01*
X15891000Y-12632000D02*
X15861000Y-12662000D01*
X15864000Y-12128000D02*
X15894000Y-12158000D01*
X15894000Y-12128000D02*
X15864000Y-12158000D01*
X15905000Y-9205000D02*
X15935000Y-9235000D01*
X15935000Y-9205000D02*
X15905000Y-9235000D01*
X15915500Y-9319500D02*
X15945500Y-9349500D01*
X15945500Y-9319500D02*
X15915500Y-9349500D01*
X15985000Y-9005000D02*
X16015000Y-9035000D01*
X16015000Y-9005000D02*
X15985000Y-9035000D01*
X16009000Y-8266000D02*
X16039000Y-8296000D01*
X16039000Y-8266000D02*
X16009000Y-8296000D01*
X16012000Y-7582000D02*
X16042000Y-7612000D01*
X16042000Y-7582000D02*
X16012000Y-7612000D01*
X16045000Y-9405000D02*
X16075000Y-9435000D01*
X16075000Y-9405000D02*
X16045000Y-9435000D01*
X16068000Y-11154000D02*
X16098000Y-11184000D01*
X16098000Y-11154000D02*
X16068000Y-11184000D01*
X16068000Y-11374000D02*
X16098000Y-11404000D01*
X16098000Y-11374000D02*
X16068000Y-11404000D01*
X16069000Y-10203000D02*
X16099000Y-10233000D01*
X16099000Y-10203000D02*
X16069000Y-10233000D01*
X16071000Y-9934000D02*
X16101000Y-9964000D01*
X16101000Y-9934000D02*
X16071000Y-9964000D01*
X16125000Y-9245000D02*
X16155000Y-9275000D01*
X16155000Y-9245000D02*
X16125000Y-9275000D01*
X16132000Y-12993000D02*
X16162000Y-13023000D01*
X16162000Y-12993000D02*
X16132000Y-13023000D01*
X16205000Y-10839000D02*
X16235000Y-10869000D01*
X16235000Y-10839000D02*
X16205000Y-10869000D01*
X16304000Y-9583000D02*
X16334000Y-9613000D01*
X16334000Y-9583000D02*
X16304000Y-9613000D01*
X16374000Y-9433000D02*
X16404000Y-9463000D01*
X16404000Y-9433000D02*
X16374000Y-9463000D01*
X16442000Y-9938000D02*
X16472000Y-9968000D01*
X16472000Y-9938000D02*
X16442000Y-9968000D01*
X16445000Y-10207000D02*
X16475000Y-10237000D01*
X16475000Y-10207000D02*
X16445000Y-10237000D01*
X16528000Y-7596000D02*
X16558000Y-7626000D01*
X16558000Y-7596000D02*
X16528000Y-7626000D01*
X16538000Y-11198000D02*
X16568000Y-11228000D01*
X16568000Y-11198000D02*
X16538000Y-11228000D01*
X16573000Y-9700000D02*
X16603000Y-9730000D01*
X16603000Y-9700000D02*
X16573000Y-9730000D01*
X16574000Y-8916000D02*
X16604000Y-8946000D01*
X16604000Y-8916000D02*
X16574000Y-8946000D01*
X16579400Y-9859400D02*
X16609400Y-9889400D01*
X16609400Y-9859400D02*
X16579400Y-9889400D01*
X16767000Y-8268000D02*
X16797000Y-8298000D01*
X16797000Y-8268000D02*
X16767000Y-8298000D01*
X16787000Y-12982000D02*
X16817000Y-13012000D01*
X16817000Y-12982000D02*
X16787000Y-13012000D01*
X16836000Y-10356000D02*
X16866000Y-10386000D01*
X16866000Y-10356000D02*
X16836000Y-10386000D01*
X16845000Y-10865000D02*
X16875000Y-10895000D01*
X16875000Y-10865000D02*
X16845000Y-10895000D01*
X16845000Y-11725000D02*
X16875000Y-11755000D01*
X16875000Y-11725000D02*
X16845000Y-11755000D01*
X16903000Y-9767000D02*
X16933000Y-9797000D01*
X16933000Y-9767000D02*
X16903000Y-9797000D01*
X17015000Y-11275000D02*
X17045000Y-11305000D01*
X17045000Y-11275000D02*
X17015000Y-11305000D01*
X17024000Y-8268000D02*
X17054000Y-8298000D01*
X17054000Y-8268000D02*
X17024000Y-8298000D01*
X17025000Y-9785000D02*
X17055000Y-9815000D01*
X17055000Y-9785000D02*
X17025000Y-9815000D01*
X17155000Y-8666000D02*
X17185000Y-8696000D01*
X17185000Y-8666000D02*
X17155000Y-8696000D01*
X17223000Y-11148000D02*
X17253000Y-11178000D01*
X17253000Y-11148000D02*
X17223000Y-11178000D01*
X17261000Y-10674000D02*
X17291000Y-10704000D01*
X17291000Y-10674000D02*
X17261000Y-10704000D01*
X17427000Y-8661000D02*
X17457000Y-8691000D01*
X17457000Y-8661000D02*
X17427000Y-8691000D01*
X17431000Y-9608000D02*
X17461000Y-9638000D01*
X17461000Y-9608000D02*
X17431000Y-9638000D01*
X17464786Y-12486037D02*
X17494786Y-12516037D01*
X17494786Y-12486037D02*
X17464786Y-12516037D01*
X17470000Y-12899000D02*
X17500000Y-12929000D01*
X17500000Y-12899000D02*
X17470000Y-12929000D01*
X17475000Y-12103000D02*
X17505000Y-12133000D01*
X17505000Y-12103000D02*
X17475000Y-12133000D01*
X17593000Y-7587000D02*
X17623000Y-7617000D01*
X17623000Y-7587000D02*
X17593000Y-7617000D01*
X17651000Y-10511000D02*
X17681000Y-10541000D01*
X17681000Y-10511000D02*
X17651000Y-10541000D01*
X17842000Y-10788000D02*
X17872000Y-10818000D01*
X17872000Y-10788000D02*
X17842000Y-10818000D01*
X17853000Y-7922000D02*
X17883000Y-7952000D01*
X17883000Y-7922000D02*
X17853000Y-7952000D01*
X17856000Y-11296000D02*
X17886000Y-11326000D01*
X17886000Y-11296000D02*
X17856000Y-11326000D01*
X17858000Y-8668000D02*
X17888000Y-8698000D01*
X17888000Y-8668000D02*
X17858000Y-8698000D01*
X17859000Y-11763000D02*
X17889000Y-11793000D01*
X17889000Y-11763000D02*
X17859000Y-11793000D01*
X17862000Y-9611000D02*
X17892000Y-9641000D01*
X17892000Y-9611000D02*
X17862000Y-9641000D01*
X13940000Y-9100000D02*
G75*
G02*
X13900000Y-9100000I-20000J0D01*
G01*
X13900000Y-9100000D02*
G75*
G02*
X13940000Y-9100000I20000J0D01*
G01*
X13940000Y-9524000D02*
G75*
G02*
X13900000Y-9524000I-20000J0D01*
G01*
X13900000Y-9524000D02*
G75*
G02*
X13940000Y-9524000I20000J0D01*
G01*
X13963000Y-11440000D02*
X13963000Y-11500000D01*
X13933000Y-11470000D02*
X13993000Y-11470000D01*
X14113000Y-11440000D02*
X14113000Y-11500000D01*
X14083000Y-11470000D02*
X14143000Y-11470000D01*
X13249284Y-12764284D02*
X13249284Y-12707715D01*
X13192715Y-12707715D01*
X13192715Y-12764284D01*
X13249284Y-12764284D01*
X13503284Y-12764284D02*
X13503284Y-12707715D01*
X13446715Y-12707715D01*
X13446715Y-12764284D01*
X13503284Y-12764284D01*
X13607284Y-11320284D02*
X13607284Y-11263715D01*
X13550715Y-11263715D01*
X13550715Y-11320284D01*
X13607284Y-11320284D01*
X13607284Y-12336284D02*
X13607284Y-12279715D01*
X13550715Y-12279715D01*
X13550715Y-12336284D01*
X13607284Y-12336284D01*
X13757284Y-12764284D02*
X13757284Y-12707715D01*
X13700715Y-12707715D01*
X13700715Y-12764284D01*
X13757284Y-12764284D01*
X14008500Y-12058500D02*
X14058500Y-12008500D01*
X14008500Y-11958500D01*
X13958500Y-12008500D01*
X14008500Y-12058500D01*
X14008500Y-12312500D02*
X14058500Y-12262500D01*
X14008500Y-12212500D01*
X13958500Y-12262500D01*
X14008500Y-12312500D01*
X14687500Y-11087500D02*
X14737500Y-11037500D01*
X14687500Y-10987500D01*
X14637500Y-11037500D01*
X14687500Y-11087500D01*
X14687500Y-11595500D02*
X14737500Y-11545500D01*
X14687500Y-11495500D01*
X14637500Y-11545500D01*
X14687500Y-11595500D01*
X14941500Y-11087500D02*
X14991500Y-11037500D01*
X14941500Y-10987500D01*
X14891500Y-11037500D01*
X14941500Y-11087500D01*
X14941500Y-11595500D02*
X14991500Y-11545500D01*
X14941500Y-11495500D01*
X14891500Y-11545500D01*
X14941500Y-11595500D01*
X15195500Y-11087500D02*
X15245500Y-11037500D01*
X15195500Y-10987500D01*
X15145500Y-11037500D01*
X15195500Y-11087500D01*
X15195500Y-11595500D02*
X15245500Y-11545500D01*
X15195500Y-11495500D01*
X15145500Y-11545500D01*
X15195500Y-11595500D01*
X15449500Y-11087500D02*
X15499500Y-11037500D01*
X15449500Y-10987500D01*
X15399500Y-11037500D01*
X15449500Y-11087500D01*
X15449500Y-11595500D02*
X15499500Y-11545500D01*
X15449500Y-11495500D01*
X15399500Y-11545500D01*
X15449500Y-11595500D01*
X15642000Y-7955000D02*
X15692000Y-7905000D01*
X15642000Y-7855000D01*
X15592000Y-7905000D01*
X15642000Y-7955000D01*
X15642000Y-8209000D02*
X15692000Y-8159000D01*
X15642000Y-8109000D01*
X15592000Y-8159000D01*
X15642000Y-8209000D01*
X15703500Y-11087500D02*
X15753500Y-11037500D01*
X15703500Y-10987500D01*
X15653500Y-11037500D01*
X15703500Y-11087500D01*
X15703500Y-11595500D02*
X15753500Y-11545500D01*
X15703500Y-11495500D01*
X15653500Y-11545500D01*
X15703500Y-11595500D01*
X15896000Y-7955000D02*
X15946000Y-7905000D01*
X15896000Y-7855000D01*
X15846000Y-7905000D01*
X15896000Y-7955000D01*
X15896000Y-8209000D02*
X15946000Y-8159000D01*
X15896000Y-8109000D01*
X15846000Y-8159000D01*
X15896000Y-8209000D01*
X15957500Y-11087500D02*
X16007500Y-11037500D01*
X15957500Y-10987500D01*
X15907500Y-11037500D01*
X15957500Y-11087500D01*
X15957500Y-11595500D02*
X16007500Y-11545500D01*
X15957500Y-11495500D01*
X15907500Y-11545500D01*
X15957500Y-11595500D01*
X16150000Y-7955000D02*
X16200000Y-7905000D01*
X16150000Y-7855000D01*
X16100000Y-7905000D01*
X16150000Y-7955000D01*
X16150000Y-8209000D02*
X16200000Y-8159000D01*
X16150000Y-8109000D01*
X16100000Y-8159000D01*
X16150000Y-8209000D01*
X16211500Y-11087500D02*
X16261500Y-11037500D01*
X16211500Y-10987500D01*
X16161500Y-11037500D01*
X16211500Y-11087500D01*
X16211500Y-11595500D02*
X16261500Y-11545500D01*
X16211500Y-11495500D01*
X16161500Y-11545500D01*
X16211500Y-11595500D01*
X16404000Y-7955000D02*
X16454000Y-7905000D01*
X16404000Y-7855000D01*
X16354000Y-7905000D01*
X16404000Y-7955000D01*
X16404000Y-8209000D02*
X16454000Y-8159000D01*
X16404000Y-8109000D01*
X16354000Y-8159000D01*
X16404000Y-8209000D01*
X16465500Y-11087500D02*
X16515500Y-11037500D01*
X16465500Y-10987500D01*
X16415500Y-11037500D01*
X16465500Y-11087500D01*
X16465500Y-11595500D02*
X16515500Y-11545500D01*
X16465500Y-11495500D01*
X16415500Y-11545500D01*
X16465500Y-11595500D01*
X16658000Y-7955000D02*
X16708000Y-7905000D01*
X16658000Y-7855000D01*
X16608000Y-7905000D01*
X16658000Y-7955000D01*
X16658000Y-8209000D02*
X16708000Y-8159000D01*
X16658000Y-8109000D01*
X16608000Y-8159000D01*
X16658000Y-8209000D01*
X16912000Y-7955000D02*
X16962000Y-7905000D01*
X16912000Y-7855000D01*
X16862000Y-7905000D01*
X16912000Y-7955000D01*
X16912000Y-8209000D02*
X16962000Y-8159000D01*
X16912000Y-8109000D01*
X16862000Y-8159000D01*
X16912000Y-8209000D01*
X17166000Y-7955000D02*
X17216000Y-7905000D01*
X17166000Y-7855000D01*
X17116000Y-7905000D01*
X17166000Y-7955000D01*
X17166000Y-8209000D02*
X17216000Y-8159000D01*
X17166000Y-8109000D01*
X17116000Y-8159000D01*
X17166000Y-8209000D01*
D12*
X11846000Y-8707000D02*
X11948000Y-8809000D01*
X11948000Y-8707000D02*
X11846000Y-8809000D01*
X11948000Y-8758000D02*
G75*
G02*
X11846000Y-8758000I-51000J0D01*
G01*
X11846000Y-8758000D02*
G75*
G02*
X11948000Y-8758000I51000J0D01*
G01*
X11846000Y-10485000D02*
X11948000Y-10587000D01*
X11948000Y-10485000D02*
X11846000Y-10587000D01*
X11948000Y-10536000D02*
G75*
G02*
X11846000Y-10536000I-51000J0D01*
G01*
X11846000Y-10536000D02*
G75*
G02*
X11948000Y-10536000I51000J0D01*
G01*
X12100000Y-10485000D02*
X12202000Y-10587000D01*
X12202000Y-10485000D02*
X12100000Y-10587000D01*
X12202000Y-10536000D02*
G75*
G02*
X12100000Y-10536000I-51000J0D01*
G01*
X12100000Y-10536000D02*
G75*
G02*
X12202000Y-10536000I51000J0D01*
G01*
X12354000Y-8707000D02*
X12456000Y-8809000D01*
X12456000Y-8707000D02*
X12354000Y-8809000D01*
X12456000Y-8758000D02*
G75*
G02*
X12354000Y-8758000I-51000J0D01*
G01*
X12354000Y-8758000D02*
G75*
G02*
X12456000Y-8758000I51000J0D01*
G01*
X12354000Y-10485000D02*
X12456000Y-10587000D01*
X12456000Y-10485000D02*
X12354000Y-10587000D01*
X12456000Y-10536000D02*
G75*
G02*
X12354000Y-10536000I-51000J0D01*
G01*
X12354000Y-10536000D02*
G75*
G02*
X12456000Y-10536000I51000J0D01*
G01*
X12608000Y-10485000D02*
X12710000Y-10587000D01*
X12710000Y-10485000D02*
X12608000Y-10587000D01*
X12710000Y-10536000D02*
G75*
G02*
X12608000Y-10536000I-51000J0D01*
G01*
X12608000Y-10536000D02*
G75*
G02*
X12710000Y-10536000I51000J0D01*
G01*
X12862000Y-10485000D02*
X12964000Y-10587000D01*
X12964000Y-10485000D02*
X12862000Y-10587000D01*
X12964000Y-10536000D02*
G75*
G02*
X12862000Y-10536000I-51000J0D01*
G01*
X12862000Y-10536000D02*
G75*
G02*
X12964000Y-10536000I51000J0D01*
G01*
X13116000Y-8707000D02*
X13218000Y-8809000D01*
X13218000Y-8707000D02*
X13116000Y-8809000D01*
X13218000Y-8758000D02*
G75*
G02*
X13116000Y-8758000I-51000J0D01*
G01*
X13116000Y-8758000D02*
G75*
G02*
X13218000Y-8758000I51000J0D01*
G01*
X13116000Y-10485000D02*
X13218000Y-10587000D01*
X13218000Y-10485000D02*
X13116000Y-10587000D01*
X13218000Y-10536000D02*
G75*
G02*
X13116000Y-10536000I-51000J0D01*
G01*
X13116000Y-10536000D02*
G75*
G02*
X13218000Y-10536000I51000J0D01*
G01*
X13624000Y-8707000D02*
X13726000Y-8809000D01*
X13726000Y-8707000D02*
X13624000Y-8809000D01*
X13726000Y-8758000D02*
G75*
G02*
X13624000Y-8758000I-51000J0D01*
G01*
X13624000Y-8758000D02*
G75*
G02*
X13726000Y-8758000I51000J0D01*
G01*
X13624000Y-10485000D02*
X13726000Y-10587000D01*
X13726000Y-10485000D02*
X13624000Y-10587000D01*
X13726000Y-10536000D02*
G75*
G02*
X13624000Y-10536000I-51000J0D01*
G01*
X13624000Y-10536000D02*
G75*
G02*
X13726000Y-10536000I51000J0D01*
G01*
X13878000Y-10485000D02*
X13980000Y-10587000D01*
X13980000Y-10485000D02*
X13878000Y-10587000D01*
X13980000Y-10536000D02*
G75*
G02*
X13878000Y-10536000I-51000J0D01*
G01*
X13878000Y-10536000D02*
G75*
G02*
X13980000Y-10536000I51000J0D01*
G01*
X14132000Y-8707000D02*
X14234000Y-8809000D01*
X14234000Y-8707000D02*
X14132000Y-8809000D01*
X14234000Y-8758000D02*
G75*
G02*
X14132000Y-8758000I-51000J0D01*
G01*
X14132000Y-8758000D02*
G75*
G02*
X14234000Y-8758000I51000J0D01*
G01*
X14132000Y-10485000D02*
X14234000Y-10587000D01*
X14234000Y-10485000D02*
X14132000Y-10587000D01*
X14234000Y-10536000D02*
G75*
G02*
X14132000Y-10536000I-51000J0D01*
G01*
X14132000Y-10536000D02*
G75*
G02*
X14234000Y-10536000I51000J0D01*
G01*
X14386000Y-10485000D02*
X14488000Y-10587000D01*
X14488000Y-10485000D02*
X14386000Y-10587000D01*
X14488000Y-10536000D02*
G75*
G02*
X14386000Y-10536000I-51000J0D01*
G01*
X14386000Y-10536000D02*
G75*
G02*
X14488000Y-10536000I51000J0D01*
G01*
X14640000Y-8707000D02*
X14742000Y-8809000D01*
X14742000Y-8707000D02*
X14640000Y-8809000D01*
X14742000Y-8758000D02*
G75*
G02*
X14640000Y-8758000I-51000J0D01*
G01*
X14640000Y-8758000D02*
G75*
G02*
X14742000Y-8758000I51000J0D01*
G01*
X14894000Y-8707000D02*
X14996000Y-8809000D01*
X14996000Y-8707000D02*
X14894000Y-8809000D01*
X14996000Y-8758000D02*
G75*
G02*
X14894000Y-8758000I-51000J0D01*
G01*
X14894000Y-8758000D02*
G75*
G02*
X14996000Y-8758000I51000J0D01*
G01*
X14894000Y-10485000D02*
X14996000Y-10587000D01*
X14996000Y-10485000D02*
X14894000Y-10587000D01*
X14996000Y-10536000D02*
G75*
G02*
X14894000Y-10536000I-51000J0D01*
G01*
X14894000Y-10536000D02*
G75*
G02*
X14996000Y-10536000I51000J0D01*
G01*
X15148000Y-10485000D02*
X15250000Y-10587000D01*
X15250000Y-10485000D02*
X15148000Y-10587000D01*
X15250000Y-10536000D02*
G75*
G02*
X15148000Y-10536000I-51000J0D01*
G01*
X15148000Y-10536000D02*
G75*
G02*
X15250000Y-10536000I51000J0D01*
G01*
X15910000Y-10485000D02*
X16012000Y-10587000D01*
X16012000Y-10485000D02*
X15910000Y-10587000D01*
X16012000Y-10536000D02*
G75*
G02*
X15910000Y-10536000I-51000J0D01*
G01*
X15910000Y-10536000D02*
G75*
G02*
X16012000Y-10536000I51000J0D01*
G01*
X16164000Y-8707000D02*
X16266000Y-8809000D01*
X16266000Y-8707000D02*
X16164000Y-8809000D01*
X16266000Y-8758000D02*
G75*
G02*
X16164000Y-8758000I-51000J0D01*
G01*
X16164000Y-8758000D02*
G75*
G02*
X16266000Y-8758000I51000J0D01*
G01*
X16164000Y-10485000D02*
X16266000Y-10587000D01*
X16266000Y-10485000D02*
X16164000Y-10587000D01*
X16266000Y-10536000D02*
G75*
G02*
X16164000Y-10536000I-51000J0D01*
G01*
X16164000Y-10536000D02*
G75*
G02*
X16266000Y-10536000I51000J0D01*
G01*
X16418000Y-10485000D02*
X16520000Y-10587000D01*
X16520000Y-10485000D02*
X16418000Y-10587000D01*
X16520000Y-10536000D02*
G75*
G02*
X16418000Y-10536000I-51000J0D01*
G01*
X16418000Y-10536000D02*
G75*
G02*
X16520000Y-10536000I51000J0D01*
G01*
X16672000Y-8707000D02*
X16774000Y-8809000D01*
X16774000Y-8707000D02*
X16672000Y-8809000D01*
X16774000Y-8758000D02*
G75*
G02*
X16672000Y-8758000I-51000J0D01*
G01*
X16672000Y-8758000D02*
G75*
G02*
X16774000Y-8758000I51000J0D01*
G01*
X16672000Y-10485000D02*
X16774000Y-10587000D01*
X16774000Y-10485000D02*
X16672000Y-10587000D01*
X16774000Y-10536000D02*
G75*
G02*
X16672000Y-10536000I-51000J0D01*
G01*
X16672000Y-10536000D02*
G75*
G02*
X16774000Y-10536000I51000J0D01*
G01*
D13*
X17145000Y-10033500D02*
X17255000Y-10143500D01*
X17255000Y-10033500D02*
X17145000Y-10143500D01*
X17200000Y-10033500D02*
X17200000Y-10143500D01*
X17145000Y-10088500D02*
X17255000Y-10088500D01*
X17399000Y-10033500D02*
X17509000Y-10143500D01*
X17509000Y-10033500D02*
X17399000Y-10143500D01*
X17454000Y-10033500D02*
X17454000Y-10143500D01*
X17399000Y-10088500D02*
X17509000Y-10088500D01*
X17653000Y-10033500D02*
X17763000Y-10143500D01*
X17763000Y-10033500D02*
X17653000Y-10143500D01*
X17708000Y-10033500D02*
X17708000Y-10143500D01*
X17653000Y-10088500D02*
X17763000Y-10088500D01*
D11*
X11938307Y-13423455D02*
X11938307Y-13223455D01*
X11938307Y-13223455D02*
X11985926Y-13223455D01*
X11985926Y-13223455D02*
X12014498Y-13232979D01*
X12014498Y-13232979D02*
X12033545Y-13252027D01*
X12033545Y-13252027D02*
X12043069Y-13271074D01*
X12043069Y-13271074D02*
X12052593Y-13309170D01*
X12052593Y-13309170D02*
X12052593Y-13337741D01*
X12052593Y-13337741D02*
X12043069Y-13375836D01*
X12043069Y-13375836D02*
X12033545Y-13394884D01*
X12033545Y-13394884D02*
X12014498Y-13413932D01*
X12014498Y-13413932D02*
X11985926Y-13423455D01*
X11985926Y-13423455D02*
X11938307Y-13423455D01*
X12138307Y-13423455D02*
X12138307Y-13290122D01*
X12138307Y-13328217D02*
X12147831Y-13309170D01*
X12147831Y-13309170D02*
X12157355Y-13299646D01*
X12157355Y-13299646D02*
X12176402Y-13290122D01*
X12176402Y-13290122D02*
X12195450Y-13290122D01*
X12262117Y-13423455D02*
X12262117Y-13290122D01*
X12262117Y-13223455D02*
X12252593Y-13232979D01*
X12252593Y-13232979D02*
X12262117Y-13242503D01*
X12262117Y-13242503D02*
X12271640Y-13232979D01*
X12271640Y-13232979D02*
X12262117Y-13223455D01*
X12262117Y-13223455D02*
X12262117Y-13242503D01*
X12385926Y-13423455D02*
X12366879Y-13413932D01*
X12366879Y-13413932D02*
X12357355Y-13394884D01*
X12357355Y-13394884D02*
X12357355Y-13223455D01*
X12490688Y-13423455D02*
X12471640Y-13413932D01*
X12471640Y-13413932D02*
X12462117Y-13394884D01*
X12462117Y-13394884D02*
X12462117Y-13223455D01*
X12719260Y-13423455D02*
X12719260Y-13223455D01*
X12719260Y-13223455D02*
X12785926Y-13366312D01*
X12785926Y-13366312D02*
X12852593Y-13223455D01*
X12852593Y-13223455D02*
X12852593Y-13423455D01*
X13033545Y-13423455D02*
X13033545Y-13318693D01*
X13033545Y-13318693D02*
X13024021Y-13299646D01*
X13024021Y-13299646D02*
X13004974Y-13290122D01*
X13004974Y-13290122D02*
X12966879Y-13290122D01*
X12966879Y-13290122D02*
X12947831Y-13299646D01*
X13033545Y-13413932D02*
X13014498Y-13423455D01*
X13014498Y-13423455D02*
X12966879Y-13423455D01*
X12966879Y-13423455D02*
X12947831Y-13413932D01*
X12947831Y-13413932D02*
X12938307Y-13394884D01*
X12938307Y-13394884D02*
X12938307Y-13375836D01*
X12938307Y-13375836D02*
X12947831Y-13356789D01*
X12947831Y-13356789D02*
X12966879Y-13347265D01*
X12966879Y-13347265D02*
X13014498Y-13347265D01*
X13014498Y-13347265D02*
X13033545Y-13337741D01*
X13128783Y-13290122D02*
X13128783Y-13490122D01*
X13128783Y-13299646D02*
X13147831Y-13290122D01*
X13147831Y-13290122D02*
X13185926Y-13290122D01*
X13185926Y-13290122D02*
X13204974Y-13299646D01*
X13204974Y-13299646D02*
X13214498Y-13309170D01*
X13214498Y-13309170D02*
X13224021Y-13328217D01*
X13224021Y-13328217D02*
X13224021Y-13385360D01*
X13224021Y-13385360D02*
X13214498Y-13404408D01*
X13214498Y-13404408D02*
X13204974Y-13413932D01*
X13204974Y-13413932D02*
X13185926Y-13423455D01*
X13185926Y-13423455D02*
X13147831Y-13423455D01*
X13147831Y-13423455D02*
X13128783Y-13413932D01*
X13309736Y-13404408D02*
X13319260Y-13413932D01*
X13319260Y-13413932D02*
X13309736Y-13423455D01*
X13309736Y-13423455D02*
X13300212Y-13413932D01*
X13300212Y-13413932D02*
X13309736Y-13404408D01*
X13309736Y-13404408D02*
X13309736Y-13423455D01*
X13309736Y-13299646D02*
X13319260Y-13309170D01*
X13319260Y-13309170D02*
X13309736Y-13318693D01*
X13309736Y-13318693D02*
X13300212Y-13309170D01*
X13300212Y-13309170D02*
X13309736Y-13299646D01*
X13309736Y-13299646D02*
X13309736Y-13318693D01*
D10*
X11647530Y-13736972D02*
X11677530Y-13766972D01*
X11677530Y-13736972D02*
X11647530Y-13766972D01*
D11*
X11976402Y-13643455D02*
X11995450Y-13643455D01*
X11995450Y-13643455D02*
X12014498Y-13652979D01*
X12014498Y-13652979D02*
X12024021Y-13662503D01*
X12024021Y-13662503D02*
X12033545Y-13681551D01*
X12033545Y-13681551D02*
X12043069Y-13719646D01*
X12043069Y-13719646D02*
X12043069Y-13767265D01*
X12043069Y-13767265D02*
X12033545Y-13805360D01*
X12033545Y-13805360D02*
X12024021Y-13824408D01*
X12024021Y-13824408D02*
X12014498Y-13833932D01*
X12014498Y-13833932D02*
X11995450Y-13843455D01*
X11995450Y-13843455D02*
X11976402Y-13843455D01*
X11976402Y-13843455D02*
X11957355Y-13833932D01*
X11957355Y-13833932D02*
X11947831Y-13824408D01*
X11947831Y-13824408D02*
X11938307Y-13805360D01*
X11938307Y-13805360D02*
X11928783Y-13767265D01*
X11928783Y-13767265D02*
X11928783Y-13719646D01*
X11928783Y-13719646D02*
X11938307Y-13681551D01*
X11938307Y-13681551D02*
X11947831Y-13662503D01*
X11947831Y-13662503D02*
X11957355Y-13652979D01*
X11957355Y-13652979D02*
X11976402Y-13643455D01*
X12128783Y-13824408D02*
X12138307Y-13833932D01*
X12138307Y-13833932D02*
X12128783Y-13843455D01*
X12128783Y-13843455D02*
X12119260Y-13833932D01*
X12119260Y-13833932D02*
X12128783Y-13824408D01*
X12128783Y-13824408D02*
X12128783Y-13843455D01*
X12204974Y-13643455D02*
X12328783Y-13643455D01*
X12328783Y-13643455D02*
X12262117Y-13719646D01*
X12262117Y-13719646D02*
X12290688Y-13719646D01*
X12290688Y-13719646D02*
X12309736Y-13729170D01*
X12309736Y-13729170D02*
X12319260Y-13738693D01*
X12319260Y-13738693D02*
X12328783Y-13757741D01*
X12328783Y-13757741D02*
X12328783Y-13805360D01*
X12328783Y-13805360D02*
X12319260Y-13824408D01*
X12319260Y-13824408D02*
X12309736Y-13833932D01*
X12309736Y-13833932D02*
X12290688Y-13843455D01*
X12290688Y-13843455D02*
X12233545Y-13843455D01*
X12233545Y-13843455D02*
X12214498Y-13833932D01*
X12214498Y-13833932D02*
X12204974Y-13824408D01*
X12452593Y-13643455D02*
X12471641Y-13643455D01*
X12471641Y-13643455D02*
X12490688Y-13652979D01*
X12490688Y-13652979D02*
X12500212Y-13662503D01*
X12500212Y-13662503D02*
X12509736Y-13681551D01*
X12509736Y-13681551D02*
X12519260Y-13719646D01*
X12519260Y-13719646D02*
X12519260Y-13767265D01*
X12519260Y-13767265D02*
X12509736Y-13805360D01*
X12509736Y-13805360D02*
X12500212Y-13824408D01*
X12500212Y-13824408D02*
X12490688Y-13833932D01*
X12490688Y-13833932D02*
X12471641Y-13843455D01*
X12471641Y-13843455D02*
X12452593Y-13843455D01*
X12452593Y-13843455D02*
X12433545Y-13833932D01*
X12433545Y-13833932D02*
X12424021Y-13824408D01*
X12424021Y-13824408D02*
X12414498Y-13805360D01*
X12414498Y-13805360D02*
X12404974Y-13767265D01*
X12404974Y-13767265D02*
X12404974Y-13719646D01*
X12404974Y-13719646D02*
X12414498Y-13681551D01*
X12414498Y-13681551D02*
X12424021Y-13662503D01*
X12424021Y-13662503D02*
X12433545Y-13652979D01*
X12433545Y-13652979D02*
X12452593Y-13643455D01*
X12643069Y-13643455D02*
X12662117Y-13643455D01*
X12662117Y-13643455D02*
X12681164Y-13652979D01*
X12681164Y-13652979D02*
X12690688Y-13662503D01*
X12690688Y-13662503D02*
X12700212Y-13681551D01*
X12700212Y-13681551D02*
X12709736Y-13719646D01*
X12709736Y-13719646D02*
X12709736Y-13767265D01*
X12709736Y-13767265D02*
X12700212Y-13805360D01*
X12700212Y-13805360D02*
X12690688Y-13824408D01*
X12690688Y-13824408D02*
X12681164Y-13833932D01*
X12681164Y-13833932D02*
X12662117Y-13843455D01*
X12662117Y-13843455D02*
X12643069Y-13843455D01*
X12643069Y-13843455D02*
X12624021Y-13833932D01*
X12624021Y-13833932D02*
X12614498Y-13824408D01*
X12614498Y-13824408D02*
X12604974Y-13805360D01*
X12604974Y-13805360D02*
X12595450Y-13767265D01*
X12595450Y-13767265D02*
X12595450Y-13719646D01*
X12595450Y-13719646D02*
X12604974Y-13681551D01*
X12604974Y-13681551D02*
X12614498Y-13662503D01*
X12614498Y-13662503D02*
X12624021Y-13652979D01*
X12624021Y-13652979D02*
X12643069Y-13643455D01*
X12795450Y-13843455D02*
X12795450Y-13710122D01*
X12795450Y-13729170D02*
X12804974Y-13719646D01*
X12804974Y-13719646D02*
X12824021Y-13710122D01*
X12824021Y-13710122D02*
X12852593Y-13710122D01*
X12852593Y-13710122D02*
X12871641Y-13719646D01*
X12871641Y-13719646D02*
X12881164Y-13738693D01*
X12881164Y-13738693D02*
X12881164Y-13843455D01*
X12881164Y-13738693D02*
X12890688Y-13719646D01*
X12890688Y-13719646D02*
X12909736Y-13710122D01*
X12909736Y-13710122D02*
X12938307Y-13710122D01*
X12938307Y-13710122D02*
X12957355Y-13719646D01*
X12957355Y-13719646D02*
X12966879Y-13738693D01*
X12966879Y-13738693D02*
X12966879Y-13843455D01*
X13062117Y-13843455D02*
X13062117Y-13710122D01*
X13062117Y-13729170D02*
X13071641Y-13719646D01*
X13071641Y-13719646D02*
X13090688Y-13710122D01*
X13090688Y-13710122D02*
X13119260Y-13710122D01*
X13119260Y-13710122D02*
X13138307Y-13719646D01*
X13138307Y-13719646D02*
X13147831Y-13738693D01*
X13147831Y-13738693D02*
X13147831Y-13843455D01*
X13147831Y-13738693D02*
X13157355Y-13719646D01*
X13157355Y-13719646D02*
X13176402Y-13710122D01*
X13176402Y-13710122D02*
X13204974Y-13710122D01*
X13204974Y-13710122D02*
X13224022Y-13719646D01*
X13224022Y-13719646D02*
X13233545Y-13738693D01*
X13233545Y-13738693D02*
X13233545Y-13843455D01*
X13624022Y-13633932D02*
X13452593Y-13891074D01*
X13881164Y-13643455D02*
X13900212Y-13643455D01*
X13900212Y-13643455D02*
X13919260Y-13652979D01*
X13919260Y-13652979D02*
X13928784Y-13662503D01*
X13928784Y-13662503D02*
X13938307Y-13681551D01*
X13938307Y-13681551D02*
X13947831Y-13719646D01*
X13947831Y-13719646D02*
X13947831Y-13767265D01*
X13947831Y-13767265D02*
X13938307Y-13805360D01*
X13938307Y-13805360D02*
X13928784Y-13824408D01*
X13928784Y-13824408D02*
X13919260Y-13833932D01*
X13919260Y-13833932D02*
X13900212Y-13843455D01*
X13900212Y-13843455D02*
X13881164Y-13843455D01*
X13881164Y-13843455D02*
X13862117Y-13833932D01*
X13862117Y-13833932D02*
X13852593Y-13824408D01*
X13852593Y-13824408D02*
X13843069Y-13805360D01*
X13843069Y-13805360D02*
X13833545Y-13767265D01*
X13833545Y-13767265D02*
X13833545Y-13719646D01*
X13833545Y-13719646D02*
X13843069Y-13681551D01*
X13843069Y-13681551D02*
X13852593Y-13662503D01*
X13852593Y-13662503D02*
X13862117Y-13652979D01*
X13862117Y-13652979D02*
X13881164Y-13643455D01*
X14033545Y-13824408D02*
X14043069Y-13833932D01*
X14043069Y-13833932D02*
X14033545Y-13843455D01*
X14033545Y-13843455D02*
X14024022Y-13833932D01*
X14024022Y-13833932D02*
X14033545Y-13824408D01*
X14033545Y-13824408D02*
X14033545Y-13843455D01*
X14166879Y-13643455D02*
X14185926Y-13643455D01*
X14185926Y-13643455D02*
X14204974Y-13652979D01*
X14204974Y-13652979D02*
X14214498Y-13662503D01*
X14214498Y-13662503D02*
X14224022Y-13681551D01*
X14224022Y-13681551D02*
X14233545Y-13719646D01*
X14233545Y-13719646D02*
X14233545Y-13767265D01*
X14233545Y-13767265D02*
X14224022Y-13805360D01*
X14224022Y-13805360D02*
X14214498Y-13824408D01*
X14214498Y-13824408D02*
X14204974Y-13833932D01*
X14204974Y-13833932D02*
X14185926Y-13843455D01*
X14185926Y-13843455D02*
X14166879Y-13843455D01*
X14166879Y-13843455D02*
X14147831Y-13833932D01*
X14147831Y-13833932D02*
X14138307Y-13824408D01*
X14138307Y-13824408D02*
X14128784Y-13805360D01*
X14128784Y-13805360D02*
X14119260Y-13767265D01*
X14119260Y-13767265D02*
X14119260Y-13719646D01*
X14119260Y-13719646D02*
X14128784Y-13681551D01*
X14128784Y-13681551D02*
X14138307Y-13662503D01*
X14138307Y-13662503D02*
X14147831Y-13652979D01*
X14147831Y-13652979D02*
X14166879Y-13643455D01*
X14424022Y-13843455D02*
X14309736Y-13843455D01*
X14366879Y-13843455D02*
X14366879Y-13643455D01*
X14366879Y-13643455D02*
X14347831Y-13672027D01*
X14347831Y-13672027D02*
X14328784Y-13691074D01*
X14328784Y-13691074D02*
X14309736Y-13700598D01*
X14614498Y-13843455D02*
X14500212Y-13843455D01*
X14557355Y-13843455D02*
X14557355Y-13643455D01*
X14557355Y-13643455D02*
X14538307Y-13672027D01*
X14538307Y-13672027D02*
X14519260Y-13691074D01*
X14519260Y-13691074D02*
X14500212Y-13700598D01*
X14728784Y-13729170D02*
X14709736Y-13719646D01*
X14709736Y-13719646D02*
X14700212Y-13710122D01*
X14700212Y-13710122D02*
X14690688Y-13691074D01*
X14690688Y-13691074D02*
X14690688Y-13681551D01*
X14690688Y-13681551D02*
X14700212Y-13662503D01*
X14700212Y-13662503D02*
X14709736Y-13652979D01*
X14709736Y-13652979D02*
X14728784Y-13643455D01*
X14728784Y-13643455D02*
X14766879Y-13643455D01*
X14766879Y-13643455D02*
X14785926Y-13652979D01*
X14785926Y-13652979D02*
X14795450Y-13662503D01*
X14795450Y-13662503D02*
X14804974Y-13681551D01*
X14804974Y-13681551D02*
X14804974Y-13691074D01*
X14804974Y-13691074D02*
X14795450Y-13710122D01*
X14795450Y-13710122D02*
X14785926Y-13719646D01*
X14785926Y-13719646D02*
X14766879Y-13729170D01*
X14766879Y-13729170D02*
X14728784Y-13729170D01*
X14728784Y-13729170D02*
X14709736Y-13738693D01*
X14709736Y-13738693D02*
X14700212Y-13748217D01*
X14700212Y-13748217D02*
X14690688Y-13767265D01*
X14690688Y-13767265D02*
X14690688Y-13805360D01*
X14690688Y-13805360D02*
X14700212Y-13824408D01*
X14700212Y-13824408D02*
X14709736Y-13833932D01*
X14709736Y-13833932D02*
X14728784Y-13843455D01*
X14728784Y-13843455D02*
X14766879Y-13843455D01*
X14766879Y-13843455D02*
X14785926Y-13833932D01*
X14785926Y-13833932D02*
X14795450Y-13824408D01*
X14795450Y-13824408D02*
X14804974Y-13805360D01*
X14804974Y-13805360D02*
X14804974Y-13767265D01*
X14804974Y-13767265D02*
X14795450Y-13748217D01*
X14795450Y-13748217D02*
X14785926Y-13738693D01*
X14785926Y-13738693D02*
X14766879Y-13729170D01*
X14881165Y-13643455D02*
X14881165Y-13681551D01*
X14957355Y-13643455D02*
X14957355Y-13681551D01*
X15252593Y-13919646D02*
X15243069Y-13910122D01*
X15243069Y-13910122D02*
X15224022Y-13881551D01*
X15224022Y-13881551D02*
X15214498Y-13862503D01*
X15214498Y-13862503D02*
X15204974Y-13833932D01*
X15204974Y-13833932D02*
X15195450Y-13786312D01*
X15195450Y-13786312D02*
X15195450Y-13748217D01*
X15195450Y-13748217D02*
X15204974Y-13700598D01*
X15204974Y-13700598D02*
X15214498Y-13672027D01*
X15214498Y-13672027D02*
X15224022Y-13652979D01*
X15224022Y-13652979D02*
X15243069Y-13624408D01*
X15243069Y-13624408D02*
X15252593Y-13614884D01*
X15433546Y-13843455D02*
X15319260Y-13843455D01*
X15376403Y-13843455D02*
X15376403Y-13643455D01*
X15376403Y-13643455D02*
X15357355Y-13672027D01*
X15357355Y-13672027D02*
X15338307Y-13691074D01*
X15338307Y-13691074D02*
X15319260Y-13700598D01*
X15500212Y-13643455D02*
X15624022Y-13643455D01*
X15624022Y-13643455D02*
X15557355Y-13719646D01*
X15557355Y-13719646D02*
X15585927Y-13719646D01*
X15585927Y-13719646D02*
X15604974Y-13729170D01*
X15604974Y-13729170D02*
X15614498Y-13738693D01*
X15614498Y-13738693D02*
X15624022Y-13757741D01*
X15624022Y-13757741D02*
X15624022Y-13805360D01*
X15624022Y-13805360D02*
X15614498Y-13824408D01*
X15614498Y-13824408D02*
X15604974Y-13833932D01*
X15604974Y-13833932D02*
X15585927Y-13843455D01*
X15585927Y-13843455D02*
X15528784Y-13843455D01*
X15528784Y-13843455D02*
X15509736Y-13833932D01*
X15509736Y-13833932D02*
X15500212Y-13824408D01*
X15690688Y-13643455D02*
X15814498Y-13643455D01*
X15814498Y-13643455D02*
X15747831Y-13719646D01*
X15747831Y-13719646D02*
X15776403Y-13719646D01*
X15776403Y-13719646D02*
X15795450Y-13729170D01*
X15795450Y-13729170D02*
X15804974Y-13738693D01*
X15804974Y-13738693D02*
X15814498Y-13757741D01*
X15814498Y-13757741D02*
X15814498Y-13805360D01*
X15814498Y-13805360D02*
X15804974Y-13824408D01*
X15804974Y-13824408D02*
X15795450Y-13833932D01*
X15795450Y-13833932D02*
X15776403Y-13843455D01*
X15776403Y-13843455D02*
X15719260Y-13843455D01*
X15719260Y-13843455D02*
X15700212Y-13833932D01*
X15700212Y-13833932D02*
X15690688Y-13824408D01*
X16052593Y-13843455D02*
X16052593Y-13643455D01*
X16138308Y-13843455D02*
X16138308Y-13738693D01*
X16138308Y-13738693D02*
X16128784Y-13719646D01*
X16128784Y-13719646D02*
X16109736Y-13710122D01*
X16109736Y-13710122D02*
X16081165Y-13710122D01*
X16081165Y-13710122D02*
X16062117Y-13719646D01*
X16062117Y-13719646D02*
X16052593Y-13729170D01*
X16262117Y-13843455D02*
X16243069Y-13833932D01*
X16243069Y-13833932D02*
X16233546Y-13824408D01*
X16233546Y-13824408D02*
X16224022Y-13805360D01*
X16224022Y-13805360D02*
X16224022Y-13748217D01*
X16224022Y-13748217D02*
X16233546Y-13729170D01*
X16233546Y-13729170D02*
X16243069Y-13719646D01*
X16243069Y-13719646D02*
X16262117Y-13710122D01*
X16262117Y-13710122D02*
X16290689Y-13710122D01*
X16290689Y-13710122D02*
X16309736Y-13719646D01*
X16309736Y-13719646D02*
X16319260Y-13729170D01*
X16319260Y-13729170D02*
X16328784Y-13748217D01*
X16328784Y-13748217D02*
X16328784Y-13805360D01*
X16328784Y-13805360D02*
X16319260Y-13824408D01*
X16319260Y-13824408D02*
X16309736Y-13833932D01*
X16309736Y-13833932D02*
X16290689Y-13843455D01*
X16290689Y-13843455D02*
X16262117Y-13843455D01*
X16443069Y-13843455D02*
X16424022Y-13833932D01*
X16424022Y-13833932D02*
X16414498Y-13814884D01*
X16414498Y-13814884D02*
X16414498Y-13643455D01*
X16595450Y-13833932D02*
X16576403Y-13843455D01*
X16576403Y-13843455D02*
X16538308Y-13843455D01*
X16538308Y-13843455D02*
X16519260Y-13833932D01*
X16519260Y-13833932D02*
X16509736Y-13814884D01*
X16509736Y-13814884D02*
X16509736Y-13738693D01*
X16509736Y-13738693D02*
X16519260Y-13719646D01*
X16519260Y-13719646D02*
X16538308Y-13710122D01*
X16538308Y-13710122D02*
X16576403Y-13710122D01*
X16576403Y-13710122D02*
X16595450Y-13719646D01*
X16595450Y-13719646D02*
X16604974Y-13738693D01*
X16604974Y-13738693D02*
X16604974Y-13757741D01*
X16604974Y-13757741D02*
X16509736Y-13776789D01*
X16681165Y-13833932D02*
X16700212Y-13843455D01*
X16700212Y-13843455D02*
X16738308Y-13843455D01*
X16738308Y-13843455D02*
X16757355Y-13833932D01*
X16757355Y-13833932D02*
X16766879Y-13814884D01*
X16766879Y-13814884D02*
X16766879Y-13805360D01*
X16766879Y-13805360D02*
X16757355Y-13786312D01*
X16757355Y-13786312D02*
X16738308Y-13776789D01*
X16738308Y-13776789D02*
X16709736Y-13776789D01*
X16709736Y-13776789D02*
X16690689Y-13767265D01*
X16690689Y-13767265D02*
X16681165Y-13748217D01*
X16681165Y-13748217D02*
X16681165Y-13738693D01*
X16681165Y-13738693D02*
X16690689Y-13719646D01*
X16690689Y-13719646D02*
X16709736Y-13710122D01*
X16709736Y-13710122D02*
X16738308Y-13710122D01*
X16738308Y-13710122D02*
X16757355Y-13719646D01*
X16833546Y-13919646D02*
X16843070Y-13910122D01*
X16843070Y-13910122D02*
X16862117Y-13881551D01*
X16862117Y-13881551D02*
X16871641Y-13862503D01*
X16871641Y-13862503D02*
X16881165Y-13833932D01*
X16881165Y-13833932D02*
X16890689Y-13786312D01*
X16890689Y-13786312D02*
X16890689Y-13748217D01*
X16890689Y-13748217D02*
X16881165Y-13700598D01*
X16881165Y-13700598D02*
X16871641Y-13672027D01*
X16871641Y-13672027D02*
X16862117Y-13652979D01*
X16862117Y-13652979D02*
X16843070Y-13624408D01*
X16843070Y-13624408D02*
X16833546Y-13614884D01*
D10*
X11677530Y-14015972D02*
G75*
G02*
X11637530Y-14015972I-20000J0D01*
G01*
X11637530Y-14015972D02*
G75*
G02*
X11677530Y-14015972I20000J0D01*
G01*
D11*
X11976402Y-13907455D02*
X11995450Y-13907455D01*
X11995450Y-13907455D02*
X12014498Y-13916979D01*
X12014498Y-13916979D02*
X12024021Y-13926503D01*
X12024021Y-13926503D02*
X12033545Y-13945551D01*
X12033545Y-13945551D02*
X12043069Y-13983646D01*
X12043069Y-13983646D02*
X12043069Y-14031265D01*
X12043069Y-14031265D02*
X12033545Y-14069360D01*
X12033545Y-14069360D02*
X12024021Y-14088408D01*
X12024021Y-14088408D02*
X12014498Y-14097932D01*
X12014498Y-14097932D02*
X11995450Y-14107455D01*
X11995450Y-14107455D02*
X11976402Y-14107455D01*
X11976402Y-14107455D02*
X11957355Y-14097932D01*
X11957355Y-14097932D02*
X11947831Y-14088408D01*
X11947831Y-14088408D02*
X11938307Y-14069360D01*
X11938307Y-14069360D02*
X11928783Y-14031265D01*
X11928783Y-14031265D02*
X11928783Y-13983646D01*
X11928783Y-13983646D02*
X11938307Y-13945551D01*
X11938307Y-13945551D02*
X11947831Y-13926503D01*
X11947831Y-13926503D02*
X11957355Y-13916979D01*
X11957355Y-13916979D02*
X11976402Y-13907455D01*
X12128783Y-14088408D02*
X12138307Y-14097932D01*
X12138307Y-14097932D02*
X12128783Y-14107455D01*
X12128783Y-14107455D02*
X12119260Y-14097932D01*
X12119260Y-14097932D02*
X12128783Y-14088408D01*
X12128783Y-14088408D02*
X12128783Y-14107455D01*
X12309736Y-13974122D02*
X12309736Y-14107455D01*
X12262117Y-13897932D02*
X12214498Y-14040789D01*
X12214498Y-14040789D02*
X12338307Y-14040789D01*
X12452593Y-13907455D02*
X12471641Y-13907455D01*
X12471641Y-13907455D02*
X12490688Y-13916979D01*
X12490688Y-13916979D02*
X12500212Y-13926503D01*
X12500212Y-13926503D02*
X12509736Y-13945551D01*
X12509736Y-13945551D02*
X12519260Y-13983646D01*
X12519260Y-13983646D02*
X12519260Y-14031265D01*
X12519260Y-14031265D02*
X12509736Y-14069360D01*
X12509736Y-14069360D02*
X12500212Y-14088408D01*
X12500212Y-14088408D02*
X12490688Y-14097932D01*
X12490688Y-14097932D02*
X12471641Y-14107455D01*
X12471641Y-14107455D02*
X12452593Y-14107455D01*
X12452593Y-14107455D02*
X12433545Y-14097932D01*
X12433545Y-14097932D02*
X12424021Y-14088408D01*
X12424021Y-14088408D02*
X12414498Y-14069360D01*
X12414498Y-14069360D02*
X12404974Y-14031265D01*
X12404974Y-14031265D02*
X12404974Y-13983646D01*
X12404974Y-13983646D02*
X12414498Y-13945551D01*
X12414498Y-13945551D02*
X12424021Y-13926503D01*
X12424021Y-13926503D02*
X12433545Y-13916979D01*
X12433545Y-13916979D02*
X12452593Y-13907455D01*
X12643069Y-13907455D02*
X12662117Y-13907455D01*
X12662117Y-13907455D02*
X12681164Y-13916979D01*
X12681164Y-13916979D02*
X12690688Y-13926503D01*
X12690688Y-13926503D02*
X12700212Y-13945551D01*
X12700212Y-13945551D02*
X12709736Y-13983646D01*
X12709736Y-13983646D02*
X12709736Y-14031265D01*
X12709736Y-14031265D02*
X12700212Y-14069360D01*
X12700212Y-14069360D02*
X12690688Y-14088408D01*
X12690688Y-14088408D02*
X12681164Y-14097932D01*
X12681164Y-14097932D02*
X12662117Y-14107455D01*
X12662117Y-14107455D02*
X12643069Y-14107455D01*
X12643069Y-14107455D02*
X12624021Y-14097932D01*
X12624021Y-14097932D02*
X12614498Y-14088408D01*
X12614498Y-14088408D02*
X12604974Y-14069360D01*
X12604974Y-14069360D02*
X12595450Y-14031265D01*
X12595450Y-14031265D02*
X12595450Y-13983646D01*
X12595450Y-13983646D02*
X12604974Y-13945551D01*
X12604974Y-13945551D02*
X12614498Y-13926503D01*
X12614498Y-13926503D02*
X12624021Y-13916979D01*
X12624021Y-13916979D02*
X12643069Y-13907455D01*
X12795450Y-14107455D02*
X12795450Y-13974122D01*
X12795450Y-13993170D02*
X12804974Y-13983646D01*
X12804974Y-13983646D02*
X12824021Y-13974122D01*
X12824021Y-13974122D02*
X12852593Y-13974122D01*
X12852593Y-13974122D02*
X12871641Y-13983646D01*
X12871641Y-13983646D02*
X12881164Y-14002693D01*
X12881164Y-14002693D02*
X12881164Y-14107455D01*
X12881164Y-14002693D02*
X12890688Y-13983646D01*
X12890688Y-13983646D02*
X12909736Y-13974122D01*
X12909736Y-13974122D02*
X12938307Y-13974122D01*
X12938307Y-13974122D02*
X12957355Y-13983646D01*
X12957355Y-13983646D02*
X12966879Y-14002693D01*
X12966879Y-14002693D02*
X12966879Y-14107455D01*
X13062117Y-14107455D02*
X13062117Y-13974122D01*
X13062117Y-13993170D02*
X13071641Y-13983646D01*
X13071641Y-13983646D02*
X13090688Y-13974122D01*
X13090688Y-13974122D02*
X13119260Y-13974122D01*
X13119260Y-13974122D02*
X13138307Y-13983646D01*
X13138307Y-13983646D02*
X13147831Y-14002693D01*
X13147831Y-14002693D02*
X13147831Y-14107455D01*
X13147831Y-14002693D02*
X13157355Y-13983646D01*
X13157355Y-13983646D02*
X13176402Y-13974122D01*
X13176402Y-13974122D02*
X13204974Y-13974122D01*
X13204974Y-13974122D02*
X13224022Y-13983646D01*
X13224022Y-13983646D02*
X13233545Y-14002693D01*
X13233545Y-14002693D02*
X13233545Y-14107455D01*
X13624022Y-13897932D02*
X13452593Y-14155074D01*
X13881164Y-13907455D02*
X13900212Y-13907455D01*
X13900212Y-13907455D02*
X13919260Y-13916979D01*
X13919260Y-13916979D02*
X13928784Y-13926503D01*
X13928784Y-13926503D02*
X13938307Y-13945551D01*
X13938307Y-13945551D02*
X13947831Y-13983646D01*
X13947831Y-13983646D02*
X13947831Y-14031265D01*
X13947831Y-14031265D02*
X13938307Y-14069360D01*
X13938307Y-14069360D02*
X13928784Y-14088408D01*
X13928784Y-14088408D02*
X13919260Y-14097932D01*
X13919260Y-14097932D02*
X13900212Y-14107455D01*
X13900212Y-14107455D02*
X13881164Y-14107455D01*
X13881164Y-14107455D02*
X13862117Y-14097932D01*
X13862117Y-14097932D02*
X13852593Y-14088408D01*
X13852593Y-14088408D02*
X13843069Y-14069360D01*
X13843069Y-14069360D02*
X13833545Y-14031265D01*
X13833545Y-14031265D02*
X13833545Y-13983646D01*
X13833545Y-13983646D02*
X13843069Y-13945551D01*
X13843069Y-13945551D02*
X13852593Y-13926503D01*
X13852593Y-13926503D02*
X13862117Y-13916979D01*
X13862117Y-13916979D02*
X13881164Y-13907455D01*
X14033545Y-14088408D02*
X14043069Y-14097932D01*
X14043069Y-14097932D02*
X14033545Y-14107455D01*
X14033545Y-14107455D02*
X14024022Y-14097932D01*
X14024022Y-14097932D02*
X14033545Y-14088408D01*
X14033545Y-14088408D02*
X14033545Y-14107455D01*
X14166879Y-13907455D02*
X14185926Y-13907455D01*
X14185926Y-13907455D02*
X14204974Y-13916979D01*
X14204974Y-13916979D02*
X14214498Y-13926503D01*
X14214498Y-13926503D02*
X14224022Y-13945551D01*
X14224022Y-13945551D02*
X14233545Y-13983646D01*
X14233545Y-13983646D02*
X14233545Y-14031265D01*
X14233545Y-14031265D02*
X14224022Y-14069360D01*
X14224022Y-14069360D02*
X14214498Y-14088408D01*
X14214498Y-14088408D02*
X14204974Y-14097932D01*
X14204974Y-14097932D02*
X14185926Y-14107455D01*
X14185926Y-14107455D02*
X14166879Y-14107455D01*
X14166879Y-14107455D02*
X14147831Y-14097932D01*
X14147831Y-14097932D02*
X14138307Y-14088408D01*
X14138307Y-14088408D02*
X14128784Y-14069360D01*
X14128784Y-14069360D02*
X14119260Y-14031265D01*
X14119260Y-14031265D02*
X14119260Y-13983646D01*
X14119260Y-13983646D02*
X14128784Y-13945551D01*
X14128784Y-13945551D02*
X14138307Y-13926503D01*
X14138307Y-13926503D02*
X14147831Y-13916979D01*
X14147831Y-13916979D02*
X14166879Y-13907455D01*
X14424022Y-14107455D02*
X14309736Y-14107455D01*
X14366879Y-14107455D02*
X14366879Y-13907455D01*
X14366879Y-13907455D02*
X14347831Y-13936027D01*
X14347831Y-13936027D02*
X14328784Y-13955074D01*
X14328784Y-13955074D02*
X14309736Y-13964598D01*
X14604974Y-13907455D02*
X14509736Y-13907455D01*
X14509736Y-13907455D02*
X14500212Y-14002693D01*
X14500212Y-14002693D02*
X14509736Y-13993170D01*
X14509736Y-13993170D02*
X14528784Y-13983646D01*
X14528784Y-13983646D02*
X14576403Y-13983646D01*
X14576403Y-13983646D02*
X14595450Y-13993170D01*
X14595450Y-13993170D02*
X14604974Y-14002693D01*
X14604974Y-14002693D02*
X14614498Y-14021741D01*
X14614498Y-14021741D02*
X14614498Y-14069360D01*
X14614498Y-14069360D02*
X14604974Y-14088408D01*
X14604974Y-14088408D02*
X14595450Y-14097932D01*
X14595450Y-14097932D02*
X14576403Y-14107455D01*
X14576403Y-14107455D02*
X14528784Y-14107455D01*
X14528784Y-14107455D02*
X14509736Y-14097932D01*
X14509736Y-14097932D02*
X14500212Y-14088408D01*
X14681165Y-13907455D02*
X14814498Y-13907455D01*
X14814498Y-13907455D02*
X14728784Y-14107455D01*
X14881165Y-13907455D02*
X14881165Y-13945551D01*
X14957355Y-13907455D02*
X14957355Y-13945551D01*
X15252593Y-14183646D02*
X15243069Y-14174122D01*
X15243069Y-14174122D02*
X15224022Y-14145551D01*
X15224022Y-14145551D02*
X15214498Y-14126503D01*
X15214498Y-14126503D02*
X15204974Y-14097932D01*
X15204974Y-14097932D02*
X15195450Y-14050312D01*
X15195450Y-14050312D02*
X15195450Y-14012217D01*
X15195450Y-14012217D02*
X15204974Y-13964598D01*
X15204974Y-13964598D02*
X15214498Y-13936027D01*
X15214498Y-13936027D02*
X15224022Y-13916979D01*
X15224022Y-13916979D02*
X15243069Y-13888408D01*
X15243069Y-13888408D02*
X15252593Y-13878884D01*
X15319260Y-13926503D02*
X15328784Y-13916979D01*
X15328784Y-13916979D02*
X15347831Y-13907455D01*
X15347831Y-13907455D02*
X15395450Y-13907455D01*
X15395450Y-13907455D02*
X15414498Y-13916979D01*
X15414498Y-13916979D02*
X15424022Y-13926503D01*
X15424022Y-13926503D02*
X15433546Y-13945551D01*
X15433546Y-13945551D02*
X15433546Y-13964598D01*
X15433546Y-13964598D02*
X15424022Y-13993170D01*
X15424022Y-13993170D02*
X15309736Y-14107455D01*
X15309736Y-14107455D02*
X15433546Y-14107455D01*
X15671641Y-14107455D02*
X15671641Y-13907455D01*
X15757355Y-14107455D02*
X15757355Y-14002693D01*
X15757355Y-14002693D02*
X15747831Y-13983646D01*
X15747831Y-13983646D02*
X15728784Y-13974122D01*
X15728784Y-13974122D02*
X15700212Y-13974122D01*
X15700212Y-13974122D02*
X15681165Y-13983646D01*
X15681165Y-13983646D02*
X15671641Y-13993170D01*
X15881165Y-14107455D02*
X15862117Y-14097932D01*
X15862117Y-14097932D02*
X15852593Y-14088408D01*
X15852593Y-14088408D02*
X15843069Y-14069360D01*
X15843069Y-14069360D02*
X15843069Y-14012217D01*
X15843069Y-14012217D02*
X15852593Y-13993170D01*
X15852593Y-13993170D02*
X15862117Y-13983646D01*
X15862117Y-13983646D02*
X15881165Y-13974122D01*
X15881165Y-13974122D02*
X15909736Y-13974122D01*
X15909736Y-13974122D02*
X15928784Y-13983646D01*
X15928784Y-13983646D02*
X15938308Y-13993170D01*
X15938308Y-13993170D02*
X15947831Y-14012217D01*
X15947831Y-14012217D02*
X15947831Y-14069360D01*
X15947831Y-14069360D02*
X15938308Y-14088408D01*
X15938308Y-14088408D02*
X15928784Y-14097932D01*
X15928784Y-14097932D02*
X15909736Y-14107455D01*
X15909736Y-14107455D02*
X15881165Y-14107455D01*
X16062117Y-14107455D02*
X16043069Y-14097932D01*
X16043069Y-14097932D02*
X16033546Y-14078884D01*
X16033546Y-14078884D02*
X16033546Y-13907455D01*
X16214498Y-14097932D02*
X16195450Y-14107455D01*
X16195450Y-14107455D02*
X16157355Y-14107455D01*
X16157355Y-14107455D02*
X16138308Y-14097932D01*
X16138308Y-14097932D02*
X16128784Y-14078884D01*
X16128784Y-14078884D02*
X16128784Y-14002693D01*
X16128784Y-14002693D02*
X16138308Y-13983646D01*
X16138308Y-13983646D02*
X16157355Y-13974122D01*
X16157355Y-13974122D02*
X16195450Y-13974122D01*
X16195450Y-13974122D02*
X16214498Y-13983646D01*
X16214498Y-13983646D02*
X16224022Y-14002693D01*
X16224022Y-14002693D02*
X16224022Y-14021741D01*
X16224022Y-14021741D02*
X16128784Y-14040789D01*
X16300212Y-14097932D02*
X16319260Y-14107455D01*
X16319260Y-14107455D02*
X16357355Y-14107455D01*
X16357355Y-14107455D02*
X16376403Y-14097932D01*
X16376403Y-14097932D02*
X16385927Y-14078884D01*
X16385927Y-14078884D02*
X16385927Y-14069360D01*
X16385927Y-14069360D02*
X16376403Y-14050312D01*
X16376403Y-14050312D02*
X16357355Y-14040789D01*
X16357355Y-14040789D02*
X16328784Y-14040789D01*
X16328784Y-14040789D02*
X16309736Y-14031265D01*
X16309736Y-14031265D02*
X16300212Y-14012217D01*
X16300212Y-14012217D02*
X16300212Y-14002693D01*
X16300212Y-14002693D02*
X16309736Y-13983646D01*
X16309736Y-13983646D02*
X16328784Y-13974122D01*
X16328784Y-13974122D02*
X16357355Y-13974122D01*
X16357355Y-13974122D02*
X16376403Y-13983646D01*
X16452593Y-14183646D02*
X16462117Y-14174122D01*
X16462117Y-14174122D02*
X16481165Y-14145551D01*
X16481165Y-14145551D02*
X16490689Y-14126503D01*
X16490689Y-14126503D02*
X16500212Y-14097932D01*
X16500212Y-14097932D02*
X16509736Y-14050312D01*
X16509736Y-14050312D02*
X16509736Y-14012217D01*
X16509736Y-14012217D02*
X16500212Y-13964598D01*
X16500212Y-13964598D02*
X16490689Y-13936027D01*
X16490689Y-13936027D02*
X16481165Y-13916979D01*
X16481165Y-13916979D02*
X16462117Y-13888408D01*
X16462117Y-13888408D02*
X16452593Y-13878884D01*
D10*
X11647530Y-14249972D02*
X11647530Y-14309972D01*
X11617530Y-14279972D02*
X11677530Y-14279972D01*
D11*
X11976402Y-14171455D02*
X11995450Y-14171455D01*
X11995450Y-14171455D02*
X12014498Y-14180979D01*
X12014498Y-14180979D02*
X12024021Y-14190503D01*
X12024021Y-14190503D02*
X12033545Y-14209551D01*
X12033545Y-14209551D02*
X12043069Y-14247646D01*
X12043069Y-14247646D02*
X12043069Y-14295265D01*
X12043069Y-14295265D02*
X12033545Y-14333360D01*
X12033545Y-14333360D02*
X12024021Y-14352408D01*
X12024021Y-14352408D02*
X12014498Y-14361932D01*
X12014498Y-14361932D02*
X11995450Y-14371455D01*
X11995450Y-14371455D02*
X11976402Y-14371455D01*
X11976402Y-14371455D02*
X11957355Y-14361932D01*
X11957355Y-14361932D02*
X11947831Y-14352408D01*
X11947831Y-14352408D02*
X11938307Y-14333360D01*
X11938307Y-14333360D02*
X11928783Y-14295265D01*
X11928783Y-14295265D02*
X11928783Y-14247646D01*
X11928783Y-14247646D02*
X11938307Y-14209551D01*
X11938307Y-14209551D02*
X11947831Y-14190503D01*
X11947831Y-14190503D02*
X11957355Y-14180979D01*
X11957355Y-14180979D02*
X11976402Y-14171455D01*
X12128783Y-14352408D02*
X12138307Y-14361932D01*
X12138307Y-14361932D02*
X12128783Y-14371455D01*
X12128783Y-14371455D02*
X12119260Y-14361932D01*
X12119260Y-14361932D02*
X12128783Y-14352408D01*
X12128783Y-14352408D02*
X12128783Y-14371455D01*
X12309736Y-14171455D02*
X12271640Y-14171455D01*
X12271640Y-14171455D02*
X12252593Y-14180979D01*
X12252593Y-14180979D02*
X12243069Y-14190503D01*
X12243069Y-14190503D02*
X12224021Y-14219074D01*
X12224021Y-14219074D02*
X12214498Y-14257170D01*
X12214498Y-14257170D02*
X12214498Y-14333360D01*
X12214498Y-14333360D02*
X12224021Y-14352408D01*
X12224021Y-14352408D02*
X12233545Y-14361932D01*
X12233545Y-14361932D02*
X12252593Y-14371455D01*
X12252593Y-14371455D02*
X12290688Y-14371455D01*
X12290688Y-14371455D02*
X12309736Y-14361932D01*
X12309736Y-14361932D02*
X12319260Y-14352408D01*
X12319260Y-14352408D02*
X12328783Y-14333360D01*
X12328783Y-14333360D02*
X12328783Y-14285741D01*
X12328783Y-14285741D02*
X12319260Y-14266693D01*
X12319260Y-14266693D02*
X12309736Y-14257170D01*
X12309736Y-14257170D02*
X12290688Y-14247646D01*
X12290688Y-14247646D02*
X12252593Y-14247646D01*
X12252593Y-14247646D02*
X12233545Y-14257170D01*
X12233545Y-14257170D02*
X12224021Y-14266693D01*
X12224021Y-14266693D02*
X12214498Y-14285741D01*
X12452593Y-14171455D02*
X12471641Y-14171455D01*
X12471641Y-14171455D02*
X12490688Y-14180979D01*
X12490688Y-14180979D02*
X12500212Y-14190503D01*
X12500212Y-14190503D02*
X12509736Y-14209551D01*
X12509736Y-14209551D02*
X12519260Y-14247646D01*
X12519260Y-14247646D02*
X12519260Y-14295265D01*
X12519260Y-14295265D02*
X12509736Y-14333360D01*
X12509736Y-14333360D02*
X12500212Y-14352408D01*
X12500212Y-14352408D02*
X12490688Y-14361932D01*
X12490688Y-14361932D02*
X12471641Y-14371455D01*
X12471641Y-14371455D02*
X12452593Y-14371455D01*
X12452593Y-14371455D02*
X12433545Y-14361932D01*
X12433545Y-14361932D02*
X12424021Y-14352408D01*
X12424021Y-14352408D02*
X12414498Y-14333360D01*
X12414498Y-14333360D02*
X12404974Y-14295265D01*
X12404974Y-14295265D02*
X12404974Y-14247646D01*
X12404974Y-14247646D02*
X12414498Y-14209551D01*
X12414498Y-14209551D02*
X12424021Y-14190503D01*
X12424021Y-14190503D02*
X12433545Y-14180979D01*
X12433545Y-14180979D02*
X12452593Y-14171455D01*
X12643069Y-14171455D02*
X12662117Y-14171455D01*
X12662117Y-14171455D02*
X12681164Y-14180979D01*
X12681164Y-14180979D02*
X12690688Y-14190503D01*
X12690688Y-14190503D02*
X12700212Y-14209551D01*
X12700212Y-14209551D02*
X12709736Y-14247646D01*
X12709736Y-14247646D02*
X12709736Y-14295265D01*
X12709736Y-14295265D02*
X12700212Y-14333360D01*
X12700212Y-14333360D02*
X12690688Y-14352408D01*
X12690688Y-14352408D02*
X12681164Y-14361932D01*
X12681164Y-14361932D02*
X12662117Y-14371455D01*
X12662117Y-14371455D02*
X12643069Y-14371455D01*
X12643069Y-14371455D02*
X12624021Y-14361932D01*
X12624021Y-14361932D02*
X12614498Y-14352408D01*
X12614498Y-14352408D02*
X12604974Y-14333360D01*
X12604974Y-14333360D02*
X12595450Y-14295265D01*
X12595450Y-14295265D02*
X12595450Y-14247646D01*
X12595450Y-14247646D02*
X12604974Y-14209551D01*
X12604974Y-14209551D02*
X12614498Y-14190503D01*
X12614498Y-14190503D02*
X12624021Y-14180979D01*
X12624021Y-14180979D02*
X12643069Y-14171455D01*
X12795450Y-14371455D02*
X12795450Y-14238122D01*
X12795450Y-14257170D02*
X12804974Y-14247646D01*
X12804974Y-14247646D02*
X12824021Y-14238122D01*
X12824021Y-14238122D02*
X12852593Y-14238122D01*
X12852593Y-14238122D02*
X12871641Y-14247646D01*
X12871641Y-14247646D02*
X12881164Y-14266693D01*
X12881164Y-14266693D02*
X12881164Y-14371455D01*
X12881164Y-14266693D02*
X12890688Y-14247646D01*
X12890688Y-14247646D02*
X12909736Y-14238122D01*
X12909736Y-14238122D02*
X12938307Y-14238122D01*
X12938307Y-14238122D02*
X12957355Y-14247646D01*
X12957355Y-14247646D02*
X12966879Y-14266693D01*
X12966879Y-14266693D02*
X12966879Y-14371455D01*
X13062117Y-14371455D02*
X13062117Y-14238122D01*
X13062117Y-14257170D02*
X13071641Y-14247646D01*
X13071641Y-14247646D02*
X13090688Y-14238122D01*
X13090688Y-14238122D02*
X13119260Y-14238122D01*
X13119260Y-14238122D02*
X13138307Y-14247646D01*
X13138307Y-14247646D02*
X13147831Y-14266693D01*
X13147831Y-14266693D02*
X13147831Y-14371455D01*
X13147831Y-14266693D02*
X13157355Y-14247646D01*
X13157355Y-14247646D02*
X13176402Y-14238122D01*
X13176402Y-14238122D02*
X13204974Y-14238122D01*
X13204974Y-14238122D02*
X13224022Y-14247646D01*
X13224022Y-14247646D02*
X13233545Y-14266693D01*
X13233545Y-14266693D02*
X13233545Y-14371455D01*
X13624022Y-14161932D02*
X13452593Y-14419074D01*
X13881164Y-14171455D02*
X13900212Y-14171455D01*
X13900212Y-14171455D02*
X13919260Y-14180979D01*
X13919260Y-14180979D02*
X13928784Y-14190503D01*
X13928784Y-14190503D02*
X13938307Y-14209551D01*
X13938307Y-14209551D02*
X13947831Y-14247646D01*
X13947831Y-14247646D02*
X13947831Y-14295265D01*
X13947831Y-14295265D02*
X13938307Y-14333360D01*
X13938307Y-14333360D02*
X13928784Y-14352408D01*
X13928784Y-14352408D02*
X13919260Y-14361932D01*
X13919260Y-14361932D02*
X13900212Y-14371455D01*
X13900212Y-14371455D02*
X13881164Y-14371455D01*
X13881164Y-14371455D02*
X13862117Y-14361932D01*
X13862117Y-14361932D02*
X13852593Y-14352408D01*
X13852593Y-14352408D02*
X13843069Y-14333360D01*
X13843069Y-14333360D02*
X13833545Y-14295265D01*
X13833545Y-14295265D02*
X13833545Y-14247646D01*
X13833545Y-14247646D02*
X13843069Y-14209551D01*
X13843069Y-14209551D02*
X13852593Y-14190503D01*
X13852593Y-14190503D02*
X13862117Y-14180979D01*
X13862117Y-14180979D02*
X13881164Y-14171455D01*
X14033545Y-14352408D02*
X14043069Y-14361932D01*
X14043069Y-14361932D02*
X14033545Y-14371455D01*
X14033545Y-14371455D02*
X14024022Y-14361932D01*
X14024022Y-14361932D02*
X14033545Y-14352408D01*
X14033545Y-14352408D02*
X14033545Y-14371455D01*
X14166879Y-14171455D02*
X14185926Y-14171455D01*
X14185926Y-14171455D02*
X14204974Y-14180979D01*
X14204974Y-14180979D02*
X14214498Y-14190503D01*
X14214498Y-14190503D02*
X14224022Y-14209551D01*
X14224022Y-14209551D02*
X14233545Y-14247646D01*
X14233545Y-14247646D02*
X14233545Y-14295265D01*
X14233545Y-14295265D02*
X14224022Y-14333360D01*
X14224022Y-14333360D02*
X14214498Y-14352408D01*
X14214498Y-14352408D02*
X14204974Y-14361932D01*
X14204974Y-14361932D02*
X14185926Y-14371455D01*
X14185926Y-14371455D02*
X14166879Y-14371455D01*
X14166879Y-14371455D02*
X14147831Y-14361932D01*
X14147831Y-14361932D02*
X14138307Y-14352408D01*
X14138307Y-14352408D02*
X14128784Y-14333360D01*
X14128784Y-14333360D02*
X14119260Y-14295265D01*
X14119260Y-14295265D02*
X14119260Y-14247646D01*
X14119260Y-14247646D02*
X14128784Y-14209551D01*
X14128784Y-14209551D02*
X14138307Y-14190503D01*
X14138307Y-14190503D02*
X14147831Y-14180979D01*
X14147831Y-14180979D02*
X14166879Y-14171455D01*
X14309736Y-14190503D02*
X14319260Y-14180979D01*
X14319260Y-14180979D02*
X14338307Y-14171455D01*
X14338307Y-14171455D02*
X14385926Y-14171455D01*
X14385926Y-14171455D02*
X14404974Y-14180979D01*
X14404974Y-14180979D02*
X14414498Y-14190503D01*
X14414498Y-14190503D02*
X14424022Y-14209551D01*
X14424022Y-14209551D02*
X14424022Y-14228598D01*
X14424022Y-14228598D02*
X14414498Y-14257170D01*
X14414498Y-14257170D02*
X14300212Y-14371455D01*
X14300212Y-14371455D02*
X14424022Y-14371455D01*
X14490688Y-14171455D02*
X14614498Y-14171455D01*
X14614498Y-14171455D02*
X14547831Y-14247646D01*
X14547831Y-14247646D02*
X14576403Y-14247646D01*
X14576403Y-14247646D02*
X14595450Y-14257170D01*
X14595450Y-14257170D02*
X14604974Y-14266693D01*
X14604974Y-14266693D02*
X14614498Y-14285741D01*
X14614498Y-14285741D02*
X14614498Y-14333360D01*
X14614498Y-14333360D02*
X14604974Y-14352408D01*
X14604974Y-14352408D02*
X14595450Y-14361932D01*
X14595450Y-14361932D02*
X14576403Y-14371455D01*
X14576403Y-14371455D02*
X14519260Y-14371455D01*
X14519260Y-14371455D02*
X14500212Y-14361932D01*
X14500212Y-14361932D02*
X14490688Y-14352408D01*
X14785926Y-14171455D02*
X14747831Y-14171455D01*
X14747831Y-14171455D02*
X14728784Y-14180979D01*
X14728784Y-14180979D02*
X14719260Y-14190503D01*
X14719260Y-14190503D02*
X14700212Y-14219074D01*
X14700212Y-14219074D02*
X14690688Y-14257170D01*
X14690688Y-14257170D02*
X14690688Y-14333360D01*
X14690688Y-14333360D02*
X14700212Y-14352408D01*
X14700212Y-14352408D02*
X14709736Y-14361932D01*
X14709736Y-14361932D02*
X14728784Y-14371455D01*
X14728784Y-14371455D02*
X14766879Y-14371455D01*
X14766879Y-14371455D02*
X14785926Y-14361932D01*
X14785926Y-14361932D02*
X14795450Y-14352408D01*
X14795450Y-14352408D02*
X14804974Y-14333360D01*
X14804974Y-14333360D02*
X14804974Y-14285741D01*
X14804974Y-14285741D02*
X14795450Y-14266693D01*
X14795450Y-14266693D02*
X14785926Y-14257170D01*
X14785926Y-14257170D02*
X14766879Y-14247646D01*
X14766879Y-14247646D02*
X14728784Y-14247646D01*
X14728784Y-14247646D02*
X14709736Y-14257170D01*
X14709736Y-14257170D02*
X14700212Y-14266693D01*
X14700212Y-14266693D02*
X14690688Y-14285741D01*
X14881165Y-14171455D02*
X14881165Y-14209551D01*
X14957355Y-14171455D02*
X14957355Y-14209551D01*
X15252593Y-14447646D02*
X15243069Y-14438122D01*
X15243069Y-14438122D02*
X15224022Y-14409551D01*
X15224022Y-14409551D02*
X15214498Y-14390503D01*
X15214498Y-14390503D02*
X15204974Y-14361932D01*
X15204974Y-14361932D02*
X15195450Y-14314312D01*
X15195450Y-14314312D02*
X15195450Y-14276217D01*
X15195450Y-14276217D02*
X15204974Y-14228598D01*
X15204974Y-14228598D02*
X15214498Y-14200027D01*
X15214498Y-14200027D02*
X15224022Y-14180979D01*
X15224022Y-14180979D02*
X15243069Y-14152408D01*
X15243069Y-14152408D02*
X15252593Y-14142884D01*
X15319260Y-14190503D02*
X15328784Y-14180979D01*
X15328784Y-14180979D02*
X15347831Y-14171455D01*
X15347831Y-14171455D02*
X15395450Y-14171455D01*
X15395450Y-14171455D02*
X15414498Y-14180979D01*
X15414498Y-14180979D02*
X15424022Y-14190503D01*
X15424022Y-14190503D02*
X15433546Y-14209551D01*
X15433546Y-14209551D02*
X15433546Y-14228598D01*
X15433546Y-14228598D02*
X15424022Y-14257170D01*
X15424022Y-14257170D02*
X15309736Y-14371455D01*
X15309736Y-14371455D02*
X15433546Y-14371455D01*
X15671641Y-14371455D02*
X15671641Y-14171455D01*
X15757355Y-14371455D02*
X15757355Y-14266693D01*
X15757355Y-14266693D02*
X15747831Y-14247646D01*
X15747831Y-14247646D02*
X15728784Y-14238122D01*
X15728784Y-14238122D02*
X15700212Y-14238122D01*
X15700212Y-14238122D02*
X15681165Y-14247646D01*
X15681165Y-14247646D02*
X15671641Y-14257170D01*
X15881165Y-14371455D02*
X15862117Y-14361932D01*
X15862117Y-14361932D02*
X15852593Y-14352408D01*
X15852593Y-14352408D02*
X15843069Y-14333360D01*
X15843069Y-14333360D02*
X15843069Y-14276217D01*
X15843069Y-14276217D02*
X15852593Y-14257170D01*
X15852593Y-14257170D02*
X15862117Y-14247646D01*
X15862117Y-14247646D02*
X15881165Y-14238122D01*
X15881165Y-14238122D02*
X15909736Y-14238122D01*
X15909736Y-14238122D02*
X15928784Y-14247646D01*
X15928784Y-14247646D02*
X15938308Y-14257170D01*
X15938308Y-14257170D02*
X15947831Y-14276217D01*
X15947831Y-14276217D02*
X15947831Y-14333360D01*
X15947831Y-14333360D02*
X15938308Y-14352408D01*
X15938308Y-14352408D02*
X15928784Y-14361932D01*
X15928784Y-14361932D02*
X15909736Y-14371455D01*
X15909736Y-14371455D02*
X15881165Y-14371455D01*
X16062117Y-14371455D02*
X16043069Y-14361932D01*
X16043069Y-14361932D02*
X16033546Y-14342884D01*
X16033546Y-14342884D02*
X16033546Y-14171455D01*
X16214498Y-14361932D02*
X16195450Y-14371455D01*
X16195450Y-14371455D02*
X16157355Y-14371455D01*
X16157355Y-14371455D02*
X16138308Y-14361932D01*
X16138308Y-14361932D02*
X16128784Y-14342884D01*
X16128784Y-14342884D02*
X16128784Y-14266693D01*
X16128784Y-14266693D02*
X16138308Y-14247646D01*
X16138308Y-14247646D02*
X16157355Y-14238122D01*
X16157355Y-14238122D02*
X16195450Y-14238122D01*
X16195450Y-14238122D02*
X16214498Y-14247646D01*
X16214498Y-14247646D02*
X16224022Y-14266693D01*
X16224022Y-14266693D02*
X16224022Y-14285741D01*
X16224022Y-14285741D02*
X16128784Y-14304789D01*
X16300212Y-14361932D02*
X16319260Y-14371455D01*
X16319260Y-14371455D02*
X16357355Y-14371455D01*
X16357355Y-14371455D02*
X16376403Y-14361932D01*
X16376403Y-14361932D02*
X16385927Y-14342884D01*
X16385927Y-14342884D02*
X16385927Y-14333360D01*
X16385927Y-14333360D02*
X16376403Y-14314312D01*
X16376403Y-14314312D02*
X16357355Y-14304789D01*
X16357355Y-14304789D02*
X16328784Y-14304789D01*
X16328784Y-14304789D02*
X16309736Y-14295265D01*
X16309736Y-14295265D02*
X16300212Y-14276217D01*
X16300212Y-14276217D02*
X16300212Y-14266693D01*
X16300212Y-14266693D02*
X16309736Y-14247646D01*
X16309736Y-14247646D02*
X16328784Y-14238122D01*
X16328784Y-14238122D02*
X16357355Y-14238122D01*
X16357355Y-14238122D02*
X16376403Y-14247646D01*
X16452593Y-14447646D02*
X16462117Y-14438122D01*
X16462117Y-14438122D02*
X16481165Y-14409551D01*
X16481165Y-14409551D02*
X16490689Y-14390503D01*
X16490689Y-14390503D02*
X16500212Y-14361932D01*
X16500212Y-14361932D02*
X16509736Y-14314312D01*
X16509736Y-14314312D02*
X16509736Y-14276217D01*
X16509736Y-14276217D02*
X16500212Y-14228598D01*
X16500212Y-14228598D02*
X16490689Y-14200027D01*
X16490689Y-14200027D02*
X16481165Y-14180979D01*
X16481165Y-14180979D02*
X16462117Y-14152408D01*
X16462117Y-14152408D02*
X16452593Y-14142884D01*
D10*
X11665815Y-14572256D02*
X11665815Y-14515687D01*
X11609246Y-14515687D01*
X11609246Y-14572256D01*
X11665815Y-14572256D01*
D11*
X11976402Y-14435455D02*
X11995450Y-14435455D01*
X11995450Y-14435455D02*
X12014498Y-14444979D01*
X12014498Y-14444979D02*
X12024021Y-14454503D01*
X12024021Y-14454503D02*
X12033545Y-14473551D01*
X12033545Y-14473551D02*
X12043069Y-14511646D01*
X12043069Y-14511646D02*
X12043069Y-14559265D01*
X12043069Y-14559265D02*
X12033545Y-14597360D01*
X12033545Y-14597360D02*
X12024021Y-14616408D01*
X12024021Y-14616408D02*
X12014498Y-14625932D01*
X12014498Y-14625932D02*
X11995450Y-14635455D01*
X11995450Y-14635455D02*
X11976402Y-14635455D01*
X11976402Y-14635455D02*
X11957355Y-14625932D01*
X11957355Y-14625932D02*
X11947831Y-14616408D01*
X11947831Y-14616408D02*
X11938307Y-14597360D01*
X11938307Y-14597360D02*
X11928783Y-14559265D01*
X11928783Y-14559265D02*
X11928783Y-14511646D01*
X11928783Y-14511646D02*
X11938307Y-14473551D01*
X11938307Y-14473551D02*
X11947831Y-14454503D01*
X11947831Y-14454503D02*
X11957355Y-14444979D01*
X11957355Y-14444979D02*
X11976402Y-14435455D01*
X12128783Y-14616408D02*
X12138307Y-14625932D01*
X12138307Y-14625932D02*
X12128783Y-14635455D01*
X12128783Y-14635455D02*
X12119260Y-14625932D01*
X12119260Y-14625932D02*
X12128783Y-14616408D01*
X12128783Y-14616408D02*
X12128783Y-14635455D01*
X12252593Y-14521170D02*
X12233545Y-14511646D01*
X12233545Y-14511646D02*
X12224021Y-14502122D01*
X12224021Y-14502122D02*
X12214498Y-14483074D01*
X12214498Y-14483074D02*
X12214498Y-14473551D01*
X12214498Y-14473551D02*
X12224021Y-14454503D01*
X12224021Y-14454503D02*
X12233545Y-14444979D01*
X12233545Y-14444979D02*
X12252593Y-14435455D01*
X12252593Y-14435455D02*
X12290688Y-14435455D01*
X12290688Y-14435455D02*
X12309736Y-14444979D01*
X12309736Y-14444979D02*
X12319260Y-14454503D01*
X12319260Y-14454503D02*
X12328783Y-14473551D01*
X12328783Y-14473551D02*
X12328783Y-14483074D01*
X12328783Y-14483074D02*
X12319260Y-14502122D01*
X12319260Y-14502122D02*
X12309736Y-14511646D01*
X12309736Y-14511646D02*
X12290688Y-14521170D01*
X12290688Y-14521170D02*
X12252593Y-14521170D01*
X12252593Y-14521170D02*
X12233545Y-14530693D01*
X12233545Y-14530693D02*
X12224021Y-14540217D01*
X12224021Y-14540217D02*
X12214498Y-14559265D01*
X12214498Y-14559265D02*
X12214498Y-14597360D01*
X12214498Y-14597360D02*
X12224021Y-14616408D01*
X12224021Y-14616408D02*
X12233545Y-14625932D01*
X12233545Y-14625932D02*
X12252593Y-14635455D01*
X12252593Y-14635455D02*
X12290688Y-14635455D01*
X12290688Y-14635455D02*
X12309736Y-14625932D01*
X12309736Y-14625932D02*
X12319260Y-14616408D01*
X12319260Y-14616408D02*
X12328783Y-14597360D01*
X12328783Y-14597360D02*
X12328783Y-14559265D01*
X12328783Y-14559265D02*
X12319260Y-14540217D01*
X12319260Y-14540217D02*
X12309736Y-14530693D01*
X12309736Y-14530693D02*
X12290688Y-14521170D01*
X12452593Y-14435455D02*
X12471641Y-14435455D01*
X12471641Y-14435455D02*
X12490688Y-14444979D01*
X12490688Y-14444979D02*
X12500212Y-14454503D01*
X12500212Y-14454503D02*
X12509736Y-14473551D01*
X12509736Y-14473551D02*
X12519260Y-14511646D01*
X12519260Y-14511646D02*
X12519260Y-14559265D01*
X12519260Y-14559265D02*
X12509736Y-14597360D01*
X12509736Y-14597360D02*
X12500212Y-14616408D01*
X12500212Y-14616408D02*
X12490688Y-14625932D01*
X12490688Y-14625932D02*
X12471641Y-14635455D01*
X12471641Y-14635455D02*
X12452593Y-14635455D01*
X12452593Y-14635455D02*
X12433545Y-14625932D01*
X12433545Y-14625932D02*
X12424021Y-14616408D01*
X12424021Y-14616408D02*
X12414498Y-14597360D01*
X12414498Y-14597360D02*
X12404974Y-14559265D01*
X12404974Y-14559265D02*
X12404974Y-14511646D01*
X12404974Y-14511646D02*
X12414498Y-14473551D01*
X12414498Y-14473551D02*
X12424021Y-14454503D01*
X12424021Y-14454503D02*
X12433545Y-14444979D01*
X12433545Y-14444979D02*
X12452593Y-14435455D01*
X12643069Y-14435455D02*
X12662117Y-14435455D01*
X12662117Y-14435455D02*
X12681164Y-14444979D01*
X12681164Y-14444979D02*
X12690688Y-14454503D01*
X12690688Y-14454503D02*
X12700212Y-14473551D01*
X12700212Y-14473551D02*
X12709736Y-14511646D01*
X12709736Y-14511646D02*
X12709736Y-14559265D01*
X12709736Y-14559265D02*
X12700212Y-14597360D01*
X12700212Y-14597360D02*
X12690688Y-14616408D01*
X12690688Y-14616408D02*
X12681164Y-14625932D01*
X12681164Y-14625932D02*
X12662117Y-14635455D01*
X12662117Y-14635455D02*
X12643069Y-14635455D01*
X12643069Y-14635455D02*
X12624021Y-14625932D01*
X12624021Y-14625932D02*
X12614498Y-14616408D01*
X12614498Y-14616408D02*
X12604974Y-14597360D01*
X12604974Y-14597360D02*
X12595450Y-14559265D01*
X12595450Y-14559265D02*
X12595450Y-14511646D01*
X12595450Y-14511646D02*
X12604974Y-14473551D01*
X12604974Y-14473551D02*
X12614498Y-14454503D01*
X12614498Y-14454503D02*
X12624021Y-14444979D01*
X12624021Y-14444979D02*
X12643069Y-14435455D01*
X12795450Y-14635455D02*
X12795450Y-14502122D01*
X12795450Y-14521170D02*
X12804974Y-14511646D01*
X12804974Y-14511646D02*
X12824021Y-14502122D01*
X12824021Y-14502122D02*
X12852593Y-14502122D01*
X12852593Y-14502122D02*
X12871641Y-14511646D01*
X12871641Y-14511646D02*
X12881164Y-14530693D01*
X12881164Y-14530693D02*
X12881164Y-14635455D01*
X12881164Y-14530693D02*
X12890688Y-14511646D01*
X12890688Y-14511646D02*
X12909736Y-14502122D01*
X12909736Y-14502122D02*
X12938307Y-14502122D01*
X12938307Y-14502122D02*
X12957355Y-14511646D01*
X12957355Y-14511646D02*
X12966879Y-14530693D01*
X12966879Y-14530693D02*
X12966879Y-14635455D01*
X13062117Y-14635455D02*
X13062117Y-14502122D01*
X13062117Y-14521170D02*
X13071641Y-14511646D01*
X13071641Y-14511646D02*
X13090688Y-14502122D01*
X13090688Y-14502122D02*
X13119260Y-14502122D01*
X13119260Y-14502122D02*
X13138307Y-14511646D01*
X13138307Y-14511646D02*
X13147831Y-14530693D01*
X13147831Y-14530693D02*
X13147831Y-14635455D01*
X13147831Y-14530693D02*
X13157355Y-14511646D01*
X13157355Y-14511646D02*
X13176402Y-14502122D01*
X13176402Y-14502122D02*
X13204974Y-14502122D01*
X13204974Y-14502122D02*
X13224022Y-14511646D01*
X13224022Y-14511646D02*
X13233545Y-14530693D01*
X13233545Y-14530693D02*
X13233545Y-14635455D01*
X13624022Y-14425932D02*
X13452593Y-14683074D01*
X13881164Y-14435455D02*
X13900212Y-14435455D01*
X13900212Y-14435455D02*
X13919260Y-14444979D01*
X13919260Y-14444979D02*
X13928784Y-14454503D01*
X13928784Y-14454503D02*
X13938307Y-14473551D01*
X13938307Y-14473551D02*
X13947831Y-14511646D01*
X13947831Y-14511646D02*
X13947831Y-14559265D01*
X13947831Y-14559265D02*
X13938307Y-14597360D01*
X13938307Y-14597360D02*
X13928784Y-14616408D01*
X13928784Y-14616408D02*
X13919260Y-14625932D01*
X13919260Y-14625932D02*
X13900212Y-14635455D01*
X13900212Y-14635455D02*
X13881164Y-14635455D01*
X13881164Y-14635455D02*
X13862117Y-14625932D01*
X13862117Y-14625932D02*
X13852593Y-14616408D01*
X13852593Y-14616408D02*
X13843069Y-14597360D01*
X13843069Y-14597360D02*
X13833545Y-14559265D01*
X13833545Y-14559265D02*
X13833545Y-14511646D01*
X13833545Y-14511646D02*
X13843069Y-14473551D01*
X13843069Y-14473551D02*
X13852593Y-14454503D01*
X13852593Y-14454503D02*
X13862117Y-14444979D01*
X13862117Y-14444979D02*
X13881164Y-14435455D01*
X14033545Y-14616408D02*
X14043069Y-14625932D01*
X14043069Y-14625932D02*
X14033545Y-14635455D01*
X14033545Y-14635455D02*
X14024022Y-14625932D01*
X14024022Y-14625932D02*
X14033545Y-14616408D01*
X14033545Y-14616408D02*
X14033545Y-14635455D01*
X14166879Y-14435455D02*
X14185926Y-14435455D01*
X14185926Y-14435455D02*
X14204974Y-14444979D01*
X14204974Y-14444979D02*
X14214498Y-14454503D01*
X14214498Y-14454503D02*
X14224022Y-14473551D01*
X14224022Y-14473551D02*
X14233545Y-14511646D01*
X14233545Y-14511646D02*
X14233545Y-14559265D01*
X14233545Y-14559265D02*
X14224022Y-14597360D01*
X14224022Y-14597360D02*
X14214498Y-14616408D01*
X14214498Y-14616408D02*
X14204974Y-14625932D01*
X14204974Y-14625932D02*
X14185926Y-14635455D01*
X14185926Y-14635455D02*
X14166879Y-14635455D01*
X14166879Y-14635455D02*
X14147831Y-14625932D01*
X14147831Y-14625932D02*
X14138307Y-14616408D01*
X14138307Y-14616408D02*
X14128784Y-14597360D01*
X14128784Y-14597360D02*
X14119260Y-14559265D01*
X14119260Y-14559265D02*
X14119260Y-14511646D01*
X14119260Y-14511646D02*
X14128784Y-14473551D01*
X14128784Y-14473551D02*
X14138307Y-14454503D01*
X14138307Y-14454503D02*
X14147831Y-14444979D01*
X14147831Y-14444979D02*
X14166879Y-14435455D01*
X14300212Y-14435455D02*
X14424022Y-14435455D01*
X14424022Y-14435455D02*
X14357355Y-14511646D01*
X14357355Y-14511646D02*
X14385926Y-14511646D01*
X14385926Y-14511646D02*
X14404974Y-14521170D01*
X14404974Y-14521170D02*
X14414498Y-14530693D01*
X14414498Y-14530693D02*
X14424022Y-14549741D01*
X14424022Y-14549741D02*
X14424022Y-14597360D01*
X14424022Y-14597360D02*
X14414498Y-14616408D01*
X14414498Y-14616408D02*
X14404974Y-14625932D01*
X14404974Y-14625932D02*
X14385926Y-14635455D01*
X14385926Y-14635455D02*
X14328784Y-14635455D01*
X14328784Y-14635455D02*
X14309736Y-14625932D01*
X14309736Y-14625932D02*
X14300212Y-14616408D01*
X14614498Y-14635455D02*
X14500212Y-14635455D01*
X14557355Y-14635455D02*
X14557355Y-14435455D01*
X14557355Y-14435455D02*
X14538307Y-14464027D01*
X14538307Y-14464027D02*
X14519260Y-14483074D01*
X14519260Y-14483074D02*
X14500212Y-14492598D01*
X14795450Y-14435455D02*
X14700212Y-14435455D01*
X14700212Y-14435455D02*
X14690688Y-14530693D01*
X14690688Y-14530693D02*
X14700212Y-14521170D01*
X14700212Y-14521170D02*
X14719260Y-14511646D01*
X14719260Y-14511646D02*
X14766879Y-14511646D01*
X14766879Y-14511646D02*
X14785926Y-14521170D01*
X14785926Y-14521170D02*
X14795450Y-14530693D01*
X14795450Y-14530693D02*
X14804974Y-14549741D01*
X14804974Y-14549741D02*
X14804974Y-14597360D01*
X14804974Y-14597360D02*
X14795450Y-14616408D01*
X14795450Y-14616408D02*
X14785926Y-14625932D01*
X14785926Y-14625932D02*
X14766879Y-14635455D01*
X14766879Y-14635455D02*
X14719260Y-14635455D01*
X14719260Y-14635455D02*
X14700212Y-14625932D01*
X14700212Y-14625932D02*
X14690688Y-14616408D01*
X14881165Y-14435455D02*
X14881165Y-14473551D01*
X14957355Y-14435455D02*
X14957355Y-14473551D01*
X15252593Y-14711646D02*
X15243069Y-14702122D01*
X15243069Y-14702122D02*
X15224022Y-14673551D01*
X15224022Y-14673551D02*
X15214498Y-14654503D01*
X15214498Y-14654503D02*
X15204974Y-14625932D01*
X15204974Y-14625932D02*
X15195450Y-14578312D01*
X15195450Y-14578312D02*
X15195450Y-14540217D01*
X15195450Y-14540217D02*
X15204974Y-14492598D01*
X15204974Y-14492598D02*
X15214498Y-14464027D01*
X15214498Y-14464027D02*
X15224022Y-14444979D01*
X15224022Y-14444979D02*
X15243069Y-14416408D01*
X15243069Y-14416408D02*
X15252593Y-14406884D01*
X15424022Y-14435455D02*
X15328784Y-14435455D01*
X15328784Y-14435455D02*
X15319260Y-14530693D01*
X15319260Y-14530693D02*
X15328784Y-14521170D01*
X15328784Y-14521170D02*
X15347831Y-14511646D01*
X15347831Y-14511646D02*
X15395450Y-14511646D01*
X15395450Y-14511646D02*
X15414498Y-14521170D01*
X15414498Y-14521170D02*
X15424022Y-14530693D01*
X15424022Y-14530693D02*
X15433546Y-14549741D01*
X15433546Y-14549741D02*
X15433546Y-14597360D01*
X15433546Y-14597360D02*
X15424022Y-14616408D01*
X15424022Y-14616408D02*
X15414498Y-14625932D01*
X15414498Y-14625932D02*
X15395450Y-14635455D01*
X15395450Y-14635455D02*
X15347831Y-14635455D01*
X15347831Y-14635455D02*
X15328784Y-14625932D01*
X15328784Y-14625932D02*
X15319260Y-14616408D01*
X15671641Y-14635455D02*
X15671641Y-14435455D01*
X15757355Y-14635455D02*
X15757355Y-14530693D01*
X15757355Y-14530693D02*
X15747831Y-14511646D01*
X15747831Y-14511646D02*
X15728784Y-14502122D01*
X15728784Y-14502122D02*
X15700212Y-14502122D01*
X15700212Y-14502122D02*
X15681165Y-14511646D01*
X15681165Y-14511646D02*
X15671641Y-14521170D01*
X15881165Y-14635455D02*
X15862117Y-14625932D01*
X15862117Y-14625932D02*
X15852593Y-14616408D01*
X15852593Y-14616408D02*
X15843069Y-14597360D01*
X15843069Y-14597360D02*
X15843069Y-14540217D01*
X15843069Y-14540217D02*
X15852593Y-14521170D01*
X15852593Y-14521170D02*
X15862117Y-14511646D01*
X15862117Y-14511646D02*
X15881165Y-14502122D01*
X15881165Y-14502122D02*
X15909736Y-14502122D01*
X15909736Y-14502122D02*
X15928784Y-14511646D01*
X15928784Y-14511646D02*
X15938308Y-14521170D01*
X15938308Y-14521170D02*
X15947831Y-14540217D01*
X15947831Y-14540217D02*
X15947831Y-14597360D01*
X15947831Y-14597360D02*
X15938308Y-14616408D01*
X15938308Y-14616408D02*
X15928784Y-14625932D01*
X15928784Y-14625932D02*
X15909736Y-14635455D01*
X15909736Y-14635455D02*
X15881165Y-14635455D01*
X16062117Y-14635455D02*
X16043069Y-14625932D01*
X16043069Y-14625932D02*
X16033546Y-14606884D01*
X16033546Y-14606884D02*
X16033546Y-14435455D01*
X16214498Y-14625932D02*
X16195450Y-14635455D01*
X16195450Y-14635455D02*
X16157355Y-14635455D01*
X16157355Y-14635455D02*
X16138308Y-14625932D01*
X16138308Y-14625932D02*
X16128784Y-14606884D01*
X16128784Y-14606884D02*
X16128784Y-14530693D01*
X16128784Y-14530693D02*
X16138308Y-14511646D01*
X16138308Y-14511646D02*
X16157355Y-14502122D01*
X16157355Y-14502122D02*
X16195450Y-14502122D01*
X16195450Y-14502122D02*
X16214498Y-14511646D01*
X16214498Y-14511646D02*
X16224022Y-14530693D01*
X16224022Y-14530693D02*
X16224022Y-14549741D01*
X16224022Y-14549741D02*
X16128784Y-14568789D01*
X16300212Y-14625932D02*
X16319260Y-14635455D01*
X16319260Y-14635455D02*
X16357355Y-14635455D01*
X16357355Y-14635455D02*
X16376403Y-14625932D01*
X16376403Y-14625932D02*
X16385927Y-14606884D01*
X16385927Y-14606884D02*
X16385927Y-14597360D01*
X16385927Y-14597360D02*
X16376403Y-14578312D01*
X16376403Y-14578312D02*
X16357355Y-14568789D01*
X16357355Y-14568789D02*
X16328784Y-14568789D01*
X16328784Y-14568789D02*
X16309736Y-14559265D01*
X16309736Y-14559265D02*
X16300212Y-14540217D01*
X16300212Y-14540217D02*
X16300212Y-14530693D01*
X16300212Y-14530693D02*
X16309736Y-14511646D01*
X16309736Y-14511646D02*
X16328784Y-14502122D01*
X16328784Y-14502122D02*
X16357355Y-14502122D01*
X16357355Y-14502122D02*
X16376403Y-14511646D01*
X16452593Y-14711646D02*
X16462117Y-14702122D01*
X16462117Y-14702122D02*
X16481165Y-14673551D01*
X16481165Y-14673551D02*
X16490689Y-14654503D01*
X16490689Y-14654503D02*
X16500212Y-14625932D01*
X16500212Y-14625932D02*
X16509736Y-14578312D01*
X16509736Y-14578312D02*
X16509736Y-14540217D01*
X16509736Y-14540217D02*
X16500212Y-14492598D01*
X16500212Y-14492598D02*
X16490689Y-14464027D01*
X16490689Y-14464027D02*
X16481165Y-14444979D01*
X16481165Y-14444979D02*
X16462117Y-14416408D01*
X16462117Y-14416408D02*
X16452593Y-14406884D01*
D10*
X11627530Y-14857972D02*
X11677530Y-14807972D01*
X11627530Y-14757972D01*
X11577530Y-14807972D01*
X11627530Y-14857972D01*
D11*
X12043069Y-14899455D02*
X11928783Y-14899455D01*
X11985926Y-14899455D02*
X11985926Y-14699455D01*
X11985926Y-14699455D02*
X11966879Y-14728027D01*
X11966879Y-14728027D02*
X11947831Y-14747074D01*
X11947831Y-14747074D02*
X11928783Y-14756598D01*
X12128783Y-14880408D02*
X12138307Y-14889932D01*
X12138307Y-14889932D02*
X12128783Y-14899455D01*
X12128783Y-14899455D02*
X12119260Y-14889932D01*
X12119260Y-14889932D02*
X12128783Y-14880408D01*
X12128783Y-14880408D02*
X12128783Y-14899455D01*
X12262117Y-14699455D02*
X12281164Y-14699455D01*
X12281164Y-14699455D02*
X12300212Y-14708979D01*
X12300212Y-14708979D02*
X12309736Y-14718503D01*
X12309736Y-14718503D02*
X12319260Y-14737551D01*
X12319260Y-14737551D02*
X12328783Y-14775646D01*
X12328783Y-14775646D02*
X12328783Y-14823265D01*
X12328783Y-14823265D02*
X12319260Y-14861360D01*
X12319260Y-14861360D02*
X12309736Y-14880408D01*
X12309736Y-14880408D02*
X12300212Y-14889932D01*
X12300212Y-14889932D02*
X12281164Y-14899455D01*
X12281164Y-14899455D02*
X12262117Y-14899455D01*
X12262117Y-14899455D02*
X12243069Y-14889932D01*
X12243069Y-14889932D02*
X12233545Y-14880408D01*
X12233545Y-14880408D02*
X12224021Y-14861360D01*
X12224021Y-14861360D02*
X12214498Y-14823265D01*
X12214498Y-14823265D02*
X12214498Y-14775646D01*
X12214498Y-14775646D02*
X12224021Y-14737551D01*
X12224021Y-14737551D02*
X12233545Y-14718503D01*
X12233545Y-14718503D02*
X12243069Y-14708979D01*
X12243069Y-14708979D02*
X12262117Y-14699455D01*
X12452593Y-14699455D02*
X12471641Y-14699455D01*
X12471641Y-14699455D02*
X12490688Y-14708979D01*
X12490688Y-14708979D02*
X12500212Y-14718503D01*
X12500212Y-14718503D02*
X12509736Y-14737551D01*
X12509736Y-14737551D02*
X12519260Y-14775646D01*
X12519260Y-14775646D02*
X12519260Y-14823265D01*
X12519260Y-14823265D02*
X12509736Y-14861360D01*
X12509736Y-14861360D02*
X12500212Y-14880408D01*
X12500212Y-14880408D02*
X12490688Y-14889932D01*
X12490688Y-14889932D02*
X12471641Y-14899455D01*
X12471641Y-14899455D02*
X12452593Y-14899455D01*
X12452593Y-14899455D02*
X12433545Y-14889932D01*
X12433545Y-14889932D02*
X12424021Y-14880408D01*
X12424021Y-14880408D02*
X12414498Y-14861360D01*
X12414498Y-14861360D02*
X12404974Y-14823265D01*
X12404974Y-14823265D02*
X12404974Y-14775646D01*
X12404974Y-14775646D02*
X12414498Y-14737551D01*
X12414498Y-14737551D02*
X12424021Y-14718503D01*
X12424021Y-14718503D02*
X12433545Y-14708979D01*
X12433545Y-14708979D02*
X12452593Y-14699455D01*
X12643069Y-14699455D02*
X12662117Y-14699455D01*
X12662117Y-14699455D02*
X12681164Y-14708979D01*
X12681164Y-14708979D02*
X12690688Y-14718503D01*
X12690688Y-14718503D02*
X12700212Y-14737551D01*
X12700212Y-14737551D02*
X12709736Y-14775646D01*
X12709736Y-14775646D02*
X12709736Y-14823265D01*
X12709736Y-14823265D02*
X12700212Y-14861360D01*
X12700212Y-14861360D02*
X12690688Y-14880408D01*
X12690688Y-14880408D02*
X12681164Y-14889932D01*
X12681164Y-14889932D02*
X12662117Y-14899455D01*
X12662117Y-14899455D02*
X12643069Y-14899455D01*
X12643069Y-14899455D02*
X12624021Y-14889932D01*
X12624021Y-14889932D02*
X12614498Y-14880408D01*
X12614498Y-14880408D02*
X12604974Y-14861360D01*
X12604974Y-14861360D02*
X12595450Y-14823265D01*
X12595450Y-14823265D02*
X12595450Y-14775646D01*
X12595450Y-14775646D02*
X12604974Y-14737551D01*
X12604974Y-14737551D02*
X12614498Y-14718503D01*
X12614498Y-14718503D02*
X12624021Y-14708979D01*
X12624021Y-14708979D02*
X12643069Y-14699455D01*
X12795450Y-14899455D02*
X12795450Y-14766122D01*
X12795450Y-14785170D02*
X12804974Y-14775646D01*
X12804974Y-14775646D02*
X12824021Y-14766122D01*
X12824021Y-14766122D02*
X12852593Y-14766122D01*
X12852593Y-14766122D02*
X12871641Y-14775646D01*
X12871641Y-14775646D02*
X12881164Y-14794693D01*
X12881164Y-14794693D02*
X12881164Y-14899455D01*
X12881164Y-14794693D02*
X12890688Y-14775646D01*
X12890688Y-14775646D02*
X12909736Y-14766122D01*
X12909736Y-14766122D02*
X12938307Y-14766122D01*
X12938307Y-14766122D02*
X12957355Y-14775646D01*
X12957355Y-14775646D02*
X12966879Y-14794693D01*
X12966879Y-14794693D02*
X12966879Y-14899455D01*
X13062117Y-14899455D02*
X13062117Y-14766122D01*
X13062117Y-14785170D02*
X13071641Y-14775646D01*
X13071641Y-14775646D02*
X13090688Y-14766122D01*
X13090688Y-14766122D02*
X13119260Y-14766122D01*
X13119260Y-14766122D02*
X13138307Y-14775646D01*
X13138307Y-14775646D02*
X13147831Y-14794693D01*
X13147831Y-14794693D02*
X13147831Y-14899455D01*
X13147831Y-14794693D02*
X13157355Y-14775646D01*
X13157355Y-14775646D02*
X13176402Y-14766122D01*
X13176402Y-14766122D02*
X13204974Y-14766122D01*
X13204974Y-14766122D02*
X13224022Y-14775646D01*
X13224022Y-14775646D02*
X13233545Y-14794693D01*
X13233545Y-14794693D02*
X13233545Y-14899455D01*
X13624022Y-14689932D02*
X13452593Y-14947074D01*
X13881164Y-14699455D02*
X13900212Y-14699455D01*
X13900212Y-14699455D02*
X13919260Y-14708979D01*
X13919260Y-14708979D02*
X13928784Y-14718503D01*
X13928784Y-14718503D02*
X13938307Y-14737551D01*
X13938307Y-14737551D02*
X13947831Y-14775646D01*
X13947831Y-14775646D02*
X13947831Y-14823265D01*
X13947831Y-14823265D02*
X13938307Y-14861360D01*
X13938307Y-14861360D02*
X13928784Y-14880408D01*
X13928784Y-14880408D02*
X13919260Y-14889932D01*
X13919260Y-14889932D02*
X13900212Y-14899455D01*
X13900212Y-14899455D02*
X13881164Y-14899455D01*
X13881164Y-14899455D02*
X13862117Y-14889932D01*
X13862117Y-14889932D02*
X13852593Y-14880408D01*
X13852593Y-14880408D02*
X13843069Y-14861360D01*
X13843069Y-14861360D02*
X13833545Y-14823265D01*
X13833545Y-14823265D02*
X13833545Y-14775646D01*
X13833545Y-14775646D02*
X13843069Y-14737551D01*
X13843069Y-14737551D02*
X13852593Y-14718503D01*
X13852593Y-14718503D02*
X13862117Y-14708979D01*
X13862117Y-14708979D02*
X13881164Y-14699455D01*
X14033545Y-14880408D02*
X14043069Y-14889932D01*
X14043069Y-14889932D02*
X14033545Y-14899455D01*
X14033545Y-14899455D02*
X14024022Y-14889932D01*
X14024022Y-14889932D02*
X14033545Y-14880408D01*
X14033545Y-14880408D02*
X14033545Y-14899455D01*
X14166879Y-14699455D02*
X14185926Y-14699455D01*
X14185926Y-14699455D02*
X14204974Y-14708979D01*
X14204974Y-14708979D02*
X14214498Y-14718503D01*
X14214498Y-14718503D02*
X14224022Y-14737551D01*
X14224022Y-14737551D02*
X14233545Y-14775646D01*
X14233545Y-14775646D02*
X14233545Y-14823265D01*
X14233545Y-14823265D02*
X14224022Y-14861360D01*
X14224022Y-14861360D02*
X14214498Y-14880408D01*
X14214498Y-14880408D02*
X14204974Y-14889932D01*
X14204974Y-14889932D02*
X14185926Y-14899455D01*
X14185926Y-14899455D02*
X14166879Y-14899455D01*
X14166879Y-14899455D02*
X14147831Y-14889932D01*
X14147831Y-14889932D02*
X14138307Y-14880408D01*
X14138307Y-14880408D02*
X14128784Y-14861360D01*
X14128784Y-14861360D02*
X14119260Y-14823265D01*
X14119260Y-14823265D02*
X14119260Y-14775646D01*
X14119260Y-14775646D02*
X14128784Y-14737551D01*
X14128784Y-14737551D02*
X14138307Y-14718503D01*
X14138307Y-14718503D02*
X14147831Y-14708979D01*
X14147831Y-14708979D02*
X14166879Y-14699455D01*
X14300212Y-14699455D02*
X14424022Y-14699455D01*
X14424022Y-14699455D02*
X14357355Y-14775646D01*
X14357355Y-14775646D02*
X14385926Y-14775646D01*
X14385926Y-14775646D02*
X14404974Y-14785170D01*
X14404974Y-14785170D02*
X14414498Y-14794693D01*
X14414498Y-14794693D02*
X14424022Y-14813741D01*
X14424022Y-14813741D02*
X14424022Y-14861360D01*
X14424022Y-14861360D02*
X14414498Y-14880408D01*
X14414498Y-14880408D02*
X14404974Y-14889932D01*
X14404974Y-14889932D02*
X14385926Y-14899455D01*
X14385926Y-14899455D02*
X14328784Y-14899455D01*
X14328784Y-14899455D02*
X14309736Y-14889932D01*
X14309736Y-14889932D02*
X14300212Y-14880408D01*
X14519260Y-14899455D02*
X14557355Y-14899455D01*
X14557355Y-14899455D02*
X14576403Y-14889932D01*
X14576403Y-14889932D02*
X14585926Y-14880408D01*
X14585926Y-14880408D02*
X14604974Y-14851836D01*
X14604974Y-14851836D02*
X14614498Y-14813741D01*
X14614498Y-14813741D02*
X14614498Y-14737551D01*
X14614498Y-14737551D02*
X14604974Y-14718503D01*
X14604974Y-14718503D02*
X14595450Y-14708979D01*
X14595450Y-14708979D02*
X14576403Y-14699455D01*
X14576403Y-14699455D02*
X14538307Y-14699455D01*
X14538307Y-14699455D02*
X14519260Y-14708979D01*
X14519260Y-14708979D02*
X14509736Y-14718503D01*
X14509736Y-14718503D02*
X14500212Y-14737551D01*
X14500212Y-14737551D02*
X14500212Y-14785170D01*
X14500212Y-14785170D02*
X14509736Y-14804217D01*
X14509736Y-14804217D02*
X14519260Y-14813741D01*
X14519260Y-14813741D02*
X14538307Y-14823265D01*
X14538307Y-14823265D02*
X14576403Y-14823265D01*
X14576403Y-14823265D02*
X14595450Y-14813741D01*
X14595450Y-14813741D02*
X14604974Y-14804217D01*
X14604974Y-14804217D02*
X14614498Y-14785170D01*
X14785926Y-14766122D02*
X14785926Y-14899455D01*
X14738307Y-14689932D02*
X14690688Y-14832789D01*
X14690688Y-14832789D02*
X14814498Y-14832789D01*
X14881165Y-14699455D02*
X14881165Y-14737551D01*
X14957355Y-14699455D02*
X14957355Y-14737551D01*
X15252593Y-14975646D02*
X15243069Y-14966122D01*
X15243069Y-14966122D02*
X15224022Y-14937551D01*
X15224022Y-14937551D02*
X15214498Y-14918503D01*
X15214498Y-14918503D02*
X15204974Y-14889932D01*
X15204974Y-14889932D02*
X15195450Y-14842312D01*
X15195450Y-14842312D02*
X15195450Y-14804217D01*
X15195450Y-14804217D02*
X15204974Y-14756598D01*
X15204974Y-14756598D02*
X15214498Y-14728027D01*
X15214498Y-14728027D02*
X15224022Y-14708979D01*
X15224022Y-14708979D02*
X15243069Y-14680408D01*
X15243069Y-14680408D02*
X15252593Y-14670884D01*
X15309736Y-14699455D02*
X15433546Y-14699455D01*
X15433546Y-14699455D02*
X15366879Y-14775646D01*
X15366879Y-14775646D02*
X15395450Y-14775646D01*
X15395450Y-14775646D02*
X15414498Y-14785170D01*
X15414498Y-14785170D02*
X15424022Y-14794693D01*
X15424022Y-14794693D02*
X15433546Y-14813741D01*
X15433546Y-14813741D02*
X15433546Y-14861360D01*
X15433546Y-14861360D02*
X15424022Y-14880408D01*
X15424022Y-14880408D02*
X15414498Y-14889932D01*
X15414498Y-14889932D02*
X15395450Y-14899455D01*
X15395450Y-14899455D02*
X15338307Y-14899455D01*
X15338307Y-14899455D02*
X15319260Y-14889932D01*
X15319260Y-14889932D02*
X15309736Y-14880408D01*
X15509736Y-14718503D02*
X15519260Y-14708979D01*
X15519260Y-14708979D02*
X15538307Y-14699455D01*
X15538307Y-14699455D02*
X15585927Y-14699455D01*
X15585927Y-14699455D02*
X15604974Y-14708979D01*
X15604974Y-14708979D02*
X15614498Y-14718503D01*
X15614498Y-14718503D02*
X15624022Y-14737551D01*
X15624022Y-14737551D02*
X15624022Y-14756598D01*
X15624022Y-14756598D02*
X15614498Y-14785170D01*
X15614498Y-14785170D02*
X15500212Y-14899455D01*
X15500212Y-14899455D02*
X15624022Y-14899455D01*
X15862117Y-14899455D02*
X15862117Y-14699455D01*
X15947831Y-14899455D02*
X15947831Y-14794693D01*
X15947831Y-14794693D02*
X15938308Y-14775646D01*
X15938308Y-14775646D02*
X15919260Y-14766122D01*
X15919260Y-14766122D02*
X15890688Y-14766122D01*
X15890688Y-14766122D02*
X15871641Y-14775646D01*
X15871641Y-14775646D02*
X15862117Y-14785170D01*
X16071641Y-14899455D02*
X16052593Y-14889932D01*
X16052593Y-14889932D02*
X16043069Y-14880408D01*
X16043069Y-14880408D02*
X16033546Y-14861360D01*
X16033546Y-14861360D02*
X16033546Y-14804217D01*
X16033546Y-14804217D02*
X16043069Y-14785170D01*
X16043069Y-14785170D02*
X16052593Y-14775646D01*
X16052593Y-14775646D02*
X16071641Y-14766122D01*
X16071641Y-14766122D02*
X16100212Y-14766122D01*
X16100212Y-14766122D02*
X16119260Y-14775646D01*
X16119260Y-14775646D02*
X16128784Y-14785170D01*
X16128784Y-14785170D02*
X16138308Y-14804217D01*
X16138308Y-14804217D02*
X16138308Y-14861360D01*
X16138308Y-14861360D02*
X16128784Y-14880408D01*
X16128784Y-14880408D02*
X16119260Y-14889932D01*
X16119260Y-14889932D02*
X16100212Y-14899455D01*
X16100212Y-14899455D02*
X16071641Y-14899455D01*
X16252593Y-14899455D02*
X16233546Y-14889932D01*
X16233546Y-14889932D02*
X16224022Y-14870884D01*
X16224022Y-14870884D02*
X16224022Y-14699455D01*
X16404974Y-14889932D02*
X16385927Y-14899455D01*
X16385927Y-14899455D02*
X16347831Y-14899455D01*
X16347831Y-14899455D02*
X16328784Y-14889932D01*
X16328784Y-14889932D02*
X16319260Y-14870884D01*
X16319260Y-14870884D02*
X16319260Y-14794693D01*
X16319260Y-14794693D02*
X16328784Y-14775646D01*
X16328784Y-14775646D02*
X16347831Y-14766122D01*
X16347831Y-14766122D02*
X16385927Y-14766122D01*
X16385927Y-14766122D02*
X16404974Y-14775646D01*
X16404974Y-14775646D02*
X16414498Y-14794693D01*
X16414498Y-14794693D02*
X16414498Y-14813741D01*
X16414498Y-14813741D02*
X16319260Y-14832789D01*
X16490689Y-14889932D02*
X16509736Y-14899455D01*
X16509736Y-14899455D02*
X16547831Y-14899455D01*
X16547831Y-14899455D02*
X16566879Y-14889932D01*
X16566879Y-14889932D02*
X16576403Y-14870884D01*
X16576403Y-14870884D02*
X16576403Y-14861360D01*
X16576403Y-14861360D02*
X16566879Y-14842312D01*
X16566879Y-14842312D02*
X16547831Y-14832789D01*
X16547831Y-14832789D02*
X16519260Y-14832789D01*
X16519260Y-14832789D02*
X16500212Y-14823265D01*
X16500212Y-14823265D02*
X16490689Y-14804217D01*
X16490689Y-14804217D02*
X16490689Y-14794693D01*
X16490689Y-14794693D02*
X16500212Y-14775646D01*
X16500212Y-14775646D02*
X16519260Y-14766122D01*
X16519260Y-14766122D02*
X16547831Y-14766122D01*
X16547831Y-14766122D02*
X16566879Y-14775646D01*
X16643070Y-14975646D02*
X16652593Y-14966122D01*
X16652593Y-14966122D02*
X16671641Y-14937551D01*
X16671641Y-14937551D02*
X16681165Y-14918503D01*
X16681165Y-14918503D02*
X16690689Y-14889932D01*
X16690689Y-14889932D02*
X16700212Y-14842312D01*
X16700212Y-14842312D02*
X16700212Y-14804217D01*
X16700212Y-14804217D02*
X16690689Y-14756598D01*
X16690689Y-14756598D02*
X16681165Y-14728027D01*
X16681165Y-14728027D02*
X16671641Y-14708979D01*
X16671641Y-14708979D02*
X16652593Y-14680408D01*
X16652593Y-14680408D02*
X16643070Y-14670884D01*
D12*
X11575530Y-15020972D02*
X11677530Y-15122972D01*
X11677530Y-15020972D02*
X11575530Y-15122972D01*
X11677530Y-15071972D02*
G75*
G02*
X11575530Y-15071972I-51000J0D01*
G01*
X11575530Y-15071972D02*
G75*
G02*
X11677530Y-15071972I51000J0D01*
G01*
D11*
X12043069Y-15163455D02*
X11928783Y-15163455D01*
X11985926Y-15163455D02*
X11985926Y-14963455D01*
X11985926Y-14963455D02*
X11966879Y-14992027D01*
X11966879Y-14992027D02*
X11947831Y-15011074D01*
X11947831Y-15011074D02*
X11928783Y-15020598D01*
X12128783Y-15144408D02*
X12138307Y-15153932D01*
X12138307Y-15153932D02*
X12128783Y-15163455D01*
X12128783Y-15163455D02*
X12119260Y-15153932D01*
X12119260Y-15153932D02*
X12128783Y-15144408D01*
X12128783Y-15144408D02*
X12128783Y-15163455D01*
X12262117Y-14963455D02*
X12281164Y-14963455D01*
X12281164Y-14963455D02*
X12300212Y-14972979D01*
X12300212Y-14972979D02*
X12309736Y-14982503D01*
X12309736Y-14982503D02*
X12319260Y-15001551D01*
X12319260Y-15001551D02*
X12328783Y-15039646D01*
X12328783Y-15039646D02*
X12328783Y-15087265D01*
X12328783Y-15087265D02*
X12319260Y-15125360D01*
X12319260Y-15125360D02*
X12309736Y-15144408D01*
X12309736Y-15144408D02*
X12300212Y-15153932D01*
X12300212Y-15153932D02*
X12281164Y-15163455D01*
X12281164Y-15163455D02*
X12262117Y-15163455D01*
X12262117Y-15163455D02*
X12243069Y-15153932D01*
X12243069Y-15153932D02*
X12233545Y-15144408D01*
X12233545Y-15144408D02*
X12224021Y-15125360D01*
X12224021Y-15125360D02*
X12214498Y-15087265D01*
X12214498Y-15087265D02*
X12214498Y-15039646D01*
X12214498Y-15039646D02*
X12224021Y-15001551D01*
X12224021Y-15001551D02*
X12233545Y-14982503D01*
X12233545Y-14982503D02*
X12243069Y-14972979D01*
X12243069Y-14972979D02*
X12262117Y-14963455D01*
X12404974Y-14982503D02*
X12414498Y-14972979D01*
X12414498Y-14972979D02*
X12433545Y-14963455D01*
X12433545Y-14963455D02*
X12481164Y-14963455D01*
X12481164Y-14963455D02*
X12500212Y-14972979D01*
X12500212Y-14972979D02*
X12509736Y-14982503D01*
X12509736Y-14982503D02*
X12519260Y-15001551D01*
X12519260Y-15001551D02*
X12519260Y-15020598D01*
X12519260Y-15020598D02*
X12509736Y-15049170D01*
X12509736Y-15049170D02*
X12395450Y-15163455D01*
X12395450Y-15163455D02*
X12519260Y-15163455D01*
X12643069Y-14963455D02*
X12662117Y-14963455D01*
X12662117Y-14963455D02*
X12681164Y-14972979D01*
X12681164Y-14972979D02*
X12690688Y-14982503D01*
X12690688Y-14982503D02*
X12700212Y-15001551D01*
X12700212Y-15001551D02*
X12709736Y-15039646D01*
X12709736Y-15039646D02*
X12709736Y-15087265D01*
X12709736Y-15087265D02*
X12700212Y-15125360D01*
X12700212Y-15125360D02*
X12690688Y-15144408D01*
X12690688Y-15144408D02*
X12681164Y-15153932D01*
X12681164Y-15153932D02*
X12662117Y-15163455D01*
X12662117Y-15163455D02*
X12643069Y-15163455D01*
X12643069Y-15163455D02*
X12624021Y-15153932D01*
X12624021Y-15153932D02*
X12614498Y-15144408D01*
X12614498Y-15144408D02*
X12604974Y-15125360D01*
X12604974Y-15125360D02*
X12595450Y-15087265D01*
X12595450Y-15087265D02*
X12595450Y-15039646D01*
X12595450Y-15039646D02*
X12604974Y-15001551D01*
X12604974Y-15001551D02*
X12614498Y-14982503D01*
X12614498Y-14982503D02*
X12624021Y-14972979D01*
X12624021Y-14972979D02*
X12643069Y-14963455D01*
X12795450Y-15163455D02*
X12795450Y-15030122D01*
X12795450Y-15049170D02*
X12804974Y-15039646D01*
X12804974Y-15039646D02*
X12824021Y-15030122D01*
X12824021Y-15030122D02*
X12852593Y-15030122D01*
X12852593Y-15030122D02*
X12871641Y-15039646D01*
X12871641Y-15039646D02*
X12881164Y-15058693D01*
X12881164Y-15058693D02*
X12881164Y-15163455D01*
X12881164Y-15058693D02*
X12890688Y-15039646D01*
X12890688Y-15039646D02*
X12909736Y-15030122D01*
X12909736Y-15030122D02*
X12938307Y-15030122D01*
X12938307Y-15030122D02*
X12957355Y-15039646D01*
X12957355Y-15039646D02*
X12966879Y-15058693D01*
X12966879Y-15058693D02*
X12966879Y-15163455D01*
X13062117Y-15163455D02*
X13062117Y-15030122D01*
X13062117Y-15049170D02*
X13071641Y-15039646D01*
X13071641Y-15039646D02*
X13090688Y-15030122D01*
X13090688Y-15030122D02*
X13119260Y-15030122D01*
X13119260Y-15030122D02*
X13138307Y-15039646D01*
X13138307Y-15039646D02*
X13147831Y-15058693D01*
X13147831Y-15058693D02*
X13147831Y-15163455D01*
X13147831Y-15058693D02*
X13157355Y-15039646D01*
X13157355Y-15039646D02*
X13176402Y-15030122D01*
X13176402Y-15030122D02*
X13204974Y-15030122D01*
X13204974Y-15030122D02*
X13224022Y-15039646D01*
X13224022Y-15039646D02*
X13233545Y-15058693D01*
X13233545Y-15058693D02*
X13233545Y-15163455D01*
X13624022Y-14953932D02*
X13452593Y-15211074D01*
X13881164Y-14963455D02*
X13900212Y-14963455D01*
X13900212Y-14963455D02*
X13919260Y-14972979D01*
X13919260Y-14972979D02*
X13928784Y-14982503D01*
X13928784Y-14982503D02*
X13938307Y-15001551D01*
X13938307Y-15001551D02*
X13947831Y-15039646D01*
X13947831Y-15039646D02*
X13947831Y-15087265D01*
X13947831Y-15087265D02*
X13938307Y-15125360D01*
X13938307Y-15125360D02*
X13928784Y-15144408D01*
X13928784Y-15144408D02*
X13919260Y-15153932D01*
X13919260Y-15153932D02*
X13900212Y-15163455D01*
X13900212Y-15163455D02*
X13881164Y-15163455D01*
X13881164Y-15163455D02*
X13862117Y-15153932D01*
X13862117Y-15153932D02*
X13852593Y-15144408D01*
X13852593Y-15144408D02*
X13843069Y-15125360D01*
X13843069Y-15125360D02*
X13833545Y-15087265D01*
X13833545Y-15087265D02*
X13833545Y-15039646D01*
X13833545Y-15039646D02*
X13843069Y-15001551D01*
X13843069Y-15001551D02*
X13852593Y-14982503D01*
X13852593Y-14982503D02*
X13862117Y-14972979D01*
X13862117Y-14972979D02*
X13881164Y-14963455D01*
X14033545Y-15144408D02*
X14043069Y-15153932D01*
X14043069Y-15153932D02*
X14033545Y-15163455D01*
X14033545Y-15163455D02*
X14024022Y-15153932D01*
X14024022Y-15153932D02*
X14033545Y-15144408D01*
X14033545Y-15144408D02*
X14033545Y-15163455D01*
X14166879Y-14963455D02*
X14185926Y-14963455D01*
X14185926Y-14963455D02*
X14204974Y-14972979D01*
X14204974Y-14972979D02*
X14214498Y-14982503D01*
X14214498Y-14982503D02*
X14224022Y-15001551D01*
X14224022Y-15001551D02*
X14233545Y-15039646D01*
X14233545Y-15039646D02*
X14233545Y-15087265D01*
X14233545Y-15087265D02*
X14224022Y-15125360D01*
X14224022Y-15125360D02*
X14214498Y-15144408D01*
X14214498Y-15144408D02*
X14204974Y-15153932D01*
X14204974Y-15153932D02*
X14185926Y-15163455D01*
X14185926Y-15163455D02*
X14166879Y-15163455D01*
X14166879Y-15163455D02*
X14147831Y-15153932D01*
X14147831Y-15153932D02*
X14138307Y-15144408D01*
X14138307Y-15144408D02*
X14128784Y-15125360D01*
X14128784Y-15125360D02*
X14119260Y-15087265D01*
X14119260Y-15087265D02*
X14119260Y-15039646D01*
X14119260Y-15039646D02*
X14128784Y-15001551D01*
X14128784Y-15001551D02*
X14138307Y-14982503D01*
X14138307Y-14982503D02*
X14147831Y-14972979D01*
X14147831Y-14972979D02*
X14166879Y-14963455D01*
X14404974Y-15030122D02*
X14404974Y-15163455D01*
X14357355Y-14953932D02*
X14309736Y-15096789D01*
X14309736Y-15096789D02*
X14433545Y-15096789D01*
X14547831Y-14963455D02*
X14566879Y-14963455D01*
X14566879Y-14963455D02*
X14585926Y-14972979D01*
X14585926Y-14972979D02*
X14595450Y-14982503D01*
X14595450Y-14982503D02*
X14604974Y-15001551D01*
X14604974Y-15001551D02*
X14614498Y-15039646D01*
X14614498Y-15039646D02*
X14614498Y-15087265D01*
X14614498Y-15087265D02*
X14604974Y-15125360D01*
X14604974Y-15125360D02*
X14595450Y-15144408D01*
X14595450Y-15144408D02*
X14585926Y-15153932D01*
X14585926Y-15153932D02*
X14566879Y-15163455D01*
X14566879Y-15163455D02*
X14547831Y-15163455D01*
X14547831Y-15163455D02*
X14528784Y-15153932D01*
X14528784Y-15153932D02*
X14519260Y-15144408D01*
X14519260Y-15144408D02*
X14509736Y-15125360D01*
X14509736Y-15125360D02*
X14500212Y-15087265D01*
X14500212Y-15087265D02*
X14500212Y-15039646D01*
X14500212Y-15039646D02*
X14509736Y-15001551D01*
X14509736Y-15001551D02*
X14519260Y-14982503D01*
X14519260Y-14982503D02*
X14528784Y-14972979D01*
X14528784Y-14972979D02*
X14547831Y-14963455D01*
X14690688Y-14982503D02*
X14700212Y-14972979D01*
X14700212Y-14972979D02*
X14719260Y-14963455D01*
X14719260Y-14963455D02*
X14766879Y-14963455D01*
X14766879Y-14963455D02*
X14785926Y-14972979D01*
X14785926Y-14972979D02*
X14795450Y-14982503D01*
X14795450Y-14982503D02*
X14804974Y-15001551D01*
X14804974Y-15001551D02*
X14804974Y-15020598D01*
X14804974Y-15020598D02*
X14795450Y-15049170D01*
X14795450Y-15049170D02*
X14681165Y-15163455D01*
X14681165Y-15163455D02*
X14804974Y-15163455D01*
X14881165Y-14963455D02*
X14881165Y-15001551D01*
X14957355Y-14963455D02*
X14957355Y-15001551D01*
X15252593Y-15239646D02*
X15243069Y-15230122D01*
X15243069Y-15230122D02*
X15224022Y-15201551D01*
X15224022Y-15201551D02*
X15214498Y-15182503D01*
X15214498Y-15182503D02*
X15204974Y-15153932D01*
X15204974Y-15153932D02*
X15195450Y-15106312D01*
X15195450Y-15106312D02*
X15195450Y-15068217D01*
X15195450Y-15068217D02*
X15204974Y-15020598D01*
X15204974Y-15020598D02*
X15214498Y-14992027D01*
X15214498Y-14992027D02*
X15224022Y-14972979D01*
X15224022Y-14972979D02*
X15243069Y-14944408D01*
X15243069Y-14944408D02*
X15252593Y-14934884D01*
X15319260Y-14982503D02*
X15328784Y-14972979D01*
X15328784Y-14972979D02*
X15347831Y-14963455D01*
X15347831Y-14963455D02*
X15395450Y-14963455D01*
X15395450Y-14963455D02*
X15414498Y-14972979D01*
X15414498Y-14972979D02*
X15424022Y-14982503D01*
X15424022Y-14982503D02*
X15433546Y-15001551D01*
X15433546Y-15001551D02*
X15433546Y-15020598D01*
X15433546Y-15020598D02*
X15424022Y-15049170D01*
X15424022Y-15049170D02*
X15309736Y-15163455D01*
X15309736Y-15163455D02*
X15433546Y-15163455D01*
X15614498Y-14963455D02*
X15519260Y-14963455D01*
X15519260Y-14963455D02*
X15509736Y-15058693D01*
X15509736Y-15058693D02*
X15519260Y-15049170D01*
X15519260Y-15049170D02*
X15538307Y-15039646D01*
X15538307Y-15039646D02*
X15585927Y-15039646D01*
X15585927Y-15039646D02*
X15604974Y-15049170D01*
X15604974Y-15049170D02*
X15614498Y-15058693D01*
X15614498Y-15058693D02*
X15624022Y-15077741D01*
X15624022Y-15077741D02*
X15624022Y-15125360D01*
X15624022Y-15125360D02*
X15614498Y-15144408D01*
X15614498Y-15144408D02*
X15604974Y-15153932D01*
X15604974Y-15153932D02*
X15585927Y-15163455D01*
X15585927Y-15163455D02*
X15538307Y-15163455D01*
X15538307Y-15163455D02*
X15519260Y-15153932D01*
X15519260Y-15153932D02*
X15509736Y-15144408D01*
X15862117Y-15163455D02*
X15862117Y-14963455D01*
X15947831Y-15163455D02*
X15947831Y-15058693D01*
X15947831Y-15058693D02*
X15938308Y-15039646D01*
X15938308Y-15039646D02*
X15919260Y-15030122D01*
X15919260Y-15030122D02*
X15890688Y-15030122D01*
X15890688Y-15030122D02*
X15871641Y-15039646D01*
X15871641Y-15039646D02*
X15862117Y-15049170D01*
X16071641Y-15163455D02*
X16052593Y-15153932D01*
X16052593Y-15153932D02*
X16043069Y-15144408D01*
X16043069Y-15144408D02*
X16033546Y-15125360D01*
X16033546Y-15125360D02*
X16033546Y-15068217D01*
X16033546Y-15068217D02*
X16043069Y-15049170D01*
X16043069Y-15049170D02*
X16052593Y-15039646D01*
X16052593Y-15039646D02*
X16071641Y-15030122D01*
X16071641Y-15030122D02*
X16100212Y-15030122D01*
X16100212Y-15030122D02*
X16119260Y-15039646D01*
X16119260Y-15039646D02*
X16128784Y-15049170D01*
X16128784Y-15049170D02*
X16138308Y-15068217D01*
X16138308Y-15068217D02*
X16138308Y-15125360D01*
X16138308Y-15125360D02*
X16128784Y-15144408D01*
X16128784Y-15144408D02*
X16119260Y-15153932D01*
X16119260Y-15153932D02*
X16100212Y-15163455D01*
X16100212Y-15163455D02*
X16071641Y-15163455D01*
X16252593Y-15163455D02*
X16233546Y-15153932D01*
X16233546Y-15153932D02*
X16224022Y-15134884D01*
X16224022Y-15134884D02*
X16224022Y-14963455D01*
X16404974Y-15153932D02*
X16385927Y-15163455D01*
X16385927Y-15163455D02*
X16347831Y-15163455D01*
X16347831Y-15163455D02*
X16328784Y-15153932D01*
X16328784Y-15153932D02*
X16319260Y-15134884D01*
X16319260Y-15134884D02*
X16319260Y-15058693D01*
X16319260Y-15058693D02*
X16328784Y-15039646D01*
X16328784Y-15039646D02*
X16347831Y-15030122D01*
X16347831Y-15030122D02*
X16385927Y-15030122D01*
X16385927Y-15030122D02*
X16404974Y-15039646D01*
X16404974Y-15039646D02*
X16414498Y-15058693D01*
X16414498Y-15058693D02*
X16414498Y-15077741D01*
X16414498Y-15077741D02*
X16319260Y-15096789D01*
X16490689Y-15153932D02*
X16509736Y-15163455D01*
X16509736Y-15163455D02*
X16547831Y-15163455D01*
X16547831Y-15163455D02*
X16566879Y-15153932D01*
X16566879Y-15153932D02*
X16576403Y-15134884D01*
X16576403Y-15134884D02*
X16576403Y-15125360D01*
X16576403Y-15125360D02*
X16566879Y-15106312D01*
X16566879Y-15106312D02*
X16547831Y-15096789D01*
X16547831Y-15096789D02*
X16519260Y-15096789D01*
X16519260Y-15096789D02*
X16500212Y-15087265D01*
X16500212Y-15087265D02*
X16490689Y-15068217D01*
X16490689Y-15068217D02*
X16490689Y-15058693D01*
X16490689Y-15058693D02*
X16500212Y-15039646D01*
X16500212Y-15039646D02*
X16519260Y-15030122D01*
X16519260Y-15030122D02*
X16547831Y-15030122D01*
X16547831Y-15030122D02*
X16566879Y-15039646D01*
X16643070Y-15239646D02*
X16652593Y-15230122D01*
X16652593Y-15230122D02*
X16671641Y-15201551D01*
X16671641Y-15201551D02*
X16681165Y-15182503D01*
X16681165Y-15182503D02*
X16690689Y-15153932D01*
X16690689Y-15153932D02*
X16700212Y-15106312D01*
X16700212Y-15106312D02*
X16700212Y-15068217D01*
X16700212Y-15068217D02*
X16690689Y-15020598D01*
X16690689Y-15020598D02*
X16681165Y-14992027D01*
X16681165Y-14992027D02*
X16671641Y-14972979D01*
X16671641Y-14972979D02*
X16652593Y-14944408D01*
X16652593Y-14944408D02*
X16643070Y-14934884D01*
D13*
X11567530Y-15280972D02*
X11677530Y-15390972D01*
X11677530Y-15280972D02*
X11567530Y-15390972D01*
X11622530Y-15280972D02*
X11622530Y-15390972D01*
X11567530Y-15335972D02*
X11677530Y-15335972D01*
D11*
X12043069Y-15427455D02*
X11928783Y-15427455D01*
X11985926Y-15427455D02*
X11985926Y-15227455D01*
X11985926Y-15227455D02*
X11966879Y-15256027D01*
X11966879Y-15256027D02*
X11947831Y-15275074D01*
X11947831Y-15275074D02*
X11928783Y-15284598D01*
X12128783Y-15408408D02*
X12138307Y-15417932D01*
X12138307Y-15417932D02*
X12128783Y-15427455D01*
X12128783Y-15427455D02*
X12119260Y-15417932D01*
X12119260Y-15417932D02*
X12128783Y-15408408D01*
X12128783Y-15408408D02*
X12128783Y-15427455D01*
X12328783Y-15427455D02*
X12214498Y-15427455D01*
X12271640Y-15427455D02*
X12271640Y-15227455D01*
X12271640Y-15227455D02*
X12252593Y-15256027D01*
X12252593Y-15256027D02*
X12233545Y-15275074D01*
X12233545Y-15275074D02*
X12214498Y-15284598D01*
X12452593Y-15227455D02*
X12471641Y-15227455D01*
X12471641Y-15227455D02*
X12490688Y-15236979D01*
X12490688Y-15236979D02*
X12500212Y-15246503D01*
X12500212Y-15246503D02*
X12509736Y-15265551D01*
X12509736Y-15265551D02*
X12519260Y-15303646D01*
X12519260Y-15303646D02*
X12519260Y-15351265D01*
X12519260Y-15351265D02*
X12509736Y-15389360D01*
X12509736Y-15389360D02*
X12500212Y-15408408D01*
X12500212Y-15408408D02*
X12490688Y-15417932D01*
X12490688Y-15417932D02*
X12471641Y-15427455D01*
X12471641Y-15427455D02*
X12452593Y-15427455D01*
X12452593Y-15427455D02*
X12433545Y-15417932D01*
X12433545Y-15417932D02*
X12424021Y-15408408D01*
X12424021Y-15408408D02*
X12414498Y-15389360D01*
X12414498Y-15389360D02*
X12404974Y-15351265D01*
X12404974Y-15351265D02*
X12404974Y-15303646D01*
X12404974Y-15303646D02*
X12414498Y-15265551D01*
X12414498Y-15265551D02*
X12424021Y-15246503D01*
X12424021Y-15246503D02*
X12433545Y-15236979D01*
X12433545Y-15236979D02*
X12452593Y-15227455D01*
X12643069Y-15227455D02*
X12662117Y-15227455D01*
X12662117Y-15227455D02*
X12681164Y-15236979D01*
X12681164Y-15236979D02*
X12690688Y-15246503D01*
X12690688Y-15246503D02*
X12700212Y-15265551D01*
X12700212Y-15265551D02*
X12709736Y-15303646D01*
X12709736Y-15303646D02*
X12709736Y-15351265D01*
X12709736Y-15351265D02*
X12700212Y-15389360D01*
X12700212Y-15389360D02*
X12690688Y-15408408D01*
X12690688Y-15408408D02*
X12681164Y-15417932D01*
X12681164Y-15417932D02*
X12662117Y-15427455D01*
X12662117Y-15427455D02*
X12643069Y-15427455D01*
X12643069Y-15427455D02*
X12624021Y-15417932D01*
X12624021Y-15417932D02*
X12614498Y-15408408D01*
X12614498Y-15408408D02*
X12604974Y-15389360D01*
X12604974Y-15389360D02*
X12595450Y-15351265D01*
X12595450Y-15351265D02*
X12595450Y-15303646D01*
X12595450Y-15303646D02*
X12604974Y-15265551D01*
X12604974Y-15265551D02*
X12614498Y-15246503D01*
X12614498Y-15246503D02*
X12624021Y-15236979D01*
X12624021Y-15236979D02*
X12643069Y-15227455D01*
X12795450Y-15427455D02*
X12795450Y-15294122D01*
X12795450Y-15313170D02*
X12804974Y-15303646D01*
X12804974Y-15303646D02*
X12824021Y-15294122D01*
X12824021Y-15294122D02*
X12852593Y-15294122D01*
X12852593Y-15294122D02*
X12871641Y-15303646D01*
X12871641Y-15303646D02*
X12881164Y-15322693D01*
X12881164Y-15322693D02*
X12881164Y-15427455D01*
X12881164Y-15322693D02*
X12890688Y-15303646D01*
X12890688Y-15303646D02*
X12909736Y-15294122D01*
X12909736Y-15294122D02*
X12938307Y-15294122D01*
X12938307Y-15294122D02*
X12957355Y-15303646D01*
X12957355Y-15303646D02*
X12966879Y-15322693D01*
X12966879Y-15322693D02*
X12966879Y-15427455D01*
X13062117Y-15427455D02*
X13062117Y-15294122D01*
X13062117Y-15313170D02*
X13071641Y-15303646D01*
X13071641Y-15303646D02*
X13090688Y-15294122D01*
X13090688Y-15294122D02*
X13119260Y-15294122D01*
X13119260Y-15294122D02*
X13138307Y-15303646D01*
X13138307Y-15303646D02*
X13147831Y-15322693D01*
X13147831Y-15322693D02*
X13147831Y-15427455D01*
X13147831Y-15322693D02*
X13157355Y-15303646D01*
X13157355Y-15303646D02*
X13176402Y-15294122D01*
X13176402Y-15294122D02*
X13204974Y-15294122D01*
X13204974Y-15294122D02*
X13224022Y-15303646D01*
X13224022Y-15303646D02*
X13233545Y-15322693D01*
X13233545Y-15322693D02*
X13233545Y-15427455D01*
X13624022Y-15217932D02*
X13452593Y-15475074D01*
X13881164Y-15227455D02*
X13900212Y-15227455D01*
X13900212Y-15227455D02*
X13919260Y-15236979D01*
X13919260Y-15236979D02*
X13928784Y-15246503D01*
X13928784Y-15246503D02*
X13938307Y-15265551D01*
X13938307Y-15265551D02*
X13947831Y-15303646D01*
X13947831Y-15303646D02*
X13947831Y-15351265D01*
X13947831Y-15351265D02*
X13938307Y-15389360D01*
X13938307Y-15389360D02*
X13928784Y-15408408D01*
X13928784Y-15408408D02*
X13919260Y-15417932D01*
X13919260Y-15417932D02*
X13900212Y-15427455D01*
X13900212Y-15427455D02*
X13881164Y-15427455D01*
X13881164Y-15427455D02*
X13862117Y-15417932D01*
X13862117Y-15417932D02*
X13852593Y-15408408D01*
X13852593Y-15408408D02*
X13843069Y-15389360D01*
X13843069Y-15389360D02*
X13833545Y-15351265D01*
X13833545Y-15351265D02*
X13833545Y-15303646D01*
X13833545Y-15303646D02*
X13843069Y-15265551D01*
X13843069Y-15265551D02*
X13852593Y-15246503D01*
X13852593Y-15246503D02*
X13862117Y-15236979D01*
X13862117Y-15236979D02*
X13881164Y-15227455D01*
X14033545Y-15408408D02*
X14043069Y-15417932D01*
X14043069Y-15417932D02*
X14033545Y-15427455D01*
X14033545Y-15427455D02*
X14024022Y-15417932D01*
X14024022Y-15417932D02*
X14033545Y-15408408D01*
X14033545Y-15408408D02*
X14033545Y-15427455D01*
X14166879Y-15227455D02*
X14185926Y-15227455D01*
X14185926Y-15227455D02*
X14204974Y-15236979D01*
X14204974Y-15236979D02*
X14214498Y-15246503D01*
X14214498Y-15246503D02*
X14224022Y-15265551D01*
X14224022Y-15265551D02*
X14233545Y-15303646D01*
X14233545Y-15303646D02*
X14233545Y-15351265D01*
X14233545Y-15351265D02*
X14224022Y-15389360D01*
X14224022Y-15389360D02*
X14214498Y-15408408D01*
X14214498Y-15408408D02*
X14204974Y-15417932D01*
X14204974Y-15417932D02*
X14185926Y-15427455D01*
X14185926Y-15427455D02*
X14166879Y-15427455D01*
X14166879Y-15427455D02*
X14147831Y-15417932D01*
X14147831Y-15417932D02*
X14138307Y-15408408D01*
X14138307Y-15408408D02*
X14128784Y-15389360D01*
X14128784Y-15389360D02*
X14119260Y-15351265D01*
X14119260Y-15351265D02*
X14119260Y-15303646D01*
X14119260Y-15303646D02*
X14128784Y-15265551D01*
X14128784Y-15265551D02*
X14138307Y-15246503D01*
X14138307Y-15246503D02*
X14147831Y-15236979D01*
X14147831Y-15236979D02*
X14166879Y-15227455D01*
X14404974Y-15294122D02*
X14404974Y-15427455D01*
X14357355Y-15217932D02*
X14309736Y-15360789D01*
X14309736Y-15360789D02*
X14433545Y-15360789D01*
X14490688Y-15227455D02*
X14614498Y-15227455D01*
X14614498Y-15227455D02*
X14547831Y-15303646D01*
X14547831Y-15303646D02*
X14576403Y-15303646D01*
X14576403Y-15303646D02*
X14595450Y-15313170D01*
X14595450Y-15313170D02*
X14604974Y-15322693D01*
X14604974Y-15322693D02*
X14614498Y-15341741D01*
X14614498Y-15341741D02*
X14614498Y-15389360D01*
X14614498Y-15389360D02*
X14604974Y-15408408D01*
X14604974Y-15408408D02*
X14595450Y-15417932D01*
X14595450Y-15417932D02*
X14576403Y-15427455D01*
X14576403Y-15427455D02*
X14519260Y-15427455D01*
X14519260Y-15427455D02*
X14500212Y-15417932D01*
X14500212Y-15417932D02*
X14490688Y-15408408D01*
X14681165Y-15227455D02*
X14804974Y-15227455D01*
X14804974Y-15227455D02*
X14738307Y-15303646D01*
X14738307Y-15303646D02*
X14766879Y-15303646D01*
X14766879Y-15303646D02*
X14785926Y-15313170D01*
X14785926Y-15313170D02*
X14795450Y-15322693D01*
X14795450Y-15322693D02*
X14804974Y-15341741D01*
X14804974Y-15341741D02*
X14804974Y-15389360D01*
X14804974Y-15389360D02*
X14795450Y-15408408D01*
X14795450Y-15408408D02*
X14785926Y-15417932D01*
X14785926Y-15417932D02*
X14766879Y-15427455D01*
X14766879Y-15427455D02*
X14709736Y-15427455D01*
X14709736Y-15427455D02*
X14690688Y-15417932D01*
X14690688Y-15417932D02*
X14681165Y-15408408D01*
X14881165Y-15227455D02*
X14881165Y-15265551D01*
X14957355Y-15227455D02*
X14957355Y-15265551D01*
X15252593Y-15503646D02*
X15243069Y-15494122D01*
X15243069Y-15494122D02*
X15224022Y-15465551D01*
X15224022Y-15465551D02*
X15214498Y-15446503D01*
X15214498Y-15446503D02*
X15204974Y-15417932D01*
X15204974Y-15417932D02*
X15195450Y-15370312D01*
X15195450Y-15370312D02*
X15195450Y-15332217D01*
X15195450Y-15332217D02*
X15204974Y-15284598D01*
X15204974Y-15284598D02*
X15214498Y-15256027D01*
X15214498Y-15256027D02*
X15224022Y-15236979D01*
X15224022Y-15236979D02*
X15243069Y-15208408D01*
X15243069Y-15208408D02*
X15252593Y-15198884D01*
X15309736Y-15227455D02*
X15433546Y-15227455D01*
X15433546Y-15227455D02*
X15366879Y-15303646D01*
X15366879Y-15303646D02*
X15395450Y-15303646D01*
X15395450Y-15303646D02*
X15414498Y-15313170D01*
X15414498Y-15313170D02*
X15424022Y-15322693D01*
X15424022Y-15322693D02*
X15433546Y-15341741D01*
X15433546Y-15341741D02*
X15433546Y-15389360D01*
X15433546Y-15389360D02*
X15424022Y-15408408D01*
X15424022Y-15408408D02*
X15414498Y-15417932D01*
X15414498Y-15417932D02*
X15395450Y-15427455D01*
X15395450Y-15427455D02*
X15338307Y-15427455D01*
X15338307Y-15427455D02*
X15319260Y-15417932D01*
X15319260Y-15417932D02*
X15309736Y-15408408D01*
X15671641Y-15427455D02*
X15671641Y-15227455D01*
X15757355Y-15427455D02*
X15757355Y-15322693D01*
X15757355Y-15322693D02*
X15747831Y-15303646D01*
X15747831Y-15303646D02*
X15728784Y-15294122D01*
X15728784Y-15294122D02*
X15700212Y-15294122D01*
X15700212Y-15294122D02*
X15681165Y-15303646D01*
X15681165Y-15303646D02*
X15671641Y-15313170D01*
X15881165Y-15427455D02*
X15862117Y-15417932D01*
X15862117Y-15417932D02*
X15852593Y-15408408D01*
X15852593Y-15408408D02*
X15843069Y-15389360D01*
X15843069Y-15389360D02*
X15843069Y-15332217D01*
X15843069Y-15332217D02*
X15852593Y-15313170D01*
X15852593Y-15313170D02*
X15862117Y-15303646D01*
X15862117Y-15303646D02*
X15881165Y-15294122D01*
X15881165Y-15294122D02*
X15909736Y-15294122D01*
X15909736Y-15294122D02*
X15928784Y-15303646D01*
X15928784Y-15303646D02*
X15938308Y-15313170D01*
X15938308Y-15313170D02*
X15947831Y-15332217D01*
X15947831Y-15332217D02*
X15947831Y-15389360D01*
X15947831Y-15389360D02*
X15938308Y-15408408D01*
X15938308Y-15408408D02*
X15928784Y-15417932D01*
X15928784Y-15417932D02*
X15909736Y-15427455D01*
X15909736Y-15427455D02*
X15881165Y-15427455D01*
X16062117Y-15427455D02*
X16043069Y-15417932D01*
X16043069Y-15417932D02*
X16033546Y-15398884D01*
X16033546Y-15398884D02*
X16033546Y-15227455D01*
X16214498Y-15417932D02*
X16195450Y-15427455D01*
X16195450Y-15427455D02*
X16157355Y-15427455D01*
X16157355Y-15427455D02*
X16138308Y-15417932D01*
X16138308Y-15417932D02*
X16128784Y-15398884D01*
X16128784Y-15398884D02*
X16128784Y-15322693D01*
X16128784Y-15322693D02*
X16138308Y-15303646D01*
X16138308Y-15303646D02*
X16157355Y-15294122D01*
X16157355Y-15294122D02*
X16195450Y-15294122D01*
X16195450Y-15294122D02*
X16214498Y-15303646D01*
X16214498Y-15303646D02*
X16224022Y-15322693D01*
X16224022Y-15322693D02*
X16224022Y-15341741D01*
X16224022Y-15341741D02*
X16128784Y-15360789D01*
X16300212Y-15417932D02*
X16319260Y-15427455D01*
X16319260Y-15427455D02*
X16357355Y-15427455D01*
X16357355Y-15427455D02*
X16376403Y-15417932D01*
X16376403Y-15417932D02*
X16385927Y-15398884D01*
X16385927Y-15398884D02*
X16385927Y-15389360D01*
X16385927Y-15389360D02*
X16376403Y-15370312D01*
X16376403Y-15370312D02*
X16357355Y-15360789D01*
X16357355Y-15360789D02*
X16328784Y-15360789D01*
X16328784Y-15360789D02*
X16309736Y-15351265D01*
X16309736Y-15351265D02*
X16300212Y-15332217D01*
X16300212Y-15332217D02*
X16300212Y-15322693D01*
X16300212Y-15322693D02*
X16309736Y-15303646D01*
X16309736Y-15303646D02*
X16328784Y-15294122D01*
X16328784Y-15294122D02*
X16357355Y-15294122D01*
X16357355Y-15294122D02*
X16376403Y-15303646D01*
X16452593Y-15503646D02*
X16462117Y-15494122D01*
X16462117Y-15494122D02*
X16481165Y-15465551D01*
X16481165Y-15465551D02*
X16490689Y-15446503D01*
X16490689Y-15446503D02*
X16500212Y-15417932D01*
X16500212Y-15417932D02*
X16509736Y-15370312D01*
X16509736Y-15370312D02*
X16509736Y-15332217D01*
X16509736Y-15332217D02*
X16500212Y-15284598D01*
X16500212Y-15284598D02*
X16490689Y-15256027D01*
X16490689Y-15256027D02*
X16481165Y-15236979D01*
X16481165Y-15236979D02*
X16462117Y-15208408D01*
X16462117Y-15208408D02*
X16452593Y-15198884D01*
M02*
