%TF.GenerationSoftware,KiCad,Pcbnew,9.0.9-9.0.9~ubuntu24.04.1*%
%TF.CreationDate,2026-07-09T23:06:31+02:00*%
%TF.ProjectId,MicroPicoDrive,4d696372-6f50-4696-936f-44726976652e,1.4.h*%
%TF.SameCoordinates,Original*%
%TF.FileFunction,Drillmap*%
%TF.FilePolarity,Positive*%
%FSLAX45Y45*%
G04 Gerber Fmt 4.5, Leading zero omitted, Abs format (unit mm)*
G04 Created by KiCad (PCBNEW 9.0.9-9.0.9~ubuntu24.04.1) date 2026-07-09 23:06:31*
%MOMM*%
%LPD*%
G01*
G04 APERTURE LIST*
%ADD10C,0.100000*%
%ADD11C,0.200000*%
%ADD12C,0.150000*%
%ADD13C,0.180000*%
%ADD14C,0.350000*%
G04 APERTURE END LIST*
D10*
X11682530Y-8446295D02*
X11684969Y-12557009D01*
X11682530Y-8446295D02*
G75*
G02*
X11707163Y-8350023I200000J115D01*
G01*
X11711266Y-12656023D02*
G75*
G02*
X11684969Y-12557009I173704J99134D01*
G01*
X11909957Y-13004173D02*
X11711266Y-12656023D01*
X12083591Y-13105040D02*
G75*
G02*
X11909957Y-13004173I69J200000D01*
G01*
X12083591Y-13105040D02*
X17713617Y-13106972D01*
X12108062Y-7618846D02*
X11707161Y-8350022D01*
X12108062Y-7618846D02*
G75*
G02*
X12283431Y-7515001I175368J-96154D01*
G01*
X12283431Y-7515000D02*
X17689900Y-7500597D01*
X15219000Y-7913250D02*
X15406000Y-7913250D01*
X15406000Y-8154250D01*
X15219000Y-8154250D01*
X15219000Y-7913250D01*
X17395000Y-7916500D02*
X17587000Y-7916500D01*
X17587000Y-8150000D01*
X17395000Y-8150000D01*
X17395000Y-7916500D01*
X17689900Y-7500597D02*
G75*
G02*
X17855324Y-7549798I801J-300003D01*
G01*
X17855107Y-13048393D02*
G75*
G02*
X17713617Y-13106969I-141427J141443D01*
G01*
X17855107Y-13048393D02*
X17937860Y-12965640D01*
X17855323Y-7549800D02*
X17857479Y-7551214D01*
X17857479Y-7551214D02*
G75*
G02*
X17992855Y-7801797I-164639J-250806D01*
G01*
X17992854Y-7801797D02*
X17996439Y-12824070D01*
X17996439Y-12824070D02*
G75*
G02*
X17937860Y-12965640I-199999J-150D01*
G01*
D11*
D12*
X11971000Y-12845000D02*
X12121000Y-12995000D01*
X12121000Y-12845000D02*
X11971000Y-12995000D01*
X12138000Y-9329500D02*
X12288000Y-9479500D01*
X12288000Y-9329500D02*
X12138000Y-9479500D01*
X12138000Y-9814500D02*
X12288000Y-9964500D01*
X12288000Y-9814500D02*
X12138000Y-9964500D01*
X12223000Y-7588000D02*
X12373000Y-7738000D01*
X12373000Y-7588000D02*
X12223000Y-7738000D01*
X17734000Y-12850000D02*
X17884000Y-13000000D01*
X17884000Y-12850000D02*
X17734000Y-13000000D01*
X17738000Y-7584000D02*
X17888000Y-7734000D01*
X17888000Y-7584000D02*
X17738000Y-7734000D01*
D13*
X12000000Y-9374500D02*
G75*
G02*
X11820000Y-9374500I-90000J0D01*
G01*
X11820000Y-9374500D02*
G75*
G02*
X12000000Y-9374500I90000J0D01*
G01*
X12000000Y-9919500D02*
G75*
G02*
X11820000Y-9919500I-90000J0D01*
G01*
X11820000Y-9919500D02*
G75*
G02*
X12000000Y-9919500I90000J0D01*
G01*
D14*
X12564500Y-12395000D02*
X12564500Y-12745000D01*
X12389500Y-12570000D02*
X12739500Y-12570000D01*
X17210000Y-9037500D02*
X17210000Y-9387500D01*
X17035000Y-9212500D02*
X17385000Y-9212500D01*
D11*
X11938307Y-13423455D02*
X11938307Y-13223455D01*
X11938307Y-13223455D02*
X11985926Y-13223455D01*
X11985926Y-13223455D02*
X12014498Y-13232979D01*
X12014498Y-13232979D02*
X12033545Y-13252027D01*
X12033545Y-13252027D02*
X12043069Y-13271074D01*
X12043069Y-13271074D02*
X12052593Y-13309170D01*
X12052593Y-13309170D02*
X12052593Y-13337741D01*
X12052593Y-13337741D02*
X12043069Y-13375836D01*
X12043069Y-13375836D02*
X12033545Y-13394884D01*
X12033545Y-13394884D02*
X12014498Y-13413932D01*
X12014498Y-13413932D02*
X11985926Y-13423455D01*
X11985926Y-13423455D02*
X11938307Y-13423455D01*
X12138307Y-13423455D02*
X12138307Y-13290122D01*
X12138307Y-13328217D02*
X12147831Y-13309170D01*
X12147831Y-13309170D02*
X12157355Y-13299646D01*
X12157355Y-13299646D02*
X12176402Y-13290122D01*
X12176402Y-13290122D02*
X12195450Y-13290122D01*
X12262117Y-13423455D02*
X12262117Y-13290122D01*
X12262117Y-13223455D02*
X12252593Y-13232979D01*
X12252593Y-13232979D02*
X12262117Y-13242503D01*
X12262117Y-13242503D02*
X12271640Y-13232979D01*
X12271640Y-13232979D02*
X12262117Y-13223455D01*
X12262117Y-13223455D02*
X12262117Y-13242503D01*
X12385926Y-13423455D02*
X12366879Y-13413932D01*
X12366879Y-13413932D02*
X12357355Y-13394884D01*
X12357355Y-13394884D02*
X12357355Y-13223455D01*
X12490688Y-13423455D02*
X12471640Y-13413932D01*
X12471640Y-13413932D02*
X12462117Y-13394884D01*
X12462117Y-13394884D02*
X12462117Y-13223455D01*
X12719260Y-13423455D02*
X12719260Y-13223455D01*
X12719260Y-13223455D02*
X12785926Y-13366312D01*
X12785926Y-13366312D02*
X12852593Y-13223455D01*
X12852593Y-13223455D02*
X12852593Y-13423455D01*
X13033545Y-13423455D02*
X13033545Y-13318693D01*
X13033545Y-13318693D02*
X13024021Y-13299646D01*
X13024021Y-13299646D02*
X13004974Y-13290122D01*
X13004974Y-13290122D02*
X12966879Y-13290122D01*
X12966879Y-13290122D02*
X12947831Y-13299646D01*
X13033545Y-13413932D02*
X13014498Y-13423455D01*
X13014498Y-13423455D02*
X12966879Y-13423455D01*
X12966879Y-13423455D02*
X12947831Y-13413932D01*
X12947831Y-13413932D02*
X12938307Y-13394884D01*
X12938307Y-13394884D02*
X12938307Y-13375836D01*
X12938307Y-13375836D02*
X12947831Y-13356789D01*
X12947831Y-13356789D02*
X12966879Y-13347265D01*
X12966879Y-13347265D02*
X13014498Y-13347265D01*
X13014498Y-13347265D02*
X13033545Y-13337741D01*
X13128783Y-13290122D02*
X13128783Y-13490122D01*
X13128783Y-13299646D02*
X13147831Y-13290122D01*
X13147831Y-13290122D02*
X13185926Y-13290122D01*
X13185926Y-13290122D02*
X13204974Y-13299646D01*
X13204974Y-13299646D02*
X13214498Y-13309170D01*
X13214498Y-13309170D02*
X13224021Y-13328217D01*
X13224021Y-13328217D02*
X13224021Y-13385360D01*
X13224021Y-13385360D02*
X13214498Y-13404408D01*
X13214498Y-13404408D02*
X13204974Y-13413932D01*
X13204974Y-13413932D02*
X13185926Y-13423455D01*
X13185926Y-13423455D02*
X13147831Y-13423455D01*
X13147831Y-13423455D02*
X13128783Y-13413932D01*
X13309736Y-13404408D02*
X13319260Y-13413932D01*
X13319260Y-13413932D02*
X13309736Y-13423455D01*
X13309736Y-13423455D02*
X13300212Y-13413932D01*
X13300212Y-13413932D02*
X13309736Y-13404408D01*
X13309736Y-13404408D02*
X13309736Y-13423455D01*
X13309736Y-13299646D02*
X13319260Y-13309170D01*
X13319260Y-13309170D02*
X13309736Y-13318693D01*
X13309736Y-13318693D02*
X13300212Y-13309170D01*
X13300212Y-13309170D02*
X13309736Y-13299646D01*
X13309736Y-13299646D02*
X13309736Y-13318693D01*
D12*
X11527530Y-13676972D02*
X11677530Y-13826972D01*
X11677530Y-13676972D02*
X11527530Y-13826972D01*
D11*
X12043069Y-13843455D02*
X11928783Y-13843455D01*
X11985926Y-13843455D02*
X11985926Y-13643455D01*
X11985926Y-13643455D02*
X11966879Y-13672027D01*
X11966879Y-13672027D02*
X11947831Y-13691074D01*
X11947831Y-13691074D02*
X11928783Y-13700598D01*
X12128783Y-13824408D02*
X12138307Y-13833932D01*
X12138307Y-13833932D02*
X12128783Y-13843455D01*
X12128783Y-13843455D02*
X12119260Y-13833932D01*
X12119260Y-13833932D02*
X12128783Y-13824408D01*
X12128783Y-13824408D02*
X12128783Y-13843455D01*
X12319260Y-13643455D02*
X12224021Y-13643455D01*
X12224021Y-13643455D02*
X12214498Y-13738693D01*
X12214498Y-13738693D02*
X12224021Y-13729170D01*
X12224021Y-13729170D02*
X12243069Y-13719646D01*
X12243069Y-13719646D02*
X12290688Y-13719646D01*
X12290688Y-13719646D02*
X12309736Y-13729170D01*
X12309736Y-13729170D02*
X12319260Y-13738693D01*
X12319260Y-13738693D02*
X12328783Y-13757741D01*
X12328783Y-13757741D02*
X12328783Y-13805360D01*
X12328783Y-13805360D02*
X12319260Y-13824408D01*
X12319260Y-13824408D02*
X12309736Y-13833932D01*
X12309736Y-13833932D02*
X12290688Y-13843455D01*
X12290688Y-13843455D02*
X12243069Y-13843455D01*
X12243069Y-13843455D02*
X12224021Y-13833932D01*
X12224021Y-13833932D02*
X12214498Y-13824408D01*
X12452593Y-13643455D02*
X12471641Y-13643455D01*
X12471641Y-13643455D02*
X12490688Y-13652979D01*
X12490688Y-13652979D02*
X12500212Y-13662503D01*
X12500212Y-13662503D02*
X12509736Y-13681551D01*
X12509736Y-13681551D02*
X12519260Y-13719646D01*
X12519260Y-13719646D02*
X12519260Y-13767265D01*
X12519260Y-13767265D02*
X12509736Y-13805360D01*
X12509736Y-13805360D02*
X12500212Y-13824408D01*
X12500212Y-13824408D02*
X12490688Y-13833932D01*
X12490688Y-13833932D02*
X12471641Y-13843455D01*
X12471641Y-13843455D02*
X12452593Y-13843455D01*
X12452593Y-13843455D02*
X12433545Y-13833932D01*
X12433545Y-13833932D02*
X12424021Y-13824408D01*
X12424021Y-13824408D02*
X12414498Y-13805360D01*
X12414498Y-13805360D02*
X12404974Y-13767265D01*
X12404974Y-13767265D02*
X12404974Y-13719646D01*
X12404974Y-13719646D02*
X12414498Y-13681551D01*
X12414498Y-13681551D02*
X12424021Y-13662503D01*
X12424021Y-13662503D02*
X12433545Y-13652979D01*
X12433545Y-13652979D02*
X12452593Y-13643455D01*
X12643069Y-13643455D02*
X12662117Y-13643455D01*
X12662117Y-13643455D02*
X12681164Y-13652979D01*
X12681164Y-13652979D02*
X12690688Y-13662503D01*
X12690688Y-13662503D02*
X12700212Y-13681551D01*
X12700212Y-13681551D02*
X12709736Y-13719646D01*
X12709736Y-13719646D02*
X12709736Y-13767265D01*
X12709736Y-13767265D02*
X12700212Y-13805360D01*
X12700212Y-13805360D02*
X12690688Y-13824408D01*
X12690688Y-13824408D02*
X12681164Y-13833932D01*
X12681164Y-13833932D02*
X12662117Y-13843455D01*
X12662117Y-13843455D02*
X12643069Y-13843455D01*
X12643069Y-13843455D02*
X12624021Y-13833932D01*
X12624021Y-13833932D02*
X12614498Y-13824408D01*
X12614498Y-13824408D02*
X12604974Y-13805360D01*
X12604974Y-13805360D02*
X12595450Y-13767265D01*
X12595450Y-13767265D02*
X12595450Y-13719646D01*
X12595450Y-13719646D02*
X12604974Y-13681551D01*
X12604974Y-13681551D02*
X12614498Y-13662503D01*
X12614498Y-13662503D02*
X12624021Y-13652979D01*
X12624021Y-13652979D02*
X12643069Y-13643455D01*
X12795450Y-13843455D02*
X12795450Y-13710122D01*
X12795450Y-13729170D02*
X12804974Y-13719646D01*
X12804974Y-13719646D02*
X12824021Y-13710122D01*
X12824021Y-13710122D02*
X12852593Y-13710122D01*
X12852593Y-13710122D02*
X12871641Y-13719646D01*
X12871641Y-13719646D02*
X12881164Y-13738693D01*
X12881164Y-13738693D02*
X12881164Y-13843455D01*
X12881164Y-13738693D02*
X12890688Y-13719646D01*
X12890688Y-13719646D02*
X12909736Y-13710122D01*
X12909736Y-13710122D02*
X12938307Y-13710122D01*
X12938307Y-13710122D02*
X12957355Y-13719646D01*
X12957355Y-13719646D02*
X12966879Y-13738693D01*
X12966879Y-13738693D02*
X12966879Y-13843455D01*
X13062117Y-13843455D02*
X13062117Y-13710122D01*
X13062117Y-13729170D02*
X13071641Y-13719646D01*
X13071641Y-13719646D02*
X13090688Y-13710122D01*
X13090688Y-13710122D02*
X13119260Y-13710122D01*
X13119260Y-13710122D02*
X13138307Y-13719646D01*
X13138307Y-13719646D02*
X13147831Y-13738693D01*
X13147831Y-13738693D02*
X13147831Y-13843455D01*
X13147831Y-13738693D02*
X13157355Y-13719646D01*
X13157355Y-13719646D02*
X13176402Y-13710122D01*
X13176402Y-13710122D02*
X13204974Y-13710122D01*
X13204974Y-13710122D02*
X13224022Y-13719646D01*
X13224022Y-13719646D02*
X13233545Y-13738693D01*
X13233545Y-13738693D02*
X13233545Y-13843455D01*
X13624022Y-13633932D02*
X13452593Y-13891074D01*
X13881164Y-13643455D02*
X13900212Y-13643455D01*
X13900212Y-13643455D02*
X13919260Y-13652979D01*
X13919260Y-13652979D02*
X13928784Y-13662503D01*
X13928784Y-13662503D02*
X13938307Y-13681551D01*
X13938307Y-13681551D02*
X13947831Y-13719646D01*
X13947831Y-13719646D02*
X13947831Y-13767265D01*
X13947831Y-13767265D02*
X13938307Y-13805360D01*
X13938307Y-13805360D02*
X13928784Y-13824408D01*
X13928784Y-13824408D02*
X13919260Y-13833932D01*
X13919260Y-13833932D02*
X13900212Y-13843455D01*
X13900212Y-13843455D02*
X13881164Y-13843455D01*
X13881164Y-13843455D02*
X13862117Y-13833932D01*
X13862117Y-13833932D02*
X13852593Y-13824408D01*
X13852593Y-13824408D02*
X13843069Y-13805360D01*
X13843069Y-13805360D02*
X13833545Y-13767265D01*
X13833545Y-13767265D02*
X13833545Y-13719646D01*
X13833545Y-13719646D02*
X13843069Y-13681551D01*
X13843069Y-13681551D02*
X13852593Y-13662503D01*
X13852593Y-13662503D02*
X13862117Y-13652979D01*
X13862117Y-13652979D02*
X13881164Y-13643455D01*
X14033545Y-13824408D02*
X14043069Y-13833932D01*
X14043069Y-13833932D02*
X14033545Y-13843455D01*
X14033545Y-13843455D02*
X14024022Y-13833932D01*
X14024022Y-13833932D02*
X14033545Y-13824408D01*
X14033545Y-13824408D02*
X14033545Y-13843455D01*
X14166879Y-13643455D02*
X14185926Y-13643455D01*
X14185926Y-13643455D02*
X14204974Y-13652979D01*
X14204974Y-13652979D02*
X14214498Y-13662503D01*
X14214498Y-13662503D02*
X14224022Y-13681551D01*
X14224022Y-13681551D02*
X14233545Y-13719646D01*
X14233545Y-13719646D02*
X14233545Y-13767265D01*
X14233545Y-13767265D02*
X14224022Y-13805360D01*
X14224022Y-13805360D02*
X14214498Y-13824408D01*
X14214498Y-13824408D02*
X14204974Y-13833932D01*
X14204974Y-13833932D02*
X14185926Y-13843455D01*
X14185926Y-13843455D02*
X14166879Y-13843455D01*
X14166879Y-13843455D02*
X14147831Y-13833932D01*
X14147831Y-13833932D02*
X14138307Y-13824408D01*
X14138307Y-13824408D02*
X14128784Y-13805360D01*
X14128784Y-13805360D02*
X14119260Y-13767265D01*
X14119260Y-13767265D02*
X14119260Y-13719646D01*
X14119260Y-13719646D02*
X14128784Y-13681551D01*
X14128784Y-13681551D02*
X14138307Y-13662503D01*
X14138307Y-13662503D02*
X14147831Y-13652979D01*
X14147831Y-13652979D02*
X14166879Y-13643455D01*
X14414498Y-13643455D02*
X14319260Y-13643455D01*
X14319260Y-13643455D02*
X14309736Y-13738693D01*
X14309736Y-13738693D02*
X14319260Y-13729170D01*
X14319260Y-13729170D02*
X14338307Y-13719646D01*
X14338307Y-13719646D02*
X14385926Y-13719646D01*
X14385926Y-13719646D02*
X14404974Y-13729170D01*
X14404974Y-13729170D02*
X14414498Y-13738693D01*
X14414498Y-13738693D02*
X14424022Y-13757741D01*
X14424022Y-13757741D02*
X14424022Y-13805360D01*
X14424022Y-13805360D02*
X14414498Y-13824408D01*
X14414498Y-13824408D02*
X14404974Y-13833932D01*
X14404974Y-13833932D02*
X14385926Y-13843455D01*
X14385926Y-13843455D02*
X14338307Y-13843455D01*
X14338307Y-13843455D02*
X14319260Y-13833932D01*
X14319260Y-13833932D02*
X14309736Y-13824408D01*
X14519260Y-13843455D02*
X14557355Y-13843455D01*
X14557355Y-13843455D02*
X14576403Y-13833932D01*
X14576403Y-13833932D02*
X14585926Y-13824408D01*
X14585926Y-13824408D02*
X14604974Y-13795836D01*
X14604974Y-13795836D02*
X14614498Y-13757741D01*
X14614498Y-13757741D02*
X14614498Y-13681551D01*
X14614498Y-13681551D02*
X14604974Y-13662503D01*
X14604974Y-13662503D02*
X14595450Y-13652979D01*
X14595450Y-13652979D02*
X14576403Y-13643455D01*
X14576403Y-13643455D02*
X14538307Y-13643455D01*
X14538307Y-13643455D02*
X14519260Y-13652979D01*
X14519260Y-13652979D02*
X14509736Y-13662503D01*
X14509736Y-13662503D02*
X14500212Y-13681551D01*
X14500212Y-13681551D02*
X14500212Y-13729170D01*
X14500212Y-13729170D02*
X14509736Y-13748217D01*
X14509736Y-13748217D02*
X14519260Y-13757741D01*
X14519260Y-13757741D02*
X14538307Y-13767265D01*
X14538307Y-13767265D02*
X14576403Y-13767265D01*
X14576403Y-13767265D02*
X14595450Y-13757741D01*
X14595450Y-13757741D02*
X14604974Y-13748217D01*
X14604974Y-13748217D02*
X14614498Y-13729170D01*
X14804974Y-13843455D02*
X14690688Y-13843455D01*
X14747831Y-13843455D02*
X14747831Y-13643455D01*
X14747831Y-13643455D02*
X14728784Y-13672027D01*
X14728784Y-13672027D02*
X14709736Y-13691074D01*
X14709736Y-13691074D02*
X14690688Y-13700598D01*
X14881165Y-13643455D02*
X14881165Y-13681551D01*
X14957355Y-13643455D02*
X14957355Y-13681551D01*
X15252593Y-13919646D02*
X15243069Y-13910122D01*
X15243069Y-13910122D02*
X15224022Y-13881551D01*
X15224022Y-13881551D02*
X15214498Y-13862503D01*
X15214498Y-13862503D02*
X15204974Y-13833932D01*
X15204974Y-13833932D02*
X15195450Y-13786312D01*
X15195450Y-13786312D02*
X15195450Y-13748217D01*
X15195450Y-13748217D02*
X15204974Y-13700598D01*
X15204974Y-13700598D02*
X15214498Y-13672027D01*
X15214498Y-13672027D02*
X15224022Y-13652979D01*
X15224022Y-13652979D02*
X15243069Y-13624408D01*
X15243069Y-13624408D02*
X15252593Y-13614884D01*
X15414498Y-13643455D02*
X15376403Y-13643455D01*
X15376403Y-13643455D02*
X15357355Y-13652979D01*
X15357355Y-13652979D02*
X15347831Y-13662503D01*
X15347831Y-13662503D02*
X15328784Y-13691074D01*
X15328784Y-13691074D02*
X15319260Y-13729170D01*
X15319260Y-13729170D02*
X15319260Y-13805360D01*
X15319260Y-13805360D02*
X15328784Y-13824408D01*
X15328784Y-13824408D02*
X15338307Y-13833932D01*
X15338307Y-13833932D02*
X15357355Y-13843455D01*
X15357355Y-13843455D02*
X15395450Y-13843455D01*
X15395450Y-13843455D02*
X15414498Y-13833932D01*
X15414498Y-13833932D02*
X15424022Y-13824408D01*
X15424022Y-13824408D02*
X15433546Y-13805360D01*
X15433546Y-13805360D02*
X15433546Y-13757741D01*
X15433546Y-13757741D02*
X15424022Y-13738693D01*
X15424022Y-13738693D02*
X15414498Y-13729170D01*
X15414498Y-13729170D02*
X15395450Y-13719646D01*
X15395450Y-13719646D02*
X15357355Y-13719646D01*
X15357355Y-13719646D02*
X15338307Y-13729170D01*
X15338307Y-13729170D02*
X15328784Y-13738693D01*
X15328784Y-13738693D02*
X15319260Y-13757741D01*
X15671641Y-13843455D02*
X15671641Y-13643455D01*
X15757355Y-13843455D02*
X15757355Y-13738693D01*
X15757355Y-13738693D02*
X15747831Y-13719646D01*
X15747831Y-13719646D02*
X15728784Y-13710122D01*
X15728784Y-13710122D02*
X15700212Y-13710122D01*
X15700212Y-13710122D02*
X15681165Y-13719646D01*
X15681165Y-13719646D02*
X15671641Y-13729170D01*
X15881165Y-13843455D02*
X15862117Y-13833932D01*
X15862117Y-13833932D02*
X15852593Y-13824408D01*
X15852593Y-13824408D02*
X15843069Y-13805360D01*
X15843069Y-13805360D02*
X15843069Y-13748217D01*
X15843069Y-13748217D02*
X15852593Y-13729170D01*
X15852593Y-13729170D02*
X15862117Y-13719646D01*
X15862117Y-13719646D02*
X15881165Y-13710122D01*
X15881165Y-13710122D02*
X15909736Y-13710122D01*
X15909736Y-13710122D02*
X15928784Y-13719646D01*
X15928784Y-13719646D02*
X15938308Y-13729170D01*
X15938308Y-13729170D02*
X15947831Y-13748217D01*
X15947831Y-13748217D02*
X15947831Y-13805360D01*
X15947831Y-13805360D02*
X15938308Y-13824408D01*
X15938308Y-13824408D02*
X15928784Y-13833932D01*
X15928784Y-13833932D02*
X15909736Y-13843455D01*
X15909736Y-13843455D02*
X15881165Y-13843455D01*
X16062117Y-13843455D02*
X16043069Y-13833932D01*
X16043069Y-13833932D02*
X16033546Y-13814884D01*
X16033546Y-13814884D02*
X16033546Y-13643455D01*
X16214498Y-13833932D02*
X16195450Y-13843455D01*
X16195450Y-13843455D02*
X16157355Y-13843455D01*
X16157355Y-13843455D02*
X16138308Y-13833932D01*
X16138308Y-13833932D02*
X16128784Y-13814884D01*
X16128784Y-13814884D02*
X16128784Y-13738693D01*
X16128784Y-13738693D02*
X16138308Y-13719646D01*
X16138308Y-13719646D02*
X16157355Y-13710122D01*
X16157355Y-13710122D02*
X16195450Y-13710122D01*
X16195450Y-13710122D02*
X16214498Y-13719646D01*
X16214498Y-13719646D02*
X16224022Y-13738693D01*
X16224022Y-13738693D02*
X16224022Y-13757741D01*
X16224022Y-13757741D02*
X16128784Y-13776789D01*
X16300212Y-13833932D02*
X16319260Y-13843455D01*
X16319260Y-13843455D02*
X16357355Y-13843455D01*
X16357355Y-13843455D02*
X16376403Y-13833932D01*
X16376403Y-13833932D02*
X16385927Y-13814884D01*
X16385927Y-13814884D02*
X16385927Y-13805360D01*
X16385927Y-13805360D02*
X16376403Y-13786312D01*
X16376403Y-13786312D02*
X16357355Y-13776789D01*
X16357355Y-13776789D02*
X16328784Y-13776789D01*
X16328784Y-13776789D02*
X16309736Y-13767265D01*
X16309736Y-13767265D02*
X16300212Y-13748217D01*
X16300212Y-13748217D02*
X16300212Y-13738693D01*
X16300212Y-13738693D02*
X16309736Y-13719646D01*
X16309736Y-13719646D02*
X16328784Y-13710122D01*
X16328784Y-13710122D02*
X16357355Y-13710122D01*
X16357355Y-13710122D02*
X16376403Y-13719646D01*
X16452593Y-13919646D02*
X16462117Y-13910122D01*
X16462117Y-13910122D02*
X16481165Y-13881551D01*
X16481165Y-13881551D02*
X16490689Y-13862503D01*
X16490689Y-13862503D02*
X16500212Y-13833932D01*
X16500212Y-13833932D02*
X16509736Y-13786312D01*
X16509736Y-13786312D02*
X16509736Y-13748217D01*
X16509736Y-13748217D02*
X16500212Y-13700598D01*
X16500212Y-13700598D02*
X16490689Y-13672027D01*
X16490689Y-13672027D02*
X16481165Y-13652979D01*
X16481165Y-13652979D02*
X16462117Y-13624408D01*
X16462117Y-13624408D02*
X16452593Y-13614884D01*
X16814498Y-13919646D02*
X16804974Y-13910122D01*
X16804974Y-13910122D02*
X16785927Y-13881551D01*
X16785927Y-13881551D02*
X16776403Y-13862503D01*
X16776403Y-13862503D02*
X16766879Y-13833932D01*
X16766879Y-13833932D02*
X16757355Y-13786312D01*
X16757355Y-13786312D02*
X16757355Y-13748217D01*
X16757355Y-13748217D02*
X16766879Y-13700598D01*
X16766879Y-13700598D02*
X16776403Y-13672027D01*
X16776403Y-13672027D02*
X16785927Y-13652979D01*
X16785927Y-13652979D02*
X16804974Y-13624408D01*
X16804974Y-13624408D02*
X16814498Y-13614884D01*
X16890689Y-13710122D02*
X16890689Y-13843455D01*
X16890689Y-13729170D02*
X16900212Y-13719646D01*
X16900212Y-13719646D02*
X16919260Y-13710122D01*
X16919260Y-13710122D02*
X16947832Y-13710122D01*
X16947832Y-13710122D02*
X16966879Y-13719646D01*
X16966879Y-13719646D02*
X16976403Y-13738693D01*
X16976403Y-13738693D02*
X16976403Y-13843455D01*
X17100212Y-13843455D02*
X17081165Y-13833932D01*
X17081165Y-13833932D02*
X17071641Y-13824408D01*
X17071641Y-13824408D02*
X17062117Y-13805360D01*
X17062117Y-13805360D02*
X17062117Y-13748217D01*
X17062117Y-13748217D02*
X17071641Y-13729170D01*
X17071641Y-13729170D02*
X17081165Y-13719646D01*
X17081165Y-13719646D02*
X17100212Y-13710122D01*
X17100212Y-13710122D02*
X17128784Y-13710122D01*
X17128784Y-13710122D02*
X17147832Y-13719646D01*
X17147832Y-13719646D02*
X17157355Y-13729170D01*
X17157355Y-13729170D02*
X17166879Y-13748217D01*
X17166879Y-13748217D02*
X17166879Y-13805360D01*
X17166879Y-13805360D02*
X17157355Y-13824408D01*
X17157355Y-13824408D02*
X17147832Y-13833932D01*
X17147832Y-13833932D02*
X17128784Y-13843455D01*
X17128784Y-13843455D02*
X17100212Y-13843455D01*
X17224022Y-13710122D02*
X17300212Y-13710122D01*
X17252593Y-13643455D02*
X17252593Y-13814884D01*
X17252593Y-13814884D02*
X17262117Y-13833932D01*
X17262117Y-13833932D02*
X17281165Y-13843455D01*
X17281165Y-13843455D02*
X17300212Y-13843455D01*
X17519260Y-13710122D02*
X17519260Y-13910122D01*
X17519260Y-13719646D02*
X17538308Y-13710122D01*
X17538308Y-13710122D02*
X17576403Y-13710122D01*
X17576403Y-13710122D02*
X17595451Y-13719646D01*
X17595451Y-13719646D02*
X17604974Y-13729170D01*
X17604974Y-13729170D02*
X17614498Y-13748217D01*
X17614498Y-13748217D02*
X17614498Y-13805360D01*
X17614498Y-13805360D02*
X17604974Y-13824408D01*
X17604974Y-13824408D02*
X17595451Y-13833932D01*
X17595451Y-13833932D02*
X17576403Y-13843455D01*
X17576403Y-13843455D02*
X17538308Y-13843455D01*
X17538308Y-13843455D02*
X17519260Y-13833932D01*
X17728784Y-13843455D02*
X17709736Y-13833932D01*
X17709736Y-13833932D02*
X17700213Y-13814884D01*
X17700213Y-13814884D02*
X17700213Y-13643455D01*
X17890689Y-13843455D02*
X17890689Y-13738693D01*
X17890689Y-13738693D02*
X17881165Y-13719646D01*
X17881165Y-13719646D02*
X17862117Y-13710122D01*
X17862117Y-13710122D02*
X17824022Y-13710122D01*
X17824022Y-13710122D02*
X17804974Y-13719646D01*
X17890689Y-13833932D02*
X17871641Y-13843455D01*
X17871641Y-13843455D02*
X17824022Y-13843455D01*
X17824022Y-13843455D02*
X17804974Y-13833932D01*
X17804974Y-13833932D02*
X17795451Y-13814884D01*
X17795451Y-13814884D02*
X17795451Y-13795836D01*
X17795451Y-13795836D02*
X17804974Y-13776789D01*
X17804974Y-13776789D02*
X17824022Y-13767265D01*
X17824022Y-13767265D02*
X17871641Y-13767265D01*
X17871641Y-13767265D02*
X17890689Y-13757741D01*
X17957355Y-13710122D02*
X18033546Y-13710122D01*
X17985927Y-13643455D02*
X17985927Y-13814884D01*
X17985927Y-13814884D02*
X17995451Y-13833932D01*
X17995451Y-13833932D02*
X18014498Y-13843455D01*
X18014498Y-13843455D02*
X18033546Y-13843455D01*
X18176403Y-13833932D02*
X18157355Y-13843455D01*
X18157355Y-13843455D02*
X18119260Y-13843455D01*
X18119260Y-13843455D02*
X18100213Y-13833932D01*
X18100213Y-13833932D02*
X18090689Y-13814884D01*
X18090689Y-13814884D02*
X18090689Y-13738693D01*
X18090689Y-13738693D02*
X18100213Y-13719646D01*
X18100213Y-13719646D02*
X18119260Y-13710122D01*
X18119260Y-13710122D02*
X18157355Y-13710122D01*
X18157355Y-13710122D02*
X18176403Y-13719646D01*
X18176403Y-13719646D02*
X18185927Y-13738693D01*
X18185927Y-13738693D02*
X18185927Y-13757741D01*
X18185927Y-13757741D02*
X18090689Y-13776789D01*
X18357355Y-13843455D02*
X18357355Y-13643455D01*
X18357355Y-13833932D02*
X18338308Y-13843455D01*
X18338308Y-13843455D02*
X18300213Y-13843455D01*
X18300213Y-13843455D02*
X18281165Y-13833932D01*
X18281165Y-13833932D02*
X18271641Y-13824408D01*
X18271641Y-13824408D02*
X18262117Y-13805360D01*
X18262117Y-13805360D02*
X18262117Y-13748217D01*
X18262117Y-13748217D02*
X18271641Y-13729170D01*
X18271641Y-13729170D02*
X18281165Y-13719646D01*
X18281165Y-13719646D02*
X18300213Y-13710122D01*
X18300213Y-13710122D02*
X18338308Y-13710122D01*
X18338308Y-13710122D02*
X18357355Y-13719646D01*
X18433546Y-13919646D02*
X18443070Y-13910122D01*
X18443070Y-13910122D02*
X18462117Y-13881551D01*
X18462117Y-13881551D02*
X18471641Y-13862503D01*
X18471641Y-13862503D02*
X18481165Y-13833932D01*
X18481165Y-13833932D02*
X18490689Y-13786312D01*
X18490689Y-13786312D02*
X18490689Y-13748217D01*
X18490689Y-13748217D02*
X18481165Y-13700598D01*
X18481165Y-13700598D02*
X18471641Y-13672027D01*
X18471641Y-13672027D02*
X18462117Y-13652979D01*
X18462117Y-13652979D02*
X18443070Y-13624408D01*
X18443070Y-13624408D02*
X18433546Y-13614884D01*
D13*
X11677530Y-14021972D02*
G75*
G02*
X11497530Y-14021972I-90000J0D01*
G01*
X11497530Y-14021972D02*
G75*
G02*
X11677530Y-14021972I90000J0D01*
G01*
D11*
X12043069Y-14113455D02*
X11928783Y-14113455D01*
X11985926Y-14113455D02*
X11985926Y-13913455D01*
X11985926Y-13913455D02*
X11966879Y-13942027D01*
X11966879Y-13942027D02*
X11947831Y-13961074D01*
X11947831Y-13961074D02*
X11928783Y-13970598D01*
X12128783Y-14094408D02*
X12138307Y-14103932D01*
X12138307Y-14103932D02*
X12128783Y-14113455D01*
X12128783Y-14113455D02*
X12119260Y-14103932D01*
X12119260Y-14103932D02*
X12128783Y-14094408D01*
X12128783Y-14094408D02*
X12128783Y-14113455D01*
X12252593Y-13999170D02*
X12233545Y-13989646D01*
X12233545Y-13989646D02*
X12224021Y-13980122D01*
X12224021Y-13980122D02*
X12214498Y-13961074D01*
X12214498Y-13961074D02*
X12214498Y-13951551D01*
X12214498Y-13951551D02*
X12224021Y-13932503D01*
X12224021Y-13932503D02*
X12233545Y-13922979D01*
X12233545Y-13922979D02*
X12252593Y-13913455D01*
X12252593Y-13913455D02*
X12290688Y-13913455D01*
X12290688Y-13913455D02*
X12309736Y-13922979D01*
X12309736Y-13922979D02*
X12319260Y-13932503D01*
X12319260Y-13932503D02*
X12328783Y-13951551D01*
X12328783Y-13951551D02*
X12328783Y-13961074D01*
X12328783Y-13961074D02*
X12319260Y-13980122D01*
X12319260Y-13980122D02*
X12309736Y-13989646D01*
X12309736Y-13989646D02*
X12290688Y-13999170D01*
X12290688Y-13999170D02*
X12252593Y-13999170D01*
X12252593Y-13999170D02*
X12233545Y-14008693D01*
X12233545Y-14008693D02*
X12224021Y-14018217D01*
X12224021Y-14018217D02*
X12214498Y-14037265D01*
X12214498Y-14037265D02*
X12214498Y-14075360D01*
X12214498Y-14075360D02*
X12224021Y-14094408D01*
X12224021Y-14094408D02*
X12233545Y-14103932D01*
X12233545Y-14103932D02*
X12252593Y-14113455D01*
X12252593Y-14113455D02*
X12290688Y-14113455D01*
X12290688Y-14113455D02*
X12309736Y-14103932D01*
X12309736Y-14103932D02*
X12319260Y-14094408D01*
X12319260Y-14094408D02*
X12328783Y-14075360D01*
X12328783Y-14075360D02*
X12328783Y-14037265D01*
X12328783Y-14037265D02*
X12319260Y-14018217D01*
X12319260Y-14018217D02*
X12309736Y-14008693D01*
X12309736Y-14008693D02*
X12290688Y-13999170D01*
X12452593Y-13913455D02*
X12471641Y-13913455D01*
X12471641Y-13913455D02*
X12490688Y-13922979D01*
X12490688Y-13922979D02*
X12500212Y-13932503D01*
X12500212Y-13932503D02*
X12509736Y-13951551D01*
X12509736Y-13951551D02*
X12519260Y-13989646D01*
X12519260Y-13989646D02*
X12519260Y-14037265D01*
X12519260Y-14037265D02*
X12509736Y-14075360D01*
X12509736Y-14075360D02*
X12500212Y-14094408D01*
X12500212Y-14094408D02*
X12490688Y-14103932D01*
X12490688Y-14103932D02*
X12471641Y-14113455D01*
X12471641Y-14113455D02*
X12452593Y-14113455D01*
X12452593Y-14113455D02*
X12433545Y-14103932D01*
X12433545Y-14103932D02*
X12424021Y-14094408D01*
X12424021Y-14094408D02*
X12414498Y-14075360D01*
X12414498Y-14075360D02*
X12404974Y-14037265D01*
X12404974Y-14037265D02*
X12404974Y-13989646D01*
X12404974Y-13989646D02*
X12414498Y-13951551D01*
X12414498Y-13951551D02*
X12424021Y-13932503D01*
X12424021Y-13932503D02*
X12433545Y-13922979D01*
X12433545Y-13922979D02*
X12452593Y-13913455D01*
X12643069Y-13913455D02*
X12662117Y-13913455D01*
X12662117Y-13913455D02*
X12681164Y-13922979D01*
X12681164Y-13922979D02*
X12690688Y-13932503D01*
X12690688Y-13932503D02*
X12700212Y-13951551D01*
X12700212Y-13951551D02*
X12709736Y-13989646D01*
X12709736Y-13989646D02*
X12709736Y-14037265D01*
X12709736Y-14037265D02*
X12700212Y-14075360D01*
X12700212Y-14075360D02*
X12690688Y-14094408D01*
X12690688Y-14094408D02*
X12681164Y-14103932D01*
X12681164Y-14103932D02*
X12662117Y-14113455D01*
X12662117Y-14113455D02*
X12643069Y-14113455D01*
X12643069Y-14113455D02*
X12624021Y-14103932D01*
X12624021Y-14103932D02*
X12614498Y-14094408D01*
X12614498Y-14094408D02*
X12604974Y-14075360D01*
X12604974Y-14075360D02*
X12595450Y-14037265D01*
X12595450Y-14037265D02*
X12595450Y-13989646D01*
X12595450Y-13989646D02*
X12604974Y-13951551D01*
X12604974Y-13951551D02*
X12614498Y-13932503D01*
X12614498Y-13932503D02*
X12624021Y-13922979D01*
X12624021Y-13922979D02*
X12643069Y-13913455D01*
X12795450Y-14113455D02*
X12795450Y-13980122D01*
X12795450Y-13999170D02*
X12804974Y-13989646D01*
X12804974Y-13989646D02*
X12824021Y-13980122D01*
X12824021Y-13980122D02*
X12852593Y-13980122D01*
X12852593Y-13980122D02*
X12871641Y-13989646D01*
X12871641Y-13989646D02*
X12881164Y-14008693D01*
X12881164Y-14008693D02*
X12881164Y-14113455D01*
X12881164Y-14008693D02*
X12890688Y-13989646D01*
X12890688Y-13989646D02*
X12909736Y-13980122D01*
X12909736Y-13980122D02*
X12938307Y-13980122D01*
X12938307Y-13980122D02*
X12957355Y-13989646D01*
X12957355Y-13989646D02*
X12966879Y-14008693D01*
X12966879Y-14008693D02*
X12966879Y-14113455D01*
X13062117Y-14113455D02*
X13062117Y-13980122D01*
X13062117Y-13999170D02*
X13071641Y-13989646D01*
X13071641Y-13989646D02*
X13090688Y-13980122D01*
X13090688Y-13980122D02*
X13119260Y-13980122D01*
X13119260Y-13980122D02*
X13138307Y-13989646D01*
X13138307Y-13989646D02*
X13147831Y-14008693D01*
X13147831Y-14008693D02*
X13147831Y-14113455D01*
X13147831Y-14008693D02*
X13157355Y-13989646D01*
X13157355Y-13989646D02*
X13176402Y-13980122D01*
X13176402Y-13980122D02*
X13204974Y-13980122D01*
X13204974Y-13980122D02*
X13224022Y-13989646D01*
X13224022Y-13989646D02*
X13233545Y-14008693D01*
X13233545Y-14008693D02*
X13233545Y-14113455D01*
X13624022Y-13903932D02*
X13452593Y-14161074D01*
X13881164Y-13913455D02*
X13900212Y-13913455D01*
X13900212Y-13913455D02*
X13919260Y-13922979D01*
X13919260Y-13922979D02*
X13928784Y-13932503D01*
X13928784Y-13932503D02*
X13938307Y-13951551D01*
X13938307Y-13951551D02*
X13947831Y-13989646D01*
X13947831Y-13989646D02*
X13947831Y-14037265D01*
X13947831Y-14037265D02*
X13938307Y-14075360D01*
X13938307Y-14075360D02*
X13928784Y-14094408D01*
X13928784Y-14094408D02*
X13919260Y-14103932D01*
X13919260Y-14103932D02*
X13900212Y-14113455D01*
X13900212Y-14113455D02*
X13881164Y-14113455D01*
X13881164Y-14113455D02*
X13862117Y-14103932D01*
X13862117Y-14103932D02*
X13852593Y-14094408D01*
X13852593Y-14094408D02*
X13843069Y-14075360D01*
X13843069Y-14075360D02*
X13833545Y-14037265D01*
X13833545Y-14037265D02*
X13833545Y-13989646D01*
X13833545Y-13989646D02*
X13843069Y-13951551D01*
X13843069Y-13951551D02*
X13852593Y-13932503D01*
X13852593Y-13932503D02*
X13862117Y-13922979D01*
X13862117Y-13922979D02*
X13881164Y-13913455D01*
X14033545Y-14094408D02*
X14043069Y-14103932D01*
X14043069Y-14103932D02*
X14033545Y-14113455D01*
X14033545Y-14113455D02*
X14024022Y-14103932D01*
X14024022Y-14103932D02*
X14033545Y-14094408D01*
X14033545Y-14094408D02*
X14033545Y-14113455D01*
X14166879Y-13913455D02*
X14185926Y-13913455D01*
X14185926Y-13913455D02*
X14204974Y-13922979D01*
X14204974Y-13922979D02*
X14214498Y-13932503D01*
X14214498Y-13932503D02*
X14224022Y-13951551D01*
X14224022Y-13951551D02*
X14233545Y-13989646D01*
X14233545Y-13989646D02*
X14233545Y-14037265D01*
X14233545Y-14037265D02*
X14224022Y-14075360D01*
X14224022Y-14075360D02*
X14214498Y-14094408D01*
X14214498Y-14094408D02*
X14204974Y-14103932D01*
X14204974Y-14103932D02*
X14185926Y-14113455D01*
X14185926Y-14113455D02*
X14166879Y-14113455D01*
X14166879Y-14113455D02*
X14147831Y-14103932D01*
X14147831Y-14103932D02*
X14138307Y-14094408D01*
X14138307Y-14094408D02*
X14128784Y-14075360D01*
X14128784Y-14075360D02*
X14119260Y-14037265D01*
X14119260Y-14037265D02*
X14119260Y-13989646D01*
X14119260Y-13989646D02*
X14128784Y-13951551D01*
X14128784Y-13951551D02*
X14138307Y-13932503D01*
X14138307Y-13932503D02*
X14147831Y-13922979D01*
X14147831Y-13922979D02*
X14166879Y-13913455D01*
X14300212Y-13913455D02*
X14433545Y-13913455D01*
X14433545Y-13913455D02*
X14347831Y-14113455D01*
X14547831Y-13913455D02*
X14566879Y-13913455D01*
X14566879Y-13913455D02*
X14585926Y-13922979D01*
X14585926Y-13922979D02*
X14595450Y-13932503D01*
X14595450Y-13932503D02*
X14604974Y-13951551D01*
X14604974Y-13951551D02*
X14614498Y-13989646D01*
X14614498Y-13989646D02*
X14614498Y-14037265D01*
X14614498Y-14037265D02*
X14604974Y-14075360D01*
X14604974Y-14075360D02*
X14595450Y-14094408D01*
X14595450Y-14094408D02*
X14585926Y-14103932D01*
X14585926Y-14103932D02*
X14566879Y-14113455D01*
X14566879Y-14113455D02*
X14547831Y-14113455D01*
X14547831Y-14113455D02*
X14528784Y-14103932D01*
X14528784Y-14103932D02*
X14519260Y-14094408D01*
X14519260Y-14094408D02*
X14509736Y-14075360D01*
X14509736Y-14075360D02*
X14500212Y-14037265D01*
X14500212Y-14037265D02*
X14500212Y-13989646D01*
X14500212Y-13989646D02*
X14509736Y-13951551D01*
X14509736Y-13951551D02*
X14519260Y-13932503D01*
X14519260Y-13932503D02*
X14528784Y-13922979D01*
X14528784Y-13922979D02*
X14547831Y-13913455D01*
X14709736Y-14113455D02*
X14747831Y-14113455D01*
X14747831Y-14113455D02*
X14766879Y-14103932D01*
X14766879Y-14103932D02*
X14776403Y-14094408D01*
X14776403Y-14094408D02*
X14795450Y-14065836D01*
X14795450Y-14065836D02*
X14804974Y-14027741D01*
X14804974Y-14027741D02*
X14804974Y-13951551D01*
X14804974Y-13951551D02*
X14795450Y-13932503D01*
X14795450Y-13932503D02*
X14785926Y-13922979D01*
X14785926Y-13922979D02*
X14766879Y-13913455D01*
X14766879Y-13913455D02*
X14728784Y-13913455D01*
X14728784Y-13913455D02*
X14709736Y-13922979D01*
X14709736Y-13922979D02*
X14700212Y-13932503D01*
X14700212Y-13932503D02*
X14690688Y-13951551D01*
X14690688Y-13951551D02*
X14690688Y-13999170D01*
X14690688Y-13999170D02*
X14700212Y-14018217D01*
X14700212Y-14018217D02*
X14709736Y-14027741D01*
X14709736Y-14027741D02*
X14728784Y-14037265D01*
X14728784Y-14037265D02*
X14766879Y-14037265D01*
X14766879Y-14037265D02*
X14785926Y-14027741D01*
X14785926Y-14027741D02*
X14795450Y-14018217D01*
X14795450Y-14018217D02*
X14804974Y-13999170D01*
X14881165Y-13913455D02*
X14881165Y-13951551D01*
X14957355Y-13913455D02*
X14957355Y-13951551D01*
X15252593Y-14189646D02*
X15243069Y-14180122D01*
X15243069Y-14180122D02*
X15224022Y-14151551D01*
X15224022Y-14151551D02*
X15214498Y-14132503D01*
X15214498Y-14132503D02*
X15204974Y-14103932D01*
X15204974Y-14103932D02*
X15195450Y-14056312D01*
X15195450Y-14056312D02*
X15195450Y-14018217D01*
X15195450Y-14018217D02*
X15204974Y-13970598D01*
X15204974Y-13970598D02*
X15214498Y-13942027D01*
X15214498Y-13942027D02*
X15224022Y-13922979D01*
X15224022Y-13922979D02*
X15243069Y-13894408D01*
X15243069Y-13894408D02*
X15252593Y-13884884D01*
X15319260Y-13932503D02*
X15328784Y-13922979D01*
X15328784Y-13922979D02*
X15347831Y-13913455D01*
X15347831Y-13913455D02*
X15395450Y-13913455D01*
X15395450Y-13913455D02*
X15414498Y-13922979D01*
X15414498Y-13922979D02*
X15424022Y-13932503D01*
X15424022Y-13932503D02*
X15433546Y-13951551D01*
X15433546Y-13951551D02*
X15433546Y-13970598D01*
X15433546Y-13970598D02*
X15424022Y-13999170D01*
X15424022Y-13999170D02*
X15309736Y-14113455D01*
X15309736Y-14113455D02*
X15433546Y-14113455D01*
X15671641Y-14113455D02*
X15671641Y-13913455D01*
X15757355Y-14113455D02*
X15757355Y-14008693D01*
X15757355Y-14008693D02*
X15747831Y-13989646D01*
X15747831Y-13989646D02*
X15728784Y-13980122D01*
X15728784Y-13980122D02*
X15700212Y-13980122D01*
X15700212Y-13980122D02*
X15681165Y-13989646D01*
X15681165Y-13989646D02*
X15671641Y-13999170D01*
X15881165Y-14113455D02*
X15862117Y-14103932D01*
X15862117Y-14103932D02*
X15852593Y-14094408D01*
X15852593Y-14094408D02*
X15843069Y-14075360D01*
X15843069Y-14075360D02*
X15843069Y-14018217D01*
X15843069Y-14018217D02*
X15852593Y-13999170D01*
X15852593Y-13999170D02*
X15862117Y-13989646D01*
X15862117Y-13989646D02*
X15881165Y-13980122D01*
X15881165Y-13980122D02*
X15909736Y-13980122D01*
X15909736Y-13980122D02*
X15928784Y-13989646D01*
X15928784Y-13989646D02*
X15938308Y-13999170D01*
X15938308Y-13999170D02*
X15947831Y-14018217D01*
X15947831Y-14018217D02*
X15947831Y-14075360D01*
X15947831Y-14075360D02*
X15938308Y-14094408D01*
X15938308Y-14094408D02*
X15928784Y-14103932D01*
X15928784Y-14103932D02*
X15909736Y-14113455D01*
X15909736Y-14113455D02*
X15881165Y-14113455D01*
X16062117Y-14113455D02*
X16043069Y-14103932D01*
X16043069Y-14103932D02*
X16033546Y-14084884D01*
X16033546Y-14084884D02*
X16033546Y-13913455D01*
X16214498Y-14103932D02*
X16195450Y-14113455D01*
X16195450Y-14113455D02*
X16157355Y-14113455D01*
X16157355Y-14113455D02*
X16138308Y-14103932D01*
X16138308Y-14103932D02*
X16128784Y-14084884D01*
X16128784Y-14084884D02*
X16128784Y-14008693D01*
X16128784Y-14008693D02*
X16138308Y-13989646D01*
X16138308Y-13989646D02*
X16157355Y-13980122D01*
X16157355Y-13980122D02*
X16195450Y-13980122D01*
X16195450Y-13980122D02*
X16214498Y-13989646D01*
X16214498Y-13989646D02*
X16224022Y-14008693D01*
X16224022Y-14008693D02*
X16224022Y-14027741D01*
X16224022Y-14027741D02*
X16128784Y-14046789D01*
X16300212Y-14103932D02*
X16319260Y-14113455D01*
X16319260Y-14113455D02*
X16357355Y-14113455D01*
X16357355Y-14113455D02*
X16376403Y-14103932D01*
X16376403Y-14103932D02*
X16385927Y-14084884D01*
X16385927Y-14084884D02*
X16385927Y-14075360D01*
X16385927Y-14075360D02*
X16376403Y-14056312D01*
X16376403Y-14056312D02*
X16357355Y-14046789D01*
X16357355Y-14046789D02*
X16328784Y-14046789D01*
X16328784Y-14046789D02*
X16309736Y-14037265D01*
X16309736Y-14037265D02*
X16300212Y-14018217D01*
X16300212Y-14018217D02*
X16300212Y-14008693D01*
X16300212Y-14008693D02*
X16309736Y-13989646D01*
X16309736Y-13989646D02*
X16328784Y-13980122D01*
X16328784Y-13980122D02*
X16357355Y-13980122D01*
X16357355Y-13980122D02*
X16376403Y-13989646D01*
X16452593Y-14189646D02*
X16462117Y-14180122D01*
X16462117Y-14180122D02*
X16481165Y-14151551D01*
X16481165Y-14151551D02*
X16490689Y-14132503D01*
X16490689Y-14132503D02*
X16500212Y-14103932D01*
X16500212Y-14103932D02*
X16509736Y-14056312D01*
X16509736Y-14056312D02*
X16509736Y-14018217D01*
X16509736Y-14018217D02*
X16500212Y-13970598D01*
X16500212Y-13970598D02*
X16490689Y-13942027D01*
X16490689Y-13942027D02*
X16481165Y-13922979D01*
X16481165Y-13922979D02*
X16462117Y-13894408D01*
X16462117Y-13894408D02*
X16452593Y-13884884D01*
X16814498Y-14189646D02*
X16804974Y-14180122D01*
X16804974Y-14180122D02*
X16785927Y-14151551D01*
X16785927Y-14151551D02*
X16776403Y-14132503D01*
X16776403Y-14132503D02*
X16766879Y-14103932D01*
X16766879Y-14103932D02*
X16757355Y-14056312D01*
X16757355Y-14056312D02*
X16757355Y-14018217D01*
X16757355Y-14018217D02*
X16766879Y-13970598D01*
X16766879Y-13970598D02*
X16776403Y-13942027D01*
X16776403Y-13942027D02*
X16785927Y-13922979D01*
X16785927Y-13922979D02*
X16804974Y-13894408D01*
X16804974Y-13894408D02*
X16814498Y-13884884D01*
X16890689Y-13980122D02*
X16890689Y-14113455D01*
X16890689Y-13999170D02*
X16900212Y-13989646D01*
X16900212Y-13989646D02*
X16919260Y-13980122D01*
X16919260Y-13980122D02*
X16947832Y-13980122D01*
X16947832Y-13980122D02*
X16966879Y-13989646D01*
X16966879Y-13989646D02*
X16976403Y-14008693D01*
X16976403Y-14008693D02*
X16976403Y-14113455D01*
X17100212Y-14113455D02*
X17081165Y-14103932D01*
X17081165Y-14103932D02*
X17071641Y-14094408D01*
X17071641Y-14094408D02*
X17062117Y-14075360D01*
X17062117Y-14075360D02*
X17062117Y-14018217D01*
X17062117Y-14018217D02*
X17071641Y-13999170D01*
X17071641Y-13999170D02*
X17081165Y-13989646D01*
X17081165Y-13989646D02*
X17100212Y-13980122D01*
X17100212Y-13980122D02*
X17128784Y-13980122D01*
X17128784Y-13980122D02*
X17147832Y-13989646D01*
X17147832Y-13989646D02*
X17157355Y-13999170D01*
X17157355Y-13999170D02*
X17166879Y-14018217D01*
X17166879Y-14018217D02*
X17166879Y-14075360D01*
X17166879Y-14075360D02*
X17157355Y-14094408D01*
X17157355Y-14094408D02*
X17147832Y-14103932D01*
X17147832Y-14103932D02*
X17128784Y-14113455D01*
X17128784Y-14113455D02*
X17100212Y-14113455D01*
X17224022Y-13980122D02*
X17300212Y-13980122D01*
X17252593Y-13913455D02*
X17252593Y-14084884D01*
X17252593Y-14084884D02*
X17262117Y-14103932D01*
X17262117Y-14103932D02*
X17281165Y-14113455D01*
X17281165Y-14113455D02*
X17300212Y-14113455D01*
X17519260Y-13980122D02*
X17519260Y-14180122D01*
X17519260Y-13989646D02*
X17538308Y-13980122D01*
X17538308Y-13980122D02*
X17576403Y-13980122D01*
X17576403Y-13980122D02*
X17595451Y-13989646D01*
X17595451Y-13989646D02*
X17604974Y-13999170D01*
X17604974Y-13999170D02*
X17614498Y-14018217D01*
X17614498Y-14018217D02*
X17614498Y-14075360D01*
X17614498Y-14075360D02*
X17604974Y-14094408D01*
X17604974Y-14094408D02*
X17595451Y-14103932D01*
X17595451Y-14103932D02*
X17576403Y-14113455D01*
X17576403Y-14113455D02*
X17538308Y-14113455D01*
X17538308Y-14113455D02*
X17519260Y-14103932D01*
X17728784Y-14113455D02*
X17709736Y-14103932D01*
X17709736Y-14103932D02*
X17700213Y-14084884D01*
X17700213Y-14084884D02*
X17700213Y-13913455D01*
X17890689Y-14113455D02*
X17890689Y-14008693D01*
X17890689Y-14008693D02*
X17881165Y-13989646D01*
X17881165Y-13989646D02*
X17862117Y-13980122D01*
X17862117Y-13980122D02*
X17824022Y-13980122D01*
X17824022Y-13980122D02*
X17804974Y-13989646D01*
X17890689Y-14103932D02*
X17871641Y-14113455D01*
X17871641Y-14113455D02*
X17824022Y-14113455D01*
X17824022Y-14113455D02*
X17804974Y-14103932D01*
X17804974Y-14103932D02*
X17795451Y-14084884D01*
X17795451Y-14084884D02*
X17795451Y-14065836D01*
X17795451Y-14065836D02*
X17804974Y-14046789D01*
X17804974Y-14046789D02*
X17824022Y-14037265D01*
X17824022Y-14037265D02*
X17871641Y-14037265D01*
X17871641Y-14037265D02*
X17890689Y-14027741D01*
X17957355Y-13980122D02*
X18033546Y-13980122D01*
X17985927Y-13913455D02*
X17985927Y-14084884D01*
X17985927Y-14084884D02*
X17995451Y-14103932D01*
X17995451Y-14103932D02*
X18014498Y-14113455D01*
X18014498Y-14113455D02*
X18033546Y-14113455D01*
X18176403Y-14103932D02*
X18157355Y-14113455D01*
X18157355Y-14113455D02*
X18119260Y-14113455D01*
X18119260Y-14113455D02*
X18100213Y-14103932D01*
X18100213Y-14103932D02*
X18090689Y-14084884D01*
X18090689Y-14084884D02*
X18090689Y-14008693D01*
X18090689Y-14008693D02*
X18100213Y-13989646D01*
X18100213Y-13989646D02*
X18119260Y-13980122D01*
X18119260Y-13980122D02*
X18157355Y-13980122D01*
X18157355Y-13980122D02*
X18176403Y-13989646D01*
X18176403Y-13989646D02*
X18185927Y-14008693D01*
X18185927Y-14008693D02*
X18185927Y-14027741D01*
X18185927Y-14027741D02*
X18090689Y-14046789D01*
X18357355Y-14113455D02*
X18357355Y-13913455D01*
X18357355Y-14103932D02*
X18338308Y-14113455D01*
X18338308Y-14113455D02*
X18300213Y-14113455D01*
X18300213Y-14113455D02*
X18281165Y-14103932D01*
X18281165Y-14103932D02*
X18271641Y-14094408D01*
X18271641Y-14094408D02*
X18262117Y-14075360D01*
X18262117Y-14075360D02*
X18262117Y-14018217D01*
X18262117Y-14018217D02*
X18271641Y-13999170D01*
X18271641Y-13999170D02*
X18281165Y-13989646D01*
X18281165Y-13989646D02*
X18300213Y-13980122D01*
X18300213Y-13980122D02*
X18338308Y-13980122D01*
X18338308Y-13980122D02*
X18357355Y-13989646D01*
X18433546Y-14189646D02*
X18443070Y-14180122D01*
X18443070Y-14180122D02*
X18462117Y-14151551D01*
X18462117Y-14151551D02*
X18471641Y-14132503D01*
X18471641Y-14132503D02*
X18481165Y-14103932D01*
X18481165Y-14103932D02*
X18490689Y-14056312D01*
X18490689Y-14056312D02*
X18490689Y-14018217D01*
X18490689Y-14018217D02*
X18481165Y-13970598D01*
X18481165Y-13970598D02*
X18471641Y-13942027D01*
X18471641Y-13942027D02*
X18462117Y-13922979D01*
X18462117Y-13922979D02*
X18443070Y-13894408D01*
X18443070Y-13894408D02*
X18433546Y-13884884D01*
X11577530Y-14221972D02*
X11577530Y-14421972D01*
X11477530Y-14321972D02*
X11677530Y-14321972D01*
X11919260Y-14213455D02*
X12043069Y-14213455D01*
X12043069Y-14213455D02*
X11976402Y-14289646D01*
X11976402Y-14289646D02*
X12004974Y-14289646D01*
X12004974Y-14289646D02*
X12024021Y-14299170D01*
X12024021Y-14299170D02*
X12033545Y-14308693D01*
X12033545Y-14308693D02*
X12043069Y-14327741D01*
X12043069Y-14327741D02*
X12043069Y-14375360D01*
X12043069Y-14375360D02*
X12033545Y-14394408D01*
X12033545Y-14394408D02*
X12024021Y-14403932D01*
X12024021Y-14403932D02*
X12004974Y-14413455D01*
X12004974Y-14413455D02*
X11947831Y-14413455D01*
X11947831Y-14413455D02*
X11928783Y-14403932D01*
X11928783Y-14403932D02*
X11919260Y-14394408D01*
X12128783Y-14394408D02*
X12138307Y-14403932D01*
X12138307Y-14403932D02*
X12128783Y-14413455D01*
X12128783Y-14413455D02*
X12119260Y-14403932D01*
X12119260Y-14403932D02*
X12128783Y-14394408D01*
X12128783Y-14394408D02*
X12128783Y-14413455D01*
X12319260Y-14213455D02*
X12224021Y-14213455D01*
X12224021Y-14213455D02*
X12214498Y-14308693D01*
X12214498Y-14308693D02*
X12224021Y-14299170D01*
X12224021Y-14299170D02*
X12243069Y-14289646D01*
X12243069Y-14289646D02*
X12290688Y-14289646D01*
X12290688Y-14289646D02*
X12309736Y-14299170D01*
X12309736Y-14299170D02*
X12319260Y-14308693D01*
X12319260Y-14308693D02*
X12328783Y-14327741D01*
X12328783Y-14327741D02*
X12328783Y-14375360D01*
X12328783Y-14375360D02*
X12319260Y-14394408D01*
X12319260Y-14394408D02*
X12309736Y-14403932D01*
X12309736Y-14403932D02*
X12290688Y-14413455D01*
X12290688Y-14413455D02*
X12243069Y-14413455D01*
X12243069Y-14413455D02*
X12224021Y-14403932D01*
X12224021Y-14403932D02*
X12214498Y-14394408D01*
X12452593Y-14213455D02*
X12471641Y-14213455D01*
X12471641Y-14213455D02*
X12490688Y-14222979D01*
X12490688Y-14222979D02*
X12500212Y-14232503D01*
X12500212Y-14232503D02*
X12509736Y-14251551D01*
X12509736Y-14251551D02*
X12519260Y-14289646D01*
X12519260Y-14289646D02*
X12519260Y-14337265D01*
X12519260Y-14337265D02*
X12509736Y-14375360D01*
X12509736Y-14375360D02*
X12500212Y-14394408D01*
X12500212Y-14394408D02*
X12490688Y-14403932D01*
X12490688Y-14403932D02*
X12471641Y-14413455D01*
X12471641Y-14413455D02*
X12452593Y-14413455D01*
X12452593Y-14413455D02*
X12433545Y-14403932D01*
X12433545Y-14403932D02*
X12424021Y-14394408D01*
X12424021Y-14394408D02*
X12414498Y-14375360D01*
X12414498Y-14375360D02*
X12404974Y-14337265D01*
X12404974Y-14337265D02*
X12404974Y-14289646D01*
X12404974Y-14289646D02*
X12414498Y-14251551D01*
X12414498Y-14251551D02*
X12424021Y-14232503D01*
X12424021Y-14232503D02*
X12433545Y-14222979D01*
X12433545Y-14222979D02*
X12452593Y-14213455D01*
X12643069Y-14213455D02*
X12662117Y-14213455D01*
X12662117Y-14213455D02*
X12681164Y-14222979D01*
X12681164Y-14222979D02*
X12690688Y-14232503D01*
X12690688Y-14232503D02*
X12700212Y-14251551D01*
X12700212Y-14251551D02*
X12709736Y-14289646D01*
X12709736Y-14289646D02*
X12709736Y-14337265D01*
X12709736Y-14337265D02*
X12700212Y-14375360D01*
X12700212Y-14375360D02*
X12690688Y-14394408D01*
X12690688Y-14394408D02*
X12681164Y-14403932D01*
X12681164Y-14403932D02*
X12662117Y-14413455D01*
X12662117Y-14413455D02*
X12643069Y-14413455D01*
X12643069Y-14413455D02*
X12624021Y-14403932D01*
X12624021Y-14403932D02*
X12614498Y-14394408D01*
X12614498Y-14394408D02*
X12604974Y-14375360D01*
X12604974Y-14375360D02*
X12595450Y-14337265D01*
X12595450Y-14337265D02*
X12595450Y-14289646D01*
X12595450Y-14289646D02*
X12604974Y-14251551D01*
X12604974Y-14251551D02*
X12614498Y-14232503D01*
X12614498Y-14232503D02*
X12624021Y-14222979D01*
X12624021Y-14222979D02*
X12643069Y-14213455D01*
X12795450Y-14413455D02*
X12795450Y-14280122D01*
X12795450Y-14299170D02*
X12804974Y-14289646D01*
X12804974Y-14289646D02*
X12824021Y-14280122D01*
X12824021Y-14280122D02*
X12852593Y-14280122D01*
X12852593Y-14280122D02*
X12871641Y-14289646D01*
X12871641Y-14289646D02*
X12881164Y-14308693D01*
X12881164Y-14308693D02*
X12881164Y-14413455D01*
X12881164Y-14308693D02*
X12890688Y-14289646D01*
X12890688Y-14289646D02*
X12909736Y-14280122D01*
X12909736Y-14280122D02*
X12938307Y-14280122D01*
X12938307Y-14280122D02*
X12957355Y-14289646D01*
X12957355Y-14289646D02*
X12966879Y-14308693D01*
X12966879Y-14308693D02*
X12966879Y-14413455D01*
X13062117Y-14413455D02*
X13062117Y-14280122D01*
X13062117Y-14299170D02*
X13071641Y-14289646D01*
X13071641Y-14289646D02*
X13090688Y-14280122D01*
X13090688Y-14280122D02*
X13119260Y-14280122D01*
X13119260Y-14280122D02*
X13138307Y-14289646D01*
X13138307Y-14289646D02*
X13147831Y-14308693D01*
X13147831Y-14308693D02*
X13147831Y-14413455D01*
X13147831Y-14308693D02*
X13157355Y-14289646D01*
X13157355Y-14289646D02*
X13176402Y-14280122D01*
X13176402Y-14280122D02*
X13204974Y-14280122D01*
X13204974Y-14280122D02*
X13224022Y-14289646D01*
X13224022Y-14289646D02*
X13233545Y-14308693D01*
X13233545Y-14308693D02*
X13233545Y-14413455D01*
X13624022Y-14203932D02*
X13452593Y-14461074D01*
X13881164Y-14213455D02*
X13900212Y-14213455D01*
X13900212Y-14213455D02*
X13919260Y-14222979D01*
X13919260Y-14222979D02*
X13928784Y-14232503D01*
X13928784Y-14232503D02*
X13938307Y-14251551D01*
X13938307Y-14251551D02*
X13947831Y-14289646D01*
X13947831Y-14289646D02*
X13947831Y-14337265D01*
X13947831Y-14337265D02*
X13938307Y-14375360D01*
X13938307Y-14375360D02*
X13928784Y-14394408D01*
X13928784Y-14394408D02*
X13919260Y-14403932D01*
X13919260Y-14403932D02*
X13900212Y-14413455D01*
X13900212Y-14413455D02*
X13881164Y-14413455D01*
X13881164Y-14413455D02*
X13862117Y-14403932D01*
X13862117Y-14403932D02*
X13852593Y-14394408D01*
X13852593Y-14394408D02*
X13843069Y-14375360D01*
X13843069Y-14375360D02*
X13833545Y-14337265D01*
X13833545Y-14337265D02*
X13833545Y-14289646D01*
X13833545Y-14289646D02*
X13843069Y-14251551D01*
X13843069Y-14251551D02*
X13852593Y-14232503D01*
X13852593Y-14232503D02*
X13862117Y-14222979D01*
X13862117Y-14222979D02*
X13881164Y-14213455D01*
X14033545Y-14394408D02*
X14043069Y-14403932D01*
X14043069Y-14403932D02*
X14033545Y-14413455D01*
X14033545Y-14413455D02*
X14024022Y-14403932D01*
X14024022Y-14403932D02*
X14033545Y-14394408D01*
X14033545Y-14394408D02*
X14033545Y-14413455D01*
X14233545Y-14413455D02*
X14119260Y-14413455D01*
X14176403Y-14413455D02*
X14176403Y-14213455D01*
X14176403Y-14213455D02*
X14157355Y-14242027D01*
X14157355Y-14242027D02*
X14138307Y-14261074D01*
X14138307Y-14261074D02*
X14119260Y-14270598D01*
X14300212Y-14213455D02*
X14424022Y-14213455D01*
X14424022Y-14213455D02*
X14357355Y-14289646D01*
X14357355Y-14289646D02*
X14385926Y-14289646D01*
X14385926Y-14289646D02*
X14404974Y-14299170D01*
X14404974Y-14299170D02*
X14414498Y-14308693D01*
X14414498Y-14308693D02*
X14424022Y-14327741D01*
X14424022Y-14327741D02*
X14424022Y-14375360D01*
X14424022Y-14375360D02*
X14414498Y-14394408D01*
X14414498Y-14394408D02*
X14404974Y-14403932D01*
X14404974Y-14403932D02*
X14385926Y-14413455D01*
X14385926Y-14413455D02*
X14328784Y-14413455D01*
X14328784Y-14413455D02*
X14309736Y-14403932D01*
X14309736Y-14403932D02*
X14300212Y-14394408D01*
X14490688Y-14213455D02*
X14624022Y-14213455D01*
X14624022Y-14213455D02*
X14538307Y-14413455D01*
X14728784Y-14299170D02*
X14709736Y-14289646D01*
X14709736Y-14289646D02*
X14700212Y-14280122D01*
X14700212Y-14280122D02*
X14690688Y-14261074D01*
X14690688Y-14261074D02*
X14690688Y-14251551D01*
X14690688Y-14251551D02*
X14700212Y-14232503D01*
X14700212Y-14232503D02*
X14709736Y-14222979D01*
X14709736Y-14222979D02*
X14728784Y-14213455D01*
X14728784Y-14213455D02*
X14766879Y-14213455D01*
X14766879Y-14213455D02*
X14785926Y-14222979D01*
X14785926Y-14222979D02*
X14795450Y-14232503D01*
X14795450Y-14232503D02*
X14804974Y-14251551D01*
X14804974Y-14251551D02*
X14804974Y-14261074D01*
X14804974Y-14261074D02*
X14795450Y-14280122D01*
X14795450Y-14280122D02*
X14785926Y-14289646D01*
X14785926Y-14289646D02*
X14766879Y-14299170D01*
X14766879Y-14299170D02*
X14728784Y-14299170D01*
X14728784Y-14299170D02*
X14709736Y-14308693D01*
X14709736Y-14308693D02*
X14700212Y-14318217D01*
X14700212Y-14318217D02*
X14690688Y-14337265D01*
X14690688Y-14337265D02*
X14690688Y-14375360D01*
X14690688Y-14375360D02*
X14700212Y-14394408D01*
X14700212Y-14394408D02*
X14709736Y-14403932D01*
X14709736Y-14403932D02*
X14728784Y-14413455D01*
X14728784Y-14413455D02*
X14766879Y-14413455D01*
X14766879Y-14413455D02*
X14785926Y-14403932D01*
X14785926Y-14403932D02*
X14795450Y-14394408D01*
X14795450Y-14394408D02*
X14804974Y-14375360D01*
X14804974Y-14375360D02*
X14804974Y-14337265D01*
X14804974Y-14337265D02*
X14795450Y-14318217D01*
X14795450Y-14318217D02*
X14785926Y-14308693D01*
X14785926Y-14308693D02*
X14766879Y-14299170D01*
X14881165Y-14213455D02*
X14881165Y-14251551D01*
X14957355Y-14213455D02*
X14957355Y-14251551D01*
X15252593Y-14489646D02*
X15243069Y-14480122D01*
X15243069Y-14480122D02*
X15224022Y-14451551D01*
X15224022Y-14451551D02*
X15214498Y-14432503D01*
X15214498Y-14432503D02*
X15204974Y-14403932D01*
X15204974Y-14403932D02*
X15195450Y-14356312D01*
X15195450Y-14356312D02*
X15195450Y-14318217D01*
X15195450Y-14318217D02*
X15204974Y-14270598D01*
X15204974Y-14270598D02*
X15214498Y-14242027D01*
X15214498Y-14242027D02*
X15224022Y-14222979D01*
X15224022Y-14222979D02*
X15243069Y-14194408D01*
X15243069Y-14194408D02*
X15252593Y-14184884D01*
X15319260Y-14232503D02*
X15328784Y-14222979D01*
X15328784Y-14222979D02*
X15347831Y-14213455D01*
X15347831Y-14213455D02*
X15395450Y-14213455D01*
X15395450Y-14213455D02*
X15414498Y-14222979D01*
X15414498Y-14222979D02*
X15424022Y-14232503D01*
X15424022Y-14232503D02*
X15433546Y-14251551D01*
X15433546Y-14251551D02*
X15433546Y-14270598D01*
X15433546Y-14270598D02*
X15424022Y-14299170D01*
X15424022Y-14299170D02*
X15309736Y-14413455D01*
X15309736Y-14413455D02*
X15433546Y-14413455D01*
X15671641Y-14413455D02*
X15671641Y-14213455D01*
X15757355Y-14413455D02*
X15757355Y-14308693D01*
X15757355Y-14308693D02*
X15747831Y-14289646D01*
X15747831Y-14289646D02*
X15728784Y-14280122D01*
X15728784Y-14280122D02*
X15700212Y-14280122D01*
X15700212Y-14280122D02*
X15681165Y-14289646D01*
X15681165Y-14289646D02*
X15671641Y-14299170D01*
X15881165Y-14413455D02*
X15862117Y-14403932D01*
X15862117Y-14403932D02*
X15852593Y-14394408D01*
X15852593Y-14394408D02*
X15843069Y-14375360D01*
X15843069Y-14375360D02*
X15843069Y-14318217D01*
X15843069Y-14318217D02*
X15852593Y-14299170D01*
X15852593Y-14299170D02*
X15862117Y-14289646D01*
X15862117Y-14289646D02*
X15881165Y-14280122D01*
X15881165Y-14280122D02*
X15909736Y-14280122D01*
X15909736Y-14280122D02*
X15928784Y-14289646D01*
X15928784Y-14289646D02*
X15938308Y-14299170D01*
X15938308Y-14299170D02*
X15947831Y-14318217D01*
X15947831Y-14318217D02*
X15947831Y-14375360D01*
X15947831Y-14375360D02*
X15938308Y-14394408D01*
X15938308Y-14394408D02*
X15928784Y-14403932D01*
X15928784Y-14403932D02*
X15909736Y-14413455D01*
X15909736Y-14413455D02*
X15881165Y-14413455D01*
X16062117Y-14413455D02*
X16043069Y-14403932D01*
X16043069Y-14403932D02*
X16033546Y-14384884D01*
X16033546Y-14384884D02*
X16033546Y-14213455D01*
X16214498Y-14403932D02*
X16195450Y-14413455D01*
X16195450Y-14413455D02*
X16157355Y-14413455D01*
X16157355Y-14413455D02*
X16138308Y-14403932D01*
X16138308Y-14403932D02*
X16128784Y-14384884D01*
X16128784Y-14384884D02*
X16128784Y-14308693D01*
X16128784Y-14308693D02*
X16138308Y-14289646D01*
X16138308Y-14289646D02*
X16157355Y-14280122D01*
X16157355Y-14280122D02*
X16195450Y-14280122D01*
X16195450Y-14280122D02*
X16214498Y-14289646D01*
X16214498Y-14289646D02*
X16224022Y-14308693D01*
X16224022Y-14308693D02*
X16224022Y-14327741D01*
X16224022Y-14327741D02*
X16128784Y-14346789D01*
X16300212Y-14403932D02*
X16319260Y-14413455D01*
X16319260Y-14413455D02*
X16357355Y-14413455D01*
X16357355Y-14413455D02*
X16376403Y-14403932D01*
X16376403Y-14403932D02*
X16385927Y-14384884D01*
X16385927Y-14384884D02*
X16385927Y-14375360D01*
X16385927Y-14375360D02*
X16376403Y-14356312D01*
X16376403Y-14356312D02*
X16357355Y-14346789D01*
X16357355Y-14346789D02*
X16328784Y-14346789D01*
X16328784Y-14346789D02*
X16309736Y-14337265D01*
X16309736Y-14337265D02*
X16300212Y-14318217D01*
X16300212Y-14318217D02*
X16300212Y-14308693D01*
X16300212Y-14308693D02*
X16309736Y-14289646D01*
X16309736Y-14289646D02*
X16328784Y-14280122D01*
X16328784Y-14280122D02*
X16357355Y-14280122D01*
X16357355Y-14280122D02*
X16376403Y-14289646D01*
X16452593Y-14489646D02*
X16462117Y-14480122D01*
X16462117Y-14480122D02*
X16481165Y-14451551D01*
X16481165Y-14451551D02*
X16490689Y-14432503D01*
X16490689Y-14432503D02*
X16500212Y-14403932D01*
X16500212Y-14403932D02*
X16509736Y-14356312D01*
X16509736Y-14356312D02*
X16509736Y-14318217D01*
X16509736Y-14318217D02*
X16500212Y-14270598D01*
X16500212Y-14270598D02*
X16490689Y-14242027D01*
X16490689Y-14242027D02*
X16481165Y-14222979D01*
X16481165Y-14222979D02*
X16462117Y-14194408D01*
X16462117Y-14194408D02*
X16452593Y-14184884D01*
X16814498Y-14489646D02*
X16804974Y-14480122D01*
X16804974Y-14480122D02*
X16785927Y-14451551D01*
X16785927Y-14451551D02*
X16776403Y-14432503D01*
X16776403Y-14432503D02*
X16766879Y-14403932D01*
X16766879Y-14403932D02*
X16757355Y-14356312D01*
X16757355Y-14356312D02*
X16757355Y-14318217D01*
X16757355Y-14318217D02*
X16766879Y-14270598D01*
X16766879Y-14270598D02*
X16776403Y-14242027D01*
X16776403Y-14242027D02*
X16785927Y-14222979D01*
X16785927Y-14222979D02*
X16804974Y-14194408D01*
X16804974Y-14194408D02*
X16814498Y-14184884D01*
X16890689Y-14280122D02*
X16890689Y-14413455D01*
X16890689Y-14299170D02*
X16900212Y-14289646D01*
X16900212Y-14289646D02*
X16919260Y-14280122D01*
X16919260Y-14280122D02*
X16947832Y-14280122D01*
X16947832Y-14280122D02*
X16966879Y-14289646D01*
X16966879Y-14289646D02*
X16976403Y-14308693D01*
X16976403Y-14308693D02*
X16976403Y-14413455D01*
X17100212Y-14413455D02*
X17081165Y-14403932D01*
X17081165Y-14403932D02*
X17071641Y-14394408D01*
X17071641Y-14394408D02*
X17062117Y-14375360D01*
X17062117Y-14375360D02*
X17062117Y-14318217D01*
X17062117Y-14318217D02*
X17071641Y-14299170D01*
X17071641Y-14299170D02*
X17081165Y-14289646D01*
X17081165Y-14289646D02*
X17100212Y-14280122D01*
X17100212Y-14280122D02*
X17128784Y-14280122D01*
X17128784Y-14280122D02*
X17147832Y-14289646D01*
X17147832Y-14289646D02*
X17157355Y-14299170D01*
X17157355Y-14299170D02*
X17166879Y-14318217D01*
X17166879Y-14318217D02*
X17166879Y-14375360D01*
X17166879Y-14375360D02*
X17157355Y-14394408D01*
X17157355Y-14394408D02*
X17147832Y-14403932D01*
X17147832Y-14403932D02*
X17128784Y-14413455D01*
X17128784Y-14413455D02*
X17100212Y-14413455D01*
X17224022Y-14280122D02*
X17300212Y-14280122D01*
X17252593Y-14213455D02*
X17252593Y-14384884D01*
X17252593Y-14384884D02*
X17262117Y-14403932D01*
X17262117Y-14403932D02*
X17281165Y-14413455D01*
X17281165Y-14413455D02*
X17300212Y-14413455D01*
X17519260Y-14280122D02*
X17519260Y-14480122D01*
X17519260Y-14289646D02*
X17538308Y-14280122D01*
X17538308Y-14280122D02*
X17576403Y-14280122D01*
X17576403Y-14280122D02*
X17595451Y-14289646D01*
X17595451Y-14289646D02*
X17604974Y-14299170D01*
X17604974Y-14299170D02*
X17614498Y-14318217D01*
X17614498Y-14318217D02*
X17614498Y-14375360D01*
X17614498Y-14375360D02*
X17604974Y-14394408D01*
X17604974Y-14394408D02*
X17595451Y-14403932D01*
X17595451Y-14403932D02*
X17576403Y-14413455D01*
X17576403Y-14413455D02*
X17538308Y-14413455D01*
X17538308Y-14413455D02*
X17519260Y-14403932D01*
X17728784Y-14413455D02*
X17709736Y-14403932D01*
X17709736Y-14403932D02*
X17700213Y-14384884D01*
X17700213Y-14384884D02*
X17700213Y-14213455D01*
X17890689Y-14413455D02*
X17890689Y-14308693D01*
X17890689Y-14308693D02*
X17881165Y-14289646D01*
X17881165Y-14289646D02*
X17862117Y-14280122D01*
X17862117Y-14280122D02*
X17824022Y-14280122D01*
X17824022Y-14280122D02*
X17804974Y-14289646D01*
X17890689Y-14403932D02*
X17871641Y-14413455D01*
X17871641Y-14413455D02*
X17824022Y-14413455D01*
X17824022Y-14413455D02*
X17804974Y-14403932D01*
X17804974Y-14403932D02*
X17795451Y-14384884D01*
X17795451Y-14384884D02*
X17795451Y-14365836D01*
X17795451Y-14365836D02*
X17804974Y-14346789D01*
X17804974Y-14346789D02*
X17824022Y-14337265D01*
X17824022Y-14337265D02*
X17871641Y-14337265D01*
X17871641Y-14337265D02*
X17890689Y-14327741D01*
X17957355Y-14280122D02*
X18033546Y-14280122D01*
X17985927Y-14213455D02*
X17985927Y-14384884D01*
X17985927Y-14384884D02*
X17995451Y-14403932D01*
X17995451Y-14403932D02*
X18014498Y-14413455D01*
X18014498Y-14413455D02*
X18033546Y-14413455D01*
X18176403Y-14403932D02*
X18157355Y-14413455D01*
X18157355Y-14413455D02*
X18119260Y-14413455D01*
X18119260Y-14413455D02*
X18100213Y-14403932D01*
X18100213Y-14403932D02*
X18090689Y-14384884D01*
X18090689Y-14384884D02*
X18090689Y-14308693D01*
X18090689Y-14308693D02*
X18100213Y-14289646D01*
X18100213Y-14289646D02*
X18119260Y-14280122D01*
X18119260Y-14280122D02*
X18157355Y-14280122D01*
X18157355Y-14280122D02*
X18176403Y-14289646D01*
X18176403Y-14289646D02*
X18185927Y-14308693D01*
X18185927Y-14308693D02*
X18185927Y-14327741D01*
X18185927Y-14327741D02*
X18090689Y-14346789D01*
X18357355Y-14413455D02*
X18357355Y-14213455D01*
X18357355Y-14403932D02*
X18338308Y-14413455D01*
X18338308Y-14413455D02*
X18300213Y-14413455D01*
X18300213Y-14413455D02*
X18281165Y-14403932D01*
X18281165Y-14403932D02*
X18271641Y-14394408D01*
X18271641Y-14394408D02*
X18262117Y-14375360D01*
X18262117Y-14375360D02*
X18262117Y-14318217D01*
X18262117Y-14318217D02*
X18271641Y-14299170D01*
X18271641Y-14299170D02*
X18281165Y-14289646D01*
X18281165Y-14289646D02*
X18300213Y-14280122D01*
X18300213Y-14280122D02*
X18338308Y-14280122D01*
X18338308Y-14280122D02*
X18357355Y-14289646D01*
X18433546Y-14489646D02*
X18443070Y-14480122D01*
X18443070Y-14480122D02*
X18462117Y-14451551D01*
X18462117Y-14451551D02*
X18471641Y-14432503D01*
X18471641Y-14432503D02*
X18481165Y-14403932D01*
X18481165Y-14403932D02*
X18490689Y-14356312D01*
X18490689Y-14356312D02*
X18490689Y-14318217D01*
X18490689Y-14318217D02*
X18481165Y-14270598D01*
X18481165Y-14270598D02*
X18471641Y-14242027D01*
X18471641Y-14242027D02*
X18462117Y-14222979D01*
X18462117Y-14222979D02*
X18443070Y-14194408D01*
X18443070Y-14194408D02*
X18433546Y-14184884D01*
M02*
