M48
; DRILL file {KiCad 9.0.9-9.0.9~ubuntu24.04.1} date 2026-07-09T23:06:31+0200
; FORMAT={-:-/ absolute / metric / decimal}
; #@! TF.CreationDate,2026-07-09T23:06:31+02:00
; #@! TF.GenerationSoftware,Kicad,Pcbnew,9.0.9-9.0.9~ubuntu24.04.1
; #@! TF.FileFunction,Plated,1,2,PTH
FMAT,2
METRIC
; #@! TA.AperFunction,Plated,PTH,ViaDrill
T1C0.300
; #@! TA.AperFunction,Plated,PTH,ViaDrill
T2C0.400
; #@! TA.AperFunction,Plated,PTH,ComponentDrill
T3C0.600
; #@! TA.AperFunction,Plated,PTH,ComponentDrill
T4C0.800
; #@! TA.AperFunction,Plated,PTH,ComponentDrill
T5C1.000
; #@! TA.AperFunction,Plated,PTH,ComponentDrill
T6C1.020
; #@! TA.AperFunction,Plated,PTH,ComponentDrill
T7C1.100
%
G90
G05
T1
X118.14Y-115.83
X119.92Y-109.84
X119.98Y-125.624
X120.04Y-122.48
X120.32Y-89.9
X120.32Y-102.22
X120.4Y-83.2
X120.99Y-79.27
X122.37Y-109.86
X123.78Y-103.35
X123.85Y-129.87
X124.93Y-109.84
X125.57Y-121.23
X125.6Y-89.87
X125.63Y-97.46
X125.674Y-80.936
X126.23Y-76.59
X128.24Y-129.91
X129.19Y-97.46
X129.39Y-123.08
X130.0Y-84.0
X130.7Y-89.9
X131.86Y-110.64
X132.0Y-77.7
X132.3Y-97.48
X133.6Y-92.45
X133.7Y-103.0
X134.44Y-96.24
X136.2Y-95.0
X136.2Y-100.4
X136.5Y-79.7
X136.8Y-89.8
X139.9Y-78.39
X139.92Y-99.47
X140.4Y-83.59
X140.6Y-98.4
X141.0Y-91.0
X141.45Y-128.02
X141.78Y-94.3
X141.8Y-111.46
X142.1Y-77.1
X142.43Y-101.87
X142.59Y-99.88
X142.75Y-81.7
X142.99Y-83.68
X143.1Y-80.4
X143.6Y-97.82
X144.16Y-124.66
X145.64Y-90.49
X145.8Y-96.4
X146.186Y-80.387
X146.2Y-129.04
X146.55Y-77.7
X146.9Y-102.61
X147.0Y-91.0
X147.35Y-95.25
X147.375Y-100.865
X148.0Y-118.2
X148.6Y-83.35
X148.6Y-99.8
X148.7Y-78.92
X148.901Y-124.657
X149.38Y-112.86
X149.83Y-82.87
X150.8Y-96.4
X151.1Y-81.17
X151.32Y-128.95
X151.55Y-121.5
X151.6Y-108.8
X151.89Y-112.83
X152.8Y-90.2
X153.24Y-77.52
X153.9Y-102.3
X153.94Y-96.4
X154.32Y-124.83
X154.85Y-108.783
X155.4Y-118.2
X155.74Y-109.56
X155.8Y-90.2
X157.0Y-92.44
X157.0Y-96.4
X157.06Y-113.74
X157.2Y-102.2
X158.2Y-90.2
X158.76Y-126.47
X158.79Y-121.43
X159.2Y-92.2
X159.305Y-93.345
X160.0Y-90.2
X160.24Y-82.81
X160.27Y-75.97
X160.6Y-94.2
X160.83Y-111.69
X160.83Y-113.89
X160.84Y-102.18
X160.86Y-99.49
X161.4Y-92.6
X161.47Y-130.08
X162.2Y-108.54
X163.19Y-95.98
X163.89Y-94.48
X164.57Y-99.53
X164.6Y-102.22
X165.43Y-76.11
X165.53Y-112.13
X165.88Y-97.15
X165.89Y-89.31
X165.944Y-98.744
X167.82Y-82.83
X168.02Y-129.97
X168.51Y-103.71
X168.6Y-108.8
X168.6Y-117.4
X169.18Y-97.82
X170.3Y-112.9
X170.39Y-82.83
X170.4Y-98.0
X171.7Y-86.81
X172.38Y-111.63
X172.76Y-106.89
X174.42Y-86.76
X174.46Y-96.23
X174.798Y-125.01
X174.85Y-129.14
X174.9Y-121.18
X176.08Y-76.02
X176.66Y-105.26
X178.57Y-108.03
X178.68Y-79.37
X178.71Y-113.11
X178.73Y-86.83
X178.74Y-117.78
X178.77Y-96.26
T2
X139.2Y-91.0
X139.2Y-95.24
T3
X139.63Y-114.7
X141.13Y-114.7
T4
X132.21Y-127.36
X134.75Y-127.36
X135.79Y-112.92
X135.79Y-123.08
X137.29Y-127.36
T5
X140.085Y-120.085
X140.085Y-122.625
X146.875Y-110.375
X146.875Y-115.455
X149.415Y-110.375
X149.415Y-115.455
X151.955Y-110.375
X151.955Y-115.455
X154.495Y-110.375
X154.495Y-115.455
X156.42Y-79.05
X156.42Y-81.59
X157.035Y-110.375
X157.035Y-115.455
X158.96Y-79.05
X158.96Y-81.59
X159.575Y-110.375
X159.575Y-115.455
X161.5Y-79.05
X161.5Y-81.59
X162.115Y-110.375
X162.115Y-115.455
X164.04Y-79.05
X164.04Y-81.59
X164.655Y-110.375
X164.655Y-115.455
X166.58Y-79.05
X166.58Y-81.59
X169.12Y-79.05
X169.12Y-81.59
X171.66Y-79.05
X171.66Y-81.59
T6
X118.97Y-87.58
X118.97Y-105.36
X121.51Y-105.36
X124.05Y-87.58
X124.05Y-105.36
X126.59Y-105.36
X129.13Y-105.36
X131.67Y-87.58
X131.67Y-105.36
X136.75Y-87.58
X136.75Y-105.36
X139.29Y-105.36
X141.83Y-87.58
X141.83Y-105.36
X144.37Y-105.36
X146.91Y-87.58
X149.45Y-87.58
X149.45Y-105.36
X151.99Y-105.36
X159.61Y-105.36
X162.15Y-87.58
X162.15Y-105.36
X164.69Y-105.36
X167.23Y-87.58
X167.23Y-105.36
T7
X172.0Y-100.885
X174.54Y-100.885
X177.08Y-100.885
M30
