%TF.GenerationSoftware,KiCad,Pcbnew,9.0.9-9.0.9~ubuntu24.04.1*%
%TF.CreationDate,2026-07-09T23:06:26+02:00*%
%TF.ProjectId,MicroPicoDrive,4d696372-6f50-4696-936f-44726976652e,1.4.h*%
%TF.SameCoordinates,Original*%
%TF.FileFunction,Paste,Top*%
%TF.FilePolarity,Positive*%
%FSLAX46Y46*%
G04 Gerber Fmt 4.6, Leading zero omitted, Abs format (unit mm)*
G04 Created by KiCad (PCBNEW 9.0.9-9.0.9~ubuntu24.04.1) date 2026-07-09 23:06:26*
%MOMM*%
%LPD*%
G01*
G04 APERTURE LIST*
G04 Aperture macros list*
%AMRoundRect*
0 Rectangle with rounded corners*
0 $1 Rounding radius*
0 $2 $3 $4 $5 $6 $7 $8 $9 X,Y pos of 4 corners*
0 Add a 4 corners polygon primitive as box body*
4,1,4,$2,$3,$4,$5,$6,$7,$8,$9,$2,$3,0*
0 Add four circle primitives for the rounded corners*
1,1,$1+$1,$2,$3*
1,1,$1+$1,$4,$5*
1,1,$1+$1,$6,$7*
1,1,$1+$1,$8,$9*
0 Add four rect primitives between the rounded corners*
20,1,$1+$1,$2,$3,$4,$5,0*
20,1,$1+$1,$4,$5,$6,$7,0*
20,1,$1+$1,$6,$7,$8,$9,0*
20,1,$1+$1,$8,$9,$2,$3,0*%
G04 Aperture macros list end*
%ADD10RoundRect,0.225000X-0.225000X-0.250000X0.225000X-0.250000X0.225000X0.250000X-0.225000X0.250000X0*%
%ADD11RoundRect,0.225000X0.225000X0.250000X-0.225000X0.250000X-0.225000X-0.250000X0.225000X-0.250000X0*%
%ADD12R,1.200000X0.600000*%
%ADD13RoundRect,0.225000X-0.250000X0.225000X-0.250000X-0.225000X0.250000X-0.225000X0.250000X0.225000X0*%
%ADD14RoundRect,0.250000X-1.000000X-0.900000X1.000000X-0.900000X1.000000X0.900000X-1.000000X0.900000X0*%
%ADD15RoundRect,0.200000X0.275000X-0.200000X0.275000X0.200000X-0.275000X0.200000X-0.275000X-0.200000X0*%
%ADD16R,1.475000X0.450000*%
G04 APERTURE END LIST*
D10*
%TO.C,C2*%
X148475000Y-95470000D03*
X150025000Y-95470000D03*
%TD*%
D11*
%TO.C,C4*%
X140875000Y-100900000D03*
X139325000Y-100900000D03*
%TD*%
D12*
%TO.C,IC2*%
X146020000Y-100820000D03*
X146020000Y-99870000D03*
X146020000Y-98920000D03*
X143520000Y-98920000D03*
X143520000Y-99870000D03*
X143520000Y-100820000D03*
%TD*%
D13*
%TO.C,C1*%
X148400000Y-101035000D03*
X148400000Y-102585000D03*
%TD*%
%TO.C,C5*%
X140900000Y-95415000D03*
X140900000Y-96965000D03*
%TD*%
D12*
%TO.C,IC1*%
X146020000Y-95250000D03*
X146020000Y-94300000D03*
X146020000Y-93350000D03*
X143520000Y-93350000D03*
X143520000Y-94300000D03*
X143520000Y-95250000D03*
%TD*%
D10*
%TO.C,C3*%
X144425000Y-84200000D03*
X145975000Y-84200000D03*
%TD*%
D14*
%TO.C,D1*%
X126962500Y-101180000D03*
X131262500Y-101180000D03*
%TD*%
D11*
%TO.C,C6*%
X138775000Y-84200000D03*
X137225000Y-84200000D03*
%TD*%
D15*
%TO.C,R4*%
X167200000Y-91225000D03*
X167200000Y-89575000D03*
%TD*%
D16*
%TO.C,IC3*%
X144638000Y-82289579D03*
X144638000Y-81639579D03*
X144638000Y-80989579D03*
X144638000Y-80339579D03*
X144638000Y-79689579D03*
X144638000Y-79039579D03*
X144638000Y-78389579D03*
X138762000Y-78389579D03*
X138762000Y-79039579D03*
X138762000Y-79689579D03*
X138762000Y-80339579D03*
X138762000Y-80989579D03*
X138762000Y-81639579D03*
X138762000Y-82289579D03*
%TD*%
M02*
