%TF.GenerationSoftware,KiCad,Pcbnew,9.0.9-9.0.9~ubuntu24.04.1*%
%TF.CreationDate,2026-07-09T23:06:26+02:00*%
%TF.ProjectId,MicroPicoDrive,4d696372-6f50-4696-936f-44726976652e,1.4.h*%
%TF.SameCoordinates,Original*%
%TF.FileFunction,Profile,NP*%
%FSLAX46Y46*%
G04 Gerber Fmt 4.6, Leading zero omitted, Abs format (unit mm)*
G04 Created by KiCad (PCBNEW 9.0.9-9.0.9~ubuntu24.04.1) date 2026-07-09 23:06:26*
%MOMM*%
%LPD*%
G01*
G04 APERTURE LIST*
%TA.AperFunction,Profile*%
%ADD10C,0.100000*%
%TD*%
G04 APERTURE END LIST*
D10*
X116825304Y-84462949D02*
X116849686Y-125570088D01*
X116825304Y-84462949D02*
G75*
G02*
X117071627Y-83500229I1999996J1149D01*
G01*
X117112659Y-126560235D02*
G75*
G02*
X116849686Y-125570088I1737041J991335D01*
G01*
X119099574Y-130041731D02*
X117112659Y-126560235D01*
X120835914Y-131050398D02*
G75*
G02*
X119099575Y-130041731I686J1999998D01*
G01*
X120835914Y-131050398D02*
X177136171Y-131069716D01*
X121080618Y-76188458D02*
X117071612Y-83500221D01*
X121080618Y-76188458D02*
G75*
G02*
X122834311Y-75150009I1753682J-961542D01*
G01*
X122834311Y-75150000D02*
X176898995Y-75005969D01*
X152190000Y-79132500D02*
X154060000Y-79132500D01*
X154060000Y-81542500D01*
X152190000Y-81542500D01*
X152190000Y-79132500D01*
X173950000Y-79165000D02*
X175870000Y-79165000D01*
X175870000Y-81500000D01*
X173950000Y-81500000D01*
X173950000Y-79165000D01*
X176898995Y-75005969D02*
G75*
G02*
X178553240Y-75497984I8005J-3000031D01*
G01*
X178551071Y-130483929D02*
G75*
G02*
X177136171Y-131069693I-1414271J1414429D01*
G01*
X178551071Y-130483929D02*
X179378599Y-129656401D01*
X178553232Y-75497996D02*
X178574786Y-75512144D01*
X178574786Y-75512144D02*
G75*
G02*
X179928554Y-78017966I-1646386J-2508056D01*
G01*
X179928540Y-78017966D02*
X179964385Y-128240704D01*
X179964385Y-128240704D02*
G75*
G02*
X179378602Y-129656404I-1999985J-1496D01*
G01*
M02*
