M48
; DRILL file {KiCad 9.0.9-9.0.9~ubuntu24.04.1} date 2026-07-11T21:41:52+0200
; FORMAT={-:-/ absolute / metric / decimal}
; #@! TF.CreationDate,2026-07-11T21:41:52+02:00
; #@! TF.GenerationSoftware,Kicad,Pcbnew,9.0.9-9.0.9~ubuntu24.04.1
; #@! TF.FileFunction,Plated,1,2,PTH
FMAT,2
METRIC
; #@! TA.AperFunction,Plated,PTH,ViaDrill
T1C0.400
; #@! TA.AperFunction,Plated,PTH,ComponentDrill
T2C0.900
; #@! TA.AperFunction,Plated,PTH,ComponentDrill
T3C1.000
%
G90
G05
T1
X128.5Y-94.55
X128.55Y-79.45
X131.425Y-92.525
X131.9Y-79.45
X132.375Y-103.675
X132.6Y-74.8
X133.05Y-88.3
X135.55Y-88.3
X136.025Y-82.0
X136.375Y-74.825
X137.832Y-91.36
X138.4Y-88.0
X140.2Y-74.8
X140.225Y-78.175
X140.9Y-88.0
X141.05Y-82.05
X141.525Y-103.475
X142.6Y-99.9
X143.1Y-96.04
X143.48Y-82.21
X143.725Y-86.75
X145.275Y-77.375
X146.775Y-100.025
X149.075Y-74.8
X149.34Y-80.32
X151.6Y-77.2
X152.925Y-103.625
X155.5Y-76.0
T2
X153.4Y-87.1
X153.4Y-89.64
X153.45Y-94.5
X153.45Y-97.04
T3
X133.065Y-86.0
X135.605Y-86.0
X138.145Y-86.0
X140.685Y-86.0
M30
