%TF.GenerationSoftware,KiCad,Pcbnew,9.0.9-9.0.9~ubuntu24.04.1*%
%TF.CreationDate,2026-07-11T21:40:51+02:00*%
%TF.ProjectId,MicroPicoDriveCartridge,4d696372-6f50-4696-936f-447269766543,1.4.e*%
%TF.SameCoordinates,Original*%
%TF.FileFunction,Soldermask,Top*%
%TF.FilePolarity,Negative*%
%FSLAX46Y46*%
G04 Gerber Fmt 4.6, Leading zero omitted, Abs format (unit mm)*
G04 Created by KiCad (PCBNEW 9.0.9-9.0.9~ubuntu24.04.1) date 2026-07-11 21:40:51*
%MOMM*%
%LPD*%
G01*
G04 APERTURE LIST*
G04 Aperture macros list*
%AMRoundRect*
0 Rectangle with rounded corners*
0 $1 Rounding radius*
0 $2 $3 $4 $5 $6 $7 $8 $9 X,Y pos of 4 corners*
0 Add a 4 corners polygon primitive as box body*
4,1,4,$2,$3,$4,$5,$6,$7,$8,$9,$2,$3,0*
0 Add four circle primitives for the rounded corners*
1,1,$1+$1,$2,$3*
1,1,$1+$1,$4,$5*
1,1,$1+$1,$6,$7*
1,1,$1+$1,$8,$9*
0 Add four rect primitives between the rounded corners*
20,1,$1+$1,$2,$3,$4,$5,0*
20,1,$1+$1,$4,$5,$6,$7,0*
20,1,$1+$1,$6,$7,$8,$9,0*
20,1,$1+$1,$8,$9,$2,$3,0*%
G04 Aperture macros list end*
%ADD10C,0.150000*%
%ADD11RoundRect,0.200000X0.275000X-0.200000X0.275000X0.200000X-0.275000X0.200000X-0.275000X-0.200000X0*%
%ADD12RoundRect,0.500000X-0.500000X-2.900000X0.500000X-2.900000X0.500000X2.900000X-0.500000X2.900000X0*%
%ADD13RoundRect,0.500000X-0.500000X-3.500000X0.500000X-3.500000X0.500000X3.500000X-0.500000X3.500000X0*%
%ADD14RoundRect,0.500000X-0.500000X-2.250000X0.500000X-2.250000X0.500000X2.250000X-0.500000X2.250000X0*%
%ADD15RoundRect,0.250000X-0.525000X-0.400000X0.525000X-0.400000X0.525000X0.400000X-0.525000X0.400000X0*%
%ADD16R,1.800000X1.800000*%
%ADD17C,1.800000*%
%ADD18R,1.700000X1.700000*%
%ADD19O,1.700000X1.700000*%
%ADD20RoundRect,0.200000X-0.200000X-0.275000X0.200000X-0.275000X0.200000X0.275000X-0.200000X0.275000X0*%
%ADD21C,0.900000*%
G04 APERTURE END LIST*
D10*
X130930000Y-63170000D02*
X154850000Y-63170000D01*
X154850000Y-71180000D01*
X130930000Y-71180000D01*
X130930000Y-63170000D01*
G36*
X130930000Y-63170000D02*
G01*
X154850000Y-63170000D01*
X154850000Y-71180000D01*
X130930000Y-71180000D01*
X130930000Y-63170000D01*
G37*
D11*
%TO.C,R1*%
X150300000Y-93150000D03*
X150300000Y-91500000D03*
%TD*%
D12*
%TO.C,J1*%
X133820000Y-68571731D03*
D13*
X136360000Y-67970000D03*
D14*
X138900000Y-69220000D03*
X141440000Y-69220000D03*
X143980000Y-69220000D03*
X146520000Y-69220000D03*
X149060000Y-69220000D03*
X151600000Y-69220000D03*
%TD*%
D15*
%TO.C,SW1*%
X128470000Y-102250000D03*
X136430000Y-102250000D03*
X128470000Y-106750000D03*
X136430000Y-106750000D03*
%TD*%
D16*
%TO.C,D2*%
X153450000Y-94500000D03*
D17*
X153450000Y-97040000D03*
%TD*%
D15*
%TO.C,SW2*%
X138745000Y-102250000D03*
X146705000Y-102250000D03*
X138745000Y-106750000D03*
X146705000Y-106750000D03*
%TD*%
D18*
%TO.C,SCR1*%
X133065000Y-86000000D03*
D19*
X135605000Y-86000000D03*
X138145000Y-86000000D03*
X140685000Y-86000000D03*
%TD*%
D20*
%TO.C,R2*%
X148600000Y-97900000D03*
X150250000Y-97900000D03*
%TD*%
D15*
%TO.C,SW3*%
X149045000Y-102225000D03*
X157005000Y-102225000D03*
X149045000Y-106725000D03*
X157005000Y-106725000D03*
%TD*%
D16*
%TO.C,D1*%
X153400000Y-87100000D03*
D17*
X153400000Y-89640000D03*
%TD*%
D21*
%TO.C,SD1*%
X142800000Y-104600000D03*
X134800000Y-104600000D03*
%TD*%
M02*
