%TF.GenerationSoftware,KiCad,Pcbnew,9.0.9-9.0.9~ubuntu24.04.1*%
%TF.CreationDate,2026-07-11T21:41:52+02:00*%
%TF.ProjectId,MicroPicoDriveCartridge,4d696372-6f50-4696-936f-447269766543,1.4.e*%
%TF.SameCoordinates,Original*%
%TF.FileFunction,Drillmap*%
%TF.FilePolarity,Positive*%
%FSLAX45Y45*%
G04 Gerber Fmt 4.5, Leading zero omitted, Abs format (unit mm)*
G04 Created by KiCad (PCBNEW 9.0.9-9.0.9~ubuntu24.04.1) date 2026-07-11 21:41:52*
%MOMM*%
%LPD*%
G01*
G04 APERTURE LIST*
%ADD10C,0.100000*%
%ADD11C,0.120000*%
%ADD12C,0.200000*%
G04 APERTURE END LIST*
D10*
X12702094Y-11088668D02*
G75*
G02*
X12425410Y-10608950I-7684J315218D01*
G01*
X12731000Y-7337000D02*
X12734594Y-9951052D01*
X12734594Y-9951052D02*
X12425406Y-10608948D01*
X15811000Y-7337000D02*
X15812500Y-9952387D01*
X15812500Y-9952387D02*
X16121688Y-10610282D01*
X15845006Y-11090003D02*
X12702092Y-11088668D01*
X16121688Y-10610282D02*
G75*
G02*
X15845000Y-11090003I-269008J-164498D01*
G01*
D11*
X12731000Y-7337000D02*
X12731000Y-6537902D01*
X12803361Y-6493180D02*
X12820443Y-6501721D01*
X12931000Y-7337000D02*
X12931000Y-6680607D01*
X13121000Y-6477711D02*
X13121000Y-7337000D01*
X13121000Y-7337000D02*
X12931000Y-7337000D01*
X13206355Y-6371645D02*
X13135645Y-6442355D01*
X13241711Y-6357000D02*
X15300289Y-6357000D01*
X15335645Y-6371645D02*
X15406355Y-6442355D01*
X15421000Y-6477711D02*
X15421000Y-7337000D01*
X15421000Y-7337000D02*
X15611000Y-7337000D01*
X15611000Y-7337000D02*
X15611000Y-6680607D01*
X15721557Y-6501721D02*
X15738639Y-6493180D01*
X15811000Y-7337000D02*
X15811000Y-6537902D01*
X12731000Y-6537902D02*
G75*
G02*
X12803361Y-6493180I50000J0D01*
G01*
X12820443Y-6501721D02*
G75*
G02*
X12931000Y-6680607I-89443J-178886D01*
G01*
X13121000Y-6477711D02*
G75*
G02*
X13135645Y-6442355I50000J0D01*
G01*
X13206355Y-6371645D02*
G75*
G02*
X13241711Y-6357000I35355J-35355D01*
G01*
X15300289Y-6357000D02*
G75*
G02*
X15335645Y-6371644I1J-50000D01*
G01*
X15406355Y-6442355D02*
G75*
G02*
X15420999Y-6477711I-35355J-35355D01*
G01*
X15611000Y-6680607D02*
G75*
G02*
X15721557Y-6501721I200010J-6D01*
G01*
X15738639Y-6493180D02*
G75*
G02*
X15810998Y-6537902I22361J-44720D01*
G01*
D12*
D10*
X12830000Y-9435000D02*
X12870000Y-9475000D01*
X12870000Y-9435000D02*
X12830000Y-9475000D01*
X12835000Y-7925000D02*
X12875000Y-7965000D01*
X12875000Y-7925000D02*
X12835000Y-7965000D01*
X13122500Y-9232500D02*
X13162500Y-9272500D01*
X13162500Y-9232500D02*
X13122500Y-9272500D01*
X13170000Y-7925000D02*
X13210000Y-7965000D01*
X13210000Y-7925000D02*
X13170000Y-7965000D01*
X13217500Y-10347500D02*
X13257500Y-10387500D01*
X13257500Y-10347500D02*
X13217500Y-10387500D01*
X13240000Y-7460000D02*
X13280000Y-7500000D01*
X13280000Y-7460000D02*
X13240000Y-7500000D01*
X13285000Y-8810000D02*
X13325000Y-8850000D01*
X13325000Y-8810000D02*
X13285000Y-8850000D01*
X13535000Y-8810000D02*
X13575000Y-8850000D01*
X13575000Y-8810000D02*
X13535000Y-8850000D01*
X13582500Y-8180000D02*
X13622500Y-8220000D01*
X13622500Y-8180000D02*
X13582500Y-8220000D01*
X13617500Y-7462500D02*
X13657500Y-7502500D01*
X13657500Y-7462500D02*
X13617500Y-7502500D01*
X13763250Y-9116000D02*
X13803250Y-9156000D01*
X13803250Y-9116000D02*
X13763250Y-9156000D01*
X13820000Y-8780000D02*
X13860000Y-8820000D01*
X13860000Y-8780000D02*
X13820000Y-8820000D01*
X14000000Y-7460000D02*
X14040000Y-7500000D01*
X14040000Y-7460000D02*
X14000000Y-7500000D01*
X14002500Y-7797500D02*
X14042500Y-7837500D01*
X14042500Y-7797500D02*
X14002500Y-7837500D01*
X14070000Y-8780000D02*
X14110000Y-8820000D01*
X14110000Y-8780000D02*
X14070000Y-8820000D01*
X14085000Y-8185000D02*
X14125000Y-8225000D01*
X14125000Y-8185000D02*
X14085000Y-8225000D01*
X14132500Y-10327500D02*
X14172500Y-10367500D01*
X14172500Y-10327500D02*
X14132500Y-10367500D01*
X14240000Y-9970000D02*
X14280000Y-10010000D01*
X14280000Y-9970000D02*
X14240000Y-10010000D01*
X14290000Y-9584000D02*
X14330000Y-9624000D01*
X14330000Y-9584000D02*
X14290000Y-9624000D01*
X14328000Y-8201000D02*
X14368000Y-8241000D01*
X14368000Y-8201000D02*
X14328000Y-8241000D01*
X14352500Y-8655000D02*
X14392500Y-8695000D01*
X14392500Y-8655000D02*
X14352500Y-8695000D01*
X14507500Y-7717500D02*
X14547500Y-7757500D01*
X14547500Y-7717500D02*
X14507500Y-7757500D01*
X14657500Y-9982500D02*
X14697500Y-10022500D01*
X14697500Y-9982500D02*
X14657500Y-10022500D01*
X14887500Y-7460000D02*
X14927500Y-7500000D01*
X14927500Y-7460000D02*
X14887500Y-7500000D01*
X14914000Y-8012000D02*
X14954000Y-8052000D01*
X14954000Y-8012000D02*
X14914000Y-8052000D01*
X15140000Y-7700000D02*
X15180000Y-7740000D01*
X15180000Y-7700000D02*
X15140000Y-7740000D01*
X15272500Y-10342500D02*
X15312500Y-10382500D01*
X15312500Y-10342500D02*
X15272500Y-10382500D01*
X15530000Y-7580000D02*
X15570000Y-7620000D01*
X15570000Y-7580000D02*
X15530000Y-7620000D01*
X15385000Y-8710000D02*
G75*
G02*
X15295000Y-8710000I-45000J0D01*
G01*
X15295000Y-8710000D02*
G75*
G02*
X15385000Y-8710000I45000J0D01*
G01*
X15385000Y-8964000D02*
G75*
G02*
X15295000Y-8964000I-45000J0D01*
G01*
X15295000Y-8964000D02*
G75*
G02*
X15385000Y-8964000I45000J0D01*
G01*
X15390000Y-9450000D02*
G75*
G02*
X15300000Y-9450000I-45000J0D01*
G01*
X15300000Y-9450000D02*
G75*
G02*
X15390000Y-9450000I45000J0D01*
G01*
X15390000Y-9704000D02*
G75*
G02*
X15300000Y-9704000I-45000J0D01*
G01*
X15300000Y-9704000D02*
G75*
G02*
X15390000Y-9704000I45000J0D01*
G01*
X13306500Y-8550000D02*
X13306500Y-8650000D01*
X13256500Y-8600000D02*
X13356500Y-8600000D01*
X13560500Y-8550000D02*
X13560500Y-8650000D01*
X13510500Y-8600000D02*
X13610500Y-8600000D01*
X13814500Y-8550000D02*
X13814500Y-8650000D01*
X13764500Y-8600000D02*
X13864500Y-8600000D01*
X14068500Y-8550000D02*
X14068500Y-8650000D01*
X14018500Y-8600000D02*
X14118500Y-8600000D01*
D12*
X12634875Y-11406580D02*
X12634875Y-11206580D01*
X12634875Y-11206580D02*
X12682494Y-11206580D01*
X12682494Y-11206580D02*
X12711065Y-11216104D01*
X12711065Y-11216104D02*
X12730113Y-11235152D01*
X12730113Y-11235152D02*
X12739637Y-11254199D01*
X12739637Y-11254199D02*
X12749161Y-11292295D01*
X12749161Y-11292295D02*
X12749161Y-11320866D01*
X12749161Y-11320866D02*
X12739637Y-11358961D01*
X12739637Y-11358961D02*
X12730113Y-11378009D01*
X12730113Y-11378009D02*
X12711065Y-11397057D01*
X12711065Y-11397057D02*
X12682494Y-11406580D01*
X12682494Y-11406580D02*
X12634875Y-11406580D01*
X12834875Y-11406580D02*
X12834875Y-11273247D01*
X12834875Y-11311342D02*
X12844399Y-11292295D01*
X12844399Y-11292295D02*
X12853923Y-11282771D01*
X12853923Y-11282771D02*
X12872970Y-11273247D01*
X12872970Y-11273247D02*
X12892018Y-11273247D01*
X12958684Y-11406580D02*
X12958684Y-11273247D01*
X12958684Y-11206580D02*
X12949161Y-11216104D01*
X12949161Y-11216104D02*
X12958684Y-11225628D01*
X12958684Y-11225628D02*
X12968208Y-11216104D01*
X12968208Y-11216104D02*
X12958684Y-11206580D01*
X12958684Y-11206580D02*
X12958684Y-11225628D01*
X13082494Y-11406580D02*
X13063446Y-11397057D01*
X13063446Y-11397057D02*
X13053923Y-11378009D01*
X13053923Y-11378009D02*
X13053923Y-11206580D01*
X13187256Y-11406580D02*
X13168208Y-11397057D01*
X13168208Y-11397057D02*
X13158684Y-11378009D01*
X13158684Y-11378009D02*
X13158684Y-11206580D01*
X13415827Y-11406580D02*
X13415827Y-11206580D01*
X13415827Y-11206580D02*
X13482494Y-11349437D01*
X13482494Y-11349437D02*
X13549161Y-11206580D01*
X13549161Y-11206580D02*
X13549161Y-11406580D01*
X13730113Y-11406580D02*
X13730113Y-11301818D01*
X13730113Y-11301818D02*
X13720589Y-11282771D01*
X13720589Y-11282771D02*
X13701542Y-11273247D01*
X13701542Y-11273247D02*
X13663446Y-11273247D01*
X13663446Y-11273247D02*
X13644399Y-11282771D01*
X13730113Y-11397057D02*
X13711065Y-11406580D01*
X13711065Y-11406580D02*
X13663446Y-11406580D01*
X13663446Y-11406580D02*
X13644399Y-11397057D01*
X13644399Y-11397057D02*
X13634875Y-11378009D01*
X13634875Y-11378009D02*
X13634875Y-11358961D01*
X13634875Y-11358961D02*
X13644399Y-11339914D01*
X13644399Y-11339914D02*
X13663446Y-11330390D01*
X13663446Y-11330390D02*
X13711065Y-11330390D01*
X13711065Y-11330390D02*
X13730113Y-11320866D01*
X13825351Y-11273247D02*
X13825351Y-11473247D01*
X13825351Y-11282771D02*
X13844399Y-11273247D01*
X13844399Y-11273247D02*
X13882494Y-11273247D01*
X13882494Y-11273247D02*
X13901542Y-11282771D01*
X13901542Y-11282771D02*
X13911065Y-11292295D01*
X13911065Y-11292295D02*
X13920589Y-11311342D01*
X13920589Y-11311342D02*
X13920589Y-11368485D01*
X13920589Y-11368485D02*
X13911065Y-11387533D01*
X13911065Y-11387533D02*
X13901542Y-11397057D01*
X13901542Y-11397057D02*
X13882494Y-11406580D01*
X13882494Y-11406580D02*
X13844399Y-11406580D01*
X13844399Y-11406580D02*
X13825351Y-11397057D01*
X14006304Y-11387533D02*
X14015827Y-11397057D01*
X14015827Y-11397057D02*
X14006304Y-11406580D01*
X14006304Y-11406580D02*
X13996780Y-11397057D01*
X13996780Y-11397057D02*
X14006304Y-11387533D01*
X14006304Y-11387533D02*
X14006304Y-11406580D01*
X14006304Y-11282771D02*
X14015827Y-11292295D01*
X14015827Y-11292295D02*
X14006304Y-11301818D01*
X14006304Y-11301818D02*
X13996780Y-11292295D01*
X13996780Y-11292295D02*
X14006304Y-11282771D01*
X14006304Y-11282771D02*
X14006304Y-11301818D01*
D10*
X12334098Y-11715097D02*
X12374098Y-11755097D01*
X12374098Y-11715097D02*
X12334098Y-11755097D01*
D12*
X12672970Y-11626580D02*
X12692018Y-11626580D01*
X12692018Y-11626580D02*
X12711065Y-11636104D01*
X12711065Y-11636104D02*
X12720589Y-11645628D01*
X12720589Y-11645628D02*
X12730113Y-11664676D01*
X12730113Y-11664676D02*
X12739637Y-11702771D01*
X12739637Y-11702771D02*
X12739637Y-11750390D01*
X12739637Y-11750390D02*
X12730113Y-11788485D01*
X12730113Y-11788485D02*
X12720589Y-11807533D01*
X12720589Y-11807533D02*
X12711065Y-11817057D01*
X12711065Y-11817057D02*
X12692018Y-11826580D01*
X12692018Y-11826580D02*
X12672970Y-11826580D01*
X12672970Y-11826580D02*
X12653923Y-11817057D01*
X12653923Y-11817057D02*
X12644399Y-11807533D01*
X12644399Y-11807533D02*
X12634875Y-11788485D01*
X12634875Y-11788485D02*
X12625351Y-11750390D01*
X12625351Y-11750390D02*
X12625351Y-11702771D01*
X12625351Y-11702771D02*
X12634875Y-11664676D01*
X12634875Y-11664676D02*
X12644399Y-11645628D01*
X12644399Y-11645628D02*
X12653923Y-11636104D01*
X12653923Y-11636104D02*
X12672970Y-11626580D01*
X12825351Y-11807533D02*
X12834875Y-11817057D01*
X12834875Y-11817057D02*
X12825351Y-11826580D01*
X12825351Y-11826580D02*
X12815827Y-11817057D01*
X12815827Y-11817057D02*
X12825351Y-11807533D01*
X12825351Y-11807533D02*
X12825351Y-11826580D01*
X13006304Y-11693247D02*
X13006304Y-11826580D01*
X12958684Y-11617057D02*
X12911065Y-11759914D01*
X12911065Y-11759914D02*
X13034875Y-11759914D01*
X13149161Y-11626580D02*
X13168208Y-11626580D01*
X13168208Y-11626580D02*
X13187256Y-11636104D01*
X13187256Y-11636104D02*
X13196780Y-11645628D01*
X13196780Y-11645628D02*
X13206304Y-11664676D01*
X13206304Y-11664676D02*
X13215827Y-11702771D01*
X13215827Y-11702771D02*
X13215827Y-11750390D01*
X13215827Y-11750390D02*
X13206304Y-11788485D01*
X13206304Y-11788485D02*
X13196780Y-11807533D01*
X13196780Y-11807533D02*
X13187256Y-11817057D01*
X13187256Y-11817057D02*
X13168208Y-11826580D01*
X13168208Y-11826580D02*
X13149161Y-11826580D01*
X13149161Y-11826580D02*
X13130113Y-11817057D01*
X13130113Y-11817057D02*
X13120589Y-11807533D01*
X13120589Y-11807533D02*
X13111065Y-11788485D01*
X13111065Y-11788485D02*
X13101542Y-11750390D01*
X13101542Y-11750390D02*
X13101542Y-11702771D01*
X13101542Y-11702771D02*
X13111065Y-11664676D01*
X13111065Y-11664676D02*
X13120589Y-11645628D01*
X13120589Y-11645628D02*
X13130113Y-11636104D01*
X13130113Y-11636104D02*
X13149161Y-11626580D01*
X13339637Y-11626580D02*
X13358685Y-11626580D01*
X13358685Y-11626580D02*
X13377732Y-11636104D01*
X13377732Y-11636104D02*
X13387256Y-11645628D01*
X13387256Y-11645628D02*
X13396780Y-11664676D01*
X13396780Y-11664676D02*
X13406304Y-11702771D01*
X13406304Y-11702771D02*
X13406304Y-11750390D01*
X13406304Y-11750390D02*
X13396780Y-11788485D01*
X13396780Y-11788485D02*
X13387256Y-11807533D01*
X13387256Y-11807533D02*
X13377732Y-11817057D01*
X13377732Y-11817057D02*
X13358685Y-11826580D01*
X13358685Y-11826580D02*
X13339637Y-11826580D01*
X13339637Y-11826580D02*
X13320589Y-11817057D01*
X13320589Y-11817057D02*
X13311065Y-11807533D01*
X13311065Y-11807533D02*
X13301542Y-11788485D01*
X13301542Y-11788485D02*
X13292018Y-11750390D01*
X13292018Y-11750390D02*
X13292018Y-11702771D01*
X13292018Y-11702771D02*
X13301542Y-11664676D01*
X13301542Y-11664676D02*
X13311065Y-11645628D01*
X13311065Y-11645628D02*
X13320589Y-11636104D01*
X13320589Y-11636104D02*
X13339637Y-11626580D01*
X13492018Y-11826580D02*
X13492018Y-11693247D01*
X13492018Y-11712295D02*
X13501542Y-11702771D01*
X13501542Y-11702771D02*
X13520589Y-11693247D01*
X13520589Y-11693247D02*
X13549161Y-11693247D01*
X13549161Y-11693247D02*
X13568208Y-11702771D01*
X13568208Y-11702771D02*
X13577732Y-11721818D01*
X13577732Y-11721818D02*
X13577732Y-11826580D01*
X13577732Y-11721818D02*
X13587256Y-11702771D01*
X13587256Y-11702771D02*
X13606304Y-11693247D01*
X13606304Y-11693247D02*
X13634875Y-11693247D01*
X13634875Y-11693247D02*
X13653923Y-11702771D01*
X13653923Y-11702771D02*
X13663446Y-11721818D01*
X13663446Y-11721818D02*
X13663446Y-11826580D01*
X13758685Y-11826580D02*
X13758685Y-11693247D01*
X13758685Y-11712295D02*
X13768208Y-11702771D01*
X13768208Y-11702771D02*
X13787256Y-11693247D01*
X13787256Y-11693247D02*
X13815827Y-11693247D01*
X13815827Y-11693247D02*
X13834875Y-11702771D01*
X13834875Y-11702771D02*
X13844399Y-11721818D01*
X13844399Y-11721818D02*
X13844399Y-11826580D01*
X13844399Y-11721818D02*
X13853923Y-11702771D01*
X13853923Y-11702771D02*
X13872970Y-11693247D01*
X13872970Y-11693247D02*
X13901542Y-11693247D01*
X13901542Y-11693247D02*
X13920589Y-11702771D01*
X13920589Y-11702771D02*
X13930113Y-11721818D01*
X13930113Y-11721818D02*
X13930113Y-11826580D01*
X14320589Y-11617057D02*
X14149161Y-11874199D01*
X14577732Y-11626580D02*
X14596780Y-11626580D01*
X14596780Y-11626580D02*
X14615828Y-11636104D01*
X14615828Y-11636104D02*
X14625351Y-11645628D01*
X14625351Y-11645628D02*
X14634875Y-11664676D01*
X14634875Y-11664676D02*
X14644399Y-11702771D01*
X14644399Y-11702771D02*
X14644399Y-11750390D01*
X14644399Y-11750390D02*
X14634875Y-11788485D01*
X14634875Y-11788485D02*
X14625351Y-11807533D01*
X14625351Y-11807533D02*
X14615828Y-11817057D01*
X14615828Y-11817057D02*
X14596780Y-11826580D01*
X14596780Y-11826580D02*
X14577732Y-11826580D01*
X14577732Y-11826580D02*
X14558685Y-11817057D01*
X14558685Y-11817057D02*
X14549161Y-11807533D01*
X14549161Y-11807533D02*
X14539637Y-11788485D01*
X14539637Y-11788485D02*
X14530113Y-11750390D01*
X14530113Y-11750390D02*
X14530113Y-11702771D01*
X14530113Y-11702771D02*
X14539637Y-11664676D01*
X14539637Y-11664676D02*
X14549161Y-11645628D01*
X14549161Y-11645628D02*
X14558685Y-11636104D01*
X14558685Y-11636104D02*
X14577732Y-11626580D01*
X14730113Y-11807533D02*
X14739637Y-11817057D01*
X14739637Y-11817057D02*
X14730113Y-11826580D01*
X14730113Y-11826580D02*
X14720589Y-11817057D01*
X14720589Y-11817057D02*
X14730113Y-11807533D01*
X14730113Y-11807533D02*
X14730113Y-11826580D01*
X14863447Y-11626580D02*
X14882494Y-11626580D01*
X14882494Y-11626580D02*
X14901542Y-11636104D01*
X14901542Y-11636104D02*
X14911066Y-11645628D01*
X14911066Y-11645628D02*
X14920589Y-11664676D01*
X14920589Y-11664676D02*
X14930113Y-11702771D01*
X14930113Y-11702771D02*
X14930113Y-11750390D01*
X14930113Y-11750390D02*
X14920589Y-11788485D01*
X14920589Y-11788485D02*
X14911066Y-11807533D01*
X14911066Y-11807533D02*
X14901542Y-11817057D01*
X14901542Y-11817057D02*
X14882494Y-11826580D01*
X14882494Y-11826580D02*
X14863447Y-11826580D01*
X14863447Y-11826580D02*
X14844399Y-11817057D01*
X14844399Y-11817057D02*
X14834875Y-11807533D01*
X14834875Y-11807533D02*
X14825351Y-11788485D01*
X14825351Y-11788485D02*
X14815828Y-11750390D01*
X14815828Y-11750390D02*
X14815828Y-11702771D01*
X14815828Y-11702771D02*
X14825351Y-11664676D01*
X14825351Y-11664676D02*
X14834875Y-11645628D01*
X14834875Y-11645628D02*
X14844399Y-11636104D01*
X14844399Y-11636104D02*
X14863447Y-11626580D01*
X15120589Y-11826580D02*
X15006304Y-11826580D01*
X15063447Y-11826580D02*
X15063447Y-11626580D01*
X15063447Y-11626580D02*
X15044399Y-11655152D01*
X15044399Y-11655152D02*
X15025351Y-11674199D01*
X15025351Y-11674199D02*
X15006304Y-11683723D01*
X15301542Y-11626580D02*
X15206304Y-11626580D01*
X15206304Y-11626580D02*
X15196780Y-11721818D01*
X15196780Y-11721818D02*
X15206304Y-11712295D01*
X15206304Y-11712295D02*
X15225351Y-11702771D01*
X15225351Y-11702771D02*
X15272970Y-11702771D01*
X15272970Y-11702771D02*
X15292018Y-11712295D01*
X15292018Y-11712295D02*
X15301542Y-11721818D01*
X15301542Y-11721818D02*
X15311066Y-11740866D01*
X15311066Y-11740866D02*
X15311066Y-11788485D01*
X15311066Y-11788485D02*
X15301542Y-11807533D01*
X15301542Y-11807533D02*
X15292018Y-11817057D01*
X15292018Y-11817057D02*
X15272970Y-11826580D01*
X15272970Y-11826580D02*
X15225351Y-11826580D01*
X15225351Y-11826580D02*
X15206304Y-11817057D01*
X15206304Y-11817057D02*
X15196780Y-11807533D01*
X15377732Y-11626580D02*
X15511066Y-11626580D01*
X15511066Y-11626580D02*
X15425351Y-11826580D01*
X15577732Y-11626580D02*
X15577732Y-11664676D01*
X15653923Y-11626580D02*
X15653923Y-11664676D01*
X15949161Y-11902771D02*
X15939637Y-11893247D01*
X15939637Y-11893247D02*
X15920590Y-11864676D01*
X15920590Y-11864676D02*
X15911066Y-11845628D01*
X15911066Y-11845628D02*
X15901542Y-11817057D01*
X15901542Y-11817057D02*
X15892018Y-11769437D01*
X15892018Y-11769437D02*
X15892018Y-11731342D01*
X15892018Y-11731342D02*
X15901542Y-11683723D01*
X15901542Y-11683723D02*
X15911066Y-11655152D01*
X15911066Y-11655152D02*
X15920590Y-11636104D01*
X15920590Y-11636104D02*
X15939637Y-11607533D01*
X15939637Y-11607533D02*
X15949161Y-11598009D01*
X16015828Y-11645628D02*
X16025351Y-11636104D01*
X16025351Y-11636104D02*
X16044399Y-11626580D01*
X16044399Y-11626580D02*
X16092018Y-11626580D01*
X16092018Y-11626580D02*
X16111066Y-11636104D01*
X16111066Y-11636104D02*
X16120590Y-11645628D01*
X16120590Y-11645628D02*
X16130113Y-11664676D01*
X16130113Y-11664676D02*
X16130113Y-11683723D01*
X16130113Y-11683723D02*
X16120590Y-11712295D01*
X16120590Y-11712295D02*
X16006304Y-11826580D01*
X16006304Y-11826580D02*
X16130113Y-11826580D01*
X16244399Y-11712295D02*
X16225351Y-11702771D01*
X16225351Y-11702771D02*
X16215828Y-11693247D01*
X16215828Y-11693247D02*
X16206304Y-11674199D01*
X16206304Y-11674199D02*
X16206304Y-11664676D01*
X16206304Y-11664676D02*
X16215828Y-11645628D01*
X16215828Y-11645628D02*
X16225351Y-11636104D01*
X16225351Y-11636104D02*
X16244399Y-11626580D01*
X16244399Y-11626580D02*
X16282494Y-11626580D01*
X16282494Y-11626580D02*
X16301542Y-11636104D01*
X16301542Y-11636104D02*
X16311066Y-11645628D01*
X16311066Y-11645628D02*
X16320590Y-11664676D01*
X16320590Y-11664676D02*
X16320590Y-11674199D01*
X16320590Y-11674199D02*
X16311066Y-11693247D01*
X16311066Y-11693247D02*
X16301542Y-11702771D01*
X16301542Y-11702771D02*
X16282494Y-11712295D01*
X16282494Y-11712295D02*
X16244399Y-11712295D01*
X16244399Y-11712295D02*
X16225351Y-11721818D01*
X16225351Y-11721818D02*
X16215828Y-11731342D01*
X16215828Y-11731342D02*
X16206304Y-11750390D01*
X16206304Y-11750390D02*
X16206304Y-11788485D01*
X16206304Y-11788485D02*
X16215828Y-11807533D01*
X16215828Y-11807533D02*
X16225351Y-11817057D01*
X16225351Y-11817057D02*
X16244399Y-11826580D01*
X16244399Y-11826580D02*
X16282494Y-11826580D01*
X16282494Y-11826580D02*
X16301542Y-11817057D01*
X16301542Y-11817057D02*
X16311066Y-11807533D01*
X16311066Y-11807533D02*
X16320590Y-11788485D01*
X16320590Y-11788485D02*
X16320590Y-11750390D01*
X16320590Y-11750390D02*
X16311066Y-11731342D01*
X16311066Y-11731342D02*
X16301542Y-11721818D01*
X16301542Y-11721818D02*
X16282494Y-11712295D01*
X16558685Y-11826580D02*
X16558685Y-11626580D01*
X16644399Y-11826580D02*
X16644399Y-11721818D01*
X16644399Y-11721818D02*
X16634875Y-11702771D01*
X16634875Y-11702771D02*
X16615828Y-11693247D01*
X16615828Y-11693247D02*
X16587256Y-11693247D01*
X16587256Y-11693247D02*
X16568209Y-11702771D01*
X16568209Y-11702771D02*
X16558685Y-11712295D01*
X16768209Y-11826580D02*
X16749161Y-11817057D01*
X16749161Y-11817057D02*
X16739637Y-11807533D01*
X16739637Y-11807533D02*
X16730113Y-11788485D01*
X16730113Y-11788485D02*
X16730113Y-11731342D01*
X16730113Y-11731342D02*
X16739637Y-11712295D01*
X16739637Y-11712295D02*
X16749161Y-11702771D01*
X16749161Y-11702771D02*
X16768209Y-11693247D01*
X16768209Y-11693247D02*
X16796780Y-11693247D01*
X16796780Y-11693247D02*
X16815828Y-11702771D01*
X16815828Y-11702771D02*
X16825352Y-11712295D01*
X16825352Y-11712295D02*
X16834875Y-11731342D01*
X16834875Y-11731342D02*
X16834875Y-11788485D01*
X16834875Y-11788485D02*
X16825352Y-11807533D01*
X16825352Y-11807533D02*
X16815828Y-11817057D01*
X16815828Y-11817057D02*
X16796780Y-11826580D01*
X16796780Y-11826580D02*
X16768209Y-11826580D01*
X16949161Y-11826580D02*
X16930114Y-11817057D01*
X16930114Y-11817057D02*
X16920590Y-11798009D01*
X16920590Y-11798009D02*
X16920590Y-11626580D01*
X17101542Y-11817057D02*
X17082495Y-11826580D01*
X17082495Y-11826580D02*
X17044399Y-11826580D01*
X17044399Y-11826580D02*
X17025352Y-11817057D01*
X17025352Y-11817057D02*
X17015828Y-11798009D01*
X17015828Y-11798009D02*
X17015828Y-11721818D01*
X17015828Y-11721818D02*
X17025352Y-11702771D01*
X17025352Y-11702771D02*
X17044399Y-11693247D01*
X17044399Y-11693247D02*
X17082495Y-11693247D01*
X17082495Y-11693247D02*
X17101542Y-11702771D01*
X17101542Y-11702771D02*
X17111066Y-11721818D01*
X17111066Y-11721818D02*
X17111066Y-11740866D01*
X17111066Y-11740866D02*
X17015828Y-11759914D01*
X17187256Y-11817057D02*
X17206304Y-11826580D01*
X17206304Y-11826580D02*
X17244399Y-11826580D01*
X17244399Y-11826580D02*
X17263447Y-11817057D01*
X17263447Y-11817057D02*
X17272971Y-11798009D01*
X17272971Y-11798009D02*
X17272971Y-11788485D01*
X17272971Y-11788485D02*
X17263447Y-11769437D01*
X17263447Y-11769437D02*
X17244399Y-11759914D01*
X17244399Y-11759914D02*
X17215828Y-11759914D01*
X17215828Y-11759914D02*
X17196780Y-11750390D01*
X17196780Y-11750390D02*
X17187256Y-11731342D01*
X17187256Y-11731342D02*
X17187256Y-11721818D01*
X17187256Y-11721818D02*
X17196780Y-11702771D01*
X17196780Y-11702771D02*
X17215828Y-11693247D01*
X17215828Y-11693247D02*
X17244399Y-11693247D01*
X17244399Y-11693247D02*
X17263447Y-11702771D01*
X17339637Y-11902771D02*
X17349161Y-11893247D01*
X17349161Y-11893247D02*
X17368209Y-11864676D01*
X17368209Y-11864676D02*
X17377733Y-11845628D01*
X17377733Y-11845628D02*
X17387256Y-11817057D01*
X17387256Y-11817057D02*
X17396780Y-11769437D01*
X17396780Y-11769437D02*
X17396780Y-11731342D01*
X17396780Y-11731342D02*
X17387256Y-11683723D01*
X17387256Y-11683723D02*
X17377733Y-11655152D01*
X17377733Y-11655152D02*
X17368209Y-11636104D01*
X17368209Y-11636104D02*
X17349161Y-11607533D01*
X17349161Y-11607533D02*
X17339637Y-11598009D01*
D10*
X12374098Y-11999097D02*
G75*
G02*
X12284098Y-11999097I-45000J0D01*
G01*
X12284098Y-11999097D02*
G75*
G02*
X12374098Y-11999097I45000J0D01*
G01*
D12*
X12672970Y-11890580D02*
X12692018Y-11890580D01*
X12692018Y-11890580D02*
X12711065Y-11900104D01*
X12711065Y-11900104D02*
X12720589Y-11909628D01*
X12720589Y-11909628D02*
X12730113Y-11928676D01*
X12730113Y-11928676D02*
X12739637Y-11966771D01*
X12739637Y-11966771D02*
X12739637Y-12014390D01*
X12739637Y-12014390D02*
X12730113Y-12052485D01*
X12730113Y-12052485D02*
X12720589Y-12071533D01*
X12720589Y-12071533D02*
X12711065Y-12081057D01*
X12711065Y-12081057D02*
X12692018Y-12090580D01*
X12692018Y-12090580D02*
X12672970Y-12090580D01*
X12672970Y-12090580D02*
X12653923Y-12081057D01*
X12653923Y-12081057D02*
X12644399Y-12071533D01*
X12644399Y-12071533D02*
X12634875Y-12052485D01*
X12634875Y-12052485D02*
X12625351Y-12014390D01*
X12625351Y-12014390D02*
X12625351Y-11966771D01*
X12625351Y-11966771D02*
X12634875Y-11928676D01*
X12634875Y-11928676D02*
X12644399Y-11909628D01*
X12644399Y-11909628D02*
X12653923Y-11900104D01*
X12653923Y-11900104D02*
X12672970Y-11890580D01*
X12825351Y-12071533D02*
X12834875Y-12081057D01*
X12834875Y-12081057D02*
X12825351Y-12090580D01*
X12825351Y-12090580D02*
X12815827Y-12081057D01*
X12815827Y-12081057D02*
X12825351Y-12071533D01*
X12825351Y-12071533D02*
X12825351Y-12090580D01*
X12930113Y-12090580D02*
X12968208Y-12090580D01*
X12968208Y-12090580D02*
X12987256Y-12081057D01*
X12987256Y-12081057D02*
X12996780Y-12071533D01*
X12996780Y-12071533D02*
X13015827Y-12042961D01*
X13015827Y-12042961D02*
X13025351Y-12004866D01*
X13025351Y-12004866D02*
X13025351Y-11928676D01*
X13025351Y-11928676D02*
X13015827Y-11909628D01*
X13015827Y-11909628D02*
X13006304Y-11900104D01*
X13006304Y-11900104D02*
X12987256Y-11890580D01*
X12987256Y-11890580D02*
X12949161Y-11890580D01*
X12949161Y-11890580D02*
X12930113Y-11900104D01*
X12930113Y-11900104D02*
X12920589Y-11909628D01*
X12920589Y-11909628D02*
X12911065Y-11928676D01*
X12911065Y-11928676D02*
X12911065Y-11976295D01*
X12911065Y-11976295D02*
X12920589Y-11995342D01*
X12920589Y-11995342D02*
X12930113Y-12004866D01*
X12930113Y-12004866D02*
X12949161Y-12014390D01*
X12949161Y-12014390D02*
X12987256Y-12014390D01*
X12987256Y-12014390D02*
X13006304Y-12004866D01*
X13006304Y-12004866D02*
X13015827Y-11995342D01*
X13015827Y-11995342D02*
X13025351Y-11976295D01*
X13149161Y-11890580D02*
X13168208Y-11890580D01*
X13168208Y-11890580D02*
X13187256Y-11900104D01*
X13187256Y-11900104D02*
X13196780Y-11909628D01*
X13196780Y-11909628D02*
X13206304Y-11928676D01*
X13206304Y-11928676D02*
X13215827Y-11966771D01*
X13215827Y-11966771D02*
X13215827Y-12014390D01*
X13215827Y-12014390D02*
X13206304Y-12052485D01*
X13206304Y-12052485D02*
X13196780Y-12071533D01*
X13196780Y-12071533D02*
X13187256Y-12081057D01*
X13187256Y-12081057D02*
X13168208Y-12090580D01*
X13168208Y-12090580D02*
X13149161Y-12090580D01*
X13149161Y-12090580D02*
X13130113Y-12081057D01*
X13130113Y-12081057D02*
X13120589Y-12071533D01*
X13120589Y-12071533D02*
X13111065Y-12052485D01*
X13111065Y-12052485D02*
X13101542Y-12014390D01*
X13101542Y-12014390D02*
X13101542Y-11966771D01*
X13101542Y-11966771D02*
X13111065Y-11928676D01*
X13111065Y-11928676D02*
X13120589Y-11909628D01*
X13120589Y-11909628D02*
X13130113Y-11900104D01*
X13130113Y-11900104D02*
X13149161Y-11890580D01*
X13339637Y-11890580D02*
X13358685Y-11890580D01*
X13358685Y-11890580D02*
X13377732Y-11900104D01*
X13377732Y-11900104D02*
X13387256Y-11909628D01*
X13387256Y-11909628D02*
X13396780Y-11928676D01*
X13396780Y-11928676D02*
X13406304Y-11966771D01*
X13406304Y-11966771D02*
X13406304Y-12014390D01*
X13406304Y-12014390D02*
X13396780Y-12052485D01*
X13396780Y-12052485D02*
X13387256Y-12071533D01*
X13387256Y-12071533D02*
X13377732Y-12081057D01*
X13377732Y-12081057D02*
X13358685Y-12090580D01*
X13358685Y-12090580D02*
X13339637Y-12090580D01*
X13339637Y-12090580D02*
X13320589Y-12081057D01*
X13320589Y-12081057D02*
X13311065Y-12071533D01*
X13311065Y-12071533D02*
X13301542Y-12052485D01*
X13301542Y-12052485D02*
X13292018Y-12014390D01*
X13292018Y-12014390D02*
X13292018Y-11966771D01*
X13292018Y-11966771D02*
X13301542Y-11928676D01*
X13301542Y-11928676D02*
X13311065Y-11909628D01*
X13311065Y-11909628D02*
X13320589Y-11900104D01*
X13320589Y-11900104D02*
X13339637Y-11890580D01*
X13492018Y-12090580D02*
X13492018Y-11957247D01*
X13492018Y-11976295D02*
X13501542Y-11966771D01*
X13501542Y-11966771D02*
X13520589Y-11957247D01*
X13520589Y-11957247D02*
X13549161Y-11957247D01*
X13549161Y-11957247D02*
X13568208Y-11966771D01*
X13568208Y-11966771D02*
X13577732Y-11985818D01*
X13577732Y-11985818D02*
X13577732Y-12090580D01*
X13577732Y-11985818D02*
X13587256Y-11966771D01*
X13587256Y-11966771D02*
X13606304Y-11957247D01*
X13606304Y-11957247D02*
X13634875Y-11957247D01*
X13634875Y-11957247D02*
X13653923Y-11966771D01*
X13653923Y-11966771D02*
X13663446Y-11985818D01*
X13663446Y-11985818D02*
X13663446Y-12090580D01*
X13758685Y-12090580D02*
X13758685Y-11957247D01*
X13758685Y-11976295D02*
X13768208Y-11966771D01*
X13768208Y-11966771D02*
X13787256Y-11957247D01*
X13787256Y-11957247D02*
X13815827Y-11957247D01*
X13815827Y-11957247D02*
X13834875Y-11966771D01*
X13834875Y-11966771D02*
X13844399Y-11985818D01*
X13844399Y-11985818D02*
X13844399Y-12090580D01*
X13844399Y-11985818D02*
X13853923Y-11966771D01*
X13853923Y-11966771D02*
X13872970Y-11957247D01*
X13872970Y-11957247D02*
X13901542Y-11957247D01*
X13901542Y-11957247D02*
X13920589Y-11966771D01*
X13920589Y-11966771D02*
X13930113Y-11985818D01*
X13930113Y-11985818D02*
X13930113Y-12090580D01*
X14320589Y-11881057D02*
X14149161Y-12138199D01*
X14577732Y-11890580D02*
X14596780Y-11890580D01*
X14596780Y-11890580D02*
X14615828Y-11900104D01*
X14615828Y-11900104D02*
X14625351Y-11909628D01*
X14625351Y-11909628D02*
X14634875Y-11928676D01*
X14634875Y-11928676D02*
X14644399Y-11966771D01*
X14644399Y-11966771D02*
X14644399Y-12014390D01*
X14644399Y-12014390D02*
X14634875Y-12052485D01*
X14634875Y-12052485D02*
X14625351Y-12071533D01*
X14625351Y-12071533D02*
X14615828Y-12081057D01*
X14615828Y-12081057D02*
X14596780Y-12090580D01*
X14596780Y-12090580D02*
X14577732Y-12090580D01*
X14577732Y-12090580D02*
X14558685Y-12081057D01*
X14558685Y-12081057D02*
X14549161Y-12071533D01*
X14549161Y-12071533D02*
X14539637Y-12052485D01*
X14539637Y-12052485D02*
X14530113Y-12014390D01*
X14530113Y-12014390D02*
X14530113Y-11966771D01*
X14530113Y-11966771D02*
X14539637Y-11928676D01*
X14539637Y-11928676D02*
X14549161Y-11909628D01*
X14549161Y-11909628D02*
X14558685Y-11900104D01*
X14558685Y-11900104D02*
X14577732Y-11890580D01*
X14730113Y-12071533D02*
X14739637Y-12081057D01*
X14739637Y-12081057D02*
X14730113Y-12090580D01*
X14730113Y-12090580D02*
X14720589Y-12081057D01*
X14720589Y-12081057D02*
X14730113Y-12071533D01*
X14730113Y-12071533D02*
X14730113Y-12090580D01*
X14863447Y-11890580D02*
X14882494Y-11890580D01*
X14882494Y-11890580D02*
X14901542Y-11900104D01*
X14901542Y-11900104D02*
X14911066Y-11909628D01*
X14911066Y-11909628D02*
X14920589Y-11928676D01*
X14920589Y-11928676D02*
X14930113Y-11966771D01*
X14930113Y-11966771D02*
X14930113Y-12014390D01*
X14930113Y-12014390D02*
X14920589Y-12052485D01*
X14920589Y-12052485D02*
X14911066Y-12071533D01*
X14911066Y-12071533D02*
X14901542Y-12081057D01*
X14901542Y-12081057D02*
X14882494Y-12090580D01*
X14882494Y-12090580D02*
X14863447Y-12090580D01*
X14863447Y-12090580D02*
X14844399Y-12081057D01*
X14844399Y-12081057D02*
X14834875Y-12071533D01*
X14834875Y-12071533D02*
X14825351Y-12052485D01*
X14825351Y-12052485D02*
X14815828Y-12014390D01*
X14815828Y-12014390D02*
X14815828Y-11966771D01*
X14815828Y-11966771D02*
X14825351Y-11928676D01*
X14825351Y-11928676D02*
X14834875Y-11909628D01*
X14834875Y-11909628D02*
X14844399Y-11900104D01*
X14844399Y-11900104D02*
X14863447Y-11890580D01*
X14996780Y-11890580D02*
X15120589Y-11890580D01*
X15120589Y-11890580D02*
X15053923Y-11966771D01*
X15053923Y-11966771D02*
X15082494Y-11966771D01*
X15082494Y-11966771D02*
X15101542Y-11976295D01*
X15101542Y-11976295D02*
X15111066Y-11985818D01*
X15111066Y-11985818D02*
X15120589Y-12004866D01*
X15120589Y-12004866D02*
X15120589Y-12052485D01*
X15120589Y-12052485D02*
X15111066Y-12071533D01*
X15111066Y-12071533D02*
X15101542Y-12081057D01*
X15101542Y-12081057D02*
X15082494Y-12090580D01*
X15082494Y-12090580D02*
X15025351Y-12090580D01*
X15025351Y-12090580D02*
X15006304Y-12081057D01*
X15006304Y-12081057D02*
X14996780Y-12071533D01*
X15301542Y-11890580D02*
X15206304Y-11890580D01*
X15206304Y-11890580D02*
X15196780Y-11985818D01*
X15196780Y-11985818D02*
X15206304Y-11976295D01*
X15206304Y-11976295D02*
X15225351Y-11966771D01*
X15225351Y-11966771D02*
X15272970Y-11966771D01*
X15272970Y-11966771D02*
X15292018Y-11976295D01*
X15292018Y-11976295D02*
X15301542Y-11985818D01*
X15301542Y-11985818D02*
X15311066Y-12004866D01*
X15311066Y-12004866D02*
X15311066Y-12052485D01*
X15311066Y-12052485D02*
X15301542Y-12071533D01*
X15301542Y-12071533D02*
X15292018Y-12081057D01*
X15292018Y-12081057D02*
X15272970Y-12090580D01*
X15272970Y-12090580D02*
X15225351Y-12090580D01*
X15225351Y-12090580D02*
X15206304Y-12081057D01*
X15206304Y-12081057D02*
X15196780Y-12071533D01*
X15482494Y-11957247D02*
X15482494Y-12090580D01*
X15434875Y-11881057D02*
X15387256Y-12023914D01*
X15387256Y-12023914D02*
X15511066Y-12023914D01*
X15577732Y-11890580D02*
X15577732Y-11928676D01*
X15653923Y-11890580D02*
X15653923Y-11928676D01*
X15949161Y-12166771D02*
X15939637Y-12157247D01*
X15939637Y-12157247D02*
X15920590Y-12128676D01*
X15920590Y-12128676D02*
X15911066Y-12109628D01*
X15911066Y-12109628D02*
X15901542Y-12081057D01*
X15901542Y-12081057D02*
X15892018Y-12033437D01*
X15892018Y-12033437D02*
X15892018Y-11995342D01*
X15892018Y-11995342D02*
X15901542Y-11947723D01*
X15901542Y-11947723D02*
X15911066Y-11919152D01*
X15911066Y-11919152D02*
X15920590Y-11900104D01*
X15920590Y-11900104D02*
X15939637Y-11871533D01*
X15939637Y-11871533D02*
X15949161Y-11862009D01*
X16111066Y-11957247D02*
X16111066Y-12090580D01*
X16063447Y-11881057D02*
X16015828Y-12023914D01*
X16015828Y-12023914D02*
X16139637Y-12023914D01*
X16368209Y-12090580D02*
X16368209Y-11890580D01*
X16453923Y-12090580D02*
X16453923Y-11985818D01*
X16453923Y-11985818D02*
X16444399Y-11966771D01*
X16444399Y-11966771D02*
X16425352Y-11957247D01*
X16425352Y-11957247D02*
X16396780Y-11957247D01*
X16396780Y-11957247D02*
X16377732Y-11966771D01*
X16377732Y-11966771D02*
X16368209Y-11976295D01*
X16577732Y-12090580D02*
X16558685Y-12081057D01*
X16558685Y-12081057D02*
X16549161Y-12071533D01*
X16549161Y-12071533D02*
X16539637Y-12052485D01*
X16539637Y-12052485D02*
X16539637Y-11995342D01*
X16539637Y-11995342D02*
X16549161Y-11976295D01*
X16549161Y-11976295D02*
X16558685Y-11966771D01*
X16558685Y-11966771D02*
X16577732Y-11957247D01*
X16577732Y-11957247D02*
X16606304Y-11957247D01*
X16606304Y-11957247D02*
X16625352Y-11966771D01*
X16625352Y-11966771D02*
X16634875Y-11976295D01*
X16634875Y-11976295D02*
X16644399Y-11995342D01*
X16644399Y-11995342D02*
X16644399Y-12052485D01*
X16644399Y-12052485D02*
X16634875Y-12071533D01*
X16634875Y-12071533D02*
X16625352Y-12081057D01*
X16625352Y-12081057D02*
X16606304Y-12090580D01*
X16606304Y-12090580D02*
X16577732Y-12090580D01*
X16758685Y-12090580D02*
X16739637Y-12081057D01*
X16739637Y-12081057D02*
X16730113Y-12062009D01*
X16730113Y-12062009D02*
X16730113Y-11890580D01*
X16911066Y-12081057D02*
X16892018Y-12090580D01*
X16892018Y-12090580D02*
X16853923Y-12090580D01*
X16853923Y-12090580D02*
X16834875Y-12081057D01*
X16834875Y-12081057D02*
X16825352Y-12062009D01*
X16825352Y-12062009D02*
X16825352Y-11985818D01*
X16825352Y-11985818D02*
X16834875Y-11966771D01*
X16834875Y-11966771D02*
X16853923Y-11957247D01*
X16853923Y-11957247D02*
X16892018Y-11957247D01*
X16892018Y-11957247D02*
X16911066Y-11966771D01*
X16911066Y-11966771D02*
X16920590Y-11985818D01*
X16920590Y-11985818D02*
X16920590Y-12004866D01*
X16920590Y-12004866D02*
X16825352Y-12023914D01*
X16996780Y-12081057D02*
X17015828Y-12090580D01*
X17015828Y-12090580D02*
X17053923Y-12090580D01*
X17053923Y-12090580D02*
X17072971Y-12081057D01*
X17072971Y-12081057D02*
X17082495Y-12062009D01*
X17082495Y-12062009D02*
X17082495Y-12052485D01*
X17082495Y-12052485D02*
X17072971Y-12033437D01*
X17072971Y-12033437D02*
X17053923Y-12023914D01*
X17053923Y-12023914D02*
X17025352Y-12023914D01*
X17025352Y-12023914D02*
X17006304Y-12014390D01*
X17006304Y-12014390D02*
X16996780Y-11995342D01*
X16996780Y-11995342D02*
X16996780Y-11985818D01*
X16996780Y-11985818D02*
X17006304Y-11966771D01*
X17006304Y-11966771D02*
X17025352Y-11957247D01*
X17025352Y-11957247D02*
X17053923Y-11957247D01*
X17053923Y-11957247D02*
X17072971Y-11966771D01*
X17149161Y-12166771D02*
X17158685Y-12157247D01*
X17158685Y-12157247D02*
X17177733Y-12128676D01*
X17177733Y-12128676D02*
X17187256Y-12109628D01*
X17187256Y-12109628D02*
X17196780Y-12081057D01*
X17196780Y-12081057D02*
X17206304Y-12033437D01*
X17206304Y-12033437D02*
X17206304Y-11995342D01*
X17206304Y-11995342D02*
X17196780Y-11947723D01*
X17196780Y-11947723D02*
X17187256Y-11919152D01*
X17187256Y-11919152D02*
X17177733Y-11900104D01*
X17177733Y-11900104D02*
X17158685Y-11871533D01*
X17158685Y-11871533D02*
X17149161Y-11862009D01*
D10*
X12324098Y-12213097D02*
X12324098Y-12313097D01*
X12274098Y-12263097D02*
X12374098Y-12263097D01*
D12*
X12739637Y-12354580D02*
X12625351Y-12354580D01*
X12682494Y-12354580D02*
X12682494Y-12154580D01*
X12682494Y-12154580D02*
X12663446Y-12183152D01*
X12663446Y-12183152D02*
X12644399Y-12202199D01*
X12644399Y-12202199D02*
X12625351Y-12211723D01*
X12825351Y-12335533D02*
X12834875Y-12345057D01*
X12834875Y-12345057D02*
X12825351Y-12354580D01*
X12825351Y-12354580D02*
X12815827Y-12345057D01*
X12815827Y-12345057D02*
X12825351Y-12335533D01*
X12825351Y-12335533D02*
X12825351Y-12354580D01*
X12958684Y-12154580D02*
X12977732Y-12154580D01*
X12977732Y-12154580D02*
X12996780Y-12164104D01*
X12996780Y-12164104D02*
X13006304Y-12173628D01*
X13006304Y-12173628D02*
X13015827Y-12192676D01*
X13015827Y-12192676D02*
X13025351Y-12230771D01*
X13025351Y-12230771D02*
X13025351Y-12278390D01*
X13025351Y-12278390D02*
X13015827Y-12316485D01*
X13015827Y-12316485D02*
X13006304Y-12335533D01*
X13006304Y-12335533D02*
X12996780Y-12345057D01*
X12996780Y-12345057D02*
X12977732Y-12354580D01*
X12977732Y-12354580D02*
X12958684Y-12354580D01*
X12958684Y-12354580D02*
X12939637Y-12345057D01*
X12939637Y-12345057D02*
X12930113Y-12335533D01*
X12930113Y-12335533D02*
X12920589Y-12316485D01*
X12920589Y-12316485D02*
X12911065Y-12278390D01*
X12911065Y-12278390D02*
X12911065Y-12230771D01*
X12911065Y-12230771D02*
X12920589Y-12192676D01*
X12920589Y-12192676D02*
X12930113Y-12173628D01*
X12930113Y-12173628D02*
X12939637Y-12164104D01*
X12939637Y-12164104D02*
X12958684Y-12154580D01*
X13149161Y-12154580D02*
X13168208Y-12154580D01*
X13168208Y-12154580D02*
X13187256Y-12164104D01*
X13187256Y-12164104D02*
X13196780Y-12173628D01*
X13196780Y-12173628D02*
X13206304Y-12192676D01*
X13206304Y-12192676D02*
X13215827Y-12230771D01*
X13215827Y-12230771D02*
X13215827Y-12278390D01*
X13215827Y-12278390D02*
X13206304Y-12316485D01*
X13206304Y-12316485D02*
X13196780Y-12335533D01*
X13196780Y-12335533D02*
X13187256Y-12345057D01*
X13187256Y-12345057D02*
X13168208Y-12354580D01*
X13168208Y-12354580D02*
X13149161Y-12354580D01*
X13149161Y-12354580D02*
X13130113Y-12345057D01*
X13130113Y-12345057D02*
X13120589Y-12335533D01*
X13120589Y-12335533D02*
X13111065Y-12316485D01*
X13111065Y-12316485D02*
X13101542Y-12278390D01*
X13101542Y-12278390D02*
X13101542Y-12230771D01*
X13101542Y-12230771D02*
X13111065Y-12192676D01*
X13111065Y-12192676D02*
X13120589Y-12173628D01*
X13120589Y-12173628D02*
X13130113Y-12164104D01*
X13130113Y-12164104D02*
X13149161Y-12154580D01*
X13339637Y-12154580D02*
X13358685Y-12154580D01*
X13358685Y-12154580D02*
X13377732Y-12164104D01*
X13377732Y-12164104D02*
X13387256Y-12173628D01*
X13387256Y-12173628D02*
X13396780Y-12192676D01*
X13396780Y-12192676D02*
X13406304Y-12230771D01*
X13406304Y-12230771D02*
X13406304Y-12278390D01*
X13406304Y-12278390D02*
X13396780Y-12316485D01*
X13396780Y-12316485D02*
X13387256Y-12335533D01*
X13387256Y-12335533D02*
X13377732Y-12345057D01*
X13377732Y-12345057D02*
X13358685Y-12354580D01*
X13358685Y-12354580D02*
X13339637Y-12354580D01*
X13339637Y-12354580D02*
X13320589Y-12345057D01*
X13320589Y-12345057D02*
X13311065Y-12335533D01*
X13311065Y-12335533D02*
X13301542Y-12316485D01*
X13301542Y-12316485D02*
X13292018Y-12278390D01*
X13292018Y-12278390D02*
X13292018Y-12230771D01*
X13292018Y-12230771D02*
X13301542Y-12192676D01*
X13301542Y-12192676D02*
X13311065Y-12173628D01*
X13311065Y-12173628D02*
X13320589Y-12164104D01*
X13320589Y-12164104D02*
X13339637Y-12154580D01*
X13492018Y-12354580D02*
X13492018Y-12221247D01*
X13492018Y-12240295D02*
X13501542Y-12230771D01*
X13501542Y-12230771D02*
X13520589Y-12221247D01*
X13520589Y-12221247D02*
X13549161Y-12221247D01*
X13549161Y-12221247D02*
X13568208Y-12230771D01*
X13568208Y-12230771D02*
X13577732Y-12249818D01*
X13577732Y-12249818D02*
X13577732Y-12354580D01*
X13577732Y-12249818D02*
X13587256Y-12230771D01*
X13587256Y-12230771D02*
X13606304Y-12221247D01*
X13606304Y-12221247D02*
X13634875Y-12221247D01*
X13634875Y-12221247D02*
X13653923Y-12230771D01*
X13653923Y-12230771D02*
X13663446Y-12249818D01*
X13663446Y-12249818D02*
X13663446Y-12354580D01*
X13758685Y-12354580D02*
X13758685Y-12221247D01*
X13758685Y-12240295D02*
X13768208Y-12230771D01*
X13768208Y-12230771D02*
X13787256Y-12221247D01*
X13787256Y-12221247D02*
X13815827Y-12221247D01*
X13815827Y-12221247D02*
X13834875Y-12230771D01*
X13834875Y-12230771D02*
X13844399Y-12249818D01*
X13844399Y-12249818D02*
X13844399Y-12354580D01*
X13844399Y-12249818D02*
X13853923Y-12230771D01*
X13853923Y-12230771D02*
X13872970Y-12221247D01*
X13872970Y-12221247D02*
X13901542Y-12221247D01*
X13901542Y-12221247D02*
X13920589Y-12230771D01*
X13920589Y-12230771D02*
X13930113Y-12249818D01*
X13930113Y-12249818D02*
X13930113Y-12354580D01*
X14320589Y-12145057D02*
X14149161Y-12402199D01*
X14577732Y-12154580D02*
X14596780Y-12154580D01*
X14596780Y-12154580D02*
X14615828Y-12164104D01*
X14615828Y-12164104D02*
X14625351Y-12173628D01*
X14625351Y-12173628D02*
X14634875Y-12192676D01*
X14634875Y-12192676D02*
X14644399Y-12230771D01*
X14644399Y-12230771D02*
X14644399Y-12278390D01*
X14644399Y-12278390D02*
X14634875Y-12316485D01*
X14634875Y-12316485D02*
X14625351Y-12335533D01*
X14625351Y-12335533D02*
X14615828Y-12345057D01*
X14615828Y-12345057D02*
X14596780Y-12354580D01*
X14596780Y-12354580D02*
X14577732Y-12354580D01*
X14577732Y-12354580D02*
X14558685Y-12345057D01*
X14558685Y-12345057D02*
X14549161Y-12335533D01*
X14549161Y-12335533D02*
X14539637Y-12316485D01*
X14539637Y-12316485D02*
X14530113Y-12278390D01*
X14530113Y-12278390D02*
X14530113Y-12230771D01*
X14530113Y-12230771D02*
X14539637Y-12192676D01*
X14539637Y-12192676D02*
X14549161Y-12173628D01*
X14549161Y-12173628D02*
X14558685Y-12164104D01*
X14558685Y-12164104D02*
X14577732Y-12154580D01*
X14730113Y-12335533D02*
X14739637Y-12345057D01*
X14739637Y-12345057D02*
X14730113Y-12354580D01*
X14730113Y-12354580D02*
X14720589Y-12345057D01*
X14720589Y-12345057D02*
X14730113Y-12335533D01*
X14730113Y-12335533D02*
X14730113Y-12354580D01*
X14863447Y-12154580D02*
X14882494Y-12154580D01*
X14882494Y-12154580D02*
X14901542Y-12164104D01*
X14901542Y-12164104D02*
X14911066Y-12173628D01*
X14911066Y-12173628D02*
X14920589Y-12192676D01*
X14920589Y-12192676D02*
X14930113Y-12230771D01*
X14930113Y-12230771D02*
X14930113Y-12278390D01*
X14930113Y-12278390D02*
X14920589Y-12316485D01*
X14920589Y-12316485D02*
X14911066Y-12335533D01*
X14911066Y-12335533D02*
X14901542Y-12345057D01*
X14901542Y-12345057D02*
X14882494Y-12354580D01*
X14882494Y-12354580D02*
X14863447Y-12354580D01*
X14863447Y-12354580D02*
X14844399Y-12345057D01*
X14844399Y-12345057D02*
X14834875Y-12335533D01*
X14834875Y-12335533D02*
X14825351Y-12316485D01*
X14825351Y-12316485D02*
X14815828Y-12278390D01*
X14815828Y-12278390D02*
X14815828Y-12230771D01*
X14815828Y-12230771D02*
X14825351Y-12192676D01*
X14825351Y-12192676D02*
X14834875Y-12173628D01*
X14834875Y-12173628D02*
X14844399Y-12164104D01*
X14844399Y-12164104D02*
X14863447Y-12154580D01*
X14996780Y-12154580D02*
X15120589Y-12154580D01*
X15120589Y-12154580D02*
X15053923Y-12230771D01*
X15053923Y-12230771D02*
X15082494Y-12230771D01*
X15082494Y-12230771D02*
X15101542Y-12240295D01*
X15101542Y-12240295D02*
X15111066Y-12249818D01*
X15111066Y-12249818D02*
X15120589Y-12268866D01*
X15120589Y-12268866D02*
X15120589Y-12316485D01*
X15120589Y-12316485D02*
X15111066Y-12335533D01*
X15111066Y-12335533D02*
X15101542Y-12345057D01*
X15101542Y-12345057D02*
X15082494Y-12354580D01*
X15082494Y-12354580D02*
X15025351Y-12354580D01*
X15025351Y-12354580D02*
X15006304Y-12345057D01*
X15006304Y-12345057D02*
X14996780Y-12335533D01*
X15215828Y-12354580D02*
X15253923Y-12354580D01*
X15253923Y-12354580D02*
X15272970Y-12345057D01*
X15272970Y-12345057D02*
X15282494Y-12335533D01*
X15282494Y-12335533D02*
X15301542Y-12306961D01*
X15301542Y-12306961D02*
X15311066Y-12268866D01*
X15311066Y-12268866D02*
X15311066Y-12192676D01*
X15311066Y-12192676D02*
X15301542Y-12173628D01*
X15301542Y-12173628D02*
X15292018Y-12164104D01*
X15292018Y-12164104D02*
X15272970Y-12154580D01*
X15272970Y-12154580D02*
X15234875Y-12154580D01*
X15234875Y-12154580D02*
X15215828Y-12164104D01*
X15215828Y-12164104D02*
X15206304Y-12173628D01*
X15206304Y-12173628D02*
X15196780Y-12192676D01*
X15196780Y-12192676D02*
X15196780Y-12240295D01*
X15196780Y-12240295D02*
X15206304Y-12259342D01*
X15206304Y-12259342D02*
X15215828Y-12268866D01*
X15215828Y-12268866D02*
X15234875Y-12278390D01*
X15234875Y-12278390D02*
X15272970Y-12278390D01*
X15272970Y-12278390D02*
X15292018Y-12268866D01*
X15292018Y-12268866D02*
X15301542Y-12259342D01*
X15301542Y-12259342D02*
X15311066Y-12240295D01*
X15482494Y-12221247D02*
X15482494Y-12354580D01*
X15434875Y-12145057D02*
X15387256Y-12287914D01*
X15387256Y-12287914D02*
X15511066Y-12287914D01*
X15577732Y-12154580D02*
X15577732Y-12192676D01*
X15653923Y-12154580D02*
X15653923Y-12192676D01*
X15949161Y-12430771D02*
X15939637Y-12421247D01*
X15939637Y-12421247D02*
X15920590Y-12392676D01*
X15920590Y-12392676D02*
X15911066Y-12373628D01*
X15911066Y-12373628D02*
X15901542Y-12345057D01*
X15901542Y-12345057D02*
X15892018Y-12297437D01*
X15892018Y-12297437D02*
X15892018Y-12259342D01*
X15892018Y-12259342D02*
X15901542Y-12211723D01*
X15901542Y-12211723D02*
X15911066Y-12183152D01*
X15911066Y-12183152D02*
X15920590Y-12164104D01*
X15920590Y-12164104D02*
X15939637Y-12135533D01*
X15939637Y-12135533D02*
X15949161Y-12126009D01*
X16111066Y-12221247D02*
X16111066Y-12354580D01*
X16063447Y-12145057D02*
X16015828Y-12287914D01*
X16015828Y-12287914D02*
X16139637Y-12287914D01*
X16368209Y-12354580D02*
X16368209Y-12154580D01*
X16453923Y-12354580D02*
X16453923Y-12249818D01*
X16453923Y-12249818D02*
X16444399Y-12230771D01*
X16444399Y-12230771D02*
X16425352Y-12221247D01*
X16425352Y-12221247D02*
X16396780Y-12221247D01*
X16396780Y-12221247D02*
X16377732Y-12230771D01*
X16377732Y-12230771D02*
X16368209Y-12240295D01*
X16577732Y-12354580D02*
X16558685Y-12345057D01*
X16558685Y-12345057D02*
X16549161Y-12335533D01*
X16549161Y-12335533D02*
X16539637Y-12316485D01*
X16539637Y-12316485D02*
X16539637Y-12259342D01*
X16539637Y-12259342D02*
X16549161Y-12240295D01*
X16549161Y-12240295D02*
X16558685Y-12230771D01*
X16558685Y-12230771D02*
X16577732Y-12221247D01*
X16577732Y-12221247D02*
X16606304Y-12221247D01*
X16606304Y-12221247D02*
X16625352Y-12230771D01*
X16625352Y-12230771D02*
X16634875Y-12240295D01*
X16634875Y-12240295D02*
X16644399Y-12259342D01*
X16644399Y-12259342D02*
X16644399Y-12316485D01*
X16644399Y-12316485D02*
X16634875Y-12335533D01*
X16634875Y-12335533D02*
X16625352Y-12345057D01*
X16625352Y-12345057D02*
X16606304Y-12354580D01*
X16606304Y-12354580D02*
X16577732Y-12354580D01*
X16758685Y-12354580D02*
X16739637Y-12345057D01*
X16739637Y-12345057D02*
X16730113Y-12326009D01*
X16730113Y-12326009D02*
X16730113Y-12154580D01*
X16911066Y-12345057D02*
X16892018Y-12354580D01*
X16892018Y-12354580D02*
X16853923Y-12354580D01*
X16853923Y-12354580D02*
X16834875Y-12345057D01*
X16834875Y-12345057D02*
X16825352Y-12326009D01*
X16825352Y-12326009D02*
X16825352Y-12249818D01*
X16825352Y-12249818D02*
X16834875Y-12230771D01*
X16834875Y-12230771D02*
X16853923Y-12221247D01*
X16853923Y-12221247D02*
X16892018Y-12221247D01*
X16892018Y-12221247D02*
X16911066Y-12230771D01*
X16911066Y-12230771D02*
X16920590Y-12249818D01*
X16920590Y-12249818D02*
X16920590Y-12268866D01*
X16920590Y-12268866D02*
X16825352Y-12287914D01*
X16996780Y-12345057D02*
X17015828Y-12354580D01*
X17015828Y-12354580D02*
X17053923Y-12354580D01*
X17053923Y-12354580D02*
X17072971Y-12345057D01*
X17072971Y-12345057D02*
X17082495Y-12326009D01*
X17082495Y-12326009D02*
X17082495Y-12316485D01*
X17082495Y-12316485D02*
X17072971Y-12297437D01*
X17072971Y-12297437D02*
X17053923Y-12287914D01*
X17053923Y-12287914D02*
X17025352Y-12287914D01*
X17025352Y-12287914D02*
X17006304Y-12278390D01*
X17006304Y-12278390D02*
X16996780Y-12259342D01*
X16996780Y-12259342D02*
X16996780Y-12249818D01*
X16996780Y-12249818D02*
X17006304Y-12230771D01*
X17006304Y-12230771D02*
X17025352Y-12221247D01*
X17025352Y-12221247D02*
X17053923Y-12221247D01*
X17053923Y-12221247D02*
X17072971Y-12230771D01*
X17149161Y-12430771D02*
X17158685Y-12421247D01*
X17158685Y-12421247D02*
X17177733Y-12392676D01*
X17177733Y-12392676D02*
X17187256Y-12373628D01*
X17187256Y-12373628D02*
X17196780Y-12345057D01*
X17196780Y-12345057D02*
X17206304Y-12297437D01*
X17206304Y-12297437D02*
X17206304Y-12259342D01*
X17206304Y-12259342D02*
X17196780Y-12211723D01*
X17196780Y-12211723D02*
X17187256Y-12183152D01*
X17187256Y-12183152D02*
X17177733Y-12164104D01*
X17177733Y-12164104D02*
X17158685Y-12135533D01*
X17158685Y-12135533D02*
X17149161Y-12126009D01*
M02*
