%TF.GenerationSoftware,KiCad,Pcbnew,9.0.9-9.0.9~ubuntu24.04.1*%
%TF.CreationDate,2026-07-11T21:40:51+02:00*%
%TF.ProjectId,MicroPicoDriveCartridge,4d696372-6f50-4696-936f-447269766543,1.4.e*%
%TF.SameCoordinates,Original*%
%TF.FileFunction,Copper,L1,Top*%
%TF.FilePolarity,Positive*%
%FSLAX46Y46*%
G04 Gerber Fmt 4.6, Leading zero omitted, Abs format (unit mm)*
G04 Created by KiCad (PCBNEW 9.0.9-9.0.9~ubuntu24.04.1) date 2026-07-11 21:40:51*
%MOMM*%
%LPD*%
G01*
G04 APERTURE LIST*
G04 Aperture macros list*
%AMRoundRect*
0 Rectangle with rounded corners*
0 $1 Rounding radius*
0 $2 $3 $4 $5 $6 $7 $8 $9 X,Y pos of 4 corners*
0 Add a 4 corners polygon primitive as box body*
4,1,4,$2,$3,$4,$5,$6,$7,$8,$9,$2,$3,0*
0 Add four circle primitives for the rounded corners*
1,1,$1+$1,$2,$3*
1,1,$1+$1,$4,$5*
1,1,$1+$1,$6,$7*
1,1,$1+$1,$8,$9*
0 Add four rect primitives between the rounded corners*
20,1,$1+$1,$2,$3,$4,$5,0*
20,1,$1+$1,$4,$5,$6,$7,0*
20,1,$1+$1,$6,$7,$8,$9,0*
20,1,$1+$1,$8,$9,$2,$3,0*%
G04 Aperture macros list end*
%TA.AperFunction,SMDPad,CuDef*%
%ADD10RoundRect,0.200000X0.275000X-0.200000X0.275000X0.200000X-0.275000X0.200000X-0.275000X-0.200000X0*%
%TD*%
%TA.AperFunction,SMDPad,CuDef*%
%ADD11RoundRect,0.500000X-0.500000X-2.900000X0.500000X-2.900000X0.500000X2.900000X-0.500000X2.900000X0*%
%TD*%
%TA.AperFunction,SMDPad,CuDef*%
%ADD12RoundRect,0.500000X-0.500000X-3.500000X0.500000X-3.500000X0.500000X3.500000X-0.500000X3.500000X0*%
%TD*%
%TA.AperFunction,SMDPad,CuDef*%
%ADD13RoundRect,0.500000X-0.500000X-2.250000X0.500000X-2.250000X0.500000X2.250000X-0.500000X2.250000X0*%
%TD*%
%TA.AperFunction,SMDPad,CuDef*%
%ADD14RoundRect,0.250000X-0.525000X-0.400000X0.525000X-0.400000X0.525000X0.400000X-0.525000X0.400000X0*%
%TD*%
%TA.AperFunction,ComponentPad*%
%ADD15R,1.800000X1.800000*%
%TD*%
%TA.AperFunction,ComponentPad*%
%ADD16C,1.800000*%
%TD*%
%TA.AperFunction,ComponentPad*%
%ADD17R,1.700000X1.700000*%
%TD*%
%TA.AperFunction,ComponentPad*%
%ADD18O,1.700000X1.700000*%
%TD*%
%TA.AperFunction,SMDPad,CuDef*%
%ADD19RoundRect,0.200000X-0.200000X-0.275000X0.200000X-0.275000X0.200000X0.275000X-0.200000X0.275000X0*%
%TD*%
%TA.AperFunction,ViaPad*%
%ADD20C,0.800000*%
%TD*%
%TA.AperFunction,Conductor*%
%ADD21C,2.000000*%
%TD*%
%TA.AperFunction,Conductor*%
%ADD22C,0.350000*%
%TD*%
%TA.AperFunction,Conductor*%
%ADD23C,0.500000*%
%TD*%
%TA.AperFunction,Conductor*%
%ADD24C,0.250000*%
%TD*%
%TA.AperFunction,Conductor*%
%ADD25C,0.200000*%
%TD*%
G04 APERTURE END LIST*
D10*
%TO.P,R1,1*%
%TO.N,/UI_LD_READ*%
X150300000Y-93150000D03*
%TO.P,R1,2*%
%TO.N,Net-(D1-A)*%
X150300000Y-91500000D03*
%TD*%
D11*
%TO.P,J1,1,Pin_1*%
%TO.N,+3V3*%
X133820000Y-68571731D03*
D12*
%TO.P,J1,3,Pin_3*%
%TO.N,GND*%
X136360000Y-67970000D03*
D13*
%TO.P,J1,5,Pin_5*%
%TO.N,/UI_SCR_SDA*%
X138900000Y-69220000D03*
%TO.P,J1,7,Pin_7*%
%TO.N,/UI_SCR_SCL*%
X141440000Y-69220000D03*
%TO.P,J1,9,Pin_9*%
%TO.N,/UI_BTN_BACK*%
X143980000Y-69220000D03*
%TO.P,J1,11,Pin_11*%
%TO.N,/UI_BTN_NEXT*%
X146520000Y-69220000D03*
%TO.P,J1,13,Pin_13*%
%TO.N,/UI_BTN_SELECT*%
X149060000Y-69220000D03*
%TO.P,J1,15,Pin_15*%
%TO.N,unconnected-(J1-Pin_15-Pad15)*%
X151600000Y-69220000D03*
%TD*%
D14*
%TO.P,SW1,1,1*%
%TO.N,/UI_BTN_BACK*%
X128470000Y-102250000D03*
X136430000Y-102250000D03*
%TO.P,SW1,2,2*%
%TO.N,GND*%
X128470000Y-106750000D03*
X136430000Y-106750000D03*
%TD*%
D15*
%TO.P,D2,1,K*%
%TO.N,GND*%
X153450000Y-94500000D03*
D16*
%TO.P,D2,2,A*%
%TO.N,Net-(D2-A)*%
X153450000Y-97040000D03*
%TD*%
D14*
%TO.P,SW2,1,1*%
%TO.N,/UI_BTN_NEXT*%
X138745000Y-102250000D03*
X146705000Y-102250000D03*
%TO.P,SW2,2,2*%
%TO.N,GND*%
X138745000Y-106750000D03*
X146705000Y-106750000D03*
%TD*%
D17*
%TO.P,SCR1,1,GND*%
%TO.N,GND*%
X133065000Y-86000000D03*
D18*
%TO.P,SCR1,2,VCC*%
%TO.N,+3V3*%
X135605000Y-86000000D03*
%TO.P,SCR1,3,SCL*%
%TO.N,/UI_SCR_SCL*%
X138145000Y-86000000D03*
%TO.P,SCR1,4,SDA*%
%TO.N,/UI_SCR_SDA*%
X140685000Y-86000000D03*
%TD*%
D19*
%TO.P,R2,1*%
%TO.N,/UI_LD_WRITE*%
X148600000Y-97900000D03*
%TO.P,R2,2*%
%TO.N,Net-(D2-A)*%
X150250000Y-97900000D03*
%TD*%
D14*
%TO.P,SW3,1,1*%
%TO.N,/UI_BTN_SELECT*%
X149045000Y-102225000D03*
X157005000Y-102225000D03*
%TO.P,SW3,2,2*%
%TO.N,GND*%
X149045000Y-106725000D03*
X157005000Y-106725000D03*
%TD*%
D15*
%TO.P,D1,1,K*%
%TO.N,GND*%
X153400000Y-87100000D03*
D16*
%TO.P,D1,2,A*%
%TO.N,Net-(D1-A)*%
X153400000Y-89640000D03*
%TD*%
D20*
%TO.N,GND*%
X135550000Y-88300000D03*
X140200000Y-74800000D03*
X141525000Y-103475000D03*
X155500000Y-76000000D03*
X133050000Y-88300000D03*
X136025000Y-82000000D03*
X141050000Y-82050000D03*
X151600000Y-77200000D03*
X132375000Y-103675000D03*
X128550000Y-79450000D03*
X140900000Y-88000000D03*
X132600000Y-74800000D03*
X138400000Y-88000000D03*
X136375000Y-74825000D03*
X149075000Y-74800000D03*
X145275000Y-77375000D03*
X152925000Y-103625000D03*
X143480000Y-82210000D03*
X128500000Y-94550000D03*
%TO.N,/UI_LD_READ*%
X131425000Y-92525000D03*
%TO.N,/UI_LD_WRITE*%
X131900000Y-79450000D03*
%TO.N,/UI_SCR_SCL*%
X140225000Y-78175000D03*
%TO.N,/UI_BTN_BACK*%
X142600000Y-99900000D03*
X143100000Y-96040000D03*
%TO.N,/UI_BTN_NEXT*%
X149340000Y-80320000D03*
X146775000Y-100025000D03*
%TO.N,/UI_SD_MOSI*%
X137832500Y-91360000D03*
X143725000Y-86750000D03*
%TD*%
D21*
%TO.N,GND*%
X136375000Y-74825000D02*
X136375000Y-67975000D01*
D22*
%TO.N,Net-(D2-A)*%
X150250000Y-97900000D02*
X152590000Y-97900000D01*
X152590000Y-97900000D02*
X153450000Y-97040000D01*
D23*
%TO.N,+3V3*%
X133835000Y-83060000D02*
X135605000Y-84830000D01*
X135605000Y-84830000D02*
X135605000Y-86000000D01*
X133835000Y-67975000D02*
X133835000Y-83060000D01*
D22*
%TO.N,/UI_LD_READ*%
X135725000Y-96825000D02*
X147700000Y-96825000D01*
X131425000Y-92525000D02*
X135725000Y-96825000D01*
X147700000Y-96825000D02*
X150300000Y-94225000D01*
X150300000Y-94225000D02*
X150300000Y-93150000D01*
%TO.N,/UI_LD_WRITE*%
X131900000Y-80250000D02*
X129800000Y-82350000D01*
X131900000Y-79450000D02*
X131900000Y-80250000D01*
X129800000Y-92150000D02*
X135525000Y-97875000D01*
X135525000Y-97875000D02*
X148575000Y-97875000D01*
X129800000Y-82350000D02*
X129800000Y-92150000D01*
D24*
X148575000Y-97875000D02*
X148600000Y-97900000D01*
D22*
%TO.N,/UI_SCR_SDA*%
X138915000Y-83015000D02*
X140685000Y-84785000D01*
X140685000Y-84785000D02*
X140685000Y-86000000D01*
X138915000Y-67975000D02*
X138915000Y-83015000D01*
%TO.N,/UI_SCR_SCL*%
X140225000Y-78175000D02*
X141455000Y-76945000D01*
X141455000Y-76945000D02*
X141455000Y-67975000D01*
%TO.N,/UI_BTN_BACK*%
X145600000Y-93540000D02*
X145600000Y-80600000D01*
D24*
X128470000Y-102230000D02*
X128475000Y-102225000D01*
X128470000Y-102250000D02*
X128470000Y-102230000D01*
D22*
X136430000Y-101370000D02*
X136430000Y-102250000D01*
X145600000Y-80600000D02*
X143995000Y-78995000D01*
X142600000Y-99900000D02*
X137900000Y-99900000D01*
X143100000Y-96040000D02*
X145600000Y-93540000D01*
X143995000Y-78995000D02*
X143995000Y-67975000D01*
X128470000Y-102250000D02*
X136430000Y-102250000D01*
X137900000Y-99900000D02*
X136430000Y-101370000D01*
%TO.N,/UI_BTN_NEXT*%
X146570000Y-77550000D02*
X146570000Y-68010000D01*
X146705000Y-102250000D02*
X138525000Y-102250000D01*
D25*
X146570000Y-68010000D02*
X146535000Y-67975000D01*
D22*
X149340000Y-80320000D02*
X146570000Y-77550000D01*
X146775000Y-102180000D02*
X146705000Y-102250000D01*
X146775000Y-100025000D02*
X146775000Y-102180000D01*
%TO.N,/UI_SD_MOSI*%
X143725000Y-86750000D02*
X140685000Y-89790000D01*
D25*
X137832500Y-91360000D02*
X137802500Y-91330000D01*
X137862500Y-91330000D02*
X137832500Y-91360000D01*
D22*
X139402500Y-89790000D02*
X137862500Y-91330000D01*
D25*
X137802500Y-91330000D02*
X137762500Y-91330000D01*
D22*
X140685000Y-89790000D02*
X139402500Y-89790000D01*
%TO.N,/UI_BTN_SELECT*%
X155800000Y-79000000D02*
X149075000Y-72275000D01*
X149075000Y-72275000D02*
X149075000Y-67975000D01*
X156600000Y-101000000D02*
X155800000Y-100200000D01*
X149045000Y-102225000D02*
X157000000Y-102225000D01*
X157005000Y-102225000D02*
X156600000Y-101820000D01*
X156600000Y-101820000D02*
X156600000Y-101000000D01*
X155800000Y-100200000D02*
X155800000Y-79000000D01*
%TO.N,Net-(D1-A)*%
X151540000Y-91500000D02*
X153400000Y-89640000D01*
X150300000Y-91500000D02*
X151540000Y-91500000D01*
%TD*%
%TA.AperFunction,Conductor*%
%TO.N,GND*%
G36*
X133018621Y-73870002D02*
G01*
X133065114Y-73923658D01*
X133076500Y-73976000D01*
X133076500Y-82985295D01*
X133076500Y-83134705D01*
X133105649Y-83281247D01*
X133162826Y-83419284D01*
X133245834Y-83543515D01*
X133245838Y-83543519D01*
X134138160Y-84435841D01*
X134172186Y-84498153D01*
X134167121Y-84568968D01*
X134124574Y-84625804D01*
X134058054Y-84650615D01*
X134032019Y-84648519D01*
X134031930Y-84649348D01*
X133963597Y-84642000D01*
X133319000Y-84642000D01*
X133319000Y-85569297D01*
X133257993Y-85534075D01*
X133130826Y-85500000D01*
X132999174Y-85500000D01*
X132872007Y-85534075D01*
X132811000Y-85569297D01*
X132811000Y-84642000D01*
X132166402Y-84642000D01*
X132105906Y-84648505D01*
X131969035Y-84699555D01*
X131969034Y-84699555D01*
X131852095Y-84787095D01*
X131764555Y-84904034D01*
X131764555Y-84904035D01*
X131713505Y-85040906D01*
X131707000Y-85101402D01*
X131707000Y-85746000D01*
X132634297Y-85746000D01*
X132599075Y-85807007D01*
X132565000Y-85934174D01*
X132565000Y-86065826D01*
X132599075Y-86192993D01*
X132634297Y-86254000D01*
X131707000Y-86254000D01*
X131707000Y-86898597D01*
X131713505Y-86959093D01*
X131764555Y-87095964D01*
X131764555Y-87095965D01*
X131852095Y-87212904D01*
X131969034Y-87300444D01*
X132105906Y-87351494D01*
X132166402Y-87357999D01*
X132166415Y-87358000D01*
X132811000Y-87358000D01*
X132811000Y-86430702D01*
X132872007Y-86465925D01*
X132999174Y-86500000D01*
X133130826Y-86500000D01*
X133257993Y-86465925D01*
X133319000Y-86430702D01*
X133319000Y-87358000D01*
X133963585Y-87358000D01*
X133963597Y-87357999D01*
X134024093Y-87351494D01*
X134160964Y-87300444D01*
X134160965Y-87300444D01*
X134277904Y-87212904D01*
X134365444Y-87095965D01*
X134409478Y-86977903D01*
X134452024Y-86921067D01*
X134518544Y-86896256D01*
X134587918Y-86911347D01*
X134616629Y-86932840D01*
X134719990Y-87036201D01*
X134719993Y-87036203D01*
X134719996Y-87036206D01*
X134892991Y-87161894D01*
X135083517Y-87258972D01*
X135286878Y-87325047D01*
X135286879Y-87325047D01*
X135286884Y-87325049D01*
X135498084Y-87358500D01*
X135498087Y-87358500D01*
X135711913Y-87358500D01*
X135711916Y-87358500D01*
X135923116Y-87325049D01*
X136126483Y-87258972D01*
X136317009Y-87161894D01*
X136490004Y-87036206D01*
X136641206Y-86885004D01*
X136766894Y-86712009D01*
X136766899Y-86711997D01*
X136767561Y-86710920D01*
X136767924Y-86710591D01*
X136769804Y-86708004D01*
X136770347Y-86708398D01*
X136820204Y-86663283D01*
X136890244Y-86651670D01*
X136955445Y-86679766D01*
X136980021Y-86708130D01*
X136980196Y-86708004D01*
X136981668Y-86710030D01*
X136982439Y-86710920D01*
X136983108Y-86712012D01*
X137003377Y-86739910D01*
X137108794Y-86885004D01*
X137108796Y-86885006D01*
X137108798Y-86885009D01*
X137259990Y-87036201D01*
X137259993Y-87036203D01*
X137259996Y-87036206D01*
X137432991Y-87161894D01*
X137623517Y-87258972D01*
X137826878Y-87325047D01*
X137826879Y-87325047D01*
X137826884Y-87325049D01*
X138038084Y-87358500D01*
X138038087Y-87358500D01*
X138251913Y-87358500D01*
X138251916Y-87358500D01*
X138463116Y-87325049D01*
X138666483Y-87258972D01*
X138857009Y-87161894D01*
X139030004Y-87036206D01*
X139181206Y-86885004D01*
X139306894Y-86712009D01*
X139306899Y-86711997D01*
X139307561Y-86710920D01*
X139307924Y-86710591D01*
X139309804Y-86708004D01*
X139310347Y-86708398D01*
X139360204Y-86663283D01*
X139430244Y-86651670D01*
X139495445Y-86679766D01*
X139520021Y-86708130D01*
X139520196Y-86708004D01*
X139521668Y-86710030D01*
X139522439Y-86710920D01*
X139523108Y-86712012D01*
X139543377Y-86739910D01*
X139648794Y-86885004D01*
X139648796Y-86885006D01*
X139648798Y-86885009D01*
X139799990Y-87036201D01*
X139799993Y-87036203D01*
X139799996Y-87036206D01*
X139972991Y-87161894D01*
X140163517Y-87258972D01*
X140366878Y-87325047D01*
X140366879Y-87325047D01*
X140366884Y-87325049D01*
X140578084Y-87358500D01*
X140578087Y-87358500D01*
X140791913Y-87358500D01*
X140791916Y-87358500D01*
X141003116Y-87325049D01*
X141206483Y-87258972D01*
X141397009Y-87161894D01*
X141570004Y-87036206D01*
X141721206Y-86885004D01*
X141846894Y-86712009D01*
X141943972Y-86521483D01*
X142010049Y-86318116D01*
X142043500Y-86106916D01*
X142043500Y-85893084D01*
X142010049Y-85681884D01*
X141943972Y-85478517D01*
X141846894Y-85287991D01*
X141721206Y-85114996D01*
X141721203Y-85114993D01*
X141721201Y-85114990D01*
X141570006Y-84963795D01*
X141420439Y-84855128D01*
X141377085Y-84798905D01*
X141368500Y-84753192D01*
X141368500Y-84717682D01*
X141368499Y-84717678D01*
X141342234Y-84585631D01*
X141312051Y-84512765D01*
X141290710Y-84461241D01*
X141215909Y-84349294D01*
X141120706Y-84254091D01*
X139635405Y-82768790D01*
X139601379Y-82706478D01*
X139598500Y-82679695D01*
X139598500Y-79084758D01*
X139618502Y-79016637D01*
X139672158Y-78970144D01*
X139742432Y-78960040D01*
X139788860Y-78977833D01*
X139789207Y-78977185D01*
X139794371Y-78979945D01*
X139794508Y-78979997D01*
X139794664Y-78980102D01*
X139960000Y-79048587D01*
X140135521Y-79083500D01*
X140135522Y-79083500D01*
X140314478Y-79083500D01*
X140314479Y-79083500D01*
X140490000Y-79048587D01*
X140655336Y-78980102D01*
X140804135Y-78880678D01*
X140930678Y-78754135D01*
X141030102Y-78605336D01*
X141098587Y-78440000D01*
X141133500Y-78264479D01*
X141133500Y-78264477D01*
X141133831Y-78262813D01*
X141166738Y-78199903D01*
X141168202Y-78198412D01*
X141985909Y-77380706D01*
X141993131Y-77369898D01*
X142060710Y-77268759D01*
X142082051Y-77217235D01*
X142112234Y-77144369D01*
X142138500Y-77012318D01*
X142138500Y-76877681D01*
X142138500Y-73976000D01*
X142158502Y-73907879D01*
X142212158Y-73861386D01*
X142264500Y-73850000D01*
X143185500Y-73850000D01*
X143253621Y-73870002D01*
X143300114Y-73923658D01*
X143311500Y-73976000D01*
X143311500Y-78927681D01*
X143311500Y-79062319D01*
X143335902Y-79185000D01*
X143337766Y-79194367D01*
X143337768Y-79194375D01*
X143358050Y-79243339D01*
X143389291Y-79318761D01*
X143427995Y-79376684D01*
X143432002Y-79382681D01*
X143464091Y-79430706D01*
X143464094Y-79430709D01*
X143464097Y-79430713D01*
X144879595Y-80846210D01*
X144913620Y-80908522D01*
X144916500Y-80935305D01*
X144916500Y-93204695D01*
X144896498Y-93272816D01*
X144879595Y-93293790D01*
X143076700Y-95096684D01*
X143014388Y-95130710D01*
X143012187Y-95131168D01*
X142905182Y-95152452D01*
X142835000Y-95166413D01*
X142834998Y-95166413D01*
X142834997Y-95166414D01*
X142669662Y-95234899D01*
X142520869Y-95334319D01*
X142520862Y-95334324D01*
X142394324Y-95460862D01*
X142394319Y-95460869D01*
X142294899Y-95609662D01*
X142226414Y-95774996D01*
X142191500Y-95950518D01*
X142191500Y-96015500D01*
X142171498Y-96083621D01*
X142117842Y-96130114D01*
X142065500Y-96141500D01*
X136060305Y-96141500D01*
X135992184Y-96121498D01*
X135971210Y-96104595D01*
X132368315Y-92501700D01*
X132334289Y-92439388D01*
X132333831Y-92437186D01*
X132324084Y-92388184D01*
X132298587Y-92260000D01*
X132230102Y-92094664D01*
X132130678Y-91945865D01*
X132004135Y-91819322D01*
X131855336Y-91719898D01*
X131738429Y-91671473D01*
X131690003Y-91651414D01*
X131690001Y-91651413D01*
X131690000Y-91651413D01*
X131601645Y-91633838D01*
X131514481Y-91616500D01*
X131514479Y-91616500D01*
X131335521Y-91616500D01*
X131335518Y-91616500D01*
X131204771Y-91642507D01*
X131160000Y-91651413D01*
X131159999Y-91651413D01*
X131159996Y-91651414D01*
X130994662Y-91719899D01*
X130845869Y-91819319D01*
X130845862Y-91819324D01*
X130729996Y-91935191D01*
X130721923Y-91939599D01*
X130716410Y-91946964D01*
X130691251Y-91956347D01*
X130667684Y-91969217D01*
X130658507Y-91968560D01*
X130649890Y-91971775D01*
X130623653Y-91966067D01*
X130596869Y-91964152D01*
X130587670Y-91958240D01*
X130580516Y-91956684D01*
X130551806Y-91935191D01*
X130520405Y-91903790D01*
X130486379Y-91841478D01*
X130483500Y-91814695D01*
X130483500Y-91270518D01*
X136924000Y-91270518D01*
X136924000Y-91270521D01*
X136924000Y-91449479D01*
X136958913Y-91625000D01*
X137027398Y-91790336D01*
X137126822Y-91939135D01*
X137253365Y-92065678D01*
X137402164Y-92165102D01*
X137567500Y-92233587D01*
X137743021Y-92268500D01*
X137743022Y-92268500D01*
X137921978Y-92268500D01*
X137921979Y-92268500D01*
X138097500Y-92233587D01*
X138262836Y-92165102D01*
X138411635Y-92065678D01*
X138538178Y-91939135D01*
X138637602Y-91790336D01*
X138706087Y-91625000D01*
X138741000Y-91449479D01*
X138741000Y-91449477D01*
X138741331Y-91447813D01*
X138774238Y-91384903D01*
X138775702Y-91383412D01*
X139648712Y-90510402D01*
X139711022Y-90476379D01*
X139737805Y-90473500D01*
X140752318Y-90473500D01*
X140752319Y-90473500D01*
X140884369Y-90447234D01*
X140957235Y-90417051D01*
X141008759Y-90395710D01*
X141120706Y-90320909D01*
X141215909Y-90225706D01*
X143748301Y-87693313D01*
X143810611Y-87659290D01*
X143812813Y-87658831D01*
X143814477Y-87658500D01*
X143814479Y-87658500D01*
X143990000Y-87623587D01*
X144155336Y-87555102D01*
X144304135Y-87455678D01*
X144430678Y-87329135D01*
X144530102Y-87180336D01*
X144598587Y-87015000D01*
X144633500Y-86839479D01*
X144633500Y-86660521D01*
X144598587Y-86485000D01*
X144530102Y-86319664D01*
X144430678Y-86170865D01*
X144304135Y-86044322D01*
X144155336Y-85944898D01*
X144030247Y-85893084D01*
X143990003Y-85876414D01*
X143990001Y-85876413D01*
X143990000Y-85876413D01*
X143901645Y-85858838D01*
X143814481Y-85841500D01*
X143814479Y-85841500D01*
X143635521Y-85841500D01*
X143635518Y-85841500D01*
X143504771Y-85867507D01*
X143460000Y-85876413D01*
X143459999Y-85876413D01*
X143459996Y-85876414D01*
X143294662Y-85944899D01*
X143145869Y-86044319D01*
X143145862Y-86044324D01*
X143019324Y-86170862D01*
X143019319Y-86170869D01*
X142919899Y-86319662D01*
X142851415Y-86484996D01*
X142851413Y-86485000D01*
X142844157Y-86521478D01*
X142816168Y-86662187D01*
X142783260Y-86725096D01*
X142781684Y-86726700D01*
X140438790Y-89069595D01*
X140376478Y-89103620D01*
X140349695Y-89106500D01*
X139335178Y-89106500D01*
X139203130Y-89132766D01*
X139203125Y-89132768D01*
X139130265Y-89162948D01*
X139078741Y-89184290D01*
X138966794Y-89259090D01*
X138966788Y-89259095D01*
X137809200Y-90416684D01*
X137746888Y-90450710D01*
X137744687Y-90451168D01*
X137637682Y-90472452D01*
X137567500Y-90486413D01*
X137567498Y-90486413D01*
X137567497Y-90486414D01*
X137402162Y-90554899D01*
X137253369Y-90654319D01*
X137253362Y-90654324D01*
X137126824Y-90780862D01*
X137126819Y-90780869D01*
X137027399Y-90929662D01*
X136958914Y-91094996D01*
X136924000Y-91270518D01*
X130483500Y-91270518D01*
X130483500Y-82685305D01*
X130503502Y-82617184D01*
X130520405Y-82596210D01*
X132430904Y-80685711D01*
X132430909Y-80685706D01*
X132443195Y-80667319D01*
X132505710Y-80573759D01*
X132557233Y-80449370D01*
X132583500Y-80317319D01*
X132583500Y-80100548D01*
X132603502Y-80032427D01*
X132604735Y-80030546D01*
X132633907Y-79986887D01*
X132705102Y-79880336D01*
X132773587Y-79715000D01*
X132808500Y-79539479D01*
X132808500Y-79360521D01*
X132773587Y-79185000D01*
X132705102Y-79019664D01*
X132605678Y-78870865D01*
X132479135Y-78744322D01*
X132330336Y-78644898D01*
X132213429Y-78596473D01*
X132165003Y-78576414D01*
X132165001Y-78576413D01*
X132165000Y-78576413D01*
X132076645Y-78558838D01*
X131989481Y-78541500D01*
X131989479Y-78541500D01*
X131810521Y-78541500D01*
X131810518Y-78541500D01*
X131679771Y-78567507D01*
X131635000Y-78576413D01*
X131634999Y-78576413D01*
X131634996Y-78576414D01*
X131469662Y-78644899D01*
X131320869Y-78744319D01*
X131320862Y-78744324D01*
X131194324Y-78870862D01*
X131194319Y-78870869D01*
X131094899Y-79019662D01*
X131026414Y-79184996D01*
X131026413Y-79184999D01*
X131026413Y-79185000D01*
X131024548Y-79194375D01*
X130991500Y-79360518D01*
X130991500Y-79360521D01*
X130991500Y-79539479D01*
X131026413Y-79715000D01*
X131094898Y-79880336D01*
X131101131Y-79889664D01*
X131120822Y-79919134D01*
X131142037Y-79986887D01*
X131123254Y-80055354D01*
X131105152Y-80078231D01*
X129364294Y-81819091D01*
X129316692Y-81866693D01*
X129269090Y-81914294D01*
X129193595Y-82027279D01*
X129191920Y-82031963D01*
X129142768Y-82150625D01*
X129142766Y-82150630D01*
X129116500Y-82282678D01*
X129116500Y-82282681D01*
X129116500Y-92082681D01*
X129116500Y-92217319D01*
X129141420Y-92342603D01*
X129142766Y-92349367D01*
X129142768Y-92349375D01*
X129158844Y-92388185D01*
X129178451Y-92435521D01*
X129194290Y-92473759D01*
X129206991Y-92492767D01*
X129269091Y-92585706D01*
X134994091Y-98310706D01*
X135089294Y-98405909D01*
X135201241Y-98480710D01*
X135252765Y-98502051D01*
X135325631Y-98532234D01*
X135431415Y-98553275D01*
X135457681Y-98558500D01*
X135457682Y-98558500D01*
X135592319Y-98558500D01*
X147732870Y-98558500D01*
X147800991Y-98578502D01*
X147831967Y-98610339D01*
X147833482Y-98609153D01*
X147838189Y-98615161D01*
X147959839Y-98736811D01*
X147959844Y-98736815D01*
X147959845Y-98736816D01*
X148107087Y-98825827D01*
X148271351Y-98877013D01*
X148342735Y-98883500D01*
X148857264Y-98883499D01*
X148928649Y-98877013D01*
X149092913Y-98825827D01*
X149240155Y-98736816D01*
X149240160Y-98736811D01*
X149335905Y-98641067D01*
X149398217Y-98607041D01*
X149469032Y-98612106D01*
X149514095Y-98641067D01*
X149609839Y-98736811D01*
X149609844Y-98736815D01*
X149609845Y-98736816D01*
X149757087Y-98825827D01*
X149921351Y-98877013D01*
X149992735Y-98883500D01*
X150507264Y-98883499D01*
X150578649Y-98877013D01*
X150742913Y-98825827D01*
X150890155Y-98736816D01*
X150890160Y-98736811D01*
X151006567Y-98620405D01*
X151068879Y-98586379D01*
X151095662Y-98583500D01*
X152657318Y-98583500D01*
X152657319Y-98583500D01*
X152789369Y-98557234D01*
X152862235Y-98527051D01*
X152913759Y-98505710D01*
X153025706Y-98430909D01*
X153025966Y-98430648D01*
X153030385Y-98428082D01*
X153061169Y-98420527D01*
X153091422Y-98411055D01*
X153097198Y-98411686D01*
X153099336Y-98411162D01*
X153102577Y-98412274D01*
X153115189Y-98413652D01*
X153115286Y-98413043D01*
X153120173Y-98413817D01*
X153120176Y-98413818D01*
X153339149Y-98448500D01*
X153339152Y-98448500D01*
X153560848Y-98448500D01*
X153560851Y-98448500D01*
X153779824Y-98413818D01*
X153990676Y-98345308D01*
X154188215Y-98244657D01*
X154367576Y-98114343D01*
X154524343Y-97957576D01*
X154654657Y-97778215D01*
X154755308Y-97580676D01*
X154823818Y-97369824D01*
X154858500Y-97150851D01*
X154858500Y-96929149D01*
X154823818Y-96710176D01*
X154755308Y-96499324D01*
X154654657Y-96301785D01*
X154524343Y-96122424D01*
X154524341Y-96122421D01*
X154484341Y-96082421D01*
X154450315Y-96020109D01*
X154455380Y-95949294D01*
X154497927Y-95892458D01*
X154529404Y-95875270D01*
X154595965Y-95850444D01*
X154712904Y-95762904D01*
X154800444Y-95645965D01*
X154800444Y-95645964D01*
X154851494Y-95509093D01*
X154857999Y-95448597D01*
X154858000Y-95448585D01*
X154858000Y-94754000D01*
X153822968Y-94754000D01*
X153869333Y-94673694D01*
X153900000Y-94559244D01*
X153900000Y-94440756D01*
X153869333Y-94326306D01*
X153822968Y-94246000D01*
X154858000Y-94246000D01*
X154858000Y-93551414D01*
X154857999Y-93551402D01*
X154851494Y-93490906D01*
X154800444Y-93354035D01*
X154800444Y-93354034D01*
X154712904Y-93237095D01*
X154595965Y-93149555D01*
X154459093Y-93098505D01*
X154398597Y-93092000D01*
X153704000Y-93092000D01*
X153704000Y-94127031D01*
X153623694Y-94080667D01*
X153509244Y-94050000D01*
X153390756Y-94050000D01*
X153276306Y-94080667D01*
X153196000Y-94127031D01*
X153196000Y-93092000D01*
X152501402Y-93092000D01*
X152440906Y-93098505D01*
X152304035Y-93149555D01*
X152304034Y-93149555D01*
X152187095Y-93237095D01*
X152099555Y-93354034D01*
X152099555Y-93354035D01*
X152048505Y-93490906D01*
X152042000Y-93551402D01*
X152042000Y-94246000D01*
X153077032Y-94246000D01*
X153030667Y-94326306D01*
X153000000Y-94440756D01*
X153000000Y-94559244D01*
X153030667Y-94673694D01*
X153077032Y-94754000D01*
X152042000Y-94754000D01*
X152042000Y-95448597D01*
X152048505Y-95509093D01*
X152099555Y-95645964D01*
X152099555Y-95645965D01*
X152187095Y-95762904D01*
X152304033Y-95850443D01*
X152370596Y-95875270D01*
X152427431Y-95917817D01*
X152452242Y-95984337D01*
X152437151Y-96053711D01*
X152415659Y-96082420D01*
X152375658Y-96122421D01*
X152245345Y-96301781D01*
X152144693Y-96499322D01*
X152144690Y-96499328D01*
X152076183Y-96710170D01*
X152076182Y-96710175D01*
X152076182Y-96710176D01*
X152042477Y-96922986D01*
X152041500Y-96929152D01*
X152041500Y-97090500D01*
X152021498Y-97158621D01*
X151967842Y-97205114D01*
X151915500Y-97216500D01*
X151095662Y-97216500D01*
X151027541Y-97196498D01*
X151006567Y-97179595D01*
X150890160Y-97063188D01*
X150890155Y-97063184D01*
X150742911Y-96974172D01*
X150742906Y-96974170D01*
X150578646Y-96922986D01*
X150526723Y-96918268D01*
X150507265Y-96916500D01*
X150507262Y-96916500D01*
X149992738Y-96916500D01*
X149921353Y-96922986D01*
X149921352Y-96922986D01*
X149757093Y-96974170D01*
X149757088Y-96974172D01*
X149609844Y-97063184D01*
X149609839Y-97063188D01*
X149514095Y-97158933D01*
X149451783Y-97192959D01*
X149380968Y-97187894D01*
X149335905Y-97158933D01*
X149240160Y-97063188D01*
X149240155Y-97063184D01*
X149092911Y-96974172D01*
X149092906Y-96974170D01*
X148928646Y-96922986D01*
X148870252Y-96917680D01*
X148866540Y-96917342D01*
X148800510Y-96891259D01*
X148759063Y-96833616D01*
X148755360Y-96762716D01*
X148788845Y-96702768D01*
X150830909Y-94660706D01*
X150905710Y-94548759D01*
X150920800Y-94512325D01*
X150957234Y-94424370D01*
X150983500Y-94292319D01*
X150983500Y-94157681D01*
X150983500Y-93995662D01*
X151003502Y-93927541D01*
X151020405Y-93906567D01*
X151136811Y-93790160D01*
X151136816Y-93790155D01*
X151225827Y-93642913D01*
X151277013Y-93478649D01*
X151283500Y-93407265D01*
X151283499Y-92892736D01*
X151277013Y-92821351D01*
X151225827Y-92657087D01*
X151136816Y-92509845D01*
X151136815Y-92509844D01*
X151136811Y-92509839D01*
X151041066Y-92414094D01*
X151036657Y-92406020D01*
X151029290Y-92400505D01*
X151019907Y-92375346D01*
X151007040Y-92351782D01*
X151007696Y-92342603D01*
X151004482Y-92333984D01*
X151010189Y-92307750D01*
X151012105Y-92280967D01*
X151018018Y-92271766D01*
X151019575Y-92264610D01*
X151041062Y-92235908D01*
X151056570Y-92220400D01*
X151118882Y-92186379D01*
X151145661Y-92183500D01*
X151607318Y-92183500D01*
X151607319Y-92183500D01*
X151739369Y-92157234D01*
X151812235Y-92127051D01*
X151863759Y-92105710D01*
X151975706Y-92030909D01*
X152070909Y-91935706D01*
X152957981Y-91048632D01*
X153020292Y-91014609D01*
X153066786Y-91013280D01*
X153070169Y-91013815D01*
X153070176Y-91013818D01*
X153289149Y-91048500D01*
X153289152Y-91048500D01*
X153510848Y-91048500D01*
X153510851Y-91048500D01*
X153729824Y-91013818D01*
X153940676Y-90945308D01*
X154138215Y-90844657D01*
X154317576Y-90714343D01*
X154474343Y-90557576D01*
X154604657Y-90378215D01*
X154705308Y-90180676D01*
X154773818Y-89969824D01*
X154808500Y-89750851D01*
X154808500Y-89529149D01*
X154773818Y-89310176D01*
X154705308Y-89099324D01*
X154604657Y-88901785D01*
X154474343Y-88722424D01*
X154474341Y-88722421D01*
X154434341Y-88682421D01*
X154400315Y-88620109D01*
X154405380Y-88549294D01*
X154447927Y-88492458D01*
X154479404Y-88475270D01*
X154545965Y-88450444D01*
X154662904Y-88362904D01*
X154750444Y-88245965D01*
X154750444Y-88245964D01*
X154801494Y-88109093D01*
X154807999Y-88048597D01*
X154808000Y-88048585D01*
X154808000Y-87354000D01*
X153772968Y-87354000D01*
X153819333Y-87273694D01*
X153850000Y-87159244D01*
X153850000Y-87040756D01*
X153819333Y-86926306D01*
X153772968Y-86846000D01*
X154808000Y-86846000D01*
X154808000Y-86151414D01*
X154807999Y-86151402D01*
X154801494Y-86090906D01*
X154750444Y-85954035D01*
X154750444Y-85954034D01*
X154662904Y-85837095D01*
X154545965Y-85749555D01*
X154409093Y-85698505D01*
X154348597Y-85692000D01*
X153654000Y-85692000D01*
X153654000Y-86727031D01*
X153573694Y-86680667D01*
X153459244Y-86650000D01*
X153340756Y-86650000D01*
X153226306Y-86680667D01*
X153146000Y-86727031D01*
X153146000Y-85692000D01*
X152451402Y-85692000D01*
X152390906Y-85698505D01*
X152254035Y-85749555D01*
X152254034Y-85749555D01*
X152137095Y-85837095D01*
X152049555Y-85954034D01*
X152049555Y-85954035D01*
X151998505Y-86090906D01*
X151992000Y-86151402D01*
X151992000Y-86846000D01*
X153027032Y-86846000D01*
X152980667Y-86926306D01*
X152950000Y-87040756D01*
X152950000Y-87159244D01*
X152980667Y-87273694D01*
X153027032Y-87354000D01*
X151992000Y-87354000D01*
X151992000Y-88048597D01*
X151998505Y-88109093D01*
X152049555Y-88245964D01*
X152049555Y-88245965D01*
X152137095Y-88362904D01*
X152254033Y-88450443D01*
X152320596Y-88475270D01*
X152377431Y-88517817D01*
X152402242Y-88584337D01*
X152387151Y-88653711D01*
X152365659Y-88682420D01*
X152325658Y-88722421D01*
X152195345Y-88901781D01*
X152094693Y-89099322D01*
X152094690Y-89099328D01*
X152026183Y-89310170D01*
X152026182Y-89310175D01*
X152026182Y-89310176D01*
X151991500Y-89529149D01*
X151991500Y-89750851D01*
X152026182Y-89969824D01*
X152026183Y-89969827D01*
X152026719Y-89973211D01*
X152017619Y-90043622D01*
X151991366Y-90082017D01*
X151293790Y-90779595D01*
X151266421Y-90794539D01*
X151240192Y-90811396D01*
X151233890Y-90812302D01*
X151231477Y-90813620D01*
X151204694Y-90816500D01*
X151145661Y-90816500D01*
X151077540Y-90796498D01*
X151056570Y-90779599D01*
X151015155Y-90738184D01*
X150867913Y-90649173D01*
X150867912Y-90649172D01*
X150867911Y-90649172D01*
X150867906Y-90649170D01*
X150703646Y-90597986D01*
X150651723Y-90593268D01*
X150632265Y-90591500D01*
X150632262Y-90591500D01*
X149967738Y-90591500D01*
X149896353Y-90597986D01*
X149896352Y-90597986D01*
X149732093Y-90649170D01*
X149732088Y-90649172D01*
X149584844Y-90738184D01*
X149584839Y-90738188D01*
X149463188Y-90859839D01*
X149463184Y-90859844D01*
X149374172Y-91007088D01*
X149374170Y-91007093D01*
X149322986Y-91171353D01*
X149316500Y-91242737D01*
X149316500Y-91757261D01*
X149322986Y-91828646D01*
X149322986Y-91828647D01*
X149374170Y-91992906D01*
X149374172Y-91992911D01*
X149374173Y-91992913D01*
X149435684Y-92094664D01*
X149463184Y-92140155D01*
X149463188Y-92140160D01*
X149558933Y-92235905D01*
X149592959Y-92298217D01*
X149587894Y-92369032D01*
X149558933Y-92414095D01*
X149463188Y-92509839D01*
X149463184Y-92509844D01*
X149374172Y-92657088D01*
X149374170Y-92657093D01*
X149322986Y-92821353D01*
X149316500Y-92892737D01*
X149316500Y-93407261D01*
X149322986Y-93478646D01*
X149322986Y-93478647D01*
X149374170Y-93642906D01*
X149374172Y-93642911D01*
X149463184Y-93790155D01*
X149463188Y-93790160D01*
X149526611Y-93853583D01*
X149560637Y-93915895D01*
X149555572Y-93986710D01*
X149526611Y-94031773D01*
X147453790Y-96104595D01*
X147391478Y-96138620D01*
X147364695Y-96141500D01*
X144269305Y-96141500D01*
X144201184Y-96121498D01*
X144154691Y-96067842D01*
X144144587Y-95997568D01*
X144174081Y-95932988D01*
X144180210Y-95926405D01*
X145009931Y-95096684D01*
X146130909Y-93975706D01*
X146173599Y-93911816D01*
X146205710Y-93863759D01*
X146227051Y-93812235D01*
X146257234Y-93739369D01*
X146283500Y-93607319D01*
X146283500Y-93472681D01*
X146283500Y-80532681D01*
X146280852Y-80519370D01*
X146257234Y-80400631D01*
X146257231Y-80400623D01*
X146257230Y-80400620D01*
X146208080Y-80281964D01*
X146206403Y-80277277D01*
X146130909Y-80164294D01*
X146035706Y-80069091D01*
X144715405Y-78748790D01*
X144681379Y-78686478D01*
X144678500Y-78659695D01*
X144678500Y-73976000D01*
X144698502Y-73907879D01*
X144752158Y-73861386D01*
X144804500Y-73850000D01*
X145760500Y-73850000D01*
X145828621Y-73870002D01*
X145875114Y-73923658D01*
X145886500Y-73976000D01*
X145886500Y-77617321D01*
X145912766Y-77749369D01*
X145912768Y-77749374D01*
X145942948Y-77822235D01*
X145964290Y-77873760D01*
X145976355Y-77891816D01*
X145988504Y-77909997D01*
X145988505Y-77910000D01*
X145988506Y-77910000D01*
X146039091Y-77985706D01*
X146039093Y-77985708D01*
X148396684Y-80343299D01*
X148430710Y-80405611D01*
X148431168Y-80407812D01*
X148431500Y-80409479D01*
X148466413Y-80585000D01*
X148534898Y-80750336D01*
X148634322Y-80899135D01*
X148760865Y-81025678D01*
X148909664Y-81125102D01*
X149075000Y-81193587D01*
X149250521Y-81228500D01*
X149250522Y-81228500D01*
X149429478Y-81228500D01*
X149429479Y-81228500D01*
X149605000Y-81193587D01*
X149770336Y-81125102D01*
X149919135Y-81025678D01*
X150045678Y-80899135D01*
X150145102Y-80750336D01*
X150213587Y-80585000D01*
X150248500Y-80409479D01*
X150248500Y-80230521D01*
X150213587Y-80055000D01*
X150145102Y-79889664D01*
X150045678Y-79740865D01*
X149919135Y-79614322D01*
X149770336Y-79514898D01*
X149653429Y-79466473D01*
X149605003Y-79446414D01*
X149605001Y-79446413D01*
X149605000Y-79446413D01*
X149517774Y-79429062D01*
X149427812Y-79411168D01*
X149364903Y-79378260D01*
X149363299Y-79376684D01*
X147290405Y-77303790D01*
X147256379Y-77241478D01*
X147253500Y-77214695D01*
X147253500Y-73976000D01*
X147273502Y-73907879D01*
X147327158Y-73861386D01*
X147379500Y-73850000D01*
X149631195Y-73850000D01*
X149699316Y-73870002D01*
X149720290Y-73886905D01*
X155079595Y-79246210D01*
X155113621Y-79308522D01*
X155116500Y-79335305D01*
X155116500Y-100267321D01*
X155129035Y-100330337D01*
X155142766Y-100399369D01*
X155165949Y-100455337D01*
X155171646Y-100469090D01*
X155171646Y-100469091D01*
X155194290Y-100523759D01*
X155262814Y-100626313D01*
X155269091Y-100635706D01*
X155850108Y-101216723D01*
X155864511Y-101243100D01*
X155881230Y-101268086D01*
X155881338Y-101273917D01*
X155884132Y-101279034D01*
X155881988Y-101309013D01*
X155882545Y-101339070D01*
X155879305Y-101346525D01*
X155879068Y-101349849D01*
X155868253Y-101371963D01*
X155800601Y-101481646D01*
X155747816Y-101529125D01*
X155693360Y-101541500D01*
X150356640Y-101541500D01*
X150288519Y-101521498D01*
X150249399Y-101481647D01*
X150249398Y-101481646D01*
X150169030Y-101351348D01*
X150169029Y-101351347D01*
X150169024Y-101351341D01*
X150043658Y-101225975D01*
X150043652Y-101225970D01*
X149933269Y-101157885D01*
X149892738Y-101132885D01*
X149805253Y-101103896D01*
X149724427Y-101077113D01*
X149724420Y-101077112D01*
X149620553Y-101066500D01*
X148469455Y-101066500D01*
X148365574Y-101077112D01*
X148197261Y-101132885D01*
X148046347Y-101225970D01*
X148046341Y-101225975D01*
X147951595Y-101320722D01*
X147889283Y-101354748D01*
X147818468Y-101349683D01*
X147773405Y-101320722D01*
X147703658Y-101250975D01*
X147703652Y-101250970D01*
X147552735Y-101157883D01*
X147544863Y-101155275D01*
X147486493Y-101114859D01*
X147459239Y-101049302D01*
X147458500Y-101035672D01*
X147458500Y-100675548D01*
X147478502Y-100607427D01*
X147479735Y-100605546D01*
X147492542Y-100586379D01*
X147580102Y-100455336D01*
X147648587Y-100290000D01*
X147683500Y-100114479D01*
X147683500Y-99935521D01*
X147648587Y-99760000D01*
X147580102Y-99594664D01*
X147480678Y-99445865D01*
X147354135Y-99319322D01*
X147205336Y-99219898D01*
X147088429Y-99171473D01*
X147040003Y-99151414D01*
X147040001Y-99151413D01*
X147040000Y-99151413D01*
X146951645Y-99133838D01*
X146864481Y-99116500D01*
X146864479Y-99116500D01*
X146685521Y-99116500D01*
X146685518Y-99116500D01*
X146554771Y-99142507D01*
X146510000Y-99151413D01*
X146509999Y-99151413D01*
X146509996Y-99151414D01*
X146404133Y-99195265D01*
X146352868Y-99216500D01*
X146344662Y-99219899D01*
X146195869Y-99319319D01*
X146195862Y-99319324D01*
X146069324Y-99445862D01*
X146069319Y-99445869D01*
X145969899Y-99594662D01*
X145901414Y-99759996D01*
X145866500Y-99935518D01*
X145866500Y-100114481D01*
X145876549Y-100165000D01*
X145901413Y-100290000D01*
X145969898Y-100455336D01*
X146015617Y-100523759D01*
X146070265Y-100605546D01*
X146091480Y-100673299D01*
X146091500Y-100675548D01*
X146091500Y-100989282D01*
X146071498Y-101057403D01*
X146017842Y-101103896D01*
X146005137Y-101108884D01*
X145865139Y-101155275D01*
X145857262Y-101157885D01*
X145706347Y-101250970D01*
X145706341Y-101250975D01*
X145580975Y-101376341D01*
X145580970Y-101376347D01*
X145547500Y-101430611D01*
X145503306Y-101502262D01*
X145500601Y-101506647D01*
X145447815Y-101554125D01*
X145393360Y-101566500D01*
X140056640Y-101566500D01*
X139988519Y-101546498D01*
X139949399Y-101506647D01*
X139946694Y-101502262D01*
X139869030Y-101376348D01*
X139869029Y-101376347D01*
X139869024Y-101376341D01*
X139743658Y-101250975D01*
X139743652Y-101250970D01*
X139703129Y-101225975D01*
X139592738Y-101157885D01*
X139462892Y-101114859D01*
X139424427Y-101102113D01*
X139424420Y-101102112D01*
X139320553Y-101091500D01*
X138169455Y-101091500D01*
X138065573Y-101102113D01*
X137970388Y-101133653D01*
X137899433Y-101136093D01*
X137838423Y-101099784D01*
X137806728Y-101036255D01*
X137814411Y-100965675D01*
X137841657Y-100924956D01*
X138146211Y-100620404D01*
X138208523Y-100586379D01*
X138235306Y-100583500D01*
X141949452Y-100583500D01*
X142017573Y-100603502D01*
X142019454Y-100604735D01*
X142020864Y-100605677D01*
X142020865Y-100605678D01*
X142169664Y-100705102D01*
X142335000Y-100773587D01*
X142510521Y-100808500D01*
X142510522Y-100808500D01*
X142689478Y-100808500D01*
X142689479Y-100808500D01*
X142865000Y-100773587D01*
X143030336Y-100705102D01*
X143179135Y-100605678D01*
X143305678Y-100479135D01*
X143405102Y-100330336D01*
X143473587Y-100165000D01*
X143508500Y-99989479D01*
X143508500Y-99810521D01*
X143473587Y-99635000D01*
X143405102Y-99469664D01*
X143305678Y-99320865D01*
X143179135Y-99194322D01*
X143030336Y-99094898D01*
X142913429Y-99046473D01*
X142865003Y-99026414D01*
X142865001Y-99026413D01*
X142865000Y-99026413D01*
X142776645Y-99008838D01*
X142689481Y-98991500D01*
X142689479Y-98991500D01*
X142510521Y-98991500D01*
X142510518Y-98991500D01*
X142379771Y-99017507D01*
X142335000Y-99026413D01*
X142334999Y-99026413D01*
X142334996Y-99026414D01*
X142169662Y-99094899D01*
X142137334Y-99116500D01*
X142020870Y-99194319D01*
X142019454Y-99195265D01*
X141951701Y-99216480D01*
X141949452Y-99216500D01*
X137832678Y-99216500D01*
X137700630Y-99242766D01*
X137700629Y-99242766D01*
X137629726Y-99272136D01*
X137576241Y-99294290D01*
X137464294Y-99369090D01*
X137464288Y-99369095D01*
X136354255Y-100479130D01*
X135994294Y-100839091D01*
X135949886Y-100883499D01*
X135899090Y-100934294D01*
X135899090Y-100934295D01*
X135821350Y-101050640D01*
X135766873Y-101096168D01*
X135756218Y-101100243D01*
X135750574Y-101102112D01*
X135750574Y-101102113D01*
X135690662Y-101121965D01*
X135582261Y-101157885D01*
X135431347Y-101250970D01*
X135431341Y-101250975D01*
X135305975Y-101376341D01*
X135305970Y-101376347D01*
X135272500Y-101430611D01*
X135228306Y-101502262D01*
X135225601Y-101506647D01*
X135172815Y-101554125D01*
X135118360Y-101566500D01*
X129781640Y-101566500D01*
X129713519Y-101546498D01*
X129674399Y-101506647D01*
X129671694Y-101502262D01*
X129594030Y-101376348D01*
X129594029Y-101376347D01*
X129594024Y-101376341D01*
X129468658Y-101250975D01*
X129468652Y-101250970D01*
X129428129Y-101225975D01*
X129317738Y-101157885D01*
X129187892Y-101114859D01*
X129149427Y-101102113D01*
X129149420Y-101102112D01*
X129045553Y-101091500D01*
X127894455Y-101091500D01*
X127790574Y-101102112D01*
X127622261Y-101157885D01*
X127471347Y-101250970D01*
X127471341Y-101250975D01*
X127345975Y-101376341D01*
X127345970Y-101376347D01*
X127252885Y-101527262D01*
X127197113Y-101695572D01*
X127197112Y-101695579D01*
X127186500Y-101799446D01*
X127186500Y-102700544D01*
X127197112Y-102804425D01*
X127252885Y-102972738D01*
X127345970Y-103123652D01*
X127345975Y-103123658D01*
X127471341Y-103249024D01*
X127471347Y-103249029D01*
X127471348Y-103249030D01*
X127622262Y-103342115D01*
X127790574Y-103397887D01*
X127894455Y-103408500D01*
X129045544Y-103408499D01*
X129149426Y-103397887D01*
X129317738Y-103342115D01*
X129468652Y-103249030D01*
X129594030Y-103123652D01*
X129674400Y-102993351D01*
X129727185Y-102945875D01*
X129781640Y-102933500D01*
X135118360Y-102933500D01*
X135186481Y-102953502D01*
X135225599Y-102993351D01*
X135303873Y-103120252D01*
X135305970Y-103123652D01*
X135305975Y-103123658D01*
X135431341Y-103249024D01*
X135431347Y-103249029D01*
X135431348Y-103249030D01*
X135582262Y-103342115D01*
X135750574Y-103397887D01*
X135854455Y-103408500D01*
X137005544Y-103408499D01*
X137109426Y-103397887D01*
X137277738Y-103342115D01*
X137428652Y-103249030D01*
X137453658Y-103224024D01*
X137498405Y-103179278D01*
X137560717Y-103145252D01*
X137631532Y-103150317D01*
X137676595Y-103179278D01*
X137746341Y-103249024D01*
X137746347Y-103249029D01*
X137746348Y-103249030D01*
X137897262Y-103342115D01*
X138065574Y-103397887D01*
X138169455Y-103408500D01*
X139320544Y-103408499D01*
X139424426Y-103397887D01*
X139592738Y-103342115D01*
X139743652Y-103249030D01*
X139869030Y-103123652D01*
X139949400Y-102993351D01*
X140002185Y-102945875D01*
X140056640Y-102933500D01*
X145393360Y-102933500D01*
X145461481Y-102953502D01*
X145500599Y-102993351D01*
X145578873Y-103120252D01*
X145580970Y-103123652D01*
X145580975Y-103123658D01*
X145706341Y-103249024D01*
X145706347Y-103249029D01*
X145706348Y-103249030D01*
X145857262Y-103342115D01*
X146025574Y-103397887D01*
X146129455Y-103408500D01*
X147280544Y-103408499D01*
X147384426Y-103397887D01*
X147552738Y-103342115D01*
X147703652Y-103249030D01*
X147728658Y-103224024D01*
X147798405Y-103154278D01*
X147860717Y-103120252D01*
X147931532Y-103125317D01*
X147976595Y-103154278D01*
X148046341Y-103224024D01*
X148046347Y-103224029D01*
X148046348Y-103224030D01*
X148197262Y-103317115D01*
X148365574Y-103372887D01*
X148469455Y-103383500D01*
X149620544Y-103383499D01*
X149724426Y-103372887D01*
X149892738Y-103317115D01*
X150043652Y-103224030D01*
X150169030Y-103098652D01*
X150249400Y-102968351D01*
X150302185Y-102920875D01*
X150356640Y-102908500D01*
X155693360Y-102908500D01*
X155761481Y-102928502D01*
X155800599Y-102968351D01*
X155816021Y-102993353D01*
X155880970Y-103098652D01*
X155880975Y-103098658D01*
X156006341Y-103224024D01*
X156006347Y-103224029D01*
X156006348Y-103224030D01*
X156157262Y-103317115D01*
X156325574Y-103372887D01*
X156429455Y-103383500D01*
X157580544Y-103383499D01*
X157684426Y-103372887D01*
X157852738Y-103317115D01*
X158003652Y-103224030D01*
X158129030Y-103098652D01*
X158222115Y-102947738D01*
X158277887Y-102779426D01*
X158288500Y-102675545D01*
X158288499Y-101774456D01*
X158277887Y-101670574D01*
X158222115Y-101502262D01*
X158129030Y-101351348D01*
X158129029Y-101351347D01*
X158129024Y-101351341D01*
X158003658Y-101225975D01*
X158003652Y-101225970D01*
X157893269Y-101157885D01*
X157852738Y-101132885D01*
X157765253Y-101103896D01*
X157684427Y-101077113D01*
X157684420Y-101077112D01*
X157580553Y-101066500D01*
X157580545Y-101066500D01*
X157409500Y-101066500D01*
X157341379Y-101046498D01*
X157294886Y-100992842D01*
X157283500Y-100940500D01*
X157283500Y-100932685D01*
X157283500Y-100932681D01*
X157273717Y-100883500D01*
X157257234Y-100800631D01*
X157220839Y-100712767D01*
X157205710Y-100676241D01*
X157130909Y-100564294D01*
X157035706Y-100469091D01*
X156520405Y-99953790D01*
X156486379Y-99891478D01*
X156483500Y-99864695D01*
X156483500Y-78932680D01*
X156478271Y-78906395D01*
X156476934Y-78899672D01*
X156457234Y-78800630D01*
X156405968Y-78676865D01*
X156405826Y-78676414D01*
X156330909Y-78564294D01*
X156308115Y-78541500D01*
X156235706Y-78469091D01*
X151831710Y-74065095D01*
X151797684Y-74002783D01*
X151802749Y-73931968D01*
X151845296Y-73875132D01*
X151911816Y-73850321D01*
X151920805Y-73850000D01*
X157483847Y-73850000D01*
X157551968Y-73870002D01*
X157598461Y-73923658D01*
X157609847Y-73975928D01*
X157624484Y-99497566D01*
X157624487Y-99502926D01*
X157620730Y-99547406D01*
X157624523Y-99568554D01*
X157624530Y-99579727D01*
X157624531Y-99579728D01*
X157624537Y-99590046D01*
X157624538Y-99590054D01*
X157634731Y-99628006D01*
X157637059Y-99638418D01*
X157643183Y-99672549D01*
X157644003Y-99677119D01*
X157648391Y-99686456D01*
X157656042Y-99707361D01*
X157658718Y-99717326D01*
X157678383Y-99751341D01*
X157683332Y-99760806D01*
X159380885Y-103372887D01*
X160743573Y-106272438D01*
X160743572Y-106272438D01*
X160747662Y-106281141D01*
X160755506Y-106307715D01*
X160775571Y-106340528D01*
X160778510Y-106346781D01*
X160778514Y-106346787D01*
X160791933Y-106375339D01*
X160791936Y-106375342D01*
X160794184Y-106378005D01*
X160809126Y-106400071D01*
X160934758Y-106636021D01*
X160941007Y-106649656D01*
X161049810Y-106930037D01*
X161054394Y-106944318D01*
X161129107Y-107235635D01*
X161131962Y-107250360D01*
X161171529Y-107548493D01*
X161172614Y-107563453D01*
X161176474Y-107864181D01*
X161175773Y-107879164D01*
X161143871Y-108178211D01*
X161141395Y-108193004D01*
X161074184Y-108486143D01*
X161069968Y-108500537D01*
X160968397Y-108783618D01*
X160962500Y-108797409D01*
X160828013Y-109066410D01*
X160820519Y-109079403D01*
X160655021Y-109330517D01*
X160646037Y-109342527D01*
X160451868Y-109572199D01*
X160441519Y-109583057D01*
X160221437Y-109788026D01*
X160209872Y-109797577D01*
X159966992Y-109974943D01*
X159954374Y-109983052D01*
X159692138Y-110130299D01*
X159678646Y-110136851D01*
X159400776Y-110251893D01*
X159386601Y-110256796D01*
X159097019Y-110338006D01*
X159082362Y-110341189D01*
X158785189Y-110387413D01*
X158770256Y-110388832D01*
X158468440Y-110399458D01*
X158463946Y-110399536D01*
X158457730Y-110399533D01*
X158454724Y-110399496D01*
X158396310Y-110398073D01*
X158389653Y-110398785D01*
X158376214Y-110399498D01*
X127095202Y-110386213D01*
X127080746Y-110386206D01*
X127074622Y-110384725D01*
X127014945Y-110386178D01*
X127013359Y-110386178D01*
X127013358Y-110386177D01*
X127013358Y-110386178D01*
X127006534Y-110386175D01*
X127002156Y-110386097D01*
X126700681Y-110375483D01*
X126685748Y-110374064D01*
X126388575Y-110327840D01*
X126373918Y-110324657D01*
X126084336Y-110243447D01*
X126070161Y-110238544D01*
X125792291Y-110123502D01*
X125778799Y-110116950D01*
X125516563Y-109969703D01*
X125503945Y-109961594D01*
X125279345Y-109797577D01*
X125261062Y-109784225D01*
X125249500Y-109774677D01*
X125029413Y-109569703D01*
X125019076Y-109558857D01*
X124824896Y-109329173D01*
X124815916Y-109317168D01*
X124655081Y-109073130D01*
X124650416Y-109066050D01*
X124642924Y-109053061D01*
X124563917Y-108895032D01*
X124508436Y-108784057D01*
X124502540Y-108770269D01*
X124405759Y-108500537D01*
X124400967Y-108487182D01*
X124396755Y-108472802D01*
X124329541Y-108179654D01*
X124327066Y-108164862D01*
X124325849Y-108153451D01*
X124295163Y-107865809D01*
X124294463Y-107850832D01*
X124296096Y-107723629D01*
X124298323Y-107550094D01*
X124299407Y-107535154D01*
X124338977Y-107236998D01*
X124341827Y-107222298D01*
X124347413Y-107200516D01*
X127187000Y-107200516D01*
X127197605Y-107304318D01*
X127197606Y-107304321D01*
X127253342Y-107472525D01*
X127346365Y-107623339D01*
X127346370Y-107623345D01*
X127471654Y-107748629D01*
X127471660Y-107748634D01*
X127622474Y-107841657D01*
X127790678Y-107897393D01*
X127790681Y-107897394D01*
X127894483Y-107907999D01*
X127894483Y-107908000D01*
X128216000Y-107908000D01*
X128724000Y-107908000D01*
X129045517Y-107908000D01*
X129045516Y-107907999D01*
X129149318Y-107897394D01*
X129149321Y-107897393D01*
X129317525Y-107841657D01*
X129468339Y-107748634D01*
X129468345Y-107748629D01*
X129593629Y-107623345D01*
X129593634Y-107623339D01*
X129686657Y-107472525D01*
X129742393Y-107304321D01*
X129742394Y-107304318D01*
X129752999Y-107200516D01*
X129753000Y-107200516D01*
X135147000Y-107200516D01*
X135157605Y-107304318D01*
X135157606Y-107304321D01*
X135213342Y-107472525D01*
X135306365Y-107623339D01*
X135306370Y-107623345D01*
X135431654Y-107748629D01*
X135431660Y-107748634D01*
X135582474Y-107841657D01*
X135750678Y-107897393D01*
X135750681Y-107897394D01*
X135854483Y-107907999D01*
X135854483Y-107908000D01*
X136176000Y-107908000D01*
X136684000Y-107908000D01*
X137005517Y-107908000D01*
X137005516Y-107907999D01*
X137109318Y-107897394D01*
X137109321Y-107897393D01*
X137277525Y-107841657D01*
X137428339Y-107748634D01*
X137428345Y-107748629D01*
X137498405Y-107678570D01*
X137560717Y-107644544D01*
X137631532Y-107649609D01*
X137676595Y-107678570D01*
X137746654Y-107748629D01*
X137746660Y-107748634D01*
X137897474Y-107841657D01*
X138065678Y-107897393D01*
X138065681Y-107897394D01*
X138169483Y-107907999D01*
X138169483Y-107908000D01*
X138491000Y-107908000D01*
X138999000Y-107908000D01*
X139320517Y-107908000D01*
X139320516Y-107907999D01*
X139424318Y-107897394D01*
X139424321Y-107897393D01*
X139592525Y-107841657D01*
X139743339Y-107748634D01*
X139743345Y-107748629D01*
X139868629Y-107623345D01*
X139868634Y-107623339D01*
X139961657Y-107472525D01*
X140017393Y-107304321D01*
X140017394Y-107304318D01*
X140027999Y-107200516D01*
X140028000Y-107200516D01*
X145422000Y-107200516D01*
X145432605Y-107304318D01*
X145432606Y-107304321D01*
X145488342Y-107472525D01*
X145581365Y-107623339D01*
X145581370Y-107623345D01*
X145706654Y-107748629D01*
X145706660Y-107748634D01*
X145857474Y-107841657D01*
X146025678Y-107897393D01*
X146025681Y-107897394D01*
X146129483Y-107907999D01*
X146129483Y-107908000D01*
X146451000Y-107908000D01*
X146451000Y-107004000D01*
X146959000Y-107004000D01*
X146959000Y-107908000D01*
X147280517Y-107908000D01*
X147280516Y-107907999D01*
X147384318Y-107897394D01*
X147384321Y-107897393D01*
X147552525Y-107841657D01*
X147703339Y-107748634D01*
X147703345Y-107748629D01*
X147798405Y-107653570D01*
X147860717Y-107619544D01*
X147931532Y-107624609D01*
X147976595Y-107653570D01*
X148046654Y-107723629D01*
X148046660Y-107723634D01*
X148197474Y-107816657D01*
X148365678Y-107872393D01*
X148365681Y-107872394D01*
X148469483Y-107882999D01*
X148469483Y-107883000D01*
X148791000Y-107883000D01*
X149299000Y-107883000D01*
X149620517Y-107883000D01*
X149620516Y-107882999D01*
X149724318Y-107872394D01*
X149724321Y-107872393D01*
X149892525Y-107816657D01*
X150043339Y-107723634D01*
X150043345Y-107723629D01*
X150168629Y-107598345D01*
X150168634Y-107598339D01*
X150261657Y-107447525D01*
X150317393Y-107279321D01*
X150317394Y-107279318D01*
X150327999Y-107175516D01*
X150328000Y-107175516D01*
X155722000Y-107175516D01*
X155732605Y-107279318D01*
X155732606Y-107279321D01*
X155788342Y-107447525D01*
X155881365Y-107598339D01*
X155881370Y-107598345D01*
X156006654Y-107723629D01*
X156006660Y-107723634D01*
X156157474Y-107816657D01*
X156325678Y-107872393D01*
X156325681Y-107872394D01*
X156429483Y-107882999D01*
X156429483Y-107883000D01*
X156751000Y-107883000D01*
X157259000Y-107883000D01*
X157580517Y-107883000D01*
X157580516Y-107882999D01*
X157684318Y-107872394D01*
X157684321Y-107872393D01*
X157852525Y-107816657D01*
X158003339Y-107723634D01*
X158003345Y-107723629D01*
X158128629Y-107598345D01*
X158128634Y-107598339D01*
X158221657Y-107447525D01*
X158277393Y-107279321D01*
X158277394Y-107279318D01*
X158287999Y-107175516D01*
X158288000Y-107175516D01*
X158288000Y-106979000D01*
X157259000Y-106979000D01*
X157259000Y-107883000D01*
X156751000Y-107883000D01*
X156751000Y-106979000D01*
X155722000Y-106979000D01*
X155722000Y-107175516D01*
X150328000Y-107175516D01*
X150328000Y-106979000D01*
X149299000Y-106979000D01*
X149299000Y-107883000D01*
X148791000Y-107883000D01*
X148791000Y-106979000D01*
X148110102Y-106979000D01*
X148069592Y-107001121D01*
X148042809Y-107004000D01*
X146959000Y-107004000D01*
X146451000Y-107004000D01*
X145422000Y-107004000D01*
X145422000Y-107200516D01*
X140028000Y-107200516D01*
X140028000Y-107004000D01*
X138999000Y-107004000D01*
X138999000Y-107908000D01*
X138491000Y-107908000D01*
X138491000Y-107004000D01*
X136684000Y-107004000D01*
X136684000Y-107908000D01*
X136176000Y-107908000D01*
X136176000Y-107004000D01*
X135147000Y-107004000D01*
X135147000Y-107200516D01*
X129753000Y-107200516D01*
X129753000Y-107004000D01*
X128724000Y-107004000D01*
X128724000Y-107908000D01*
X128216000Y-107908000D01*
X128216000Y-107004000D01*
X127187000Y-107004000D01*
X127187000Y-107200516D01*
X124347413Y-107200516D01*
X124416545Y-106930962D01*
X124421128Y-106916686D01*
X124425188Y-106906224D01*
X124529931Y-106636303D01*
X124536179Y-106622672D01*
X124616937Y-106471000D01*
X124661811Y-106386720D01*
X124676753Y-106364656D01*
X124679005Y-106361990D01*
X124692424Y-106333434D01*
X124698958Y-106321304D01*
X124712303Y-106299483D01*
X127187000Y-106299483D01*
X127187000Y-106496000D01*
X128216000Y-106496000D01*
X128724000Y-106496000D01*
X129753000Y-106496000D01*
X129753000Y-106299483D01*
X135147000Y-106299483D01*
X135147000Y-106496000D01*
X136176000Y-106496000D01*
X136684000Y-106496000D01*
X138491000Y-106496000D01*
X138999000Y-106496000D01*
X140028000Y-106496000D01*
X140028000Y-106299483D01*
X145422000Y-106299483D01*
X145422000Y-106496000D01*
X146451000Y-106496000D01*
X146451000Y-105592000D01*
X146959000Y-105592000D01*
X146959000Y-106496000D01*
X147639898Y-106496000D01*
X147680408Y-106473879D01*
X147707191Y-106471000D01*
X148791000Y-106471000D01*
X149299000Y-106471000D01*
X150328000Y-106471000D01*
X150328000Y-106274483D01*
X155722000Y-106274483D01*
X155722000Y-106471000D01*
X156751000Y-106471000D01*
X157259000Y-106471000D01*
X158288000Y-106471000D01*
X158288000Y-106274483D01*
X158277394Y-106170681D01*
X158277393Y-106170678D01*
X158221657Y-106002474D01*
X158128634Y-105851660D01*
X158128629Y-105851654D01*
X158003345Y-105726370D01*
X158003339Y-105726365D01*
X157852525Y-105633342D01*
X157684321Y-105577606D01*
X157684318Y-105577605D01*
X157580516Y-105567000D01*
X157259000Y-105567000D01*
X157259000Y-106471000D01*
X156751000Y-106471000D01*
X156751000Y-105567000D01*
X156429483Y-105567000D01*
X156325681Y-105577605D01*
X156325678Y-105577606D01*
X156157474Y-105633342D01*
X156006660Y-105726365D01*
X156006654Y-105726370D01*
X155881370Y-105851654D01*
X155881365Y-105851660D01*
X155788342Y-106002474D01*
X155732606Y-106170678D01*
X155732605Y-106170681D01*
X155722000Y-106274483D01*
X150328000Y-106274483D01*
X150317394Y-106170681D01*
X150317393Y-106170678D01*
X150261657Y-106002474D01*
X150168634Y-105851660D01*
X150168629Y-105851654D01*
X150043345Y-105726370D01*
X150043339Y-105726365D01*
X149892525Y-105633342D01*
X149724321Y-105577606D01*
X149724318Y-105577605D01*
X149620516Y-105567000D01*
X149299000Y-105567000D01*
X149299000Y-106471000D01*
X148791000Y-106471000D01*
X148791000Y-105567000D01*
X148469483Y-105567000D01*
X148365681Y-105577605D01*
X148365678Y-105577606D01*
X148197474Y-105633342D01*
X148046660Y-105726365D01*
X148046654Y-105726370D01*
X147951595Y-105821430D01*
X147889283Y-105855456D01*
X147818468Y-105850391D01*
X147773405Y-105821430D01*
X147703345Y-105751370D01*
X147703339Y-105751365D01*
X147552525Y-105658342D01*
X147384321Y-105602606D01*
X147384318Y-105602605D01*
X147280516Y-105592000D01*
X146959000Y-105592000D01*
X146451000Y-105592000D01*
X146129483Y-105592000D01*
X146025681Y-105602605D01*
X146025678Y-105602606D01*
X145857474Y-105658342D01*
X145706660Y-105751365D01*
X145706654Y-105751370D01*
X145581370Y-105876654D01*
X145581365Y-105876660D01*
X145488342Y-106027474D01*
X145432606Y-106195678D01*
X145432605Y-106195681D01*
X145422000Y-106299483D01*
X140028000Y-106299483D01*
X140017394Y-106195681D01*
X140017393Y-106195678D01*
X139961657Y-106027474D01*
X139868634Y-105876660D01*
X139868629Y-105876654D01*
X139743345Y-105751370D01*
X139743339Y-105751365D01*
X139592525Y-105658342D01*
X139424321Y-105602606D01*
X139424318Y-105602605D01*
X139320516Y-105592000D01*
X138999000Y-105592000D01*
X138999000Y-106496000D01*
X138491000Y-106496000D01*
X138491000Y-105592000D01*
X138169483Y-105592000D01*
X138065681Y-105602605D01*
X138065678Y-105602606D01*
X137897474Y-105658342D01*
X137746660Y-105751365D01*
X137746654Y-105751370D01*
X137676595Y-105821430D01*
X137614283Y-105855456D01*
X137543468Y-105850391D01*
X137498405Y-105821430D01*
X137428345Y-105751370D01*
X137428339Y-105751365D01*
X137277525Y-105658342D01*
X137109321Y-105602606D01*
X137109318Y-105602605D01*
X137005516Y-105592000D01*
X136684000Y-105592000D01*
X136684000Y-106496000D01*
X136176000Y-106496000D01*
X136176000Y-105592000D01*
X135854483Y-105592000D01*
X135750681Y-105602605D01*
X135750678Y-105602606D01*
X135582474Y-105658342D01*
X135431660Y-105751365D01*
X135431654Y-105751370D01*
X135306370Y-105876654D01*
X135306365Y-105876660D01*
X135213342Y-106027474D01*
X135157606Y-106195678D01*
X135157605Y-106195681D01*
X135147000Y-106299483D01*
X129753000Y-106299483D01*
X129742394Y-106195681D01*
X129742393Y-106195678D01*
X129686657Y-106027474D01*
X129593634Y-105876660D01*
X129593629Y-105876654D01*
X129468345Y-105751370D01*
X129468339Y-105751365D01*
X129317525Y-105658342D01*
X129149321Y-105602606D01*
X129149318Y-105602605D01*
X129045516Y-105592000D01*
X128724000Y-105592000D01*
X128724000Y-106496000D01*
X128216000Y-106496000D01*
X128216000Y-105592000D01*
X127894483Y-105592000D01*
X127790681Y-105602605D01*
X127790678Y-105602606D01*
X127622474Y-105658342D01*
X127471660Y-105751365D01*
X127471654Y-105751370D01*
X127346370Y-105876654D01*
X127346365Y-105876660D01*
X127253342Y-106027474D01*
X127197606Y-106195678D01*
X127197605Y-106195681D01*
X127187000Y-106299483D01*
X124712303Y-106299483D01*
X124715432Y-106294366D01*
X124720556Y-106277001D01*
X124727366Y-106259084D01*
X124735069Y-106242693D01*
X125537188Y-104535931D01*
X134149500Y-104535931D01*
X134149500Y-104664069D01*
X134174499Y-104789744D01*
X134223535Y-104908127D01*
X134294724Y-105014669D01*
X134385331Y-105105276D01*
X134491873Y-105176465D01*
X134610256Y-105225501D01*
X134735931Y-105250500D01*
X134735936Y-105250500D01*
X134864064Y-105250500D01*
X134864069Y-105250500D01*
X134989744Y-105225501D01*
X135108127Y-105176465D01*
X135214669Y-105105276D01*
X135305276Y-105014669D01*
X135376465Y-104908127D01*
X135425501Y-104789744D01*
X135450500Y-104664069D01*
X135450500Y-104535931D01*
X142149500Y-104535931D01*
X142149500Y-104664069D01*
X142174499Y-104789744D01*
X142223535Y-104908127D01*
X142294724Y-105014669D01*
X142385331Y-105105276D01*
X142491873Y-105176465D01*
X142610256Y-105225501D01*
X142735931Y-105250500D01*
X142735936Y-105250500D01*
X142864064Y-105250500D01*
X142864069Y-105250500D01*
X142989744Y-105225501D01*
X143108127Y-105176465D01*
X143214669Y-105105276D01*
X143305276Y-105014669D01*
X143376465Y-104908127D01*
X143425501Y-104789744D01*
X143450500Y-104664069D01*
X143450500Y-104535931D01*
X143425501Y-104410256D01*
X143376465Y-104291873D01*
X143305276Y-104185331D01*
X143214669Y-104094724D01*
X143108127Y-104023535D01*
X142989745Y-103974499D01*
X142947852Y-103966166D01*
X142864069Y-103949500D01*
X142735931Y-103949500D01*
X142694039Y-103957833D01*
X142610254Y-103974499D01*
X142610253Y-103974500D01*
X142491871Y-104023536D01*
X142385335Y-104094721D01*
X142385328Y-104094726D01*
X142294726Y-104185328D01*
X142294721Y-104185335D01*
X142223536Y-104291871D01*
X142174500Y-104410253D01*
X142174499Y-104410254D01*
X142174499Y-104410256D01*
X142149500Y-104535931D01*
X135450500Y-104535931D01*
X135425501Y-104410256D01*
X135376465Y-104291873D01*
X135305276Y-104185331D01*
X135214669Y-104094724D01*
X135108127Y-104023535D01*
X134989745Y-103974499D01*
X134947852Y-103966166D01*
X134864069Y-103949500D01*
X134735931Y-103949500D01*
X134694039Y-103957833D01*
X134610254Y-103974499D01*
X134610253Y-103974500D01*
X134491871Y-104023536D01*
X134385335Y-104094721D01*
X134385328Y-104094726D01*
X134294726Y-104185328D01*
X134294721Y-104185335D01*
X134223536Y-104291871D01*
X134174500Y-104410253D01*
X134174499Y-104410254D01*
X134174499Y-104410256D01*
X134149500Y-104535931D01*
X125537188Y-104535931D01*
X127790081Y-99742186D01*
X127812595Y-99703069D01*
X127818002Y-99682777D01*
X127826935Y-99663770D01*
X127834906Y-99619339D01*
X127846528Y-99575728D01*
X127846499Y-99554728D01*
X127850208Y-99534057D01*
X127846845Y-99494262D01*
X127846400Y-99483870D01*
X127811333Y-73976170D01*
X127831242Y-73908025D01*
X127884833Y-73861458D01*
X127937333Y-73850000D01*
X132950500Y-73850000D01*
X133018621Y-73870002D01*
G37*
%TD.AperFunction*%
%TA.AperFunction,Conductor*%
G36*
X138173621Y-73870002D02*
G01*
X138220114Y-73923658D01*
X138231500Y-73976000D01*
X138231500Y-82947681D01*
X138231500Y-83082319D01*
X138257766Y-83214369D01*
X138285468Y-83281246D01*
X138288723Y-83289104D01*
X138288724Y-83289108D01*
X138309290Y-83338759D01*
X138384090Y-83450705D01*
X138384095Y-83450711D01*
X139759491Y-84826107D01*
X139793517Y-84888419D01*
X139788452Y-84959234D01*
X139759492Y-85004297D01*
X139648794Y-85114995D01*
X139523108Y-85287987D01*
X139522434Y-85289088D01*
X139522068Y-85289418D01*
X139520196Y-85291996D01*
X139519654Y-85291602D01*
X139469787Y-85336721D01*
X139399745Y-85348328D01*
X139334547Y-85320226D01*
X139309976Y-85291870D01*
X139309804Y-85291996D01*
X139308341Y-85289982D01*
X139307566Y-85289088D01*
X139306896Y-85287996D01*
X139306894Y-85287991D01*
X139181206Y-85114996D01*
X139181203Y-85114993D01*
X139181201Y-85114990D01*
X139030009Y-84963798D01*
X139030006Y-84963796D01*
X139030005Y-84963795D01*
X139030004Y-84963794D01*
X138857009Y-84838106D01*
X138666483Y-84741028D01*
X138666480Y-84741027D01*
X138666478Y-84741026D01*
X138463120Y-84674952D01*
X138463123Y-84674952D01*
X138423801Y-84668724D01*
X138251916Y-84641500D01*
X138038084Y-84641500D01*
X137826884Y-84674951D01*
X137826878Y-84674952D01*
X137623521Y-84741026D01*
X137623515Y-84741029D01*
X137432987Y-84838108D01*
X137259993Y-84963796D01*
X137259990Y-84963798D01*
X137108798Y-85114990D01*
X137108796Y-85114993D01*
X136983108Y-85287987D01*
X136982434Y-85289088D01*
X136982068Y-85289418D01*
X136980196Y-85291996D01*
X136979654Y-85291602D01*
X136929787Y-85336721D01*
X136859745Y-85348328D01*
X136794547Y-85320226D01*
X136769976Y-85291870D01*
X136769804Y-85291996D01*
X136768341Y-85289982D01*
X136767566Y-85289088D01*
X136766896Y-85287996D01*
X136766894Y-85287991D01*
X136641206Y-85114996D01*
X136641203Y-85114993D01*
X136641201Y-85114990D01*
X136490006Y-84963795D01*
X136415439Y-84909619D01*
X136372085Y-84853396D01*
X136363500Y-84807683D01*
X136363500Y-84755293D01*
X136363499Y-84755290D01*
X136356018Y-84717681D01*
X136334351Y-84608754D01*
X136324773Y-84585631D01*
X136324772Y-84585628D01*
X136324772Y-84585627D01*
X136305901Y-84540071D01*
X136277174Y-84470716D01*
X136194166Y-84346485D01*
X134630405Y-82782724D01*
X134596379Y-82720412D01*
X134593500Y-82693629D01*
X134593500Y-73976000D01*
X134613502Y-73907879D01*
X134667158Y-73861386D01*
X134719500Y-73850000D01*
X138105500Y-73850000D01*
X138173621Y-73870002D01*
G37*
%TD.AperFunction*%
%TA.AperFunction,Conductor*%
G36*
X140713621Y-73870002D02*
G01*
X140760114Y-73923658D01*
X140771500Y-73976000D01*
X140771500Y-76609695D01*
X140751498Y-76677816D01*
X140734599Y-76698785D01*
X140421069Y-77012316D01*
X140201700Y-77231685D01*
X140139388Y-77265710D01*
X140137187Y-77266168D01*
X140030182Y-77287452D01*
X139960000Y-77301413D01*
X139959998Y-77301413D01*
X139959997Y-77301414D01*
X139794659Y-77369900D01*
X139794497Y-77370009D01*
X139794399Y-77370039D01*
X139789207Y-77372815D01*
X139788680Y-77371829D01*
X139726743Y-77391221D01*
X139658277Y-77372435D01*
X139610836Y-77319615D01*
X139598500Y-77265241D01*
X139598500Y-73976000D01*
X139618502Y-73907879D01*
X139672158Y-73861386D01*
X139724500Y-73850000D01*
X140645500Y-73850000D01*
X140713621Y-73870002D01*
G37*
%TD.AperFunction*%
%TD*%
M02*
