%TF.GenerationSoftware,KiCad,Pcbnew,9.0.9-9.0.9~ubuntu24.04.1*%
%TF.CreationDate,2026-07-11T21:40:51+02:00*%
%TF.ProjectId,MicroPicoDriveCartridge,4d696372-6f50-4696-936f-447269766543,1.4.e*%
%TF.SameCoordinates,Original*%
%TF.FileFunction,Copper,L2,Bot*%
%TF.FilePolarity,Positive*%
%FSLAX46Y46*%
G04 Gerber Fmt 4.6, Leading zero omitted, Abs format (unit mm)*
G04 Created by KiCad (PCBNEW 9.0.9-9.0.9~ubuntu24.04.1) date 2026-07-11 21:40:51*
%MOMM*%
%LPD*%
G01*
G04 APERTURE LIST*
G04 Aperture macros list*
%AMRoundRect*
0 Rectangle with rounded corners*
0 $1 Rounding radius*
0 $2 $3 $4 $5 $6 $7 $8 $9 X,Y pos of 4 corners*
0 Add a 4 corners polygon primitive as box body*
4,1,4,$2,$3,$4,$5,$6,$7,$8,$9,$2,$3,0*
0 Add four circle primitives for the rounded corners*
1,1,$1+$1,$2,$3*
1,1,$1+$1,$4,$5*
1,1,$1+$1,$6,$7*
1,1,$1+$1,$8,$9*
0 Add four rect primitives between the rounded corners*
20,1,$1+$1,$2,$3,$4,$5,0*
20,1,$1+$1,$4,$5,$6,$7,0*
20,1,$1+$1,$6,$7,$8,$9,0*
20,1,$1+$1,$8,$9,$2,$3,0*%
G04 Aperture macros list end*
%TA.AperFunction,SMDPad,CuDef*%
%ADD10RoundRect,0.500000X-0.500000X-2.250000X0.500000X-2.250000X0.500000X2.250000X-0.500000X2.250000X0*%
%TD*%
%TA.AperFunction,SMDPad,CuDef*%
%ADD11RoundRect,0.500000X-0.500000X-3.500000X0.500000X-3.500000X0.500000X3.500000X-0.500000X3.500000X0*%
%TD*%
%TA.AperFunction,ComponentPad*%
%ADD12R,1.800000X1.800000*%
%TD*%
%TA.AperFunction,ComponentPad*%
%ADD13C,1.800000*%
%TD*%
%TA.AperFunction,ComponentPad*%
%ADD14R,1.700000X1.700000*%
%TD*%
%TA.AperFunction,ComponentPad*%
%ADD15O,1.700000X1.700000*%
%TD*%
%TA.AperFunction,SMDPad,CuDef*%
%ADD16R,0.700000X1.600000*%
%TD*%
%TA.AperFunction,SMDPad,CuDef*%
%ADD17R,0.700000X2.400000*%
%TD*%
%TA.AperFunction,SMDPad,CuDef*%
%ADD18R,1.400000X1.600000*%
%TD*%
%TA.AperFunction,SMDPad,CuDef*%
%ADD19R,1.400000X2.200000*%
%TD*%
%TA.AperFunction,SMDPad,CuDef*%
%ADD20R,1.800000X1.400000*%
%TD*%
%TA.AperFunction,SMDPad,CuDef*%
%ADD21RoundRect,0.237500X0.300000X0.237500X-0.300000X0.237500X-0.300000X-0.237500X0.300000X-0.237500X0*%
%TD*%
%TA.AperFunction,ViaPad*%
%ADD22C,0.800000*%
%TD*%
%TA.AperFunction,Conductor*%
%ADD23C,0.350000*%
%TD*%
%TA.AperFunction,Conductor*%
%ADD24C,2.000000*%
%TD*%
%TA.AperFunction,Conductor*%
%ADD25C,0.500000*%
%TD*%
%TA.AperFunction,Conductor*%
%ADD26C,0.250000*%
%TD*%
G04 APERTURE END LIST*
D10*
%TO.P,J1,2,Pin_2*%
%TO.N,/UI_LD_READ*%
X133820000Y-69220000D03*
%TO.P,J1,4,Pin_4*%
%TO.N,/UI_LD_WRITE*%
X136360000Y-69220000D03*
%TO.P,J1,6,Pin_6*%
%TO.N,/UI_SD_CS*%
X138900000Y-69220000D03*
%TO.P,J1,8,Pin_8*%
%TO.N,/UI_SD_SCK*%
X141440000Y-69220000D03*
%TO.P,J1,10,Pin_10*%
%TO.N,/UI_SD_MISO*%
X143980000Y-69220000D03*
%TO.P,J1,12,Pin_12*%
%TO.N,/UI_SD_MOSI*%
X146520000Y-69220000D03*
%TO.P,J1,14,Pin_14*%
%TO.N,GND*%
X149060000Y-69220000D03*
D11*
%TO.P,J1,16,Pin_16*%
X151600000Y-67970000D03*
%TD*%
D12*
%TO.P,D2,1,K*%
%TO.N,GND*%
X153450000Y-94500000D03*
D13*
%TO.P,D2,2,A*%
%TO.N,Net-(D2-A)*%
X153450000Y-97040000D03*
%TD*%
D14*
%TO.P,SCR1,1,GND*%
%TO.N,GND*%
X133065000Y-86000000D03*
D15*
%TO.P,SCR1,2,VCC*%
%TO.N,+3V3*%
X135605000Y-86000000D03*
%TO.P,SCR1,3,SCL*%
%TO.N,/UI_SCR_SCL*%
X138145000Y-86000000D03*
%TO.P,SCR1,4,SDA*%
%TO.N,/UI_SCR_SDA*%
X140685000Y-86000000D03*
%TD*%
D12*
%TO.P,D1,1,K*%
%TO.N,GND*%
X153400000Y-87100000D03*
D13*
%TO.P,D1,2,A*%
%TO.N,Net-(D1-A)*%
X153400000Y-89640000D03*
%TD*%
D16*
%TO.P,SD1,1,DAT2*%
%TO.N,unconnected-(SD1-DAT2-Pad1)*%
X135600000Y-93704710D03*
D17*
%TO.P,SD1,2,CD/DAT3*%
%TO.N,/UI_SD_CS*%
X136700000Y-93304710D03*
%TO.P,SD1,3,CMD*%
%TO.N,/UI_SD_MOSI*%
X137800000Y-93304710D03*
%TO.P,SD1,4,VDD*%
%TO.N,+3V3*%
X138900000Y-93304710D03*
%TO.P,SD1,5,CLK*%
%TO.N,/UI_SD_SCK*%
X140000000Y-93304710D03*
%TO.P,SD1,6,VSS*%
%TO.N,GND*%
X141100000Y-93304710D03*
%TO.P,SD1,7,DAT0*%
%TO.N,/UI_SD_MISO*%
X142200000Y-93304710D03*
D16*
%TO.P,SD1,8,DAT1*%
%TO.N,unconnected-(SD1-DAT1-Pad8)*%
X143300000Y-93704710D03*
%TO.P,SD1,9,CD*%
%TO.N,unconnected-(SD1-CD-Pad9)*%
X144400000Y-93704710D03*
D18*
%TO.P,SD1,MP1,SHIELD*%
%TO.N,GND*%
X145700000Y-94700000D03*
D19*
%TO.P,SD1,MP2,SHIELD*%
X145700000Y-104200000D03*
%TO.P,SD1,MP3,SHIELD*%
X130000000Y-104200000D03*
D20*
%TO.P,SD1,MP4,SHIELD*%
X130900000Y-94600000D03*
%TD*%
D21*
%TO.P,C1,1*%
%TO.N,+3V3*%
X138862500Y-90200000D03*
%TO.P,C1,2*%
%TO.N,GND*%
X137137500Y-90200000D03*
%TD*%
D22*
%TO.N,GND*%
X135550000Y-88300000D03*
X140200000Y-74800000D03*
X141525000Y-103475000D03*
X155500000Y-76000000D03*
X133050000Y-88300000D03*
X136025000Y-82000000D03*
X141050000Y-82050000D03*
X151600000Y-77200000D03*
X132375000Y-103675000D03*
X128550000Y-79450000D03*
X140900000Y-88000000D03*
X132600000Y-74800000D03*
X138400000Y-88000000D03*
X136375000Y-74825000D03*
X149075000Y-74800000D03*
X145275000Y-77375000D03*
X152925000Y-103625000D03*
X143480000Y-82210000D03*
X128500000Y-94550000D03*
%TO.N,/UI_LD_READ*%
X131425000Y-92525000D03*
%TO.N,/UI_LD_WRITE*%
X131900000Y-79450000D03*
%TO.N,/UI_SCR_SCL*%
X140225000Y-78175000D03*
%TO.N,/UI_BTN_BACK*%
X142600000Y-99900000D03*
X143100000Y-96040000D03*
%TO.N,/UI_BTN_NEXT*%
X149340000Y-80320000D03*
X146775000Y-100025000D03*
%TO.N,/UI_SD_MOSI*%
X137832500Y-91360000D03*
X143725000Y-86750000D03*
%TD*%
D23*
%TO.N,GND*%
X149075000Y-74800000D02*
X149075000Y-67975000D01*
D24*
X151600000Y-77200000D02*
X151600000Y-67970000D01*
D25*
%TO.N,+3V3*%
X138047918Y-88850000D02*
X137550000Y-88352082D01*
X137550000Y-88352082D02*
X137550000Y-88350000D01*
X136100000Y-86495000D02*
X135605000Y-86000000D01*
X138050000Y-88850000D02*
X138047918Y-88850000D01*
X138900000Y-90237500D02*
X138862500Y-90200000D01*
X136100000Y-86500000D02*
X136100000Y-86495000D01*
X135605000Y-86000000D02*
X135605000Y-86030000D01*
X136500000Y-86900000D02*
X136100000Y-86500000D01*
X136500000Y-87300000D02*
X136500000Y-86900000D01*
X138862500Y-90200000D02*
X138862500Y-89662500D01*
X138900000Y-93579710D02*
X138900000Y-90237500D01*
X137550000Y-88350000D02*
X136500000Y-87300000D01*
X138862500Y-89662500D02*
X138050000Y-88850000D01*
D23*
%TO.N,/UI_LD_READ*%
X129950000Y-91050000D02*
X129950000Y-76190300D01*
X129950000Y-76190300D02*
X133835000Y-72305300D01*
X133835000Y-72305300D02*
X133835000Y-67975000D01*
X131425000Y-92525000D02*
X129950000Y-91050000D01*
%TO.N,/UI_LD_WRITE*%
X131900000Y-76777100D02*
X136375000Y-72302100D01*
X131900000Y-79450000D02*
X131900000Y-76777100D01*
X136375000Y-72302100D02*
X136375000Y-67975000D01*
%TO.N,/UI_SD_CS*%
X136700000Y-92500000D02*
X136700000Y-93579710D01*
X138915000Y-67975000D02*
X138915000Y-74347600D01*
X138915000Y-74347600D02*
X134320000Y-78942600D01*
X134320000Y-90120000D02*
X136700000Y-92500000D01*
X134320000Y-78942600D02*
X134320000Y-90120000D01*
%TO.N,/UI_SCR_SCL*%
X138145000Y-86000000D02*
X138145000Y-80255000D01*
X138145000Y-80255000D02*
X140225000Y-78175000D01*
%TO.N,/UI_SD_SCK*%
X139400000Y-87710000D02*
X139400000Y-80800000D01*
X141455000Y-78745000D02*
X141455000Y-67975000D01*
X139400000Y-80800000D02*
X141455000Y-78745000D01*
X140000000Y-93579710D02*
X140000000Y-88310000D01*
X140000000Y-88310000D02*
X139400000Y-87710000D01*
%TO.N,/UI_BTN_BACK*%
X143100000Y-96040000D02*
X143100000Y-99400000D01*
X143100000Y-99400000D02*
X142600000Y-99900000D01*
%TO.N,/UI_SD_MISO*%
X144000000Y-67980000D02*
X144000000Y-79100000D01*
X143995000Y-67975000D02*
X144000000Y-67980000D01*
X142200000Y-80900000D02*
X142200000Y-93579710D01*
X144000000Y-79100000D02*
X142200000Y-80900000D01*
%TO.N,/UI_BTN_NEXT*%
X149340000Y-80320000D02*
X149340000Y-97460000D01*
X149340000Y-97460000D02*
X146775000Y-100025000D01*
%TO.N,/UI_SD_MOSI*%
X137832500Y-91425000D02*
X137832500Y-93547210D01*
X137800000Y-91392500D02*
X137832500Y-91425000D01*
X146535000Y-83965000D02*
X146535000Y-67975000D01*
X143750000Y-86750000D02*
X146535000Y-83965000D01*
D26*
X143725000Y-86750000D02*
X143750000Y-86750000D01*
X137832500Y-91360000D02*
X137800000Y-91392500D01*
D23*
X137832500Y-93547210D02*
X137800000Y-93579710D01*
%TD*%
%TA.AperFunction,Conductor*%
%TO.N,GND*%
G36*
X131087616Y-73870002D02*
G01*
X131134109Y-73923658D01*
X131144213Y-73993932D01*
X131114719Y-74058512D01*
X131108590Y-74065095D01*
X129514294Y-75659391D01*
X129466692Y-75706993D01*
X129419090Y-75754594D01*
X129343595Y-75867580D01*
X129341920Y-75872262D01*
X129292767Y-75990925D01*
X129272344Y-76093601D01*
X129266500Y-76122978D01*
X129266500Y-91117321D01*
X129292766Y-91249369D01*
X129292768Y-91249376D01*
X129301528Y-91270523D01*
X129301529Y-91270524D01*
X129344290Y-91373759D01*
X129376787Y-91422394D01*
X129419090Y-91485705D01*
X129419095Y-91485711D01*
X130481684Y-92548299D01*
X130515709Y-92610611D01*
X130516168Y-92612812D01*
X130551414Y-92790003D01*
X130571473Y-92838429D01*
X130619898Y-92955336D01*
X130719322Y-93104135D01*
X130719324Y-93104137D01*
X130792092Y-93176905D01*
X130826118Y-93239217D01*
X130821053Y-93310032D01*
X130778506Y-93366868D01*
X130711986Y-93391679D01*
X130702997Y-93392000D01*
X129951402Y-93392000D01*
X129890906Y-93398505D01*
X129754035Y-93449555D01*
X129754034Y-93449555D01*
X129637095Y-93537095D01*
X129549557Y-93654033D01*
X129549555Y-93654035D01*
X129498505Y-93790906D01*
X129492000Y-93851402D01*
X129492000Y-94346000D01*
X132308000Y-94346000D01*
X132308000Y-93851414D01*
X132307999Y-93851402D01*
X132301494Y-93790906D01*
X132250444Y-93654035D01*
X132250443Y-93654033D01*
X132162904Y-93537095D01*
X132045965Y-93449555D01*
X132045961Y-93449554D01*
X132039016Y-93446963D01*
X131982182Y-93404414D01*
X131957374Y-93337893D01*
X131972468Y-93268519D01*
X131999992Y-93235289D01*
X131999758Y-93235055D01*
X132002251Y-93232561D01*
X132003129Y-93231502D01*
X132004119Y-93230688D01*
X132004135Y-93230678D01*
X132130678Y-93104135D01*
X132230102Y-92955336D01*
X132298587Y-92790000D01*
X132333500Y-92614479D01*
X132333500Y-92435521D01*
X132298587Y-92260000D01*
X132230102Y-92094664D01*
X132130678Y-91945865D01*
X132004135Y-91819322D01*
X131855336Y-91719898D01*
X131731840Y-91668744D01*
X131690003Y-91651414D01*
X131690001Y-91651413D01*
X131690000Y-91651413D01*
X131602774Y-91634062D01*
X131512812Y-91616168D01*
X131449903Y-91583260D01*
X131448299Y-91581684D01*
X130670405Y-90803790D01*
X130636379Y-90741478D01*
X130633500Y-90714695D01*
X130633500Y-76525605D01*
X130653502Y-76457484D01*
X130670405Y-76436510D01*
X133220010Y-73886905D01*
X133247378Y-73871960D01*
X133273607Y-73855104D01*
X133279905Y-73854198D01*
X133282322Y-73852879D01*
X133309105Y-73850000D01*
X133556295Y-73850000D01*
X133624416Y-73870002D01*
X133670909Y-73923658D01*
X133681013Y-73993932D01*
X133651519Y-74058512D01*
X133645390Y-74065095D01*
X131464294Y-76246191D01*
X131416692Y-76293793D01*
X131369090Y-76341394D01*
X131293973Y-76453814D01*
X131293357Y-76455592D01*
X131242766Y-76577731D01*
X131233164Y-76626006D01*
X131231481Y-76634464D01*
X131231481Y-76634466D01*
X131216500Y-76709778D01*
X131216500Y-78799451D01*
X131196498Y-78867572D01*
X131195265Y-78869452D01*
X131094900Y-79019659D01*
X131094899Y-79019660D01*
X131026414Y-79184996D01*
X130991500Y-79360518D01*
X130991500Y-79539481D01*
X131026414Y-79715003D01*
X131030179Y-79724092D01*
X131094898Y-79880336D01*
X131194322Y-80029135D01*
X131320865Y-80155678D01*
X131469664Y-80255102D01*
X131635000Y-80323587D01*
X131810521Y-80358500D01*
X131810522Y-80358500D01*
X131989478Y-80358500D01*
X131989479Y-80358500D01*
X132165000Y-80323587D01*
X132330336Y-80255102D01*
X132479135Y-80155678D01*
X132605678Y-80029135D01*
X132705102Y-79880336D01*
X132773587Y-79715000D01*
X132808500Y-79539479D01*
X132808500Y-79360521D01*
X132773587Y-79185000D01*
X132705102Y-79019664D01*
X132705101Y-79019662D01*
X132705100Y-79019660D01*
X132705099Y-79019659D01*
X132604735Y-78869452D01*
X132583520Y-78801699D01*
X132583500Y-78799451D01*
X132583500Y-77112405D01*
X132603502Y-77044284D01*
X132620405Y-77023310D01*
X135756810Y-73886905D01*
X135819122Y-73852879D01*
X135845905Y-73850000D01*
X138105500Y-73850000D01*
X138114325Y-73852591D01*
X138123432Y-73851282D01*
X138147857Y-73862437D01*
X138173621Y-73870002D01*
X138179645Y-73876955D01*
X138188012Y-73880776D01*
X138202526Y-73903361D01*
X138220114Y-73923658D01*
X138222438Y-73934344D01*
X138226396Y-73940502D01*
X138231500Y-73976000D01*
X138231500Y-74012295D01*
X138211498Y-74080416D01*
X138194595Y-74101390D01*
X133884294Y-78411691D01*
X133836692Y-78459293D01*
X133789090Y-78506894D01*
X133714044Y-78619207D01*
X133713664Y-78620352D01*
X133662766Y-78743231D01*
X133649024Y-78812319D01*
X133647503Y-78819961D01*
X133647502Y-78819967D01*
X133636500Y-78875278D01*
X133636500Y-84516000D01*
X133616498Y-84584121D01*
X133562842Y-84630614D01*
X133510500Y-84642000D01*
X133319000Y-84642000D01*
X133319000Y-85569297D01*
X133257993Y-85534075D01*
X133130826Y-85500000D01*
X132999174Y-85500000D01*
X132872007Y-85534075D01*
X132811000Y-85569297D01*
X132811000Y-84642000D01*
X132166402Y-84642000D01*
X132105906Y-84648505D01*
X131969035Y-84699555D01*
X131969034Y-84699555D01*
X131852095Y-84787095D01*
X131764555Y-84904034D01*
X131764555Y-84904035D01*
X131713505Y-85040906D01*
X131707000Y-85101402D01*
X131707000Y-85746000D01*
X132634297Y-85746000D01*
X132599075Y-85807007D01*
X132565000Y-85934174D01*
X132565000Y-86065826D01*
X132599075Y-86192993D01*
X132634297Y-86254000D01*
X131707000Y-86254000D01*
X131707000Y-86898597D01*
X131713505Y-86959093D01*
X131764555Y-87095964D01*
X131764555Y-87095965D01*
X131852095Y-87212904D01*
X131969034Y-87300444D01*
X132105906Y-87351494D01*
X132166402Y-87357999D01*
X132166415Y-87358000D01*
X132811000Y-87358000D01*
X132811000Y-86430702D01*
X132872007Y-86465925D01*
X132999174Y-86500000D01*
X133130826Y-86500000D01*
X133257993Y-86465925D01*
X133319000Y-86430702D01*
X133319000Y-87358000D01*
X133510500Y-87358000D01*
X133578621Y-87378002D01*
X133625114Y-87431658D01*
X133636500Y-87484000D01*
X133636500Y-90187321D01*
X133639022Y-90200000D01*
X133662766Y-90319369D01*
X133687141Y-90378215D01*
X133714290Y-90443759D01*
X133744795Y-90489412D01*
X133789091Y-90555706D01*
X133789095Y-90555710D01*
X135414500Y-92181115D01*
X135448526Y-92243427D01*
X135443461Y-92314242D01*
X135400914Y-92371078D01*
X135334394Y-92395889D01*
X135325405Y-92396210D01*
X135201350Y-92396210D01*
X135140803Y-92402719D01*
X135140795Y-92402721D01*
X135003797Y-92453820D01*
X135003792Y-92453822D01*
X134886738Y-92541448D01*
X134799112Y-92658502D01*
X134799110Y-92658507D01*
X134748011Y-92795505D01*
X134748009Y-92795513D01*
X134741500Y-92856060D01*
X134741500Y-94553359D01*
X134748009Y-94613906D01*
X134748011Y-94613914D01*
X134799110Y-94750912D01*
X134799112Y-94750917D01*
X134886738Y-94867971D01*
X135003792Y-94955597D01*
X135003794Y-94955598D01*
X135003796Y-94955599D01*
X135049999Y-94972832D01*
X135140795Y-95006698D01*
X135140803Y-95006700D01*
X135201350Y-95013209D01*
X135201355Y-95013209D01*
X135201362Y-95013210D01*
X135201368Y-95013210D01*
X135998632Y-95013210D01*
X135998638Y-95013210D01*
X135998645Y-95013209D01*
X135998649Y-95013209D01*
X136059196Y-95006700D01*
X136059201Y-95006699D01*
X136077161Y-95000000D01*
X136105966Y-94989255D01*
X136176782Y-94984190D01*
X136194034Y-94989256D01*
X136240798Y-95006699D01*
X136240803Y-95006700D01*
X136301350Y-95013209D01*
X136301355Y-95013209D01*
X136301362Y-95013210D01*
X136301368Y-95013210D01*
X137098632Y-95013210D01*
X137098638Y-95013210D01*
X137098645Y-95013209D01*
X137098649Y-95013209D01*
X137159196Y-95006700D01*
X137159201Y-95006699D01*
X137177161Y-95000000D01*
X137205966Y-94989255D01*
X137276782Y-94984190D01*
X137294034Y-94989256D01*
X137340798Y-95006699D01*
X137340803Y-95006700D01*
X137401350Y-95013209D01*
X137401355Y-95013209D01*
X137401362Y-95013210D01*
X137401368Y-95013210D01*
X138198632Y-95013210D01*
X138198638Y-95013210D01*
X138198645Y-95013209D01*
X138198649Y-95013209D01*
X138259196Y-95006700D01*
X138259197Y-95006699D01*
X138259201Y-95006699D01*
X138279966Y-94998953D01*
X138350779Y-94993886D01*
X138413092Y-95027909D01*
X138447119Y-95090220D01*
X138450000Y-95117008D01*
X138450000Y-104004710D01*
X140451370Y-104004710D01*
X140451370Y-103051402D01*
X144492000Y-103051402D01*
X144492000Y-103946000D01*
X145446000Y-103946000D01*
X145954000Y-103946000D01*
X146908000Y-103946000D01*
X146908000Y-103051414D01*
X146907999Y-103051402D01*
X146901494Y-102990906D01*
X146850444Y-102854035D01*
X146850444Y-102854034D01*
X146762904Y-102737095D01*
X146645965Y-102649555D01*
X146509093Y-102598505D01*
X146448597Y-102592000D01*
X145954000Y-102592000D01*
X145954000Y-103946000D01*
X145446000Y-103946000D01*
X145446000Y-102592000D01*
X144951402Y-102592000D01*
X144890906Y-102598505D01*
X144754035Y-102649555D01*
X144754034Y-102649555D01*
X144637095Y-102737095D01*
X144549555Y-102854034D01*
X144549555Y-102854035D01*
X144498505Y-102990906D01*
X144492000Y-103051402D01*
X140451370Y-103051402D01*
X140451370Y-95116986D01*
X140471372Y-95048865D01*
X140525028Y-95002372D01*
X140595302Y-94992268D01*
X140621404Y-94998931D01*
X140640901Y-95006203D01*
X140640906Y-95006204D01*
X140701402Y-95012709D01*
X140701415Y-95012710D01*
X140846000Y-95012710D01*
X140846000Y-94652702D01*
X140851555Y-94621914D01*
X140850175Y-94621588D01*
X140851988Y-94613913D01*
X140851987Y-94613913D01*
X140851989Y-94613911D01*
X140858500Y-94553348D01*
X140858500Y-92056072D01*
X140851989Y-91995509D01*
X140851988Y-91995505D01*
X140850177Y-91987840D01*
X140851554Y-91987514D01*
X140846000Y-91956718D01*
X140846000Y-91596710D01*
X140809500Y-91596710D01*
X140741379Y-91576708D01*
X140694886Y-91523052D01*
X140683500Y-91470710D01*
X140683500Y-88242682D01*
X140683499Y-88242673D01*
X140681277Y-88231503D01*
X140681276Y-88231500D01*
X140657234Y-88110630D01*
X140608426Y-87992798D01*
X140605710Y-87986241D01*
X140530909Y-87874294D01*
X140435706Y-87779091D01*
X140167364Y-87510749D01*
X140133338Y-87448437D01*
X140138403Y-87377622D01*
X140180950Y-87320786D01*
X140247470Y-87295975D01*
X140295394Y-87301820D01*
X140366884Y-87325049D01*
X140578084Y-87358500D01*
X140578087Y-87358500D01*
X140791913Y-87358500D01*
X140791916Y-87358500D01*
X141003116Y-87325049D01*
X141206483Y-87258972D01*
X141333299Y-87194355D01*
X141403074Y-87181252D01*
X141468858Y-87207952D01*
X141509765Y-87265979D01*
X141516500Y-87306623D01*
X141516500Y-91470710D01*
X141496498Y-91538831D01*
X141442842Y-91585324D01*
X141390500Y-91596710D01*
X141354000Y-91596710D01*
X141354000Y-91956718D01*
X141348445Y-91987514D01*
X141349823Y-91987840D01*
X141348010Y-91995509D01*
X141341500Y-92056060D01*
X141341500Y-94553354D01*
X141348011Y-94613913D01*
X141349825Y-94621588D01*
X141348444Y-94621914D01*
X141354000Y-94652702D01*
X141354000Y-95012710D01*
X141498585Y-95012710D01*
X141498597Y-95012709D01*
X141559093Y-95006204D01*
X141559098Y-95006203D01*
X141605250Y-94988989D01*
X141676065Y-94983923D01*
X141693313Y-94988987D01*
X141715293Y-94997185D01*
X141740798Y-95006699D01*
X141740803Y-95006700D01*
X141801350Y-95013209D01*
X141801355Y-95013209D01*
X141801362Y-95013210D01*
X141801368Y-95013210D01*
X142586077Y-95013210D01*
X142654198Y-95033212D01*
X142700691Y-95086868D01*
X142710795Y-95157142D01*
X142681301Y-95221722D01*
X142656079Y-95243975D01*
X142520869Y-95334319D01*
X142520862Y-95334324D01*
X142394324Y-95460862D01*
X142394319Y-95460869D01*
X142294899Y-95609662D01*
X142226414Y-95774996D01*
X142191500Y-95950518D01*
X142191500Y-95950521D01*
X142191500Y-96129479D01*
X142226413Y-96305000D01*
X142294898Y-96470336D01*
X142294899Y-96470337D01*
X142395265Y-96620546D01*
X142416480Y-96688299D01*
X142416500Y-96690548D01*
X142416500Y-98908464D01*
X142396498Y-98976585D01*
X142342842Y-99023078D01*
X142338718Y-99024873D01*
X142169664Y-99094898D01*
X142020869Y-99194319D01*
X142020862Y-99194324D01*
X141894324Y-99320862D01*
X141894319Y-99320869D01*
X141794899Y-99469662D01*
X141726414Y-99634996D01*
X141691500Y-99810518D01*
X141691500Y-99810521D01*
X141691500Y-99989479D01*
X141726413Y-100165000D01*
X141794898Y-100330336D01*
X141894322Y-100479135D01*
X142020865Y-100605678D01*
X142169664Y-100705102D01*
X142335000Y-100773587D01*
X142510521Y-100808500D01*
X142510522Y-100808500D01*
X142689478Y-100808500D01*
X142689479Y-100808500D01*
X142865000Y-100773587D01*
X143030336Y-100705102D01*
X143179135Y-100605678D01*
X143305678Y-100479135D01*
X143405102Y-100330336D01*
X143473587Y-100165000D01*
X143508500Y-99989479D01*
X143508500Y-99989477D01*
X143508831Y-99987813D01*
X143517737Y-99970785D01*
X143521823Y-99952007D01*
X143534166Y-99935518D01*
X145866500Y-99935518D01*
X145866500Y-100114481D01*
X145876550Y-100165003D01*
X145901413Y-100290000D01*
X145969898Y-100455336D01*
X146069322Y-100604135D01*
X146195865Y-100730678D01*
X146344664Y-100830102D01*
X146510000Y-100898587D01*
X146685521Y-100933500D01*
X146685522Y-100933500D01*
X146864478Y-100933500D01*
X146864479Y-100933500D01*
X147040000Y-100898587D01*
X147205336Y-100830102D01*
X147354135Y-100730678D01*
X147480678Y-100604135D01*
X147580102Y-100455336D01*
X147648587Y-100290000D01*
X147683500Y-100114479D01*
X147683500Y-100114477D01*
X147683831Y-100112813D01*
X147716738Y-100049903D01*
X147718256Y-100048358D01*
X149870909Y-97895706D01*
X149945204Y-97784516D01*
X149945710Y-97783759D01*
X149967051Y-97732235D01*
X149997234Y-97659369D01*
X150023500Y-97527319D01*
X150023500Y-97392681D01*
X150023500Y-96929149D01*
X152041500Y-96929149D01*
X152041500Y-97150851D01*
X152048147Y-97192816D01*
X152076183Y-97369829D01*
X152144690Y-97580671D01*
X152144692Y-97580676D01*
X152245343Y-97778215D01*
X152245345Y-97778218D01*
X152375658Y-97957578D01*
X152532421Y-98114341D01*
X152532424Y-98114343D01*
X152711785Y-98244657D01*
X152909324Y-98345308D01*
X153120176Y-98413818D01*
X153339149Y-98448500D01*
X153339152Y-98448500D01*
X153560848Y-98448500D01*
X153560851Y-98448500D01*
X153779824Y-98413818D01*
X153990676Y-98345308D01*
X154188215Y-98244657D01*
X154367576Y-98114343D01*
X154524343Y-97957576D01*
X154654657Y-97778215D01*
X154755308Y-97580676D01*
X154823818Y-97369824D01*
X154858500Y-97150851D01*
X154858500Y-96929149D01*
X154823818Y-96710176D01*
X154755308Y-96499324D01*
X154654657Y-96301785D01*
X154524343Y-96122424D01*
X154524341Y-96122421D01*
X154484341Y-96082421D01*
X154450315Y-96020109D01*
X154455380Y-95949294D01*
X154497927Y-95892458D01*
X154529404Y-95875270D01*
X154595965Y-95850444D01*
X154712904Y-95762904D01*
X154800444Y-95645965D01*
X154800444Y-95645964D01*
X154851494Y-95509093D01*
X154857999Y-95448597D01*
X154858000Y-95448585D01*
X154858000Y-94754000D01*
X153822968Y-94754000D01*
X153869333Y-94673694D01*
X153900000Y-94559244D01*
X153900000Y-94440756D01*
X153869333Y-94326306D01*
X153822968Y-94246000D01*
X154858000Y-94246000D01*
X154858000Y-93551414D01*
X154857999Y-93551402D01*
X154851494Y-93490906D01*
X154800444Y-93354035D01*
X154800444Y-93354034D01*
X154712904Y-93237095D01*
X154595965Y-93149555D01*
X154459093Y-93098505D01*
X154398597Y-93092000D01*
X153704000Y-93092000D01*
X153704000Y-94127031D01*
X153623694Y-94080667D01*
X153509244Y-94050000D01*
X153390756Y-94050000D01*
X153276306Y-94080667D01*
X153196000Y-94127031D01*
X153196000Y-93092000D01*
X152501402Y-93092000D01*
X152440906Y-93098505D01*
X152304035Y-93149555D01*
X152304034Y-93149555D01*
X152187095Y-93237095D01*
X152099555Y-93354034D01*
X152099555Y-93354035D01*
X152048505Y-93490906D01*
X152042000Y-93551402D01*
X152042000Y-94246000D01*
X153077032Y-94246000D01*
X153030667Y-94326306D01*
X153000000Y-94440756D01*
X153000000Y-94559244D01*
X153030667Y-94673694D01*
X153077032Y-94754000D01*
X152042000Y-94754000D01*
X152042000Y-95448597D01*
X152048505Y-95509093D01*
X152099555Y-95645964D01*
X152099555Y-95645965D01*
X152187095Y-95762904D01*
X152304033Y-95850443D01*
X152370596Y-95875270D01*
X152427431Y-95917817D01*
X152452242Y-95984337D01*
X152437151Y-96053711D01*
X152415659Y-96082420D01*
X152375658Y-96122421D01*
X152245345Y-96301781D01*
X152144693Y-96499322D01*
X152144690Y-96499328D01*
X152076183Y-96710170D01*
X152076182Y-96710175D01*
X152076182Y-96710176D01*
X152041500Y-96929149D01*
X150023500Y-96929149D01*
X150023500Y-89529149D01*
X151991500Y-89529149D01*
X151991500Y-89750851D01*
X152017153Y-89912815D01*
X152026183Y-89969829D01*
X152094690Y-90180671D01*
X152094692Y-90180676D01*
X152094693Y-90180677D01*
X152195343Y-90378215D01*
X152325658Y-90557578D01*
X152482421Y-90714341D01*
X152573983Y-90780865D01*
X152661785Y-90844657D01*
X152859324Y-90945308D01*
X153070176Y-91013818D01*
X153289149Y-91048500D01*
X153289152Y-91048500D01*
X153510848Y-91048500D01*
X153510851Y-91048500D01*
X153729824Y-91013818D01*
X153940676Y-90945308D01*
X154138215Y-90844657D01*
X154317576Y-90714343D01*
X154474343Y-90557576D01*
X154604657Y-90378215D01*
X154705308Y-90180676D01*
X154773818Y-89969824D01*
X154808500Y-89750851D01*
X154808500Y-89529149D01*
X154773818Y-89310176D01*
X154705308Y-89099324D01*
X154604657Y-88901785D01*
X154536336Y-88807749D01*
X154474341Y-88722421D01*
X154434341Y-88682421D01*
X154400315Y-88620109D01*
X154405380Y-88549294D01*
X154447927Y-88492458D01*
X154479404Y-88475270D01*
X154545965Y-88450444D01*
X154662904Y-88362904D01*
X154750444Y-88245965D01*
X154750444Y-88245964D01*
X154801494Y-88109093D01*
X154807999Y-88048597D01*
X154808000Y-88048585D01*
X154808000Y-87354000D01*
X153772968Y-87354000D01*
X153819333Y-87273694D01*
X153850000Y-87159244D01*
X153850000Y-87040756D01*
X153819333Y-86926306D01*
X153772968Y-86846000D01*
X154808000Y-86846000D01*
X154808000Y-86151414D01*
X154807999Y-86151402D01*
X154801494Y-86090906D01*
X154750444Y-85954035D01*
X154750444Y-85954034D01*
X154662904Y-85837095D01*
X154545965Y-85749555D01*
X154409093Y-85698505D01*
X154348597Y-85692000D01*
X153654000Y-85692000D01*
X153654000Y-86727031D01*
X153573694Y-86680667D01*
X153459244Y-86650000D01*
X153340756Y-86650000D01*
X153226306Y-86680667D01*
X153146000Y-86727031D01*
X153146000Y-85692000D01*
X152451402Y-85692000D01*
X152390906Y-85698505D01*
X152254035Y-85749555D01*
X152254034Y-85749555D01*
X152137095Y-85837095D01*
X152049555Y-85954034D01*
X152049555Y-85954035D01*
X151998505Y-86090906D01*
X151992000Y-86151402D01*
X151992000Y-86846000D01*
X153027032Y-86846000D01*
X152980667Y-86926306D01*
X152950000Y-87040756D01*
X152950000Y-87159244D01*
X152980667Y-87273694D01*
X153027032Y-87354000D01*
X151992000Y-87354000D01*
X151992000Y-88048597D01*
X151998505Y-88109093D01*
X152049555Y-88245964D01*
X152049555Y-88245965D01*
X152137095Y-88362904D01*
X152254033Y-88450443D01*
X152320596Y-88475270D01*
X152377431Y-88517817D01*
X152402242Y-88584337D01*
X152387151Y-88653711D01*
X152365659Y-88682420D01*
X152325658Y-88722421D01*
X152195345Y-88901781D01*
X152094693Y-89099322D01*
X152094690Y-89099328D01*
X152026183Y-89310170D01*
X152026182Y-89310175D01*
X152026182Y-89310176D01*
X151991500Y-89529149D01*
X150023500Y-89529149D01*
X150023500Y-80970548D01*
X150043502Y-80902427D01*
X150044735Y-80900546D01*
X150045678Y-80899135D01*
X150145102Y-80750336D01*
X150213587Y-80585000D01*
X150248500Y-80409479D01*
X150248500Y-80230521D01*
X150213587Y-80055000D01*
X150145102Y-79889664D01*
X150045678Y-79740865D01*
X149919135Y-79614322D01*
X149770336Y-79514898D01*
X149653429Y-79466473D01*
X149605003Y-79446414D01*
X149605001Y-79446413D01*
X149605000Y-79446413D01*
X149491085Y-79423754D01*
X149429481Y-79411500D01*
X149429479Y-79411500D01*
X149250521Y-79411500D01*
X149250518Y-79411500D01*
X149119771Y-79437507D01*
X149075000Y-79446413D01*
X149074999Y-79446413D01*
X149074996Y-79446414D01*
X148909662Y-79514899D01*
X148760869Y-79614319D01*
X148760862Y-79614324D01*
X148634324Y-79740862D01*
X148634319Y-79740869D01*
X148534899Y-79889662D01*
X148466414Y-80054996D01*
X148466413Y-80054999D01*
X148466413Y-80055000D01*
X148457507Y-80099771D01*
X148431500Y-80230518D01*
X148431500Y-80230521D01*
X148431500Y-80409479D01*
X148466413Y-80585000D01*
X148534898Y-80750336D01*
X148534899Y-80750337D01*
X148635265Y-80900546D01*
X148656480Y-80968299D01*
X148656500Y-80970548D01*
X148656500Y-97124695D01*
X148636498Y-97192816D01*
X148619595Y-97213790D01*
X146751700Y-99081684D01*
X146689388Y-99115710D01*
X146687187Y-99116168D01*
X146580182Y-99137452D01*
X146510000Y-99151413D01*
X146509998Y-99151413D01*
X146509997Y-99151414D01*
X146344662Y-99219899D01*
X146195869Y-99319319D01*
X146195862Y-99319324D01*
X146069324Y-99445862D01*
X146069319Y-99445869D01*
X145969899Y-99594662D01*
X145901414Y-99759996D01*
X145901413Y-99759999D01*
X145901413Y-99760000D01*
X145901252Y-99760811D01*
X145866500Y-99935518D01*
X143534166Y-99935518D01*
X143540866Y-99926568D01*
X143541738Y-99924903D01*
X143543203Y-99923411D01*
X143630909Y-99835706D01*
X143632930Y-99832681D01*
X143705710Y-99723759D01*
X143742475Y-99635000D01*
X143757234Y-99599369D01*
X143783500Y-99467319D01*
X143783500Y-99332681D01*
X143783500Y-96690548D01*
X143803502Y-96622427D01*
X143804735Y-96620546D01*
X143805678Y-96619135D01*
X143905102Y-96470336D01*
X143973587Y-96305000D01*
X144008500Y-96129479D01*
X144008500Y-95950521D01*
X143973587Y-95775000D01*
X143905102Y-95609664D01*
X143805678Y-95460865D01*
X143679135Y-95334322D01*
X143543921Y-95243975D01*
X143527067Y-95223808D01*
X143507350Y-95206428D01*
X143504671Y-95197010D01*
X143498393Y-95189498D01*
X143495117Y-95163416D01*
X143487928Y-95138140D01*
X143490765Y-95128771D01*
X143489545Y-95119055D01*
X143500889Y-95095343D01*
X143508507Y-95070192D01*
X143515959Y-95063843D01*
X143520186Y-95055011D01*
X143542547Y-95041197D01*
X143562556Y-95024156D01*
X143574128Y-95021689D01*
X143580588Y-95017700D01*
X143597051Y-95014345D01*
X143605451Y-95013210D01*
X143698638Y-95013210D01*
X143759201Y-95006699D01*
X143819166Y-94984332D01*
X143833128Y-94982446D01*
X143854856Y-94985758D01*
X143876782Y-94984190D01*
X143894034Y-94989256D01*
X143940798Y-95006699D01*
X143940803Y-95006700D01*
X144001350Y-95013209D01*
X144001355Y-95013209D01*
X144001362Y-95013210D01*
X144001368Y-95013210D01*
X144366000Y-95013210D01*
X144434121Y-95033212D01*
X144480614Y-95086868D01*
X144492000Y-95139210D01*
X144492000Y-95548597D01*
X144498505Y-95609093D01*
X144549555Y-95745964D01*
X144549555Y-95745965D01*
X144637095Y-95862904D01*
X144754034Y-95950444D01*
X144890906Y-96001494D01*
X144951402Y-96007999D01*
X144951415Y-96008000D01*
X145446000Y-96008000D01*
X145954000Y-96008000D01*
X146448585Y-96008000D01*
X146448597Y-96007999D01*
X146509093Y-96001494D01*
X146645964Y-95950444D01*
X146645965Y-95950444D01*
X146762904Y-95862904D01*
X146850444Y-95745965D01*
X146850444Y-95745964D01*
X146901494Y-95609093D01*
X146907999Y-95548597D01*
X146908000Y-95548585D01*
X146908000Y-94954000D01*
X145954000Y-94954000D01*
X145954000Y-96008000D01*
X145446000Y-96008000D01*
X145446000Y-94446000D01*
X145954000Y-94446000D01*
X146908000Y-94446000D01*
X146908000Y-93851414D01*
X146907999Y-93851402D01*
X146901494Y-93790906D01*
X146850444Y-93654035D01*
X146850443Y-93654033D01*
X146762904Y-93537095D01*
X146645965Y-93449555D01*
X146509093Y-93398505D01*
X146448597Y-93392000D01*
X145954000Y-93392000D01*
X145954000Y-94446000D01*
X145446000Y-94446000D01*
X145446000Y-93425620D01*
X145338347Y-93383243D01*
X145328430Y-93375536D01*
X145316379Y-93371998D01*
X145300922Y-93354159D01*
X145282288Y-93339679D01*
X145278111Y-93327835D01*
X145269886Y-93318342D01*
X145262029Y-93282224D01*
X145258679Y-93272723D01*
X145259347Y-93269896D01*
X145258500Y-93266000D01*
X145258500Y-92856077D01*
X145258499Y-92856060D01*
X145251990Y-92795513D01*
X145251988Y-92795505D01*
X145200889Y-92658507D01*
X145200887Y-92658502D01*
X145113261Y-92541448D01*
X144996207Y-92453822D01*
X144996202Y-92453820D01*
X144859204Y-92402721D01*
X144859196Y-92402719D01*
X144798649Y-92396210D01*
X144798638Y-92396210D01*
X144001362Y-92396210D01*
X144001350Y-92396210D01*
X143940804Y-92402719D01*
X143940797Y-92402721D01*
X143894031Y-92420164D01*
X143823215Y-92425228D01*
X143805969Y-92420164D01*
X143759202Y-92402721D01*
X143759195Y-92402719D01*
X143698649Y-92396210D01*
X143698638Y-92396210D01*
X143184500Y-92396210D01*
X143116379Y-92376208D01*
X143069886Y-92322552D01*
X143058500Y-92270210D01*
X143058500Y-92056077D01*
X143058499Y-92056060D01*
X143051990Y-91995513D01*
X143051988Y-91995505D01*
X143000889Y-91858507D01*
X143000887Y-91858502D01*
X142908632Y-91735264D01*
X142883821Y-91668744D01*
X142883500Y-91659755D01*
X142883500Y-87497503D01*
X142903502Y-87429382D01*
X142957158Y-87382889D01*
X143027432Y-87372785D01*
X143092012Y-87402279D01*
X143098595Y-87408408D01*
X143145865Y-87455678D01*
X143294664Y-87555102D01*
X143460000Y-87623587D01*
X143635521Y-87658500D01*
X143635522Y-87658500D01*
X143814478Y-87658500D01*
X143814479Y-87658500D01*
X143990000Y-87623587D01*
X144155336Y-87555102D01*
X144304135Y-87455678D01*
X144430678Y-87329135D01*
X144530102Y-87180336D01*
X144598587Y-87015000D01*
X144627624Y-86869018D01*
X144660532Y-86806110D01*
X144662051Y-86804563D01*
X147065909Y-84400706D01*
X147140710Y-84288759D01*
X147162051Y-84237235D01*
X147192234Y-84164369D01*
X147218500Y-84032319D01*
X147218500Y-83897681D01*
X147218500Y-73976000D01*
X147238502Y-73907879D01*
X147292158Y-73861386D01*
X147344500Y-73850000D01*
X157483847Y-73850000D01*
X157551968Y-73870002D01*
X157598461Y-73923658D01*
X157609847Y-73975928D01*
X157624484Y-99497566D01*
X157624487Y-99502926D01*
X157620730Y-99547406D01*
X157624523Y-99568554D01*
X157624530Y-99579727D01*
X157624531Y-99579728D01*
X157624537Y-99590046D01*
X157624538Y-99590054D01*
X157634731Y-99628006D01*
X157637059Y-99638418D01*
X157644003Y-99677119D01*
X157653145Y-99696572D01*
X157658719Y-99717326D01*
X157681059Y-99755970D01*
X157683330Y-99760802D01*
X157683333Y-99760808D01*
X158234458Y-100933500D01*
X160743573Y-106272438D01*
X160750382Y-106290358D01*
X160755506Y-106307715D01*
X160763807Y-106321290D01*
X160771977Y-106334651D01*
X160774066Y-106338196D01*
X160776457Y-106342409D01*
X160791933Y-106375339D01*
X160801725Y-106386938D01*
X160807494Y-106397103D01*
X160807694Y-106397956D01*
X160809126Y-106400071D01*
X160934758Y-106636021D01*
X160941007Y-106649656D01*
X161049810Y-106930037D01*
X161054394Y-106944318D01*
X161129107Y-107235635D01*
X161131962Y-107250360D01*
X161171529Y-107548493D01*
X161172614Y-107563453D01*
X161176474Y-107864181D01*
X161175773Y-107879164D01*
X161143871Y-108178211D01*
X161141395Y-108193004D01*
X161074184Y-108486143D01*
X161069968Y-108500537D01*
X160968397Y-108783618D01*
X160962500Y-108797409D01*
X160828013Y-109066410D01*
X160820519Y-109079403D01*
X160655021Y-109330517D01*
X160646037Y-109342527D01*
X160451868Y-109572199D01*
X160441519Y-109583057D01*
X160221437Y-109788026D01*
X160209872Y-109797577D01*
X159966992Y-109974943D01*
X159954374Y-109983052D01*
X159692138Y-110130299D01*
X159678646Y-110136851D01*
X159400776Y-110251893D01*
X159386601Y-110256796D01*
X159097019Y-110338006D01*
X159082362Y-110341189D01*
X158785189Y-110387413D01*
X158770256Y-110388832D01*
X158468440Y-110399458D01*
X158463946Y-110399536D01*
X158457730Y-110399533D01*
X158454724Y-110399496D01*
X158396310Y-110398073D01*
X158389653Y-110398785D01*
X158376214Y-110399498D01*
X127095202Y-110386213D01*
X127080746Y-110386206D01*
X127074622Y-110384725D01*
X127014945Y-110386178D01*
X127013359Y-110386178D01*
X127013358Y-110386177D01*
X127013358Y-110386178D01*
X127006534Y-110386175D01*
X127002156Y-110386097D01*
X126700681Y-110375483D01*
X126685748Y-110374064D01*
X126388575Y-110327840D01*
X126373918Y-110324657D01*
X126084336Y-110243447D01*
X126070161Y-110238544D01*
X125792291Y-110123502D01*
X125778799Y-110116950D01*
X125516563Y-109969703D01*
X125503945Y-109961594D01*
X125279345Y-109797577D01*
X125261062Y-109784225D01*
X125249500Y-109774677D01*
X125029413Y-109569703D01*
X125019076Y-109558857D01*
X124824896Y-109329173D01*
X124815916Y-109317168D01*
X124655081Y-109073130D01*
X124650416Y-109066050D01*
X124642924Y-109053061D01*
X124563917Y-108895032D01*
X124508436Y-108784057D01*
X124502540Y-108770269D01*
X124405759Y-108500537D01*
X124400967Y-108487182D01*
X124396755Y-108472802D01*
X124329541Y-108179654D01*
X124327066Y-108164862D01*
X124295164Y-107865815D01*
X124294463Y-107850832D01*
X124298152Y-107563453D01*
X124298323Y-107550094D01*
X124299407Y-107535154D01*
X124338977Y-107236998D01*
X124341827Y-107222298D01*
X124416545Y-106930962D01*
X124421124Y-106916695D01*
X124529931Y-106636303D01*
X124536179Y-106622672D01*
X124661828Y-106386688D01*
X124663441Y-106383757D01*
X124669209Y-106373591D01*
X124679005Y-106361990D01*
X124694483Y-106329052D01*
X124696873Y-106324842D01*
X124697248Y-106324478D01*
X124698958Y-106321304D01*
X124715432Y-106294366D01*
X124720556Y-106277001D01*
X124727363Y-106259090D01*
X125155263Y-105348597D01*
X128792000Y-105348597D01*
X128798505Y-105409093D01*
X128849555Y-105545964D01*
X128849555Y-105545965D01*
X128937095Y-105662904D01*
X129054034Y-105750444D01*
X129190906Y-105801494D01*
X129251402Y-105807999D01*
X129251415Y-105808000D01*
X129746000Y-105808000D01*
X130254000Y-105808000D01*
X130748585Y-105808000D01*
X130748597Y-105807999D01*
X130809093Y-105801494D01*
X130945964Y-105750444D01*
X130945965Y-105750444D01*
X131062904Y-105662904D01*
X131150444Y-105545965D01*
X131150444Y-105545964D01*
X131201494Y-105409093D01*
X131207999Y-105348597D01*
X144492000Y-105348597D01*
X144498505Y-105409093D01*
X144549555Y-105545964D01*
X144549555Y-105545965D01*
X144637095Y-105662904D01*
X144754034Y-105750444D01*
X144890906Y-105801494D01*
X144951402Y-105807999D01*
X144951415Y-105808000D01*
X145446000Y-105808000D01*
X145954000Y-105808000D01*
X146448585Y-105808000D01*
X146448597Y-105807999D01*
X146509093Y-105801494D01*
X146645964Y-105750444D01*
X146645965Y-105750444D01*
X146762904Y-105662904D01*
X146850444Y-105545965D01*
X146850444Y-105545964D01*
X146901494Y-105409093D01*
X146907999Y-105348597D01*
X146908000Y-105348585D01*
X146908000Y-104454000D01*
X145954000Y-104454000D01*
X145954000Y-105808000D01*
X145446000Y-105808000D01*
X145446000Y-104454000D01*
X144492000Y-104454000D01*
X144492000Y-105348597D01*
X131207999Y-105348597D01*
X131208000Y-105348585D01*
X131208000Y-104535931D01*
X134149500Y-104535931D01*
X134149500Y-104664069D01*
X134174499Y-104789744D01*
X134223535Y-104908127D01*
X134294724Y-105014669D01*
X134385331Y-105105276D01*
X134491873Y-105176465D01*
X134610256Y-105225501D01*
X134735931Y-105250500D01*
X134735936Y-105250500D01*
X134864064Y-105250500D01*
X134864069Y-105250500D01*
X134989744Y-105225501D01*
X135108127Y-105176465D01*
X135214669Y-105105276D01*
X135305276Y-105014669D01*
X135376465Y-104908127D01*
X135425501Y-104789744D01*
X135450500Y-104664069D01*
X135450500Y-104535931D01*
X142149500Y-104535931D01*
X142149500Y-104664069D01*
X142174499Y-104789744D01*
X142223535Y-104908127D01*
X142294724Y-105014669D01*
X142385331Y-105105276D01*
X142491873Y-105176465D01*
X142610256Y-105225501D01*
X142735931Y-105250500D01*
X142735936Y-105250500D01*
X142864064Y-105250500D01*
X142864069Y-105250500D01*
X142989744Y-105225501D01*
X143108127Y-105176465D01*
X143214669Y-105105276D01*
X143305276Y-105014669D01*
X143376465Y-104908127D01*
X143425501Y-104789744D01*
X143450500Y-104664069D01*
X143450500Y-104535931D01*
X143425501Y-104410256D01*
X143376465Y-104291873D01*
X143305276Y-104185331D01*
X143214669Y-104094724D01*
X143108127Y-104023535D01*
X142989745Y-103974499D01*
X142947852Y-103966166D01*
X142864069Y-103949500D01*
X142735931Y-103949500D01*
X142694039Y-103957833D01*
X142610254Y-103974499D01*
X142610253Y-103974500D01*
X142491871Y-104023536D01*
X142385335Y-104094721D01*
X142385328Y-104094726D01*
X142294726Y-104185328D01*
X142294721Y-104185335D01*
X142223536Y-104291871D01*
X142174500Y-104410253D01*
X142174499Y-104410254D01*
X142157833Y-104494039D01*
X142149500Y-104535931D01*
X135450500Y-104535931D01*
X135425501Y-104410256D01*
X135376465Y-104291873D01*
X135305276Y-104185331D01*
X135214669Y-104094724D01*
X135108127Y-104023535D01*
X134989745Y-103974499D01*
X134947852Y-103966166D01*
X134864069Y-103949500D01*
X134735931Y-103949500D01*
X134694039Y-103957833D01*
X134610254Y-103974499D01*
X134610253Y-103974500D01*
X134491871Y-104023536D01*
X134385335Y-104094721D01*
X134385328Y-104094726D01*
X134294726Y-104185328D01*
X134294721Y-104185335D01*
X134223536Y-104291871D01*
X134174500Y-104410253D01*
X134174499Y-104410254D01*
X134157833Y-104494039D01*
X134149500Y-104535931D01*
X131208000Y-104535931D01*
X131208000Y-104454000D01*
X130254000Y-104454000D01*
X130254000Y-105808000D01*
X129746000Y-105808000D01*
X129746000Y-104454000D01*
X128792000Y-104454000D01*
X128792000Y-105348597D01*
X125155263Y-105348597D01*
X126234865Y-103051402D01*
X128792000Y-103051402D01*
X128792000Y-103946000D01*
X129746000Y-103946000D01*
X130254000Y-103946000D01*
X131208000Y-103946000D01*
X131208000Y-103051414D01*
X131207999Y-103051402D01*
X131201494Y-102990906D01*
X131150444Y-102854035D01*
X131150444Y-102854034D01*
X131062904Y-102737095D01*
X130945965Y-102649555D01*
X130809093Y-102598505D01*
X130748597Y-102592000D01*
X130254000Y-102592000D01*
X130254000Y-103946000D01*
X129746000Y-103946000D01*
X129746000Y-102592000D01*
X129251402Y-102592000D01*
X129190906Y-102598505D01*
X129054035Y-102649555D01*
X129054034Y-102649555D01*
X128937095Y-102737095D01*
X128849555Y-102854034D01*
X128849555Y-102854035D01*
X128798505Y-102990906D01*
X128792000Y-103051402D01*
X126234865Y-103051402D01*
X127790081Y-99742186D01*
X127812595Y-99703069D01*
X127818002Y-99682777D01*
X127826935Y-99663770D01*
X127834906Y-99619339D01*
X127846528Y-99575728D01*
X127846499Y-99554728D01*
X127850208Y-99534057D01*
X127846845Y-99494262D01*
X127846400Y-99483870D01*
X127840715Y-95348597D01*
X129492000Y-95348597D01*
X129498505Y-95409093D01*
X129549555Y-95545964D01*
X129549555Y-95545965D01*
X129637095Y-95662904D01*
X129754034Y-95750444D01*
X129890906Y-95801494D01*
X129951402Y-95807999D01*
X129951415Y-95808000D01*
X130646000Y-95808000D01*
X131154000Y-95808000D01*
X131848585Y-95808000D01*
X131848597Y-95807999D01*
X131909093Y-95801494D01*
X132045964Y-95750444D01*
X132045965Y-95750444D01*
X132162904Y-95662904D01*
X132250444Y-95545965D01*
X132250444Y-95545964D01*
X132301494Y-95409093D01*
X132307999Y-95348597D01*
X132308000Y-95348585D01*
X132308000Y-94854000D01*
X131154000Y-94854000D01*
X131154000Y-95808000D01*
X130646000Y-95808000D01*
X130646000Y-94854000D01*
X129492000Y-94854000D01*
X129492000Y-95348597D01*
X127840715Y-95348597D01*
X127811333Y-73976170D01*
X127831242Y-73908025D01*
X127884833Y-73861458D01*
X127937333Y-73850000D01*
X131019495Y-73850000D01*
X131087616Y-73870002D01*
G37*
%TD.AperFunction*%
%TA.AperFunction,Conductor*%
G36*
X135168431Y-87286561D02*
G01*
X135286884Y-87325049D01*
X135498084Y-87358500D01*
X135498087Y-87358500D01*
X135634871Y-87358500D01*
X135702992Y-87378502D01*
X135749485Y-87432158D01*
X135758449Y-87459917D01*
X135770649Y-87521247D01*
X135827826Y-87659284D01*
X135910834Y-87783515D01*
X135910838Y-87783519D01*
X136947864Y-88820545D01*
X136956541Y-88831115D01*
X136956909Y-88830814D01*
X136960833Y-88835595D01*
X136960834Y-88835597D01*
X137354596Y-89229359D01*
X137388620Y-89291670D01*
X137391500Y-89318453D01*
X137391500Y-90074000D01*
X137371498Y-90142121D01*
X137317842Y-90188614D01*
X137265500Y-90200000D01*
X137137500Y-90200000D01*
X137137500Y-90328000D01*
X137117498Y-90396121D01*
X137063842Y-90442614D01*
X137011500Y-90454000D01*
X136092000Y-90454000D01*
X136092000Y-90487184D01*
X136102430Y-90589273D01*
X136102432Y-90589283D01*
X136106946Y-90602905D01*
X136109385Y-90673860D01*
X136073076Y-90734869D01*
X136009547Y-90766564D01*
X135938967Y-90758880D01*
X135898246Y-90731631D01*
X135079430Y-89912815D01*
X136092000Y-89912815D01*
X136092000Y-89946000D01*
X136883500Y-89946000D01*
X136883500Y-89217000D01*
X136787815Y-89217000D01*
X136685726Y-89227430D01*
X136685723Y-89227431D01*
X136520292Y-89282248D01*
X136371966Y-89373737D01*
X136371960Y-89373742D01*
X136248742Y-89496960D01*
X136248737Y-89496966D01*
X136157248Y-89645292D01*
X136102431Y-89810723D01*
X136102430Y-89810726D01*
X136092000Y-89912815D01*
X135079430Y-89912815D01*
X135040405Y-89873790D01*
X135006379Y-89811478D01*
X135003500Y-89784695D01*
X135003500Y-87406396D01*
X135023502Y-87338275D01*
X135077158Y-87291782D01*
X135147432Y-87281678D01*
X135168431Y-87286561D01*
G37*
%TD.AperFunction*%
%TA.AperFunction,Conductor*%
G36*
X138683329Y-87330944D02*
G01*
X138714654Y-87394656D01*
X138716500Y-87416143D01*
X138716500Y-87777321D01*
X138717732Y-87783513D01*
X138737229Y-87881534D01*
X138742767Y-87909372D01*
X138768781Y-87972174D01*
X138768781Y-87972175D01*
X138777324Y-87992799D01*
X138794290Y-88033759D01*
X138844270Y-88108559D01*
X138845654Y-88110631D01*
X138869091Y-88145706D01*
X139279596Y-88556211D01*
X139294539Y-88583577D01*
X139311396Y-88609807D01*
X139312302Y-88616108D01*
X139313620Y-88618522D01*
X139316500Y-88645305D01*
X139316500Y-88739628D01*
X139296498Y-88807749D01*
X139242842Y-88854242D01*
X139172568Y-88864346D01*
X139107988Y-88834852D01*
X139101405Y-88828723D01*
X138533522Y-88260840D01*
X138528732Y-88256909D01*
X138529033Y-88256541D01*
X138518463Y-88247864D01*
X138152133Y-87881534D01*
X138143458Y-87870962D01*
X138143089Y-87871266D01*
X138139164Y-87866483D01*
X138033516Y-87760835D01*
X137828812Y-87556131D01*
X137794786Y-87493819D01*
X137799851Y-87423004D01*
X137842398Y-87366168D01*
X137908918Y-87341357D01*
X137937612Y-87342586D01*
X138038084Y-87358500D01*
X138038087Y-87358500D01*
X138251913Y-87358500D01*
X138251916Y-87358500D01*
X138463116Y-87325049D01*
X138551567Y-87296309D01*
X138622531Y-87294282D01*
X138683329Y-87330944D01*
G37*
%TD.AperFunction*%
%TA.AperFunction,Conductor*%
G36*
X145793621Y-73870002D02*
G01*
X145840114Y-73923658D01*
X145851500Y-73976000D01*
X145851500Y-83629695D01*
X145831498Y-83697816D01*
X145814595Y-83718790D01*
X143728790Y-85804595D01*
X143666478Y-85838621D01*
X143639695Y-85841500D01*
X143635518Y-85841500D01*
X143504771Y-85867507D01*
X143460000Y-85876413D01*
X143459999Y-85876413D01*
X143459996Y-85876414D01*
X143294662Y-85944899D01*
X143145869Y-86044319D01*
X143145862Y-86044324D01*
X143098595Y-86091592D01*
X143036283Y-86125618D01*
X142965468Y-86120553D01*
X142908632Y-86078006D01*
X142883821Y-86011486D01*
X142883500Y-86002497D01*
X142883500Y-81235305D01*
X142903502Y-81167184D01*
X142920405Y-81146210D01*
X144530904Y-79535711D01*
X144530909Y-79535706D01*
X144543195Y-79517319D01*
X144605710Y-79423759D01*
X144635968Y-79350710D01*
X144657234Y-79299370D01*
X144683500Y-79167319D01*
X144683500Y-79032682D01*
X144683500Y-73976000D01*
X144703502Y-73907879D01*
X144757158Y-73861386D01*
X144809500Y-73850000D01*
X145725500Y-73850000D01*
X145793621Y-73870002D01*
G37*
%TD.AperFunction*%
%TA.AperFunction,Conductor*%
G36*
X140713621Y-73870002D02*
G01*
X140760114Y-73923658D01*
X140771500Y-73976000D01*
X140771500Y-77229441D01*
X140751498Y-77297562D01*
X140697842Y-77344055D01*
X140627568Y-77354159D01*
X140597282Y-77345850D01*
X140490005Y-77301414D01*
X140314481Y-77266500D01*
X140314479Y-77266500D01*
X140135521Y-77266500D01*
X140135518Y-77266500D01*
X140004771Y-77292507D01*
X139960000Y-77301413D01*
X139959999Y-77301413D01*
X139959996Y-77301414D01*
X139794662Y-77369899D01*
X139645869Y-77469319D01*
X139645862Y-77469324D01*
X139519324Y-77595862D01*
X139519319Y-77595869D01*
X139419899Y-77744662D01*
X139351414Y-77909997D01*
X139316168Y-78087187D01*
X139283260Y-78150096D01*
X139281684Y-78151700D01*
X138489016Y-78944369D01*
X137709294Y-79724091D01*
X137661692Y-79771693D01*
X137614090Y-79819294D01*
X137538595Y-79932279D01*
X137536920Y-79936963D01*
X137487768Y-80055625D01*
X137487766Y-80055630D01*
X137461500Y-80187678D01*
X137461500Y-84753192D01*
X137441498Y-84821313D01*
X137409561Y-84855128D01*
X137259993Y-84963795D01*
X137108798Y-85114990D01*
X137108796Y-85114993D01*
X136983108Y-85287987D01*
X136982434Y-85289088D01*
X136982068Y-85289418D01*
X136980196Y-85291996D01*
X136979654Y-85291602D01*
X136929787Y-85336721D01*
X136859745Y-85348328D01*
X136794547Y-85320226D01*
X136769976Y-85291870D01*
X136769804Y-85291996D01*
X136768341Y-85289982D01*
X136767566Y-85289088D01*
X136766896Y-85287996D01*
X136766894Y-85287991D01*
X136641206Y-85114996D01*
X136641203Y-85114993D01*
X136641201Y-85114990D01*
X136490009Y-84963798D01*
X136490006Y-84963796D01*
X136490005Y-84963795D01*
X136490004Y-84963794D01*
X136317009Y-84838106D01*
X136126483Y-84741028D01*
X136126480Y-84741027D01*
X136126478Y-84741026D01*
X135923120Y-84674952D01*
X135923123Y-84674952D01*
X135883801Y-84668724D01*
X135711916Y-84641500D01*
X135498084Y-84641500D01*
X135362876Y-84662914D01*
X135286876Y-84674952D01*
X135286875Y-84674953D01*
X135168435Y-84713436D01*
X135097468Y-84715463D01*
X135036670Y-84678800D01*
X135005345Y-84615088D01*
X135003500Y-84593603D01*
X135003500Y-79277905D01*
X135023502Y-79209784D01*
X135040405Y-79188810D01*
X139445904Y-74783311D01*
X139445909Y-74783306D01*
X139520710Y-74671359D01*
X139535800Y-74634925D01*
X139572234Y-74546970D01*
X139598500Y-74414919D01*
X139598500Y-74280282D01*
X139598500Y-73976000D01*
X139618502Y-73907879D01*
X139672158Y-73861386D01*
X139724500Y-73850000D01*
X140645500Y-73850000D01*
X140713621Y-73870002D01*
G37*
%TD.AperFunction*%
%TA.AperFunction,Conductor*%
G36*
X143258621Y-73870002D02*
G01*
X143305114Y-73923658D01*
X143316500Y-73976000D01*
X143316500Y-78764695D01*
X143296498Y-78832816D01*
X143279595Y-78853790D01*
X141764294Y-80369091D01*
X141723908Y-80409477D01*
X141669090Y-80464294D01*
X141594290Y-80576241D01*
X141572948Y-80627765D01*
X141542768Y-80700625D01*
X141542766Y-80700630D01*
X141516500Y-80832678D01*
X141516500Y-84693376D01*
X141496498Y-84761497D01*
X141442842Y-84807990D01*
X141372568Y-84818094D01*
X141333298Y-84805643D01*
X141206490Y-84741031D01*
X141206478Y-84741026D01*
X141003120Y-84674952D01*
X141003123Y-84674952D01*
X140963801Y-84668724D01*
X140791916Y-84641500D01*
X140578084Y-84641500D01*
X140442876Y-84662914D01*
X140366876Y-84674952D01*
X140366875Y-84674953D01*
X140248435Y-84713436D01*
X140177468Y-84715463D01*
X140116670Y-84678800D01*
X140085345Y-84615088D01*
X140083500Y-84593603D01*
X140083500Y-81135305D01*
X140103502Y-81067184D01*
X140120405Y-81046210D01*
X141010940Y-80155675D01*
X141985909Y-79180706D01*
X142050860Y-79083500D01*
X142060710Y-79068759D01*
X142089871Y-78998358D01*
X142112234Y-78944369D01*
X142138500Y-78812319D01*
X142138500Y-78677681D01*
X142138500Y-73976000D01*
X142158502Y-73907879D01*
X142212158Y-73861386D01*
X142264500Y-73850000D01*
X143190500Y-73850000D01*
X143258621Y-73870002D01*
G37*
%TD.AperFunction*%
%TD*%
M02*
