%TF.GenerationSoftware,KiCad,Pcbnew,9.0.9-9.0.9~ubuntu24.04.1*%
%TF.CreationDate,2026-07-11T21:41:52+02:00*%
%TF.ProjectId,MicroPicoDriveCartridge,4d696372-6f50-4696-936f-447269766543,1.4.e*%
%TF.SameCoordinates,Original*%
%TF.FileFunction,Drillmap*%
%TF.FilePolarity,Positive*%
%FSLAX45Y45*%
G04 Gerber Fmt 4.5, Leading zero omitted, Abs format (unit mm)*
G04 Created by KiCad (PCBNEW 9.0.9-9.0.9~ubuntu24.04.1) date 2026-07-11 21:41:52*
%MOMM*%
%LPD*%
G01*
G04 APERTURE LIST*
%ADD10C,0.100000*%
%ADD11C,0.120000*%
%ADD12C,0.200000*%
G04 APERTURE END LIST*
D10*
X12702094Y-11088668D02*
G75*
G02*
X12425410Y-10608950I-7684J315218D01*
G01*
X12731000Y-7337000D02*
X12734594Y-9951052D01*
X12734594Y-9951052D02*
X12425406Y-10608948D01*
X15811000Y-7337000D02*
X15812500Y-9952387D01*
X15812500Y-9952387D02*
X16121688Y-10610282D01*
X15845006Y-11090003D02*
X12702092Y-11088668D01*
X16121688Y-10610282D02*
G75*
G02*
X15845000Y-11090003I-269008J-164498D01*
G01*
D11*
X12731000Y-7337000D02*
X12731000Y-6537902D01*
X12803361Y-6493180D02*
X12820443Y-6501721D01*
X12931000Y-7337000D02*
X12931000Y-6680607D01*
X13121000Y-6477711D02*
X13121000Y-7337000D01*
X13121000Y-7337000D02*
X12931000Y-7337000D01*
X13206355Y-6371645D02*
X13135645Y-6442355D01*
X13241711Y-6357000D02*
X15300289Y-6357000D01*
X15335645Y-6371645D02*
X15406355Y-6442355D01*
X15421000Y-6477711D02*
X15421000Y-7337000D01*
X15421000Y-7337000D02*
X15611000Y-7337000D01*
X15611000Y-7337000D02*
X15611000Y-6680607D01*
X15721557Y-6501721D02*
X15738639Y-6493180D01*
X15811000Y-7337000D02*
X15811000Y-6537902D01*
X12731000Y-6537902D02*
G75*
G02*
X12803361Y-6493180I50000J0D01*
G01*
X12820443Y-6501721D02*
G75*
G02*
X12931000Y-6680607I-89443J-178886D01*
G01*
X13121000Y-6477711D02*
G75*
G02*
X13135645Y-6442355I50000J0D01*
G01*
X13206355Y-6371645D02*
G75*
G02*
X13241711Y-6357000I35355J-35355D01*
G01*
X15300289Y-6357000D02*
G75*
G02*
X15335645Y-6371644I1J-50000D01*
G01*
X15406355Y-6442355D02*
G75*
G02*
X15420999Y-6477711I-35355J-35355D01*
G01*
X15611000Y-6680607D02*
G75*
G02*
X15721557Y-6501721I200010J-6D01*
G01*
X15738639Y-6493180D02*
G75*
G02*
X15810998Y-6537902I22361J-44720D01*
G01*
D12*
D10*
X13440000Y-10420000D02*
X13520000Y-10500000D01*
X13520000Y-10420000D02*
X13440000Y-10500000D01*
X14240000Y-10420000D02*
X14320000Y-10500000D01*
X14320000Y-10420000D02*
X14240000Y-10500000D01*
D12*
X12634875Y-11406580D02*
X12634875Y-11206580D01*
X12634875Y-11206580D02*
X12682494Y-11206580D01*
X12682494Y-11206580D02*
X12711065Y-11216104D01*
X12711065Y-11216104D02*
X12730113Y-11235152D01*
X12730113Y-11235152D02*
X12739637Y-11254199D01*
X12739637Y-11254199D02*
X12749161Y-11292295D01*
X12749161Y-11292295D02*
X12749161Y-11320866D01*
X12749161Y-11320866D02*
X12739637Y-11358961D01*
X12739637Y-11358961D02*
X12730113Y-11378009D01*
X12730113Y-11378009D02*
X12711065Y-11397057D01*
X12711065Y-11397057D02*
X12682494Y-11406580D01*
X12682494Y-11406580D02*
X12634875Y-11406580D01*
X12834875Y-11406580D02*
X12834875Y-11273247D01*
X12834875Y-11311342D02*
X12844399Y-11292295D01*
X12844399Y-11292295D02*
X12853923Y-11282771D01*
X12853923Y-11282771D02*
X12872970Y-11273247D01*
X12872970Y-11273247D02*
X12892018Y-11273247D01*
X12958684Y-11406580D02*
X12958684Y-11273247D01*
X12958684Y-11206580D02*
X12949161Y-11216104D01*
X12949161Y-11216104D02*
X12958684Y-11225628D01*
X12958684Y-11225628D02*
X12968208Y-11216104D01*
X12968208Y-11216104D02*
X12958684Y-11206580D01*
X12958684Y-11206580D02*
X12958684Y-11225628D01*
X13082494Y-11406580D02*
X13063446Y-11397057D01*
X13063446Y-11397057D02*
X13053923Y-11378009D01*
X13053923Y-11378009D02*
X13053923Y-11206580D01*
X13187256Y-11406580D02*
X13168208Y-11397057D01*
X13168208Y-11397057D02*
X13158684Y-11378009D01*
X13158684Y-11378009D02*
X13158684Y-11206580D01*
X13415827Y-11406580D02*
X13415827Y-11206580D01*
X13415827Y-11206580D02*
X13482494Y-11349437D01*
X13482494Y-11349437D02*
X13549161Y-11206580D01*
X13549161Y-11206580D02*
X13549161Y-11406580D01*
X13730113Y-11406580D02*
X13730113Y-11301818D01*
X13730113Y-11301818D02*
X13720589Y-11282771D01*
X13720589Y-11282771D02*
X13701542Y-11273247D01*
X13701542Y-11273247D02*
X13663446Y-11273247D01*
X13663446Y-11273247D02*
X13644399Y-11282771D01*
X13730113Y-11397057D02*
X13711065Y-11406580D01*
X13711065Y-11406580D02*
X13663446Y-11406580D01*
X13663446Y-11406580D02*
X13644399Y-11397057D01*
X13644399Y-11397057D02*
X13634875Y-11378009D01*
X13634875Y-11378009D02*
X13634875Y-11358961D01*
X13634875Y-11358961D02*
X13644399Y-11339914D01*
X13644399Y-11339914D02*
X13663446Y-11330390D01*
X13663446Y-11330390D02*
X13711065Y-11330390D01*
X13711065Y-11330390D02*
X13730113Y-11320866D01*
X13825351Y-11273247D02*
X13825351Y-11473247D01*
X13825351Y-11282771D02*
X13844399Y-11273247D01*
X13844399Y-11273247D02*
X13882494Y-11273247D01*
X13882494Y-11273247D02*
X13901542Y-11282771D01*
X13901542Y-11282771D02*
X13911065Y-11292295D01*
X13911065Y-11292295D02*
X13920589Y-11311342D01*
X13920589Y-11311342D02*
X13920589Y-11368485D01*
X13920589Y-11368485D02*
X13911065Y-11387533D01*
X13911065Y-11387533D02*
X13901542Y-11397057D01*
X13901542Y-11397057D02*
X13882494Y-11406580D01*
X13882494Y-11406580D02*
X13844399Y-11406580D01*
X13844399Y-11406580D02*
X13825351Y-11397057D01*
X14006304Y-11387533D02*
X14015827Y-11397057D01*
X14015827Y-11397057D02*
X14006304Y-11406580D01*
X14006304Y-11406580D02*
X13996780Y-11397057D01*
X13996780Y-11397057D02*
X14006304Y-11387533D01*
X14006304Y-11387533D02*
X14006304Y-11406580D01*
X14006304Y-11282771D02*
X14015827Y-11292295D01*
X14015827Y-11292295D02*
X14006304Y-11301818D01*
X14006304Y-11301818D02*
X13996780Y-11292295D01*
X13996780Y-11292295D02*
X14006304Y-11282771D01*
X14006304Y-11282771D02*
X14006304Y-11301818D01*
D10*
X12294098Y-11695097D02*
X12374098Y-11775097D01*
X12374098Y-11695097D02*
X12294098Y-11775097D01*
D12*
X12672970Y-11626580D02*
X12692018Y-11626580D01*
X12692018Y-11626580D02*
X12711065Y-11636104D01*
X12711065Y-11636104D02*
X12720589Y-11645628D01*
X12720589Y-11645628D02*
X12730113Y-11664676D01*
X12730113Y-11664676D02*
X12739637Y-11702771D01*
X12739637Y-11702771D02*
X12739637Y-11750390D01*
X12739637Y-11750390D02*
X12730113Y-11788485D01*
X12730113Y-11788485D02*
X12720589Y-11807533D01*
X12720589Y-11807533D02*
X12711065Y-11817057D01*
X12711065Y-11817057D02*
X12692018Y-11826580D01*
X12692018Y-11826580D02*
X12672970Y-11826580D01*
X12672970Y-11826580D02*
X12653923Y-11817057D01*
X12653923Y-11817057D02*
X12644399Y-11807533D01*
X12644399Y-11807533D02*
X12634875Y-11788485D01*
X12634875Y-11788485D02*
X12625351Y-11750390D01*
X12625351Y-11750390D02*
X12625351Y-11702771D01*
X12625351Y-11702771D02*
X12634875Y-11664676D01*
X12634875Y-11664676D02*
X12644399Y-11645628D01*
X12644399Y-11645628D02*
X12653923Y-11636104D01*
X12653923Y-11636104D02*
X12672970Y-11626580D01*
X12825351Y-11807533D02*
X12834875Y-11817057D01*
X12834875Y-11817057D02*
X12825351Y-11826580D01*
X12825351Y-11826580D02*
X12815827Y-11817057D01*
X12815827Y-11817057D02*
X12825351Y-11807533D01*
X12825351Y-11807533D02*
X12825351Y-11826580D01*
X12949161Y-11712295D02*
X12930113Y-11702771D01*
X12930113Y-11702771D02*
X12920589Y-11693247D01*
X12920589Y-11693247D02*
X12911065Y-11674199D01*
X12911065Y-11674199D02*
X12911065Y-11664676D01*
X12911065Y-11664676D02*
X12920589Y-11645628D01*
X12920589Y-11645628D02*
X12930113Y-11636104D01*
X12930113Y-11636104D02*
X12949161Y-11626580D01*
X12949161Y-11626580D02*
X12987256Y-11626580D01*
X12987256Y-11626580D02*
X13006304Y-11636104D01*
X13006304Y-11636104D02*
X13015827Y-11645628D01*
X13015827Y-11645628D02*
X13025351Y-11664676D01*
X13025351Y-11664676D02*
X13025351Y-11674199D01*
X13025351Y-11674199D02*
X13015827Y-11693247D01*
X13015827Y-11693247D02*
X13006304Y-11702771D01*
X13006304Y-11702771D02*
X12987256Y-11712295D01*
X12987256Y-11712295D02*
X12949161Y-11712295D01*
X12949161Y-11712295D02*
X12930113Y-11721818D01*
X12930113Y-11721818D02*
X12920589Y-11731342D01*
X12920589Y-11731342D02*
X12911065Y-11750390D01*
X12911065Y-11750390D02*
X12911065Y-11788485D01*
X12911065Y-11788485D02*
X12920589Y-11807533D01*
X12920589Y-11807533D02*
X12930113Y-11817057D01*
X12930113Y-11817057D02*
X12949161Y-11826580D01*
X12949161Y-11826580D02*
X12987256Y-11826580D01*
X12987256Y-11826580D02*
X13006304Y-11817057D01*
X13006304Y-11817057D02*
X13015827Y-11807533D01*
X13015827Y-11807533D02*
X13025351Y-11788485D01*
X13025351Y-11788485D02*
X13025351Y-11750390D01*
X13025351Y-11750390D02*
X13015827Y-11731342D01*
X13015827Y-11731342D02*
X13006304Y-11721818D01*
X13006304Y-11721818D02*
X12987256Y-11712295D01*
X13149161Y-11626580D02*
X13168208Y-11626580D01*
X13168208Y-11626580D02*
X13187256Y-11636104D01*
X13187256Y-11636104D02*
X13196780Y-11645628D01*
X13196780Y-11645628D02*
X13206304Y-11664676D01*
X13206304Y-11664676D02*
X13215827Y-11702771D01*
X13215827Y-11702771D02*
X13215827Y-11750390D01*
X13215827Y-11750390D02*
X13206304Y-11788485D01*
X13206304Y-11788485D02*
X13196780Y-11807533D01*
X13196780Y-11807533D02*
X13187256Y-11817057D01*
X13187256Y-11817057D02*
X13168208Y-11826580D01*
X13168208Y-11826580D02*
X13149161Y-11826580D01*
X13149161Y-11826580D02*
X13130113Y-11817057D01*
X13130113Y-11817057D02*
X13120589Y-11807533D01*
X13120589Y-11807533D02*
X13111065Y-11788485D01*
X13111065Y-11788485D02*
X13101542Y-11750390D01*
X13101542Y-11750390D02*
X13101542Y-11702771D01*
X13101542Y-11702771D02*
X13111065Y-11664676D01*
X13111065Y-11664676D02*
X13120589Y-11645628D01*
X13120589Y-11645628D02*
X13130113Y-11636104D01*
X13130113Y-11636104D02*
X13149161Y-11626580D01*
X13339637Y-11626580D02*
X13358685Y-11626580D01*
X13358685Y-11626580D02*
X13377732Y-11636104D01*
X13377732Y-11636104D02*
X13387256Y-11645628D01*
X13387256Y-11645628D02*
X13396780Y-11664676D01*
X13396780Y-11664676D02*
X13406304Y-11702771D01*
X13406304Y-11702771D02*
X13406304Y-11750390D01*
X13406304Y-11750390D02*
X13396780Y-11788485D01*
X13396780Y-11788485D02*
X13387256Y-11807533D01*
X13387256Y-11807533D02*
X13377732Y-11817057D01*
X13377732Y-11817057D02*
X13358685Y-11826580D01*
X13358685Y-11826580D02*
X13339637Y-11826580D01*
X13339637Y-11826580D02*
X13320589Y-11817057D01*
X13320589Y-11817057D02*
X13311065Y-11807533D01*
X13311065Y-11807533D02*
X13301542Y-11788485D01*
X13301542Y-11788485D02*
X13292018Y-11750390D01*
X13292018Y-11750390D02*
X13292018Y-11702771D01*
X13292018Y-11702771D02*
X13301542Y-11664676D01*
X13301542Y-11664676D02*
X13311065Y-11645628D01*
X13311065Y-11645628D02*
X13320589Y-11636104D01*
X13320589Y-11636104D02*
X13339637Y-11626580D01*
X13492018Y-11826580D02*
X13492018Y-11693247D01*
X13492018Y-11712295D02*
X13501542Y-11702771D01*
X13501542Y-11702771D02*
X13520589Y-11693247D01*
X13520589Y-11693247D02*
X13549161Y-11693247D01*
X13549161Y-11693247D02*
X13568208Y-11702771D01*
X13568208Y-11702771D02*
X13577732Y-11721818D01*
X13577732Y-11721818D02*
X13577732Y-11826580D01*
X13577732Y-11721818D02*
X13587256Y-11702771D01*
X13587256Y-11702771D02*
X13606304Y-11693247D01*
X13606304Y-11693247D02*
X13634875Y-11693247D01*
X13634875Y-11693247D02*
X13653923Y-11702771D01*
X13653923Y-11702771D02*
X13663446Y-11721818D01*
X13663446Y-11721818D02*
X13663446Y-11826580D01*
X13758685Y-11826580D02*
X13758685Y-11693247D01*
X13758685Y-11712295D02*
X13768208Y-11702771D01*
X13768208Y-11702771D02*
X13787256Y-11693247D01*
X13787256Y-11693247D02*
X13815827Y-11693247D01*
X13815827Y-11693247D02*
X13834875Y-11702771D01*
X13834875Y-11702771D02*
X13844399Y-11721818D01*
X13844399Y-11721818D02*
X13844399Y-11826580D01*
X13844399Y-11721818D02*
X13853923Y-11702771D01*
X13853923Y-11702771D02*
X13872970Y-11693247D01*
X13872970Y-11693247D02*
X13901542Y-11693247D01*
X13901542Y-11693247D02*
X13920589Y-11702771D01*
X13920589Y-11702771D02*
X13930113Y-11721818D01*
X13930113Y-11721818D02*
X13930113Y-11826580D01*
X14320589Y-11617057D02*
X14149161Y-11874199D01*
X14577732Y-11626580D02*
X14596780Y-11626580D01*
X14596780Y-11626580D02*
X14615828Y-11636104D01*
X14615828Y-11636104D02*
X14625351Y-11645628D01*
X14625351Y-11645628D02*
X14634875Y-11664676D01*
X14634875Y-11664676D02*
X14644399Y-11702771D01*
X14644399Y-11702771D02*
X14644399Y-11750390D01*
X14644399Y-11750390D02*
X14634875Y-11788485D01*
X14634875Y-11788485D02*
X14625351Y-11807533D01*
X14625351Y-11807533D02*
X14615828Y-11817057D01*
X14615828Y-11817057D02*
X14596780Y-11826580D01*
X14596780Y-11826580D02*
X14577732Y-11826580D01*
X14577732Y-11826580D02*
X14558685Y-11817057D01*
X14558685Y-11817057D02*
X14549161Y-11807533D01*
X14549161Y-11807533D02*
X14539637Y-11788485D01*
X14539637Y-11788485D02*
X14530113Y-11750390D01*
X14530113Y-11750390D02*
X14530113Y-11702771D01*
X14530113Y-11702771D02*
X14539637Y-11664676D01*
X14539637Y-11664676D02*
X14549161Y-11645628D01*
X14549161Y-11645628D02*
X14558685Y-11636104D01*
X14558685Y-11636104D02*
X14577732Y-11626580D01*
X14730113Y-11807533D02*
X14739637Y-11817057D01*
X14739637Y-11817057D02*
X14730113Y-11826580D01*
X14730113Y-11826580D02*
X14720589Y-11817057D01*
X14720589Y-11817057D02*
X14730113Y-11807533D01*
X14730113Y-11807533D02*
X14730113Y-11826580D01*
X14863447Y-11626580D02*
X14882494Y-11626580D01*
X14882494Y-11626580D02*
X14901542Y-11636104D01*
X14901542Y-11636104D02*
X14911066Y-11645628D01*
X14911066Y-11645628D02*
X14920589Y-11664676D01*
X14920589Y-11664676D02*
X14930113Y-11702771D01*
X14930113Y-11702771D02*
X14930113Y-11750390D01*
X14930113Y-11750390D02*
X14920589Y-11788485D01*
X14920589Y-11788485D02*
X14911066Y-11807533D01*
X14911066Y-11807533D02*
X14901542Y-11817057D01*
X14901542Y-11817057D02*
X14882494Y-11826580D01*
X14882494Y-11826580D02*
X14863447Y-11826580D01*
X14863447Y-11826580D02*
X14844399Y-11817057D01*
X14844399Y-11817057D02*
X14834875Y-11807533D01*
X14834875Y-11807533D02*
X14825351Y-11788485D01*
X14825351Y-11788485D02*
X14815828Y-11750390D01*
X14815828Y-11750390D02*
X14815828Y-11702771D01*
X14815828Y-11702771D02*
X14825351Y-11664676D01*
X14825351Y-11664676D02*
X14834875Y-11645628D01*
X14834875Y-11645628D02*
X14844399Y-11636104D01*
X14844399Y-11636104D02*
X14863447Y-11626580D01*
X14996780Y-11626580D02*
X15120589Y-11626580D01*
X15120589Y-11626580D02*
X15053923Y-11702771D01*
X15053923Y-11702771D02*
X15082494Y-11702771D01*
X15082494Y-11702771D02*
X15101542Y-11712295D01*
X15101542Y-11712295D02*
X15111066Y-11721818D01*
X15111066Y-11721818D02*
X15120589Y-11740866D01*
X15120589Y-11740866D02*
X15120589Y-11788485D01*
X15120589Y-11788485D02*
X15111066Y-11807533D01*
X15111066Y-11807533D02*
X15101542Y-11817057D01*
X15101542Y-11817057D02*
X15082494Y-11826580D01*
X15082494Y-11826580D02*
X15025351Y-11826580D01*
X15025351Y-11826580D02*
X15006304Y-11817057D01*
X15006304Y-11817057D02*
X14996780Y-11807533D01*
X15311066Y-11826580D02*
X15196780Y-11826580D01*
X15253923Y-11826580D02*
X15253923Y-11626580D01*
X15253923Y-11626580D02*
X15234875Y-11655152D01*
X15234875Y-11655152D02*
X15215828Y-11674199D01*
X15215828Y-11674199D02*
X15196780Y-11683723D01*
X15492018Y-11626580D02*
X15396780Y-11626580D01*
X15396780Y-11626580D02*
X15387256Y-11721818D01*
X15387256Y-11721818D02*
X15396780Y-11712295D01*
X15396780Y-11712295D02*
X15415828Y-11702771D01*
X15415828Y-11702771D02*
X15463447Y-11702771D01*
X15463447Y-11702771D02*
X15482494Y-11712295D01*
X15482494Y-11712295D02*
X15492018Y-11721818D01*
X15492018Y-11721818D02*
X15501542Y-11740866D01*
X15501542Y-11740866D02*
X15501542Y-11788485D01*
X15501542Y-11788485D02*
X15492018Y-11807533D01*
X15492018Y-11807533D02*
X15482494Y-11817057D01*
X15482494Y-11817057D02*
X15463447Y-11826580D01*
X15463447Y-11826580D02*
X15415828Y-11826580D01*
X15415828Y-11826580D02*
X15396780Y-11817057D01*
X15396780Y-11817057D02*
X15387256Y-11807533D01*
X15577732Y-11626580D02*
X15577732Y-11664676D01*
X15653923Y-11626580D02*
X15653923Y-11664676D01*
X15949161Y-11902771D02*
X15939637Y-11893247D01*
X15939637Y-11893247D02*
X15920590Y-11864676D01*
X15920590Y-11864676D02*
X15911066Y-11845628D01*
X15911066Y-11845628D02*
X15901542Y-11817057D01*
X15901542Y-11817057D02*
X15892018Y-11769437D01*
X15892018Y-11769437D02*
X15892018Y-11731342D01*
X15892018Y-11731342D02*
X15901542Y-11683723D01*
X15901542Y-11683723D02*
X15911066Y-11655152D01*
X15911066Y-11655152D02*
X15920590Y-11636104D01*
X15920590Y-11636104D02*
X15939637Y-11607533D01*
X15939637Y-11607533D02*
X15949161Y-11598009D01*
X16015828Y-11645628D02*
X16025351Y-11636104D01*
X16025351Y-11636104D02*
X16044399Y-11626580D01*
X16044399Y-11626580D02*
X16092018Y-11626580D01*
X16092018Y-11626580D02*
X16111066Y-11636104D01*
X16111066Y-11636104D02*
X16120590Y-11645628D01*
X16120590Y-11645628D02*
X16130113Y-11664676D01*
X16130113Y-11664676D02*
X16130113Y-11683723D01*
X16130113Y-11683723D02*
X16120590Y-11712295D01*
X16120590Y-11712295D02*
X16006304Y-11826580D01*
X16006304Y-11826580D02*
X16130113Y-11826580D01*
X16368209Y-11826580D02*
X16368209Y-11626580D01*
X16453923Y-11826580D02*
X16453923Y-11721818D01*
X16453923Y-11721818D02*
X16444399Y-11702771D01*
X16444399Y-11702771D02*
X16425352Y-11693247D01*
X16425352Y-11693247D02*
X16396780Y-11693247D01*
X16396780Y-11693247D02*
X16377732Y-11702771D01*
X16377732Y-11702771D02*
X16368209Y-11712295D01*
X16577732Y-11826580D02*
X16558685Y-11817057D01*
X16558685Y-11817057D02*
X16549161Y-11807533D01*
X16549161Y-11807533D02*
X16539637Y-11788485D01*
X16539637Y-11788485D02*
X16539637Y-11731342D01*
X16539637Y-11731342D02*
X16549161Y-11712295D01*
X16549161Y-11712295D02*
X16558685Y-11702771D01*
X16558685Y-11702771D02*
X16577732Y-11693247D01*
X16577732Y-11693247D02*
X16606304Y-11693247D01*
X16606304Y-11693247D02*
X16625352Y-11702771D01*
X16625352Y-11702771D02*
X16634875Y-11712295D01*
X16634875Y-11712295D02*
X16644399Y-11731342D01*
X16644399Y-11731342D02*
X16644399Y-11788485D01*
X16644399Y-11788485D02*
X16634875Y-11807533D01*
X16634875Y-11807533D02*
X16625352Y-11817057D01*
X16625352Y-11817057D02*
X16606304Y-11826580D01*
X16606304Y-11826580D02*
X16577732Y-11826580D01*
X16758685Y-11826580D02*
X16739637Y-11817057D01*
X16739637Y-11817057D02*
X16730113Y-11798009D01*
X16730113Y-11798009D02*
X16730113Y-11626580D01*
X16911066Y-11817057D02*
X16892018Y-11826580D01*
X16892018Y-11826580D02*
X16853923Y-11826580D01*
X16853923Y-11826580D02*
X16834875Y-11817057D01*
X16834875Y-11817057D02*
X16825352Y-11798009D01*
X16825352Y-11798009D02*
X16825352Y-11721818D01*
X16825352Y-11721818D02*
X16834875Y-11702771D01*
X16834875Y-11702771D02*
X16853923Y-11693247D01*
X16853923Y-11693247D02*
X16892018Y-11693247D01*
X16892018Y-11693247D02*
X16911066Y-11702771D01*
X16911066Y-11702771D02*
X16920590Y-11721818D01*
X16920590Y-11721818D02*
X16920590Y-11740866D01*
X16920590Y-11740866D02*
X16825352Y-11759914D01*
X16996780Y-11817057D02*
X17015828Y-11826580D01*
X17015828Y-11826580D02*
X17053923Y-11826580D01*
X17053923Y-11826580D02*
X17072971Y-11817057D01*
X17072971Y-11817057D02*
X17082495Y-11798009D01*
X17082495Y-11798009D02*
X17082495Y-11788485D01*
X17082495Y-11788485D02*
X17072971Y-11769437D01*
X17072971Y-11769437D02*
X17053923Y-11759914D01*
X17053923Y-11759914D02*
X17025352Y-11759914D01*
X17025352Y-11759914D02*
X17006304Y-11750390D01*
X17006304Y-11750390D02*
X16996780Y-11731342D01*
X16996780Y-11731342D02*
X16996780Y-11721818D01*
X16996780Y-11721818D02*
X17006304Y-11702771D01*
X17006304Y-11702771D02*
X17025352Y-11693247D01*
X17025352Y-11693247D02*
X17053923Y-11693247D01*
X17053923Y-11693247D02*
X17072971Y-11702771D01*
X17149161Y-11902771D02*
X17158685Y-11893247D01*
X17158685Y-11893247D02*
X17177733Y-11864676D01*
X17177733Y-11864676D02*
X17187256Y-11845628D01*
X17187256Y-11845628D02*
X17196780Y-11817057D01*
X17196780Y-11817057D02*
X17206304Y-11769437D01*
X17206304Y-11769437D02*
X17206304Y-11731342D01*
X17206304Y-11731342D02*
X17196780Y-11683723D01*
X17196780Y-11683723D02*
X17187256Y-11655152D01*
X17187256Y-11655152D02*
X17177733Y-11636104D01*
X17177733Y-11636104D02*
X17158685Y-11607533D01*
X17158685Y-11607533D02*
X17149161Y-11598009D01*
X17511066Y-11902771D02*
X17501542Y-11893247D01*
X17501542Y-11893247D02*
X17482495Y-11864676D01*
X17482495Y-11864676D02*
X17472971Y-11845628D01*
X17472971Y-11845628D02*
X17463447Y-11817057D01*
X17463447Y-11817057D02*
X17453923Y-11769437D01*
X17453923Y-11769437D02*
X17453923Y-11731342D01*
X17453923Y-11731342D02*
X17463447Y-11683723D01*
X17463447Y-11683723D02*
X17472971Y-11655152D01*
X17472971Y-11655152D02*
X17482495Y-11636104D01*
X17482495Y-11636104D02*
X17501542Y-11607533D01*
X17501542Y-11607533D02*
X17511066Y-11598009D01*
X17587256Y-11693247D02*
X17587256Y-11826580D01*
X17587256Y-11712295D02*
X17596780Y-11702771D01*
X17596780Y-11702771D02*
X17615828Y-11693247D01*
X17615828Y-11693247D02*
X17644399Y-11693247D01*
X17644399Y-11693247D02*
X17663447Y-11702771D01*
X17663447Y-11702771D02*
X17672971Y-11721818D01*
X17672971Y-11721818D02*
X17672971Y-11826580D01*
X17796780Y-11826580D02*
X17777733Y-11817057D01*
X17777733Y-11817057D02*
X17768209Y-11807533D01*
X17768209Y-11807533D02*
X17758685Y-11788485D01*
X17758685Y-11788485D02*
X17758685Y-11731342D01*
X17758685Y-11731342D02*
X17768209Y-11712295D01*
X17768209Y-11712295D02*
X17777733Y-11702771D01*
X17777733Y-11702771D02*
X17796780Y-11693247D01*
X17796780Y-11693247D02*
X17825352Y-11693247D01*
X17825352Y-11693247D02*
X17844399Y-11702771D01*
X17844399Y-11702771D02*
X17853923Y-11712295D01*
X17853923Y-11712295D02*
X17863447Y-11731342D01*
X17863447Y-11731342D02*
X17863447Y-11788485D01*
X17863447Y-11788485D02*
X17853923Y-11807533D01*
X17853923Y-11807533D02*
X17844399Y-11817057D01*
X17844399Y-11817057D02*
X17825352Y-11826580D01*
X17825352Y-11826580D02*
X17796780Y-11826580D01*
X17920590Y-11693247D02*
X17996780Y-11693247D01*
X17949161Y-11626580D02*
X17949161Y-11798009D01*
X17949161Y-11798009D02*
X17958685Y-11817057D01*
X17958685Y-11817057D02*
X17977733Y-11826580D01*
X17977733Y-11826580D02*
X17996780Y-11826580D01*
X18215828Y-11693247D02*
X18215828Y-11893247D01*
X18215828Y-11702771D02*
X18234876Y-11693247D01*
X18234876Y-11693247D02*
X18272971Y-11693247D01*
X18272971Y-11693247D02*
X18292018Y-11702771D01*
X18292018Y-11702771D02*
X18301542Y-11712295D01*
X18301542Y-11712295D02*
X18311066Y-11731342D01*
X18311066Y-11731342D02*
X18311066Y-11788485D01*
X18311066Y-11788485D02*
X18301542Y-11807533D01*
X18301542Y-11807533D02*
X18292018Y-11817057D01*
X18292018Y-11817057D02*
X18272971Y-11826580D01*
X18272971Y-11826580D02*
X18234876Y-11826580D01*
X18234876Y-11826580D02*
X18215828Y-11817057D01*
X18425352Y-11826580D02*
X18406304Y-11817057D01*
X18406304Y-11817057D02*
X18396780Y-11798009D01*
X18396780Y-11798009D02*
X18396780Y-11626580D01*
X18587257Y-11826580D02*
X18587257Y-11721818D01*
X18587257Y-11721818D02*
X18577733Y-11702771D01*
X18577733Y-11702771D02*
X18558685Y-11693247D01*
X18558685Y-11693247D02*
X18520590Y-11693247D01*
X18520590Y-11693247D02*
X18501542Y-11702771D01*
X18587257Y-11817057D02*
X18568209Y-11826580D01*
X18568209Y-11826580D02*
X18520590Y-11826580D01*
X18520590Y-11826580D02*
X18501542Y-11817057D01*
X18501542Y-11817057D02*
X18492018Y-11798009D01*
X18492018Y-11798009D02*
X18492018Y-11778961D01*
X18492018Y-11778961D02*
X18501542Y-11759914D01*
X18501542Y-11759914D02*
X18520590Y-11750390D01*
X18520590Y-11750390D02*
X18568209Y-11750390D01*
X18568209Y-11750390D02*
X18587257Y-11740866D01*
X18653923Y-11693247D02*
X18730114Y-11693247D01*
X18682495Y-11626580D02*
X18682495Y-11798009D01*
X18682495Y-11798009D02*
X18692018Y-11817057D01*
X18692018Y-11817057D02*
X18711066Y-11826580D01*
X18711066Y-11826580D02*
X18730114Y-11826580D01*
X18872971Y-11817057D02*
X18853923Y-11826580D01*
X18853923Y-11826580D02*
X18815828Y-11826580D01*
X18815828Y-11826580D02*
X18796780Y-11817057D01*
X18796780Y-11817057D02*
X18787257Y-11798009D01*
X18787257Y-11798009D02*
X18787257Y-11721818D01*
X18787257Y-11721818D02*
X18796780Y-11702771D01*
X18796780Y-11702771D02*
X18815828Y-11693247D01*
X18815828Y-11693247D02*
X18853923Y-11693247D01*
X18853923Y-11693247D02*
X18872971Y-11702771D01*
X18872971Y-11702771D02*
X18882495Y-11721818D01*
X18882495Y-11721818D02*
X18882495Y-11740866D01*
X18882495Y-11740866D02*
X18787257Y-11759914D01*
X19053923Y-11826580D02*
X19053923Y-11626580D01*
X19053923Y-11817057D02*
X19034876Y-11826580D01*
X19034876Y-11826580D02*
X18996780Y-11826580D01*
X18996780Y-11826580D02*
X18977733Y-11817057D01*
X18977733Y-11817057D02*
X18968209Y-11807533D01*
X18968209Y-11807533D02*
X18958685Y-11788485D01*
X18958685Y-11788485D02*
X18958685Y-11731342D01*
X18958685Y-11731342D02*
X18968209Y-11712295D01*
X18968209Y-11712295D02*
X18977733Y-11702771D01*
X18977733Y-11702771D02*
X18996780Y-11693247D01*
X18996780Y-11693247D02*
X19034876Y-11693247D01*
X19034876Y-11693247D02*
X19053923Y-11702771D01*
X19130114Y-11902771D02*
X19139638Y-11893247D01*
X19139638Y-11893247D02*
X19158685Y-11864676D01*
X19158685Y-11864676D02*
X19168209Y-11845628D01*
X19168209Y-11845628D02*
X19177733Y-11817057D01*
X19177733Y-11817057D02*
X19187257Y-11769437D01*
X19187257Y-11769437D02*
X19187257Y-11731342D01*
X19187257Y-11731342D02*
X19177733Y-11683723D01*
X19177733Y-11683723D02*
X19168209Y-11655152D01*
X19168209Y-11655152D02*
X19158685Y-11636104D01*
X19158685Y-11636104D02*
X19139638Y-11607533D01*
X19139638Y-11607533D02*
X19130114Y-11598009D01*
M02*
