%TF.GenerationSoftware,KiCad,Pcbnew,9.0.9-9.0.9~ubuntu24.04.1*%
%TF.CreationDate,2026-07-11T21:40:51+02:00*%
%TF.ProjectId,MicroPicoDriveCartridge,4d696372-6f50-4696-936f-447269766543,1.4.e*%
%TF.SameCoordinates,Original*%
%TF.FileFunction,Soldermask,Bot*%
%TF.FilePolarity,Negative*%
%FSLAX46Y46*%
G04 Gerber Fmt 4.6, Leading zero omitted, Abs format (unit mm)*
G04 Created by KiCad (PCBNEW 9.0.9-9.0.9~ubuntu24.04.1) date 2026-07-11 21:40:51*
%MOMM*%
%LPD*%
G01*
G04 APERTURE LIST*
G04 Aperture macros list*
%AMRoundRect*
0 Rectangle with rounded corners*
0 $1 Rounding radius*
0 $2 $3 $4 $5 $6 $7 $8 $9 X,Y pos of 4 corners*
0 Add a 4 corners polygon primitive as box body*
4,1,4,$2,$3,$4,$5,$6,$7,$8,$9,$2,$3,0*
0 Add four circle primitives for the rounded corners*
1,1,$1+$1,$2,$3*
1,1,$1+$1,$4,$5*
1,1,$1+$1,$6,$7*
1,1,$1+$1,$8,$9*
0 Add four rect primitives between the rounded corners*
20,1,$1+$1,$2,$3,$4,$5,0*
20,1,$1+$1,$4,$5,$6,$7,0*
20,1,$1+$1,$6,$7,$8,$9,0*
20,1,$1+$1,$8,$9,$2,$3,0*%
G04 Aperture macros list end*
%ADD10C,0.150000*%
%ADD11RoundRect,0.500000X-0.500000X-2.250000X0.500000X-2.250000X0.500000X2.250000X-0.500000X2.250000X0*%
%ADD12RoundRect,0.500000X-0.500000X-3.500000X0.500000X-3.500000X0.500000X3.500000X-0.500000X3.500000X0*%
%ADD13R,1.800000X1.800000*%
%ADD14C,1.800000*%
%ADD15R,1.700000X1.700000*%
%ADD16O,1.700000X1.700000*%
%ADD17C,0.900000*%
%ADD18RoundRect,0.102000X-0.350000X0.800000X-0.350000X-0.800000X0.350000X-0.800000X0.350000X0.800000X0*%
%ADD19RoundRect,0.102000X-0.350000X1.200000X-0.350000X-1.200000X0.350000X-1.200000X0.350000X1.200000X0*%
%ADD20RoundRect,0.102000X-0.700000X0.800000X-0.700000X-0.800000X0.700000X-0.800000X0.700000X0.800000X0*%
%ADD21RoundRect,0.102000X-0.700000X1.100000X-0.700000X-1.100000X0.700000X-1.100000X0.700000X1.100000X0*%
%ADD22RoundRect,0.102000X-0.900000X0.700000X-0.900000X-0.700000X0.900000X-0.700000X0.900000X0.700000X0*%
%ADD23RoundRect,0.237500X0.300000X0.237500X-0.300000X0.237500X-0.300000X-0.237500X0.300000X-0.237500X0*%
G04 APERTURE END LIST*
D10*
X130930000Y-63170000D02*
X154850000Y-63170000D01*
X154850000Y-71180000D01*
X130930000Y-71180000D01*
X130930000Y-63170000D01*
G36*
X130930000Y-63170000D02*
G01*
X154850000Y-63170000D01*
X154850000Y-71180000D01*
X130930000Y-71180000D01*
X130930000Y-63170000D01*
G37*
D11*
%TO.C,J1*%
X133820000Y-69220000D03*
X136360000Y-69220000D03*
X138900000Y-69220000D03*
X141440000Y-69220000D03*
X143980000Y-69220000D03*
X146520000Y-69220000D03*
X149060000Y-69220000D03*
D12*
X151600000Y-67970000D03*
%TD*%
D13*
%TO.C,D2*%
X153450000Y-94500000D03*
D14*
X153450000Y-97040000D03*
%TD*%
D15*
%TO.C,SCR1*%
X133065000Y-86000000D03*
D16*
X135605000Y-86000000D03*
X138145000Y-86000000D03*
X140685000Y-86000000D03*
%TD*%
D13*
%TO.C,D1*%
X153400000Y-87100000D03*
D14*
X153400000Y-89640000D03*
%TD*%
D17*
%TO.C,SD1*%
X142800000Y-104600000D03*
X134800000Y-104600000D03*
D18*
X135600000Y-93704710D03*
D19*
X136700000Y-93304710D03*
X137800000Y-93304710D03*
X138900000Y-93304710D03*
X140000000Y-93304710D03*
X141100000Y-93304710D03*
X142200000Y-93304710D03*
D18*
X143300000Y-93704710D03*
X144400000Y-93704710D03*
D20*
X145700000Y-94700000D03*
D21*
X145700000Y-104200000D03*
X130000000Y-104200000D03*
D22*
X130900000Y-94600000D03*
%TD*%
D23*
%TO.C,C1*%
X138862500Y-90200000D03*
X137137500Y-90200000D03*
%TD*%
M02*
