%TF.GenerationSoftware,KiCad,Pcbnew,9.0.9-9.0.9~ubuntu24.04.1*%
%TF.CreationDate,2026-07-11T21:40:51+02:00*%
%TF.ProjectId,MicroPicoDriveCartridge,4d696372-6f50-4696-936f-447269766543,1.4.e*%
%TF.SameCoordinates,Original*%
%TF.FileFunction,Legend,Top*%
%TF.FilePolarity,Positive*%
%FSLAX46Y46*%
G04 Gerber Fmt 4.6, Leading zero omitted, Abs format (unit mm)*
G04 Created by KiCad (PCBNEW 9.0.9-9.0.9~ubuntu24.04.1) date 2026-07-11 21:40:51*
%MOMM*%
%LPD*%
G01*
G04 APERTURE LIST*
G04 Aperture macros list*
%AMRoundRect*
0 Rectangle with rounded corners*
0 $1 Rounding radius*
0 $2 $3 $4 $5 $6 $7 $8 $9 X,Y pos of 4 corners*
0 Add a 4 corners polygon primitive as box body*
4,1,4,$2,$3,$4,$5,$6,$7,$8,$9,$2,$3,0*
0 Add four circle primitives for the rounded corners*
1,1,$1+$1,$2,$3*
1,1,$1+$1,$4,$5*
1,1,$1+$1,$6,$7*
1,1,$1+$1,$8,$9*
0 Add four rect primitives between the rounded corners*
20,1,$1+$1,$2,$3,$4,$5,0*
20,1,$1+$1,$4,$5,$6,$7,0*
20,1,$1+$1,$6,$7,$8,$9,0*
20,1,$1+$1,$8,$9,$2,$3,0*%
G04 Aperture macros list end*
%ADD10C,0.150000*%
%ADD11C,0.300000*%
%ADD12C,0.120000*%
%ADD13RoundRect,0.200000X0.275000X-0.200000X0.275000X0.200000X-0.275000X0.200000X-0.275000X-0.200000X0*%
%ADD14RoundRect,0.500000X-0.500000X-2.900000X0.500000X-2.900000X0.500000X2.900000X-0.500000X2.900000X0*%
%ADD15RoundRect,0.500000X-0.500000X-3.500000X0.500000X-3.500000X0.500000X3.500000X-0.500000X3.500000X0*%
%ADD16RoundRect,0.500000X-0.500000X-2.250000X0.500000X-2.250000X0.500000X2.250000X-0.500000X2.250000X0*%
%ADD17RoundRect,0.250000X-0.525000X-0.400000X0.525000X-0.400000X0.525000X0.400000X-0.525000X0.400000X0*%
%ADD18R,1.800000X1.800000*%
%ADD19C,1.800000*%
%ADD20R,1.700000X1.700000*%
%ADD21O,1.700000X1.700000*%
%ADD22RoundRect,0.200000X-0.200000X-0.275000X0.200000X-0.275000X0.200000X0.275000X-0.200000X0.275000X0*%
%ADD23C,0.900000*%
G04 APERTURE END LIST*
D10*
X156144819Y-98183458D02*
X157144819Y-97945363D01*
X157144819Y-97945363D02*
X156430533Y-97754887D01*
X156430533Y-97754887D02*
X157144819Y-97564411D01*
X157144819Y-97564411D02*
X156144819Y-97326316D01*
X157144819Y-96373935D02*
X156668628Y-96707268D01*
X157144819Y-96945363D02*
X156144819Y-96945363D01*
X156144819Y-96945363D02*
X156144819Y-96564411D01*
X156144819Y-96564411D02*
X156192438Y-96469173D01*
X156192438Y-96469173D02*
X156240057Y-96421554D01*
X156240057Y-96421554D02*
X156335295Y-96373935D01*
X156335295Y-96373935D02*
X156478152Y-96373935D01*
X156478152Y-96373935D02*
X156573390Y-96421554D01*
X156573390Y-96421554D02*
X156621009Y-96469173D01*
X156621009Y-96469173D02*
X156668628Y-96564411D01*
X156668628Y-96564411D02*
X156668628Y-96945363D01*
X157144819Y-95945363D02*
X156144819Y-95945363D01*
X156144819Y-95612030D02*
X156144819Y-95040602D01*
X157144819Y-95326316D02*
X156144819Y-95326316D01*
X156621009Y-94707268D02*
X156621009Y-94373935D01*
X157144819Y-94231078D02*
X157144819Y-94707268D01*
X157144819Y-94707268D02*
X156144819Y-94707268D01*
X156144819Y-94707268D02*
X156144819Y-94231078D01*
X157419819Y-89316792D02*
X156943628Y-89650125D01*
X157419819Y-89888220D02*
X156419819Y-89888220D01*
X156419819Y-89888220D02*
X156419819Y-89507268D01*
X156419819Y-89507268D02*
X156467438Y-89412030D01*
X156467438Y-89412030D02*
X156515057Y-89364411D01*
X156515057Y-89364411D02*
X156610295Y-89316792D01*
X156610295Y-89316792D02*
X156753152Y-89316792D01*
X156753152Y-89316792D02*
X156848390Y-89364411D01*
X156848390Y-89364411D02*
X156896009Y-89412030D01*
X156896009Y-89412030D02*
X156943628Y-89507268D01*
X156943628Y-89507268D02*
X156943628Y-89888220D01*
X156896009Y-88888220D02*
X156896009Y-88554887D01*
X157419819Y-88412030D02*
X157419819Y-88888220D01*
X157419819Y-88888220D02*
X156419819Y-88888220D01*
X156419819Y-88888220D02*
X156419819Y-88412030D01*
X157134104Y-88031077D02*
X157134104Y-87554887D01*
X157419819Y-88126315D02*
X156419819Y-87792982D01*
X156419819Y-87792982D02*
X157419819Y-87459649D01*
X157419819Y-87126315D02*
X156419819Y-87126315D01*
X156419819Y-87126315D02*
X156419819Y-86888220D01*
X156419819Y-86888220D02*
X156467438Y-86745363D01*
X156467438Y-86745363D02*
X156562676Y-86650125D01*
X156562676Y-86650125D02*
X156657914Y-86602506D01*
X156657914Y-86602506D02*
X156848390Y-86554887D01*
X156848390Y-86554887D02*
X156991247Y-86554887D01*
X156991247Y-86554887D02*
X157181723Y-86602506D01*
X157181723Y-86602506D02*
X157276961Y-86650125D01*
X157276961Y-86650125D02*
X157372200Y-86745363D01*
X157372200Y-86745363D02*
X157419819Y-86888220D01*
X157419819Y-86888220D02*
X157419819Y-87126315D01*
D11*
X131143796Y-108786066D02*
X132477129Y-110119400D01*
X131810463Y-108786066D02*
X131143796Y-108786066D01*
X131143796Y-108786066D02*
X131143796Y-109452733D01*
X143300939Y-109970828D02*
X143872368Y-109399400D01*
X143872368Y-109399400D02*
X143300939Y-108827971D01*
X143872368Y-109399400D02*
X142015225Y-109399400D01*
X142015225Y-109399400D02*
X141729510Y-109256542D01*
X141729510Y-109256542D02*
X141586653Y-108970828D01*
X141586653Y-108970828D02*
X141729510Y-108685114D01*
X141729510Y-108685114D02*
X142015225Y-108542257D01*
X152943796Y-108156542D02*
X153515225Y-108156542D01*
X153515225Y-108156542D02*
X154086653Y-108442257D01*
X154086653Y-108442257D02*
X154372368Y-109013685D01*
X154372368Y-109013685D02*
X154372368Y-109585114D01*
X154372368Y-109585114D02*
X154086653Y-110156542D01*
X154086653Y-110156542D02*
X153515225Y-110442257D01*
X153515225Y-110442257D02*
X152943796Y-110442257D01*
X152943796Y-110442257D02*
X152372368Y-110156542D01*
X152372368Y-110156542D02*
X152086653Y-109585114D01*
X152086653Y-109585114D02*
X152086653Y-109013685D01*
X152086653Y-109013685D02*
X152372368Y-108442257D01*
X152372368Y-108442257D02*
X152943796Y-108156542D01*
X152943796Y-109013685D02*
X153229510Y-108870828D01*
X153229510Y-108870828D02*
X153515225Y-109013685D01*
X153515225Y-109013685D02*
X153658082Y-109299400D01*
X153658082Y-109299400D02*
X153515225Y-109585114D01*
X153515225Y-109585114D02*
X153229510Y-109727971D01*
X153229510Y-109727971D02*
X152943796Y-109585114D01*
X152943796Y-109585114D02*
X152800939Y-109299400D01*
X152800939Y-109299400D02*
X152943796Y-109013685D01*
D10*
X148483333Y-93629819D02*
X148150000Y-93153628D01*
X147911905Y-93629819D02*
X147911905Y-92629819D01*
X147911905Y-92629819D02*
X148292857Y-92629819D01*
X148292857Y-92629819D02*
X148388095Y-92677438D01*
X148388095Y-92677438D02*
X148435714Y-92725057D01*
X148435714Y-92725057D02*
X148483333Y-92820295D01*
X148483333Y-92820295D02*
X148483333Y-92963152D01*
X148483333Y-92963152D02*
X148435714Y-93058390D01*
X148435714Y-93058390D02*
X148388095Y-93106009D01*
X148388095Y-93106009D02*
X148292857Y-93153628D01*
X148292857Y-93153628D02*
X147911905Y-93153628D01*
X149435714Y-93629819D02*
X148864286Y-93629819D01*
X149150000Y-93629819D02*
X149150000Y-92629819D01*
X149150000Y-92629819D02*
X149054762Y-92772676D01*
X149054762Y-92772676D02*
X148959524Y-92867914D01*
X148959524Y-92867914D02*
X148864286Y-92915533D01*
X131816666Y-61504819D02*
X131816666Y-62219104D01*
X131816666Y-62219104D02*
X131769047Y-62361961D01*
X131769047Y-62361961D02*
X131673809Y-62457200D01*
X131673809Y-62457200D02*
X131530952Y-62504819D01*
X131530952Y-62504819D02*
X131435714Y-62504819D01*
X132816666Y-62504819D02*
X132245238Y-62504819D01*
X132530952Y-62504819D02*
X132530952Y-61504819D01*
X132530952Y-61504819D02*
X132435714Y-61647676D01*
X132435714Y-61647676D02*
X132340476Y-61742914D01*
X132340476Y-61742914D02*
X132245238Y-61790533D01*
X131116667Y-103007200D02*
X131259524Y-103054819D01*
X131259524Y-103054819D02*
X131497619Y-103054819D01*
X131497619Y-103054819D02*
X131592857Y-103007200D01*
X131592857Y-103007200D02*
X131640476Y-102959580D01*
X131640476Y-102959580D02*
X131688095Y-102864342D01*
X131688095Y-102864342D02*
X131688095Y-102769104D01*
X131688095Y-102769104D02*
X131640476Y-102673866D01*
X131640476Y-102673866D02*
X131592857Y-102626247D01*
X131592857Y-102626247D02*
X131497619Y-102578628D01*
X131497619Y-102578628D02*
X131307143Y-102531009D01*
X131307143Y-102531009D02*
X131211905Y-102483390D01*
X131211905Y-102483390D02*
X131164286Y-102435771D01*
X131164286Y-102435771D02*
X131116667Y-102340533D01*
X131116667Y-102340533D02*
X131116667Y-102245295D01*
X131116667Y-102245295D02*
X131164286Y-102150057D01*
X131164286Y-102150057D02*
X131211905Y-102102438D01*
X131211905Y-102102438D02*
X131307143Y-102054819D01*
X131307143Y-102054819D02*
X131545238Y-102054819D01*
X131545238Y-102054819D02*
X131688095Y-102102438D01*
X132021429Y-102054819D02*
X132259524Y-103054819D01*
X132259524Y-103054819D02*
X132450000Y-102340533D01*
X132450000Y-102340533D02*
X132640476Y-103054819D01*
X132640476Y-103054819D02*
X132878572Y-102054819D01*
X133783333Y-103054819D02*
X133211905Y-103054819D01*
X133497619Y-103054819D02*
X133497619Y-102054819D01*
X133497619Y-102054819D02*
X133402381Y-102197676D01*
X133402381Y-102197676D02*
X133307143Y-102292914D01*
X133307143Y-102292914D02*
X133211905Y-102340533D01*
X152836905Y-99479819D02*
X152836905Y-98479819D01*
X152836905Y-98479819D02*
X153075000Y-98479819D01*
X153075000Y-98479819D02*
X153217857Y-98527438D01*
X153217857Y-98527438D02*
X153313095Y-98622676D01*
X153313095Y-98622676D02*
X153360714Y-98717914D01*
X153360714Y-98717914D02*
X153408333Y-98908390D01*
X153408333Y-98908390D02*
X153408333Y-99051247D01*
X153408333Y-99051247D02*
X153360714Y-99241723D01*
X153360714Y-99241723D02*
X153313095Y-99336961D01*
X153313095Y-99336961D02*
X153217857Y-99432200D01*
X153217857Y-99432200D02*
X153075000Y-99479819D01*
X153075000Y-99479819D02*
X152836905Y-99479819D01*
X153789286Y-98575057D02*
X153836905Y-98527438D01*
X153836905Y-98527438D02*
X153932143Y-98479819D01*
X153932143Y-98479819D02*
X154170238Y-98479819D01*
X154170238Y-98479819D02*
X154265476Y-98527438D01*
X154265476Y-98527438D02*
X154313095Y-98575057D01*
X154313095Y-98575057D02*
X154360714Y-98670295D01*
X154360714Y-98670295D02*
X154360714Y-98765533D01*
X154360714Y-98765533D02*
X154313095Y-98908390D01*
X154313095Y-98908390D02*
X153741667Y-99479819D01*
X153741667Y-99479819D02*
X154360714Y-99479819D01*
X141391667Y-102807200D02*
X141534524Y-102854819D01*
X141534524Y-102854819D02*
X141772619Y-102854819D01*
X141772619Y-102854819D02*
X141867857Y-102807200D01*
X141867857Y-102807200D02*
X141915476Y-102759580D01*
X141915476Y-102759580D02*
X141963095Y-102664342D01*
X141963095Y-102664342D02*
X141963095Y-102569104D01*
X141963095Y-102569104D02*
X141915476Y-102473866D01*
X141915476Y-102473866D02*
X141867857Y-102426247D01*
X141867857Y-102426247D02*
X141772619Y-102378628D01*
X141772619Y-102378628D02*
X141582143Y-102331009D01*
X141582143Y-102331009D02*
X141486905Y-102283390D01*
X141486905Y-102283390D02*
X141439286Y-102235771D01*
X141439286Y-102235771D02*
X141391667Y-102140533D01*
X141391667Y-102140533D02*
X141391667Y-102045295D01*
X141391667Y-102045295D02*
X141439286Y-101950057D01*
X141439286Y-101950057D02*
X141486905Y-101902438D01*
X141486905Y-101902438D02*
X141582143Y-101854819D01*
X141582143Y-101854819D02*
X141820238Y-101854819D01*
X141820238Y-101854819D02*
X141963095Y-101902438D01*
X142296429Y-101854819D02*
X142534524Y-102854819D01*
X142534524Y-102854819D02*
X142725000Y-102140533D01*
X142725000Y-102140533D02*
X142915476Y-102854819D01*
X142915476Y-102854819D02*
X143153572Y-101854819D01*
X143486905Y-101950057D02*
X143534524Y-101902438D01*
X143534524Y-101902438D02*
X143629762Y-101854819D01*
X143629762Y-101854819D02*
X143867857Y-101854819D01*
X143867857Y-101854819D02*
X143963095Y-101902438D01*
X143963095Y-101902438D02*
X144010714Y-101950057D01*
X144010714Y-101950057D02*
X144058333Y-102045295D01*
X144058333Y-102045295D02*
X144058333Y-102140533D01*
X144058333Y-102140533D02*
X144010714Y-102283390D01*
X144010714Y-102283390D02*
X143439286Y-102854819D01*
X143439286Y-102854819D02*
X144058333Y-102854819D01*
X135138495Y-89207200D02*
X135281352Y-89254819D01*
X135281352Y-89254819D02*
X135519447Y-89254819D01*
X135519447Y-89254819D02*
X135614685Y-89207200D01*
X135614685Y-89207200D02*
X135662304Y-89159580D01*
X135662304Y-89159580D02*
X135709923Y-89064342D01*
X135709923Y-89064342D02*
X135709923Y-88969104D01*
X135709923Y-88969104D02*
X135662304Y-88873866D01*
X135662304Y-88873866D02*
X135614685Y-88826247D01*
X135614685Y-88826247D02*
X135519447Y-88778628D01*
X135519447Y-88778628D02*
X135328971Y-88731009D01*
X135328971Y-88731009D02*
X135233733Y-88683390D01*
X135233733Y-88683390D02*
X135186114Y-88635771D01*
X135186114Y-88635771D02*
X135138495Y-88540533D01*
X135138495Y-88540533D02*
X135138495Y-88445295D01*
X135138495Y-88445295D02*
X135186114Y-88350057D01*
X135186114Y-88350057D02*
X135233733Y-88302438D01*
X135233733Y-88302438D02*
X135328971Y-88254819D01*
X135328971Y-88254819D02*
X135567066Y-88254819D01*
X135567066Y-88254819D02*
X135709923Y-88302438D01*
X136709923Y-89159580D02*
X136662304Y-89207200D01*
X136662304Y-89207200D02*
X136519447Y-89254819D01*
X136519447Y-89254819D02*
X136424209Y-89254819D01*
X136424209Y-89254819D02*
X136281352Y-89207200D01*
X136281352Y-89207200D02*
X136186114Y-89111961D01*
X136186114Y-89111961D02*
X136138495Y-89016723D01*
X136138495Y-89016723D02*
X136090876Y-88826247D01*
X136090876Y-88826247D02*
X136090876Y-88683390D01*
X136090876Y-88683390D02*
X136138495Y-88492914D01*
X136138495Y-88492914D02*
X136186114Y-88397676D01*
X136186114Y-88397676D02*
X136281352Y-88302438D01*
X136281352Y-88302438D02*
X136424209Y-88254819D01*
X136424209Y-88254819D02*
X136519447Y-88254819D01*
X136519447Y-88254819D02*
X136662304Y-88302438D01*
X136662304Y-88302438D02*
X136709923Y-88350057D01*
X137709923Y-89254819D02*
X137376590Y-88778628D01*
X137138495Y-89254819D02*
X137138495Y-88254819D01*
X137138495Y-88254819D02*
X137519447Y-88254819D01*
X137519447Y-88254819D02*
X137614685Y-88302438D01*
X137614685Y-88302438D02*
X137662304Y-88350057D01*
X137662304Y-88350057D02*
X137709923Y-88445295D01*
X137709923Y-88445295D02*
X137709923Y-88588152D01*
X137709923Y-88588152D02*
X137662304Y-88683390D01*
X137662304Y-88683390D02*
X137614685Y-88731009D01*
X137614685Y-88731009D02*
X137519447Y-88778628D01*
X137519447Y-88778628D02*
X137138495Y-88778628D01*
X138662304Y-89254819D02*
X138090876Y-89254819D01*
X138376590Y-89254819D02*
X138376590Y-88254819D01*
X138376590Y-88254819D02*
X138281352Y-88397676D01*
X138281352Y-88397676D02*
X138186114Y-88492914D01*
X138186114Y-88492914D02*
X138090876Y-88540533D01*
X148733333Y-96979819D02*
X148400000Y-96503628D01*
X148161905Y-96979819D02*
X148161905Y-95979819D01*
X148161905Y-95979819D02*
X148542857Y-95979819D01*
X148542857Y-95979819D02*
X148638095Y-96027438D01*
X148638095Y-96027438D02*
X148685714Y-96075057D01*
X148685714Y-96075057D02*
X148733333Y-96170295D01*
X148733333Y-96170295D02*
X148733333Y-96313152D01*
X148733333Y-96313152D02*
X148685714Y-96408390D01*
X148685714Y-96408390D02*
X148638095Y-96456009D01*
X148638095Y-96456009D02*
X148542857Y-96503628D01*
X148542857Y-96503628D02*
X148161905Y-96503628D01*
X149114286Y-96075057D02*
X149161905Y-96027438D01*
X149161905Y-96027438D02*
X149257143Y-95979819D01*
X149257143Y-95979819D02*
X149495238Y-95979819D01*
X149495238Y-95979819D02*
X149590476Y-96027438D01*
X149590476Y-96027438D02*
X149638095Y-96075057D01*
X149638095Y-96075057D02*
X149685714Y-96170295D01*
X149685714Y-96170295D02*
X149685714Y-96265533D01*
X149685714Y-96265533D02*
X149638095Y-96408390D01*
X149638095Y-96408390D02*
X149066667Y-96979819D01*
X149066667Y-96979819D02*
X149685714Y-96979819D01*
X151466667Y-102807200D02*
X151609524Y-102854819D01*
X151609524Y-102854819D02*
X151847619Y-102854819D01*
X151847619Y-102854819D02*
X151942857Y-102807200D01*
X151942857Y-102807200D02*
X151990476Y-102759580D01*
X151990476Y-102759580D02*
X152038095Y-102664342D01*
X152038095Y-102664342D02*
X152038095Y-102569104D01*
X152038095Y-102569104D02*
X151990476Y-102473866D01*
X151990476Y-102473866D02*
X151942857Y-102426247D01*
X151942857Y-102426247D02*
X151847619Y-102378628D01*
X151847619Y-102378628D02*
X151657143Y-102331009D01*
X151657143Y-102331009D02*
X151561905Y-102283390D01*
X151561905Y-102283390D02*
X151514286Y-102235771D01*
X151514286Y-102235771D02*
X151466667Y-102140533D01*
X151466667Y-102140533D02*
X151466667Y-102045295D01*
X151466667Y-102045295D02*
X151514286Y-101950057D01*
X151514286Y-101950057D02*
X151561905Y-101902438D01*
X151561905Y-101902438D02*
X151657143Y-101854819D01*
X151657143Y-101854819D02*
X151895238Y-101854819D01*
X151895238Y-101854819D02*
X152038095Y-101902438D01*
X152371429Y-101854819D02*
X152609524Y-102854819D01*
X152609524Y-102854819D02*
X152800000Y-102140533D01*
X152800000Y-102140533D02*
X152990476Y-102854819D01*
X152990476Y-102854819D02*
X153228572Y-101854819D01*
X153514286Y-101854819D02*
X154133333Y-101854819D01*
X154133333Y-101854819D02*
X153800000Y-102235771D01*
X153800000Y-102235771D02*
X153942857Y-102235771D01*
X153942857Y-102235771D02*
X154038095Y-102283390D01*
X154038095Y-102283390D02*
X154085714Y-102331009D01*
X154085714Y-102331009D02*
X154133333Y-102426247D01*
X154133333Y-102426247D02*
X154133333Y-102664342D01*
X154133333Y-102664342D02*
X154085714Y-102759580D01*
X154085714Y-102759580D02*
X154038095Y-102807200D01*
X154038095Y-102807200D02*
X153942857Y-102854819D01*
X153942857Y-102854819D02*
X153657143Y-102854819D01*
X153657143Y-102854819D02*
X153561905Y-102807200D01*
X153561905Y-102807200D02*
X153514286Y-102759580D01*
X152586905Y-85454819D02*
X152586905Y-84454819D01*
X152586905Y-84454819D02*
X152825000Y-84454819D01*
X152825000Y-84454819D02*
X152967857Y-84502438D01*
X152967857Y-84502438D02*
X153063095Y-84597676D01*
X153063095Y-84597676D02*
X153110714Y-84692914D01*
X153110714Y-84692914D02*
X153158333Y-84883390D01*
X153158333Y-84883390D02*
X153158333Y-85026247D01*
X153158333Y-85026247D02*
X153110714Y-85216723D01*
X153110714Y-85216723D02*
X153063095Y-85311961D01*
X153063095Y-85311961D02*
X152967857Y-85407200D01*
X152967857Y-85407200D02*
X152825000Y-85454819D01*
X152825000Y-85454819D02*
X152586905Y-85454819D01*
X154110714Y-85454819D02*
X153539286Y-85454819D01*
X153825000Y-85454819D02*
X153825000Y-84454819D01*
X153825000Y-84454819D02*
X153729762Y-84597676D01*
X153729762Y-84597676D02*
X153634524Y-84692914D01*
X153634524Y-84692914D02*
X153539286Y-84740533D01*
D12*
%TO.C,R1*%
X149777500Y-92562258D02*
X149777500Y-92087742D01*
X150822500Y-92562258D02*
X150822500Y-92087742D01*
%TO.C,SW1*%
X129220000Y-101270000D02*
X135680000Y-101270000D01*
X129220000Y-101300000D02*
X129220000Y-101270000D01*
X129220000Y-103200000D02*
X129220000Y-105800000D01*
X129220000Y-107730000D02*
X129220000Y-107700000D01*
X129220000Y-107730000D02*
X135680000Y-107730000D01*
X135680000Y-101270000D02*
X135680000Y-101300000D01*
X135680000Y-103200000D02*
X135680000Y-105800000D01*
X135680000Y-107730000D02*
X135680000Y-107700000D01*
%TO.C,D2*%
X152370000Y-94210000D02*
X152214000Y-94210000D01*
X154686000Y-94210000D02*
X154530000Y-94210000D01*
X152370000Y-96810961D02*
G75*
G02*
X152370000Y-94729039I1080000J1040961D01*
G01*
X152370000Y-97441437D02*
G75*
G02*
X152214484Y-94210000I1080000J1671437D01*
G01*
X154530000Y-94729039D02*
G75*
G02*
X154530000Y-96810961I-1080000J-1040961D01*
G01*
X154685516Y-94210000D02*
G75*
G02*
X154530000Y-97441437I-1235516J-1560000D01*
G01*
%TO.C,SW2*%
X139495000Y-101270000D02*
X145955000Y-101270000D01*
X139495000Y-101300000D02*
X139495000Y-101270000D01*
X139495000Y-103200000D02*
X139495000Y-105800000D01*
X139495000Y-107730000D02*
X139495000Y-107700000D01*
X139495000Y-107730000D02*
X145955000Y-107730000D01*
X145955000Y-101270000D02*
X145955000Y-101300000D01*
X145955000Y-103200000D02*
X145955000Y-105800000D01*
X145955000Y-107730000D02*
X145955000Y-107700000D01*
%TO.C,SCR1*%
X131735000Y-87330000D02*
X131735000Y-86000000D01*
X133065000Y-87330000D02*
X131735000Y-87330000D01*
X134335000Y-84670000D02*
X142015000Y-84670000D01*
X134335000Y-87330000D02*
X134335000Y-84670000D01*
X134335000Y-87330000D02*
X142015000Y-87330000D01*
X142015000Y-87330000D02*
X142015000Y-84670000D01*
%TO.C,R2*%
X149187742Y-97377500D02*
X149662258Y-97377500D01*
X149187742Y-98422500D02*
X149662258Y-98422500D01*
%TO.C,SW3*%
X149795000Y-101245000D02*
X156255000Y-101245000D01*
X149795000Y-101275000D02*
X149795000Y-101245000D01*
X149795000Y-103175000D02*
X149795000Y-105775000D01*
X149795000Y-107705000D02*
X149795000Y-107675000D01*
X149795000Y-107705000D02*
X156255000Y-107705000D01*
X156255000Y-101245000D02*
X156255000Y-101275000D01*
X156255000Y-103175000D02*
X156255000Y-105775000D01*
X156255000Y-107705000D02*
X156255000Y-107675000D01*
%TO.C,D1*%
X152320000Y-86810000D02*
X152164000Y-86810000D01*
X154636000Y-86810000D02*
X154480000Y-86810000D01*
X152320000Y-89410961D02*
G75*
G02*
X152320000Y-87329039I1080000J1040961D01*
G01*
X152320000Y-90041437D02*
G75*
G02*
X152164484Y-86810000I1080000J1671437D01*
G01*
X154480000Y-87329039D02*
G75*
G02*
X154480000Y-89410961I-1080000J-1040961D01*
G01*
X154635516Y-86810000D02*
G75*
G02*
X154480000Y-90041437I-1235516J-1560000D01*
G01*
%TD*%
%LPC*%
D10*
X130930000Y-63170000D02*
X154850000Y-63170000D01*
X154850000Y-71180000D01*
X130930000Y-71180000D01*
X130930000Y-63170000D01*
G36*
X130930000Y-63170000D02*
G01*
X154850000Y-63170000D01*
X154850000Y-71180000D01*
X130930000Y-71180000D01*
X130930000Y-63170000D01*
G37*
D13*
%TO.C,R1*%
X150300000Y-93150000D03*
X150300000Y-91500000D03*
%TD*%
D14*
%TO.C,J1*%
X133820000Y-68571731D03*
D15*
X136360000Y-67970000D03*
D16*
X138900000Y-69220000D03*
X141440000Y-69220000D03*
X143980000Y-69220000D03*
X146520000Y-69220000D03*
X149060000Y-69220000D03*
X151600000Y-69220000D03*
%TD*%
D17*
%TO.C,SW1*%
X128470000Y-102250000D03*
X136430000Y-102250000D03*
X128470000Y-106750000D03*
X136430000Y-106750000D03*
%TD*%
D18*
%TO.C,D2*%
X153450000Y-94500000D03*
D19*
X153450000Y-97040000D03*
%TD*%
D17*
%TO.C,SW2*%
X138745000Y-102250000D03*
X146705000Y-102250000D03*
X138745000Y-106750000D03*
X146705000Y-106750000D03*
%TD*%
D20*
%TO.C,SCR1*%
X133065000Y-86000000D03*
D21*
X135605000Y-86000000D03*
X138145000Y-86000000D03*
X140685000Y-86000000D03*
%TD*%
D22*
%TO.C,R2*%
X148600000Y-97900000D03*
X150250000Y-97900000D03*
%TD*%
D17*
%TO.C,SW3*%
X149045000Y-102225000D03*
X157005000Y-102225000D03*
X149045000Y-106725000D03*
X157005000Y-106725000D03*
%TD*%
D18*
%TO.C,D1*%
X153400000Y-87100000D03*
D19*
X153400000Y-89640000D03*
%TD*%
D23*
%TO.C,SD1*%
X142800000Y-104600000D03*
X134800000Y-104600000D03*
%TD*%
%LPD*%
M02*
