G04 #@! TF.GenerationSoftware,KiCad,Pcbnew,7.0.9-7.0.9~ubuntu22.04.1*
G04 #@! TF.CreationDate,2023-11-26T22:36:36+01:00*
G04 #@! TF.ProjectId,MicroPicoDrive,4d696372-6f50-4696-936f-44726976652e,1.4.1*
G04 #@! TF.SameCoordinates,Original*
G04 #@! TF.FileFunction,Legend,Top*
G04 #@! TF.FilePolarity,Positive*
%FSLAX46Y46*%
G04 Gerber Fmt 4.6, Leading zero omitted, Abs format (unit mm)*
G04 Created by KiCad (PCBNEW 7.0.9-7.0.9~ubuntu22.04.1) date 2023-11-26 22:36:36*
%MOMM*%
%LPD*%
G01*
G04 APERTURE LIST*
G04 Aperture macros list*
%AMRoundRect*
0 Rectangle with rounded corners*
0 $1 Rounding radius*
0 $2 $3 $4 $5 $6 $7 $8 $9 X,Y pos of 4 corners*
0 Add a 4 corners polygon primitive as box body*
4,1,4,$2,$3,$4,$5,$6,$7,$8,$9,$2,$3,0*
0 Add four circle primitives for the rounded corners*
1,1,$1+$1,$2,$3*
1,1,$1+$1,$4,$5*
1,1,$1+$1,$6,$7*
1,1,$1+$1,$8,$9*
0 Add four rect primitives between the rounded corners*
20,1,$1+$1,$2,$3,$4,$5,0*
20,1,$1+$1,$4,$5,$6,$7,0*
20,1,$1+$1,$6,$7,$8,$9,0*
20,1,$1+$1,$8,$9,$2,$3,0*%
G04 Aperture macros list end*
%ADD10C,0.100000*%
%ADD11C,0.150000*%
%ADD12C,0.300000*%
%ADD13C,0.254000*%
%ADD14C,0.120000*%
%ADD15C,0.200000*%
%ADD16RoundRect,0.225000X0.225000X0.250000X-0.225000X0.250000X-0.225000X-0.250000X0.225000X-0.250000X0*%
%ADD17C,3.500000*%
%ADD18RoundRect,0.225000X-0.225000X-0.250000X0.225000X-0.250000X0.225000X0.250000X-0.225000X0.250000X0*%
%ADD19R,1.200000X0.600000*%
%ADD20R,1.700000X1.700000*%
%ADD21O,1.700000X1.700000*%
%ADD22RoundRect,0.225000X-0.250000X0.225000X-0.250000X-0.225000X0.250000X-0.225000X0.250000X0.225000X0*%
%ADD23R,1.905000X2.000000*%
%ADD24O,1.905000X2.000000*%
%ADD25R,1.475000X0.450000*%
%ADD26RoundRect,0.200000X-0.200000X-0.275000X0.200000X-0.275000X0.200000X0.275000X-0.200000X0.275000X0*%
%ADD27O,1.800000X1.800000*%
%ADD28O,1.500000X1.500000*%
G04 APERTURE END LIST*
D10*
X158170000Y-80320000D02*
X172570000Y-80325000D01*
D11*
X173970588Y-96042438D02*
X173875350Y-95994819D01*
X173875350Y-95994819D02*
X173732493Y-95994819D01*
X173732493Y-95994819D02*
X173589636Y-96042438D01*
X173589636Y-96042438D02*
X173494398Y-96137676D01*
X173494398Y-96137676D02*
X173446779Y-96232914D01*
X173446779Y-96232914D02*
X173399160Y-96423390D01*
X173399160Y-96423390D02*
X173399160Y-96566247D01*
X173399160Y-96566247D02*
X173446779Y-96756723D01*
X173446779Y-96756723D02*
X173494398Y-96851961D01*
X173494398Y-96851961D02*
X173589636Y-96947200D01*
X173589636Y-96947200D02*
X173732493Y-96994819D01*
X173732493Y-96994819D02*
X173827731Y-96994819D01*
X173827731Y-96994819D02*
X173970588Y-96947200D01*
X173970588Y-96947200D02*
X174018207Y-96899580D01*
X174018207Y-96899580D02*
X174018207Y-96566247D01*
X174018207Y-96566247D02*
X173827731Y-96566247D01*
X174446779Y-96994819D02*
X174446779Y-95994819D01*
X174446779Y-95994819D02*
X175018207Y-96994819D01*
X175018207Y-96994819D02*
X175018207Y-95994819D01*
X175494398Y-96994819D02*
X175494398Y-95994819D01*
X175494398Y-95994819D02*
X175732493Y-95994819D01*
X175732493Y-95994819D02*
X175875350Y-96042438D01*
X175875350Y-96042438D02*
X175970588Y-96137676D01*
X175970588Y-96137676D02*
X176018207Y-96232914D01*
X176018207Y-96232914D02*
X176065826Y-96423390D01*
X176065826Y-96423390D02*
X176065826Y-96566247D01*
X176065826Y-96566247D02*
X176018207Y-96756723D01*
X176018207Y-96756723D02*
X175970588Y-96851961D01*
X175970588Y-96851961D02*
X175875350Y-96947200D01*
X175875350Y-96947200D02*
X175732493Y-96994819D01*
X175732493Y-96994819D02*
X175494398Y-96994819D01*
X173970588Y-100867438D02*
X173875350Y-100819819D01*
X173875350Y-100819819D02*
X173732493Y-100819819D01*
X173732493Y-100819819D02*
X173589636Y-100867438D01*
X173589636Y-100867438D02*
X173494398Y-100962676D01*
X173494398Y-100962676D02*
X173446779Y-101057914D01*
X173446779Y-101057914D02*
X173399160Y-101248390D01*
X173399160Y-101248390D02*
X173399160Y-101391247D01*
X173399160Y-101391247D02*
X173446779Y-101581723D01*
X173446779Y-101581723D02*
X173494398Y-101676961D01*
X173494398Y-101676961D02*
X173589636Y-101772200D01*
X173589636Y-101772200D02*
X173732493Y-101819819D01*
X173732493Y-101819819D02*
X173827731Y-101819819D01*
X173827731Y-101819819D02*
X173970588Y-101772200D01*
X173970588Y-101772200D02*
X174018207Y-101724580D01*
X174018207Y-101724580D02*
X174018207Y-101391247D01*
X174018207Y-101391247D02*
X173827731Y-101391247D01*
X174446779Y-101819819D02*
X174446779Y-100819819D01*
X174446779Y-100819819D02*
X175018207Y-101819819D01*
X175018207Y-101819819D02*
X175018207Y-100819819D01*
X175494398Y-101819819D02*
X175494398Y-100819819D01*
X175494398Y-100819819D02*
X175732493Y-100819819D01*
X175732493Y-100819819D02*
X175875350Y-100867438D01*
X175875350Y-100867438D02*
X175970588Y-100962676D01*
X175970588Y-100962676D02*
X176018207Y-101057914D01*
X176018207Y-101057914D02*
X176065826Y-101248390D01*
X176065826Y-101248390D02*
X176065826Y-101391247D01*
X176065826Y-101391247D02*
X176018207Y-101581723D01*
X176018207Y-101581723D02*
X175970588Y-101676961D01*
X175970588Y-101676961D02*
X175875350Y-101772200D01*
X175875350Y-101772200D02*
X175732493Y-101819819D01*
X175732493Y-101819819D02*
X175494398Y-101819819D01*
X149949636Y-82119819D02*
X149949636Y-82357914D01*
X149711541Y-82262676D02*
X149949636Y-82357914D01*
X149949636Y-82357914D02*
X150187731Y-82262676D01*
X149806779Y-82548390D02*
X149949636Y-82357914D01*
X149949636Y-82357914D02*
X150092493Y-82548390D01*
X170943041Y-76625984D02*
X170842026Y-76659656D01*
X170842026Y-76659656D02*
X170741010Y-76760671D01*
X170741010Y-76760671D02*
X170673667Y-76895358D01*
X170673667Y-76895358D02*
X170673667Y-77030046D01*
X170673667Y-77030046D02*
X170707339Y-77131061D01*
X170707339Y-77131061D02*
X170808354Y-77299420D01*
X170808354Y-77299420D02*
X170909369Y-77400435D01*
X170909369Y-77400435D02*
X171077728Y-77501450D01*
X171077728Y-77501450D02*
X171178743Y-77535122D01*
X171178743Y-77535122D02*
X171313430Y-77535122D01*
X171313430Y-77535122D02*
X171448117Y-77467778D01*
X171448117Y-77467778D02*
X171515461Y-77400435D01*
X171515461Y-77400435D02*
X171582804Y-77265748D01*
X171582804Y-77265748D02*
X171582804Y-77198404D01*
X171582804Y-77198404D02*
X171347102Y-76962702D01*
X171347102Y-76962702D02*
X171212415Y-77097389D01*
X171953193Y-76962702D02*
X171246087Y-76255595D01*
X171246087Y-76255595D02*
X172357254Y-76558641D01*
X172357254Y-76558641D02*
X171650148Y-75851534D01*
X172693972Y-76221924D02*
X171986865Y-75514817D01*
X171986865Y-75514817D02*
X172155224Y-75346458D01*
X172155224Y-75346458D02*
X172289911Y-75279114D01*
X172289911Y-75279114D02*
X172424598Y-75279114D01*
X172424598Y-75279114D02*
X172525613Y-75312786D01*
X172525613Y-75312786D02*
X172693972Y-75413801D01*
X172693972Y-75413801D02*
X172794987Y-75514817D01*
X172794987Y-75514817D02*
X172896002Y-75683175D01*
X172896002Y-75683175D02*
X172929674Y-75784191D01*
X172929674Y-75784191D02*
X172929674Y-75918878D01*
X172929674Y-75918878D02*
X172862331Y-76053565D01*
X172862331Y-76053565D02*
X172693972Y-76221924D01*
X168176713Y-77400435D02*
X168715461Y-76861687D01*
X168715461Y-77400435D02*
X168176713Y-76861687D01*
X169355224Y-76760672D02*
X169489911Y-76625985D01*
X169489911Y-76625985D02*
X169523582Y-76524969D01*
X169523582Y-76524969D02*
X169523582Y-76457626D01*
X169523582Y-76457626D02*
X169489911Y-76289267D01*
X169489911Y-76289267D02*
X169388895Y-76120908D01*
X169388895Y-76120908D02*
X169119521Y-75851534D01*
X169119521Y-75851534D02*
X169018506Y-75817863D01*
X169018506Y-75817863D02*
X168951163Y-75817863D01*
X168951163Y-75817863D02*
X168850147Y-75851534D01*
X168850147Y-75851534D02*
X168715460Y-75986221D01*
X168715460Y-75986221D02*
X168681789Y-76087237D01*
X168681789Y-76087237D02*
X168681789Y-76154580D01*
X168681789Y-76154580D02*
X168715460Y-76255595D01*
X168715460Y-76255595D02*
X168883819Y-76423954D01*
X168883819Y-76423954D02*
X168984834Y-76457626D01*
X168984834Y-76457626D02*
X169052178Y-76457626D01*
X169052178Y-76457626D02*
X169153193Y-76423954D01*
X169153193Y-76423954D02*
X169287880Y-76289267D01*
X169287880Y-76289267D02*
X169321552Y-76188252D01*
X169321552Y-76188252D02*
X169321552Y-76120908D01*
X169321552Y-76120908D02*
X169287880Y-76019893D01*
X169456239Y-75716847D02*
X170096002Y-76019893D01*
X170096002Y-76019893D02*
X169792956Y-75380130D01*
X169679160Y-100829819D02*
X169995826Y-101829819D01*
X169995826Y-101829819D02*
X170312493Y-100829819D01*
X170764874Y-101829819D02*
X170674398Y-101782200D01*
X170674398Y-101782200D02*
X170629160Y-101734580D01*
X170629160Y-101734580D02*
X170583922Y-101639342D01*
X170583922Y-101639342D02*
X170583922Y-101353628D01*
X170583922Y-101353628D02*
X170629160Y-101258390D01*
X170629160Y-101258390D02*
X170674398Y-101210771D01*
X170674398Y-101210771D02*
X170764874Y-101163152D01*
X170764874Y-101163152D02*
X170900589Y-101163152D01*
X170900589Y-101163152D02*
X170991065Y-101210771D01*
X170991065Y-101210771D02*
X171036303Y-101258390D01*
X171036303Y-101258390D02*
X171081541Y-101353628D01*
X171081541Y-101353628D02*
X171081541Y-101639342D01*
X171081541Y-101639342D02*
X171036303Y-101734580D01*
X171036303Y-101734580D02*
X170991065Y-101782200D01*
X170991065Y-101782200D02*
X170900589Y-101829819D01*
X170900589Y-101829819D02*
X170764874Y-101829819D01*
X171895827Y-101163152D02*
X171895827Y-101829819D01*
X171488684Y-101163152D02*
X171488684Y-101686961D01*
X171488684Y-101686961D02*
X171533922Y-101782200D01*
X171533922Y-101782200D02*
X171624398Y-101829819D01*
X171624398Y-101829819D02*
X171760113Y-101829819D01*
X171760113Y-101829819D02*
X171850589Y-101782200D01*
X171850589Y-101782200D02*
X171895827Y-101734580D01*
X172212494Y-101163152D02*
X172574398Y-101163152D01*
X172348208Y-100829819D02*
X172348208Y-101686961D01*
X172348208Y-101686961D02*
X172393446Y-101782200D01*
X172393446Y-101782200D02*
X172483922Y-101829819D01*
X172483922Y-101829819D02*
X172574398Y-101829819D01*
X120264286Y-114225057D02*
X120311905Y-114177438D01*
X120311905Y-114177438D02*
X120407143Y-114129819D01*
X120407143Y-114129819D02*
X120645238Y-114129819D01*
X120645238Y-114129819D02*
X120740476Y-114177438D01*
X120740476Y-114177438D02*
X120788095Y-114225057D01*
X120788095Y-114225057D02*
X120835714Y-114320295D01*
X120835714Y-114320295D02*
X120835714Y-114415533D01*
X120835714Y-114415533D02*
X120788095Y-114558390D01*
X120788095Y-114558390D02*
X120216667Y-115129819D01*
X120216667Y-115129819D02*
X120835714Y-115129819D01*
X121454762Y-114129819D02*
X121550000Y-114129819D01*
X121550000Y-114129819D02*
X121645238Y-114177438D01*
X121645238Y-114177438D02*
X121692857Y-114225057D01*
X121692857Y-114225057D02*
X121740476Y-114320295D01*
X121740476Y-114320295D02*
X121788095Y-114510771D01*
X121788095Y-114510771D02*
X121788095Y-114748866D01*
X121788095Y-114748866D02*
X121740476Y-114939342D01*
X121740476Y-114939342D02*
X121692857Y-115034580D01*
X121692857Y-115034580D02*
X121645238Y-115082200D01*
X121645238Y-115082200D02*
X121550000Y-115129819D01*
X121550000Y-115129819D02*
X121454762Y-115129819D01*
X121454762Y-115129819D02*
X121359524Y-115082200D01*
X121359524Y-115082200D02*
X121311905Y-115034580D01*
X121311905Y-115034580D02*
X121264286Y-114939342D01*
X121264286Y-114939342D02*
X121216667Y-114748866D01*
X121216667Y-114748866D02*
X121216667Y-114510771D01*
X121216667Y-114510771D02*
X121264286Y-114320295D01*
X121264286Y-114320295D02*
X121311905Y-114225057D01*
X121311905Y-114225057D02*
X121359524Y-114177438D01*
X121359524Y-114177438D02*
X121454762Y-114129819D01*
X122169048Y-114225057D02*
X122216667Y-114177438D01*
X122216667Y-114177438D02*
X122311905Y-114129819D01*
X122311905Y-114129819D02*
X122550000Y-114129819D01*
X122550000Y-114129819D02*
X122645238Y-114177438D01*
X122645238Y-114177438D02*
X122692857Y-114225057D01*
X122692857Y-114225057D02*
X122740476Y-114320295D01*
X122740476Y-114320295D02*
X122740476Y-114415533D01*
X122740476Y-114415533D02*
X122692857Y-114558390D01*
X122692857Y-114558390D02*
X122121429Y-115129819D01*
X122121429Y-115129819D02*
X122740476Y-115129819D01*
X123073810Y-114129819D02*
X123692857Y-114129819D01*
X123692857Y-114129819D02*
X123359524Y-114510771D01*
X123359524Y-114510771D02*
X123502381Y-114510771D01*
X123502381Y-114510771D02*
X123597619Y-114558390D01*
X123597619Y-114558390D02*
X123645238Y-114606009D01*
X123645238Y-114606009D02*
X123692857Y-114701247D01*
X123692857Y-114701247D02*
X123692857Y-114939342D01*
X123692857Y-114939342D02*
X123645238Y-115034580D01*
X123645238Y-115034580D02*
X123597619Y-115082200D01*
X123597619Y-115082200D02*
X123502381Y-115129819D01*
X123502381Y-115129819D02*
X123216667Y-115129819D01*
X123216667Y-115129819D02*
X123121429Y-115082200D01*
X123121429Y-115082200D02*
X123073810Y-115034580D01*
X124740477Y-114129819D02*
X125073810Y-115129819D01*
X125073810Y-115129819D02*
X125407143Y-114129819D01*
X126121429Y-115082200D02*
X126026191Y-115129819D01*
X126026191Y-115129819D02*
X125835715Y-115129819D01*
X125835715Y-115129819D02*
X125740477Y-115082200D01*
X125740477Y-115082200D02*
X125692858Y-114986961D01*
X125692858Y-114986961D02*
X125692858Y-114606009D01*
X125692858Y-114606009D02*
X125740477Y-114510771D01*
X125740477Y-114510771D02*
X125835715Y-114463152D01*
X125835715Y-114463152D02*
X126026191Y-114463152D01*
X126026191Y-114463152D02*
X126121429Y-114510771D01*
X126121429Y-114510771D02*
X126169048Y-114606009D01*
X126169048Y-114606009D02*
X126169048Y-114701247D01*
X126169048Y-114701247D02*
X125692858Y-114796485D01*
X126597620Y-115129819D02*
X126597620Y-114463152D01*
X126597620Y-114653628D02*
X126645239Y-114558390D01*
X126645239Y-114558390D02*
X126692858Y-114510771D01*
X126692858Y-114510771D02*
X126788096Y-114463152D01*
X126788096Y-114463152D02*
X126883334Y-114463152D01*
X127216668Y-115034580D02*
X127264287Y-115082200D01*
X127264287Y-115082200D02*
X127216668Y-115129819D01*
X127216668Y-115129819D02*
X127169049Y-115082200D01*
X127169049Y-115082200D02*
X127216668Y-115034580D01*
X127216668Y-115034580D02*
X127216668Y-115129819D01*
X128978572Y-115129819D02*
X128407144Y-115129819D01*
X128692858Y-115129819D02*
X128692858Y-114129819D01*
X128692858Y-114129819D02*
X128597620Y-114272676D01*
X128597620Y-114272676D02*
X128502382Y-114367914D01*
X128502382Y-114367914D02*
X128407144Y-114415533D01*
X129407144Y-115034580D02*
X129454763Y-115082200D01*
X129454763Y-115082200D02*
X129407144Y-115129819D01*
X129407144Y-115129819D02*
X129359525Y-115082200D01*
X129359525Y-115082200D02*
X129407144Y-115034580D01*
X129407144Y-115034580D02*
X129407144Y-115129819D01*
X130311905Y-114463152D02*
X130311905Y-115129819D01*
X130073810Y-114082200D02*
X129835715Y-114796485D01*
X129835715Y-114796485D02*
X130454762Y-114796485D01*
X130835715Y-115034580D02*
X130883334Y-115082200D01*
X130883334Y-115082200D02*
X130835715Y-115129819D01*
X130835715Y-115129819D02*
X130788096Y-115082200D01*
X130788096Y-115082200D02*
X130835715Y-115034580D01*
X130835715Y-115034580D02*
X130835715Y-115129819D01*
X131835714Y-115129819D02*
X131264286Y-115129819D01*
X131550000Y-115129819D02*
X131550000Y-114129819D01*
X131550000Y-114129819D02*
X131454762Y-114272676D01*
X131454762Y-114272676D02*
X131359524Y-114367914D01*
X131359524Y-114367914D02*
X131264286Y-114415533D01*
X118914285Y-121429819D02*
X118914285Y-120429819D01*
X118914285Y-120429819D02*
X119247618Y-121144104D01*
X119247618Y-121144104D02*
X119580951Y-120429819D01*
X119580951Y-120429819D02*
X119580951Y-121429819D01*
X120199999Y-121429819D02*
X120104761Y-121382200D01*
X120104761Y-121382200D02*
X120057142Y-121334580D01*
X120057142Y-121334580D02*
X120009523Y-121239342D01*
X120009523Y-121239342D02*
X120009523Y-120953628D01*
X120009523Y-120953628D02*
X120057142Y-120858390D01*
X120057142Y-120858390D02*
X120104761Y-120810771D01*
X120104761Y-120810771D02*
X120199999Y-120763152D01*
X120199999Y-120763152D02*
X120342856Y-120763152D01*
X120342856Y-120763152D02*
X120438094Y-120810771D01*
X120438094Y-120810771D02*
X120485713Y-120858390D01*
X120485713Y-120858390D02*
X120533332Y-120953628D01*
X120533332Y-120953628D02*
X120533332Y-121239342D01*
X120533332Y-121239342D02*
X120485713Y-121334580D01*
X120485713Y-121334580D02*
X120438094Y-121382200D01*
X120438094Y-121382200D02*
X120342856Y-121429819D01*
X120342856Y-121429819D02*
X120199999Y-121429819D01*
X121390475Y-121429819D02*
X121390475Y-120429819D01*
X121390475Y-121382200D02*
X121295237Y-121429819D01*
X121295237Y-121429819D02*
X121104761Y-121429819D01*
X121104761Y-121429819D02*
X121009523Y-121382200D01*
X121009523Y-121382200D02*
X120961904Y-121334580D01*
X120961904Y-121334580D02*
X120914285Y-121239342D01*
X120914285Y-121239342D02*
X120914285Y-120953628D01*
X120914285Y-120953628D02*
X120961904Y-120858390D01*
X120961904Y-120858390D02*
X121009523Y-120810771D01*
X121009523Y-120810771D02*
X121104761Y-120763152D01*
X121104761Y-120763152D02*
X121295237Y-120763152D01*
X121295237Y-120763152D02*
X121390475Y-120810771D01*
X121866666Y-121429819D02*
X121866666Y-120763152D01*
X121866666Y-120429819D02*
X121819047Y-120477438D01*
X121819047Y-120477438D02*
X121866666Y-120525057D01*
X121866666Y-120525057D02*
X121914285Y-120477438D01*
X121914285Y-120477438D02*
X121866666Y-120429819D01*
X121866666Y-120429819D02*
X121866666Y-120525057D01*
X122199999Y-120763152D02*
X122580951Y-120763152D01*
X122342856Y-121429819D02*
X122342856Y-120572676D01*
X122342856Y-120572676D02*
X122390475Y-120477438D01*
X122390475Y-120477438D02*
X122485713Y-120429819D01*
X122485713Y-120429819D02*
X122580951Y-120429819D01*
X122914285Y-121429819D02*
X122914285Y-120763152D01*
X122914285Y-120429819D02*
X122866666Y-120477438D01*
X122866666Y-120477438D02*
X122914285Y-120525057D01*
X122914285Y-120525057D02*
X122961904Y-120477438D01*
X122961904Y-120477438D02*
X122914285Y-120429819D01*
X122914285Y-120429819D02*
X122914285Y-120525057D01*
X123771427Y-121382200D02*
X123676189Y-121429819D01*
X123676189Y-121429819D02*
X123485713Y-121429819D01*
X123485713Y-121429819D02*
X123390475Y-121382200D01*
X123390475Y-121382200D02*
X123342856Y-121286961D01*
X123342856Y-121286961D02*
X123342856Y-120906009D01*
X123342856Y-120906009D02*
X123390475Y-120810771D01*
X123390475Y-120810771D02*
X123485713Y-120763152D01*
X123485713Y-120763152D02*
X123676189Y-120763152D01*
X123676189Y-120763152D02*
X123771427Y-120810771D01*
X123771427Y-120810771D02*
X123819046Y-120906009D01*
X123819046Y-120906009D02*
X123819046Y-121001247D01*
X123819046Y-121001247D02*
X123342856Y-121096485D01*
X124676189Y-121429819D02*
X124676189Y-120429819D01*
X124676189Y-121382200D02*
X124580951Y-121429819D01*
X124580951Y-121429819D02*
X124390475Y-121429819D01*
X124390475Y-121429819D02*
X124295237Y-121382200D01*
X124295237Y-121382200D02*
X124247618Y-121334580D01*
X124247618Y-121334580D02*
X124199999Y-121239342D01*
X124199999Y-121239342D02*
X124199999Y-120953628D01*
X124199999Y-120953628D02*
X124247618Y-120858390D01*
X124247618Y-120858390D02*
X124295237Y-120810771D01*
X124295237Y-120810771D02*
X124390475Y-120763152D01*
X124390475Y-120763152D02*
X124580951Y-120763152D01*
X124580951Y-120763152D02*
X124676189Y-120810771D01*
X126247618Y-120906009D02*
X126390475Y-120953628D01*
X126390475Y-120953628D02*
X126438094Y-121001247D01*
X126438094Y-121001247D02*
X126485713Y-121096485D01*
X126485713Y-121096485D02*
X126485713Y-121239342D01*
X126485713Y-121239342D02*
X126438094Y-121334580D01*
X126438094Y-121334580D02*
X126390475Y-121382200D01*
X126390475Y-121382200D02*
X126295237Y-121429819D01*
X126295237Y-121429819D02*
X125914285Y-121429819D01*
X125914285Y-121429819D02*
X125914285Y-120429819D01*
X125914285Y-120429819D02*
X126247618Y-120429819D01*
X126247618Y-120429819D02*
X126342856Y-120477438D01*
X126342856Y-120477438D02*
X126390475Y-120525057D01*
X126390475Y-120525057D02*
X126438094Y-120620295D01*
X126438094Y-120620295D02*
X126438094Y-120715533D01*
X126438094Y-120715533D02*
X126390475Y-120810771D01*
X126390475Y-120810771D02*
X126342856Y-120858390D01*
X126342856Y-120858390D02*
X126247618Y-120906009D01*
X126247618Y-120906009D02*
X125914285Y-120906009D01*
X126819047Y-120763152D02*
X127057142Y-121429819D01*
X127295237Y-120763152D02*
X127057142Y-121429819D01*
X127057142Y-121429819D02*
X126961904Y-121667914D01*
X126961904Y-121667914D02*
X126914285Y-121715533D01*
X126914285Y-121715533D02*
X126819047Y-121763152D01*
X128438095Y-121429819D02*
X128438095Y-120429819D01*
X128438095Y-120429819D02*
X128819047Y-120429819D01*
X128819047Y-120429819D02*
X128914285Y-120477438D01*
X128914285Y-120477438D02*
X128961904Y-120525057D01*
X128961904Y-120525057D02*
X129009523Y-120620295D01*
X129009523Y-120620295D02*
X129009523Y-120763152D01*
X129009523Y-120763152D02*
X128961904Y-120858390D01*
X128961904Y-120858390D02*
X128914285Y-120906009D01*
X128914285Y-120906009D02*
X128819047Y-120953628D01*
X128819047Y-120953628D02*
X128438095Y-120953628D01*
X129580952Y-121429819D02*
X129485714Y-121382200D01*
X129485714Y-121382200D02*
X129438095Y-121334580D01*
X129438095Y-121334580D02*
X129390476Y-121239342D01*
X129390476Y-121239342D02*
X129390476Y-120953628D01*
X129390476Y-120953628D02*
X129438095Y-120858390D01*
X129438095Y-120858390D02*
X129485714Y-120810771D01*
X129485714Y-120810771D02*
X129580952Y-120763152D01*
X129580952Y-120763152D02*
X129723809Y-120763152D01*
X129723809Y-120763152D02*
X129819047Y-120810771D01*
X129819047Y-120810771D02*
X129866666Y-120858390D01*
X129866666Y-120858390D02*
X129914285Y-120953628D01*
X129914285Y-120953628D02*
X129914285Y-121239342D01*
X129914285Y-121239342D02*
X129866666Y-121334580D01*
X129866666Y-121334580D02*
X129819047Y-121382200D01*
X129819047Y-121382200D02*
X129723809Y-121429819D01*
X129723809Y-121429819D02*
X129580952Y-121429819D01*
X130342857Y-120763152D02*
X130342857Y-121763152D01*
X130342857Y-120810771D02*
X130438095Y-120763152D01*
X130438095Y-120763152D02*
X130628571Y-120763152D01*
X130628571Y-120763152D02*
X130723809Y-120810771D01*
X130723809Y-120810771D02*
X130771428Y-120858390D01*
X130771428Y-120858390D02*
X130819047Y-120953628D01*
X130819047Y-120953628D02*
X130819047Y-121239342D01*
X130819047Y-121239342D02*
X130771428Y-121334580D01*
X130771428Y-121334580D02*
X130723809Y-121382200D01*
X130723809Y-121382200D02*
X130628571Y-121429819D01*
X130628571Y-121429819D02*
X130438095Y-121429819D01*
X130438095Y-121429819D02*
X130342857Y-121382200D01*
X131390476Y-121429819D02*
X131295238Y-121382200D01*
X131295238Y-121382200D02*
X131247619Y-121334580D01*
X131247619Y-121334580D02*
X131200000Y-121239342D01*
X131200000Y-121239342D02*
X131200000Y-120953628D01*
X131200000Y-120953628D02*
X131247619Y-120858390D01*
X131247619Y-120858390D02*
X131295238Y-120810771D01*
X131295238Y-120810771D02*
X131390476Y-120763152D01*
X131390476Y-120763152D02*
X131533333Y-120763152D01*
X131533333Y-120763152D02*
X131628571Y-120810771D01*
X131628571Y-120810771D02*
X131676190Y-120858390D01*
X131676190Y-120858390D02*
X131723809Y-120953628D01*
X131723809Y-120953628D02*
X131723809Y-121239342D01*
X131723809Y-121239342D02*
X131676190Y-121334580D01*
X131676190Y-121334580D02*
X131628571Y-121382200D01*
X131628571Y-121382200D02*
X131533333Y-121429819D01*
X131533333Y-121429819D02*
X131390476Y-121429819D01*
X132152381Y-120763152D02*
X132152381Y-121763152D01*
X132152381Y-120810771D02*
X132247619Y-120763152D01*
X132247619Y-120763152D02*
X132438095Y-120763152D01*
X132438095Y-120763152D02*
X132533333Y-120810771D01*
X132533333Y-120810771D02*
X132580952Y-120858390D01*
X132580952Y-120858390D02*
X132628571Y-120953628D01*
X132628571Y-120953628D02*
X132628571Y-121239342D01*
X132628571Y-121239342D02*
X132580952Y-121334580D01*
X132580952Y-121334580D02*
X132533333Y-121382200D01*
X132533333Y-121382200D02*
X132438095Y-121429819D01*
X132438095Y-121429819D02*
X132247619Y-121429819D01*
X132247619Y-121429819D02*
X132152381Y-121382200D01*
X133200000Y-121429819D02*
X133104762Y-121382200D01*
X133104762Y-121382200D02*
X133057143Y-121334580D01*
X133057143Y-121334580D02*
X133009524Y-121239342D01*
X133009524Y-121239342D02*
X133009524Y-120953628D01*
X133009524Y-120953628D02*
X133057143Y-120858390D01*
X133057143Y-120858390D02*
X133104762Y-120810771D01*
X133104762Y-120810771D02*
X133200000Y-120763152D01*
X133200000Y-120763152D02*
X133342857Y-120763152D01*
X133342857Y-120763152D02*
X133438095Y-120810771D01*
X133438095Y-120810771D02*
X133485714Y-120858390D01*
X133485714Y-120858390D02*
X133533333Y-120953628D01*
X133533333Y-120953628D02*
X133533333Y-121239342D01*
X133533333Y-121239342D02*
X133485714Y-121334580D01*
X133485714Y-121334580D02*
X133438095Y-121382200D01*
X133438095Y-121382200D02*
X133342857Y-121429819D01*
X133342857Y-121429819D02*
X133200000Y-121429819D01*
X174689819Y-81738220D02*
X173689819Y-81738220D01*
X174166009Y-81738220D02*
X174166009Y-81166792D01*
X174689819Y-81166792D02*
X173689819Y-81166792D01*
X174166009Y-80357268D02*
X174213628Y-80214411D01*
X174213628Y-80214411D02*
X174261247Y-80166792D01*
X174261247Y-80166792D02*
X174356485Y-80119173D01*
X174356485Y-80119173D02*
X174499342Y-80119173D01*
X174499342Y-80119173D02*
X174594580Y-80166792D01*
X174594580Y-80166792D02*
X174642200Y-80214411D01*
X174642200Y-80214411D02*
X174689819Y-80309649D01*
X174689819Y-80309649D02*
X174689819Y-80690601D01*
X174689819Y-80690601D02*
X173689819Y-80690601D01*
X173689819Y-80690601D02*
X173689819Y-80357268D01*
X173689819Y-80357268D02*
X173737438Y-80262030D01*
X173737438Y-80262030D02*
X173785057Y-80214411D01*
X173785057Y-80214411D02*
X173880295Y-80166792D01*
X173880295Y-80166792D02*
X173975533Y-80166792D01*
X173975533Y-80166792D02*
X174070771Y-80214411D01*
X174070771Y-80214411D02*
X174118390Y-80262030D01*
X174118390Y-80262030D02*
X174166009Y-80357268D01*
X174166009Y-80357268D02*
X174166009Y-80690601D01*
X174594580Y-79119173D02*
X174642200Y-79166792D01*
X174642200Y-79166792D02*
X174689819Y-79309649D01*
X174689819Y-79309649D02*
X174689819Y-79404887D01*
X174689819Y-79404887D02*
X174642200Y-79547744D01*
X174642200Y-79547744D02*
X174546961Y-79642982D01*
X174546961Y-79642982D02*
X174451723Y-79690601D01*
X174451723Y-79690601D02*
X174261247Y-79738220D01*
X174261247Y-79738220D02*
X174118390Y-79738220D01*
X174118390Y-79738220D02*
X173927914Y-79690601D01*
X173927914Y-79690601D02*
X173832676Y-79642982D01*
X173832676Y-79642982D02*
X173737438Y-79547744D01*
X173737438Y-79547744D02*
X173689819Y-79404887D01*
X173689819Y-79404887D02*
X173689819Y-79309649D01*
X173689819Y-79309649D02*
X173737438Y-79166792D01*
X173737438Y-79166792D02*
X173785057Y-79119173D01*
X174023152Y-78690601D02*
X174689819Y-78690601D01*
X174118390Y-78690601D02*
X174070771Y-78642982D01*
X174070771Y-78642982D02*
X174023152Y-78547744D01*
X174023152Y-78547744D02*
X174023152Y-78404887D01*
X174023152Y-78404887D02*
X174070771Y-78309649D01*
X174070771Y-78309649D02*
X174166009Y-78262030D01*
X174166009Y-78262030D02*
X174689819Y-78262030D01*
X177103922Y-100769819D02*
X177437255Y-101769819D01*
X177437255Y-101769819D02*
X177770588Y-100769819D01*
X178103922Y-101769819D02*
X178103922Y-101103152D01*
X178103922Y-100769819D02*
X178056303Y-100817438D01*
X178056303Y-100817438D02*
X178103922Y-100865057D01*
X178103922Y-100865057D02*
X178151541Y-100817438D01*
X178151541Y-100817438D02*
X178103922Y-100769819D01*
X178103922Y-100769819D02*
X178103922Y-100865057D01*
X178580112Y-101103152D02*
X178580112Y-101769819D01*
X178580112Y-101198390D02*
X178627731Y-101150771D01*
X178627731Y-101150771D02*
X178722969Y-101103152D01*
X178722969Y-101103152D02*
X178865826Y-101103152D01*
X178865826Y-101103152D02*
X178961064Y-101150771D01*
X178961064Y-101150771D02*
X179008683Y-101246009D01*
X179008683Y-101246009D02*
X179008683Y-101769819D01*
X120032142Y-119031009D02*
X120174999Y-119078628D01*
X120174999Y-119078628D02*
X120222618Y-119126247D01*
X120222618Y-119126247D02*
X120270237Y-119221485D01*
X120270237Y-119221485D02*
X120270237Y-119364342D01*
X120270237Y-119364342D02*
X120222618Y-119459580D01*
X120222618Y-119459580D02*
X120174999Y-119507200D01*
X120174999Y-119507200D02*
X120079761Y-119554819D01*
X120079761Y-119554819D02*
X119698809Y-119554819D01*
X119698809Y-119554819D02*
X119698809Y-118554819D01*
X119698809Y-118554819D02*
X120032142Y-118554819D01*
X120032142Y-118554819D02*
X120127380Y-118602438D01*
X120127380Y-118602438D02*
X120174999Y-118650057D01*
X120174999Y-118650057D02*
X120222618Y-118745295D01*
X120222618Y-118745295D02*
X120222618Y-118840533D01*
X120222618Y-118840533D02*
X120174999Y-118935771D01*
X120174999Y-118935771D02*
X120127380Y-118983390D01*
X120127380Y-118983390D02*
X120032142Y-119031009D01*
X120032142Y-119031009D02*
X119698809Y-119031009D01*
X120603571Y-118888152D02*
X120841666Y-119554819D01*
X121079761Y-118888152D02*
X120841666Y-119554819D01*
X120841666Y-119554819D02*
X120746428Y-119792914D01*
X120746428Y-119792914D02*
X120698809Y-119840533D01*
X120698809Y-119840533D02*
X120603571Y-119888152D01*
X122222619Y-119031009D02*
X122555952Y-119031009D01*
X122698809Y-119554819D02*
X122222619Y-119554819D01*
X122222619Y-119554819D02*
X122222619Y-118554819D01*
X122222619Y-118554819D02*
X122698809Y-118554819D01*
X123270238Y-119554819D02*
X123175000Y-119507200D01*
X123175000Y-119507200D02*
X123127381Y-119411961D01*
X123127381Y-119411961D02*
X123127381Y-118554819D01*
X124413096Y-119554819D02*
X124413096Y-118554819D01*
X124413096Y-118554819D02*
X124651191Y-118554819D01*
X124651191Y-118554819D02*
X124794048Y-118602438D01*
X124794048Y-118602438D02*
X124889286Y-118697676D01*
X124889286Y-118697676D02*
X124936905Y-118792914D01*
X124936905Y-118792914D02*
X124984524Y-118983390D01*
X124984524Y-118983390D02*
X124984524Y-119126247D01*
X124984524Y-119126247D02*
X124936905Y-119316723D01*
X124936905Y-119316723D02*
X124889286Y-119411961D01*
X124889286Y-119411961D02*
X124794048Y-119507200D01*
X124794048Y-119507200D02*
X124651191Y-119554819D01*
X124651191Y-119554819D02*
X124413096Y-119554819D01*
X125413096Y-119554819D02*
X125413096Y-118888152D01*
X125413096Y-119078628D02*
X125460715Y-118983390D01*
X125460715Y-118983390D02*
X125508334Y-118935771D01*
X125508334Y-118935771D02*
X125603572Y-118888152D01*
X125603572Y-118888152D02*
X125698810Y-118888152D01*
X126032144Y-119459580D02*
X126079763Y-119507200D01*
X126079763Y-119507200D02*
X126032144Y-119554819D01*
X126032144Y-119554819D02*
X125984525Y-119507200D01*
X125984525Y-119507200D02*
X126032144Y-119459580D01*
X126032144Y-119459580D02*
X126032144Y-119554819D01*
X127794048Y-118602438D02*
X127698810Y-118554819D01*
X127698810Y-118554819D02*
X127555953Y-118554819D01*
X127555953Y-118554819D02*
X127413096Y-118602438D01*
X127413096Y-118602438D02*
X127317858Y-118697676D01*
X127317858Y-118697676D02*
X127270239Y-118792914D01*
X127270239Y-118792914D02*
X127222620Y-118983390D01*
X127222620Y-118983390D02*
X127222620Y-119126247D01*
X127222620Y-119126247D02*
X127270239Y-119316723D01*
X127270239Y-119316723D02*
X127317858Y-119411961D01*
X127317858Y-119411961D02*
X127413096Y-119507200D01*
X127413096Y-119507200D02*
X127555953Y-119554819D01*
X127555953Y-119554819D02*
X127651191Y-119554819D01*
X127651191Y-119554819D02*
X127794048Y-119507200D01*
X127794048Y-119507200D02*
X127841667Y-119459580D01*
X127841667Y-119459580D02*
X127841667Y-119126247D01*
X127841667Y-119126247D02*
X127651191Y-119126247D01*
X128698810Y-118888152D02*
X128698810Y-119554819D01*
X128270239Y-118888152D02*
X128270239Y-119411961D01*
X128270239Y-119411961D02*
X128317858Y-119507200D01*
X128317858Y-119507200D02*
X128413096Y-119554819D01*
X128413096Y-119554819D02*
X128555953Y-119554819D01*
X128555953Y-119554819D02*
X128651191Y-119507200D01*
X128651191Y-119507200D02*
X128698810Y-119459580D01*
X129127382Y-119507200D02*
X129222620Y-119554819D01*
X129222620Y-119554819D02*
X129413096Y-119554819D01*
X129413096Y-119554819D02*
X129508334Y-119507200D01*
X129508334Y-119507200D02*
X129555953Y-119411961D01*
X129555953Y-119411961D02*
X129555953Y-119364342D01*
X129555953Y-119364342D02*
X129508334Y-119269104D01*
X129508334Y-119269104D02*
X129413096Y-119221485D01*
X129413096Y-119221485D02*
X129270239Y-119221485D01*
X129270239Y-119221485D02*
X129175001Y-119173866D01*
X129175001Y-119173866D02*
X129127382Y-119078628D01*
X129127382Y-119078628D02*
X129127382Y-119031009D01*
X129127382Y-119031009D02*
X129175001Y-118935771D01*
X129175001Y-118935771D02*
X129270239Y-118888152D01*
X129270239Y-118888152D02*
X129413096Y-118888152D01*
X129413096Y-118888152D02*
X129508334Y-118935771D01*
X129984525Y-119554819D02*
X129984525Y-118888152D01*
X129984525Y-118983390D02*
X130032144Y-118935771D01*
X130032144Y-118935771D02*
X130127382Y-118888152D01*
X130127382Y-118888152D02*
X130270239Y-118888152D01*
X130270239Y-118888152D02*
X130365477Y-118935771D01*
X130365477Y-118935771D02*
X130413096Y-119031009D01*
X130413096Y-119031009D02*
X130413096Y-119554819D01*
X130413096Y-119031009D02*
X130460715Y-118935771D01*
X130460715Y-118935771D02*
X130555953Y-118888152D01*
X130555953Y-118888152D02*
X130698810Y-118888152D01*
X130698810Y-118888152D02*
X130794049Y-118935771D01*
X130794049Y-118935771D02*
X130841668Y-119031009D01*
X130841668Y-119031009D02*
X130841668Y-119554819D01*
X131746429Y-119554819D02*
X131746429Y-119031009D01*
X131746429Y-119031009D02*
X131698810Y-118935771D01*
X131698810Y-118935771D02*
X131603572Y-118888152D01*
X131603572Y-118888152D02*
X131413096Y-118888152D01*
X131413096Y-118888152D02*
X131317858Y-118935771D01*
X131746429Y-119507200D02*
X131651191Y-119554819D01*
X131651191Y-119554819D02*
X131413096Y-119554819D01*
X131413096Y-119554819D02*
X131317858Y-119507200D01*
X131317858Y-119507200D02*
X131270239Y-119411961D01*
X131270239Y-119411961D02*
X131270239Y-119316723D01*
X131270239Y-119316723D02*
X131317858Y-119221485D01*
X131317858Y-119221485D02*
X131413096Y-119173866D01*
X131413096Y-119173866D02*
X131651191Y-119173866D01*
X131651191Y-119173866D02*
X131746429Y-119126247D01*
X132222620Y-118888152D02*
X132222620Y-119554819D01*
X132222620Y-118983390D02*
X132270239Y-118935771D01*
X132270239Y-118935771D02*
X132365477Y-118888152D01*
X132365477Y-118888152D02*
X132508334Y-118888152D01*
X132508334Y-118888152D02*
X132603572Y-118935771D01*
X132603572Y-118935771D02*
X132651191Y-119031009D01*
X132651191Y-119031009D02*
X132651191Y-119554819D01*
X170464160Y-95919819D02*
X170780826Y-96919819D01*
X170780826Y-96919819D02*
X171097493Y-95919819D01*
X171549874Y-96919819D02*
X171459398Y-96872200D01*
X171459398Y-96872200D02*
X171414160Y-96824580D01*
X171414160Y-96824580D02*
X171368922Y-96729342D01*
X171368922Y-96729342D02*
X171368922Y-96443628D01*
X171368922Y-96443628D02*
X171414160Y-96348390D01*
X171414160Y-96348390D02*
X171459398Y-96300771D01*
X171459398Y-96300771D02*
X171549874Y-96253152D01*
X171549874Y-96253152D02*
X171685589Y-96253152D01*
X171685589Y-96253152D02*
X171776065Y-96300771D01*
X171776065Y-96300771D02*
X171821303Y-96348390D01*
X171821303Y-96348390D02*
X171866541Y-96443628D01*
X171866541Y-96443628D02*
X171866541Y-96729342D01*
X171866541Y-96729342D02*
X171821303Y-96824580D01*
X171821303Y-96824580D02*
X171776065Y-96872200D01*
X171776065Y-96872200D02*
X171685589Y-96919819D01*
X171685589Y-96919819D02*
X171549874Y-96919819D01*
X177568922Y-95944819D02*
X177902255Y-96944819D01*
X177902255Y-96944819D02*
X178235588Y-95944819D01*
X178568922Y-96944819D02*
X178568922Y-96278152D01*
X178568922Y-95944819D02*
X178521303Y-95992438D01*
X178521303Y-95992438D02*
X178568922Y-96040057D01*
X178568922Y-96040057D02*
X178616541Y-95992438D01*
X178616541Y-95992438D02*
X178568922Y-95944819D01*
X178568922Y-95944819D02*
X178568922Y-96040057D01*
D12*
X120001190Y-111351304D02*
X120001190Y-112684638D01*
X119144047Y-111351304D02*
X119144047Y-112398923D01*
X119144047Y-112398923D02*
X119239285Y-112589400D01*
X119239285Y-112589400D02*
X119429761Y-112684638D01*
X119429761Y-112684638D02*
X119715476Y-112684638D01*
X119715476Y-112684638D02*
X119905952Y-112589400D01*
X119905952Y-112589400D02*
X120001190Y-112494161D01*
X120953571Y-112684638D02*
X120953571Y-110684638D01*
X120953571Y-110684638D02*
X121715476Y-110684638D01*
X121715476Y-110684638D02*
X121905952Y-110779876D01*
X121905952Y-110779876D02*
X122001190Y-110875114D01*
X122001190Y-110875114D02*
X122096428Y-111065590D01*
X122096428Y-111065590D02*
X122096428Y-111351304D01*
X122096428Y-111351304D02*
X122001190Y-111541780D01*
X122001190Y-111541780D02*
X121905952Y-111637019D01*
X121905952Y-111637019D02*
X121715476Y-111732257D01*
X121715476Y-111732257D02*
X120953571Y-111732257D01*
X122953571Y-112684638D02*
X122953571Y-111351304D01*
X122953571Y-110684638D02*
X122858333Y-110779876D01*
X122858333Y-110779876D02*
X122953571Y-110875114D01*
X122953571Y-110875114D02*
X123048809Y-110779876D01*
X123048809Y-110779876D02*
X122953571Y-110684638D01*
X122953571Y-110684638D02*
X122953571Y-110875114D01*
X124763095Y-112589400D02*
X124572619Y-112684638D01*
X124572619Y-112684638D02*
X124191666Y-112684638D01*
X124191666Y-112684638D02*
X124001190Y-112589400D01*
X124001190Y-112589400D02*
X123905952Y-112494161D01*
X123905952Y-112494161D02*
X123810714Y-112303685D01*
X123810714Y-112303685D02*
X123810714Y-111732257D01*
X123810714Y-111732257D02*
X123905952Y-111541780D01*
X123905952Y-111541780D02*
X124001190Y-111446542D01*
X124001190Y-111446542D02*
X124191666Y-111351304D01*
X124191666Y-111351304D02*
X124572619Y-111351304D01*
X124572619Y-111351304D02*
X124763095Y-111446542D01*
X125905952Y-112684638D02*
X125715476Y-112589400D01*
X125715476Y-112589400D02*
X125620238Y-112494161D01*
X125620238Y-112494161D02*
X125525000Y-112303685D01*
X125525000Y-112303685D02*
X125525000Y-111732257D01*
X125525000Y-111732257D02*
X125620238Y-111541780D01*
X125620238Y-111541780D02*
X125715476Y-111446542D01*
X125715476Y-111446542D02*
X125905952Y-111351304D01*
X125905952Y-111351304D02*
X126191667Y-111351304D01*
X126191667Y-111351304D02*
X126382143Y-111446542D01*
X126382143Y-111446542D02*
X126477381Y-111541780D01*
X126477381Y-111541780D02*
X126572619Y-111732257D01*
X126572619Y-111732257D02*
X126572619Y-112303685D01*
X126572619Y-112303685D02*
X126477381Y-112494161D01*
X126477381Y-112494161D02*
X126382143Y-112589400D01*
X126382143Y-112589400D02*
X126191667Y-112684638D01*
X126191667Y-112684638D02*
X125905952Y-112684638D01*
X127429762Y-112684638D02*
X127429762Y-110684638D01*
X127429762Y-110684638D02*
X127905952Y-110684638D01*
X127905952Y-110684638D02*
X128191667Y-110779876D01*
X128191667Y-110779876D02*
X128382143Y-110970352D01*
X128382143Y-110970352D02*
X128477381Y-111160828D01*
X128477381Y-111160828D02*
X128572619Y-111541780D01*
X128572619Y-111541780D02*
X128572619Y-111827495D01*
X128572619Y-111827495D02*
X128477381Y-112208447D01*
X128477381Y-112208447D02*
X128382143Y-112398923D01*
X128382143Y-112398923D02*
X128191667Y-112589400D01*
X128191667Y-112589400D02*
X127905952Y-112684638D01*
X127905952Y-112684638D02*
X127429762Y-112684638D01*
X129429762Y-112684638D02*
X129429762Y-111351304D01*
X129429762Y-111732257D02*
X129525000Y-111541780D01*
X129525000Y-111541780D02*
X129620238Y-111446542D01*
X129620238Y-111446542D02*
X129810714Y-111351304D01*
X129810714Y-111351304D02*
X130001191Y-111351304D01*
X130667857Y-112684638D02*
X130667857Y-111351304D01*
X130667857Y-110684638D02*
X130572619Y-110779876D01*
X130572619Y-110779876D02*
X130667857Y-110875114D01*
X130667857Y-110875114D02*
X130763095Y-110779876D01*
X130763095Y-110779876D02*
X130667857Y-110684638D01*
X130667857Y-110684638D02*
X130667857Y-110875114D01*
X131429762Y-111351304D02*
X131905952Y-112684638D01*
X131905952Y-112684638D02*
X132382143Y-111351304D01*
X133905953Y-112589400D02*
X133715477Y-112684638D01*
X133715477Y-112684638D02*
X133334524Y-112684638D01*
X133334524Y-112684638D02*
X133144048Y-112589400D01*
X133144048Y-112589400D02*
X133048810Y-112398923D01*
X133048810Y-112398923D02*
X133048810Y-111637019D01*
X133048810Y-111637019D02*
X133144048Y-111446542D01*
X133144048Y-111446542D02*
X133334524Y-111351304D01*
X133334524Y-111351304D02*
X133715477Y-111351304D01*
X133715477Y-111351304D02*
X133905953Y-111446542D01*
X133905953Y-111446542D02*
X134001191Y-111637019D01*
X134001191Y-111637019D02*
X134001191Y-111827495D01*
X134001191Y-111827495D02*
X133048810Y-112017971D01*
D11*
X135173333Y-97324580D02*
X135125714Y-97372200D01*
X135125714Y-97372200D02*
X134982857Y-97419819D01*
X134982857Y-97419819D02*
X134887619Y-97419819D01*
X134887619Y-97419819D02*
X134744762Y-97372200D01*
X134744762Y-97372200D02*
X134649524Y-97276961D01*
X134649524Y-97276961D02*
X134601905Y-97181723D01*
X134601905Y-97181723D02*
X134554286Y-96991247D01*
X134554286Y-96991247D02*
X134554286Y-96848390D01*
X134554286Y-96848390D02*
X134601905Y-96657914D01*
X134601905Y-96657914D02*
X134649524Y-96562676D01*
X134649524Y-96562676D02*
X134744762Y-96467438D01*
X134744762Y-96467438D02*
X134887619Y-96419819D01*
X134887619Y-96419819D02*
X134982857Y-96419819D01*
X134982857Y-96419819D02*
X135125714Y-96467438D01*
X135125714Y-96467438D02*
X135173333Y-96515057D01*
X135554286Y-96515057D02*
X135601905Y-96467438D01*
X135601905Y-96467438D02*
X135697143Y-96419819D01*
X135697143Y-96419819D02*
X135935238Y-96419819D01*
X135935238Y-96419819D02*
X136030476Y-96467438D01*
X136030476Y-96467438D02*
X136078095Y-96515057D01*
X136078095Y-96515057D02*
X136125714Y-96610295D01*
X136125714Y-96610295D02*
X136125714Y-96705533D01*
X136125714Y-96705533D02*
X136078095Y-96848390D01*
X136078095Y-96848390D02*
X135506667Y-97419819D01*
X135506667Y-97419819D02*
X136125714Y-97419819D01*
X119316667Y-126204819D02*
X119316667Y-125204819D01*
X119316667Y-125204819D02*
X119650000Y-125919104D01*
X119650000Y-125919104D02*
X119983333Y-125204819D01*
X119983333Y-125204819D02*
X119983333Y-126204819D01*
X120459524Y-126204819D02*
X120459524Y-125204819D01*
X120459524Y-125681009D02*
X121030952Y-125681009D01*
X121030952Y-126204819D02*
X121030952Y-125204819D01*
X121697619Y-125204819D02*
X121792857Y-125204819D01*
X121792857Y-125204819D02*
X121888095Y-125252438D01*
X121888095Y-125252438D02*
X121935714Y-125300057D01*
X121935714Y-125300057D02*
X121983333Y-125395295D01*
X121983333Y-125395295D02*
X122030952Y-125585771D01*
X122030952Y-125585771D02*
X122030952Y-125823866D01*
X122030952Y-125823866D02*
X121983333Y-126014342D01*
X121983333Y-126014342D02*
X121935714Y-126109580D01*
X121935714Y-126109580D02*
X121888095Y-126157200D01*
X121888095Y-126157200D02*
X121792857Y-126204819D01*
X121792857Y-126204819D02*
X121697619Y-126204819D01*
X121697619Y-126204819D02*
X121602381Y-126157200D01*
X121602381Y-126157200D02*
X121554762Y-126109580D01*
X121554762Y-126109580D02*
X121507143Y-126014342D01*
X121507143Y-126014342D02*
X121459524Y-125823866D01*
X121459524Y-125823866D02*
X121459524Y-125585771D01*
X121459524Y-125585771D02*
X121507143Y-125395295D01*
X121507143Y-125395295D02*
X121554762Y-125300057D01*
X121554762Y-125300057D02*
X121602381Y-125252438D01*
X121602381Y-125252438D02*
X121697619Y-125204819D01*
X145423333Y-92599580D02*
X145375714Y-92647200D01*
X145375714Y-92647200D02*
X145232857Y-92694819D01*
X145232857Y-92694819D02*
X145137619Y-92694819D01*
X145137619Y-92694819D02*
X144994762Y-92647200D01*
X144994762Y-92647200D02*
X144899524Y-92551961D01*
X144899524Y-92551961D02*
X144851905Y-92456723D01*
X144851905Y-92456723D02*
X144804286Y-92266247D01*
X144804286Y-92266247D02*
X144804286Y-92123390D01*
X144804286Y-92123390D02*
X144851905Y-91932914D01*
X144851905Y-91932914D02*
X144899524Y-91837676D01*
X144899524Y-91837676D02*
X144994762Y-91742438D01*
X144994762Y-91742438D02*
X145137619Y-91694819D01*
X145137619Y-91694819D02*
X145232857Y-91694819D01*
X145232857Y-91694819D02*
X145375714Y-91742438D01*
X145375714Y-91742438D02*
X145423333Y-91790057D01*
X146280476Y-92028152D02*
X146280476Y-92694819D01*
X146042381Y-91647200D02*
X145804286Y-92361485D01*
X145804286Y-92361485D02*
X146423333Y-92361485D01*
D13*
X139050237Y-92689318D02*
X139050237Y-91419318D01*
X140380714Y-92568365D02*
X140320238Y-92628842D01*
X140320238Y-92628842D02*
X140138809Y-92689318D01*
X140138809Y-92689318D02*
X140017857Y-92689318D01*
X140017857Y-92689318D02*
X139836428Y-92628842D01*
X139836428Y-92628842D02*
X139715476Y-92507889D01*
X139715476Y-92507889D02*
X139654999Y-92386937D01*
X139654999Y-92386937D02*
X139594523Y-92145032D01*
X139594523Y-92145032D02*
X139594523Y-91963603D01*
X139594523Y-91963603D02*
X139654999Y-91721699D01*
X139654999Y-91721699D02*
X139715476Y-91600746D01*
X139715476Y-91600746D02*
X139836428Y-91479794D01*
X139836428Y-91479794D02*
X140017857Y-91419318D01*
X140017857Y-91419318D02*
X140138809Y-91419318D01*
X140138809Y-91419318D02*
X140320238Y-91479794D01*
X140320238Y-91479794D02*
X140380714Y-91540270D01*
X140864523Y-91540270D02*
X140924999Y-91479794D01*
X140924999Y-91479794D02*
X141045952Y-91419318D01*
X141045952Y-91419318D02*
X141348333Y-91419318D01*
X141348333Y-91419318D02*
X141469285Y-91479794D01*
X141469285Y-91479794D02*
X141529761Y-91540270D01*
X141529761Y-91540270D02*
X141590238Y-91661222D01*
X141590238Y-91661222D02*
X141590238Y-91782175D01*
X141590238Y-91782175D02*
X141529761Y-91963603D01*
X141529761Y-91963603D02*
X140804047Y-92689318D01*
X140804047Y-92689318D02*
X141590238Y-92689318D01*
D11*
X135323333Y-92599580D02*
X135275714Y-92647200D01*
X135275714Y-92647200D02*
X135132857Y-92694819D01*
X135132857Y-92694819D02*
X135037619Y-92694819D01*
X135037619Y-92694819D02*
X134894762Y-92647200D01*
X134894762Y-92647200D02*
X134799524Y-92551961D01*
X134799524Y-92551961D02*
X134751905Y-92456723D01*
X134751905Y-92456723D02*
X134704286Y-92266247D01*
X134704286Y-92266247D02*
X134704286Y-92123390D01*
X134704286Y-92123390D02*
X134751905Y-91932914D01*
X134751905Y-91932914D02*
X134799524Y-91837676D01*
X134799524Y-91837676D02*
X134894762Y-91742438D01*
X134894762Y-91742438D02*
X135037619Y-91694819D01*
X135037619Y-91694819D02*
X135132857Y-91694819D01*
X135132857Y-91694819D02*
X135275714Y-91742438D01*
X135275714Y-91742438D02*
X135323333Y-91790057D01*
X136275714Y-92694819D02*
X135704286Y-92694819D01*
X135990000Y-92694819D02*
X135990000Y-91694819D01*
X135990000Y-91694819D02*
X135894762Y-91837676D01*
X135894762Y-91837676D02*
X135799524Y-91932914D01*
X135799524Y-91932914D02*
X135704286Y-91980533D01*
X145373333Y-97974580D02*
X145325714Y-98022200D01*
X145325714Y-98022200D02*
X145182857Y-98069819D01*
X145182857Y-98069819D02*
X145087619Y-98069819D01*
X145087619Y-98069819D02*
X144944762Y-98022200D01*
X144944762Y-98022200D02*
X144849524Y-97926961D01*
X144849524Y-97926961D02*
X144801905Y-97831723D01*
X144801905Y-97831723D02*
X144754286Y-97641247D01*
X144754286Y-97641247D02*
X144754286Y-97498390D01*
X144754286Y-97498390D02*
X144801905Y-97307914D01*
X144801905Y-97307914D02*
X144849524Y-97212676D01*
X144849524Y-97212676D02*
X144944762Y-97117438D01*
X144944762Y-97117438D02*
X145087619Y-97069819D01*
X145087619Y-97069819D02*
X145182857Y-97069819D01*
X145182857Y-97069819D02*
X145325714Y-97117438D01*
X145325714Y-97117438D02*
X145373333Y-97165057D01*
X146278095Y-97069819D02*
X145801905Y-97069819D01*
X145801905Y-97069819D02*
X145754286Y-97546009D01*
X145754286Y-97546009D02*
X145801905Y-97498390D01*
X145801905Y-97498390D02*
X145897143Y-97450771D01*
X145897143Y-97450771D02*
X146135238Y-97450771D01*
X146135238Y-97450771D02*
X146230476Y-97498390D01*
X146230476Y-97498390D02*
X146278095Y-97546009D01*
X146278095Y-97546009D02*
X146325714Y-97641247D01*
X146325714Y-97641247D02*
X146325714Y-97879342D01*
X146325714Y-97879342D02*
X146278095Y-97974580D01*
X146278095Y-97974580D02*
X146230476Y-98022200D01*
X146230476Y-98022200D02*
X146135238Y-98069819D01*
X146135238Y-98069819D02*
X145897143Y-98069819D01*
X145897143Y-98069819D02*
X145801905Y-98022200D01*
X145801905Y-98022200D02*
X145754286Y-97974580D01*
D13*
X139050237Y-98164318D02*
X139050237Y-96894318D01*
X140380714Y-98043365D02*
X140320238Y-98103842D01*
X140320238Y-98103842D02*
X140138809Y-98164318D01*
X140138809Y-98164318D02*
X140017857Y-98164318D01*
X140017857Y-98164318D02*
X139836428Y-98103842D01*
X139836428Y-98103842D02*
X139715476Y-97982889D01*
X139715476Y-97982889D02*
X139654999Y-97861937D01*
X139654999Y-97861937D02*
X139594523Y-97620032D01*
X139594523Y-97620032D02*
X139594523Y-97438603D01*
X139594523Y-97438603D02*
X139654999Y-97196699D01*
X139654999Y-97196699D02*
X139715476Y-97075746D01*
X139715476Y-97075746D02*
X139836428Y-96954794D01*
X139836428Y-96954794D02*
X140017857Y-96894318D01*
X140017857Y-96894318D02*
X140138809Y-96894318D01*
X140138809Y-96894318D02*
X140320238Y-96954794D01*
X140320238Y-96954794D02*
X140380714Y-97015270D01*
X141590238Y-98164318D02*
X140864523Y-98164318D01*
X141227380Y-98164318D02*
X141227380Y-96894318D01*
X141227380Y-96894318D02*
X141106428Y-97075746D01*
X141106428Y-97075746D02*
X140985476Y-97196699D01*
X140985476Y-97196699D02*
X140864523Y-97257175D01*
D11*
X153724819Y-82458333D02*
X154439104Y-82458333D01*
X154439104Y-82458333D02*
X154581961Y-82505952D01*
X154581961Y-82505952D02*
X154677200Y-82601190D01*
X154677200Y-82601190D02*
X154724819Y-82744047D01*
X154724819Y-82744047D02*
X154724819Y-82839285D01*
X153820057Y-82029761D02*
X153772438Y-81982142D01*
X153772438Y-81982142D02*
X153724819Y-81886904D01*
X153724819Y-81886904D02*
X153724819Y-81648809D01*
X153724819Y-81648809D02*
X153772438Y-81553571D01*
X153772438Y-81553571D02*
X153820057Y-81505952D01*
X153820057Y-81505952D02*
X153915295Y-81458333D01*
X153915295Y-81458333D02*
X154010533Y-81458333D01*
X154010533Y-81458333D02*
X154153390Y-81505952D01*
X154153390Y-81505952D02*
X154724819Y-82077380D01*
X154724819Y-82077380D02*
X154724819Y-81458333D01*
X153529580Y-84791666D02*
X153577200Y-84839285D01*
X153577200Y-84839285D02*
X153624819Y-84982142D01*
X153624819Y-84982142D02*
X153624819Y-85077380D01*
X153624819Y-85077380D02*
X153577200Y-85220237D01*
X153577200Y-85220237D02*
X153481961Y-85315475D01*
X153481961Y-85315475D02*
X153386723Y-85363094D01*
X153386723Y-85363094D02*
X153196247Y-85410713D01*
X153196247Y-85410713D02*
X153053390Y-85410713D01*
X153053390Y-85410713D02*
X152862914Y-85363094D01*
X152862914Y-85363094D02*
X152767676Y-85315475D01*
X152767676Y-85315475D02*
X152672438Y-85220237D01*
X152672438Y-85220237D02*
X152624819Y-85077380D01*
X152624819Y-85077380D02*
X152624819Y-84982142D01*
X152624819Y-84982142D02*
X152672438Y-84839285D01*
X152672438Y-84839285D02*
X152720057Y-84791666D01*
X152624819Y-84458332D02*
X152624819Y-83839285D01*
X152624819Y-83839285D02*
X153005771Y-84172618D01*
X153005771Y-84172618D02*
X153005771Y-84029761D01*
X153005771Y-84029761D02*
X153053390Y-83934523D01*
X153053390Y-83934523D02*
X153101009Y-83886904D01*
X153101009Y-83886904D02*
X153196247Y-83839285D01*
X153196247Y-83839285D02*
X153434342Y-83839285D01*
X153434342Y-83839285D02*
X153529580Y-83886904D01*
X153529580Y-83886904D02*
X153577200Y-83934523D01*
X153577200Y-83934523D02*
X153624819Y-84029761D01*
X153624819Y-84029761D02*
X153624819Y-84315475D01*
X153624819Y-84315475D02*
X153577200Y-84410713D01*
X153577200Y-84410713D02*
X153529580Y-84458332D01*
X170288095Y-102579819D02*
X170288095Y-103389342D01*
X170288095Y-103389342D02*
X170335714Y-103484580D01*
X170335714Y-103484580D02*
X170383333Y-103532200D01*
X170383333Y-103532200D02*
X170478571Y-103579819D01*
X170478571Y-103579819D02*
X170669047Y-103579819D01*
X170669047Y-103579819D02*
X170764285Y-103532200D01*
X170764285Y-103532200D02*
X170811904Y-103484580D01*
X170811904Y-103484580D02*
X170859523Y-103389342D01*
X170859523Y-103389342D02*
X170859523Y-102579819D01*
X171859523Y-103579819D02*
X171288095Y-103579819D01*
X171573809Y-103579819D02*
X171573809Y-102579819D01*
X171573809Y-102579819D02*
X171478571Y-102722676D01*
X171478571Y-102722676D02*
X171383333Y-102817914D01*
X171383333Y-102817914D02*
X171288095Y-102865533D01*
X146093754Y-86134580D02*
X146046135Y-86182200D01*
X146046135Y-86182200D02*
X145903278Y-86229819D01*
X145903278Y-86229819D02*
X145808040Y-86229819D01*
X145808040Y-86229819D02*
X145665183Y-86182200D01*
X145665183Y-86182200D02*
X145569945Y-86086961D01*
X145569945Y-86086961D02*
X145522326Y-85991723D01*
X145522326Y-85991723D02*
X145474707Y-85801247D01*
X145474707Y-85801247D02*
X145474707Y-85658390D01*
X145474707Y-85658390D02*
X145522326Y-85467914D01*
X145522326Y-85467914D02*
X145569945Y-85372676D01*
X145569945Y-85372676D02*
X145665183Y-85277438D01*
X145665183Y-85277438D02*
X145808040Y-85229819D01*
X145808040Y-85229819D02*
X145903278Y-85229819D01*
X145903278Y-85229819D02*
X146046135Y-85277438D01*
X146046135Y-85277438D02*
X146093754Y-85325057D01*
X146950897Y-85229819D02*
X146760421Y-85229819D01*
X146760421Y-85229819D02*
X146665183Y-85277438D01*
X146665183Y-85277438D02*
X146617564Y-85325057D01*
X146617564Y-85325057D02*
X146522326Y-85467914D01*
X146522326Y-85467914D02*
X146474707Y-85658390D01*
X146474707Y-85658390D02*
X146474707Y-86039342D01*
X146474707Y-86039342D02*
X146522326Y-86134580D01*
X146522326Y-86134580D02*
X146569945Y-86182200D01*
X146569945Y-86182200D02*
X146665183Y-86229819D01*
X146665183Y-86229819D02*
X146855659Y-86229819D01*
X146855659Y-86229819D02*
X146950897Y-86182200D01*
X146950897Y-86182200D02*
X146998516Y-86134580D01*
X146998516Y-86134580D02*
X147046135Y-86039342D01*
X147046135Y-86039342D02*
X147046135Y-85801247D01*
X147046135Y-85801247D02*
X146998516Y-85706009D01*
X146998516Y-85706009D02*
X146950897Y-85658390D01*
X146950897Y-85658390D02*
X146855659Y-85610771D01*
X146855659Y-85610771D02*
X146665183Y-85610771D01*
X146665183Y-85610771D02*
X146569945Y-85658390D01*
X146569945Y-85658390D02*
X146522326Y-85706009D01*
X146522326Y-85706009D02*
X146474707Y-85801247D01*
X140266666Y-119679819D02*
X140266666Y-120394104D01*
X140266666Y-120394104D02*
X140219047Y-120536961D01*
X140219047Y-120536961D02*
X140123809Y-120632200D01*
X140123809Y-120632200D02*
X139980952Y-120679819D01*
X139980952Y-120679819D02*
X139885714Y-120679819D01*
X141266666Y-120679819D02*
X140695238Y-120679819D01*
X140980952Y-120679819D02*
X140980952Y-119679819D01*
X140980952Y-119679819D02*
X140885714Y-119822676D01*
X140885714Y-119822676D02*
X140790476Y-119917914D01*
X140790476Y-119917914D02*
X140695238Y-119965533D01*
D13*
X148905237Y-77224318D02*
X148905237Y-75954318D01*
X150235714Y-77103365D02*
X150175238Y-77163842D01*
X150175238Y-77163842D02*
X149993809Y-77224318D01*
X149993809Y-77224318D02*
X149872857Y-77224318D01*
X149872857Y-77224318D02*
X149691428Y-77163842D01*
X149691428Y-77163842D02*
X149570476Y-77042889D01*
X149570476Y-77042889D02*
X149509999Y-76921937D01*
X149509999Y-76921937D02*
X149449523Y-76680032D01*
X149449523Y-76680032D02*
X149449523Y-76498603D01*
X149449523Y-76498603D02*
X149509999Y-76256699D01*
X149509999Y-76256699D02*
X149570476Y-76135746D01*
X149570476Y-76135746D02*
X149691428Y-76014794D01*
X149691428Y-76014794D02*
X149872857Y-75954318D01*
X149872857Y-75954318D02*
X149993809Y-75954318D01*
X149993809Y-75954318D02*
X150175238Y-76014794D01*
X150175238Y-76014794D02*
X150235714Y-76075270D01*
X150659047Y-75954318D02*
X151445238Y-75954318D01*
X151445238Y-75954318D02*
X151021904Y-76438127D01*
X151021904Y-76438127D02*
X151203333Y-76438127D01*
X151203333Y-76438127D02*
X151324285Y-76498603D01*
X151324285Y-76498603D02*
X151384761Y-76559080D01*
X151384761Y-76559080D02*
X151445238Y-76680032D01*
X151445238Y-76680032D02*
X151445238Y-76982413D01*
X151445238Y-76982413D02*
X151384761Y-77103365D01*
X151384761Y-77103365D02*
X151324285Y-77163842D01*
X151324285Y-77163842D02*
X151203333Y-77224318D01*
X151203333Y-77224318D02*
X150840476Y-77224318D01*
X150840476Y-77224318D02*
X150719523Y-77163842D01*
X150719523Y-77163842D02*
X150659047Y-77103365D01*
D11*
X170766667Y-88079819D02*
X170766667Y-87079819D01*
X170766667Y-87079819D02*
X171100000Y-87794104D01*
X171100000Y-87794104D02*
X171433333Y-87079819D01*
X171433333Y-87079819D02*
X171433333Y-88079819D01*
X171909524Y-88079819D02*
X171909524Y-87079819D01*
X171909524Y-87556009D02*
X172480952Y-87556009D01*
X172480952Y-88079819D02*
X172480952Y-87079819D01*
X173480952Y-88079819D02*
X172909524Y-88079819D01*
X173195238Y-88079819D02*
X173195238Y-87079819D01*
X173195238Y-87079819D02*
X173100000Y-87222676D01*
X173100000Y-87222676D02*
X173004762Y-87317914D01*
X173004762Y-87317914D02*
X172909524Y-87365533D01*
X143353333Y-76854819D02*
X143020000Y-76378628D01*
X142781905Y-76854819D02*
X142781905Y-75854819D01*
X142781905Y-75854819D02*
X143162857Y-75854819D01*
X143162857Y-75854819D02*
X143258095Y-75902438D01*
X143258095Y-75902438D02*
X143305714Y-75950057D01*
X143305714Y-75950057D02*
X143353333Y-76045295D01*
X143353333Y-76045295D02*
X143353333Y-76188152D01*
X143353333Y-76188152D02*
X143305714Y-76283390D01*
X143305714Y-76283390D02*
X143258095Y-76331009D01*
X143258095Y-76331009D02*
X143162857Y-76378628D01*
X143162857Y-76378628D02*
X142781905Y-76378628D01*
X144305714Y-76854819D02*
X143734286Y-76854819D01*
X144020000Y-76854819D02*
X144020000Y-75854819D01*
X144020000Y-75854819D02*
X143924762Y-75997676D01*
X143924762Y-75997676D02*
X143829524Y-76092914D01*
X143829524Y-76092914D02*
X143734286Y-76140533D01*
D14*
X136655580Y-99000000D02*
X136374420Y-99000000D01*
X136655580Y-97980000D02*
X136374420Y-97980000D01*
X144374420Y-93205000D02*
X144655580Y-93205000D01*
X144374420Y-94225000D02*
X144655580Y-94225000D01*
D15*
X138790000Y-93065000D02*
X139990000Y-93065000D01*
X140340000Y-93215000D02*
X140940000Y-93215000D01*
X140340000Y-96115000D02*
X140340000Y-93215000D01*
X140940000Y-93215000D02*
X140940000Y-96115000D01*
X140940000Y-96115000D02*
X140340000Y-96115000D01*
D14*
X136780580Y-94250000D02*
X136499420Y-94250000D01*
X136780580Y-93230000D02*
X136499420Y-93230000D01*
X144374420Y-98680000D02*
X144655580Y-98680000D01*
X144374420Y-99700000D02*
X144655580Y-99700000D01*
D15*
X138790000Y-98540000D02*
X139990000Y-98540000D01*
X140340000Y-98690000D02*
X140940000Y-98690000D01*
X140340000Y-101590000D02*
X140340000Y-98690000D01*
X140940000Y-98690000D02*
X140940000Y-101590000D01*
X140940000Y-101590000D02*
X140340000Y-101590000D01*
D14*
X155090000Y-82920000D02*
X155090000Y-81590000D01*
X156420000Y-82920000D02*
X155090000Y-82920000D01*
X157690000Y-82920000D02*
X172990000Y-82920000D01*
X157690000Y-82920000D02*
X157690000Y-80320000D01*
X172990000Y-82920000D02*
X172990000Y-77720000D01*
X155090000Y-80320000D02*
X155090000Y-77720000D01*
X157690000Y-80320000D02*
X155090000Y-80320000D01*
X155090000Y-77720000D02*
X172990000Y-77720000D01*
X152005000Y-84523999D02*
X152005000Y-84805159D01*
X150985000Y-84523999D02*
X150985000Y-84805159D01*
X179695000Y-102070000D02*
X179695000Y-97429000D01*
X179695000Y-102070000D02*
X169455000Y-102070000D01*
X179695000Y-100560000D02*
X169455000Y-100560000D01*
X179695000Y-97429000D02*
X169455000Y-97429000D01*
X176425000Y-102070000D02*
X176425000Y-100560000D01*
X172724000Y-102070000D02*
X172724000Y-100560000D01*
X169455000Y-102070000D02*
X169455000Y-97429000D01*
X146209420Y-83890000D02*
X146490580Y-83890000D01*
X146209420Y-84910000D02*
X146490580Y-84910000D01*
X142365000Y-121775000D02*
X145545000Y-121775000D01*
X142365000Y-130925000D02*
X142365000Y-121775000D01*
X142365000Y-130925000D02*
X169265000Y-130925000D01*
X145545000Y-109265000D02*
X146875000Y-109265000D01*
X145545000Y-110375000D02*
X145545000Y-109265000D01*
X145545000Y-115455000D02*
X145765000Y-115455000D01*
X145545000Y-121775000D02*
X145545000Y-115455000D01*
X165765000Y-115455000D02*
X165985000Y-115455000D01*
X165985000Y-121775000D02*
X165985000Y-115455000D01*
X165985000Y-121775000D02*
X169265000Y-121775000D01*
X169265000Y-130925000D02*
X169265000Y-121775000D01*
D15*
X152245000Y-82864579D02*
X150770000Y-82864579D01*
X150420000Y-82839579D02*
X146720000Y-82839579D01*
X150420000Y-77839579D02*
X150420000Y-82839579D01*
X146720000Y-82839579D02*
X146720000Y-77839579D01*
X146720000Y-77839579D02*
X150420000Y-77839579D01*
D14*
X146157742Y-75852500D02*
X146632258Y-75852500D01*
X146157742Y-76897500D02*
X146632258Y-76897500D01*
%LPC*%
D16*
X137290000Y-98490000D03*
X135740000Y-98490000D03*
D17*
X125645000Y-125700000D03*
D18*
X143740000Y-93715000D03*
X145290000Y-93715000D03*
D19*
X139390000Y-93715000D03*
X139390000Y-94665000D03*
X139390000Y-95615000D03*
X141890000Y-95615000D03*
X141890000Y-94665000D03*
X141890000Y-93715000D03*
D16*
X137415000Y-93740000D03*
X135865000Y-93740000D03*
D18*
X143740000Y-99190000D03*
X145290000Y-99190000D03*
D19*
X139390000Y-99190000D03*
X139390000Y-100140000D03*
X139390000Y-101090000D03*
X141890000Y-101090000D03*
X141890000Y-100140000D03*
X141890000Y-99190000D03*
D20*
X156420000Y-81590000D03*
D21*
X156420000Y-79050000D03*
X158960000Y-81590000D03*
X158960000Y-79050000D03*
X161500000Y-81590000D03*
X161500000Y-79050000D03*
X164040000Y-81590000D03*
X164040000Y-79050000D03*
X166580000Y-81590000D03*
X166580000Y-79050000D03*
X169120000Y-81590000D03*
X169120000Y-79050000D03*
X171660000Y-81590000D03*
X171660000Y-79050000D03*
D22*
X151495000Y-83889579D03*
X151495000Y-85439579D03*
D23*
X177115000Y-98800000D03*
D24*
X174575000Y-98800000D03*
X172035000Y-98800000D03*
D18*
X145575000Y-84400000D03*
X147125000Y-84400000D03*
D20*
X146875000Y-110375000D03*
D21*
X146875000Y-115455000D03*
X149415000Y-110375000D03*
X149415000Y-115455000D03*
X151955000Y-110375000D03*
X151955000Y-115455000D03*
X154495000Y-110375000D03*
X154495000Y-115455000D03*
X157035000Y-110375000D03*
X157035000Y-115455000D03*
X159575000Y-110375000D03*
X159575000Y-115455000D03*
X162115000Y-110375000D03*
X162115000Y-115455000D03*
X164655000Y-110375000D03*
X164655000Y-115455000D03*
D25*
X151508000Y-82289579D03*
X151508000Y-81639579D03*
X151508000Y-80989579D03*
X151508000Y-80339579D03*
X151508000Y-79689579D03*
X151508000Y-79039579D03*
X151508000Y-78389579D03*
X145632000Y-78389579D03*
X145632000Y-79039579D03*
X145632000Y-79689579D03*
X145632000Y-80339579D03*
X145632000Y-80989579D03*
X145632000Y-81639579D03*
X145632000Y-82289579D03*
D17*
X172100000Y-92125000D03*
D26*
X145570000Y-76375000D03*
X147220000Y-76375000D03*
D27*
X117620000Y-93715000D03*
D28*
X120650000Y-94015000D03*
X120650000Y-98865000D03*
D27*
X117620000Y-99165000D03*
D21*
X117490000Y-87550000D03*
X120030000Y-87550000D03*
D20*
X122570000Y-87550000D03*
D21*
X125110000Y-87550000D03*
X127650000Y-87550000D03*
X130190000Y-87550000D03*
X132730000Y-87550000D03*
D20*
X135270000Y-87550000D03*
D21*
X137810000Y-87550000D03*
X140350000Y-87550000D03*
X142890000Y-87550000D03*
X145430000Y-87550000D03*
D20*
X147970000Y-87550000D03*
D21*
X150510000Y-87550000D03*
X153050000Y-87550000D03*
X155590000Y-87550000D03*
X158130000Y-87550000D03*
D20*
X160670000Y-87550000D03*
D21*
X163210000Y-87550000D03*
X165750000Y-87550000D03*
X165750000Y-105330000D03*
X163210000Y-105330000D03*
D20*
X160670000Y-105330000D03*
D21*
X158130000Y-105330000D03*
X155590000Y-105330000D03*
X153050000Y-105330000D03*
X150510000Y-105330000D03*
D20*
X147970000Y-105330000D03*
D21*
X145430000Y-105330000D03*
X142890000Y-105330000D03*
X140350000Y-105330000D03*
X137810000Y-105330000D03*
D20*
X135270000Y-105330000D03*
D21*
X132730000Y-105330000D03*
X130190000Y-105330000D03*
X127650000Y-105330000D03*
X125110000Y-105330000D03*
D20*
X122570000Y-105330000D03*
D21*
X120030000Y-105330000D03*
X117490000Y-105330000D03*
X165520000Y-93900000D03*
D20*
X165520000Y-96440000D03*
D21*
X165520000Y-98980000D03*
%LPD*%
M02*
