G04 #@! TF.GenerationSoftware,KiCad,Pcbnew,7.0.9-7.0.9~ubuntu22.04.1*
G04 #@! TF.CreationDate,2023-11-26T22:36:36+01:00*
G04 #@! TF.ProjectId,MicroPicoDrive,4d696372-6f50-4696-936f-44726976652e,1.4.1*
G04 #@! TF.SameCoordinates,Original*
G04 #@! TF.FileFunction,Copper,L2,Bot*
G04 #@! TF.FilePolarity,Positive*
%FSLAX46Y46*%
G04 Gerber Fmt 4.6, Leading zero omitted, Abs format (unit mm)*
G04 Created by KiCad (PCBNEW 7.0.9-7.0.9~ubuntu22.04.1) date 2023-11-26 22:36:36*
%MOMM*%
%LPD*%
G01*
G04 APERTURE LIST*
G04 #@! TA.AperFunction,ComponentPad*
%ADD10R,1.700000X1.700000*%
G04 #@! TD*
G04 #@! TA.AperFunction,ComponentPad*
%ADD11O,1.700000X1.700000*%
G04 #@! TD*
G04 #@! TA.AperFunction,ComponentPad*
%ADD12R,1.905000X2.000000*%
G04 #@! TD*
G04 #@! TA.AperFunction,ComponentPad*
%ADD13O,1.905000X2.000000*%
G04 #@! TD*
G04 #@! TA.AperFunction,SMDPad,CuDef*
%ADD14R,1.700000X3.500000*%
G04 #@! TD*
G04 #@! TA.AperFunction,ViaPad*
%ADD15C,0.600000*%
G04 #@! TD*
G04 #@! TA.AperFunction,Conductor*
%ADD16C,0.400000*%
G04 #@! TD*
G04 #@! TA.AperFunction,Conductor*
%ADD17C,0.300000*%
G04 #@! TD*
G04 #@! TA.AperFunction,Conductor*
%ADD18C,0.250000*%
G04 #@! TD*
G04 APERTURE END LIST*
D10*
X156420000Y-81590000D03*
D11*
X156420000Y-79050000D03*
X158960000Y-81590000D03*
X158960000Y-79050000D03*
X161500000Y-81590000D03*
X161500000Y-79050000D03*
X164040000Y-81590000D03*
X164040000Y-79050000D03*
X166580000Y-81590000D03*
X166580000Y-79050000D03*
X169120000Y-81590000D03*
X169120000Y-79050000D03*
X171660000Y-81590000D03*
X171660000Y-79050000D03*
D12*
X177115000Y-98800000D03*
D13*
X174575000Y-98800000D03*
X172035000Y-98800000D03*
D10*
X146875000Y-110375000D03*
D11*
X146875000Y-115455000D03*
X149415000Y-110375000D03*
X149415000Y-115455000D03*
X151955000Y-110375000D03*
X151955000Y-115455000D03*
X154495000Y-110375000D03*
X154495000Y-115455000D03*
X157035000Y-110375000D03*
X157035000Y-115455000D03*
X159575000Y-110375000D03*
X159575000Y-115455000D03*
X162115000Y-110375000D03*
X162115000Y-115455000D03*
X164655000Y-110375000D03*
X164655000Y-115455000D03*
X117490000Y-87550000D03*
D14*
X117490000Y-86650000D03*
D11*
X120030000Y-87550000D03*
D14*
X120030000Y-86650000D03*
D10*
X122570000Y-87550000D03*
D14*
X122570000Y-86650000D03*
D11*
X125110000Y-87550000D03*
D14*
X125110000Y-86650000D03*
D11*
X127650000Y-87550000D03*
D14*
X127650000Y-86650000D03*
D11*
X130190000Y-87550000D03*
D14*
X130190000Y-86650000D03*
D11*
X132730000Y-87550000D03*
D14*
X132730000Y-86650000D03*
D10*
X135270000Y-87550000D03*
D14*
X135270000Y-86650000D03*
D11*
X137810000Y-87550000D03*
D14*
X137810000Y-86650000D03*
D11*
X140350000Y-87550000D03*
D14*
X140350000Y-86650000D03*
D11*
X142890000Y-87550000D03*
D14*
X142890000Y-86650000D03*
D11*
X145430000Y-87550000D03*
D14*
X145430000Y-86650000D03*
D10*
X147970000Y-87550000D03*
D14*
X147970000Y-86650000D03*
D11*
X150510000Y-87550000D03*
D14*
X150510000Y-86650000D03*
D11*
X153050000Y-87550000D03*
D14*
X153050000Y-86650000D03*
D11*
X155590000Y-87550000D03*
D14*
X155590000Y-86650000D03*
D11*
X158130000Y-87550000D03*
D14*
X158130000Y-86650000D03*
D10*
X160670000Y-87550000D03*
D14*
X160670000Y-86650000D03*
D11*
X163210000Y-87550000D03*
D14*
X163210000Y-86650000D03*
D11*
X165750000Y-87550000D03*
D14*
X165750000Y-86650000D03*
D11*
X165750000Y-105330000D03*
D14*
X165750000Y-106230000D03*
D11*
X163210000Y-105330000D03*
D14*
X163210000Y-106230000D03*
D10*
X160670000Y-105330000D03*
D14*
X160670000Y-106230000D03*
D11*
X158130000Y-105330000D03*
D14*
X158130000Y-106230000D03*
D11*
X155590000Y-105330000D03*
D14*
X155590000Y-106230000D03*
D11*
X153050000Y-105330000D03*
D14*
X153050000Y-106230000D03*
D11*
X150510000Y-105330000D03*
D14*
X150510000Y-106230000D03*
D10*
X147970000Y-105330000D03*
D14*
X147970000Y-106230000D03*
D11*
X145430000Y-105330000D03*
D14*
X145430000Y-106230000D03*
D11*
X142890000Y-105330000D03*
D14*
X142890000Y-106230000D03*
D11*
X140350000Y-105330000D03*
D14*
X140350000Y-106230000D03*
D11*
X137810000Y-105330000D03*
D14*
X137810000Y-106230000D03*
D10*
X135270000Y-105330000D03*
D14*
X135270000Y-106230000D03*
D11*
X132730000Y-105330000D03*
D14*
X132730000Y-106230000D03*
D11*
X130190000Y-105330000D03*
D14*
X130190000Y-106230000D03*
D11*
X127650000Y-105330000D03*
D14*
X127650000Y-106230000D03*
D11*
X125110000Y-105330000D03*
D14*
X125110000Y-106230000D03*
D10*
X122570000Y-105330000D03*
D14*
X122570000Y-106230000D03*
D11*
X120030000Y-105330000D03*
D14*
X120030000Y-106230000D03*
D11*
X117490000Y-105330000D03*
D14*
X117490000Y-106230000D03*
D11*
X165520000Y-93900000D03*
D10*
X165520000Y-96440000D03*
D11*
X165520000Y-98980000D03*
D15*
X135890000Y-95990000D03*
X158090000Y-101015000D03*
X155415000Y-90915000D03*
X147815000Y-101015000D03*
X158150000Y-108800000D03*
X162050000Y-112900000D03*
X162950000Y-94300000D03*
X142040000Y-98090000D03*
X141800000Y-109400000D03*
X138765000Y-97315000D03*
X160800000Y-109050000D03*
X142340000Y-90115000D03*
X157200000Y-113150000D03*
X134340000Y-92565000D03*
X153040000Y-102765000D03*
X147700000Y-91850000D03*
X153350000Y-112850000D03*
X150465000Y-91865000D03*
X165750000Y-112850000D03*
X157290000Y-98140000D03*
X136490000Y-89790000D03*
X136750000Y-82850000D03*
X154550000Y-83350000D03*
X148140000Y-97165000D03*
X158365000Y-94265000D03*
X140790000Y-98140000D03*
X142990000Y-98115000D03*
X143465000Y-101115000D03*
X148240000Y-95040000D03*
X140490000Y-96440000D03*
X149345000Y-79025000D03*
X153195000Y-80339579D03*
X140550000Y-79550000D03*
X143050000Y-80750000D03*
X142950000Y-83550000D03*
X147500000Y-81600000D03*
X155115000Y-99590000D03*
D16*
X135890000Y-95990000D02*
X137490000Y-97590000D01*
D17*
X162390000Y-100990000D02*
X155415000Y-94015000D01*
D16*
X137490000Y-97590000D02*
X137490000Y-100615000D01*
X146115000Y-101015000D02*
X144140000Y-102990000D01*
X162390000Y-100990000D02*
X158115000Y-100990000D01*
D17*
X155415000Y-94015000D02*
X155415000Y-90915000D01*
X139865000Y-102990000D02*
X139890000Y-102990000D01*
X158115000Y-100990000D02*
X158090000Y-101015000D01*
D16*
X144140000Y-102990000D02*
X122015000Y-102990000D01*
X122015000Y-102990000D02*
X120030000Y-104975000D01*
X172035000Y-98800000D02*
X169835000Y-101000000D01*
D17*
X162400000Y-101000000D02*
X162390000Y-100990000D01*
D16*
X120030000Y-104975000D02*
X120030000Y-105620000D01*
X137490000Y-100615000D02*
X139865000Y-102990000D01*
X169835000Y-101000000D02*
X162400000Y-101000000D01*
X147815000Y-101015000D02*
X146115000Y-101015000D01*
X146875000Y-110375000D02*
X145900000Y-111350000D01*
X131442000Y-111350000D02*
X127650000Y-107558000D01*
X145900000Y-111350000D02*
X131442000Y-111350000D01*
X127650000Y-107558000D02*
X127650000Y-105330000D01*
D17*
X145550000Y-83350000D02*
X142890000Y-86010000D01*
X154550000Y-83350000D02*
X145550000Y-83350000D01*
X142890000Y-86010000D02*
X142890000Y-87550000D01*
X162754000Y-83888000D02*
X162754000Y-80336000D01*
X148115000Y-97140000D02*
X148140000Y-97165000D01*
X141790000Y-97140000D02*
X147640000Y-97140000D01*
X161950000Y-84692000D02*
X162754000Y-83888000D01*
X161950000Y-90680000D02*
X161950000Y-84692000D01*
X147640000Y-97140000D02*
X148115000Y-97140000D01*
X158365000Y-94265000D02*
X161950000Y-90680000D01*
X140790000Y-98140000D02*
X141790000Y-97140000D01*
X162754000Y-80336000D02*
X164040000Y-79050000D01*
X142990000Y-100640000D02*
X142990000Y-98115000D01*
X143465000Y-101115000D02*
X142990000Y-100640000D01*
X148190000Y-95040000D02*
X148240000Y-95040000D01*
X146790000Y-96440000D02*
X148190000Y-95040000D01*
X140490000Y-96440000D02*
X146790000Y-96440000D01*
X157595000Y-76675000D02*
X150445000Y-76675000D01*
X161500000Y-79050000D02*
X159125000Y-76675000D01*
X150445000Y-76675000D02*
X150095000Y-76675000D01*
X159125000Y-76675000D02*
X157595000Y-76675000D01*
X149345000Y-77425000D02*
X149345000Y-79025000D01*
X150095000Y-76675000D02*
X149345000Y-77425000D01*
D18*
X153195000Y-80339579D02*
X153235235Y-80299344D01*
X153235235Y-80299344D02*
X157669344Y-80299344D01*
X157669344Y-80299344D02*
X158960000Y-81590000D01*
D17*
X140150000Y-79950000D02*
X129400000Y-79950000D01*
X129400000Y-79950000D02*
X125110000Y-84240000D01*
X140550000Y-79550000D02*
X140150000Y-79950000D01*
X125110000Y-84240000D02*
X125110000Y-87550000D01*
X143050000Y-80750000D02*
X143050000Y-80800000D01*
X140350000Y-83500000D02*
X140350000Y-87550000D01*
X143050000Y-80800000D02*
X140350000Y-83500000D01*
X144900000Y-81600000D02*
X147500000Y-81600000D01*
X142950000Y-83550000D02*
X144900000Y-81600000D01*
X148129000Y-109821000D02*
X149250000Y-108700000D01*
X149250000Y-108700000D02*
X149250000Y-88810000D01*
X149250000Y-88810000D02*
X150510000Y-87550000D01*
X148129000Y-114201000D02*
X148129000Y-109821000D01*
X146875000Y-115455000D02*
X148129000Y-114201000D01*
X150700000Y-114170000D02*
X150700000Y-109683424D01*
X150700000Y-109683424D02*
X151764000Y-108619424D01*
X151764000Y-89208500D02*
X153050000Y-87922500D01*
X153050000Y-87922500D02*
X153050000Y-87550000D01*
X149415000Y-115455000D02*
X150700000Y-114170000D01*
X151764000Y-108619424D02*
X151764000Y-89208500D01*
X153050000Y-105330000D02*
X153050000Y-109280000D01*
X153050000Y-109280000D02*
X151955000Y-110375000D01*
X151955000Y-115455000D02*
X153850000Y-117350000D01*
X153850000Y-117350000D02*
X162791000Y-117350000D01*
X163400000Y-116741000D02*
X163400000Y-105520000D01*
X163400000Y-105520000D02*
X163210000Y-105330000D01*
X162791000Y-117350000D02*
X163400000Y-116741000D01*
X154224000Y-101456000D02*
X154224000Y-88916000D01*
X156844000Y-104076000D02*
X154224000Y-101456000D01*
X154224000Y-88916000D02*
X155590000Y-87550000D01*
X157035000Y-110375000D02*
X156844000Y-110184000D01*
X156844000Y-110184000D02*
X156844000Y-104076000D01*
X155590000Y-105330000D02*
X155749000Y-105489000D01*
X157350000Y-111700000D02*
X159575000Y-113925000D01*
X156400000Y-111700000D02*
X157350000Y-111700000D01*
X155749000Y-111049000D02*
X156400000Y-111700000D01*
X159575000Y-113925000D02*
X159575000Y-115455000D01*
X155749000Y-105489000D02*
X155749000Y-111049000D01*
X164464000Y-110184000D02*
X164464000Y-104076000D01*
X155115000Y-99590000D02*
X158290000Y-102765000D01*
X158290000Y-102765000D02*
X162461342Y-102765000D01*
X164464000Y-104076000D02*
X163153000Y-102765000D01*
X163153000Y-102765000D02*
X162461342Y-102765000D01*
X164655000Y-110375000D02*
X164464000Y-110184000D01*
G04 #@! TA.AperFunction,Conductor*
G36*
X153306905Y-111048515D02*
G01*
X153328804Y-111073787D01*
X153419278Y-111212268D01*
X153419283Y-111212273D01*
X153419284Y-111212276D01*
X153571756Y-111377902D01*
X153571761Y-111377907D01*
X153630981Y-111424000D01*
X153749424Y-111516189D01*
X153749425Y-111516189D01*
X153749427Y-111516191D01*
X153820566Y-111554689D01*
X153947426Y-111623342D01*
X154160365Y-111696444D01*
X154382431Y-111733500D01*
X154607569Y-111733500D01*
X154829635Y-111696444D01*
X155042574Y-111623342D01*
X155188039Y-111544620D01*
X155256364Y-111530026D01*
X155321737Y-111554689D01*
X155334735Y-111565995D01*
X155873280Y-112104540D01*
X155883430Y-112117208D01*
X155883606Y-112117064D01*
X155888580Y-112123076D01*
X155941685Y-112172946D01*
X155963661Y-112194922D01*
X155969551Y-112199491D01*
X155973994Y-112203286D01*
X156009864Y-112236970D01*
X156009866Y-112236971D01*
X156009867Y-112236972D01*
X156028803Y-112247382D01*
X156045049Y-112258053D01*
X156062132Y-112271304D01*
X156062137Y-112271306D01*
X156107296Y-112290848D01*
X156112544Y-112293420D01*
X156144234Y-112310840D01*
X156155663Y-112317124D01*
X156171823Y-112321272D01*
X156176583Y-112322495D01*
X156194986Y-112328795D01*
X156214824Y-112337380D01*
X156251960Y-112343261D01*
X156263431Y-112345078D01*
X156269146Y-112346261D01*
X156316812Y-112358500D01*
X156338419Y-112358500D01*
X156357816Y-112360026D01*
X156379152Y-112363406D01*
X156428144Y-112358774D01*
X156433981Y-112358500D01*
X157025878Y-112358500D01*
X157092917Y-112378185D01*
X157113559Y-112394819D01*
X158844358Y-114125618D01*
X158877843Y-114186941D01*
X158872859Y-114256633D01*
X158832840Y-114311152D01*
X158651761Y-114452092D01*
X158651756Y-114452097D01*
X158499284Y-114617723D01*
X158499276Y-114617734D01*
X158408808Y-114756206D01*
X158355662Y-114801562D01*
X158286431Y-114810986D01*
X158223095Y-114781484D01*
X158201192Y-114756206D01*
X158110723Y-114617734D01*
X158110715Y-114617723D01*
X157958243Y-114452097D01*
X157958238Y-114452092D01*
X157839797Y-114359905D01*
X157780576Y-114313811D01*
X157780575Y-114313810D01*
X157780572Y-114313808D01*
X157582580Y-114206661D01*
X157582577Y-114206659D01*
X157582574Y-114206658D01*
X157582571Y-114206657D01*
X157582569Y-114206656D01*
X157369637Y-114133556D01*
X157147569Y-114096500D01*
X156922431Y-114096500D01*
X156700362Y-114133556D01*
X156487430Y-114206656D01*
X156487419Y-114206661D01*
X156289427Y-114313808D01*
X156289422Y-114313812D01*
X156111761Y-114452092D01*
X156111756Y-114452097D01*
X155959284Y-114617723D01*
X155959276Y-114617734D01*
X155868808Y-114756206D01*
X155815662Y-114801562D01*
X155746431Y-114810986D01*
X155683095Y-114781484D01*
X155661192Y-114756206D01*
X155570723Y-114617734D01*
X155570715Y-114617723D01*
X155418243Y-114452097D01*
X155418238Y-114452092D01*
X155299797Y-114359905D01*
X155240576Y-114313811D01*
X155240575Y-114313810D01*
X155240572Y-114313808D01*
X155042580Y-114206661D01*
X155042577Y-114206659D01*
X155042574Y-114206658D01*
X155042571Y-114206657D01*
X155042569Y-114206656D01*
X154829637Y-114133556D01*
X154607569Y-114096500D01*
X154382431Y-114096500D01*
X154160362Y-114133556D01*
X153947430Y-114206656D01*
X153947419Y-114206661D01*
X153749427Y-114313808D01*
X153749422Y-114313812D01*
X153571761Y-114452092D01*
X153571756Y-114452097D01*
X153419284Y-114617723D01*
X153419276Y-114617734D01*
X153328808Y-114756206D01*
X153275662Y-114801562D01*
X153206431Y-114810986D01*
X153143095Y-114781484D01*
X153121192Y-114756206D01*
X153030723Y-114617734D01*
X153030715Y-114617723D01*
X152878243Y-114452097D01*
X152878238Y-114452092D01*
X152759797Y-114359905D01*
X152700576Y-114313811D01*
X152700575Y-114313810D01*
X152700572Y-114313808D01*
X152502580Y-114206661D01*
X152502577Y-114206659D01*
X152502574Y-114206658D01*
X152502571Y-114206657D01*
X152502569Y-114206656D01*
X152289637Y-114133556D01*
X152067569Y-114096500D01*
X151842431Y-114096500D01*
X151620362Y-114133556D01*
X151522763Y-114167062D01*
X151452964Y-114170212D01*
X151392543Y-114135126D01*
X151360682Y-114072943D01*
X151358500Y-114049781D01*
X151358500Y-111780218D01*
X151378185Y-111713179D01*
X151430989Y-111667424D01*
X151500147Y-111657480D01*
X151522758Y-111662935D01*
X151570112Y-111679192D01*
X151620364Y-111696444D01*
X151842431Y-111733500D01*
X152067569Y-111733500D01*
X152289635Y-111696444D01*
X152502574Y-111623342D01*
X152700576Y-111516189D01*
X152878240Y-111377906D01*
X153030722Y-111212268D01*
X153121193Y-111073790D01*
X153174338Y-111028437D01*
X153243569Y-111019013D01*
X153306905Y-111048515D01*
G37*
G04 #@! TD.AperFunction*
G04 #@! TA.AperFunction,Conductor*
G36*
X160926905Y-111048515D02*
G01*
X160948804Y-111073787D01*
X161039278Y-111212268D01*
X161039283Y-111212273D01*
X161039284Y-111212276D01*
X161191756Y-111377902D01*
X161191761Y-111377907D01*
X161250981Y-111424000D01*
X161369424Y-111516189D01*
X161369425Y-111516189D01*
X161369427Y-111516191D01*
X161440566Y-111554689D01*
X161567426Y-111623342D01*
X161780365Y-111696444D01*
X162002431Y-111733500D01*
X162227569Y-111733500D01*
X162449635Y-111696444D01*
X162577237Y-111652637D01*
X162647035Y-111649488D01*
X162707457Y-111684574D01*
X162739317Y-111746756D01*
X162741500Y-111769919D01*
X162741500Y-114060080D01*
X162721815Y-114127119D01*
X162669011Y-114172874D01*
X162599853Y-114182818D01*
X162577237Y-114177361D01*
X162449637Y-114133556D01*
X162227569Y-114096500D01*
X162002431Y-114096500D01*
X161780362Y-114133556D01*
X161567430Y-114206656D01*
X161567419Y-114206661D01*
X161369427Y-114313808D01*
X161369422Y-114313812D01*
X161191761Y-114452092D01*
X161191756Y-114452097D01*
X161039284Y-114617723D01*
X161039276Y-114617734D01*
X160948808Y-114756206D01*
X160895662Y-114801562D01*
X160826431Y-114810986D01*
X160763095Y-114781484D01*
X160741192Y-114756206D01*
X160650723Y-114617734D01*
X160650715Y-114617723D01*
X160498243Y-114452097D01*
X160498238Y-114452092D01*
X160320579Y-114313813D01*
X160320574Y-114313810D01*
X160298479Y-114301852D01*
X160248890Y-114252631D01*
X160233500Y-114192799D01*
X160233500Y-114011387D01*
X160235282Y-113995249D01*
X160235054Y-113995228D01*
X160235788Y-113987465D01*
X160233500Y-113914657D01*
X160233500Y-113883574D01*
X160233500Y-113883568D01*
X160232566Y-113876175D01*
X160232107Y-113870347D01*
X160230562Y-113821169D01*
X160224536Y-113800428D01*
X160220590Y-113781377D01*
X160217882Y-113759936D01*
X160199763Y-113714172D01*
X160197876Y-113708665D01*
X160184145Y-113661400D01*
X160173148Y-113642807D01*
X160164591Y-113625340D01*
X160156635Y-113605244D01*
X160127705Y-113565425D01*
X160124495Y-113560539D01*
X160099453Y-113518195D01*
X160099452Y-113518193D01*
X160099450Y-113518191D01*
X160099447Y-113518187D01*
X160084178Y-113502918D01*
X160071541Y-113488122D01*
X160058843Y-113470644D01*
X160058840Y-113470641D01*
X160020914Y-113439267D01*
X160016592Y-113435333D01*
X158042813Y-111461553D01*
X158009328Y-111400230D01*
X158014312Y-111330538D01*
X158039266Y-111289888D01*
X158110715Y-111212276D01*
X158110715Y-111212275D01*
X158110722Y-111212268D01*
X158201193Y-111073790D01*
X158254338Y-111028437D01*
X158323569Y-111019013D01*
X158386905Y-111048515D01*
X158408804Y-111073787D01*
X158499278Y-111212268D01*
X158499283Y-111212273D01*
X158499284Y-111212276D01*
X158651756Y-111377902D01*
X158651761Y-111377907D01*
X158710981Y-111424000D01*
X158829424Y-111516189D01*
X158829425Y-111516189D01*
X158829427Y-111516191D01*
X158900566Y-111554689D01*
X159027426Y-111623342D01*
X159240365Y-111696444D01*
X159462431Y-111733500D01*
X159687569Y-111733500D01*
X159909635Y-111696444D01*
X160122574Y-111623342D01*
X160320576Y-111516189D01*
X160498240Y-111377906D01*
X160650722Y-111212268D01*
X160741193Y-111073790D01*
X160794338Y-111028437D01*
X160863569Y-111019013D01*
X160926905Y-111048515D01*
G37*
G04 #@! TD.AperFunction*
G04 #@! TA.AperFunction,Conductor*
G36*
X149665000Y-111705633D02*
G01*
X149883721Y-111647030D01*
X149884273Y-111649090D01*
X149944797Y-111645233D01*
X150005858Y-111679192D01*
X150038867Y-111740773D01*
X150041500Y-111766191D01*
X150041500Y-113845878D01*
X150021815Y-113912917D01*
X150005185Y-113933554D01*
X149888959Y-114049781D01*
X149842373Y-114096367D01*
X149781050Y-114129851D01*
X149734283Y-114130994D01*
X149527569Y-114096500D01*
X149302431Y-114096500D01*
X149080361Y-114133556D01*
X149080359Y-114133556D01*
X148951762Y-114177704D01*
X148881964Y-114180854D01*
X148821543Y-114145767D01*
X148789682Y-114083585D01*
X148787500Y-114060423D01*
X148787500Y-111765827D01*
X148807185Y-111698788D01*
X148859989Y-111653033D01*
X148929147Y-111643089D01*
X148946188Y-111647367D01*
X148946279Y-111647030D01*
X149165000Y-111705634D01*
X149165000Y-110810501D01*
X149272685Y-110859680D01*
X149379237Y-110875000D01*
X149450763Y-110875000D01*
X149557315Y-110859680D01*
X149665000Y-110810501D01*
X149665000Y-111705633D01*
G37*
G04 #@! TD.AperFunction*
G04 #@! TA.AperFunction,Conductor*
G36*
X148220000Y-108480000D02*
G01*
X148239378Y-108480000D01*
X148306417Y-108499685D01*
X148352172Y-108552489D01*
X148362116Y-108621647D01*
X148333091Y-108685203D01*
X148327078Y-108691661D01*
X148074405Y-108944334D01*
X148008197Y-109010542D01*
X147946874Y-109044026D01*
X147877182Y-109039042D01*
X147834201Y-109023010D01*
X147773654Y-109016500D01*
X147773638Y-109016500D01*
X145976362Y-109016500D01*
X145976345Y-109016500D01*
X145915797Y-109023011D01*
X145915795Y-109023011D01*
X145778795Y-109074111D01*
X145661739Y-109161739D01*
X145574111Y-109278795D01*
X145523011Y-109415795D01*
X145523011Y-109415797D01*
X145516500Y-109476345D01*
X145516500Y-110517500D01*
X145496815Y-110584539D01*
X145444011Y-110630294D01*
X145392500Y-110641500D01*
X131786832Y-110641500D01*
X131719793Y-110621815D01*
X131699151Y-110605181D01*
X129794151Y-108700181D01*
X129760666Y-108638858D01*
X129765650Y-108569166D01*
X129807522Y-108513233D01*
X129872986Y-108488816D01*
X129881832Y-108488500D01*
X131088638Y-108488500D01*
X131088654Y-108488499D01*
X131115692Y-108485591D01*
X131149201Y-108481989D01*
X131154537Y-108479999D01*
X131192897Y-108465691D01*
X131286204Y-108430889D01*
X131286204Y-108430888D01*
X131286206Y-108430888D01*
X131286207Y-108430887D01*
X131385689Y-108356415D01*
X131451153Y-108331997D01*
X131519426Y-108346848D01*
X131534311Y-108356415D01*
X131633792Y-108430887D01*
X131633793Y-108430888D01*
X131765464Y-108479999D01*
X131770799Y-108481989D01*
X131798050Y-108484918D01*
X131831345Y-108488499D01*
X131831362Y-108488500D01*
X133628638Y-108488500D01*
X133628654Y-108488499D01*
X133655692Y-108485591D01*
X133689201Y-108481989D01*
X133694537Y-108479999D01*
X133732897Y-108465691D01*
X133826204Y-108430889D01*
X133826204Y-108430888D01*
X133826206Y-108430888D01*
X133826207Y-108430887D01*
X133925689Y-108356415D01*
X133991153Y-108331997D01*
X134059426Y-108346848D01*
X134074311Y-108356415D01*
X134173792Y-108430887D01*
X134173793Y-108430888D01*
X134305464Y-108479999D01*
X134310799Y-108481989D01*
X134338050Y-108484918D01*
X134371345Y-108488499D01*
X134371362Y-108488500D01*
X136168638Y-108488500D01*
X136168654Y-108488499D01*
X136195692Y-108485591D01*
X136229201Y-108481989D01*
X136234537Y-108479999D01*
X136272897Y-108465691D01*
X136366204Y-108430889D01*
X136366204Y-108430888D01*
X136366206Y-108430888D01*
X136366207Y-108430887D01*
X136465689Y-108356415D01*
X136531153Y-108331997D01*
X136599426Y-108346848D01*
X136614311Y-108356415D01*
X136713792Y-108430887D01*
X136713793Y-108430888D01*
X136845464Y-108479999D01*
X136850799Y-108481989D01*
X136878050Y-108484918D01*
X136911345Y-108488499D01*
X136911362Y-108488500D01*
X138708638Y-108488500D01*
X138708654Y-108488499D01*
X138735692Y-108485591D01*
X138769201Y-108481989D01*
X138774537Y-108479999D01*
X138812897Y-108465691D01*
X138906204Y-108430889D01*
X138906204Y-108430888D01*
X138906206Y-108430888D01*
X138906207Y-108430887D01*
X139005689Y-108356415D01*
X139071153Y-108331997D01*
X139139426Y-108346848D01*
X139154311Y-108356415D01*
X139253792Y-108430887D01*
X139253793Y-108430888D01*
X139385464Y-108479999D01*
X139390799Y-108481989D01*
X139418050Y-108484918D01*
X139451345Y-108488499D01*
X139451362Y-108488500D01*
X141248638Y-108488500D01*
X141248654Y-108488499D01*
X141275692Y-108485591D01*
X141309201Y-108481989D01*
X141314537Y-108479999D01*
X141352897Y-108465691D01*
X141446204Y-108430889D01*
X141446204Y-108430888D01*
X141446206Y-108430888D01*
X141446207Y-108430887D01*
X141545689Y-108356415D01*
X141611153Y-108331997D01*
X141679426Y-108346848D01*
X141694311Y-108356415D01*
X141793792Y-108430887D01*
X141793793Y-108430888D01*
X141925464Y-108479999D01*
X141930799Y-108481989D01*
X141958050Y-108484918D01*
X141991345Y-108488499D01*
X141991362Y-108488500D01*
X143788638Y-108488500D01*
X143788654Y-108488499D01*
X143815692Y-108485591D01*
X143849201Y-108481989D01*
X143854537Y-108479999D01*
X143892897Y-108465691D01*
X143986204Y-108430889D01*
X143986204Y-108430888D01*
X143986206Y-108430888D01*
X143986207Y-108430887D01*
X144085689Y-108356415D01*
X144151153Y-108331997D01*
X144219426Y-108346848D01*
X144234311Y-108356415D01*
X144333792Y-108430887D01*
X144333793Y-108430888D01*
X144465464Y-108479999D01*
X144470799Y-108481989D01*
X144498050Y-108484918D01*
X144531345Y-108488499D01*
X144531362Y-108488500D01*
X146328638Y-108488500D01*
X146328654Y-108488499D01*
X146355692Y-108485591D01*
X146389201Y-108481989D01*
X146394537Y-108479999D01*
X146411703Y-108473596D01*
X146526204Y-108430889D01*
X146632782Y-108351105D01*
X146698244Y-108326689D01*
X146766517Y-108341540D01*
X146781402Y-108351106D01*
X146877911Y-108423353D01*
X146877913Y-108423354D01*
X147012620Y-108473596D01*
X147012627Y-108473598D01*
X147072155Y-108479999D01*
X147072172Y-108480000D01*
X147720000Y-108480000D01*
X147720000Y-105776494D01*
X147824839Y-105824373D01*
X147933527Y-105840000D01*
X148006473Y-105840000D01*
X148115161Y-105824373D01*
X148220000Y-105776494D01*
X148220000Y-108480000D01*
G37*
G04 #@! TD.AperFunction*
G04 #@! TA.AperFunction,Conductor*
G36*
X160920000Y-108480000D02*
G01*
X161567828Y-108480000D01*
X161567844Y-108479999D01*
X161627372Y-108473598D01*
X161627379Y-108473596D01*
X161762086Y-108423354D01*
X161762089Y-108423352D01*
X161858596Y-108351107D01*
X161924060Y-108326689D01*
X161992334Y-108341540D01*
X162007216Y-108351104D01*
X162113796Y-108430889D01*
X162228297Y-108473596D01*
X162245463Y-108479999D01*
X162250799Y-108481989D01*
X162278050Y-108484918D01*
X162311345Y-108488499D01*
X162311362Y-108488500D01*
X162617500Y-108488500D01*
X162684539Y-108508185D01*
X162730294Y-108560989D01*
X162741500Y-108612500D01*
X162741500Y-108980080D01*
X162721815Y-109047119D01*
X162669011Y-109092874D01*
X162599853Y-109102818D01*
X162577237Y-109097361D01*
X162449637Y-109053556D01*
X162227569Y-109016500D01*
X162002431Y-109016500D01*
X161780362Y-109053556D01*
X161567430Y-109126656D01*
X161567419Y-109126661D01*
X161369427Y-109233808D01*
X161369422Y-109233812D01*
X161191761Y-109372092D01*
X161191756Y-109372097D01*
X161039284Y-109537723D01*
X161039276Y-109537734D01*
X160948808Y-109676206D01*
X160895662Y-109721562D01*
X160826431Y-109730986D01*
X160763095Y-109701484D01*
X160741192Y-109676206D01*
X160650723Y-109537734D01*
X160650715Y-109537723D01*
X160498243Y-109372097D01*
X160498238Y-109372092D01*
X160360028Y-109264518D01*
X160320576Y-109233811D01*
X160320575Y-109233810D01*
X160320572Y-109233808D01*
X160122580Y-109126661D01*
X160122577Y-109126659D01*
X160122574Y-109126658D01*
X160122571Y-109126657D01*
X160122569Y-109126656D01*
X159909637Y-109053556D01*
X159687569Y-109016500D01*
X159462431Y-109016500D01*
X159240362Y-109053556D01*
X159027430Y-109126656D01*
X159027419Y-109126661D01*
X158829427Y-109233808D01*
X158829422Y-109233812D01*
X158651761Y-109372092D01*
X158651756Y-109372097D01*
X158499284Y-109537723D01*
X158499276Y-109537734D01*
X158408808Y-109676206D01*
X158355662Y-109721562D01*
X158286431Y-109730986D01*
X158223095Y-109701484D01*
X158201192Y-109676206D01*
X158110723Y-109537734D01*
X158110715Y-109537723D01*
X157958243Y-109372097D01*
X157958238Y-109372092D01*
X157820028Y-109264518D01*
X157780576Y-109233811D01*
X157780575Y-109233810D01*
X157780572Y-109233808D01*
X157582580Y-109126661D01*
X157582577Y-109126659D01*
X157582574Y-109126658D01*
X157582570Y-109126656D01*
X157577879Y-109124599D01*
X157578749Y-109122615D01*
X157529213Y-109087518D01*
X157503090Y-109022715D01*
X157502500Y-109010634D01*
X157502500Y-108612500D01*
X157522185Y-108545461D01*
X157574989Y-108499706D01*
X157626500Y-108488500D01*
X159028638Y-108488500D01*
X159028654Y-108488499D01*
X159055692Y-108485591D01*
X159089201Y-108481989D01*
X159094537Y-108479999D01*
X159111703Y-108473596D01*
X159226204Y-108430889D01*
X159332782Y-108351105D01*
X159398244Y-108326689D01*
X159466517Y-108341540D01*
X159481402Y-108351106D01*
X159577911Y-108423353D01*
X159577913Y-108423354D01*
X159712620Y-108473596D01*
X159712627Y-108473598D01*
X159772155Y-108479999D01*
X159772172Y-108480000D01*
X160420000Y-108480000D01*
X160420000Y-105776494D01*
X160524839Y-105824373D01*
X160633527Y-105840000D01*
X160706473Y-105840000D01*
X160815161Y-105824373D01*
X160920000Y-105776494D01*
X160920000Y-108480000D01*
G37*
G04 #@! TD.AperFunction*
G04 #@! TA.AperFunction,Conductor*
G36*
X148510834Y-101565072D02*
G01*
X148566767Y-101606944D01*
X148591184Y-101672408D01*
X148591500Y-101681254D01*
X148591500Y-103856000D01*
X148571815Y-103923039D01*
X148519011Y-103968794D01*
X148467500Y-103980000D01*
X148220000Y-103980000D01*
X148220000Y-104883505D01*
X148115161Y-104835627D01*
X148006473Y-104820000D01*
X147933527Y-104820000D01*
X147824839Y-104835627D01*
X147720000Y-104883505D01*
X147720000Y-103980000D01*
X147072155Y-103980000D01*
X147012627Y-103986401D01*
X147012620Y-103986403D01*
X146877913Y-104036645D01*
X146877910Y-104036647D01*
X146781402Y-104108893D01*
X146715937Y-104133310D01*
X146647664Y-104118458D01*
X146632780Y-104108893D01*
X146526204Y-104029111D01*
X146389203Y-103978011D01*
X146328654Y-103971500D01*
X146328638Y-103971500D01*
X144531362Y-103971500D01*
X144531345Y-103971500D01*
X144470797Y-103978011D01*
X144470795Y-103978011D01*
X144333795Y-104029111D01*
X144234311Y-104103585D01*
X144168846Y-104128002D01*
X144100573Y-104113150D01*
X144085689Y-104103585D01*
X143986204Y-104029111D01*
X143849203Y-103978011D01*
X143788654Y-103971500D01*
X143788638Y-103971500D01*
X141991362Y-103971500D01*
X141991345Y-103971500D01*
X141930797Y-103978011D01*
X141930795Y-103978011D01*
X141793795Y-104029111D01*
X141694311Y-104103585D01*
X141628846Y-104128002D01*
X141560573Y-104113150D01*
X141545689Y-104103585D01*
X141446204Y-104029111D01*
X141309203Y-103978011D01*
X141248654Y-103971500D01*
X141248638Y-103971500D01*
X139451362Y-103971500D01*
X139451345Y-103971500D01*
X139390797Y-103978011D01*
X139390795Y-103978011D01*
X139253795Y-104029111D01*
X139154311Y-104103585D01*
X139088846Y-104128002D01*
X139020573Y-104113150D01*
X139005689Y-104103585D01*
X138906204Y-104029111D01*
X138769203Y-103978011D01*
X138708654Y-103971500D01*
X138708638Y-103971500D01*
X136911362Y-103971500D01*
X136911345Y-103971500D01*
X136850797Y-103978011D01*
X136850795Y-103978011D01*
X136713795Y-104029111D01*
X136614311Y-104103585D01*
X136548846Y-104128002D01*
X136480573Y-104113150D01*
X136465689Y-104103585D01*
X136366204Y-104029111D01*
X136229203Y-103978011D01*
X136168654Y-103971500D01*
X136168638Y-103971500D01*
X134371362Y-103971500D01*
X134371345Y-103971500D01*
X134310797Y-103978011D01*
X134310795Y-103978011D01*
X134173795Y-104029111D01*
X134074311Y-104103585D01*
X134008846Y-104128002D01*
X133940573Y-104113150D01*
X133925689Y-104103585D01*
X133826204Y-104029111D01*
X133689203Y-103978011D01*
X133628654Y-103971500D01*
X133628638Y-103971500D01*
X131831362Y-103971500D01*
X131831345Y-103971500D01*
X131770797Y-103978011D01*
X131770795Y-103978011D01*
X131633795Y-104029111D01*
X131534311Y-104103585D01*
X131468846Y-104128002D01*
X131400573Y-104113150D01*
X131385689Y-104103585D01*
X131286204Y-104029111D01*
X131149203Y-103978011D01*
X131088654Y-103971500D01*
X131088638Y-103971500D01*
X129291362Y-103971500D01*
X129291345Y-103971500D01*
X129230797Y-103978011D01*
X129230795Y-103978011D01*
X129093795Y-104029111D01*
X128994311Y-104103585D01*
X128928846Y-104128002D01*
X128860573Y-104113150D01*
X128845689Y-104103585D01*
X128746204Y-104029111D01*
X128609203Y-103978011D01*
X128548654Y-103971500D01*
X128548638Y-103971500D01*
X126751362Y-103971500D01*
X126751345Y-103971500D01*
X126690797Y-103978011D01*
X126690795Y-103978011D01*
X126553795Y-104029111D01*
X126454311Y-104103585D01*
X126388846Y-104128002D01*
X126320573Y-104113150D01*
X126305689Y-104103585D01*
X126206204Y-104029111D01*
X126069203Y-103978011D01*
X126008654Y-103971500D01*
X126008638Y-103971500D01*
X124211362Y-103971500D01*
X124211345Y-103971500D01*
X124150797Y-103978011D01*
X124150795Y-103978011D01*
X124013793Y-104029111D01*
X124013793Y-104029112D01*
X123907218Y-104108893D01*
X123841754Y-104133310D01*
X123773481Y-104118458D01*
X123758597Y-104108893D01*
X123662088Y-104036646D01*
X123662086Y-104036645D01*
X123527379Y-103986403D01*
X123527372Y-103986401D01*
X123467844Y-103980000D01*
X122820000Y-103980000D01*
X122820000Y-104883505D01*
X122715161Y-104835627D01*
X122606473Y-104820000D01*
X122533527Y-104820000D01*
X122424839Y-104835627D01*
X122320000Y-104883505D01*
X122320000Y-103980000D01*
X122317367Y-103977367D01*
X122259293Y-103960315D01*
X122213538Y-103907511D01*
X122203594Y-103838353D01*
X122232619Y-103774797D01*
X122238651Y-103768319D01*
X122272151Y-103734819D01*
X122333474Y-103701334D01*
X122359832Y-103698500D01*
X139789351Y-103698500D01*
X139811701Y-103700531D01*
X139815219Y-103701175D01*
X139821907Y-103702401D01*
X139876322Y-103699109D01*
X139884535Y-103698613D01*
X139888279Y-103698500D01*
X144116710Y-103698500D01*
X144120455Y-103698613D01*
X144124612Y-103698864D01*
X144183093Y-103702402D01*
X144244818Y-103691090D01*
X144248514Y-103690527D01*
X144310801Y-103682965D01*
X144320499Y-103679286D01*
X144342116Y-103673260D01*
X144352329Y-103671389D01*
X144409577Y-103645622D01*
X144412978Y-103644213D01*
X144471675Y-103621954D01*
X144480213Y-103616060D01*
X144499764Y-103605033D01*
X144509226Y-103600775D01*
X144558640Y-103562060D01*
X144561615Y-103559870D01*
X144613273Y-103524215D01*
X144654916Y-103477208D01*
X144657435Y-103474533D01*
X146372151Y-101759819D01*
X146433474Y-101726334D01*
X146459832Y-101723500D01*
X147387201Y-101723500D01*
X147453174Y-101742506D01*
X147461985Y-101748043D01*
X147633953Y-101808217D01*
X147633958Y-101808218D01*
X147814996Y-101828616D01*
X147815000Y-101828616D01*
X147815004Y-101828616D01*
X147996041Y-101808218D01*
X147996044Y-101808217D01*
X147996047Y-101808217D01*
X148168015Y-101748043D01*
X148322281Y-101651111D01*
X148379819Y-101593573D01*
X148441142Y-101560088D01*
X148510834Y-101565072D01*
G37*
G04 #@! TD.AperFunction*
G04 #@! TA.AperFunction,Conductor*
G36*
X155087703Y-100494409D02*
G01*
X155094181Y-100500441D01*
X157763280Y-103169540D01*
X157773430Y-103182208D01*
X157773606Y-103182064D01*
X157778580Y-103188076D01*
X157831685Y-103237946D01*
X157853661Y-103259922D01*
X157859551Y-103264491D01*
X157863994Y-103268286D01*
X157899864Y-103301970D01*
X157899866Y-103301971D01*
X157899867Y-103301972D01*
X157918803Y-103312382D01*
X157935049Y-103323053D01*
X157952132Y-103336304D01*
X157952137Y-103336306D01*
X157997296Y-103355848D01*
X158002544Y-103358420D01*
X158034234Y-103375840D01*
X158045663Y-103382124D01*
X158061823Y-103386272D01*
X158066583Y-103387495D01*
X158084986Y-103393795D01*
X158104824Y-103402380D01*
X158141960Y-103408261D01*
X158153431Y-103410078D01*
X158159146Y-103411261D01*
X158206812Y-103423500D01*
X158228419Y-103423500D01*
X158247816Y-103425026D01*
X158269152Y-103428406D01*
X158318144Y-103423774D01*
X158323981Y-103423500D01*
X162378154Y-103423500D01*
X162828878Y-103423500D01*
X162895917Y-103443185D01*
X162916559Y-103459819D01*
X163216559Y-103759819D01*
X163250044Y-103821142D01*
X163245060Y-103890834D01*
X163203188Y-103946767D01*
X163137724Y-103971184D01*
X163128878Y-103971500D01*
X162311345Y-103971500D01*
X162250797Y-103978011D01*
X162250795Y-103978011D01*
X162113793Y-104029111D01*
X162113793Y-104029112D01*
X162007218Y-104108893D01*
X161941754Y-104133310D01*
X161873481Y-104118458D01*
X161858597Y-104108893D01*
X161762088Y-104036646D01*
X161762086Y-104036645D01*
X161627379Y-103986403D01*
X161627372Y-103986401D01*
X161567844Y-103980000D01*
X160920000Y-103980000D01*
X160920000Y-104883505D01*
X160815161Y-104835627D01*
X160706473Y-104820000D01*
X160633527Y-104820000D01*
X160524839Y-104835627D01*
X160420000Y-104883505D01*
X160420000Y-103980000D01*
X159772155Y-103980000D01*
X159712627Y-103986401D01*
X159712620Y-103986403D01*
X159577913Y-104036645D01*
X159577910Y-104036647D01*
X159481402Y-104108893D01*
X159415937Y-104133310D01*
X159347664Y-104118458D01*
X159332780Y-104108893D01*
X159226204Y-104029111D01*
X159089203Y-103978011D01*
X159028654Y-103971500D01*
X159028638Y-103971500D01*
X157595131Y-103971500D01*
X157528092Y-103951815D01*
X157482337Y-103899011D01*
X157479840Y-103893151D01*
X157478923Y-103890834D01*
X157468761Y-103865168D01*
X157466876Y-103859661D01*
X157453145Y-103812400D01*
X157442149Y-103793808D01*
X157433589Y-103776335D01*
X157432980Y-103774797D01*
X157425635Y-103756244D01*
X157425631Y-103756238D01*
X157396711Y-103716434D01*
X157393502Y-103711549D01*
X157381203Y-103690753D01*
X157368453Y-103669193D01*
X157368449Y-103669189D01*
X157368446Y-103669185D01*
X157353175Y-103653914D01*
X157340537Y-103639118D01*
X157327839Y-103621640D01*
X157289921Y-103590272D01*
X157285598Y-103586338D01*
X154918819Y-101219559D01*
X154885334Y-101158236D01*
X154882500Y-101131878D01*
X154882500Y-100588122D01*
X154902185Y-100521083D01*
X154954989Y-100475328D01*
X155024147Y-100465384D01*
X155087703Y-100494409D01*
G37*
G04 #@! TD.AperFunction*
G04 #@! TA.AperFunction,Conductor*
G36*
X153508539Y-88928185D02*
G01*
X153554294Y-88980989D01*
X153565500Y-89032500D01*
X153565500Y-101369609D01*
X153563718Y-101385746D01*
X153563946Y-101385768D01*
X153563211Y-101393534D01*
X153565500Y-101466342D01*
X153565500Y-101497434D01*
X153566433Y-101504829D01*
X153566891Y-101510647D01*
X153568437Y-101559829D01*
X153568438Y-101559832D01*
X153574464Y-101580577D01*
X153578407Y-101599618D01*
X153581116Y-101621053D01*
X153581117Y-101621057D01*
X153581118Y-101621064D01*
X153593014Y-101651110D01*
X153599234Y-101666822D01*
X153601125Y-101672348D01*
X153614854Y-101719598D01*
X153614855Y-101719600D01*
X153618837Y-101726334D01*
X153625850Y-101738191D01*
X153634410Y-101755665D01*
X153642363Y-101775754D01*
X153657659Y-101796806D01*
X153665950Y-101808218D01*
X153671289Y-101815565D01*
X153674490Y-101820437D01*
X153699547Y-101862807D01*
X153699551Y-101862811D01*
X153714821Y-101878081D01*
X153727458Y-101892876D01*
X153740159Y-101910357D01*
X153778072Y-101941721D01*
X153782383Y-101945643D01*
X155006280Y-103169540D01*
X155596559Y-103759819D01*
X155630044Y-103821142D01*
X155625060Y-103890834D01*
X155583188Y-103946767D01*
X155517724Y-103971184D01*
X155508878Y-103971500D01*
X154691345Y-103971500D01*
X154630797Y-103978011D01*
X154630795Y-103978011D01*
X154493795Y-104029111D01*
X154394311Y-104103585D01*
X154328846Y-104128002D01*
X154260573Y-104113150D01*
X154245689Y-104103585D01*
X154146204Y-104029111D01*
X154009203Y-103978011D01*
X153948654Y-103971500D01*
X153948638Y-103971500D01*
X152546500Y-103971500D01*
X152479461Y-103951815D01*
X152433706Y-103899011D01*
X152422500Y-103847500D01*
X152422500Y-89532622D01*
X152442185Y-89465583D01*
X152458819Y-89444941D01*
X152958941Y-88944819D01*
X153020264Y-88911334D01*
X153046622Y-88908500D01*
X153162569Y-88908500D01*
X153441500Y-88908500D01*
X153508539Y-88928185D01*
G37*
G04 #@! TD.AperFunction*
G04 #@! TA.AperFunction,Conductor*
G36*
X151066660Y-88928185D02*
G01*
X151112415Y-88980989D01*
X151122359Y-89050147D01*
X151122095Y-89051896D01*
X151118923Y-89071920D01*
X151117738Y-89077643D01*
X151105500Y-89125309D01*
X151105500Y-89146913D01*
X151103974Y-89166308D01*
X151100594Y-89187651D01*
X151105225Y-89236643D01*
X151105500Y-89242481D01*
X151105500Y-103847500D01*
X151085815Y-103914539D01*
X151033011Y-103960294D01*
X150981500Y-103971500D01*
X150032500Y-103971500D01*
X149965461Y-103951815D01*
X149919706Y-103899011D01*
X149908500Y-103847500D01*
X149908500Y-89134122D01*
X149928185Y-89067083D01*
X149944819Y-89046441D01*
X150046441Y-88944819D01*
X150107764Y-88911334D01*
X150134122Y-88908500D01*
X150397431Y-88908500D01*
X150622569Y-88908500D01*
X150999621Y-88908500D01*
X151066660Y-88928185D01*
G37*
G04 #@! TD.AperFunction*
G04 #@! TA.AperFunction,Conductor*
G36*
X155087703Y-94619409D02*
G01*
X155094181Y-94625441D01*
X160538559Y-100069819D01*
X160572044Y-100131142D01*
X160567060Y-100200834D01*
X160525188Y-100256767D01*
X160459724Y-100281184D01*
X160450878Y-100281500D01*
X158462778Y-100281500D01*
X158421823Y-100274541D01*
X158271054Y-100221784D01*
X158271041Y-100221781D01*
X158090004Y-100201384D01*
X158089996Y-100201384D01*
X157908958Y-100221781D01*
X157908953Y-100221782D01*
X157736982Y-100281958D01*
X157582718Y-100378889D01*
X157453889Y-100507718D01*
X157356953Y-100661990D01*
X157355190Y-100665652D01*
X157353422Y-100667609D01*
X157353252Y-100667881D01*
X157353204Y-100667851D01*
X157308367Y-100717511D01*
X157240940Y-100735823D01*
X157174316Y-100714774D01*
X157155790Y-100699530D01*
X155944358Y-99488098D01*
X155910873Y-99426775D01*
X155908818Y-99414290D01*
X155908217Y-99408955D01*
X155908216Y-99408951D01*
X155904255Y-99397629D01*
X155848043Y-99236985D01*
X155838013Y-99221023D01*
X155765114Y-99105005D01*
X155751111Y-99082719D01*
X155622281Y-98953889D01*
X155533312Y-98897986D01*
X155468017Y-98856958D01*
X155468016Y-98856957D01*
X155468015Y-98856957D01*
X155402902Y-98834173D01*
X155296046Y-98796782D01*
X155296041Y-98796781D01*
X155115004Y-98776384D01*
X155114996Y-98776384D01*
X155020383Y-98787044D01*
X154951561Y-98774989D01*
X154900182Y-98727640D01*
X154882500Y-98663824D01*
X154882500Y-94713122D01*
X154902185Y-94646083D01*
X154954989Y-94600328D01*
X155024147Y-94590384D01*
X155087703Y-94619409D01*
G37*
G04 #@! TD.AperFunction*
G04 #@! TA.AperFunction,Conductor*
G36*
X160311905Y-82263515D02*
G01*
X160333804Y-82288787D01*
X160424278Y-82427268D01*
X160424283Y-82427273D01*
X160424284Y-82427276D01*
X160545673Y-82559137D01*
X160576760Y-82592906D01*
X160754424Y-82731189D01*
X160754425Y-82731189D01*
X160754427Y-82731191D01*
X160823119Y-82768365D01*
X160952426Y-82838342D01*
X161165365Y-82911444D01*
X161387431Y-82948500D01*
X161612569Y-82948500D01*
X161834635Y-82911444D01*
X161894513Y-82890888D01*
X161931237Y-82878281D01*
X162001036Y-82875131D01*
X162061457Y-82910217D01*
X162093318Y-82972400D01*
X162095500Y-82995562D01*
X162095500Y-83563877D01*
X162075815Y-83630916D01*
X162059181Y-83651558D01*
X161545453Y-84165285D01*
X161532785Y-84175435D01*
X161532931Y-84175611D01*
X161526920Y-84180583D01*
X161477053Y-84233686D01*
X161455072Y-84255667D01*
X161450492Y-84261569D01*
X161446708Y-84265998D01*
X161413029Y-84301865D01*
X161413024Y-84301872D01*
X161402618Y-84320800D01*
X161391942Y-84337054D01*
X161380353Y-84351996D01*
X161323712Y-84392905D01*
X161282370Y-84400000D01*
X160920000Y-84400000D01*
X160920000Y-87103505D01*
X160815161Y-87055627D01*
X160706473Y-87040000D01*
X160633527Y-87040000D01*
X160524839Y-87055627D01*
X160420000Y-87103505D01*
X160420000Y-84400000D01*
X159772155Y-84400000D01*
X159712627Y-84406401D01*
X159712620Y-84406403D01*
X159577913Y-84456645D01*
X159577910Y-84456647D01*
X159481402Y-84528893D01*
X159415937Y-84553310D01*
X159347664Y-84538458D01*
X159332780Y-84528893D01*
X159226204Y-84449111D01*
X159089203Y-84398011D01*
X159028654Y-84391500D01*
X159028638Y-84391500D01*
X157231362Y-84391500D01*
X157231345Y-84391500D01*
X157170797Y-84398011D01*
X157170795Y-84398011D01*
X157033795Y-84449111D01*
X156934311Y-84523585D01*
X156868846Y-84548002D01*
X156800573Y-84533150D01*
X156785689Y-84523585D01*
X156724844Y-84478037D01*
X156686204Y-84449111D01*
X156682322Y-84447663D01*
X156549203Y-84398011D01*
X156488654Y-84391500D01*
X156488638Y-84391500D01*
X154735502Y-84391500D01*
X154668463Y-84371815D01*
X154665162Y-84368006D01*
X154626476Y-84399512D01*
X154621770Y-84401377D01*
X154493795Y-84449111D01*
X154394311Y-84523585D01*
X154328846Y-84548002D01*
X154260573Y-84533150D01*
X154245689Y-84523585D01*
X154184844Y-84478037D01*
X154146204Y-84449111D01*
X154142322Y-84447663D01*
X154009203Y-84398011D01*
X153948654Y-84391500D01*
X153948638Y-84391500D01*
X152151362Y-84391500D01*
X152151345Y-84391500D01*
X152090797Y-84398011D01*
X152090795Y-84398011D01*
X151953795Y-84449111D01*
X151854311Y-84523585D01*
X151788846Y-84548002D01*
X151720573Y-84533150D01*
X151705689Y-84523585D01*
X151644844Y-84478037D01*
X151606204Y-84449111D01*
X151602322Y-84447663D01*
X151469203Y-84398011D01*
X151408654Y-84391500D01*
X151408638Y-84391500D01*
X149611362Y-84391500D01*
X149611345Y-84391500D01*
X149550797Y-84398011D01*
X149550795Y-84398011D01*
X149413793Y-84449111D01*
X149413793Y-84449112D01*
X149307218Y-84528893D01*
X149241754Y-84553310D01*
X149173481Y-84538458D01*
X149158597Y-84528893D01*
X149062088Y-84456646D01*
X149062086Y-84456645D01*
X148927379Y-84406403D01*
X148927372Y-84406401D01*
X148867844Y-84400000D01*
X148220000Y-84400000D01*
X148220000Y-87103505D01*
X148115161Y-87055627D01*
X148006473Y-87040000D01*
X147933527Y-87040000D01*
X147824839Y-87055627D01*
X147720000Y-87103505D01*
X147720000Y-84400000D01*
X147072155Y-84400000D01*
X147012627Y-84406401D01*
X147012620Y-84406403D01*
X146877913Y-84456645D01*
X146877910Y-84456647D01*
X146781402Y-84528893D01*
X146715937Y-84553310D01*
X146647664Y-84538458D01*
X146632780Y-84528893D01*
X146526204Y-84449111D01*
X146389203Y-84398011D01*
X146328654Y-84391500D01*
X146328638Y-84391500D01*
X145739122Y-84391500D01*
X145672083Y-84371815D01*
X145626328Y-84319011D01*
X145616384Y-84249853D01*
X145645409Y-84186297D01*
X145651441Y-84179819D01*
X145786441Y-84044819D01*
X145847764Y-84011334D01*
X145874122Y-84008500D01*
X154042627Y-84008500D01*
X154108600Y-84027507D01*
X154196982Y-84083041D01*
X154196980Y-84083041D01*
X154196984Y-84083042D01*
X154196985Y-84083043D01*
X154271575Y-84109143D01*
X154368953Y-84143217D01*
X154368958Y-84143218D01*
X154549996Y-84163616D01*
X154549997Y-84163615D01*
X154550000Y-84163616D01*
X154564550Y-84161976D01*
X154633369Y-84174028D01*
X154644672Y-84184444D01*
X154700567Y-84148523D01*
X154721618Y-84144280D01*
X154731042Y-84143218D01*
X154731045Y-84143217D01*
X154731047Y-84143217D01*
X154903015Y-84083043D01*
X155057281Y-83986111D01*
X155186111Y-83857281D01*
X155283043Y-83703015D01*
X155343217Y-83531047D01*
X155343218Y-83531041D01*
X155363616Y-83350003D01*
X155363616Y-83349996D01*
X155343218Y-83168958D01*
X155343216Y-83168950D01*
X155320817Y-83104936D01*
X155317256Y-83035158D01*
X155351985Y-82974530D01*
X155413978Y-82942303D01*
X155452884Y-82943054D01*
X155453088Y-82941160D01*
X155521345Y-82948499D01*
X155521362Y-82948500D01*
X157318638Y-82948500D01*
X157318654Y-82948499D01*
X157345692Y-82945591D01*
X157379201Y-82941989D01*
X157516204Y-82890889D01*
X157633261Y-82803261D01*
X157720889Y-82686204D01*
X157766138Y-82564887D01*
X157808009Y-82508956D01*
X157873474Y-82484539D01*
X157941746Y-82499391D01*
X157973545Y-82524236D01*
X158036760Y-82592906D01*
X158214424Y-82731189D01*
X158214425Y-82731189D01*
X158214427Y-82731191D01*
X158283119Y-82768365D01*
X158412426Y-82838342D01*
X158625365Y-82911444D01*
X158847431Y-82948500D01*
X159072569Y-82948500D01*
X159294635Y-82911444D01*
X159507574Y-82838342D01*
X159705576Y-82731189D01*
X159883240Y-82592906D01*
X160035722Y-82427268D01*
X160126193Y-82288790D01*
X160179338Y-82243437D01*
X160248569Y-82234013D01*
X160311905Y-82263515D01*
G37*
G04 #@! TD.AperFunction*
G04 #@! TA.AperFunction,Conductor*
G36*
X179879748Y-75120185D02*
G01*
X179925503Y-75172989D01*
X179936708Y-75224028D01*
X179964500Y-82520942D01*
X179964500Y-130925500D01*
X179944815Y-130992539D01*
X179892011Y-131038294D01*
X179840500Y-131049500D01*
X115889500Y-131049500D01*
X115822461Y-131029815D01*
X115776706Y-130977011D01*
X115765500Y-130925500D01*
X115765500Y-125700001D01*
X123635380Y-125700001D01*
X123655835Y-125986004D01*
X123716782Y-126266168D01*
X123716784Y-126266175D01*
X123778997Y-126432975D01*
X123816985Y-126534827D01*
X123816987Y-126534831D01*
X123954396Y-126786477D01*
X123954397Y-126786478D01*
X123954400Y-126786483D01*
X124126231Y-127016021D01*
X124126235Y-127016025D01*
X124126240Y-127016031D01*
X124328968Y-127218759D01*
X124328974Y-127218764D01*
X124328979Y-127218769D01*
X124558517Y-127390600D01*
X124558521Y-127390602D01*
X124558522Y-127390603D01*
X124810168Y-127528012D01*
X124810172Y-127528014D01*
X124810174Y-127528015D01*
X125078825Y-127628216D01*
X125218913Y-127658690D01*
X125358995Y-127689164D01*
X125358997Y-127689164D01*
X125359001Y-127689165D01*
X125573413Y-127704500D01*
X125716587Y-127704500D01*
X125930999Y-127689165D01*
X126211175Y-127628216D01*
X126479826Y-127528015D01*
X126731483Y-127390600D01*
X126961021Y-127218769D01*
X127163769Y-127016021D01*
X127335600Y-126786483D01*
X127473015Y-126534826D01*
X127573216Y-126266175D01*
X127634165Y-125985999D01*
X127654620Y-125700000D01*
X127634165Y-125414001D01*
X127573216Y-125133825D01*
X127473015Y-124865174D01*
X127335600Y-124613517D01*
X127163769Y-124383979D01*
X127163764Y-124383974D01*
X127163759Y-124383968D01*
X126961031Y-124181240D01*
X126961025Y-124181235D01*
X126961021Y-124181231D01*
X126731483Y-124009400D01*
X126731478Y-124009397D01*
X126731477Y-124009396D01*
X126479831Y-123871987D01*
X126479827Y-123871985D01*
X126377975Y-123833997D01*
X126211175Y-123771784D01*
X126211171Y-123771783D01*
X126211168Y-123771782D01*
X125931004Y-123710835D01*
X125716587Y-123695500D01*
X125573413Y-123695500D01*
X125358995Y-123710835D01*
X125078831Y-123771782D01*
X125078826Y-123771783D01*
X125078825Y-123771784D01*
X125013874Y-123796009D01*
X124810172Y-123871985D01*
X124810168Y-123871987D01*
X124558522Y-124009396D01*
X124558521Y-124009397D01*
X124328980Y-124181230D01*
X124328968Y-124181240D01*
X124126240Y-124383968D01*
X124126230Y-124383980D01*
X123954397Y-124613521D01*
X123954396Y-124613522D01*
X123816987Y-124865168D01*
X123816985Y-124865172D01*
X123716782Y-125133831D01*
X123655835Y-125413995D01*
X123635380Y-125699998D01*
X123635380Y-125700001D01*
X115765500Y-125700001D01*
X115765500Y-105330003D01*
X116126844Y-105330003D01*
X116131288Y-105383625D01*
X116131500Y-105388747D01*
X116131500Y-108028654D01*
X116138011Y-108089202D01*
X116138011Y-108089204D01*
X116189111Y-108226204D01*
X116276739Y-108343261D01*
X116393796Y-108430889D01*
X116508297Y-108473596D01*
X116525463Y-108479999D01*
X116530799Y-108481989D01*
X116558050Y-108484918D01*
X116591345Y-108488499D01*
X116591362Y-108488500D01*
X118388638Y-108488500D01*
X118388654Y-108488499D01*
X118415692Y-108485591D01*
X118449201Y-108481989D01*
X118454537Y-108479999D01*
X118492897Y-108465691D01*
X118586204Y-108430889D01*
X118586204Y-108430888D01*
X118586206Y-108430888D01*
X118586207Y-108430887D01*
X118685689Y-108356415D01*
X118751153Y-108331997D01*
X118819426Y-108346848D01*
X118834311Y-108356415D01*
X118933792Y-108430887D01*
X118933793Y-108430888D01*
X119065464Y-108479999D01*
X119070799Y-108481989D01*
X119098050Y-108484918D01*
X119131345Y-108488499D01*
X119131362Y-108488500D01*
X120928638Y-108488500D01*
X120928654Y-108488499D01*
X120955692Y-108485591D01*
X120989201Y-108481989D01*
X120994537Y-108479999D01*
X121011703Y-108473596D01*
X121126204Y-108430889D01*
X121232782Y-108351105D01*
X121298244Y-108326689D01*
X121366517Y-108341540D01*
X121381402Y-108351106D01*
X121477911Y-108423353D01*
X121477913Y-108423354D01*
X121612620Y-108473596D01*
X121612627Y-108473598D01*
X121672155Y-108479999D01*
X121672172Y-108480000D01*
X122320000Y-108480000D01*
X122320000Y-105776494D01*
X122424839Y-105824373D01*
X122533527Y-105840000D01*
X122606473Y-105840000D01*
X122715161Y-105824373D01*
X122820000Y-105776494D01*
X122820000Y-108480000D01*
X123467828Y-108480000D01*
X123467844Y-108479999D01*
X123527372Y-108473598D01*
X123527379Y-108473596D01*
X123662086Y-108423354D01*
X123662089Y-108423352D01*
X123758596Y-108351107D01*
X123824060Y-108326689D01*
X123892334Y-108341540D01*
X123907216Y-108351104D01*
X124013796Y-108430889D01*
X124128297Y-108473596D01*
X124145463Y-108479999D01*
X124150799Y-108481989D01*
X124178050Y-108484918D01*
X124211345Y-108488499D01*
X124211362Y-108488500D01*
X126008638Y-108488500D01*
X126008654Y-108488499D01*
X126035692Y-108485591D01*
X126069201Y-108481989D01*
X126074537Y-108479999D01*
X126112897Y-108465691D01*
X126206204Y-108430889D01*
X126206204Y-108430888D01*
X126206206Y-108430888D01*
X126206207Y-108430887D01*
X126305689Y-108356415D01*
X126371153Y-108331997D01*
X126439426Y-108346848D01*
X126454311Y-108356415D01*
X126553792Y-108430887D01*
X126553793Y-108430888D01*
X126685464Y-108479999D01*
X126690799Y-108481989D01*
X126718050Y-108484918D01*
X126751345Y-108488499D01*
X126751362Y-108488500D01*
X127527168Y-108488500D01*
X127594207Y-108508185D01*
X127614849Y-108524819D01*
X130924563Y-111834533D01*
X130927115Y-111837245D01*
X130968722Y-111884210D01*
X130968724Y-111884212D01*
X130968727Y-111884215D01*
X131020377Y-111919867D01*
X131023368Y-111922067D01*
X131072774Y-111960775D01*
X131082239Y-111965035D01*
X131101783Y-111976058D01*
X131110325Y-111981954D01*
X131168984Y-112004200D01*
X131172439Y-112005630D01*
X131172460Y-112005640D01*
X131229667Y-112031387D01*
X131229671Y-112031389D01*
X131239881Y-112033260D01*
X131261500Y-112039286D01*
X131271199Y-112042965D01*
X131333480Y-112050527D01*
X131337184Y-112051091D01*
X131352096Y-112053823D01*
X131398908Y-112062402D01*
X131398909Y-112062401D01*
X131398910Y-112062402D01*
X131461552Y-112058613D01*
X131465296Y-112058500D01*
X145876710Y-112058500D01*
X145880455Y-112058613D01*
X145884612Y-112058864D01*
X145943093Y-112062402D01*
X146004818Y-112051090D01*
X146008514Y-112050527D01*
X146070801Y-112042965D01*
X146080499Y-112039286D01*
X146102116Y-112033260D01*
X146112329Y-112031389D01*
X146169577Y-112005622D01*
X146172978Y-112004213D01*
X146231675Y-111981954D01*
X146240213Y-111976060D01*
X146259764Y-111965033D01*
X146269226Y-111960775D01*
X146318640Y-111922060D01*
X146321615Y-111919870D01*
X146373273Y-111884215D01*
X146414892Y-111837235D01*
X146417445Y-111834524D01*
X146482153Y-111769817D01*
X146543477Y-111736333D01*
X146569833Y-111733500D01*
X147346500Y-111733500D01*
X147413539Y-111753185D01*
X147459294Y-111805989D01*
X147470500Y-111857500D01*
X147470500Y-113876877D01*
X147450815Y-113943916D01*
X147434181Y-113964558D01*
X147302373Y-114096366D01*
X147241050Y-114129851D01*
X147194283Y-114130994D01*
X146987569Y-114096500D01*
X146762431Y-114096500D01*
X146540362Y-114133556D01*
X146327430Y-114206656D01*
X146327419Y-114206661D01*
X146129427Y-114313808D01*
X146129422Y-114313812D01*
X145951761Y-114452092D01*
X145951756Y-114452097D01*
X145799284Y-114617723D01*
X145799276Y-114617734D01*
X145676140Y-114806207D01*
X145585703Y-115012385D01*
X145530436Y-115230628D01*
X145530434Y-115230640D01*
X145511844Y-115454994D01*
X145511844Y-115455005D01*
X145530434Y-115679359D01*
X145530436Y-115679371D01*
X145585703Y-115897614D01*
X145676140Y-116103792D01*
X145799276Y-116292265D01*
X145799284Y-116292276D01*
X145951756Y-116457902D01*
X145951760Y-116457906D01*
X146129424Y-116596189D01*
X146129425Y-116596189D01*
X146129427Y-116596191D01*
X146171595Y-116619011D01*
X146327426Y-116703342D01*
X146540365Y-116776444D01*
X146762431Y-116813500D01*
X146987569Y-116813500D01*
X147209635Y-116776444D01*
X147422574Y-116703342D01*
X147620576Y-116596189D01*
X147798240Y-116457906D01*
X147950722Y-116292268D01*
X148041193Y-116153790D01*
X148094338Y-116108437D01*
X148163569Y-116099013D01*
X148226905Y-116128515D01*
X148248804Y-116153787D01*
X148339278Y-116292268D01*
X148339283Y-116292273D01*
X148339284Y-116292276D01*
X148491756Y-116457902D01*
X148491760Y-116457906D01*
X148669424Y-116596189D01*
X148669425Y-116596189D01*
X148669427Y-116596191D01*
X148711595Y-116619011D01*
X148867426Y-116703342D01*
X149080365Y-116776444D01*
X149302431Y-116813500D01*
X149527569Y-116813500D01*
X149749635Y-116776444D01*
X149962574Y-116703342D01*
X150160576Y-116596189D01*
X150338240Y-116457906D01*
X150490722Y-116292268D01*
X150581193Y-116153790D01*
X150634338Y-116108437D01*
X150703569Y-116099013D01*
X150766905Y-116128515D01*
X150788804Y-116153787D01*
X150879278Y-116292268D01*
X150879283Y-116292273D01*
X150879284Y-116292276D01*
X151031756Y-116457902D01*
X151031760Y-116457906D01*
X151209424Y-116596189D01*
X151209425Y-116596189D01*
X151209427Y-116596191D01*
X151251595Y-116619011D01*
X151407426Y-116703342D01*
X151620365Y-116776444D01*
X151842431Y-116813500D01*
X152067568Y-116813500D01*
X152067569Y-116813500D01*
X152274285Y-116779005D01*
X152343647Y-116787387D01*
X152382373Y-116813633D01*
X153323280Y-117754540D01*
X153333430Y-117767208D01*
X153333606Y-117767064D01*
X153338580Y-117773076D01*
X153391685Y-117822946D01*
X153413661Y-117844922D01*
X153419551Y-117849491D01*
X153423994Y-117853286D01*
X153459864Y-117886970D01*
X153459866Y-117886971D01*
X153459867Y-117886972D01*
X153478803Y-117897382D01*
X153495049Y-117908053D01*
X153512132Y-117921304D01*
X153512137Y-117921306D01*
X153557296Y-117940848D01*
X153562544Y-117943420D01*
X153591149Y-117959145D01*
X153605663Y-117967124D01*
X153621823Y-117971272D01*
X153626583Y-117972495D01*
X153644986Y-117978795D01*
X153664824Y-117987380D01*
X153699567Y-117992882D01*
X153713431Y-117995078D01*
X153719146Y-117996261D01*
X153766812Y-118008500D01*
X153788419Y-118008500D01*
X153807816Y-118010026D01*
X153829152Y-118013406D01*
X153878144Y-118008774D01*
X153883981Y-118008500D01*
X162704609Y-118008500D01*
X162720746Y-118010281D01*
X162720768Y-118010054D01*
X162728534Y-118010788D01*
X162728536Y-118010787D01*
X162728537Y-118010788D01*
X162801342Y-118008500D01*
X162832432Y-118008500D01*
X162839823Y-118007566D01*
X162845651Y-118007107D01*
X162894831Y-118005562D01*
X162915583Y-117999532D01*
X162934621Y-117995590D01*
X162956064Y-117992882D01*
X163001834Y-117974760D01*
X163007348Y-117972873D01*
X163033875Y-117965165D01*
X163054600Y-117959145D01*
X163073196Y-117948146D01*
X163090664Y-117939589D01*
X163110756Y-117931635D01*
X163150582Y-117902698D01*
X163155441Y-117899506D01*
X163197807Y-117874453D01*
X163213090Y-117859168D01*
X163227873Y-117846542D01*
X163245357Y-117833841D01*
X163276731Y-117795914D01*
X163280645Y-117791613D01*
X163804543Y-117267715D01*
X163817214Y-117257566D01*
X163817068Y-117257389D01*
X163823074Y-117252419D01*
X163823080Y-117252416D01*
X163872945Y-117199314D01*
X163894927Y-117177333D01*
X163899495Y-117171442D01*
X163903282Y-117167008D01*
X163936972Y-117131133D01*
X163947380Y-117112200D01*
X163958059Y-117095942D01*
X163971304Y-117078868D01*
X163990852Y-117033691D01*
X163993409Y-117028472D01*
X164017124Y-116985337D01*
X164022495Y-116964413D01*
X164028796Y-116946009D01*
X164037380Y-116926176D01*
X164042733Y-116892372D01*
X164045078Y-116877569D01*
X164046263Y-116871845D01*
X164047231Y-116868074D01*
X164057590Y-116827728D01*
X164093328Y-116767692D01*
X164155852Y-116736507D01*
X164217955Y-116741286D01*
X164277848Y-116761848D01*
X164320364Y-116776444D01*
X164542431Y-116813500D01*
X164767569Y-116813500D01*
X164989635Y-116776444D01*
X165202574Y-116703342D01*
X165400576Y-116596189D01*
X165578240Y-116457906D01*
X165730722Y-116292268D01*
X165853860Y-116103791D01*
X165944296Y-115897616D01*
X165999564Y-115679368D01*
X166018156Y-115455000D01*
X165999564Y-115230632D01*
X165944296Y-115012384D01*
X165853860Y-114806209D01*
X165837706Y-114781484D01*
X165730723Y-114617734D01*
X165730715Y-114617723D01*
X165578243Y-114452097D01*
X165578238Y-114452092D01*
X165459797Y-114359905D01*
X165400576Y-114313811D01*
X165400575Y-114313810D01*
X165400572Y-114313808D01*
X165202580Y-114206661D01*
X165202577Y-114206659D01*
X165202574Y-114206658D01*
X165202571Y-114206657D01*
X165202569Y-114206656D01*
X164989637Y-114133556D01*
X164767569Y-114096500D01*
X164542431Y-114096500D01*
X164320362Y-114133556D01*
X164222763Y-114167062D01*
X164152964Y-114170212D01*
X164092543Y-114135126D01*
X164060682Y-114072943D01*
X164058500Y-114049781D01*
X164058500Y-111780218D01*
X164078185Y-111713179D01*
X164130989Y-111667424D01*
X164200147Y-111657480D01*
X164222758Y-111662935D01*
X164270112Y-111679192D01*
X164320364Y-111696444D01*
X164542431Y-111733500D01*
X164767569Y-111733500D01*
X164989635Y-111696444D01*
X165202574Y-111623342D01*
X165400576Y-111516189D01*
X165578240Y-111377906D01*
X165730722Y-111212268D01*
X165853860Y-111023791D01*
X165944296Y-110817616D01*
X165999564Y-110599368D01*
X166018156Y-110375000D01*
X166007715Y-110249000D01*
X165999565Y-110150640D01*
X165999563Y-110150628D01*
X165944296Y-109932385D01*
X165853859Y-109726207D01*
X165730723Y-109537734D01*
X165730715Y-109537723D01*
X165578243Y-109372097D01*
X165578238Y-109372092D01*
X165440028Y-109264518D01*
X165400576Y-109233811D01*
X165400575Y-109233810D01*
X165400572Y-109233808D01*
X165202580Y-109126661D01*
X165202577Y-109126659D01*
X165202574Y-109126658D01*
X165202570Y-109126656D01*
X165197879Y-109124599D01*
X165198749Y-109122615D01*
X165149213Y-109087518D01*
X165123090Y-109022715D01*
X165122500Y-109010634D01*
X165122500Y-108612500D01*
X165142185Y-108545461D01*
X165194989Y-108499706D01*
X165246500Y-108488500D01*
X166648638Y-108488500D01*
X166648654Y-108488499D01*
X166675692Y-108485591D01*
X166709201Y-108481989D01*
X166714537Y-108479999D01*
X166731703Y-108473596D01*
X166846204Y-108430889D01*
X166963261Y-108343261D01*
X167050889Y-108226204D01*
X167101989Y-108089201D01*
X167105591Y-108055692D01*
X167108499Y-108028654D01*
X167108500Y-108028637D01*
X167108500Y-105388747D01*
X167108712Y-105383625D01*
X167113156Y-105330003D01*
X167113156Y-105329995D01*
X167108712Y-105276373D01*
X167108500Y-105271250D01*
X167108500Y-104431362D01*
X167108499Y-104431345D01*
X167105157Y-104400270D01*
X167101989Y-104370799D01*
X167050889Y-104233796D01*
X166963261Y-104116739D01*
X166846204Y-104029111D01*
X166709203Y-103978011D01*
X166648654Y-103971500D01*
X166648638Y-103971500D01*
X165215131Y-103971500D01*
X165148092Y-103951815D01*
X165102337Y-103899011D01*
X165099839Y-103893148D01*
X165088765Y-103865178D01*
X165086872Y-103859648D01*
X165085244Y-103854048D01*
X165073145Y-103812400D01*
X165062149Y-103793808D01*
X165053589Y-103776335D01*
X165052980Y-103774797D01*
X165045635Y-103756244D01*
X165045631Y-103756238D01*
X165016711Y-103716434D01*
X165013502Y-103711549D01*
X165001203Y-103690753D01*
X164988453Y-103669193D01*
X164988449Y-103669189D01*
X164988446Y-103669185D01*
X164973175Y-103653914D01*
X164960537Y-103639118D01*
X164947839Y-103621640D01*
X164909921Y-103590272D01*
X164905598Y-103586338D01*
X163679717Y-102360457D01*
X163669564Y-102347785D01*
X163669388Y-102347931D01*
X163664419Y-102341926D01*
X163664416Y-102341920D01*
X163638754Y-102317822D01*
X163611315Y-102292054D01*
X163589333Y-102270072D01*
X163583439Y-102265501D01*
X163579002Y-102261711D01*
X163543133Y-102228028D01*
X163543131Y-102228026D01*
X163524200Y-102217619D01*
X163507948Y-102206944D01*
X163490868Y-102193696D01*
X163490864Y-102193694D01*
X163445702Y-102174150D01*
X163440455Y-102171580D01*
X163397337Y-102147875D01*
X163397338Y-102147875D01*
X163376411Y-102142502D01*
X163358006Y-102136201D01*
X163338174Y-102127619D01*
X163289569Y-102119921D01*
X163283847Y-102118736D01*
X163250188Y-102110094D01*
X163236188Y-102106500D01*
X163236187Y-102106500D01*
X163214581Y-102106500D01*
X163195183Y-102104973D01*
X163186603Y-102103614D01*
X163173849Y-102101594D01*
X163173848Y-102101594D01*
X163124855Y-102106225D01*
X163119019Y-102106500D01*
X158614122Y-102106500D01*
X158547083Y-102086815D01*
X158526441Y-102070181D01*
X158405469Y-101949209D01*
X158371984Y-101887886D01*
X158376968Y-101818194D01*
X158418840Y-101762261D01*
X158439361Y-101749802D01*
X158443010Y-101748044D01*
X158443015Y-101748043D01*
X158445324Y-101746592D01*
X158491613Y-101717507D01*
X158557586Y-101698500D01*
X162271029Y-101698500D01*
X162278504Y-101698951D01*
X162321907Y-101704221D01*
X162357139Y-101708500D01*
X162357141Y-101708500D01*
X169811710Y-101708500D01*
X169815455Y-101708613D01*
X169819612Y-101708864D01*
X169878093Y-101712402D01*
X169939818Y-101701090D01*
X169943514Y-101700527D01*
X170005801Y-101692965D01*
X170015499Y-101689286D01*
X170037116Y-101683260D01*
X170047329Y-101681389D01*
X170104577Y-101655622D01*
X170107978Y-101654213D01*
X170166675Y-101631954D01*
X170175213Y-101626060D01*
X170194764Y-101615033D01*
X170204226Y-101610775D01*
X170253640Y-101572060D01*
X170256615Y-101569870D01*
X170308273Y-101534215D01*
X170349916Y-101487208D01*
X170352435Y-101484533D01*
X171540883Y-100296085D01*
X171602204Y-100262602D01*
X171668830Y-100266489D01*
X171675117Y-100268648D01*
X171675119Y-100268648D01*
X171675121Y-100268649D01*
X171913938Y-100308500D01*
X172156061Y-100308500D01*
X172156062Y-100308500D01*
X172394883Y-100268648D01*
X172623888Y-100190030D01*
X172836830Y-100074792D01*
X173027900Y-99926076D01*
X173191886Y-99747940D01*
X173206266Y-99725928D01*
X173259410Y-99680571D01*
X173328641Y-99671146D01*
X173391978Y-99700645D01*
X173413883Y-99725923D01*
X173424848Y-99742706D01*
X173424851Y-99742710D01*
X173587873Y-99919797D01*
X173587883Y-99919806D01*
X173777831Y-100067649D01*
X173777840Y-100067655D01*
X173989531Y-100182215D01*
X173989545Y-100182221D01*
X174217207Y-100260379D01*
X174325000Y-100278366D01*
X174325000Y-99291683D01*
X174353819Y-99309209D01*
X174499404Y-99350000D01*
X174612622Y-99350000D01*
X174724783Y-99334584D01*
X174825000Y-99291053D01*
X174825000Y-100278365D01*
X174932792Y-100260379D01*
X175160454Y-100182221D01*
X175160468Y-100182215D01*
X175372159Y-100067655D01*
X175372162Y-100067653D01*
X175508129Y-99961825D01*
X175573123Y-99936182D01*
X175641663Y-99949748D01*
X175691988Y-99998216D01*
X175700473Y-100016343D01*
X175711611Y-100046204D01*
X175799239Y-100163261D01*
X175916296Y-100250889D01*
X176053299Y-100301989D01*
X176080550Y-100304918D01*
X176113845Y-100308499D01*
X176113862Y-100308500D01*
X178116138Y-100308500D01*
X178116154Y-100308499D01*
X178143959Y-100305509D01*
X178176701Y-100301989D01*
X178313704Y-100250889D01*
X178430761Y-100163261D01*
X178518389Y-100046204D01*
X178565139Y-99920864D01*
X178569488Y-99909204D01*
X178569488Y-99909203D01*
X178569489Y-99909201D01*
X178574848Y-99859358D01*
X178575999Y-99848654D01*
X178576000Y-99848637D01*
X178576000Y-97751362D01*
X178575999Y-97751345D01*
X178572657Y-97720270D01*
X178569489Y-97690799D01*
X178566201Y-97681984D01*
X178540581Y-97613295D01*
X178518389Y-97553796D01*
X178430761Y-97436739D01*
X178313704Y-97349111D01*
X178176703Y-97298011D01*
X178116154Y-97291500D01*
X178116138Y-97291500D01*
X176113862Y-97291500D01*
X176113845Y-97291500D01*
X176053297Y-97298011D01*
X176053295Y-97298011D01*
X175916295Y-97349111D01*
X175799239Y-97436739D01*
X175711611Y-97553795D01*
X175700473Y-97583657D01*
X175658600Y-97639590D01*
X175593135Y-97664005D01*
X175524862Y-97649152D01*
X175508129Y-97638174D01*
X175372162Y-97532346D01*
X175372159Y-97532344D01*
X175160468Y-97417784D01*
X175160454Y-97417778D01*
X174932791Y-97339619D01*
X174825000Y-97321633D01*
X174825000Y-98308316D01*
X174796181Y-98290791D01*
X174650596Y-98250000D01*
X174537378Y-98250000D01*
X174425217Y-98265416D01*
X174325000Y-98308946D01*
X174325000Y-97321633D01*
X174324999Y-97321633D01*
X174217208Y-97339619D01*
X173989545Y-97417778D01*
X173989531Y-97417784D01*
X173777840Y-97532344D01*
X173777831Y-97532350D01*
X173587883Y-97680193D01*
X173587873Y-97680202D01*
X173424851Y-97857289D01*
X173424843Y-97857300D01*
X173413881Y-97874078D01*
X173360732Y-97919432D01*
X173291501Y-97928852D01*
X173228166Y-97899347D01*
X173206266Y-97874071D01*
X173206043Y-97873729D01*
X173191886Y-97852060D01*
X173027900Y-97673924D01*
X172873559Y-97553795D01*
X172836832Y-97525209D01*
X172836827Y-97525206D01*
X172623894Y-97409973D01*
X172623891Y-97409972D01*
X172623888Y-97409970D01*
X172623882Y-97409968D01*
X172623880Y-97409967D01*
X172394886Y-97331352D01*
X172195080Y-97298011D01*
X172156062Y-97291500D01*
X171913938Y-97291500D01*
X171874920Y-97298011D01*
X171675113Y-97331352D01*
X171446119Y-97409967D01*
X171446105Y-97409973D01*
X171233172Y-97525206D01*
X171233167Y-97525209D01*
X171042102Y-97673922D01*
X170878111Y-97852062D01*
X170745684Y-98054758D01*
X170648425Y-98276487D01*
X170588987Y-98511201D01*
X170582970Y-98583822D01*
X170574000Y-98692073D01*
X170574000Y-98907927D01*
X170578116Y-98957601D01*
X170588987Y-99088800D01*
X170603060Y-99144373D01*
X170600434Y-99214193D01*
X170570535Y-99262493D01*
X169577849Y-100255181D01*
X169516526Y-100288666D01*
X169490168Y-100291500D01*
X166407959Y-100291500D01*
X166340920Y-100271815D01*
X166295165Y-100219011D01*
X166285221Y-100149853D01*
X166314246Y-100086297D01*
X166331796Y-100069647D01*
X166443240Y-99982906D01*
X166558993Y-99857166D01*
X166595715Y-99817276D01*
X166595716Y-99817274D01*
X166595722Y-99817268D01*
X166718860Y-99628791D01*
X166809296Y-99422616D01*
X166864564Y-99204368D01*
X166864565Y-99204359D01*
X166883156Y-98980005D01*
X166883156Y-98979994D01*
X166864565Y-98755640D01*
X166864563Y-98755628D01*
X166856435Y-98723530D01*
X166809296Y-98537384D01*
X166718860Y-98331209D01*
X166712221Y-98321048D01*
X166633414Y-98200424D01*
X166595722Y-98142732D01*
X166595719Y-98142729D01*
X166595715Y-98142723D01*
X166450510Y-97984991D01*
X166419587Y-97922337D01*
X166427447Y-97852911D01*
X166471594Y-97798755D01*
X166498405Y-97784827D01*
X166588125Y-97751362D01*
X166616204Y-97740889D01*
X166733261Y-97653261D01*
X166820889Y-97536204D01*
X166871989Y-97399201D01*
X166875591Y-97365692D01*
X166878499Y-97338654D01*
X166878500Y-97338637D01*
X166878500Y-95541362D01*
X166878499Y-95541345D01*
X166872195Y-95482718D01*
X166871989Y-95480799D01*
X166820889Y-95343796D01*
X166733261Y-95226739D01*
X166616204Y-95139111D01*
X166498404Y-95095172D01*
X166442471Y-95053300D01*
X166418055Y-94987835D01*
X166432908Y-94919562D01*
X166450504Y-94895014D01*
X166595722Y-94737268D01*
X166718860Y-94548791D01*
X166809296Y-94342616D01*
X166864564Y-94124368D01*
X166864565Y-94124359D01*
X166883156Y-93900005D01*
X166883156Y-93899994D01*
X166864565Y-93675640D01*
X166864563Y-93675628D01*
X166833484Y-93552899D01*
X166809296Y-93457384D01*
X166718860Y-93251209D01*
X166703394Y-93227537D01*
X166606086Y-93078596D01*
X166595722Y-93062732D01*
X166595719Y-93062729D01*
X166595715Y-93062723D01*
X166443243Y-92897097D01*
X166443238Y-92897092D01*
X166282157Y-92771717D01*
X166265576Y-92758811D01*
X166265575Y-92758810D01*
X166265572Y-92758808D01*
X166067580Y-92651661D01*
X166067577Y-92651659D01*
X166067574Y-92651658D01*
X166067571Y-92651657D01*
X166067569Y-92651656D01*
X165854637Y-92578556D01*
X165632569Y-92541500D01*
X165407431Y-92541500D01*
X165185362Y-92578556D01*
X164972430Y-92651656D01*
X164972419Y-92651661D01*
X164774427Y-92758808D01*
X164774422Y-92758812D01*
X164596761Y-92897092D01*
X164596756Y-92897097D01*
X164444284Y-93062723D01*
X164444276Y-93062734D01*
X164321140Y-93251207D01*
X164230703Y-93457385D01*
X164175436Y-93675628D01*
X164175434Y-93675640D01*
X164156844Y-93899994D01*
X164156844Y-93900005D01*
X164175434Y-94124359D01*
X164175436Y-94124371D01*
X164230703Y-94342614D01*
X164321140Y-94548792D01*
X164444276Y-94737265D01*
X164444284Y-94737276D01*
X164589489Y-94895008D01*
X164620412Y-94957662D01*
X164612552Y-95027088D01*
X164568405Y-95081244D01*
X164541596Y-95095172D01*
X164423794Y-95139111D01*
X164306739Y-95226739D01*
X164219111Y-95343795D01*
X164168011Y-95480795D01*
X164168011Y-95480797D01*
X164161500Y-95541345D01*
X164161500Y-97338654D01*
X164168011Y-97399202D01*
X164168011Y-97399204D01*
X164219111Y-97536204D01*
X164306739Y-97653261D01*
X164423796Y-97740889D01*
X164475737Y-97760262D01*
X164541595Y-97784827D01*
X164597528Y-97826699D01*
X164621944Y-97892163D01*
X164607092Y-97960436D01*
X164589490Y-97984991D01*
X164444279Y-98142730D01*
X164444276Y-98142734D01*
X164321140Y-98331207D01*
X164230703Y-98537385D01*
X164175436Y-98755628D01*
X164175434Y-98755640D01*
X164156844Y-98979994D01*
X164156844Y-98980005D01*
X164175434Y-99204359D01*
X164175436Y-99204371D01*
X164230703Y-99422614D01*
X164321140Y-99628792D01*
X164444276Y-99817265D01*
X164444284Y-99817276D01*
X164594089Y-99980005D01*
X164596760Y-99982906D01*
X164708204Y-100069647D01*
X164749017Y-100126357D01*
X164752690Y-100196130D01*
X164718059Y-100256813D01*
X164656117Y-100289140D01*
X164632041Y-100291500D01*
X162674122Y-100291500D01*
X162607083Y-100271815D01*
X162586441Y-100255181D01*
X156109819Y-93778559D01*
X156076334Y-93717236D01*
X156073500Y-93690878D01*
X156073500Y-91422373D01*
X156092507Y-91356400D01*
X156128554Y-91299030D01*
X156148043Y-91268015D01*
X156208217Y-91096047D01*
X156211137Y-91070131D01*
X156228616Y-90915003D01*
X156228616Y-90914996D01*
X156208218Y-90733958D01*
X156208217Y-90733953D01*
X156179489Y-90651854D01*
X156148043Y-90561985D01*
X156051111Y-90407719D01*
X155922281Y-90278889D01*
X155787371Y-90194119D01*
X155768017Y-90181958D01*
X155768016Y-90181957D01*
X155768015Y-90181957D01*
X155713693Y-90162949D01*
X155596046Y-90121782D01*
X155596041Y-90121781D01*
X155415004Y-90101384D01*
X155414996Y-90101384D01*
X155233958Y-90121781D01*
X155233953Y-90121782D01*
X155061976Y-90181960D01*
X155060297Y-90182769D01*
X155059104Y-90182965D01*
X155055413Y-90184257D01*
X155055186Y-90183610D01*
X154991356Y-90194119D01*
X154927222Y-90166394D01*
X154888259Y-90108397D01*
X154882500Y-90071047D01*
X154882500Y-89240122D01*
X154902185Y-89173083D01*
X154918819Y-89152441D01*
X155126441Y-88944819D01*
X155187764Y-88911334D01*
X155214122Y-88908500D01*
X156488638Y-88908500D01*
X156488654Y-88908499D01*
X156515692Y-88905591D01*
X156549201Y-88901989D01*
X156554537Y-88899999D01*
X156592897Y-88885691D01*
X156686204Y-88850889D01*
X156686204Y-88850888D01*
X156686206Y-88850888D01*
X156686207Y-88850887D01*
X156785689Y-88776415D01*
X156851153Y-88751997D01*
X156919426Y-88766848D01*
X156934311Y-88776415D01*
X157033792Y-88850887D01*
X157033793Y-88850888D01*
X157165464Y-88899999D01*
X157170799Y-88901989D01*
X157198050Y-88904918D01*
X157231345Y-88908499D01*
X157231362Y-88908500D01*
X159028638Y-88908500D01*
X159028654Y-88908499D01*
X159055692Y-88905591D01*
X159089201Y-88901989D01*
X159094537Y-88899999D01*
X159111703Y-88893596D01*
X159226204Y-88850889D01*
X159332782Y-88771105D01*
X159398244Y-88746689D01*
X159466517Y-88761540D01*
X159481402Y-88771106D01*
X159577911Y-88843353D01*
X159577913Y-88843354D01*
X159712620Y-88893596D01*
X159712627Y-88893598D01*
X159772155Y-88899999D01*
X159772172Y-88900000D01*
X160420000Y-88900000D01*
X160420000Y-87996494D01*
X160524839Y-88044373D01*
X160633527Y-88060000D01*
X160706473Y-88060000D01*
X160815161Y-88044373D01*
X160920000Y-87996494D01*
X160920000Y-88900000D01*
X161167500Y-88900000D01*
X161234539Y-88919685D01*
X161280294Y-88972489D01*
X161291500Y-89024000D01*
X161291500Y-90355877D01*
X161271815Y-90422916D01*
X161255181Y-90443558D01*
X158263097Y-93435641D01*
X158201774Y-93469126D01*
X158189308Y-93471179D01*
X158183957Y-93471782D01*
X158183955Y-93471782D01*
X158011983Y-93531957D01*
X157857718Y-93628889D01*
X157728889Y-93757718D01*
X157631958Y-93911982D01*
X157571782Y-94083953D01*
X157571781Y-94083958D01*
X157551384Y-94264996D01*
X157551384Y-94265003D01*
X157571781Y-94446041D01*
X157571782Y-94446046D01*
X157607735Y-94548792D01*
X157631254Y-94616007D01*
X157631958Y-94618017D01*
X157675294Y-94686985D01*
X157728889Y-94772281D01*
X157857719Y-94901111D01*
X158011985Y-94998043D01*
X158169901Y-95053300D01*
X158183953Y-95058217D01*
X158183958Y-95058218D01*
X158364996Y-95078616D01*
X158365000Y-95078616D01*
X158365004Y-95078616D01*
X158546041Y-95058218D01*
X158546044Y-95058217D01*
X158546047Y-95058217D01*
X158718015Y-94998043D01*
X158872281Y-94901111D01*
X159001111Y-94772281D01*
X159098043Y-94618015D01*
X159158217Y-94446047D01*
X159158819Y-94440698D01*
X159185884Y-94376285D01*
X159194349Y-94366909D01*
X161436257Y-92125001D01*
X170090380Y-92125001D01*
X170110835Y-92411004D01*
X170171782Y-92691168D01*
X170171784Y-92691175D01*
X170229872Y-92846915D01*
X170271985Y-92959827D01*
X170271987Y-92959831D01*
X170409396Y-93211477D01*
X170409397Y-93211478D01*
X170409400Y-93211483D01*
X170581231Y-93441021D01*
X170581235Y-93441025D01*
X170581240Y-93441031D01*
X170783968Y-93643759D01*
X170783974Y-93643764D01*
X170783979Y-93643769D01*
X171013517Y-93815600D01*
X171013521Y-93815602D01*
X171013522Y-93815603D01*
X171265168Y-93953012D01*
X171265172Y-93953014D01*
X171265174Y-93953015D01*
X171533825Y-94053216D01*
X171618753Y-94071691D01*
X171813995Y-94114164D01*
X171813997Y-94114164D01*
X171814001Y-94114165D01*
X172028413Y-94129500D01*
X172171587Y-94129500D01*
X172385999Y-94114165D01*
X172666175Y-94053216D01*
X172934826Y-93953015D01*
X173186483Y-93815600D01*
X173416021Y-93643769D01*
X173618769Y-93441021D01*
X173790600Y-93211483D01*
X173928015Y-92959826D01*
X174028216Y-92691175D01*
X174089165Y-92410999D01*
X174109620Y-92125000D01*
X174089165Y-91839001D01*
X174028216Y-91558825D01*
X173928015Y-91290174D01*
X173915915Y-91268015D01*
X173790603Y-91038522D01*
X173790602Y-91038521D01*
X173790600Y-91038517D01*
X173618769Y-90808979D01*
X173618764Y-90808974D01*
X173618759Y-90808968D01*
X173416031Y-90606240D01*
X173416025Y-90606235D01*
X173416021Y-90606231D01*
X173186483Y-90434400D01*
X173186478Y-90434397D01*
X173186477Y-90434396D01*
X172934831Y-90296987D01*
X172934827Y-90296985D01*
X172832975Y-90258997D01*
X172666175Y-90196784D01*
X172666171Y-90196783D01*
X172666168Y-90196782D01*
X172386004Y-90135835D01*
X172171587Y-90120500D01*
X172028413Y-90120500D01*
X171813995Y-90135835D01*
X171533831Y-90196782D01*
X171533826Y-90196783D01*
X171533825Y-90196784D01*
X171468874Y-90221009D01*
X171265172Y-90296985D01*
X171265168Y-90296987D01*
X171013522Y-90434396D01*
X171013521Y-90434397D01*
X170783980Y-90606230D01*
X170783968Y-90606240D01*
X170581240Y-90808968D01*
X170581230Y-90808980D01*
X170409397Y-91038521D01*
X170409396Y-91038522D01*
X170271987Y-91290168D01*
X170271985Y-91290172D01*
X170171782Y-91558831D01*
X170110835Y-91838995D01*
X170090380Y-92124998D01*
X170090380Y-92125001D01*
X161436257Y-92125001D01*
X162354543Y-91206715D01*
X162367214Y-91196566D01*
X162367068Y-91196389D01*
X162373074Y-91191419D01*
X162373080Y-91191416D01*
X162422945Y-91138314D01*
X162444927Y-91116333D01*
X162449495Y-91110442D01*
X162453282Y-91106008D01*
X162486972Y-91070133D01*
X162497380Y-91051200D01*
X162508059Y-91034942D01*
X162521304Y-91017868D01*
X162540852Y-90972691D01*
X162543409Y-90967472D01*
X162567124Y-90924337D01*
X162572495Y-90903413D01*
X162578796Y-90885009D01*
X162587380Y-90865176D01*
X162592733Y-90831372D01*
X162595078Y-90816569D01*
X162596263Y-90810844D01*
X162596745Y-90808968D01*
X162608500Y-90763188D01*
X162608500Y-90741580D01*
X162610027Y-90722180D01*
X162613406Y-90700848D01*
X162608775Y-90651854D01*
X162608500Y-90646017D01*
X162608500Y-89032500D01*
X162628185Y-88965461D01*
X162680989Y-88919706D01*
X162732500Y-88908500D01*
X164108638Y-88908500D01*
X164108654Y-88908499D01*
X164135692Y-88905591D01*
X164169201Y-88901989D01*
X164174537Y-88899999D01*
X164212897Y-88885691D01*
X164306204Y-88850889D01*
X164306204Y-88850888D01*
X164306206Y-88850888D01*
X164306207Y-88850887D01*
X164405689Y-88776415D01*
X164471153Y-88751997D01*
X164539426Y-88766848D01*
X164554311Y-88776415D01*
X164653792Y-88850887D01*
X164653793Y-88850888D01*
X164785464Y-88899999D01*
X164790799Y-88901989D01*
X164818050Y-88904918D01*
X164851345Y-88908499D01*
X164851362Y-88908500D01*
X166648638Y-88908500D01*
X166648654Y-88908499D01*
X166675692Y-88905591D01*
X166709201Y-88901989D01*
X166714537Y-88899999D01*
X166731703Y-88893596D01*
X166846204Y-88850889D01*
X166963261Y-88763261D01*
X167050889Y-88646204D01*
X167101989Y-88509201D01*
X167105974Y-88472132D01*
X167108499Y-88448654D01*
X167108500Y-88448637D01*
X167108500Y-87608747D01*
X167108712Y-87603625D01*
X167113156Y-87550003D01*
X167113156Y-87549995D01*
X167108712Y-87496373D01*
X167108500Y-87491250D01*
X167108500Y-84851362D01*
X167108499Y-84851345D01*
X167105157Y-84820270D01*
X167101989Y-84790799D01*
X167050889Y-84653796D01*
X166963261Y-84536739D01*
X166846204Y-84449111D01*
X166842322Y-84447663D01*
X166709203Y-84398011D01*
X166648654Y-84391500D01*
X166648638Y-84391500D01*
X164851362Y-84391500D01*
X164851345Y-84391500D01*
X164790797Y-84398011D01*
X164790795Y-84398011D01*
X164653795Y-84449111D01*
X164554311Y-84523585D01*
X164488846Y-84548002D01*
X164420573Y-84533150D01*
X164405689Y-84523585D01*
X164344844Y-84478037D01*
X164306204Y-84449111D01*
X164302322Y-84447663D01*
X164169203Y-84398011D01*
X164108654Y-84391500D01*
X164108638Y-84391500D01*
X163442401Y-84391500D01*
X163375362Y-84371815D01*
X163329607Y-84319011D01*
X163319663Y-84249853D01*
X163328598Y-84218258D01*
X163344847Y-84180705D01*
X163347409Y-84175472D01*
X163371124Y-84132337D01*
X163376495Y-84111413D01*
X163382796Y-84093009D01*
X163391380Y-84073176D01*
X163397428Y-84034987D01*
X163399078Y-84024569D01*
X163400263Y-84018844D01*
X163400842Y-84016589D01*
X163412500Y-83971188D01*
X163412500Y-83949580D01*
X163414027Y-83930180D01*
X163417406Y-83908848D01*
X163417406Y-83908845D01*
X163412775Y-83859854D01*
X163412500Y-83854017D01*
X163412500Y-82984576D01*
X163432185Y-82917537D01*
X163484989Y-82871782D01*
X163554147Y-82861838D01*
X163576763Y-82867295D01*
X163690454Y-82906325D01*
X163705365Y-82911444D01*
X163927431Y-82948500D01*
X164152569Y-82948500D01*
X164374635Y-82911444D01*
X164587574Y-82838342D01*
X164785576Y-82731189D01*
X164963240Y-82592906D01*
X165115722Y-82427268D01*
X165206193Y-82288790D01*
X165259338Y-82243437D01*
X165328569Y-82234013D01*
X165391905Y-82263515D01*
X165413804Y-82288787D01*
X165504278Y-82427268D01*
X165504283Y-82427273D01*
X165504284Y-82427276D01*
X165625673Y-82559137D01*
X165656760Y-82592906D01*
X165834424Y-82731189D01*
X165834425Y-82731189D01*
X165834427Y-82731191D01*
X165903119Y-82768365D01*
X166032426Y-82838342D01*
X166245365Y-82911444D01*
X166467431Y-82948500D01*
X166692569Y-82948500D01*
X166914635Y-82911444D01*
X167127574Y-82838342D01*
X167325576Y-82731189D01*
X167503240Y-82592906D01*
X167655722Y-82427268D01*
X167746193Y-82288790D01*
X167799338Y-82243437D01*
X167868569Y-82234013D01*
X167931905Y-82263515D01*
X167953804Y-82288787D01*
X168044278Y-82427268D01*
X168044283Y-82427273D01*
X168044284Y-82427276D01*
X168165673Y-82559137D01*
X168196760Y-82592906D01*
X168374424Y-82731189D01*
X168374425Y-82731189D01*
X168374427Y-82731191D01*
X168443119Y-82768365D01*
X168572426Y-82838342D01*
X168785365Y-82911444D01*
X169007431Y-82948500D01*
X169232569Y-82948500D01*
X169454635Y-82911444D01*
X169667574Y-82838342D01*
X169865576Y-82731189D01*
X170043240Y-82592906D01*
X170195722Y-82427268D01*
X170286193Y-82288790D01*
X170339338Y-82243437D01*
X170408569Y-82234013D01*
X170471905Y-82263515D01*
X170493804Y-82288787D01*
X170584278Y-82427268D01*
X170584283Y-82427273D01*
X170584284Y-82427276D01*
X170705673Y-82559137D01*
X170736760Y-82592906D01*
X170914424Y-82731189D01*
X170914425Y-82731189D01*
X170914427Y-82731191D01*
X170983119Y-82768365D01*
X171112426Y-82838342D01*
X171325365Y-82911444D01*
X171547431Y-82948500D01*
X171772569Y-82948500D01*
X171994635Y-82911444D01*
X172207574Y-82838342D01*
X172405576Y-82731189D01*
X172583240Y-82592906D01*
X172735722Y-82427268D01*
X172858860Y-82238791D01*
X172949296Y-82032616D01*
X173004564Y-81814368D01*
X173007326Y-81781041D01*
X173023156Y-81590005D01*
X173023156Y-81589994D01*
X173004565Y-81365640D01*
X173004563Y-81365628D01*
X172952087Y-81158406D01*
X172949296Y-81147384D01*
X172858860Y-80941209D01*
X172857555Y-80939212D01*
X172771035Y-80806783D01*
X172735722Y-80752732D01*
X172735719Y-80752729D01*
X172735715Y-80752723D01*
X172583243Y-80587097D01*
X172583238Y-80587092D01*
X172405577Y-80448812D01*
X172405577Y-80448811D01*
X172362303Y-80425393D01*
X172312713Y-80376173D01*
X172297605Y-80307957D01*
X172321775Y-80242401D01*
X172350198Y-80214763D01*
X172531079Y-80088108D01*
X172698105Y-79921082D01*
X172833600Y-79727578D01*
X172933429Y-79513492D01*
X172933432Y-79513486D01*
X172990636Y-79300000D01*
X172093686Y-79300000D01*
X172119493Y-79259844D01*
X172160000Y-79121889D01*
X172160000Y-78978111D01*
X172119493Y-78840156D01*
X172093686Y-78800000D01*
X172990636Y-78800000D01*
X172990635Y-78799999D01*
X172933432Y-78586513D01*
X172933429Y-78586507D01*
X172833600Y-78372422D01*
X172833599Y-78372420D01*
X172698113Y-78178926D01*
X172698108Y-78178920D01*
X172531082Y-78011894D01*
X172337578Y-77876399D01*
X172123492Y-77776570D01*
X172123486Y-77776567D01*
X171910000Y-77719364D01*
X171910000Y-78614498D01*
X171802315Y-78565320D01*
X171695763Y-78550000D01*
X171624237Y-78550000D01*
X171517685Y-78565320D01*
X171410000Y-78614498D01*
X171410000Y-77719364D01*
X171409999Y-77719364D01*
X171196513Y-77776567D01*
X171196507Y-77776570D01*
X170982422Y-77876399D01*
X170982420Y-77876400D01*
X170788926Y-78011886D01*
X170788920Y-78011891D01*
X170621891Y-78178920D01*
X170621890Y-78178922D01*
X170495131Y-78359952D01*
X170440554Y-78403577D01*
X170371055Y-78410769D01*
X170308701Y-78379247D01*
X170289752Y-78356656D01*
X170195722Y-78212732D01*
X170195715Y-78212725D01*
X170195715Y-78212723D01*
X170043243Y-78047097D01*
X170043238Y-78047092D01*
X169865577Y-77908812D01*
X169865572Y-77908808D01*
X169667580Y-77801661D01*
X169667577Y-77801659D01*
X169667574Y-77801658D01*
X169667571Y-77801657D01*
X169667569Y-77801656D01*
X169454637Y-77728556D01*
X169232569Y-77691500D01*
X169007431Y-77691500D01*
X168785362Y-77728556D01*
X168572430Y-77801656D01*
X168572419Y-77801661D01*
X168374427Y-77908808D01*
X168374422Y-77908812D01*
X168196761Y-78047092D01*
X168196756Y-78047097D01*
X168044284Y-78212723D01*
X168044276Y-78212734D01*
X167953808Y-78351206D01*
X167900662Y-78396562D01*
X167831431Y-78405986D01*
X167768095Y-78376484D01*
X167746192Y-78351206D01*
X167655723Y-78212734D01*
X167655715Y-78212723D01*
X167503243Y-78047097D01*
X167503238Y-78047092D01*
X167325577Y-77908812D01*
X167325572Y-77908808D01*
X167127580Y-77801661D01*
X167127577Y-77801659D01*
X167127574Y-77801658D01*
X167127571Y-77801657D01*
X167127569Y-77801656D01*
X166914637Y-77728556D01*
X166692569Y-77691500D01*
X166467431Y-77691500D01*
X166245362Y-77728556D01*
X166032430Y-77801656D01*
X166032419Y-77801661D01*
X165834427Y-77908808D01*
X165834422Y-77908812D01*
X165656761Y-78047092D01*
X165656756Y-78047097D01*
X165504284Y-78212723D01*
X165504276Y-78212734D01*
X165413808Y-78351206D01*
X165360662Y-78396562D01*
X165291431Y-78405986D01*
X165228095Y-78376484D01*
X165206192Y-78351206D01*
X165115723Y-78212734D01*
X165115715Y-78212723D01*
X164963243Y-78047097D01*
X164963238Y-78047092D01*
X164785577Y-77908812D01*
X164785572Y-77908808D01*
X164587580Y-77801661D01*
X164587577Y-77801659D01*
X164587574Y-77801658D01*
X164587571Y-77801657D01*
X164587569Y-77801656D01*
X164374637Y-77728556D01*
X164152569Y-77691500D01*
X163927431Y-77691500D01*
X163705362Y-77728556D01*
X163492430Y-77801656D01*
X163492419Y-77801661D01*
X163294427Y-77908808D01*
X163294422Y-77908812D01*
X163116761Y-78047092D01*
X163116756Y-78047097D01*
X162964284Y-78212723D01*
X162964276Y-78212734D01*
X162873808Y-78351206D01*
X162820662Y-78396562D01*
X162751431Y-78405986D01*
X162688095Y-78376484D01*
X162666192Y-78351206D01*
X162575723Y-78212734D01*
X162575715Y-78212723D01*
X162423243Y-78047097D01*
X162423238Y-78047092D01*
X162245577Y-77908812D01*
X162245572Y-77908808D01*
X162047580Y-77801661D01*
X162047577Y-77801659D01*
X162047574Y-77801658D01*
X162047571Y-77801657D01*
X162047569Y-77801656D01*
X161834637Y-77728556D01*
X161612569Y-77691500D01*
X161387431Y-77691500D01*
X161180715Y-77725994D01*
X161111350Y-77717612D01*
X161072625Y-77691366D01*
X160380257Y-76998998D01*
X159651717Y-76270457D01*
X159641564Y-76257785D01*
X159641388Y-76257931D01*
X159636419Y-76251926D01*
X159636416Y-76251920D01*
X159610754Y-76227822D01*
X159583315Y-76202054D01*
X159561333Y-76180072D01*
X159555439Y-76175501D01*
X159551002Y-76171711D01*
X159515133Y-76138028D01*
X159515131Y-76138026D01*
X159496200Y-76127619D01*
X159479948Y-76116944D01*
X159462868Y-76103696D01*
X159462864Y-76103694D01*
X159417702Y-76084150D01*
X159412455Y-76081580D01*
X159369337Y-76057875D01*
X159369338Y-76057875D01*
X159348411Y-76052502D01*
X159330006Y-76046201D01*
X159310174Y-76037619D01*
X159261569Y-76029921D01*
X159255847Y-76028736D01*
X159219627Y-76019437D01*
X159208188Y-76016500D01*
X159208187Y-76016500D01*
X159186581Y-76016500D01*
X159167183Y-76014973D01*
X159158603Y-76013614D01*
X159145849Y-76011594D01*
X159145848Y-76011594D01*
X159096855Y-76016225D01*
X159091019Y-76016500D01*
X150181391Y-76016500D01*
X150165253Y-76014718D01*
X150165232Y-76014946D01*
X150157465Y-76014211D01*
X150084658Y-76016500D01*
X150053566Y-76016500D01*
X150046172Y-76017433D01*
X150040354Y-76017891D01*
X149991173Y-76019437D01*
X149991163Y-76019439D01*
X149970422Y-76025464D01*
X149951382Y-76029407D01*
X149929946Y-76032116D01*
X149929931Y-76032119D01*
X149884178Y-76050233D01*
X149878654Y-76052124D01*
X149831402Y-76065854D01*
X149831394Y-76065857D01*
X149812803Y-76076852D01*
X149795338Y-76085408D01*
X149775247Y-76093363D01*
X149775242Y-76093366D01*
X149735427Y-76122292D01*
X149730545Y-76125499D01*
X149688190Y-76150549D01*
X149672916Y-76165823D01*
X149658128Y-76178454D01*
X149640643Y-76191158D01*
X149640640Y-76191162D01*
X149609266Y-76229084D01*
X149605334Y-76233406D01*
X148940453Y-76898285D01*
X148927785Y-76908435D01*
X148927931Y-76908611D01*
X148921920Y-76913583D01*
X148872053Y-76966686D01*
X148850072Y-76988667D01*
X148845492Y-76994569D01*
X148841708Y-76998998D01*
X148808029Y-77034865D01*
X148808024Y-77034872D01*
X148797618Y-77053800D01*
X148786942Y-77070054D01*
X148773695Y-77087133D01*
X148754150Y-77132297D01*
X148751580Y-77137543D01*
X148727876Y-77180661D01*
X148722502Y-77201589D01*
X148716203Y-77219987D01*
X148707619Y-77239825D01*
X148699923Y-77288420D01*
X148698738Y-77294143D01*
X148686500Y-77341809D01*
X148686500Y-77363413D01*
X148684974Y-77382808D01*
X148681594Y-77404151D01*
X148686225Y-77453143D01*
X148686500Y-77458981D01*
X148686500Y-78517626D01*
X148667494Y-78583598D01*
X148611957Y-78671984D01*
X148551782Y-78843953D01*
X148551781Y-78843958D01*
X148531384Y-79024996D01*
X148531384Y-79025003D01*
X148551781Y-79206041D01*
X148551782Y-79206046D01*
X148592949Y-79323693D01*
X148608580Y-79368365D01*
X148611958Y-79378017D01*
X148683966Y-79492616D01*
X148708889Y-79532281D01*
X148837719Y-79661111D01*
X148991985Y-79758043D01*
X149163953Y-79818217D01*
X149163958Y-79818218D01*
X149344996Y-79838616D01*
X149345000Y-79838616D01*
X149345004Y-79838616D01*
X149526041Y-79818218D01*
X149526044Y-79818217D01*
X149526047Y-79818217D01*
X149698015Y-79758043D01*
X149852281Y-79661111D01*
X149981111Y-79532281D01*
X150078043Y-79378015D01*
X150138217Y-79206047D01*
X150139238Y-79196985D01*
X150158616Y-79025003D01*
X150158616Y-79024996D01*
X150138218Y-78843958D01*
X150138217Y-78843953D01*
X150107715Y-78756783D01*
X150078043Y-78671985D01*
X150022506Y-78583598D01*
X150003500Y-78517626D01*
X150003500Y-77749122D01*
X150023185Y-77682083D01*
X150039819Y-77661441D01*
X150331441Y-77369819D01*
X150392764Y-77336334D01*
X150419122Y-77333500D01*
X157511812Y-77333500D01*
X158800878Y-77333500D01*
X158867917Y-77353185D01*
X158888559Y-77369819D01*
X158998559Y-77479819D01*
X159032044Y-77541142D01*
X159027060Y-77610834D01*
X158985188Y-77666767D01*
X158919724Y-77691184D01*
X158910878Y-77691500D01*
X158847431Y-77691500D01*
X158625362Y-77728556D01*
X158412430Y-77801656D01*
X158412419Y-77801661D01*
X158214427Y-77908808D01*
X158214422Y-77908812D01*
X158036761Y-78047092D01*
X158036756Y-78047097D01*
X157884284Y-78212723D01*
X157884276Y-78212734D01*
X157793808Y-78351206D01*
X157740662Y-78396562D01*
X157671431Y-78405986D01*
X157608095Y-78376484D01*
X157586192Y-78351206D01*
X157495723Y-78212734D01*
X157495715Y-78212723D01*
X157343243Y-78047097D01*
X157343238Y-78047092D01*
X157165577Y-77908812D01*
X157165572Y-77908808D01*
X156967580Y-77801661D01*
X156967577Y-77801659D01*
X156967574Y-77801658D01*
X156967571Y-77801657D01*
X156967569Y-77801656D01*
X156754637Y-77728556D01*
X156532569Y-77691500D01*
X156307431Y-77691500D01*
X156085362Y-77728556D01*
X155872430Y-77801656D01*
X155872419Y-77801661D01*
X155674427Y-77908808D01*
X155674422Y-77908812D01*
X155496761Y-78047092D01*
X155496756Y-78047097D01*
X155344284Y-78212723D01*
X155344276Y-78212734D01*
X155221140Y-78401207D01*
X155130703Y-78607385D01*
X155075436Y-78825628D01*
X155075434Y-78825640D01*
X155056844Y-79049994D01*
X155056844Y-79050005D01*
X155075434Y-79274359D01*
X155075436Y-79274371D01*
X155130703Y-79492614D01*
X155132367Y-79497459D01*
X155131197Y-79497860D01*
X155139352Y-79561334D01*
X155109375Y-79624446D01*
X155050035Y-79661333D01*
X155016893Y-79665844D01*
X153678127Y-79665844D01*
X153612155Y-79646837D01*
X153548022Y-79606539D01*
X153548019Y-79606537D01*
X153376046Y-79546361D01*
X153376041Y-79546360D01*
X153195004Y-79525963D01*
X153194996Y-79525963D01*
X153013958Y-79546360D01*
X153013953Y-79546361D01*
X152841982Y-79606537D01*
X152687718Y-79703468D01*
X152558889Y-79832297D01*
X152461958Y-79986561D01*
X152401782Y-80158532D01*
X152401781Y-80158537D01*
X152381384Y-80339575D01*
X152381384Y-80339582D01*
X152401781Y-80520620D01*
X152401782Y-80520625D01*
X152461958Y-80692596D01*
X152520889Y-80786384D01*
X152558889Y-80846860D01*
X152687719Y-80975690D01*
X152841985Y-81072622D01*
X152966416Y-81116162D01*
X153013953Y-81132796D01*
X153013958Y-81132797D01*
X153194996Y-81153195D01*
X153195000Y-81153195D01*
X153195004Y-81153195D01*
X153376041Y-81132797D01*
X153376044Y-81132796D01*
X153376047Y-81132796D01*
X153548015Y-81072622D01*
X153702281Y-80975690D01*
X153708808Y-80969163D01*
X153770131Y-80935678D01*
X153796489Y-80932844D01*
X154937500Y-80932844D01*
X155004539Y-80952529D01*
X155050294Y-81005333D01*
X155061500Y-81056844D01*
X155061500Y-82488654D01*
X155061633Y-82491143D01*
X155061500Y-82491705D01*
X155061500Y-82491959D01*
X155061440Y-82491959D01*
X155045554Y-82559137D01*
X154995267Y-82607645D01*
X154926738Y-82621265D01*
X154896855Y-82614801D01*
X154731054Y-82556784D01*
X154731041Y-82556781D01*
X154550004Y-82536384D01*
X154549996Y-82536384D01*
X154368958Y-82556781D01*
X154368953Y-82556782D01*
X154196981Y-82616958D01*
X154108600Y-82672493D01*
X154042627Y-82691500D01*
X145636391Y-82691500D01*
X145620253Y-82689718D01*
X145620232Y-82689946D01*
X145612465Y-82689211D01*
X145539658Y-82691500D01*
X145508566Y-82691500D01*
X145501172Y-82692433D01*
X145495354Y-82692891D01*
X145446173Y-82694437D01*
X145446163Y-82694439D01*
X145425422Y-82700464D01*
X145406382Y-82704407D01*
X145384946Y-82707116D01*
X145384931Y-82707119D01*
X145339178Y-82725233D01*
X145333654Y-82727124D01*
X145286399Y-82740855D01*
X145267808Y-82751850D01*
X145250339Y-82760408D01*
X145230246Y-82768364D01*
X145230245Y-82768364D01*
X145230244Y-82768365D01*
X145205641Y-82786239D01*
X145190433Y-82797289D01*
X145185550Y-82800496D01*
X145143192Y-82825546D01*
X145127913Y-82840826D01*
X145113127Y-82853455D01*
X145095643Y-82866159D01*
X145095641Y-82866161D01*
X145095640Y-82866162D01*
X145064271Y-82904078D01*
X145060339Y-82908399D01*
X143814256Y-84154483D01*
X143752933Y-84187968D01*
X143683241Y-84182984D01*
X143627308Y-84141112D01*
X143602891Y-84075648D01*
X143617743Y-84007375D01*
X143621582Y-84000829D01*
X143624828Y-83995663D01*
X143683043Y-83903015D01*
X143743217Y-83731047D01*
X143743819Y-83725698D01*
X143770884Y-83661285D01*
X143779349Y-83651909D01*
X145136440Y-82294819D01*
X145197763Y-82261334D01*
X145224121Y-82258500D01*
X146992627Y-82258500D01*
X147058600Y-82277507D01*
X147146982Y-82333041D01*
X147146980Y-82333041D01*
X147146984Y-82333042D01*
X147146985Y-82333043D01*
X147318953Y-82393217D01*
X147318958Y-82393218D01*
X147499996Y-82413616D01*
X147500000Y-82413616D01*
X147500004Y-82413616D01*
X147681041Y-82393218D01*
X147681044Y-82393217D01*
X147681047Y-82393217D01*
X147853015Y-82333043D01*
X148007281Y-82236111D01*
X148136111Y-82107281D01*
X148233043Y-81953015D01*
X148293217Y-81781047D01*
X148313616Y-81600000D01*
X148312489Y-81590000D01*
X148293218Y-81418958D01*
X148293217Y-81418953D01*
X148274558Y-81365628D01*
X148233043Y-81246985D01*
X148136111Y-81092719D01*
X148007281Y-80963889D01*
X147968006Y-80939211D01*
X147853017Y-80866958D01*
X147853016Y-80866957D01*
X147853015Y-80866957D01*
X147795581Y-80846860D01*
X147681046Y-80806782D01*
X147681041Y-80806781D01*
X147500004Y-80786384D01*
X147499996Y-80786384D01*
X147318958Y-80806781D01*
X147318953Y-80806782D01*
X147146981Y-80866958D01*
X147058600Y-80922493D01*
X146992627Y-80941500D01*
X144986391Y-80941500D01*
X144970253Y-80939718D01*
X144970232Y-80939946D01*
X144962465Y-80939211D01*
X144889658Y-80941500D01*
X144858566Y-80941500D01*
X144851172Y-80942433D01*
X144845354Y-80942891D01*
X144796169Y-80944437D01*
X144775419Y-80950465D01*
X144756380Y-80954407D01*
X144734944Y-80957116D01*
X144734937Y-80957117D01*
X144734936Y-80957118D01*
X144734934Y-80957118D01*
X144734933Y-80957119D01*
X144689169Y-80975237D01*
X144683642Y-80977129D01*
X144636403Y-80990853D01*
X144636399Y-80990854D01*
X144617803Y-81001852D01*
X144600338Y-81010408D01*
X144580247Y-81018363D01*
X144580242Y-81018366D01*
X144540425Y-81047294D01*
X144535543Y-81050500D01*
X144493191Y-81075548D01*
X144477917Y-81090823D01*
X144463127Y-81103455D01*
X144445644Y-81116157D01*
X144445640Y-81116162D01*
X144414266Y-81154084D01*
X144410334Y-81158406D01*
X142848097Y-82720641D01*
X142786774Y-82754126D01*
X142774308Y-82756179D01*
X142768957Y-82756782D01*
X142768955Y-82756782D01*
X142596983Y-82816957D01*
X142442718Y-82913889D01*
X142313889Y-83042718D01*
X142216958Y-83196982D01*
X142156782Y-83368953D01*
X142156781Y-83368958D01*
X142136384Y-83549996D01*
X142136384Y-83550003D01*
X142156781Y-83731041D01*
X142156782Y-83731046D01*
X142165893Y-83757082D01*
X142216648Y-83902133D01*
X142216958Y-83903017D01*
X142313889Y-84057281D01*
X142436427Y-84179819D01*
X142469912Y-84241142D01*
X142464928Y-84310834D01*
X142423056Y-84366767D01*
X142357592Y-84391184D01*
X142348746Y-84391500D01*
X141991345Y-84391500D01*
X141930797Y-84398011D01*
X141930795Y-84398011D01*
X141793795Y-84449111D01*
X141694311Y-84523585D01*
X141628846Y-84548002D01*
X141560573Y-84533150D01*
X141545689Y-84523585D01*
X141484844Y-84478037D01*
X141446204Y-84449111D01*
X141442322Y-84447663D01*
X141309203Y-84398011D01*
X141248654Y-84391500D01*
X141248638Y-84391500D01*
X141132500Y-84391500D01*
X141065461Y-84371815D01*
X141019706Y-84319011D01*
X141008500Y-84267500D01*
X141008500Y-83824121D01*
X141028185Y-83757082D01*
X141044814Y-83736445D01*
X143221796Y-81559462D01*
X143268517Y-81530104D01*
X143403015Y-81483043D01*
X143557281Y-81386111D01*
X143686111Y-81257281D01*
X143783043Y-81103015D01*
X143843217Y-80931047D01*
X143850438Y-80866958D01*
X143863616Y-80750003D01*
X143863616Y-80749996D01*
X143843218Y-80568958D01*
X143843217Y-80568953D01*
X143830158Y-80531633D01*
X143783043Y-80396985D01*
X143686111Y-80242719D01*
X143557281Y-80113889D01*
X143460229Y-80052907D01*
X143403017Y-80016958D01*
X143403016Y-80016957D01*
X143403015Y-80016957D01*
X143348693Y-79997949D01*
X143231046Y-79956782D01*
X143231041Y-79956781D01*
X143050004Y-79936384D01*
X143049996Y-79936384D01*
X142868958Y-79956781D01*
X142868953Y-79956782D01*
X142696982Y-80016958D01*
X142542718Y-80113889D01*
X142413889Y-80242718D01*
X142316957Y-80396983D01*
X142256781Y-80568958D01*
X142249830Y-80630651D01*
X142222763Y-80695065D01*
X142214291Y-80704447D01*
X139945453Y-82973285D01*
X139932785Y-82983435D01*
X139932931Y-82983611D01*
X139926920Y-82988583D01*
X139877053Y-83041686D01*
X139855072Y-83063667D01*
X139850492Y-83069569D01*
X139846708Y-83073998D01*
X139813029Y-83109865D01*
X139813024Y-83109872D01*
X139802618Y-83128800D01*
X139791942Y-83145054D01*
X139778695Y-83162133D01*
X139759150Y-83207297D01*
X139756580Y-83212543D01*
X139732876Y-83255661D01*
X139727502Y-83276589D01*
X139721203Y-83294987D01*
X139712619Y-83314825D01*
X139704923Y-83363420D01*
X139703738Y-83369143D01*
X139691500Y-83416809D01*
X139691500Y-83438413D01*
X139689974Y-83457808D01*
X139686594Y-83479151D01*
X139691225Y-83528143D01*
X139691500Y-83533981D01*
X139691500Y-84267500D01*
X139671815Y-84334539D01*
X139619011Y-84380294D01*
X139567500Y-84391500D01*
X139451345Y-84391500D01*
X139390797Y-84398011D01*
X139390795Y-84398011D01*
X139253795Y-84449111D01*
X139154311Y-84523585D01*
X139088846Y-84548002D01*
X139020573Y-84533150D01*
X139005689Y-84523585D01*
X138944844Y-84478037D01*
X138906204Y-84449111D01*
X138902322Y-84447663D01*
X138769203Y-84398011D01*
X138708654Y-84391500D01*
X138708638Y-84391500D01*
X136911362Y-84391500D01*
X136911345Y-84391500D01*
X136850797Y-84398011D01*
X136850795Y-84398011D01*
X136713793Y-84449111D01*
X136713793Y-84449112D01*
X136607218Y-84528893D01*
X136541754Y-84553310D01*
X136473481Y-84538458D01*
X136458597Y-84528893D01*
X136362088Y-84456646D01*
X136362086Y-84456645D01*
X136227379Y-84406403D01*
X136227372Y-84406401D01*
X136167844Y-84400000D01*
X135520000Y-84400000D01*
X135520000Y-87103505D01*
X135415161Y-87055627D01*
X135306473Y-87040000D01*
X135233527Y-87040000D01*
X135124839Y-87055627D01*
X135020000Y-87103505D01*
X135020000Y-84400000D01*
X134372155Y-84400000D01*
X134312627Y-84406401D01*
X134312620Y-84406403D01*
X134177913Y-84456645D01*
X134177910Y-84456647D01*
X134081402Y-84528893D01*
X134015937Y-84553310D01*
X133947664Y-84538458D01*
X133932780Y-84528893D01*
X133826204Y-84449111D01*
X133689203Y-84398011D01*
X133628654Y-84391500D01*
X133628638Y-84391500D01*
X131831362Y-84391500D01*
X131831345Y-84391500D01*
X131770797Y-84398011D01*
X131770795Y-84398011D01*
X131633795Y-84449111D01*
X131534311Y-84523585D01*
X131468846Y-84548002D01*
X131400573Y-84533150D01*
X131385689Y-84523585D01*
X131324844Y-84478037D01*
X131286204Y-84449111D01*
X131282322Y-84447663D01*
X131149203Y-84398011D01*
X131088654Y-84391500D01*
X131088638Y-84391500D01*
X129291362Y-84391500D01*
X129291345Y-84391500D01*
X129230797Y-84398011D01*
X129230795Y-84398011D01*
X129093795Y-84449111D01*
X128994311Y-84523585D01*
X128928846Y-84548002D01*
X128860573Y-84533150D01*
X128845689Y-84523585D01*
X128784844Y-84478037D01*
X128746204Y-84449111D01*
X128742322Y-84447663D01*
X128609203Y-84398011D01*
X128548654Y-84391500D01*
X128548638Y-84391500D01*
X126751362Y-84391500D01*
X126751345Y-84391500D01*
X126690797Y-84398011D01*
X126690795Y-84398011D01*
X126553795Y-84449111D01*
X126454311Y-84523585D01*
X126388846Y-84548002D01*
X126320573Y-84533150D01*
X126305689Y-84523585D01*
X126283299Y-84506824D01*
X126206204Y-84449111D01*
X126206202Y-84449110D01*
X126206204Y-84449110D01*
X126114545Y-84414923D01*
X126058611Y-84373052D01*
X126034195Y-84307587D01*
X126049047Y-84239314D01*
X126070195Y-84211064D01*
X129636441Y-80644819D01*
X129697764Y-80611334D01*
X129724122Y-80608500D01*
X140063609Y-80608500D01*
X140079746Y-80610281D01*
X140079768Y-80610054D01*
X140087534Y-80610788D01*
X140087536Y-80610787D01*
X140087537Y-80610788D01*
X140160342Y-80608500D01*
X140191432Y-80608500D01*
X140198823Y-80607566D01*
X140204651Y-80607107D01*
X140253831Y-80605562D01*
X140274583Y-80599532D01*
X140293621Y-80595590D01*
X140315064Y-80592882D01*
X140360834Y-80574760D01*
X140366348Y-80572873D01*
X140392875Y-80565165D01*
X140413600Y-80559145D01*
X140432196Y-80548146D01*
X140449664Y-80539589D01*
X140469756Y-80531635D01*
X140509572Y-80502704D01*
X140514436Y-80499509D01*
X140556807Y-80474453D01*
X140572087Y-80459171D01*
X140586876Y-80446540D01*
X140604357Y-80433841D01*
X140635733Y-80395912D01*
X140639646Y-80391612D01*
X140651901Y-80379357D01*
X140713222Y-80345874D01*
X140725692Y-80343820D01*
X140731047Y-80343217D01*
X140903015Y-80283043D01*
X141057281Y-80186111D01*
X141186111Y-80057281D01*
X141283043Y-79903015D01*
X141343217Y-79731047D01*
X141344679Y-79718072D01*
X141363616Y-79550003D01*
X141363616Y-79549996D01*
X141343218Y-79368958D01*
X141343217Y-79368953D01*
X141320204Y-79303186D01*
X141283043Y-79196985D01*
X141186111Y-79042719D01*
X141057281Y-78913889D01*
X140916834Y-78825640D01*
X140903017Y-78816958D01*
X140903016Y-78816957D01*
X140903015Y-78816957D01*
X140848693Y-78797949D01*
X140731046Y-78756782D01*
X140731041Y-78756781D01*
X140550004Y-78736384D01*
X140549996Y-78736384D01*
X140368958Y-78756781D01*
X140368953Y-78756782D01*
X140196982Y-78816958D01*
X140042718Y-78913889D01*
X139913889Y-79042718D01*
X139816957Y-79196983D01*
X139812944Y-79208454D01*
X139772223Y-79265230D01*
X139707270Y-79290978D01*
X139695902Y-79291500D01*
X129486391Y-79291500D01*
X129470253Y-79289718D01*
X129470232Y-79289946D01*
X129462465Y-79289211D01*
X129389658Y-79291500D01*
X129358566Y-79291500D01*
X129351172Y-79292433D01*
X129345354Y-79292891D01*
X129296173Y-79294437D01*
X129296163Y-79294439D01*
X129275422Y-79300464D01*
X129256382Y-79304407D01*
X129234946Y-79307116D01*
X129234931Y-79307119D01*
X129189178Y-79325233D01*
X129183654Y-79327124D01*
X129136402Y-79340854D01*
X129136394Y-79340857D01*
X129117803Y-79351852D01*
X129100338Y-79360408D01*
X129080247Y-79368363D01*
X129080242Y-79368366D01*
X129040427Y-79397292D01*
X129035545Y-79400499D01*
X128993190Y-79425549D01*
X128977916Y-79440823D01*
X128963128Y-79453454D01*
X128945643Y-79466158D01*
X128945640Y-79466162D01*
X128914266Y-79504084D01*
X128910334Y-79508405D01*
X124705453Y-83713285D01*
X124692785Y-83723435D01*
X124692931Y-83723611D01*
X124686920Y-83728583D01*
X124637053Y-83781686D01*
X124615072Y-83803667D01*
X124610492Y-83809569D01*
X124606708Y-83813998D01*
X124573029Y-83849865D01*
X124573024Y-83849872D01*
X124562618Y-83868800D01*
X124551942Y-83885054D01*
X124538695Y-83902133D01*
X124519150Y-83947297D01*
X124516580Y-83952543D01*
X124492876Y-83995661D01*
X124487502Y-84016589D01*
X124481203Y-84034987D01*
X124472619Y-84054825D01*
X124464923Y-84103420D01*
X124463738Y-84109143D01*
X124451500Y-84156809D01*
X124451500Y-84178413D01*
X124449974Y-84197808D01*
X124446594Y-84219151D01*
X124450061Y-84255831D01*
X124436772Y-84324426D01*
X124388508Y-84374947D01*
X124326611Y-84391500D01*
X124211345Y-84391500D01*
X124150797Y-84398011D01*
X124150795Y-84398011D01*
X124013793Y-84449111D01*
X124013793Y-84449112D01*
X123907218Y-84528893D01*
X123841754Y-84553310D01*
X123773481Y-84538458D01*
X123758597Y-84528893D01*
X123662088Y-84456646D01*
X123662086Y-84456645D01*
X123527379Y-84406403D01*
X123527372Y-84406401D01*
X123467844Y-84400000D01*
X122820000Y-84400000D01*
X122820000Y-87103505D01*
X122715161Y-87055627D01*
X122606473Y-87040000D01*
X122533527Y-87040000D01*
X122424839Y-87055627D01*
X122320000Y-87103505D01*
X122320000Y-84400000D01*
X121672155Y-84400000D01*
X121612627Y-84406401D01*
X121612620Y-84406403D01*
X121477913Y-84456645D01*
X121477910Y-84456647D01*
X121381402Y-84528893D01*
X121315937Y-84553310D01*
X121247664Y-84538458D01*
X121232780Y-84528893D01*
X121126204Y-84449111D01*
X120989203Y-84398011D01*
X120928654Y-84391500D01*
X120928638Y-84391500D01*
X119131362Y-84391500D01*
X119131345Y-84391500D01*
X119070797Y-84398011D01*
X119070795Y-84398011D01*
X118933795Y-84449111D01*
X118834311Y-84523585D01*
X118768846Y-84548002D01*
X118700573Y-84533150D01*
X118685689Y-84523585D01*
X118624844Y-84478037D01*
X118586204Y-84449111D01*
X118582322Y-84447663D01*
X118449203Y-84398011D01*
X118388654Y-84391500D01*
X118388638Y-84391500D01*
X116591362Y-84391500D01*
X116591345Y-84391500D01*
X116530797Y-84398011D01*
X116530795Y-84398011D01*
X116393795Y-84449111D01*
X116276739Y-84536739D01*
X116189111Y-84653795D01*
X116138011Y-84790795D01*
X116138011Y-84790797D01*
X116131500Y-84851345D01*
X116131500Y-87491250D01*
X116131288Y-87496373D01*
X116126844Y-87549995D01*
X116126844Y-87550003D01*
X116131288Y-87603625D01*
X116131500Y-87608747D01*
X116131500Y-88448654D01*
X116138011Y-88509202D01*
X116138011Y-88509204D01*
X116189111Y-88646204D01*
X116276739Y-88763261D01*
X116393796Y-88850889D01*
X116508297Y-88893596D01*
X116525463Y-88899999D01*
X116530799Y-88901989D01*
X116558050Y-88904918D01*
X116591345Y-88908499D01*
X116591362Y-88908500D01*
X118388638Y-88908500D01*
X118388654Y-88908499D01*
X118415692Y-88905591D01*
X118449201Y-88901989D01*
X118454537Y-88899999D01*
X118492897Y-88885691D01*
X118586204Y-88850889D01*
X118586204Y-88850888D01*
X118586206Y-88850888D01*
X118586207Y-88850887D01*
X118685689Y-88776415D01*
X118751153Y-88751997D01*
X118819426Y-88766848D01*
X118834311Y-88776415D01*
X118933792Y-88850887D01*
X118933793Y-88850888D01*
X119065464Y-88899999D01*
X119070799Y-88901989D01*
X119098050Y-88904918D01*
X119131345Y-88908499D01*
X119131362Y-88908500D01*
X120928638Y-88908500D01*
X120928654Y-88908499D01*
X120955692Y-88905591D01*
X120989201Y-88901989D01*
X120994537Y-88899999D01*
X121011703Y-88893596D01*
X121126204Y-88850889D01*
X121232782Y-88771105D01*
X121298244Y-88746689D01*
X121366517Y-88761540D01*
X121381402Y-88771106D01*
X121477911Y-88843353D01*
X121477913Y-88843354D01*
X121612620Y-88893596D01*
X121612627Y-88893598D01*
X121672155Y-88899999D01*
X121672172Y-88900000D01*
X122320000Y-88900000D01*
X122320000Y-87996494D01*
X122424839Y-88044373D01*
X122533527Y-88060000D01*
X122606473Y-88060000D01*
X122715161Y-88044373D01*
X122820000Y-87996494D01*
X122820000Y-88900000D01*
X123467828Y-88900000D01*
X123467844Y-88899999D01*
X123527372Y-88893598D01*
X123527379Y-88893596D01*
X123662086Y-88843354D01*
X123662089Y-88843352D01*
X123758596Y-88771107D01*
X123824060Y-88746689D01*
X123892334Y-88761540D01*
X123907216Y-88771104D01*
X124013796Y-88850889D01*
X124128297Y-88893596D01*
X124145463Y-88899999D01*
X124150799Y-88901989D01*
X124178050Y-88904918D01*
X124211345Y-88908499D01*
X124211362Y-88908500D01*
X126008638Y-88908500D01*
X126008654Y-88908499D01*
X126035692Y-88905591D01*
X126069201Y-88901989D01*
X126074537Y-88899999D01*
X126112897Y-88885691D01*
X126206204Y-88850889D01*
X126206204Y-88850888D01*
X126206206Y-88850888D01*
X126206207Y-88850887D01*
X126305689Y-88776415D01*
X126371153Y-88751997D01*
X126439426Y-88766848D01*
X126454311Y-88776415D01*
X126553792Y-88850887D01*
X126553793Y-88850888D01*
X126685464Y-88899999D01*
X126690799Y-88901989D01*
X126718050Y-88904918D01*
X126751345Y-88908499D01*
X126751362Y-88908500D01*
X128548638Y-88908500D01*
X128548654Y-88908499D01*
X128575692Y-88905591D01*
X128609201Y-88901989D01*
X128614537Y-88899999D01*
X128652897Y-88885691D01*
X128746204Y-88850889D01*
X128746204Y-88850888D01*
X128746206Y-88850888D01*
X128746207Y-88850887D01*
X128845689Y-88776415D01*
X128911153Y-88751997D01*
X128979426Y-88766848D01*
X128994311Y-88776415D01*
X129093792Y-88850887D01*
X129093793Y-88850888D01*
X129225464Y-88899999D01*
X129230799Y-88901989D01*
X129258050Y-88904918D01*
X129291345Y-88908499D01*
X129291362Y-88908500D01*
X131088638Y-88908500D01*
X131088654Y-88908499D01*
X131115692Y-88905591D01*
X131149201Y-88901989D01*
X131154537Y-88899999D01*
X131192897Y-88885691D01*
X131286204Y-88850889D01*
X131286204Y-88850888D01*
X131286206Y-88850888D01*
X131286207Y-88850887D01*
X131385689Y-88776415D01*
X131451153Y-88751997D01*
X131519426Y-88766848D01*
X131534311Y-88776415D01*
X131633792Y-88850887D01*
X131633793Y-88850888D01*
X131765464Y-88899999D01*
X131770799Y-88901989D01*
X131798050Y-88904918D01*
X131831345Y-88908499D01*
X131831362Y-88908500D01*
X133628638Y-88908500D01*
X133628654Y-88908499D01*
X133655692Y-88905591D01*
X133689201Y-88901989D01*
X133694537Y-88899999D01*
X133711703Y-88893596D01*
X133826204Y-88850889D01*
X133932782Y-88771105D01*
X133998244Y-88746689D01*
X134066517Y-88761540D01*
X134081402Y-88771106D01*
X134177911Y-88843353D01*
X134177913Y-88843354D01*
X134312620Y-88893596D01*
X134312627Y-88893598D01*
X134372155Y-88899999D01*
X134372172Y-88900000D01*
X135020000Y-88900000D01*
X135020000Y-87996494D01*
X135124839Y-88044373D01*
X135233527Y-88060000D01*
X135306473Y-88060000D01*
X135415161Y-88044373D01*
X135520000Y-87996494D01*
X135520000Y-88900000D01*
X136167828Y-88900000D01*
X136167844Y-88899999D01*
X136227372Y-88893598D01*
X136227379Y-88893596D01*
X136362086Y-88843354D01*
X136362089Y-88843352D01*
X136458596Y-88771107D01*
X136524060Y-88746689D01*
X136592334Y-88761540D01*
X136607216Y-88771104D01*
X136713796Y-88850889D01*
X136828297Y-88893596D01*
X136845463Y-88899999D01*
X136850799Y-88901989D01*
X136878050Y-88904918D01*
X136911345Y-88908499D01*
X136911362Y-88908500D01*
X138708638Y-88908500D01*
X138708654Y-88908499D01*
X138735692Y-88905591D01*
X138769201Y-88901989D01*
X138774537Y-88899999D01*
X138812897Y-88885691D01*
X138906204Y-88850889D01*
X138906204Y-88850888D01*
X138906206Y-88850888D01*
X138906207Y-88850887D01*
X139005689Y-88776415D01*
X139071153Y-88751997D01*
X139139426Y-88766848D01*
X139154311Y-88776415D01*
X139253792Y-88850887D01*
X139253793Y-88850888D01*
X139385464Y-88899999D01*
X139390799Y-88901989D01*
X139418050Y-88904918D01*
X139451345Y-88908499D01*
X139451362Y-88908500D01*
X141248638Y-88908500D01*
X141248654Y-88908499D01*
X141275692Y-88905591D01*
X141309201Y-88901989D01*
X141314537Y-88899999D01*
X141352897Y-88885691D01*
X141446204Y-88850889D01*
X141446204Y-88850888D01*
X141446206Y-88850888D01*
X141446207Y-88850887D01*
X141545689Y-88776415D01*
X141611153Y-88751997D01*
X141679426Y-88766848D01*
X141694311Y-88776415D01*
X141793792Y-88850887D01*
X141793793Y-88850888D01*
X141925464Y-88899999D01*
X141930799Y-88901989D01*
X141958050Y-88904918D01*
X141991345Y-88908499D01*
X141991362Y-88908500D01*
X143788638Y-88908500D01*
X143788654Y-88908499D01*
X143815692Y-88905591D01*
X143849201Y-88901989D01*
X143854537Y-88899999D01*
X143892897Y-88885691D01*
X143986204Y-88850889D01*
X143986204Y-88850888D01*
X143986206Y-88850888D01*
X143986207Y-88850887D01*
X144085689Y-88776415D01*
X144151153Y-88751997D01*
X144219426Y-88766848D01*
X144234311Y-88776415D01*
X144333792Y-88850887D01*
X144333793Y-88850888D01*
X144465464Y-88899999D01*
X144470799Y-88901989D01*
X144498050Y-88904918D01*
X144531345Y-88908499D01*
X144531362Y-88908500D01*
X146328638Y-88908500D01*
X146328654Y-88908499D01*
X146355692Y-88905591D01*
X146389201Y-88901989D01*
X146394537Y-88899999D01*
X146411703Y-88893596D01*
X146526204Y-88850889D01*
X146632782Y-88771105D01*
X146698244Y-88746689D01*
X146766517Y-88761540D01*
X146781402Y-88771106D01*
X146877911Y-88843353D01*
X146877913Y-88843354D01*
X147012620Y-88893596D01*
X147012627Y-88893598D01*
X147072155Y-88899999D01*
X147072172Y-88900000D01*
X147720000Y-88900000D01*
X147720000Y-87996494D01*
X147824839Y-88044373D01*
X147933527Y-88060000D01*
X148006473Y-88060000D01*
X148115161Y-88044373D01*
X148220000Y-87996494D01*
X148220000Y-88900000D01*
X148467500Y-88900000D01*
X148534539Y-88919685D01*
X148580294Y-88972489D01*
X148591500Y-89024000D01*
X148591500Y-94131665D01*
X148571815Y-94198704D01*
X148519011Y-94244459D01*
X148449853Y-94254403D01*
X148426547Y-94248707D01*
X148421046Y-94246782D01*
X148240004Y-94226384D01*
X148239996Y-94226384D01*
X148058958Y-94246781D01*
X148058953Y-94246782D01*
X147886982Y-94306958D01*
X147732718Y-94403889D01*
X147603889Y-94532718D01*
X147506958Y-94686982D01*
X147506957Y-94686983D01*
X147459895Y-94821478D01*
X147430535Y-94868203D01*
X146553559Y-95745181D01*
X146492236Y-95778666D01*
X146465878Y-95781500D01*
X140997373Y-95781500D01*
X140931400Y-95762493D01*
X140843017Y-95706958D01*
X140843019Y-95706958D01*
X140671046Y-95646782D01*
X140671041Y-95646781D01*
X140490004Y-95626384D01*
X140489996Y-95626384D01*
X140308958Y-95646781D01*
X140308953Y-95646782D01*
X140136982Y-95706958D01*
X139982718Y-95803889D01*
X139853889Y-95932718D01*
X139756958Y-96086982D01*
X139696782Y-96258953D01*
X139696781Y-96258958D01*
X139676384Y-96439996D01*
X139676384Y-96440003D01*
X139696781Y-96621041D01*
X139696782Y-96621046D01*
X139732472Y-96723042D01*
X139756957Y-96793015D01*
X139853889Y-96947281D01*
X139982719Y-97076111D01*
X140136985Y-97173043D01*
X140308953Y-97233217D01*
X140308959Y-97233217D01*
X140313839Y-97234332D01*
X140374818Y-97268440D01*
X140407676Y-97330101D01*
X140401982Y-97399738D01*
X140359544Y-97455243D01*
X140352221Y-97460217D01*
X140282721Y-97503887D01*
X140282718Y-97503889D01*
X140153889Y-97632718D01*
X140056958Y-97786982D01*
X139996782Y-97958953D01*
X139996781Y-97958958D01*
X139976384Y-98139996D01*
X139976384Y-98140003D01*
X139996781Y-98321041D01*
X139996782Y-98321046D01*
X140025424Y-98402899D01*
X140052348Y-98479844D01*
X140056958Y-98493017D01*
X140134654Y-98616669D01*
X140153889Y-98647281D01*
X140282719Y-98776111D01*
X140436985Y-98873043D01*
X140606524Y-98932367D01*
X140608953Y-98933217D01*
X140608958Y-98933218D01*
X140789996Y-98953616D01*
X140790000Y-98953616D01*
X140790004Y-98953616D01*
X140971041Y-98933218D01*
X140971044Y-98933217D01*
X140971047Y-98933217D01*
X141143015Y-98873043D01*
X141297281Y-98776111D01*
X141426111Y-98647281D01*
X141523043Y-98493015D01*
X141583217Y-98321047D01*
X141583819Y-98315698D01*
X141610884Y-98251285D01*
X141619349Y-98241909D01*
X141980423Y-97880836D01*
X142041745Y-97847352D01*
X142111437Y-97852336D01*
X142167370Y-97894208D01*
X142191787Y-97959672D01*
X142191323Y-97982401D01*
X142176384Y-98114995D01*
X142176384Y-98115003D01*
X142196781Y-98296041D01*
X142196782Y-98296046D01*
X142256958Y-98468018D01*
X142312493Y-98556400D01*
X142331500Y-98622373D01*
X142331500Y-100553609D01*
X142329718Y-100569746D01*
X142329946Y-100569768D01*
X142329211Y-100577534D01*
X142331500Y-100650342D01*
X142331500Y-100681434D01*
X142332433Y-100688829D01*
X142332891Y-100694647D01*
X142334437Y-100743829D01*
X142334438Y-100743832D01*
X142340464Y-100764577D01*
X142344407Y-100783618D01*
X142347116Y-100805053D01*
X142347117Y-100805057D01*
X142347118Y-100805064D01*
X142360893Y-100839857D01*
X142365234Y-100850822D01*
X142367125Y-100856348D01*
X142380854Y-100903598D01*
X142391850Y-100922191D01*
X142400410Y-100939665D01*
X142408363Y-100959754D01*
X142437289Y-100999565D01*
X142440490Y-101004437D01*
X142465547Y-101046807D01*
X142465551Y-101046811D01*
X142480821Y-101062081D01*
X142493459Y-101076877D01*
X142506159Y-101094357D01*
X142544072Y-101125722D01*
X142548395Y-101129655D01*
X142601980Y-101183240D01*
X142635640Y-101216899D01*
X142669125Y-101278222D01*
X142671179Y-101290692D01*
X142671782Y-101296041D01*
X142671783Y-101296047D01*
X142703170Y-101385746D01*
X142731957Y-101468016D01*
X142814649Y-101599618D01*
X142828889Y-101622281D01*
X142957719Y-101751111D01*
X143111985Y-101848043D01*
X143240114Y-101892877D01*
X143283953Y-101908217D01*
X143283958Y-101908218D01*
X143464996Y-101928616D01*
X143465000Y-101928616D01*
X143465004Y-101928616D01*
X143646041Y-101908218D01*
X143646044Y-101908217D01*
X143646047Y-101908217D01*
X143818015Y-101848043D01*
X143972281Y-101751111D01*
X144101111Y-101622281D01*
X144198043Y-101468015D01*
X144258217Y-101296047D01*
X144258218Y-101296041D01*
X144278616Y-101115003D01*
X144278616Y-101114996D01*
X144258218Y-100933958D01*
X144258217Y-100933953D01*
X144247595Y-100903598D01*
X144198043Y-100761985D01*
X144101111Y-100607719D01*
X143972281Y-100478889D01*
X143969127Y-100476907D01*
X143818013Y-100381955D01*
X143731544Y-100351698D01*
X143674769Y-100310976D01*
X143649022Y-100246023D01*
X143648500Y-100234657D01*
X143648500Y-98622373D01*
X143667507Y-98556400D01*
X143723041Y-98468018D01*
X143723040Y-98468018D01*
X143723043Y-98468015D01*
X143783217Y-98296047D01*
X143783218Y-98296041D01*
X143803616Y-98115003D01*
X143803616Y-98114997D01*
X143783491Y-97936384D01*
X143795545Y-97867562D01*
X143842894Y-97816182D01*
X143906711Y-97798500D01*
X147556812Y-97798500D01*
X147592840Y-97798500D01*
X147658812Y-97817507D01*
X147786977Y-97898039D01*
X147786980Y-97898041D01*
X147786984Y-97898042D01*
X147786985Y-97898043D01*
X147896558Y-97936384D01*
X147958953Y-97958217D01*
X147958958Y-97958218D01*
X148139996Y-97978616D01*
X148140000Y-97978616D01*
X148140004Y-97978616D01*
X148321041Y-97958218D01*
X148321043Y-97958217D01*
X148321047Y-97958217D01*
X148321050Y-97958215D01*
X148321054Y-97958215D01*
X148426545Y-97921302D01*
X148496324Y-97917740D01*
X148556951Y-97952468D01*
X148589179Y-98014461D01*
X148591500Y-98038343D01*
X148591500Y-100348746D01*
X148571815Y-100415785D01*
X148519011Y-100461540D01*
X148449853Y-100471484D01*
X148386297Y-100442459D01*
X148379819Y-100436427D01*
X148322281Y-100378889D01*
X148168017Y-100281958D01*
X148168016Y-100281957D01*
X148168015Y-100281957D01*
X148112701Y-100262602D01*
X147996046Y-100221782D01*
X147996041Y-100221781D01*
X147815004Y-100201384D01*
X147814996Y-100201384D01*
X147633958Y-100221781D01*
X147633953Y-100221782D01*
X147461984Y-100281957D01*
X147456120Y-100285641D01*
X147453174Y-100287493D01*
X147387201Y-100306500D01*
X146138296Y-100306500D01*
X146134552Y-100306387D01*
X146071911Y-100302598D01*
X146071904Y-100302598D01*
X146010190Y-100313907D01*
X146006489Y-100314470D01*
X145944198Y-100322035D01*
X145934494Y-100325715D01*
X145912889Y-100331737D01*
X145902673Y-100333609D01*
X145902670Y-100333610D01*
X145845454Y-100359361D01*
X145841995Y-100360794D01*
X145783328Y-100383044D01*
X145783320Y-100383048D01*
X145774774Y-100388947D01*
X145755243Y-100399962D01*
X145745777Y-100404223D01*
X145696382Y-100442920D01*
X145693367Y-100445138D01*
X145641731Y-100480780D01*
X145641728Y-100480782D01*
X145600115Y-100527753D01*
X145597548Y-100530480D01*
X143882849Y-102245181D01*
X143821526Y-102278666D01*
X143795168Y-102281500D01*
X140209832Y-102281500D01*
X140142793Y-102261815D01*
X140122151Y-102245181D01*
X138234819Y-100357849D01*
X138201334Y-100296526D01*
X138198500Y-100270168D01*
X138198500Y-97613295D01*
X138198613Y-97609551D01*
X138202402Y-97546908D01*
X138191091Y-97485184D01*
X138190527Y-97481480D01*
X138187341Y-97455243D01*
X138182965Y-97419199D01*
X138179286Y-97409500D01*
X138173260Y-97387881D01*
X138171389Y-97377671D01*
X138171388Y-97377667D01*
X138155029Y-97341322D01*
X138145619Y-97320414D01*
X138144212Y-97317017D01*
X138121954Y-97258325D01*
X138116060Y-97249786D01*
X138105033Y-97230237D01*
X138100775Y-97220775D01*
X138100773Y-97220772D01*
X138100772Y-97220770D01*
X138070682Y-97182364D01*
X138062080Y-97171385D01*
X138059865Y-97168373D01*
X138024218Y-97116731D01*
X138024216Y-97116729D01*
X138024215Y-97116727D01*
X138024212Y-97116724D01*
X138024210Y-97116722D01*
X137977245Y-97075115D01*
X137974533Y-97072563D01*
X136688317Y-95786347D01*
X136658956Y-95739620D01*
X136647527Y-95706958D01*
X136623043Y-95636985D01*
X136526111Y-95482719D01*
X136397281Y-95353889D01*
X136381217Y-95343795D01*
X136243017Y-95256958D01*
X136243016Y-95256957D01*
X136243015Y-95256957D01*
X136188693Y-95237949D01*
X136071046Y-95196782D01*
X136071041Y-95196781D01*
X135890004Y-95176384D01*
X135889996Y-95176384D01*
X135708958Y-95196781D01*
X135708953Y-95196782D01*
X135536982Y-95256958D01*
X135382718Y-95353889D01*
X135253889Y-95482718D01*
X135156958Y-95636982D01*
X135096782Y-95808953D01*
X135096781Y-95808958D01*
X135076384Y-95989996D01*
X135076384Y-95990003D01*
X135096781Y-96171041D01*
X135096782Y-96171046D01*
X135156958Y-96343017D01*
X135212843Y-96431957D01*
X135253889Y-96497281D01*
X135382719Y-96626111D01*
X135536985Y-96723043D01*
X135639621Y-96758956D01*
X135686347Y-96788317D01*
X136745181Y-97847151D01*
X136778666Y-97908474D01*
X136781500Y-97934832D01*
X136781500Y-100591709D01*
X136781387Y-100595454D01*
X136777598Y-100658089D01*
X136777598Y-100658092D01*
X136788907Y-100719810D01*
X136789470Y-100723511D01*
X136797034Y-100785796D01*
X136797035Y-100785801D01*
X136800716Y-100795510D01*
X136806738Y-100817110D01*
X136808611Y-100827331D01*
X136834365Y-100884555D01*
X136835798Y-100888015D01*
X136858044Y-100946672D01*
X136858046Y-100946675D01*
X136863941Y-100955216D01*
X136874966Y-100974763D01*
X136879225Y-100984227D01*
X136917916Y-101033611D01*
X136920136Y-101036628D01*
X136955783Y-101088271D01*
X136955784Y-101088272D01*
X136955785Y-101088273D01*
X137002772Y-101129900D01*
X137005464Y-101132434D01*
X137479974Y-101606944D01*
X137942849Y-102069819D01*
X137976334Y-102131142D01*
X137971350Y-102200834D01*
X137929478Y-102256767D01*
X137864014Y-102281184D01*
X137855168Y-102281500D01*
X122038296Y-102281500D01*
X122034552Y-102281387D01*
X121971911Y-102277598D01*
X121971904Y-102277598D01*
X121910190Y-102288907D01*
X121906489Y-102289470D01*
X121844198Y-102297035D01*
X121834494Y-102300715D01*
X121812889Y-102306737D01*
X121802673Y-102308609D01*
X121802670Y-102308610D01*
X121745454Y-102334361D01*
X121741995Y-102335794D01*
X121683328Y-102358044D01*
X121683320Y-102358048D01*
X121674774Y-102363947D01*
X121655243Y-102374962D01*
X121645777Y-102379223D01*
X121596382Y-102417920D01*
X121593367Y-102420138D01*
X121541731Y-102455780D01*
X121541728Y-102455782D01*
X121500115Y-102502753D01*
X121497548Y-102505480D01*
X120067849Y-103935181D01*
X120006526Y-103968666D01*
X119980168Y-103971500D01*
X119131345Y-103971500D01*
X119070797Y-103978011D01*
X119070795Y-103978011D01*
X118933795Y-104029111D01*
X118834311Y-104103585D01*
X118768846Y-104128002D01*
X118700573Y-104113150D01*
X118685689Y-104103585D01*
X118586204Y-104029111D01*
X118449203Y-103978011D01*
X118388654Y-103971500D01*
X118388638Y-103971500D01*
X116591362Y-103971500D01*
X116591345Y-103971500D01*
X116530797Y-103978011D01*
X116530795Y-103978011D01*
X116393795Y-104029111D01*
X116276739Y-104116739D01*
X116189111Y-104233795D01*
X116138011Y-104370795D01*
X116138011Y-104370797D01*
X116131500Y-104431345D01*
X116131500Y-105271250D01*
X116131288Y-105276373D01*
X116126844Y-105329995D01*
X116126844Y-105330003D01*
X115765500Y-105330003D01*
X115765500Y-99165000D01*
X116206673Y-99165000D01*
X116211644Y-99224994D01*
X116213971Y-99253083D01*
X116217856Y-99344543D01*
X116217857Y-99344551D01*
X116221534Y-99361616D01*
X116223010Y-99368461D01*
X116224190Y-99376410D01*
X116225947Y-99397617D01*
X116225949Y-99397629D01*
X116248417Y-99486353D01*
X116268370Y-99578935D01*
X116276257Y-99598561D01*
X116278834Y-99606466D01*
X116283249Y-99623900D01*
X116283251Y-99623907D01*
X116321285Y-99710616D01*
X116357767Y-99801404D01*
X116367106Y-99816571D01*
X116367129Y-99816608D01*
X116371117Y-99824220D01*
X116377015Y-99837668D01*
X116430524Y-99919570D01*
X116483473Y-100005565D01*
X116483480Y-100005574D01*
X116490158Y-100013161D01*
X116500886Y-100027267D01*
X116504682Y-100033077D01*
X116504686Y-100033083D01*
X116573079Y-100107377D01*
X116641882Y-100185552D01*
X116641883Y-100185553D01*
X116647070Y-100189741D01*
X116660407Y-100202240D01*
X116662783Y-100204822D01*
X116701117Y-100234657D01*
X116744948Y-100268772D01*
X116794150Y-100308500D01*
X116828421Y-100336173D01*
X116828422Y-100336173D01*
X116828424Y-100336175D01*
X116831165Y-100337706D01*
X116831240Y-100337748D01*
X116846934Y-100348152D01*
X116846979Y-100348187D01*
X116846991Y-100348195D01*
X116911708Y-100383217D01*
X116941346Y-100399256D01*
X117037740Y-100453105D01*
X117037745Y-100453106D01*
X117037749Y-100453109D01*
X117040140Y-100454190D01*
X117047477Y-100457448D01*
X117047575Y-100457226D01*
X117052262Y-100459281D01*
X117052273Y-100459287D01*
X117156740Y-100495151D01*
X117263806Y-100532980D01*
X117264367Y-100533076D01*
X117269109Y-100534081D01*
X117273043Y-100535078D01*
X117273049Y-100535080D01*
X117384088Y-100553609D01*
X117385095Y-100553777D01*
X117500110Y-100573499D01*
X117500119Y-100573500D01*
X117736707Y-100573500D01*
X117736712Y-100573500D01*
X117773859Y-100567301D01*
X117793475Y-100564028D01*
X117798413Y-100563406D01*
X117851941Y-100558851D01*
X117858887Y-100558260D01*
X117858888Y-100558259D01*
X117858898Y-100558259D01*
X117911297Y-100544614D01*
X117916668Y-100543469D01*
X117966951Y-100535080D01*
X118024502Y-100515322D01*
X118028975Y-100513973D01*
X118090924Y-100497844D01*
X118137259Y-100476898D01*
X118142633Y-100474767D01*
X118187727Y-100459287D01*
X118244132Y-100428761D01*
X118248054Y-100426816D01*
X118309402Y-100399086D01*
X118348795Y-100372459D01*
X118353979Y-100369314D01*
X118393008Y-100348195D01*
X118393012Y-100348193D01*
X118393013Y-100348192D01*
X118393017Y-100348190D01*
X118446228Y-100306772D01*
X118449561Y-100304353D01*
X118508047Y-100264825D01*
X118540001Y-100234198D01*
X118544789Y-100230058D01*
X118577220Y-100204818D01*
X118625119Y-100152784D01*
X118627794Y-100150056D01*
X118681144Y-100098925D01*
X118705497Y-100065996D01*
X118709727Y-100060877D01*
X118717790Y-100052119D01*
X118735314Y-100033083D01*
X118775785Y-99971135D01*
X118777835Y-99968189D01*
X118784593Y-99959052D01*
X118823715Y-99906157D01*
X118840676Y-99872514D01*
X118844114Y-99866549D01*
X118862984Y-99837669D01*
X118894042Y-99766861D01*
X118895413Y-99763950D01*
X118931657Y-99692067D01*
X118941721Y-99659200D01*
X118944221Y-99652466D01*
X118956749Y-99623907D01*
X118976535Y-99545770D01*
X118977334Y-99542909D01*
X119001864Y-99462815D01*
X119005810Y-99431994D01*
X119007198Y-99424684D01*
X119014051Y-99397626D01*
X119015648Y-99378360D01*
X119021090Y-99312672D01*
X119023087Y-99297075D01*
X119032318Y-99224995D01*
X119031139Y-99197249D01*
X119031294Y-99189525D01*
X119033327Y-99165000D01*
X119029045Y-99113330D01*
X119026028Y-99076916D01*
X119022144Y-98985460D01*
X119022143Y-98985457D01*
X119022143Y-98985449D01*
X119016987Y-98961530D01*
X119015808Y-98953586D01*
X119015354Y-98948105D01*
X119014051Y-98932374D01*
X118996990Y-98865000D01*
X119386693Y-98865000D01*
X119386884Y-98867185D01*
X119388672Y-98887639D01*
X119388846Y-98895829D01*
X119387684Y-98921688D01*
X119387685Y-98921690D01*
X119398691Y-99002946D01*
X119399016Y-99005864D01*
X119403457Y-99056616D01*
X119405885Y-99084371D01*
X119412624Y-99109523D01*
X119414174Y-99117243D01*
X119418093Y-99146173D01*
X119418096Y-99146183D01*
X119442413Y-99221023D01*
X119443334Y-99224134D01*
X119462877Y-99297066D01*
X119462881Y-99297078D01*
X119475275Y-99323659D01*
X119478051Y-99330705D01*
X119484321Y-99350000D01*
X119488097Y-99361621D01*
X119497105Y-99378360D01*
X119523822Y-99428010D01*
X119525416Y-99431187D01*
X119555942Y-99496651D01*
X119555943Y-99496653D01*
X119555944Y-99496654D01*
X119574668Y-99523396D01*
X119578475Y-99529574D01*
X119595443Y-99561105D01*
X119595445Y-99561108D01*
X119640397Y-99617475D01*
X119642709Y-99620567D01*
X119682251Y-99677038D01*
X119682254Y-99677041D01*
X119707659Y-99702446D01*
X119712296Y-99707634D01*
X119726886Y-99725930D01*
X119736686Y-99738218D01*
X119788514Y-99783499D01*
X119791557Y-99786344D01*
X119837955Y-99832743D01*
X119837956Y-99832744D01*
X119837959Y-99832746D01*
X119837962Y-99832749D01*
X119869487Y-99854822D01*
X119870109Y-99855258D01*
X119875341Y-99859357D01*
X119907282Y-99887263D01*
X119963535Y-99920872D01*
X119967258Y-99923283D01*
X120003750Y-99948835D01*
X120018338Y-99959051D01*
X120018341Y-99959052D01*
X120018346Y-99959056D01*
X120056910Y-99977038D01*
X120062493Y-99979997D01*
X120101750Y-100003453D01*
X120160010Y-100025317D01*
X120164422Y-100027171D01*
X120217924Y-100052120D01*
X120262204Y-100063984D01*
X120267939Y-100065824D01*
X120291828Y-100074790D01*
X120313839Y-100083051D01*
X120371813Y-100093571D01*
X120376778Y-100094685D01*
X120430629Y-100109115D01*
X120479602Y-100113399D01*
X120485250Y-100114157D01*
X120523998Y-100121189D01*
X120536732Y-100123500D01*
X120536733Y-100123500D01*
X120592348Y-100123500D01*
X120597749Y-100123735D01*
X120626370Y-100126239D01*
X120649998Y-100128307D01*
X120649999Y-100128307D01*
X120649999Y-100128306D01*
X120650000Y-100128307D01*
X120703310Y-100123643D01*
X120706504Y-100123500D01*
X120706522Y-100123500D01*
X120754625Y-100119169D01*
X120761391Y-100118561D01*
X120869353Y-100109117D01*
X120869357Y-100109116D01*
X120869371Y-100109115D01*
X120869383Y-100109111D01*
X120869902Y-100109020D01*
X120875136Y-100108324D01*
X120875622Y-100108281D01*
X120980335Y-100079381D01*
X121082076Y-100052120D01*
X121082089Y-100052113D01*
X121089029Y-100049588D01*
X121093720Y-100048089D01*
X121093993Y-100048014D01*
X121189019Y-100002251D01*
X121281654Y-99959056D01*
X121281663Y-99959049D01*
X121286350Y-99956345D01*
X121286421Y-99956468D01*
X121297206Y-99950152D01*
X121298093Y-99949725D01*
X121380868Y-99889585D01*
X121462038Y-99832749D01*
X121462951Y-99831835D01*
X121477752Y-99819193D01*
X121481363Y-99816571D01*
X121512990Y-99783492D01*
X121549902Y-99744884D01*
X121617746Y-99677041D01*
X121617746Y-99677040D01*
X121617749Y-99677038D01*
X121620476Y-99673142D01*
X121632428Y-99658568D01*
X121637912Y-99652834D01*
X121690809Y-99572697D01*
X121744056Y-99496654D01*
X121747538Y-99489185D01*
X121756436Y-99473276D01*
X121762709Y-99463774D01*
X121799216Y-99378360D01*
X121837120Y-99297076D01*
X121840145Y-99285782D01*
X121845896Y-99269147D01*
X121851743Y-99255470D01*
X121871711Y-99167978D01*
X121894115Y-99084371D01*
X121895807Y-99065024D01*
X121897126Y-99056626D01*
X121902151Y-99034615D01*
X121906036Y-98948105D01*
X121913307Y-98865000D01*
X121911327Y-98842368D01*
X121911153Y-98834173D01*
X121912315Y-98808309D01*
X121901305Y-98727042D01*
X121900981Y-98724125D01*
X121899403Y-98706087D01*
X121894115Y-98645629D01*
X121887377Y-98620483D01*
X121885825Y-98612753D01*
X121884122Y-98600190D01*
X121881906Y-98583825D01*
X121857587Y-98508982D01*
X121856671Y-98505889D01*
X121842430Y-98452741D01*
X121837123Y-98432933D01*
X121837119Y-98432923D01*
X121837117Y-98432917D01*
X121824722Y-98406336D01*
X121821948Y-98399296D01*
X121811903Y-98368379D01*
X121811902Y-98368377D01*
X121811899Y-98368370D01*
X121776167Y-98301970D01*
X121774582Y-98298811D01*
X121744056Y-98233347D01*
X121742464Y-98231073D01*
X121725337Y-98206613D01*
X121721523Y-98200424D01*
X121704555Y-98168892D01*
X121659594Y-98112513D01*
X121657279Y-98109417D01*
X121617750Y-98052963D01*
X121592340Y-98027553D01*
X121587702Y-98022364D01*
X121563312Y-97991780D01*
X121511491Y-97946505D01*
X121508442Y-97943655D01*
X121462039Y-97897251D01*
X121429891Y-97874741D01*
X121424656Y-97870641D01*
X121409386Y-97857300D01*
X121392718Y-97842737D01*
X121336486Y-97809139D01*
X121332725Y-97806704D01*
X121294980Y-97780275D01*
X121281654Y-97770944D01*
X121267940Y-97764549D01*
X121243100Y-97752965D01*
X121237501Y-97749997D01*
X121206701Y-97731596D01*
X121198250Y-97726547D01*
X121139988Y-97704681D01*
X121135588Y-97702833D01*
X121103893Y-97688053D01*
X121082077Y-97677880D01*
X121082065Y-97677876D01*
X121037793Y-97666013D01*
X121032053Y-97664172D01*
X120986160Y-97646948D01*
X120935115Y-97637684D01*
X120928191Y-97636428D01*
X120923217Y-97635312D01*
X120869372Y-97620885D01*
X120857370Y-97619834D01*
X120820403Y-97616600D01*
X120814741Y-97615840D01*
X120779998Y-97609536D01*
X120763267Y-97606500D01*
X120763266Y-97606500D01*
X120707652Y-97606500D01*
X120702250Y-97606264D01*
X120673629Y-97603760D01*
X120650002Y-97601693D01*
X120649997Y-97601693D01*
X120596728Y-97606353D01*
X120593489Y-97606499D01*
X120538608Y-97611438D01*
X120430618Y-97620885D01*
X120430041Y-97620987D01*
X120424889Y-97621672D01*
X120424386Y-97621717D01*
X120424369Y-97621720D01*
X120319664Y-97650618D01*
X120217918Y-97677881D01*
X120210944Y-97680418D01*
X120206268Y-97681912D01*
X120206022Y-97681979D01*
X120206011Y-97681984D01*
X120110964Y-97727755D01*
X120018352Y-97770941D01*
X120013658Y-97773651D01*
X120013587Y-97773529D01*
X120002824Y-97779833D01*
X120001908Y-97780274D01*
X120001902Y-97780277D01*
X119921338Y-97838811D01*
X119919119Y-97840423D01*
X119845229Y-97892163D01*
X119837958Y-97897254D01*
X119837027Y-97898185D01*
X119822264Y-97910793D01*
X119818641Y-97913425D01*
X119818631Y-97913434D01*
X119750097Y-97985115D01*
X119682247Y-98052966D01*
X119682246Y-98052967D01*
X119679506Y-98056880D01*
X119667581Y-98071419D01*
X119662089Y-98077163D01*
X119662085Y-98077169D01*
X119609183Y-98157313D01*
X119555943Y-98233347D01*
X119555941Y-98233352D01*
X119552462Y-98240812D01*
X119543576Y-98256702D01*
X119537292Y-98266222D01*
X119537291Y-98266224D01*
X119500780Y-98351644D01*
X119462882Y-98432917D01*
X119462880Y-98432923D01*
X119459852Y-98444222D01*
X119454102Y-98460854D01*
X119448259Y-98474525D01*
X119448256Y-98474533D01*
X119428288Y-98562021D01*
X119405885Y-98645626D01*
X119405884Y-98645632D01*
X119404192Y-98664970D01*
X119402873Y-98673366D01*
X119397849Y-98695385D01*
X119393963Y-98781894D01*
X119387397Y-98856958D01*
X119386693Y-98865000D01*
X118996990Y-98865000D01*
X118991582Y-98843646D01*
X118971630Y-98751068D01*
X118963735Y-98731424D01*
X118961167Y-98723544D01*
X118956749Y-98706093D01*
X118918714Y-98619383D01*
X118916050Y-98612753D01*
X118882234Y-98528598D01*
X118882233Y-98528596D01*
X118872867Y-98513386D01*
X118868882Y-98505778D01*
X118868102Y-98504000D01*
X118862984Y-98492331D01*
X118809475Y-98410429D01*
X118756524Y-98324431D01*
X118756518Y-98324424D01*
X118756515Y-98324420D01*
X118749839Y-98316834D01*
X118739118Y-98302739D01*
X118735315Y-98296919D01*
X118735314Y-98296917D01*
X118666920Y-98222622D01*
X118598119Y-98144449D01*
X118598118Y-98144448D01*
X118598114Y-98144444D01*
X118592929Y-98140258D01*
X118579597Y-98127765D01*
X118577220Y-98125182D01*
X118564134Y-98114997D01*
X118556828Y-98109310D01*
X118495051Y-98061227D01*
X118411576Y-97993825D01*
X118411574Y-97993823D01*
X118411568Y-97993819D01*
X118408750Y-97992245D01*
X118393070Y-97981851D01*
X118393020Y-97981812D01*
X118393018Y-97981811D01*
X118393017Y-97981810D01*
X118298653Y-97930743D01*
X118295268Y-97928852D01*
X118202259Y-97876894D01*
X118199999Y-97875873D01*
X118192519Y-97872551D01*
X118192422Y-97872773D01*
X118187725Y-97870712D01*
X118083259Y-97834848D01*
X117976197Y-97797021D01*
X117976196Y-97797020D01*
X117976194Y-97797020D01*
X117976192Y-97797019D01*
X117976183Y-97797017D01*
X117975633Y-97796923D01*
X117970913Y-97795922D01*
X117966966Y-97794923D01*
X117966953Y-97794920D01*
X117966951Y-97794920D01*
X117854904Y-97776222D01*
X117850530Y-97775472D01*
X117739890Y-97756500D01*
X117739881Y-97756500D01*
X117736712Y-97756500D01*
X117503288Y-97756500D01*
X117503287Y-97756500D01*
X117446529Y-97765970D01*
X117441587Y-97766592D01*
X117407830Y-97769465D01*
X117381100Y-97771741D01*
X117381097Y-97771741D01*
X117328733Y-97785376D01*
X117323313Y-97786532D01*
X117273049Y-97794919D01*
X117215512Y-97814671D01*
X117211005Y-97816029D01*
X117165895Y-97827776D01*
X117149076Y-97832156D01*
X117149073Y-97832157D01*
X117149070Y-97832158D01*
X117115901Y-97847151D01*
X117105037Y-97852062D01*
X117102758Y-97853092D01*
X117097359Y-97855233D01*
X117082763Y-97860244D01*
X117052273Y-97870712D01*
X116995879Y-97901230D01*
X116991910Y-97903198D01*
X116930597Y-97930914D01*
X116930595Y-97930915D01*
X116891209Y-97957535D01*
X116886002Y-97960693D01*
X116874438Y-97966951D01*
X116846978Y-97981812D01*
X116793780Y-98023218D01*
X116790425Y-98025653D01*
X116760349Y-98045981D01*
X116731951Y-98065176D01*
X116731948Y-98065179D01*
X116700012Y-98095786D01*
X116695193Y-98099952D01*
X116662781Y-98125181D01*
X116662780Y-98125182D01*
X116614898Y-98177193D01*
X116612184Y-98179962D01*
X116558857Y-98231073D01*
X116534503Y-98263999D01*
X116530270Y-98269123D01*
X116504684Y-98296918D01*
X116504681Y-98296922D01*
X116464222Y-98358850D01*
X116462166Y-98361806D01*
X116416287Y-98423839D01*
X116416286Y-98423840D01*
X116399333Y-98457463D01*
X116395875Y-98463463D01*
X116377015Y-98492332D01*
X116345978Y-98563089D01*
X116344562Y-98566096D01*
X116308342Y-98637933D01*
X116308341Y-98637934D01*
X116298280Y-98670786D01*
X116295775Y-98677537D01*
X116283249Y-98706094D01*
X116283249Y-98706095D01*
X116263469Y-98784203D01*
X116262649Y-98787137D01*
X116238137Y-98867178D01*
X116238135Y-98867190D01*
X116234191Y-98897986D01*
X116232795Y-98905335D01*
X116225950Y-98932367D01*
X116225948Y-98932379D01*
X116218909Y-99017327D01*
X116207682Y-99105003D01*
X116207681Y-99105004D01*
X116208859Y-99132731D01*
X116208703Y-99140485D01*
X116206673Y-99164995D01*
X116206673Y-99165000D01*
X115765500Y-99165000D01*
X115765500Y-93715000D01*
X116206673Y-93715000D01*
X116210630Y-93762753D01*
X116213971Y-93803083D01*
X116217856Y-93894543D01*
X116217857Y-93894551D01*
X116221613Y-93911982D01*
X116223010Y-93918461D01*
X116224190Y-93926410D01*
X116225947Y-93947617D01*
X116225949Y-93947629D01*
X116248417Y-94036353D01*
X116268370Y-94128935D01*
X116276257Y-94148561D01*
X116278834Y-94156466D01*
X116283251Y-94173907D01*
X116321285Y-94260616D01*
X116357767Y-94351404D01*
X116367129Y-94366608D01*
X116371117Y-94374220D01*
X116377015Y-94387668D01*
X116430524Y-94469570D01*
X116483473Y-94555565D01*
X116483480Y-94555574D01*
X116490158Y-94563161D01*
X116500886Y-94577267D01*
X116504682Y-94583077D01*
X116504686Y-94583083D01*
X116573079Y-94657377D01*
X116641882Y-94735552D01*
X116641883Y-94735553D01*
X116647070Y-94739741D01*
X116660407Y-94752240D01*
X116662783Y-94754822D01*
X116714116Y-94794775D01*
X116744948Y-94818772D01*
X116792031Y-94856789D01*
X116828421Y-94886173D01*
X116828422Y-94886173D01*
X116828424Y-94886175D01*
X116831165Y-94887706D01*
X116831240Y-94887748D01*
X116846934Y-94898152D01*
X116846979Y-94898187D01*
X116846991Y-94898195D01*
X116912216Y-94933492D01*
X116941346Y-94949256D01*
X117037740Y-95003105D01*
X117037745Y-95003106D01*
X117037749Y-95003109D01*
X117040140Y-95004190D01*
X117047477Y-95007448D01*
X117047575Y-95007226D01*
X117052262Y-95009281D01*
X117052273Y-95009287D01*
X117156740Y-95045151D01*
X117263806Y-95082980D01*
X117264367Y-95083076D01*
X117269109Y-95084081D01*
X117273043Y-95085078D01*
X117273049Y-95085080D01*
X117385095Y-95103777D01*
X117500110Y-95123499D01*
X117500119Y-95123500D01*
X117736707Y-95123500D01*
X117736712Y-95123500D01*
X117769648Y-95118003D01*
X117793475Y-95114028D01*
X117798413Y-95113406D01*
X117851941Y-95108851D01*
X117858887Y-95108260D01*
X117858888Y-95108259D01*
X117858898Y-95108259D01*
X117911297Y-95094614D01*
X117916668Y-95093469D01*
X117966951Y-95085080D01*
X118024502Y-95065322D01*
X118028975Y-95063973D01*
X118090924Y-95047844D01*
X118137259Y-95026898D01*
X118142633Y-95024767D01*
X118187727Y-95009287D01*
X118244132Y-94978761D01*
X118248054Y-94976816D01*
X118309402Y-94949086D01*
X118348795Y-94922459D01*
X118353979Y-94919314D01*
X118393008Y-94898195D01*
X118393012Y-94898193D01*
X118393013Y-94898192D01*
X118393017Y-94898190D01*
X118446228Y-94856772D01*
X118449561Y-94854353D01*
X118508047Y-94814825D01*
X118540001Y-94784198D01*
X118544789Y-94780058D01*
X118577220Y-94754818D01*
X118625119Y-94702784D01*
X118627794Y-94700056D01*
X118681144Y-94648925D01*
X118705497Y-94615996D01*
X118709727Y-94610877D01*
X118719439Y-94600328D01*
X118735314Y-94583083D01*
X118775785Y-94521135D01*
X118777835Y-94518189D01*
X118789376Y-94502585D01*
X118823715Y-94456157D01*
X118840676Y-94422514D01*
X118844114Y-94416549D01*
X118862984Y-94387669D01*
X118894042Y-94316861D01*
X118895413Y-94313950D01*
X118931657Y-94242067D01*
X118941721Y-94209200D01*
X118944221Y-94202466D01*
X118956749Y-94173907D01*
X118976535Y-94095770D01*
X118977334Y-94092909D01*
X119001195Y-94014998D01*
X119386693Y-94014998D01*
X119388672Y-94037639D01*
X119388846Y-94045829D01*
X119387684Y-94071688D01*
X119387685Y-94071690D01*
X119398691Y-94152946D01*
X119399016Y-94155864D01*
X119403821Y-94210781D01*
X119405885Y-94234371D01*
X119412624Y-94259523D01*
X119414174Y-94267243D01*
X119418093Y-94296173D01*
X119418096Y-94296183D01*
X119442413Y-94371023D01*
X119443334Y-94374134D01*
X119462877Y-94447066D01*
X119462881Y-94447078D01*
X119475275Y-94473659D01*
X119478051Y-94480705D01*
X119488097Y-94511621D01*
X119506103Y-94545081D01*
X119523822Y-94578010D01*
X119525416Y-94581187D01*
X119555942Y-94646651D01*
X119555943Y-94646653D01*
X119555944Y-94646654D01*
X119574668Y-94673396D01*
X119578475Y-94679574D01*
X119595443Y-94711105D01*
X119595445Y-94711108D01*
X119640397Y-94767475D01*
X119642709Y-94770567D01*
X119682251Y-94827038D01*
X119682254Y-94827041D01*
X119707659Y-94852446D01*
X119712295Y-94857633D01*
X119736686Y-94888218D01*
X119788514Y-94933499D01*
X119791557Y-94936344D01*
X119837955Y-94982743D01*
X119837956Y-94982744D01*
X119837959Y-94982746D01*
X119837962Y-94982749D01*
X119859802Y-94998041D01*
X119870109Y-95005258D01*
X119875341Y-95009357D01*
X119907282Y-95037263D01*
X119963535Y-95070872D01*
X119967258Y-95073283D01*
X119998518Y-95095172D01*
X120018338Y-95109051D01*
X120018341Y-95109052D01*
X120018346Y-95109056D01*
X120056910Y-95127038D01*
X120062493Y-95129997D01*
X120101750Y-95153453D01*
X120160010Y-95175317D01*
X120164422Y-95177171D01*
X120217924Y-95202120D01*
X120262204Y-95213984D01*
X120267939Y-95215824D01*
X120297021Y-95226739D01*
X120313839Y-95233051D01*
X120371813Y-95243571D01*
X120376778Y-95244685D01*
X120430629Y-95259115D01*
X120479602Y-95263399D01*
X120485250Y-95264157D01*
X120524352Y-95271253D01*
X120536732Y-95273500D01*
X120536733Y-95273500D01*
X120592348Y-95273500D01*
X120597749Y-95273735D01*
X120626370Y-95276239D01*
X120649998Y-95278307D01*
X120649999Y-95278307D01*
X120649999Y-95278306D01*
X120650000Y-95278307D01*
X120703310Y-95273643D01*
X120706504Y-95273500D01*
X120706522Y-95273500D01*
X120754625Y-95269169D01*
X120761391Y-95268561D01*
X120869353Y-95259117D01*
X120869357Y-95259116D01*
X120869371Y-95259115D01*
X120869383Y-95259111D01*
X120869902Y-95259020D01*
X120875136Y-95258324D01*
X120875622Y-95258281D01*
X120980335Y-95229381D01*
X121082076Y-95202120D01*
X121082089Y-95202113D01*
X121089029Y-95199588D01*
X121093720Y-95198089D01*
X121093993Y-95198014D01*
X121189019Y-95152251D01*
X121281654Y-95109056D01*
X121281663Y-95109049D01*
X121286350Y-95106345D01*
X121286421Y-95106468D01*
X121297206Y-95100152D01*
X121298093Y-95099725D01*
X121380868Y-95039585D01*
X121462038Y-94982749D01*
X121462951Y-94981835D01*
X121477752Y-94969193D01*
X121481363Y-94966571D01*
X121512990Y-94933492D01*
X121549902Y-94894884D01*
X121617746Y-94827041D01*
X121617746Y-94827040D01*
X121617749Y-94827038D01*
X121620476Y-94823142D01*
X121632428Y-94808568D01*
X121637912Y-94802834D01*
X121690809Y-94722697D01*
X121744056Y-94646654D01*
X121747538Y-94639185D01*
X121756436Y-94623276D01*
X121759908Y-94618017D01*
X121762709Y-94613774D01*
X121799216Y-94528360D01*
X121837120Y-94447076D01*
X121840145Y-94435782D01*
X121845896Y-94419147D01*
X121851743Y-94405470D01*
X121871711Y-94317978D01*
X121894115Y-94234371D01*
X121895807Y-94215024D01*
X121897126Y-94206626D01*
X121902151Y-94184615D01*
X121906036Y-94098105D01*
X121913307Y-94015000D01*
X121911327Y-93992368D01*
X121911153Y-93984173D01*
X121911417Y-93978295D01*
X121912315Y-93958309D01*
X121901305Y-93877042D01*
X121900981Y-93874125D01*
X121899979Y-93862672D01*
X121894115Y-93795629D01*
X121887377Y-93770483D01*
X121885825Y-93762753D01*
X121883046Y-93742240D01*
X121881906Y-93733825D01*
X121857587Y-93658982D01*
X121856671Y-93655889D01*
X121842430Y-93602741D01*
X121837123Y-93582933D01*
X121837119Y-93582923D01*
X121824722Y-93556336D01*
X121821948Y-93549296D01*
X121811903Y-93518379D01*
X121811902Y-93518377D01*
X121811899Y-93518370D01*
X121776167Y-93451970D01*
X121774582Y-93448811D01*
X121744056Y-93383347D01*
X121744052Y-93383341D01*
X121725337Y-93356613D01*
X121721523Y-93350424D01*
X121704555Y-93318892D01*
X121659594Y-93262513D01*
X121657279Y-93259417D01*
X121617750Y-93202963D01*
X121592340Y-93177553D01*
X121587702Y-93172364D01*
X121563312Y-93141780D01*
X121511491Y-93096505D01*
X121508442Y-93093655D01*
X121462039Y-93047251D01*
X121429891Y-93024741D01*
X121424656Y-93020641D01*
X121413120Y-93010562D01*
X121392718Y-92992737D01*
X121336486Y-92959139D01*
X121332725Y-92956704D01*
X121294980Y-92930275D01*
X121281654Y-92920944D01*
X121262058Y-92911806D01*
X121243100Y-92902965D01*
X121237501Y-92899997D01*
X121206701Y-92881596D01*
X121198250Y-92876547D01*
X121139988Y-92854681D01*
X121135588Y-92852833D01*
X121103893Y-92838053D01*
X121082077Y-92827880D01*
X121082065Y-92827876D01*
X121037793Y-92816013D01*
X121032053Y-92814172D01*
X120986160Y-92796948D01*
X120935115Y-92787684D01*
X120928191Y-92786428D01*
X120923217Y-92785312D01*
X120869372Y-92770885D01*
X120857370Y-92769834D01*
X120820403Y-92766600D01*
X120814741Y-92765840D01*
X120776008Y-92758812D01*
X120763267Y-92756500D01*
X120763266Y-92756500D01*
X120707652Y-92756500D01*
X120702250Y-92756264D01*
X120673629Y-92753760D01*
X120650002Y-92751693D01*
X120649997Y-92751693D01*
X120596728Y-92756353D01*
X120593489Y-92756499D01*
X120538608Y-92761438D01*
X120430618Y-92770885D01*
X120430041Y-92770987D01*
X120424889Y-92771672D01*
X120424386Y-92771717D01*
X120424369Y-92771720D01*
X120319664Y-92800618D01*
X120217918Y-92827881D01*
X120210944Y-92830418D01*
X120206268Y-92831912D01*
X120206022Y-92831979D01*
X120206011Y-92831984D01*
X120110964Y-92877755D01*
X120018352Y-92920941D01*
X120013658Y-92923651D01*
X120013587Y-92923529D01*
X120002824Y-92929833D01*
X120001908Y-92930274D01*
X120001902Y-92930277D01*
X119919119Y-92990423D01*
X119844989Y-93042331D01*
X119837958Y-93047254D01*
X119837027Y-93048185D01*
X119822264Y-93060793D01*
X119818641Y-93063425D01*
X119818631Y-93063434D01*
X119750097Y-93135115D01*
X119682247Y-93202966D01*
X119682246Y-93202967D01*
X119679506Y-93206880D01*
X119667581Y-93221419D01*
X119662089Y-93227163D01*
X119662085Y-93227169D01*
X119609183Y-93307313D01*
X119555943Y-93383347D01*
X119555941Y-93383352D01*
X119552462Y-93390812D01*
X119543576Y-93406702D01*
X119537292Y-93416222D01*
X119537291Y-93416224D01*
X119500780Y-93501644D01*
X119462882Y-93582917D01*
X119462880Y-93582923D01*
X119459852Y-93594222D01*
X119454102Y-93610854D01*
X119448259Y-93624525D01*
X119448256Y-93624533D01*
X119428288Y-93712021D01*
X119405885Y-93795626D01*
X119405884Y-93795632D01*
X119404192Y-93814970D01*
X119402873Y-93823366D01*
X119397849Y-93845385D01*
X119393963Y-93931894D01*
X119386693Y-94014996D01*
X119386693Y-94014998D01*
X119001195Y-94014998D01*
X119001864Y-94012815D01*
X119005810Y-93981994D01*
X119007198Y-93974684D01*
X119014051Y-93947626D01*
X119021090Y-93862672D01*
X119032318Y-93774995D01*
X119031139Y-93747249D01*
X119031294Y-93739525D01*
X119033327Y-93715000D01*
X119033080Y-93712021D01*
X119026028Y-93626916D01*
X119022144Y-93535460D01*
X119022143Y-93535457D01*
X119022143Y-93535449D01*
X119016987Y-93511530D01*
X119015808Y-93503586D01*
X119014051Y-93482379D01*
X119014051Y-93482374D01*
X118991582Y-93393646D01*
X118971630Y-93301068D01*
X118963735Y-93281424D01*
X118961167Y-93273544D01*
X118956749Y-93256093D01*
X118918714Y-93169383D01*
X118896093Y-93113089D01*
X118882234Y-93078598D01*
X118882233Y-93078596D01*
X118872867Y-93063386D01*
X118868882Y-93055778D01*
X118868102Y-93054000D01*
X118862984Y-93042331D01*
X118809475Y-92960429D01*
X118758571Y-92877755D01*
X118756529Y-92874439D01*
X118756528Y-92874438D01*
X118756524Y-92874431D01*
X118756518Y-92874424D01*
X118756515Y-92874420D01*
X118749839Y-92866834D01*
X118739118Y-92852739D01*
X118735315Y-92846919D01*
X118735314Y-92846917D01*
X118666920Y-92772622D01*
X118598119Y-92694449D01*
X118598118Y-92694448D01*
X118598114Y-92694444D01*
X118592929Y-92690258D01*
X118579597Y-92677765D01*
X118577220Y-92675182D01*
X118495051Y-92611227D01*
X118411576Y-92543825D01*
X118411574Y-92543823D01*
X118411568Y-92543819D01*
X118408750Y-92542245D01*
X118393070Y-92531851D01*
X118393020Y-92531812D01*
X118393018Y-92531811D01*
X118393017Y-92531810D01*
X118298653Y-92480743D01*
X118245822Y-92451230D01*
X118202259Y-92426894D01*
X118199999Y-92425873D01*
X118192519Y-92422551D01*
X118192422Y-92422773D01*
X118187725Y-92420712D01*
X118083259Y-92384848D01*
X117976197Y-92347021D01*
X117976196Y-92347020D01*
X117976194Y-92347020D01*
X117976192Y-92347019D01*
X117976183Y-92347017D01*
X117975633Y-92346923D01*
X117970913Y-92345922D01*
X117966966Y-92344923D01*
X117966953Y-92344920D01*
X117966951Y-92344920D01*
X117854904Y-92326222D01*
X117739890Y-92306500D01*
X117739881Y-92306500D01*
X117736712Y-92306500D01*
X117503288Y-92306500D01*
X117503287Y-92306500D01*
X117446529Y-92315970D01*
X117441587Y-92316592D01*
X117407830Y-92319465D01*
X117381100Y-92321741D01*
X117381097Y-92321741D01*
X117328733Y-92335376D01*
X117323313Y-92336532D01*
X117273049Y-92344919D01*
X117215512Y-92364671D01*
X117211005Y-92366029D01*
X117165895Y-92377776D01*
X117149076Y-92382156D01*
X117149073Y-92382157D01*
X117149070Y-92382158D01*
X117102758Y-92403092D01*
X117097359Y-92405233D01*
X117082763Y-92410244D01*
X117052273Y-92420712D01*
X116995879Y-92451230D01*
X116991910Y-92453198D01*
X116930597Y-92480914D01*
X116930595Y-92480915D01*
X116891209Y-92507535D01*
X116886002Y-92510693D01*
X116874438Y-92516951D01*
X116846978Y-92531812D01*
X116793780Y-92573218D01*
X116790425Y-92575653D01*
X116760349Y-92595981D01*
X116731951Y-92615176D01*
X116731948Y-92615179D01*
X116700012Y-92645786D01*
X116695193Y-92649952D01*
X116662781Y-92675181D01*
X116662780Y-92675182D01*
X116614898Y-92727193D01*
X116612184Y-92729962D01*
X116558857Y-92781073D01*
X116534503Y-92813999D01*
X116530270Y-92819123D01*
X116504684Y-92846918D01*
X116504681Y-92846922D01*
X116464222Y-92908850D01*
X116462166Y-92911806D01*
X116416287Y-92973839D01*
X116416286Y-92973840D01*
X116399333Y-93007463D01*
X116395875Y-93013463D01*
X116377015Y-93042332D01*
X116345978Y-93113089D01*
X116344562Y-93116096D01*
X116308342Y-93187933D01*
X116308341Y-93187934D01*
X116298280Y-93220786D01*
X116295775Y-93227537D01*
X116283249Y-93256094D01*
X116283249Y-93256095D01*
X116263469Y-93334203D01*
X116262649Y-93337137D01*
X116238137Y-93417178D01*
X116238135Y-93417190D01*
X116234191Y-93447986D01*
X116232795Y-93455335D01*
X116225950Y-93482367D01*
X116225948Y-93482379D01*
X116218909Y-93567327D01*
X116207682Y-93655003D01*
X116207681Y-93655004D01*
X116208859Y-93682731D01*
X116208703Y-93690485D01*
X116206673Y-93714995D01*
X116206673Y-93715000D01*
X115765500Y-93715000D01*
X115765500Y-75224500D01*
X115785185Y-75157461D01*
X115837989Y-75111706D01*
X115889500Y-75100500D01*
X179812709Y-75100500D01*
X179879748Y-75120185D01*
G37*
G04 #@! TD.AperFunction*
M02*
